G75*
%MOIN*%
%OFA0B0*%
%FSLAX25Y25*%
%IPPOS*%
%LPD*%
%AMOC8*
5,1,8,0,0,1.08239X$1,22.5*
%
%ADD10C,0.00000*%
%ADD11C,0.06600*%
%ADD12C,0.00600*%
%ADD13C,0.00700*%
%ADD14C,0.01600*%
%ADD15C,0.00800*%
%ADD16R,0.00200X0.00400*%
%ADD17R,0.00200X0.01800*%
%ADD18R,0.00200X0.02200*%
%ADD19R,0.00200X0.02800*%
%ADD20R,0.00200X0.03000*%
%ADD21R,0.00200X0.03200*%
%ADD22R,0.00200X0.03600*%
%ADD23R,0.00200X0.04200*%
%ADD24R,0.00200X0.04400*%
%ADD25R,0.00200X0.04600*%
%ADD26R,0.00200X0.04800*%
%ADD27R,0.00200X0.05000*%
%ADD28R,0.00200X0.05200*%
%ADD29R,0.00200X0.05400*%
%ADD30R,0.00200X0.05600*%
%ADD31R,0.00200X0.05800*%
%ADD32R,0.00200X0.06000*%
%ADD33R,0.00200X0.06200*%
%ADD34R,0.00200X0.06400*%
%ADD35R,0.00200X0.06600*%
%ADD36R,0.00200X0.01200*%
%ADD37R,0.00200X0.01400*%
%ADD38R,0.00200X0.02400*%
%ADD39R,0.00200X0.06800*%
%ADD40R,0.00200X0.03400*%
%ADD41R,0.00200X0.04000*%
%ADD42R,0.00200X0.02000*%
%ADD43R,0.00200X0.07000*%
%ADD44R,0.00200X0.07200*%
%ADD45R,0.00200X0.07400*%
%ADD46R,0.00200X0.07600*%
%ADD47R,0.00200X0.07800*%
%ADD48R,0.00200X0.08000*%
%ADD49R,0.00200X0.08200*%
%ADD50R,0.00200X0.08600*%
%ADD51R,0.00200X0.08400*%
%ADD52R,0.00200X0.08800*%
%ADD53R,0.00200X0.09000*%
%ADD54R,0.00200X0.09200*%
%ADD55R,0.00200X0.09400*%
%ADD56R,0.00200X0.09600*%
%ADD57R,0.00200X0.10000*%
%ADD58R,0.00200X0.09800*%
%ADD59R,0.00200X0.10200*%
%ADD60R,0.00200X0.10400*%
%ADD61R,0.00200X0.10600*%
%ADD62R,0.00200X0.10800*%
%ADD63R,0.00200X0.11000*%
%ADD64R,0.00200X0.11400*%
%ADD65R,0.00200X0.22200*%
%ADD66R,0.00200X0.21800*%
%ADD67R,0.00200X0.00600*%
%ADD68R,0.00200X0.21600*%
%ADD69R,0.00200X0.21400*%
%ADD70R,0.00200X0.25800*%
%ADD71R,0.00200X0.26200*%
%ADD72R,0.00200X0.26400*%
%ADD73R,0.00200X0.26800*%
%ADD74R,0.00200X0.27200*%
%ADD75R,0.00200X0.27400*%
%ADD76R,0.00200X0.27600*%
%ADD77R,0.00200X0.28000*%
%ADD78R,0.00200X0.28200*%
%ADD79R,0.00200X0.28600*%
%ADD80R,0.00200X0.29200*%
%ADD81R,0.00200X0.29800*%
%ADD82R,0.00200X0.18600*%
%ADD83R,0.00200X0.11600*%
%ADD84R,0.00200X0.32000*%
%ADD85R,0.00200X0.44200*%
%ADD86R,0.00200X0.30400*%
%ADD87R,0.00200X0.13400*%
%ADD88R,0.00200X0.44400*%
%ADD89R,0.00200X0.45400*%
%ADD90R,0.00200X0.45600*%
%ADD91R,0.00200X0.46000*%
%ADD92R,0.00200X0.46200*%
%ADD93R,0.00200X0.46400*%
%ADD94R,0.00200X0.46600*%
%ADD95R,0.00200X0.46800*%
%ADD96R,0.00200X0.47000*%
%ADD97R,0.00200X0.47200*%
%ADD98R,0.00200X0.47400*%
%ADD99R,0.00200X0.47600*%
%ADD100R,0.00200X0.36400*%
%ADD101R,0.00200X0.36000*%
%ADD102R,0.00200X0.35800*%
%ADD103R,0.00200X0.35600*%
%ADD104R,0.00200X0.35200*%
%ADD105R,0.00200X0.19200*%
%ADD106R,0.00200X0.17800*%
%ADD107R,0.00200X0.17600*%
%ADD108R,0.00200X0.16600*%
%ADD109R,0.00200X0.16200*%
%ADD110R,0.00200X0.16000*%
%ADD111R,0.00200X0.15400*%
%ADD112R,0.00200X0.15000*%
%ADD113R,0.00200X0.14600*%
%ADD114R,0.00200X0.14400*%
%ADD115R,0.00200X0.14200*%
%ADD116R,0.00200X0.11800*%
%ADD117R,0.00200X0.14000*%
%ADD118R,0.00200X0.12800*%
%ADD119R,0.00200X0.13600*%
%ADD120R,0.00200X0.14800*%
%ADD121R,0.00200X0.00200*%
%ADD122R,0.00200X0.13200*%
%ADD123R,0.00200X0.16400*%
%ADD124R,0.00200X0.17200*%
%ADD125R,0.00200X0.12600*%
%ADD126R,0.00200X0.19400*%
%ADD127R,0.00200X0.12200*%
%ADD128R,0.00200X0.20200*%
%ADD129R,0.00200X0.20400*%
%ADD130R,0.00200X0.12000*%
%ADD131R,0.00200X0.21000*%
%ADD132R,0.00200X0.22600*%
%ADD133R,0.00200X0.11200*%
%ADD134R,0.00200X0.23000*%
%ADD135R,0.00200X0.00800*%
%ADD136R,0.00200X0.24000*%
%ADD137R,0.00200X0.03800*%
%ADD138R,0.00200X0.25000*%
%ADD139R,0.00200X0.26000*%
%ADD140R,0.00200X0.27800*%
%ADD141R,0.00200X0.29000*%
%ADD142R,0.00200X0.01600*%
%ADD143R,0.00200X0.29600*%
%ADD144R,0.00200X0.31200*%
%ADD145R,0.00200X0.32400*%
%ADD146R,0.00200X0.32800*%
%ADD147R,0.00200X0.33400*%
%ADD148R,0.00200X0.33800*%
%ADD149R,0.00200X0.34200*%
%ADD150R,0.00200X0.34600*%
%ADD151R,0.00200X0.34800*%
%ADD152R,0.00200X0.35000*%
%ADD153R,0.00200X0.35400*%
%ADD154R,0.00200X0.01000*%
%ADD155R,0.00200X0.33600*%
%ADD156R,0.00200X0.33200*%
%ADD157R,0.00200X0.12400*%
%ADD158R,0.00200X0.33000*%
%ADD159R,0.00200X0.32200*%
%ADD160R,0.00200X0.30800*%
%ADD161R,0.00200X0.29400*%
%ADD162R,0.00200X0.28800*%
%ADD163R,0.00200X0.13000*%
%ADD164R,0.00200X0.26600*%
%ADD165R,0.00200X0.25600*%
%ADD166R,0.00200X0.25200*%
%ADD167R,0.00200X0.24800*%
%ADD168R,0.00200X0.24200*%
%ADD169R,0.00200X0.23600*%
%ADD170R,0.00200X0.13800*%
%ADD171R,0.00200X0.22400*%
%ADD172R,0.00200X0.21200*%
%ADD173R,0.00200X0.15200*%
%ADD174R,0.00200X0.02600*%
%ADD175R,0.00200X0.15600*%
%ADD176R,0.00200X0.16800*%
%ADD177R,0.00200X0.17000*%
%ADD178R,0.00200X0.17400*%
%ADD179R,0.00200X0.18000*%
%ADD180R,0.00200X0.15800*%
%ADD181R,0.00200X0.30600*%
%ADD182R,0.00200X0.38000*%
%ADD183R,0.00200X0.37800*%
%ADD184R,0.00200X0.37600*%
%ADD185R,0.00200X0.37400*%
%ADD186R,0.00200X0.37200*%
%ADD187R,0.00200X0.37000*%
%ADD188R,0.00200X0.22800*%
%ADD189R,0.00200X0.20800*%
%ADD190R,0.00200X0.19800*%
%ADD191R,0.00200X0.18800*%
%ADD192R,0.00200X0.22000*%
%ADD193R,0.00200X0.34400*%
%ADD194R,0.00200X0.42200*%
%ADD195R,0.00200X0.41800*%
%ADD196R,0.00200X0.41400*%
%ADD197R,0.00200X0.41200*%
%ADD198R,0.00200X0.40400*%
%ADD199R,0.00200X0.40000*%
%ADD200R,0.00200X0.39600*%
%ADD201R,0.00200X0.40200*%
%ADD202R,0.00200X0.42400*%
%ADD203R,0.00200X0.43800*%
%ADD204R,0.00200X0.44600*%
%ADD205R,0.00200X0.45200*%
%ADD206R,0.00200X0.48400*%
%ADD207R,0.00200X0.48800*%
%ADD208R,0.00200X0.49200*%
%ADD209R,0.00200X0.49800*%
%ADD210R,0.00200X0.50000*%
%ADD211R,0.00200X0.50800*%
%ADD212R,0.00200X0.51000*%
%ADD213R,0.00200X0.51200*%
%ADD214R,0.00200X0.51800*%
%ADD215R,0.00200X0.52400*%
%ADD216R,0.00200X0.52600*%
%ADD217R,0.00200X0.53000*%
%ADD218R,0.00200X0.53600*%
%ADD219R,0.00200X0.53800*%
%ADD220R,0.00200X0.54600*%
%ADD221R,0.00200X0.55000*%
%ADD222R,0.00200X0.55600*%
%ADD223R,0.00200X0.56400*%
%ADD224R,0.00200X0.56600*%
%ADD225R,0.00200X0.56800*%
%ADD226R,0.00200X0.57200*%
%ADD227R,0.00200X0.57400*%
%ADD228R,0.00200X0.57800*%
%ADD229R,0.00200X0.58000*%
%ADD230R,0.00200X0.58600*%
%ADD231R,0.00200X0.41600*%
%ADD232R,0.00200X0.41000*%
%ADD233R,0.00200X0.40800*%
%ADD234R,0.00200X0.40600*%
%ADD235R,0.00200X0.27000*%
%ADD236R,0.00200X0.25400*%
%ADD237R,0.00200X0.24600*%
%ADD238R,0.00200X0.24400*%
%ADD239R,0.00200X0.18200*%
%ADD240R,0.00200X0.18400*%
%ADD241R,0.00200X0.20000*%
%ADD242R,0.00200X0.20600*%
%ADD243R,0.00200X0.23200*%
%ADD244R,0.00200X0.23400*%
%ADD245R,0.00200X0.67600*%
%ADD246R,0.00200X0.67000*%
%ADD247R,0.00200X0.66600*%
%ADD248R,0.00200X0.65800*%
%ADD249R,0.00200X0.65600*%
%ADD250R,0.00200X0.64800*%
%ADD251R,0.00200X0.64200*%
%ADD252R,0.00200X0.63600*%
%ADD253R,0.00200X0.63200*%
%ADD254R,0.00200X0.62600*%
%ADD255R,0.00200X0.62000*%
%ADD256R,0.00200X0.61400*%
%ADD257R,0.00200X0.61200*%
%ADD258R,0.00200X0.60200*%
%ADD259R,0.00200X0.60000*%
%ADD260R,0.00200X0.59600*%
%ADD261R,0.00200X0.58200*%
%ADD262R,0.00200X0.57600*%
%ADD263R,0.00200X0.56000*%
%ADD264R,0.00200X0.54800*%
%ADD265R,0.00200X0.54000*%
%ADD266R,0.00200X0.51400*%
%ADD267R,0.00200X0.50400*%
%ADD268R,0.00200X0.49600*%
%ADD269R,0.00200X0.48600*%
%ADD270R,0.00200X0.48200*%
%ADD271R,0.00200X0.47800*%
%ADD272R,0.00200X0.45000*%
%ADD273R,0.00200X0.43200*%
%ADD274R,0.00200X0.42800*%
%ADD275R,0.00200X0.38800*%
%ADD276R,0.00200X0.38200*%
%ADD277R,0.00200X0.36800*%
%ADD278R,0.00200X0.28400*%
%ADD279C,0.00200*%
%ADD280C,0.00500*%
D10*
X0059668Y0020048D02*
X0059668Y0185402D01*
X0059673Y0185783D01*
X0059686Y0186163D01*
X0059709Y0186543D01*
X0059742Y0186922D01*
X0059783Y0187300D01*
X0059833Y0187677D01*
X0059893Y0188053D01*
X0059961Y0188428D01*
X0060039Y0188800D01*
X0060126Y0189171D01*
X0060221Y0189539D01*
X0060326Y0189905D01*
X0060439Y0190268D01*
X0060561Y0190629D01*
X0060691Y0190986D01*
X0060831Y0191340D01*
X0060978Y0191691D01*
X0061135Y0192038D01*
X0061299Y0192381D01*
X0061472Y0192720D01*
X0061653Y0193055D01*
X0061842Y0193386D01*
X0062039Y0193711D01*
X0062243Y0194032D01*
X0062456Y0194348D01*
X0062676Y0194658D01*
X0062903Y0194964D01*
X0063138Y0195263D01*
X0063380Y0195557D01*
X0063628Y0195845D01*
X0063884Y0196127D01*
X0064147Y0196402D01*
X0064416Y0196671D01*
X0064691Y0196934D01*
X0064973Y0197190D01*
X0065261Y0197438D01*
X0065555Y0197680D01*
X0065854Y0197915D01*
X0066160Y0198142D01*
X0066470Y0198362D01*
X0066786Y0198575D01*
X0067107Y0198779D01*
X0067432Y0198976D01*
X0067763Y0199165D01*
X0068098Y0199346D01*
X0068437Y0199519D01*
X0068780Y0199683D01*
X0069127Y0199840D01*
X0069478Y0199987D01*
X0069832Y0200127D01*
X0070189Y0200257D01*
X0070550Y0200379D01*
X0070913Y0200492D01*
X0071279Y0200597D01*
X0071647Y0200692D01*
X0072018Y0200779D01*
X0072390Y0200857D01*
X0072765Y0200925D01*
X0073141Y0200985D01*
X0073518Y0201035D01*
X0073896Y0201076D01*
X0074275Y0201109D01*
X0074655Y0201132D01*
X0075035Y0201145D01*
X0075416Y0201150D01*
X0437620Y0201150D01*
X0438001Y0201145D01*
X0438381Y0201132D01*
X0438761Y0201109D01*
X0439140Y0201076D01*
X0439518Y0201035D01*
X0439895Y0200985D01*
X0440271Y0200925D01*
X0440646Y0200857D01*
X0441018Y0200779D01*
X0441389Y0200692D01*
X0441757Y0200597D01*
X0442123Y0200492D01*
X0442486Y0200379D01*
X0442847Y0200257D01*
X0443204Y0200127D01*
X0443558Y0199987D01*
X0443909Y0199840D01*
X0444256Y0199683D01*
X0444599Y0199519D01*
X0444938Y0199346D01*
X0445273Y0199165D01*
X0445604Y0198976D01*
X0445929Y0198779D01*
X0446250Y0198575D01*
X0446566Y0198362D01*
X0446876Y0198142D01*
X0447182Y0197915D01*
X0447481Y0197680D01*
X0447775Y0197438D01*
X0448063Y0197190D01*
X0448345Y0196934D01*
X0448620Y0196671D01*
X0448889Y0196402D01*
X0449152Y0196127D01*
X0449408Y0195845D01*
X0449656Y0195557D01*
X0449898Y0195263D01*
X0450133Y0194964D01*
X0450360Y0194658D01*
X0450580Y0194348D01*
X0450793Y0194032D01*
X0450997Y0193711D01*
X0451194Y0193386D01*
X0451383Y0193055D01*
X0451564Y0192720D01*
X0451737Y0192381D01*
X0451901Y0192038D01*
X0452058Y0191691D01*
X0452205Y0191340D01*
X0452345Y0190986D01*
X0452475Y0190629D01*
X0452597Y0190268D01*
X0452710Y0189905D01*
X0452815Y0189539D01*
X0452910Y0189171D01*
X0452997Y0188800D01*
X0453075Y0188428D01*
X0453143Y0188053D01*
X0453203Y0187677D01*
X0453253Y0187300D01*
X0453294Y0186922D01*
X0453327Y0186543D01*
X0453350Y0186163D01*
X0453363Y0185783D01*
X0453368Y0185402D01*
X0453369Y0185402D02*
X0453369Y0020048D01*
X0453368Y0020048D02*
X0453363Y0019667D01*
X0453350Y0019287D01*
X0453327Y0018907D01*
X0453294Y0018528D01*
X0453253Y0018150D01*
X0453203Y0017773D01*
X0453143Y0017397D01*
X0453075Y0017022D01*
X0452997Y0016650D01*
X0452910Y0016279D01*
X0452815Y0015911D01*
X0452710Y0015545D01*
X0452597Y0015182D01*
X0452475Y0014821D01*
X0452345Y0014464D01*
X0452205Y0014110D01*
X0452058Y0013759D01*
X0451901Y0013412D01*
X0451737Y0013069D01*
X0451564Y0012730D01*
X0451383Y0012395D01*
X0451194Y0012064D01*
X0450997Y0011739D01*
X0450793Y0011418D01*
X0450580Y0011102D01*
X0450360Y0010792D01*
X0450133Y0010486D01*
X0449898Y0010187D01*
X0449656Y0009893D01*
X0449408Y0009605D01*
X0449152Y0009323D01*
X0448889Y0009048D01*
X0448620Y0008779D01*
X0448345Y0008516D01*
X0448063Y0008260D01*
X0447775Y0008012D01*
X0447481Y0007770D01*
X0447182Y0007535D01*
X0446876Y0007308D01*
X0446566Y0007088D01*
X0446250Y0006875D01*
X0445929Y0006671D01*
X0445604Y0006474D01*
X0445273Y0006285D01*
X0444938Y0006104D01*
X0444599Y0005931D01*
X0444256Y0005767D01*
X0443909Y0005610D01*
X0443558Y0005463D01*
X0443204Y0005323D01*
X0442847Y0005193D01*
X0442486Y0005071D01*
X0442123Y0004958D01*
X0441757Y0004853D01*
X0441389Y0004758D01*
X0441018Y0004671D01*
X0440646Y0004593D01*
X0440271Y0004525D01*
X0439895Y0004465D01*
X0439518Y0004415D01*
X0439140Y0004374D01*
X0438761Y0004341D01*
X0438381Y0004318D01*
X0438001Y0004305D01*
X0437620Y0004300D01*
X0075416Y0004300D01*
X0075035Y0004305D01*
X0074655Y0004318D01*
X0074275Y0004341D01*
X0073896Y0004374D01*
X0073518Y0004415D01*
X0073141Y0004465D01*
X0072765Y0004525D01*
X0072390Y0004593D01*
X0072018Y0004671D01*
X0071647Y0004758D01*
X0071279Y0004853D01*
X0070913Y0004958D01*
X0070550Y0005071D01*
X0070189Y0005193D01*
X0069832Y0005323D01*
X0069478Y0005463D01*
X0069127Y0005610D01*
X0068780Y0005767D01*
X0068437Y0005931D01*
X0068098Y0006104D01*
X0067763Y0006285D01*
X0067432Y0006474D01*
X0067107Y0006671D01*
X0066786Y0006875D01*
X0066470Y0007088D01*
X0066160Y0007308D01*
X0065854Y0007535D01*
X0065555Y0007770D01*
X0065261Y0008012D01*
X0064973Y0008260D01*
X0064691Y0008516D01*
X0064416Y0008779D01*
X0064147Y0009048D01*
X0063884Y0009323D01*
X0063628Y0009605D01*
X0063380Y0009893D01*
X0063138Y0010187D01*
X0062903Y0010486D01*
X0062676Y0010792D01*
X0062456Y0011102D01*
X0062243Y0011418D01*
X0062039Y0011739D01*
X0061842Y0012064D01*
X0061653Y0012395D01*
X0061472Y0012730D01*
X0061299Y0013069D01*
X0061135Y0013412D01*
X0060978Y0013759D01*
X0060831Y0014110D01*
X0060691Y0014464D01*
X0060561Y0014821D01*
X0060439Y0015182D01*
X0060326Y0015545D01*
X0060221Y0015911D01*
X0060126Y0016279D01*
X0060039Y0016650D01*
X0059961Y0017022D01*
X0059893Y0017397D01*
X0059833Y0017773D01*
X0059783Y0018150D01*
X0059742Y0018528D01*
X0059709Y0018907D01*
X0059686Y0019287D01*
X0059673Y0019667D01*
X0059668Y0020048D01*
X0068920Y0097942D02*
X0068922Y0098035D01*
X0068928Y0098127D01*
X0068938Y0098219D01*
X0068952Y0098310D01*
X0068969Y0098401D01*
X0068991Y0098491D01*
X0069016Y0098580D01*
X0069045Y0098668D01*
X0069078Y0098754D01*
X0069115Y0098839D01*
X0069155Y0098923D01*
X0069199Y0099004D01*
X0069246Y0099084D01*
X0069296Y0099162D01*
X0069350Y0099237D01*
X0069407Y0099310D01*
X0069467Y0099380D01*
X0069530Y0099448D01*
X0069596Y0099513D01*
X0069664Y0099575D01*
X0069735Y0099635D01*
X0069809Y0099691D01*
X0069885Y0099744D01*
X0069963Y0099793D01*
X0070043Y0099840D01*
X0070125Y0099882D01*
X0070209Y0099922D01*
X0070294Y0099957D01*
X0070381Y0099989D01*
X0070469Y0100018D01*
X0070558Y0100042D01*
X0070648Y0100063D01*
X0070739Y0100079D01*
X0070831Y0100092D01*
X0070923Y0100101D01*
X0071016Y0100106D01*
X0071108Y0100107D01*
X0071201Y0100104D01*
X0071293Y0100097D01*
X0071385Y0100086D01*
X0071476Y0100071D01*
X0071567Y0100053D01*
X0071657Y0100030D01*
X0071745Y0100004D01*
X0071833Y0099974D01*
X0071919Y0099940D01*
X0072003Y0099903D01*
X0072086Y0099861D01*
X0072167Y0099817D01*
X0072247Y0099769D01*
X0072324Y0099718D01*
X0072398Y0099663D01*
X0072471Y0099605D01*
X0072541Y0099545D01*
X0072608Y0099481D01*
X0072672Y0099415D01*
X0072734Y0099345D01*
X0072792Y0099274D01*
X0072847Y0099200D01*
X0072899Y0099123D01*
X0072948Y0099044D01*
X0072994Y0098964D01*
X0073036Y0098881D01*
X0073074Y0098797D01*
X0073109Y0098711D01*
X0073140Y0098624D01*
X0073167Y0098536D01*
X0073190Y0098446D01*
X0073210Y0098356D01*
X0073226Y0098265D01*
X0073238Y0098173D01*
X0073246Y0098081D01*
X0073250Y0097988D01*
X0073250Y0097896D01*
X0073246Y0097803D01*
X0073238Y0097711D01*
X0073226Y0097619D01*
X0073210Y0097528D01*
X0073190Y0097438D01*
X0073167Y0097348D01*
X0073140Y0097260D01*
X0073109Y0097173D01*
X0073074Y0097087D01*
X0073036Y0097003D01*
X0072994Y0096920D01*
X0072948Y0096840D01*
X0072899Y0096761D01*
X0072847Y0096684D01*
X0072792Y0096610D01*
X0072734Y0096539D01*
X0072672Y0096469D01*
X0072608Y0096403D01*
X0072541Y0096339D01*
X0072471Y0096279D01*
X0072398Y0096221D01*
X0072324Y0096166D01*
X0072247Y0096115D01*
X0072168Y0096067D01*
X0072086Y0096023D01*
X0072003Y0095981D01*
X0071919Y0095944D01*
X0071833Y0095910D01*
X0071745Y0095880D01*
X0071657Y0095854D01*
X0071567Y0095831D01*
X0071476Y0095813D01*
X0071385Y0095798D01*
X0071293Y0095787D01*
X0071201Y0095780D01*
X0071108Y0095777D01*
X0071016Y0095778D01*
X0070923Y0095783D01*
X0070831Y0095792D01*
X0070739Y0095805D01*
X0070648Y0095821D01*
X0070558Y0095842D01*
X0070469Y0095866D01*
X0070381Y0095895D01*
X0070294Y0095927D01*
X0070209Y0095962D01*
X0070125Y0096002D01*
X0070043Y0096044D01*
X0069963Y0096091D01*
X0069885Y0096140D01*
X0069809Y0096193D01*
X0069735Y0096249D01*
X0069664Y0096309D01*
X0069596Y0096371D01*
X0069530Y0096436D01*
X0069467Y0096504D01*
X0069407Y0096574D01*
X0069350Y0096647D01*
X0069296Y0096722D01*
X0069246Y0096800D01*
X0069199Y0096880D01*
X0069155Y0096961D01*
X0069115Y0097045D01*
X0069078Y0097130D01*
X0069045Y0097216D01*
X0069016Y0097304D01*
X0068991Y0097393D01*
X0068969Y0097483D01*
X0068952Y0097574D01*
X0068938Y0097665D01*
X0068928Y0097757D01*
X0068922Y0097849D01*
X0068920Y0097942D01*
X0068920Y0115658D02*
X0068922Y0115751D01*
X0068928Y0115843D01*
X0068938Y0115935D01*
X0068952Y0116026D01*
X0068969Y0116117D01*
X0068991Y0116207D01*
X0069016Y0116296D01*
X0069045Y0116384D01*
X0069078Y0116470D01*
X0069115Y0116555D01*
X0069155Y0116639D01*
X0069199Y0116720D01*
X0069246Y0116800D01*
X0069296Y0116878D01*
X0069350Y0116953D01*
X0069407Y0117026D01*
X0069467Y0117096D01*
X0069530Y0117164D01*
X0069596Y0117229D01*
X0069664Y0117291D01*
X0069735Y0117351D01*
X0069809Y0117407D01*
X0069885Y0117460D01*
X0069963Y0117509D01*
X0070043Y0117556D01*
X0070125Y0117598D01*
X0070209Y0117638D01*
X0070294Y0117673D01*
X0070381Y0117705D01*
X0070469Y0117734D01*
X0070558Y0117758D01*
X0070648Y0117779D01*
X0070739Y0117795D01*
X0070831Y0117808D01*
X0070923Y0117817D01*
X0071016Y0117822D01*
X0071108Y0117823D01*
X0071201Y0117820D01*
X0071293Y0117813D01*
X0071385Y0117802D01*
X0071476Y0117787D01*
X0071567Y0117769D01*
X0071657Y0117746D01*
X0071745Y0117720D01*
X0071833Y0117690D01*
X0071919Y0117656D01*
X0072003Y0117619D01*
X0072086Y0117577D01*
X0072167Y0117533D01*
X0072247Y0117485D01*
X0072324Y0117434D01*
X0072398Y0117379D01*
X0072471Y0117321D01*
X0072541Y0117261D01*
X0072608Y0117197D01*
X0072672Y0117131D01*
X0072734Y0117061D01*
X0072792Y0116990D01*
X0072847Y0116916D01*
X0072899Y0116839D01*
X0072948Y0116760D01*
X0072994Y0116680D01*
X0073036Y0116597D01*
X0073074Y0116513D01*
X0073109Y0116427D01*
X0073140Y0116340D01*
X0073167Y0116252D01*
X0073190Y0116162D01*
X0073210Y0116072D01*
X0073226Y0115981D01*
X0073238Y0115889D01*
X0073246Y0115797D01*
X0073250Y0115704D01*
X0073250Y0115612D01*
X0073246Y0115519D01*
X0073238Y0115427D01*
X0073226Y0115335D01*
X0073210Y0115244D01*
X0073190Y0115154D01*
X0073167Y0115064D01*
X0073140Y0114976D01*
X0073109Y0114889D01*
X0073074Y0114803D01*
X0073036Y0114719D01*
X0072994Y0114636D01*
X0072948Y0114556D01*
X0072899Y0114477D01*
X0072847Y0114400D01*
X0072792Y0114326D01*
X0072734Y0114255D01*
X0072672Y0114185D01*
X0072608Y0114119D01*
X0072541Y0114055D01*
X0072471Y0113995D01*
X0072398Y0113937D01*
X0072324Y0113882D01*
X0072247Y0113831D01*
X0072168Y0113783D01*
X0072086Y0113739D01*
X0072003Y0113697D01*
X0071919Y0113660D01*
X0071833Y0113626D01*
X0071745Y0113596D01*
X0071657Y0113570D01*
X0071567Y0113547D01*
X0071476Y0113529D01*
X0071385Y0113514D01*
X0071293Y0113503D01*
X0071201Y0113496D01*
X0071108Y0113493D01*
X0071016Y0113494D01*
X0070923Y0113499D01*
X0070831Y0113508D01*
X0070739Y0113521D01*
X0070648Y0113537D01*
X0070558Y0113558D01*
X0070469Y0113582D01*
X0070381Y0113611D01*
X0070294Y0113643D01*
X0070209Y0113678D01*
X0070125Y0113718D01*
X0070043Y0113760D01*
X0069963Y0113807D01*
X0069885Y0113856D01*
X0069809Y0113909D01*
X0069735Y0113965D01*
X0069664Y0114025D01*
X0069596Y0114087D01*
X0069530Y0114152D01*
X0069467Y0114220D01*
X0069407Y0114290D01*
X0069350Y0114363D01*
X0069296Y0114438D01*
X0069246Y0114516D01*
X0069199Y0114596D01*
X0069155Y0114677D01*
X0069115Y0114761D01*
X0069078Y0114846D01*
X0069045Y0114932D01*
X0069016Y0115020D01*
X0068991Y0115109D01*
X0068969Y0115199D01*
X0068952Y0115290D01*
X0068938Y0115381D01*
X0068928Y0115473D01*
X0068922Y0115565D01*
X0068920Y0115658D01*
X0067935Y0144457D02*
X0070298Y0144457D01*
X0070297Y0144457D02*
X0070360Y0144465D01*
X0070422Y0144476D01*
X0070484Y0144491D01*
X0070544Y0144509D01*
X0070604Y0144531D01*
X0070662Y0144556D01*
X0070718Y0144585D01*
X0070773Y0144617D01*
X0070825Y0144652D01*
X0070876Y0144690D01*
X0070924Y0144730D01*
X0070970Y0144774D01*
X0071013Y0144820D01*
X0071054Y0144869D01*
X0071092Y0144920D01*
X0071126Y0144972D01*
X0071158Y0145027D01*
X0071186Y0145084D01*
X0071211Y0145142D01*
X0071232Y0145202D01*
X0071250Y0145262D01*
X0071264Y0145324D01*
X0071275Y0145386D01*
X0071282Y0145449D01*
X0071286Y0145512D01*
X0071285Y0145575D01*
X0071282Y0145638D01*
X0071282Y0145639D02*
X0071285Y0145702D01*
X0071286Y0145765D01*
X0071282Y0145828D01*
X0071275Y0145891D01*
X0071264Y0145953D01*
X0071250Y0146015D01*
X0071232Y0146075D01*
X0071211Y0146135D01*
X0071186Y0146193D01*
X0071158Y0146250D01*
X0071126Y0146305D01*
X0071092Y0146357D01*
X0071054Y0146408D01*
X0071013Y0146457D01*
X0070970Y0146503D01*
X0070924Y0146547D01*
X0070876Y0146587D01*
X0070825Y0146625D01*
X0070773Y0146660D01*
X0070718Y0146692D01*
X0070662Y0146721D01*
X0070604Y0146746D01*
X0070544Y0146768D01*
X0070484Y0146786D01*
X0070422Y0146801D01*
X0070360Y0146812D01*
X0070297Y0146820D01*
X0070298Y0146820D02*
X0067935Y0146820D01*
X0067936Y0146820D02*
X0067870Y0146812D01*
X0067806Y0146800D01*
X0067742Y0146784D01*
X0067679Y0146765D01*
X0067618Y0146741D01*
X0067558Y0146714D01*
X0067500Y0146684D01*
X0067444Y0146650D01*
X0067390Y0146613D01*
X0067338Y0146572D01*
X0067289Y0146528D01*
X0067242Y0146482D01*
X0067199Y0146433D01*
X0067158Y0146381D01*
X0067121Y0146327D01*
X0067087Y0146271D01*
X0067057Y0146213D01*
X0067030Y0146153D01*
X0067006Y0146092D01*
X0066987Y0146029D01*
X0066971Y0145965D01*
X0066959Y0145901D01*
X0066951Y0145835D01*
X0066947Y0145770D01*
X0066947Y0145704D01*
X0066951Y0145639D01*
X0066951Y0145638D02*
X0066947Y0145573D01*
X0066947Y0145507D01*
X0066951Y0145442D01*
X0066959Y0145376D01*
X0066971Y0145312D01*
X0066987Y0145248D01*
X0067006Y0145185D01*
X0067030Y0145124D01*
X0067057Y0145064D01*
X0067087Y0145006D01*
X0067121Y0144950D01*
X0067158Y0144896D01*
X0067199Y0144844D01*
X0067242Y0144795D01*
X0067289Y0144749D01*
X0067338Y0144705D01*
X0067390Y0144664D01*
X0067444Y0144627D01*
X0067500Y0144593D01*
X0067558Y0144563D01*
X0067618Y0144536D01*
X0067679Y0144512D01*
X0067742Y0144493D01*
X0067806Y0144477D01*
X0067870Y0144465D01*
X0067936Y0144457D01*
X0075219Y0152135D02*
X0075221Y0152209D01*
X0075227Y0152283D01*
X0075237Y0152356D01*
X0075251Y0152429D01*
X0075268Y0152501D01*
X0075290Y0152571D01*
X0075315Y0152641D01*
X0075344Y0152709D01*
X0075377Y0152775D01*
X0075413Y0152840D01*
X0075453Y0152902D01*
X0075495Y0152963D01*
X0075541Y0153021D01*
X0075590Y0153076D01*
X0075642Y0153129D01*
X0075697Y0153179D01*
X0075754Y0153225D01*
X0075814Y0153269D01*
X0075876Y0153309D01*
X0075940Y0153346D01*
X0076006Y0153380D01*
X0076074Y0153410D01*
X0076143Y0153436D01*
X0076214Y0153459D01*
X0076285Y0153477D01*
X0076358Y0153492D01*
X0076431Y0153503D01*
X0076505Y0153510D01*
X0076579Y0153513D01*
X0076652Y0153512D01*
X0076726Y0153507D01*
X0076800Y0153498D01*
X0076873Y0153485D01*
X0076945Y0153468D01*
X0077016Y0153448D01*
X0077086Y0153423D01*
X0077154Y0153395D01*
X0077221Y0153364D01*
X0077286Y0153328D01*
X0077349Y0153290D01*
X0077410Y0153248D01*
X0077469Y0153202D01*
X0077525Y0153154D01*
X0077578Y0153103D01*
X0077628Y0153049D01*
X0077676Y0152992D01*
X0077720Y0152933D01*
X0077762Y0152871D01*
X0077800Y0152808D01*
X0077834Y0152742D01*
X0077865Y0152675D01*
X0077892Y0152606D01*
X0077915Y0152536D01*
X0077935Y0152465D01*
X0077951Y0152392D01*
X0077963Y0152319D01*
X0077971Y0152246D01*
X0077975Y0152172D01*
X0077975Y0152098D01*
X0077971Y0152024D01*
X0077963Y0151951D01*
X0077951Y0151878D01*
X0077935Y0151805D01*
X0077915Y0151734D01*
X0077892Y0151664D01*
X0077865Y0151595D01*
X0077834Y0151528D01*
X0077800Y0151462D01*
X0077762Y0151399D01*
X0077720Y0151337D01*
X0077676Y0151278D01*
X0077628Y0151221D01*
X0077578Y0151167D01*
X0077525Y0151116D01*
X0077469Y0151068D01*
X0077410Y0151022D01*
X0077349Y0150980D01*
X0077286Y0150942D01*
X0077221Y0150906D01*
X0077154Y0150875D01*
X0077086Y0150847D01*
X0077016Y0150822D01*
X0076945Y0150802D01*
X0076873Y0150785D01*
X0076800Y0150772D01*
X0076726Y0150763D01*
X0076652Y0150758D01*
X0076579Y0150757D01*
X0076505Y0150760D01*
X0076431Y0150767D01*
X0076358Y0150778D01*
X0076285Y0150793D01*
X0076214Y0150811D01*
X0076143Y0150834D01*
X0076074Y0150860D01*
X0076006Y0150890D01*
X0075940Y0150924D01*
X0075876Y0150961D01*
X0075814Y0151001D01*
X0075754Y0151045D01*
X0075697Y0151091D01*
X0075642Y0151141D01*
X0075590Y0151194D01*
X0075541Y0151249D01*
X0075495Y0151307D01*
X0075453Y0151368D01*
X0075413Y0151430D01*
X0075377Y0151495D01*
X0075344Y0151561D01*
X0075315Y0151629D01*
X0075290Y0151699D01*
X0075268Y0151769D01*
X0075251Y0151841D01*
X0075237Y0151914D01*
X0075227Y0151987D01*
X0075221Y0152061D01*
X0075219Y0152135D01*
X0075219Y0167489D02*
X0075221Y0167563D01*
X0075227Y0167637D01*
X0075237Y0167710D01*
X0075251Y0167783D01*
X0075268Y0167855D01*
X0075290Y0167925D01*
X0075315Y0167995D01*
X0075344Y0168063D01*
X0075377Y0168129D01*
X0075413Y0168194D01*
X0075453Y0168256D01*
X0075495Y0168317D01*
X0075541Y0168375D01*
X0075590Y0168430D01*
X0075642Y0168483D01*
X0075697Y0168533D01*
X0075754Y0168579D01*
X0075814Y0168623D01*
X0075876Y0168663D01*
X0075940Y0168700D01*
X0076006Y0168734D01*
X0076074Y0168764D01*
X0076143Y0168790D01*
X0076214Y0168813D01*
X0076285Y0168831D01*
X0076358Y0168846D01*
X0076431Y0168857D01*
X0076505Y0168864D01*
X0076579Y0168867D01*
X0076652Y0168866D01*
X0076726Y0168861D01*
X0076800Y0168852D01*
X0076873Y0168839D01*
X0076945Y0168822D01*
X0077016Y0168802D01*
X0077086Y0168777D01*
X0077154Y0168749D01*
X0077221Y0168718D01*
X0077286Y0168682D01*
X0077349Y0168644D01*
X0077410Y0168602D01*
X0077469Y0168556D01*
X0077525Y0168508D01*
X0077578Y0168457D01*
X0077628Y0168403D01*
X0077676Y0168346D01*
X0077720Y0168287D01*
X0077762Y0168225D01*
X0077800Y0168162D01*
X0077834Y0168096D01*
X0077865Y0168029D01*
X0077892Y0167960D01*
X0077915Y0167890D01*
X0077935Y0167819D01*
X0077951Y0167746D01*
X0077963Y0167673D01*
X0077971Y0167600D01*
X0077975Y0167526D01*
X0077975Y0167452D01*
X0077971Y0167378D01*
X0077963Y0167305D01*
X0077951Y0167232D01*
X0077935Y0167159D01*
X0077915Y0167088D01*
X0077892Y0167018D01*
X0077865Y0166949D01*
X0077834Y0166882D01*
X0077800Y0166816D01*
X0077762Y0166753D01*
X0077720Y0166691D01*
X0077676Y0166632D01*
X0077628Y0166575D01*
X0077578Y0166521D01*
X0077525Y0166470D01*
X0077469Y0166422D01*
X0077410Y0166376D01*
X0077349Y0166334D01*
X0077286Y0166296D01*
X0077221Y0166260D01*
X0077154Y0166229D01*
X0077086Y0166201D01*
X0077016Y0166176D01*
X0076945Y0166156D01*
X0076873Y0166139D01*
X0076800Y0166126D01*
X0076726Y0166117D01*
X0076652Y0166112D01*
X0076579Y0166111D01*
X0076505Y0166114D01*
X0076431Y0166121D01*
X0076358Y0166132D01*
X0076285Y0166147D01*
X0076214Y0166165D01*
X0076143Y0166188D01*
X0076074Y0166214D01*
X0076006Y0166244D01*
X0075940Y0166278D01*
X0075876Y0166315D01*
X0075814Y0166355D01*
X0075754Y0166399D01*
X0075697Y0166445D01*
X0075642Y0166495D01*
X0075590Y0166548D01*
X0075541Y0166603D01*
X0075495Y0166661D01*
X0075453Y0166722D01*
X0075413Y0166784D01*
X0075377Y0166849D01*
X0075344Y0166915D01*
X0075315Y0166983D01*
X0075290Y0167053D01*
X0075268Y0167123D01*
X0075251Y0167195D01*
X0075237Y0167268D01*
X0075227Y0167341D01*
X0075221Y0167415D01*
X0075219Y0167489D01*
X0070298Y0172804D02*
X0067935Y0172804D01*
X0067936Y0172804D02*
X0067870Y0172812D01*
X0067806Y0172824D01*
X0067742Y0172840D01*
X0067679Y0172859D01*
X0067618Y0172883D01*
X0067558Y0172910D01*
X0067500Y0172940D01*
X0067444Y0172974D01*
X0067390Y0173011D01*
X0067338Y0173052D01*
X0067289Y0173096D01*
X0067242Y0173142D01*
X0067199Y0173191D01*
X0067158Y0173243D01*
X0067121Y0173297D01*
X0067087Y0173353D01*
X0067057Y0173411D01*
X0067030Y0173471D01*
X0067006Y0173532D01*
X0066987Y0173595D01*
X0066971Y0173659D01*
X0066959Y0173723D01*
X0066951Y0173789D01*
X0066947Y0173854D01*
X0066947Y0173920D01*
X0066951Y0173985D01*
X0066947Y0174050D01*
X0066947Y0174116D01*
X0066951Y0174181D01*
X0066959Y0174247D01*
X0066971Y0174311D01*
X0066987Y0174375D01*
X0067006Y0174438D01*
X0067030Y0174499D01*
X0067057Y0174559D01*
X0067087Y0174617D01*
X0067121Y0174673D01*
X0067158Y0174727D01*
X0067199Y0174779D01*
X0067242Y0174828D01*
X0067289Y0174874D01*
X0067338Y0174918D01*
X0067390Y0174959D01*
X0067444Y0174996D01*
X0067500Y0175030D01*
X0067558Y0175060D01*
X0067618Y0175087D01*
X0067679Y0175111D01*
X0067742Y0175130D01*
X0067806Y0175146D01*
X0067870Y0175158D01*
X0067936Y0175166D01*
X0067935Y0175166D02*
X0070298Y0175166D01*
X0070297Y0175166D02*
X0070360Y0175158D01*
X0070422Y0175147D01*
X0070484Y0175132D01*
X0070544Y0175114D01*
X0070604Y0175092D01*
X0070662Y0175067D01*
X0070718Y0175038D01*
X0070773Y0175006D01*
X0070825Y0174971D01*
X0070876Y0174933D01*
X0070924Y0174893D01*
X0070970Y0174849D01*
X0071013Y0174803D01*
X0071054Y0174754D01*
X0071092Y0174703D01*
X0071126Y0174651D01*
X0071158Y0174596D01*
X0071186Y0174539D01*
X0071211Y0174481D01*
X0071232Y0174421D01*
X0071250Y0174361D01*
X0071264Y0174299D01*
X0071275Y0174237D01*
X0071282Y0174174D01*
X0071286Y0174111D01*
X0071285Y0174048D01*
X0071282Y0173985D01*
X0071285Y0173922D01*
X0071286Y0173859D01*
X0071282Y0173796D01*
X0071275Y0173733D01*
X0071264Y0173671D01*
X0071250Y0173609D01*
X0071232Y0173549D01*
X0071211Y0173489D01*
X0071186Y0173431D01*
X0071158Y0173374D01*
X0071126Y0173319D01*
X0071092Y0173267D01*
X0071054Y0173216D01*
X0071013Y0173167D01*
X0070970Y0173121D01*
X0070924Y0173077D01*
X0070876Y0173037D01*
X0070825Y0172999D01*
X0070773Y0172964D01*
X0070718Y0172932D01*
X0070662Y0172903D01*
X0070604Y0172878D01*
X0070544Y0172856D01*
X0070484Y0172838D01*
X0070422Y0172823D01*
X0070360Y0172812D01*
X0070297Y0172804D01*
X0181911Y0157843D02*
X0181913Y0157927D01*
X0181919Y0158010D01*
X0181929Y0158093D01*
X0181943Y0158176D01*
X0181960Y0158258D01*
X0181982Y0158339D01*
X0182007Y0158418D01*
X0182036Y0158497D01*
X0182069Y0158574D01*
X0182105Y0158649D01*
X0182145Y0158723D01*
X0182188Y0158795D01*
X0182235Y0158864D01*
X0182285Y0158931D01*
X0182338Y0158996D01*
X0182394Y0159058D01*
X0182452Y0159118D01*
X0182514Y0159175D01*
X0182578Y0159228D01*
X0182645Y0159279D01*
X0182714Y0159326D01*
X0182785Y0159371D01*
X0182858Y0159411D01*
X0182933Y0159448D01*
X0183010Y0159482D01*
X0183088Y0159512D01*
X0183167Y0159538D01*
X0183248Y0159561D01*
X0183330Y0159579D01*
X0183412Y0159594D01*
X0183495Y0159605D01*
X0183578Y0159612D01*
X0183662Y0159615D01*
X0183746Y0159614D01*
X0183829Y0159609D01*
X0183913Y0159600D01*
X0183995Y0159587D01*
X0184077Y0159571D01*
X0184158Y0159550D01*
X0184239Y0159526D01*
X0184317Y0159498D01*
X0184395Y0159466D01*
X0184471Y0159430D01*
X0184545Y0159391D01*
X0184617Y0159349D01*
X0184687Y0159303D01*
X0184755Y0159254D01*
X0184820Y0159202D01*
X0184883Y0159147D01*
X0184943Y0159089D01*
X0185001Y0159028D01*
X0185055Y0158964D01*
X0185107Y0158898D01*
X0185155Y0158830D01*
X0185200Y0158759D01*
X0185241Y0158686D01*
X0185280Y0158612D01*
X0185314Y0158536D01*
X0185345Y0158458D01*
X0185372Y0158379D01*
X0185396Y0158298D01*
X0185415Y0158217D01*
X0185431Y0158135D01*
X0185443Y0158052D01*
X0185451Y0157968D01*
X0185455Y0157885D01*
X0185455Y0157801D01*
X0185451Y0157718D01*
X0185443Y0157634D01*
X0185431Y0157551D01*
X0185415Y0157469D01*
X0185396Y0157388D01*
X0185372Y0157307D01*
X0185345Y0157228D01*
X0185314Y0157150D01*
X0185280Y0157074D01*
X0185241Y0157000D01*
X0185200Y0156927D01*
X0185155Y0156856D01*
X0185107Y0156788D01*
X0185055Y0156722D01*
X0185001Y0156658D01*
X0184943Y0156597D01*
X0184883Y0156539D01*
X0184820Y0156484D01*
X0184755Y0156432D01*
X0184687Y0156383D01*
X0184617Y0156337D01*
X0184545Y0156295D01*
X0184471Y0156256D01*
X0184395Y0156220D01*
X0184317Y0156188D01*
X0184239Y0156160D01*
X0184158Y0156136D01*
X0184077Y0156115D01*
X0183995Y0156099D01*
X0183913Y0156086D01*
X0183829Y0156077D01*
X0183746Y0156072D01*
X0183662Y0156071D01*
X0183578Y0156074D01*
X0183495Y0156081D01*
X0183412Y0156092D01*
X0183330Y0156107D01*
X0183248Y0156125D01*
X0183167Y0156148D01*
X0183088Y0156174D01*
X0183010Y0156204D01*
X0182933Y0156238D01*
X0182858Y0156275D01*
X0182785Y0156315D01*
X0182714Y0156360D01*
X0182645Y0156407D01*
X0182578Y0156458D01*
X0182514Y0156511D01*
X0182452Y0156568D01*
X0182394Y0156628D01*
X0182338Y0156690D01*
X0182285Y0156755D01*
X0182235Y0156822D01*
X0182188Y0156891D01*
X0182145Y0156963D01*
X0182105Y0157037D01*
X0182069Y0157112D01*
X0182036Y0157189D01*
X0182007Y0157268D01*
X0181982Y0157347D01*
X0181960Y0157428D01*
X0181943Y0157510D01*
X0181929Y0157593D01*
X0181919Y0157676D01*
X0181913Y0157759D01*
X0181911Y0157843D01*
X0181911Y0146032D02*
X0181913Y0146116D01*
X0181919Y0146199D01*
X0181929Y0146282D01*
X0181943Y0146365D01*
X0181960Y0146447D01*
X0181982Y0146528D01*
X0182007Y0146607D01*
X0182036Y0146686D01*
X0182069Y0146763D01*
X0182105Y0146838D01*
X0182145Y0146912D01*
X0182188Y0146984D01*
X0182235Y0147053D01*
X0182285Y0147120D01*
X0182338Y0147185D01*
X0182394Y0147247D01*
X0182452Y0147307D01*
X0182514Y0147364D01*
X0182578Y0147417D01*
X0182645Y0147468D01*
X0182714Y0147515D01*
X0182785Y0147560D01*
X0182858Y0147600D01*
X0182933Y0147637D01*
X0183010Y0147671D01*
X0183088Y0147701D01*
X0183167Y0147727D01*
X0183248Y0147750D01*
X0183330Y0147768D01*
X0183412Y0147783D01*
X0183495Y0147794D01*
X0183578Y0147801D01*
X0183662Y0147804D01*
X0183746Y0147803D01*
X0183829Y0147798D01*
X0183913Y0147789D01*
X0183995Y0147776D01*
X0184077Y0147760D01*
X0184158Y0147739D01*
X0184239Y0147715D01*
X0184317Y0147687D01*
X0184395Y0147655D01*
X0184471Y0147619D01*
X0184545Y0147580D01*
X0184617Y0147538D01*
X0184687Y0147492D01*
X0184755Y0147443D01*
X0184820Y0147391D01*
X0184883Y0147336D01*
X0184943Y0147278D01*
X0185001Y0147217D01*
X0185055Y0147153D01*
X0185107Y0147087D01*
X0185155Y0147019D01*
X0185200Y0146948D01*
X0185241Y0146875D01*
X0185280Y0146801D01*
X0185314Y0146725D01*
X0185345Y0146647D01*
X0185372Y0146568D01*
X0185396Y0146487D01*
X0185415Y0146406D01*
X0185431Y0146324D01*
X0185443Y0146241D01*
X0185451Y0146157D01*
X0185455Y0146074D01*
X0185455Y0145990D01*
X0185451Y0145907D01*
X0185443Y0145823D01*
X0185431Y0145740D01*
X0185415Y0145658D01*
X0185396Y0145577D01*
X0185372Y0145496D01*
X0185345Y0145417D01*
X0185314Y0145339D01*
X0185280Y0145263D01*
X0185241Y0145189D01*
X0185200Y0145116D01*
X0185155Y0145045D01*
X0185107Y0144977D01*
X0185055Y0144911D01*
X0185001Y0144847D01*
X0184943Y0144786D01*
X0184883Y0144728D01*
X0184820Y0144673D01*
X0184755Y0144621D01*
X0184687Y0144572D01*
X0184617Y0144526D01*
X0184545Y0144484D01*
X0184471Y0144445D01*
X0184395Y0144409D01*
X0184317Y0144377D01*
X0184239Y0144349D01*
X0184158Y0144325D01*
X0184077Y0144304D01*
X0183995Y0144288D01*
X0183913Y0144275D01*
X0183829Y0144266D01*
X0183746Y0144261D01*
X0183662Y0144260D01*
X0183578Y0144263D01*
X0183495Y0144270D01*
X0183412Y0144281D01*
X0183330Y0144296D01*
X0183248Y0144314D01*
X0183167Y0144337D01*
X0183088Y0144363D01*
X0183010Y0144393D01*
X0182933Y0144427D01*
X0182858Y0144464D01*
X0182785Y0144504D01*
X0182714Y0144549D01*
X0182645Y0144596D01*
X0182578Y0144647D01*
X0182514Y0144700D01*
X0182452Y0144757D01*
X0182394Y0144817D01*
X0182338Y0144879D01*
X0182285Y0144944D01*
X0182235Y0145011D01*
X0182188Y0145080D01*
X0182145Y0145152D01*
X0182105Y0145226D01*
X0182069Y0145301D01*
X0182036Y0145378D01*
X0182007Y0145457D01*
X0181982Y0145536D01*
X0181960Y0145617D01*
X0181943Y0145699D01*
X0181929Y0145782D01*
X0181919Y0145865D01*
X0181913Y0145948D01*
X0181911Y0146032D01*
X0430731Y0183434D02*
X0430733Y0183574D01*
X0430739Y0183714D01*
X0430749Y0183853D01*
X0430763Y0183992D01*
X0430781Y0184131D01*
X0430802Y0184269D01*
X0430828Y0184407D01*
X0430858Y0184544D01*
X0430891Y0184679D01*
X0430929Y0184814D01*
X0430970Y0184948D01*
X0431015Y0185081D01*
X0431063Y0185212D01*
X0431116Y0185341D01*
X0431172Y0185470D01*
X0431231Y0185596D01*
X0431295Y0185721D01*
X0431361Y0185844D01*
X0431432Y0185965D01*
X0431505Y0186084D01*
X0431582Y0186201D01*
X0431663Y0186315D01*
X0431746Y0186427D01*
X0431833Y0186537D01*
X0431923Y0186645D01*
X0432015Y0186749D01*
X0432111Y0186851D01*
X0432210Y0186951D01*
X0432311Y0187047D01*
X0432415Y0187141D01*
X0432522Y0187231D01*
X0432631Y0187318D01*
X0432743Y0187403D01*
X0432857Y0187484D01*
X0432973Y0187562D01*
X0433091Y0187636D01*
X0433212Y0187707D01*
X0433334Y0187775D01*
X0433459Y0187839D01*
X0433585Y0187900D01*
X0433712Y0187957D01*
X0433842Y0188010D01*
X0433973Y0188060D01*
X0434105Y0188105D01*
X0434238Y0188148D01*
X0434373Y0188186D01*
X0434508Y0188220D01*
X0434645Y0188251D01*
X0434782Y0188278D01*
X0434920Y0188300D01*
X0435059Y0188319D01*
X0435198Y0188334D01*
X0435337Y0188345D01*
X0435477Y0188352D01*
X0435617Y0188355D01*
X0435757Y0188354D01*
X0435897Y0188349D01*
X0436036Y0188340D01*
X0436176Y0188327D01*
X0436315Y0188310D01*
X0436453Y0188289D01*
X0436591Y0188265D01*
X0436728Y0188236D01*
X0436864Y0188204D01*
X0436999Y0188167D01*
X0437133Y0188127D01*
X0437266Y0188083D01*
X0437397Y0188035D01*
X0437527Y0187984D01*
X0437656Y0187929D01*
X0437783Y0187870D01*
X0437908Y0187807D01*
X0438031Y0187742D01*
X0438153Y0187672D01*
X0438272Y0187599D01*
X0438390Y0187523D01*
X0438505Y0187444D01*
X0438618Y0187361D01*
X0438728Y0187275D01*
X0438836Y0187186D01*
X0438941Y0187094D01*
X0439044Y0186999D01*
X0439144Y0186901D01*
X0439241Y0186801D01*
X0439335Y0186697D01*
X0439427Y0186591D01*
X0439515Y0186483D01*
X0439600Y0186372D01*
X0439682Y0186258D01*
X0439761Y0186142D01*
X0439836Y0186025D01*
X0439908Y0185905D01*
X0439976Y0185783D01*
X0440041Y0185659D01*
X0440103Y0185533D01*
X0440161Y0185406D01*
X0440215Y0185277D01*
X0440266Y0185146D01*
X0440312Y0185014D01*
X0440355Y0184881D01*
X0440395Y0184747D01*
X0440430Y0184612D01*
X0440462Y0184475D01*
X0440489Y0184338D01*
X0440513Y0184200D01*
X0440533Y0184062D01*
X0440549Y0183923D01*
X0440561Y0183783D01*
X0440569Y0183644D01*
X0440573Y0183504D01*
X0440573Y0183364D01*
X0440569Y0183224D01*
X0440561Y0183085D01*
X0440549Y0182945D01*
X0440533Y0182806D01*
X0440513Y0182668D01*
X0440489Y0182530D01*
X0440462Y0182393D01*
X0440430Y0182256D01*
X0440395Y0182121D01*
X0440355Y0181987D01*
X0440312Y0181854D01*
X0440266Y0181722D01*
X0440215Y0181591D01*
X0440161Y0181462D01*
X0440103Y0181335D01*
X0440041Y0181209D01*
X0439976Y0181085D01*
X0439908Y0180963D01*
X0439836Y0180843D01*
X0439761Y0180726D01*
X0439682Y0180610D01*
X0439600Y0180496D01*
X0439515Y0180385D01*
X0439427Y0180277D01*
X0439335Y0180171D01*
X0439241Y0180067D01*
X0439144Y0179967D01*
X0439044Y0179869D01*
X0438941Y0179774D01*
X0438836Y0179682D01*
X0438728Y0179593D01*
X0438618Y0179507D01*
X0438505Y0179424D01*
X0438390Y0179345D01*
X0438272Y0179269D01*
X0438153Y0179196D01*
X0438031Y0179126D01*
X0437908Y0179061D01*
X0437783Y0178998D01*
X0437656Y0178939D01*
X0437527Y0178884D01*
X0437397Y0178833D01*
X0437266Y0178785D01*
X0437133Y0178741D01*
X0436999Y0178701D01*
X0436864Y0178664D01*
X0436728Y0178632D01*
X0436591Y0178603D01*
X0436453Y0178579D01*
X0436315Y0178558D01*
X0436176Y0178541D01*
X0436036Y0178528D01*
X0435897Y0178519D01*
X0435757Y0178514D01*
X0435617Y0178513D01*
X0435477Y0178516D01*
X0435337Y0178523D01*
X0435198Y0178534D01*
X0435059Y0178549D01*
X0434920Y0178568D01*
X0434782Y0178590D01*
X0434645Y0178617D01*
X0434508Y0178648D01*
X0434373Y0178682D01*
X0434238Y0178720D01*
X0434105Y0178763D01*
X0433973Y0178808D01*
X0433842Y0178858D01*
X0433712Y0178911D01*
X0433585Y0178968D01*
X0433459Y0179029D01*
X0433334Y0179093D01*
X0433212Y0179161D01*
X0433091Y0179232D01*
X0432973Y0179306D01*
X0432857Y0179384D01*
X0432743Y0179465D01*
X0432631Y0179550D01*
X0432522Y0179637D01*
X0432415Y0179727D01*
X0432311Y0179821D01*
X0432210Y0179917D01*
X0432111Y0180017D01*
X0432015Y0180119D01*
X0431923Y0180223D01*
X0431833Y0180331D01*
X0431746Y0180441D01*
X0431663Y0180553D01*
X0431582Y0180667D01*
X0431505Y0180784D01*
X0431432Y0180903D01*
X0431361Y0181024D01*
X0431295Y0181147D01*
X0431231Y0181272D01*
X0431172Y0181398D01*
X0431116Y0181527D01*
X0431063Y0181656D01*
X0431015Y0181787D01*
X0430970Y0181920D01*
X0430929Y0182054D01*
X0430891Y0182189D01*
X0430858Y0182324D01*
X0430828Y0182461D01*
X0430802Y0182599D01*
X0430781Y0182737D01*
X0430763Y0182876D01*
X0430749Y0183015D01*
X0430739Y0183154D01*
X0430733Y0183294D01*
X0430731Y0183434D01*
X0431794Y0102725D02*
X0431796Y0102918D01*
X0431803Y0103111D01*
X0431815Y0103304D01*
X0431832Y0103497D01*
X0431853Y0103689D01*
X0431879Y0103880D01*
X0431910Y0104071D01*
X0431945Y0104261D01*
X0431985Y0104450D01*
X0432030Y0104638D01*
X0432079Y0104825D01*
X0432133Y0105011D01*
X0432191Y0105195D01*
X0432254Y0105378D01*
X0432322Y0105559D01*
X0432393Y0105738D01*
X0432470Y0105916D01*
X0432550Y0106092D01*
X0432635Y0106265D01*
X0432724Y0106437D01*
X0432817Y0106606D01*
X0432914Y0106773D01*
X0433016Y0106938D01*
X0433121Y0107100D01*
X0433230Y0107259D01*
X0433344Y0107416D01*
X0433461Y0107569D01*
X0433581Y0107720D01*
X0433706Y0107868D01*
X0433834Y0108013D01*
X0433965Y0108154D01*
X0434100Y0108293D01*
X0434239Y0108428D01*
X0434380Y0108559D01*
X0434525Y0108687D01*
X0434673Y0108812D01*
X0434824Y0108932D01*
X0434977Y0109049D01*
X0435134Y0109163D01*
X0435293Y0109272D01*
X0435455Y0109377D01*
X0435620Y0109479D01*
X0435787Y0109576D01*
X0435956Y0109669D01*
X0436128Y0109758D01*
X0436301Y0109843D01*
X0436477Y0109923D01*
X0436655Y0110000D01*
X0436834Y0110071D01*
X0437015Y0110139D01*
X0437198Y0110202D01*
X0437382Y0110260D01*
X0437568Y0110314D01*
X0437755Y0110363D01*
X0437943Y0110408D01*
X0438132Y0110448D01*
X0438322Y0110483D01*
X0438513Y0110514D01*
X0438704Y0110540D01*
X0438896Y0110561D01*
X0439089Y0110578D01*
X0439282Y0110590D01*
X0439475Y0110597D01*
X0439668Y0110599D01*
X0439861Y0110597D01*
X0440054Y0110590D01*
X0440247Y0110578D01*
X0440440Y0110561D01*
X0440632Y0110540D01*
X0440823Y0110514D01*
X0441014Y0110483D01*
X0441204Y0110448D01*
X0441393Y0110408D01*
X0441581Y0110363D01*
X0441768Y0110314D01*
X0441954Y0110260D01*
X0442138Y0110202D01*
X0442321Y0110139D01*
X0442502Y0110071D01*
X0442681Y0110000D01*
X0442859Y0109923D01*
X0443035Y0109843D01*
X0443208Y0109758D01*
X0443380Y0109669D01*
X0443549Y0109576D01*
X0443716Y0109479D01*
X0443881Y0109377D01*
X0444043Y0109272D01*
X0444202Y0109163D01*
X0444359Y0109049D01*
X0444512Y0108932D01*
X0444663Y0108812D01*
X0444811Y0108687D01*
X0444956Y0108559D01*
X0445097Y0108428D01*
X0445236Y0108293D01*
X0445371Y0108154D01*
X0445502Y0108013D01*
X0445630Y0107868D01*
X0445755Y0107720D01*
X0445875Y0107569D01*
X0445992Y0107416D01*
X0446106Y0107259D01*
X0446215Y0107100D01*
X0446320Y0106938D01*
X0446422Y0106773D01*
X0446519Y0106606D01*
X0446612Y0106437D01*
X0446701Y0106265D01*
X0446786Y0106092D01*
X0446866Y0105916D01*
X0446943Y0105738D01*
X0447014Y0105559D01*
X0447082Y0105378D01*
X0447145Y0105195D01*
X0447203Y0105011D01*
X0447257Y0104825D01*
X0447306Y0104638D01*
X0447351Y0104450D01*
X0447391Y0104261D01*
X0447426Y0104071D01*
X0447457Y0103880D01*
X0447483Y0103689D01*
X0447504Y0103497D01*
X0447521Y0103304D01*
X0447533Y0103111D01*
X0447540Y0102918D01*
X0447542Y0102725D01*
X0447540Y0102532D01*
X0447533Y0102339D01*
X0447521Y0102146D01*
X0447504Y0101953D01*
X0447483Y0101761D01*
X0447457Y0101570D01*
X0447426Y0101379D01*
X0447391Y0101189D01*
X0447351Y0101000D01*
X0447306Y0100812D01*
X0447257Y0100625D01*
X0447203Y0100439D01*
X0447145Y0100255D01*
X0447082Y0100072D01*
X0447014Y0099891D01*
X0446943Y0099712D01*
X0446866Y0099534D01*
X0446786Y0099358D01*
X0446701Y0099185D01*
X0446612Y0099013D01*
X0446519Y0098844D01*
X0446422Y0098677D01*
X0446320Y0098512D01*
X0446215Y0098350D01*
X0446106Y0098191D01*
X0445992Y0098034D01*
X0445875Y0097881D01*
X0445755Y0097730D01*
X0445630Y0097582D01*
X0445502Y0097437D01*
X0445371Y0097296D01*
X0445236Y0097157D01*
X0445097Y0097022D01*
X0444956Y0096891D01*
X0444811Y0096763D01*
X0444663Y0096638D01*
X0444512Y0096518D01*
X0444359Y0096401D01*
X0444202Y0096287D01*
X0444043Y0096178D01*
X0443881Y0096073D01*
X0443716Y0095971D01*
X0443549Y0095874D01*
X0443380Y0095781D01*
X0443208Y0095692D01*
X0443035Y0095607D01*
X0442859Y0095527D01*
X0442681Y0095450D01*
X0442502Y0095379D01*
X0442321Y0095311D01*
X0442138Y0095248D01*
X0441954Y0095190D01*
X0441768Y0095136D01*
X0441581Y0095087D01*
X0441393Y0095042D01*
X0441204Y0095002D01*
X0441014Y0094967D01*
X0440823Y0094936D01*
X0440632Y0094910D01*
X0440440Y0094889D01*
X0440247Y0094872D01*
X0440054Y0094860D01*
X0439861Y0094853D01*
X0439668Y0094851D01*
X0439475Y0094853D01*
X0439282Y0094860D01*
X0439089Y0094872D01*
X0438896Y0094889D01*
X0438704Y0094910D01*
X0438513Y0094936D01*
X0438322Y0094967D01*
X0438132Y0095002D01*
X0437943Y0095042D01*
X0437755Y0095087D01*
X0437568Y0095136D01*
X0437382Y0095190D01*
X0437198Y0095248D01*
X0437015Y0095311D01*
X0436834Y0095379D01*
X0436655Y0095450D01*
X0436477Y0095527D01*
X0436301Y0095607D01*
X0436128Y0095692D01*
X0435956Y0095781D01*
X0435787Y0095874D01*
X0435620Y0095971D01*
X0435455Y0096073D01*
X0435293Y0096178D01*
X0435134Y0096287D01*
X0434977Y0096401D01*
X0434824Y0096518D01*
X0434673Y0096638D01*
X0434525Y0096763D01*
X0434380Y0096891D01*
X0434239Y0097022D01*
X0434100Y0097157D01*
X0433965Y0097296D01*
X0433834Y0097437D01*
X0433706Y0097582D01*
X0433581Y0097730D01*
X0433461Y0097881D01*
X0433344Y0098034D01*
X0433230Y0098191D01*
X0433121Y0098350D01*
X0433016Y0098512D01*
X0432914Y0098677D01*
X0432817Y0098844D01*
X0432724Y0099013D01*
X0432635Y0099185D01*
X0432550Y0099358D01*
X0432470Y0099534D01*
X0432393Y0099712D01*
X0432322Y0099891D01*
X0432254Y0100072D01*
X0432191Y0100255D01*
X0432133Y0100439D01*
X0432079Y0100625D01*
X0432030Y0100812D01*
X0431985Y0101000D01*
X0431945Y0101189D01*
X0431910Y0101379D01*
X0431879Y0101570D01*
X0431853Y0101761D01*
X0431832Y0101953D01*
X0431815Y0102146D01*
X0431803Y0102339D01*
X0431796Y0102532D01*
X0431794Y0102725D01*
X0430731Y0022017D02*
X0430733Y0022157D01*
X0430739Y0022297D01*
X0430749Y0022436D01*
X0430763Y0022575D01*
X0430781Y0022714D01*
X0430802Y0022852D01*
X0430828Y0022990D01*
X0430858Y0023127D01*
X0430891Y0023262D01*
X0430929Y0023397D01*
X0430970Y0023531D01*
X0431015Y0023664D01*
X0431063Y0023795D01*
X0431116Y0023924D01*
X0431172Y0024053D01*
X0431231Y0024179D01*
X0431295Y0024304D01*
X0431361Y0024427D01*
X0431432Y0024548D01*
X0431505Y0024667D01*
X0431582Y0024784D01*
X0431663Y0024898D01*
X0431746Y0025010D01*
X0431833Y0025120D01*
X0431923Y0025228D01*
X0432015Y0025332D01*
X0432111Y0025434D01*
X0432210Y0025534D01*
X0432311Y0025630D01*
X0432415Y0025724D01*
X0432522Y0025814D01*
X0432631Y0025901D01*
X0432743Y0025986D01*
X0432857Y0026067D01*
X0432973Y0026145D01*
X0433091Y0026219D01*
X0433212Y0026290D01*
X0433334Y0026358D01*
X0433459Y0026422D01*
X0433585Y0026483D01*
X0433712Y0026540D01*
X0433842Y0026593D01*
X0433973Y0026643D01*
X0434105Y0026688D01*
X0434238Y0026731D01*
X0434373Y0026769D01*
X0434508Y0026803D01*
X0434645Y0026834D01*
X0434782Y0026861D01*
X0434920Y0026883D01*
X0435059Y0026902D01*
X0435198Y0026917D01*
X0435337Y0026928D01*
X0435477Y0026935D01*
X0435617Y0026938D01*
X0435757Y0026937D01*
X0435897Y0026932D01*
X0436036Y0026923D01*
X0436176Y0026910D01*
X0436315Y0026893D01*
X0436453Y0026872D01*
X0436591Y0026848D01*
X0436728Y0026819D01*
X0436864Y0026787D01*
X0436999Y0026750D01*
X0437133Y0026710D01*
X0437266Y0026666D01*
X0437397Y0026618D01*
X0437527Y0026567D01*
X0437656Y0026512D01*
X0437783Y0026453D01*
X0437908Y0026390D01*
X0438031Y0026325D01*
X0438153Y0026255D01*
X0438272Y0026182D01*
X0438390Y0026106D01*
X0438505Y0026027D01*
X0438618Y0025944D01*
X0438728Y0025858D01*
X0438836Y0025769D01*
X0438941Y0025677D01*
X0439044Y0025582D01*
X0439144Y0025484D01*
X0439241Y0025384D01*
X0439335Y0025280D01*
X0439427Y0025174D01*
X0439515Y0025066D01*
X0439600Y0024955D01*
X0439682Y0024841D01*
X0439761Y0024725D01*
X0439836Y0024608D01*
X0439908Y0024488D01*
X0439976Y0024366D01*
X0440041Y0024242D01*
X0440103Y0024116D01*
X0440161Y0023989D01*
X0440215Y0023860D01*
X0440266Y0023729D01*
X0440312Y0023597D01*
X0440355Y0023464D01*
X0440395Y0023330D01*
X0440430Y0023195D01*
X0440462Y0023058D01*
X0440489Y0022921D01*
X0440513Y0022783D01*
X0440533Y0022645D01*
X0440549Y0022506D01*
X0440561Y0022366D01*
X0440569Y0022227D01*
X0440573Y0022087D01*
X0440573Y0021947D01*
X0440569Y0021807D01*
X0440561Y0021668D01*
X0440549Y0021528D01*
X0440533Y0021389D01*
X0440513Y0021251D01*
X0440489Y0021113D01*
X0440462Y0020976D01*
X0440430Y0020839D01*
X0440395Y0020704D01*
X0440355Y0020570D01*
X0440312Y0020437D01*
X0440266Y0020305D01*
X0440215Y0020174D01*
X0440161Y0020045D01*
X0440103Y0019918D01*
X0440041Y0019792D01*
X0439976Y0019668D01*
X0439908Y0019546D01*
X0439836Y0019426D01*
X0439761Y0019309D01*
X0439682Y0019193D01*
X0439600Y0019079D01*
X0439515Y0018968D01*
X0439427Y0018860D01*
X0439335Y0018754D01*
X0439241Y0018650D01*
X0439144Y0018550D01*
X0439044Y0018452D01*
X0438941Y0018357D01*
X0438836Y0018265D01*
X0438728Y0018176D01*
X0438618Y0018090D01*
X0438505Y0018007D01*
X0438390Y0017928D01*
X0438272Y0017852D01*
X0438153Y0017779D01*
X0438031Y0017709D01*
X0437908Y0017644D01*
X0437783Y0017581D01*
X0437656Y0017522D01*
X0437527Y0017467D01*
X0437397Y0017416D01*
X0437266Y0017368D01*
X0437133Y0017324D01*
X0436999Y0017284D01*
X0436864Y0017247D01*
X0436728Y0017215D01*
X0436591Y0017186D01*
X0436453Y0017162D01*
X0436315Y0017141D01*
X0436176Y0017124D01*
X0436036Y0017111D01*
X0435897Y0017102D01*
X0435757Y0017097D01*
X0435617Y0017096D01*
X0435477Y0017099D01*
X0435337Y0017106D01*
X0435198Y0017117D01*
X0435059Y0017132D01*
X0434920Y0017151D01*
X0434782Y0017173D01*
X0434645Y0017200D01*
X0434508Y0017231D01*
X0434373Y0017265D01*
X0434238Y0017303D01*
X0434105Y0017346D01*
X0433973Y0017391D01*
X0433842Y0017441D01*
X0433712Y0017494D01*
X0433585Y0017551D01*
X0433459Y0017612D01*
X0433334Y0017676D01*
X0433212Y0017744D01*
X0433091Y0017815D01*
X0432973Y0017889D01*
X0432857Y0017967D01*
X0432743Y0018048D01*
X0432631Y0018133D01*
X0432522Y0018220D01*
X0432415Y0018310D01*
X0432311Y0018404D01*
X0432210Y0018500D01*
X0432111Y0018600D01*
X0432015Y0018702D01*
X0431923Y0018806D01*
X0431833Y0018914D01*
X0431746Y0019024D01*
X0431663Y0019136D01*
X0431582Y0019250D01*
X0431505Y0019367D01*
X0431432Y0019486D01*
X0431361Y0019607D01*
X0431295Y0019730D01*
X0431231Y0019855D01*
X0431172Y0019981D01*
X0431116Y0020110D01*
X0431063Y0020239D01*
X0431015Y0020370D01*
X0430970Y0020503D01*
X0430929Y0020637D01*
X0430891Y0020772D01*
X0430858Y0020907D01*
X0430828Y0021044D01*
X0430802Y0021182D01*
X0430781Y0021320D01*
X0430763Y0021459D01*
X0430749Y0021598D01*
X0430739Y0021737D01*
X0430733Y0021877D01*
X0430731Y0022017D01*
D11*
X0437212Y0004300D02*
X0437602Y0004305D01*
X0437993Y0004319D01*
X0438382Y0004342D01*
X0438771Y0004375D01*
X0439159Y0004418D01*
X0439546Y0004470D01*
X0439932Y0004531D01*
X0440316Y0004601D01*
X0440698Y0004681D01*
X0441078Y0004769D01*
X0441456Y0004867D01*
X0441832Y0004975D01*
X0442204Y0005091D01*
X0442574Y0005216D01*
X0442941Y0005350D01*
X0443304Y0005493D01*
X0443664Y0005644D01*
X0444020Y0005805D01*
X0444372Y0005973D01*
X0444720Y0006151D01*
X0445064Y0006336D01*
X0445402Y0006530D01*
X0445737Y0006732D01*
X0446066Y0006942D01*
X0446390Y0007160D01*
X0446708Y0007386D01*
X0447021Y0007619D01*
X0447329Y0007860D01*
X0447630Y0008108D01*
X0447925Y0008363D01*
X0448214Y0008625D01*
X0448497Y0008895D01*
X0448773Y0009171D01*
X0449043Y0009454D01*
X0449305Y0009743D01*
X0449560Y0010038D01*
X0449808Y0010339D01*
X0450049Y0010647D01*
X0450282Y0010960D01*
X0450508Y0011278D01*
X0450726Y0011602D01*
X0450936Y0011931D01*
X0451138Y0012266D01*
X0451332Y0012604D01*
X0451517Y0012948D01*
X0451695Y0013296D01*
X0451863Y0013648D01*
X0452024Y0014004D01*
X0452175Y0014364D01*
X0452318Y0014727D01*
X0452452Y0015094D01*
X0452577Y0015464D01*
X0452693Y0015836D01*
X0452801Y0016212D01*
X0452899Y0016590D01*
X0452987Y0016970D01*
X0453067Y0017352D01*
X0453137Y0017736D01*
X0453198Y0018122D01*
X0453250Y0018509D01*
X0453293Y0018897D01*
X0453326Y0019286D01*
X0453349Y0019675D01*
X0453363Y0020066D01*
X0453368Y0020456D01*
X0453369Y0020456D02*
X0453369Y0184918D01*
X0453364Y0185310D01*
X0453350Y0185702D01*
X0453326Y0186094D01*
X0453293Y0186485D01*
X0453251Y0186875D01*
X0453199Y0187263D01*
X0453137Y0187651D01*
X0453067Y0188037D01*
X0452987Y0188421D01*
X0452897Y0188803D01*
X0452799Y0189183D01*
X0452691Y0189560D01*
X0452575Y0189934D01*
X0452449Y0190306D01*
X0452314Y0190674D01*
X0452171Y0191039D01*
X0452018Y0191401D01*
X0451857Y0191759D01*
X0451688Y0192112D01*
X0451510Y0192462D01*
X0451323Y0192807D01*
X0451128Y0193147D01*
X0450925Y0193483D01*
X0450714Y0193814D01*
X0450495Y0194139D01*
X0450269Y0194460D01*
X0450034Y0194774D01*
X0449792Y0195083D01*
X0449543Y0195386D01*
X0449287Y0195682D01*
X0449023Y0195973D01*
X0448752Y0196257D01*
X0448475Y0196534D01*
X0448191Y0196805D01*
X0447900Y0197069D01*
X0447604Y0197325D01*
X0447301Y0197574D01*
X0446992Y0197816D01*
X0446678Y0198051D01*
X0446357Y0198277D01*
X0446032Y0198496D01*
X0445701Y0198707D01*
X0445365Y0198910D01*
X0445025Y0199105D01*
X0444680Y0199292D01*
X0444330Y0199470D01*
X0443977Y0199639D01*
X0443619Y0199800D01*
X0443257Y0199953D01*
X0442892Y0200096D01*
X0442524Y0200231D01*
X0442152Y0200357D01*
X0441778Y0200473D01*
X0441401Y0200581D01*
X0441021Y0200679D01*
X0440639Y0200769D01*
X0440255Y0200849D01*
X0439869Y0200919D01*
X0439481Y0200981D01*
X0439093Y0201033D01*
X0438703Y0201075D01*
X0438312Y0201108D01*
X0437920Y0201132D01*
X0437528Y0201146D01*
X0437136Y0201151D01*
X0437136Y0201150D02*
X0076937Y0201150D01*
X0076520Y0201145D01*
X0076103Y0201130D01*
X0075686Y0201105D01*
X0075270Y0201069D01*
X0074855Y0201024D01*
X0074442Y0200969D01*
X0074030Y0200904D01*
X0073619Y0200828D01*
X0073211Y0200743D01*
X0072804Y0200648D01*
X0072400Y0200543D01*
X0071999Y0200429D01*
X0071601Y0200305D01*
X0071205Y0200171D01*
X0070813Y0200028D01*
X0070425Y0199875D01*
X0070040Y0199713D01*
X0069660Y0199542D01*
X0069284Y0199361D01*
X0068912Y0199172D01*
X0068545Y0198974D01*
X0068182Y0198766D01*
X0067825Y0198550D01*
X0067473Y0198326D01*
X0067127Y0198093D01*
X0066787Y0197852D01*
X0066452Y0197603D01*
X0066123Y0197345D01*
X0065801Y0197080D01*
X0065486Y0196807D01*
X0065177Y0196527D01*
X0064874Y0196239D01*
X0064579Y0195944D01*
X0064291Y0195641D01*
X0064011Y0195332D01*
X0063738Y0195017D01*
X0063473Y0194695D01*
X0063215Y0194366D01*
X0062966Y0194031D01*
X0062725Y0193691D01*
X0062492Y0193345D01*
X0062268Y0192993D01*
X0062052Y0192636D01*
X0061844Y0192273D01*
X0061646Y0191906D01*
X0061457Y0191534D01*
X0061276Y0191158D01*
X0061105Y0190778D01*
X0060943Y0190393D01*
X0060790Y0190005D01*
X0060647Y0189613D01*
X0060513Y0189217D01*
X0060389Y0188819D01*
X0060275Y0188418D01*
X0060170Y0188014D01*
X0060075Y0187607D01*
X0059990Y0187199D01*
X0059914Y0186788D01*
X0059849Y0186376D01*
X0059794Y0185963D01*
X0059749Y0185548D01*
X0059713Y0185132D01*
X0059688Y0184715D01*
X0059673Y0184298D01*
X0059668Y0183881D01*
X0059668Y0020146D01*
X0059673Y0019763D01*
X0059687Y0019380D01*
X0059710Y0018998D01*
X0059742Y0018617D01*
X0059784Y0018236D01*
X0059834Y0017856D01*
X0059894Y0017478D01*
X0059963Y0017102D01*
X0060041Y0016727D01*
X0060128Y0016354D01*
X0060225Y0015983D01*
X0060330Y0015615D01*
X0060444Y0015249D01*
X0060566Y0014887D01*
X0060698Y0014527D01*
X0060838Y0014171D01*
X0060987Y0013818D01*
X0061144Y0013468D01*
X0061309Y0013123D01*
X0061483Y0012782D01*
X0061665Y0012445D01*
X0061855Y0012113D01*
X0062053Y0011785D01*
X0062259Y0011462D01*
X0062473Y0011144D01*
X0062694Y0010832D01*
X0062923Y0010525D01*
X0063159Y0010223D01*
X0063403Y0009928D01*
X0063653Y0009638D01*
X0063910Y0009355D01*
X0064175Y0009077D01*
X0064445Y0008807D01*
X0064723Y0008542D01*
X0065006Y0008285D01*
X0065296Y0008035D01*
X0065591Y0007791D01*
X0065893Y0007555D01*
X0066200Y0007326D01*
X0066512Y0007105D01*
X0066830Y0006891D01*
X0067153Y0006685D01*
X0067481Y0006487D01*
X0067813Y0006297D01*
X0068150Y0006115D01*
X0068491Y0005941D01*
X0068836Y0005776D01*
X0069186Y0005619D01*
X0069539Y0005470D01*
X0069895Y0005330D01*
X0070255Y0005198D01*
X0070617Y0005076D01*
X0070983Y0004962D01*
X0071351Y0004857D01*
X0071722Y0004760D01*
X0072095Y0004673D01*
X0072470Y0004595D01*
X0072846Y0004526D01*
X0073224Y0004466D01*
X0073604Y0004416D01*
X0073985Y0004374D01*
X0074366Y0004342D01*
X0074748Y0004319D01*
X0075131Y0004305D01*
X0075514Y0004300D01*
X0437212Y0004300D01*
D12*
X0214531Y0129490D02*
X0214531Y0135895D01*
X0211328Y0135895D01*
X0210261Y0134828D01*
X0210261Y0132692D01*
X0211328Y0131625D01*
X0214531Y0131625D01*
X0212396Y0131625D02*
X0210261Y0129490D01*
X0208086Y0130557D02*
X0207018Y0129490D01*
X0204883Y0129490D01*
X0203815Y0130557D01*
X0203815Y0135895D01*
X0201640Y0135895D02*
X0197370Y0129490D01*
X0197370Y0135895D01*
X0201640Y0135895D02*
X0201640Y0129490D01*
X0208086Y0130557D02*
X0208086Y0135895D01*
X0208101Y0166017D02*
X0210236Y0168152D01*
X0209168Y0168152D02*
X0212371Y0168152D01*
X0212371Y0166017D02*
X0212371Y0172423D01*
X0209168Y0172423D01*
X0208101Y0171355D01*
X0208101Y0169220D01*
X0209168Y0168152D01*
X0205926Y0167085D02*
X0204858Y0166017D01*
X0202723Y0166017D01*
X0201655Y0167085D01*
X0201655Y0171355D01*
X0202723Y0172423D01*
X0204858Y0172423D01*
X0205926Y0171355D01*
X0205926Y0167085D01*
X0199480Y0167085D02*
X0198412Y0166017D01*
X0196277Y0166017D01*
X0195210Y0167085D01*
X0195210Y0169220D01*
X0197345Y0169220D01*
X0199480Y0171355D02*
X0199480Y0167085D01*
X0199480Y0171355D02*
X0198412Y0172423D01*
X0196277Y0172423D01*
X0195210Y0171355D01*
X0214546Y0171355D02*
X0214546Y0169220D01*
X0215614Y0168152D01*
X0218817Y0168152D01*
X0218817Y0166017D02*
X0218817Y0172423D01*
X0215614Y0172423D01*
X0214546Y0171355D01*
D13*
X0141419Y0169027D02*
X0141419Y0166392D01*
X0140101Y0165074D01*
X0134830Y0165074D01*
X0133512Y0166392D01*
X0133512Y0169027D01*
X0134830Y0170345D01*
X0137466Y0170345D01*
X0137466Y0167709D01*
X0140101Y0170345D02*
X0141419Y0169027D01*
X0140101Y0162426D02*
X0137466Y0162426D01*
X0136148Y0161108D01*
X0136148Y0157155D01*
X0136148Y0159791D02*
X0133512Y0162426D01*
X0140101Y0162426D02*
X0141419Y0161108D01*
X0141419Y0157155D01*
X0133512Y0157155D01*
X0137466Y0154507D02*
X0136148Y0153190D01*
X0136148Y0149236D01*
X0133512Y0149236D02*
X0141419Y0149236D01*
X0141419Y0153190D01*
X0140101Y0154507D01*
X0137466Y0154507D01*
X0123903Y0133244D02*
X0125221Y0131926D01*
X0125221Y0129290D01*
X0123903Y0127972D01*
X0118632Y0127972D01*
X0117314Y0129290D01*
X0117314Y0131926D01*
X0118632Y0133244D01*
X0112321Y0129286D02*
X0111003Y0130604D01*
X0112321Y0129286D02*
X0112321Y0126651D01*
X0111003Y0125333D01*
X0105732Y0125333D01*
X0104414Y0126651D01*
X0104414Y0129286D01*
X0105732Y0130604D01*
X0108367Y0130604D01*
X0108367Y0127968D01*
X0105732Y0122685D02*
X0111003Y0122685D01*
X0112321Y0121367D01*
X0112321Y0118732D01*
X0111003Y0117414D01*
X0105732Y0117414D01*
X0104414Y0118732D01*
X0104414Y0121367D01*
X0105732Y0122685D01*
X0096785Y0118730D02*
X0096785Y0116094D01*
X0098103Y0117412D02*
X0092832Y0117412D01*
X0091514Y0118730D01*
X0094149Y0113447D02*
X0094149Y0108175D01*
X0092832Y0108175D02*
X0095467Y0108175D01*
X0096785Y0109493D01*
X0096785Y0112129D01*
X0095467Y0113447D01*
X0094149Y0113447D01*
X0091514Y0112129D02*
X0091514Y0109493D01*
X0092832Y0108175D01*
X0092832Y0105528D02*
X0094149Y0104210D01*
X0094149Y0101575D01*
X0095467Y0100257D01*
X0096785Y0101575D01*
X0096785Y0105528D01*
X0092832Y0105528D02*
X0091514Y0104210D01*
X0091514Y0100257D01*
X0094149Y0097609D02*
X0094149Y0092338D01*
X0092832Y0092338D02*
X0095467Y0092338D01*
X0096785Y0093656D01*
X0096785Y0096291D01*
X0095467Y0097609D01*
X0094149Y0097609D01*
X0091514Y0096291D02*
X0091514Y0093656D01*
X0092832Y0092338D01*
X0091514Y0089690D02*
X0094149Y0087055D01*
X0094149Y0088373D02*
X0094149Y0084419D01*
X0091514Y0084419D02*
X0099421Y0084419D01*
X0099421Y0088373D01*
X0098103Y0089690D01*
X0095467Y0089690D01*
X0094149Y0088373D01*
X0104414Y0087057D02*
X0105732Y0085739D01*
X0108367Y0085739D01*
X0109685Y0087057D01*
X0109685Y0089692D01*
X0108367Y0091010D01*
X0105732Y0091010D01*
X0104414Y0089692D01*
X0104414Y0087057D01*
X0104414Y0083095D02*
X0105732Y0081778D01*
X0111003Y0081778D01*
X0109685Y0080460D02*
X0109685Y0083095D01*
X0117314Y0083091D02*
X0117314Y0079138D01*
X0118632Y0077820D01*
X0121267Y0077820D01*
X0122585Y0079138D01*
X0122585Y0083091D01*
X0122585Y0085739D02*
X0122585Y0088375D01*
X0123903Y0087057D02*
X0118632Y0087057D01*
X0117314Y0088375D01*
X0130214Y0087059D02*
X0135485Y0087059D01*
X0135485Y0088377D01*
X0134167Y0089694D01*
X0135485Y0091012D01*
X0134167Y0092330D01*
X0130214Y0092330D01*
X0130214Y0089694D02*
X0134167Y0089694D01*
X0135126Y0094870D02*
X0135126Y0098824D01*
X0136444Y0100142D01*
X0139079Y0100142D01*
X0140397Y0098824D01*
X0140397Y0094870D01*
X0132490Y0094870D01*
X0131532Y0094978D02*
X0130214Y0094978D01*
X0130214Y0096295D01*
X0131532Y0096295D01*
X0131532Y0094978D01*
X0134167Y0094978D02*
X0134167Y0096295D01*
X0135485Y0096295D01*
X0135485Y0094978D01*
X0134167Y0094978D01*
X0135126Y0097506D02*
X0132490Y0100142D01*
X0132490Y0102789D02*
X0132490Y0108060D01*
X0133808Y0110708D02*
X0132490Y0112026D01*
X0132490Y0114661D01*
X0133808Y0115979D01*
X0135126Y0115979D01*
X0136444Y0114661D01*
X0136444Y0112026D01*
X0137761Y0110708D01*
X0139079Y0110708D01*
X0140397Y0112026D01*
X0140397Y0114661D01*
X0139079Y0115979D01*
X0140397Y0118627D02*
X0132490Y0118627D01*
X0132490Y0123898D01*
X0136444Y0121262D02*
X0136444Y0118627D01*
X0140397Y0118627D02*
X0140397Y0123898D01*
X0140397Y0126546D02*
X0140397Y0131817D01*
X0140397Y0129181D02*
X0132490Y0129181D01*
X0125221Y0124007D02*
X0123903Y0125325D01*
X0121267Y0125325D01*
X0119949Y0124007D01*
X0119949Y0120054D01*
X0117314Y0120054D02*
X0125221Y0120054D01*
X0125221Y0124007D01*
X0112321Y0113449D02*
X0111003Y0114766D01*
X0108367Y0114766D01*
X0107049Y0113449D01*
X0107049Y0109495D01*
X0104414Y0109495D02*
X0112321Y0109495D01*
X0112321Y0113449D01*
X0107049Y0112131D02*
X0104414Y0114766D01*
X0117314Y0108169D02*
X0118632Y0109487D01*
X0121267Y0109487D01*
X0122585Y0108169D01*
X0122585Y0105534D01*
X0121267Y0104216D01*
X0118632Y0104216D01*
X0117314Y0105534D01*
X0117314Y0108169D01*
X0112321Y0105530D02*
X0111003Y0106848D01*
X0108367Y0106848D01*
X0107049Y0105530D01*
X0107049Y0101577D01*
X0104414Y0101577D02*
X0112321Y0101577D01*
X0112321Y0105530D01*
X0117314Y0101573D02*
X0118632Y0100255D01*
X0123903Y0100255D01*
X0122585Y0098937D02*
X0122585Y0101573D01*
X0132490Y0102789D02*
X0140397Y0102789D01*
X0140397Y0108060D01*
X0136444Y0105425D02*
X0136444Y0102789D01*
X0134167Y0084411D02*
X0130214Y0084411D01*
X0130214Y0080458D01*
X0131532Y0079140D01*
X0132849Y0080458D01*
X0132849Y0084411D01*
X0134167Y0084411D02*
X0135485Y0083093D01*
X0135485Y0080458D01*
X0135485Y0076494D02*
X0135485Y0075177D01*
X0132849Y0072541D01*
X0130214Y0072541D02*
X0135485Y0072541D01*
X0135485Y0069893D02*
X0128896Y0069893D01*
X0127578Y0068576D01*
X0127578Y0067258D01*
X0130214Y0065940D02*
X0130214Y0069893D01*
X0135485Y0069893D02*
X0135485Y0065940D01*
X0134167Y0064622D01*
X0131532Y0064622D01*
X0130214Y0065940D01*
X0131532Y0061975D02*
X0134167Y0061975D01*
X0135485Y0060657D01*
X0135485Y0058021D01*
X0134167Y0056704D01*
X0131532Y0056704D01*
X0130214Y0058021D01*
X0130214Y0060657D01*
X0131532Y0061975D01*
X0122585Y0061983D02*
X0122585Y0065936D01*
X0121267Y0067254D01*
X0117314Y0067254D01*
X0118632Y0069901D02*
X0121267Y0069901D01*
X0122585Y0071219D01*
X0122585Y0073855D01*
X0121267Y0075173D01*
X0119949Y0075173D01*
X0119949Y0069901D01*
X0118632Y0069901D02*
X0117314Y0071219D01*
X0117314Y0073855D01*
X0109685Y0068576D02*
X0108367Y0069893D01*
X0107049Y0069893D01*
X0107049Y0064622D01*
X0105732Y0064622D02*
X0108367Y0064622D01*
X0109685Y0065940D01*
X0109685Y0068576D01*
X0104414Y0068576D02*
X0104414Y0065940D01*
X0105732Y0064622D01*
X0104414Y0061975D02*
X0104414Y0058021D01*
X0105732Y0056704D01*
X0108367Y0056704D01*
X0109685Y0058021D01*
X0109685Y0061975D01*
X0112321Y0061975D02*
X0104414Y0061975D01*
X0096785Y0061981D02*
X0096785Y0065934D01*
X0094149Y0064616D02*
X0094149Y0061981D01*
X0095467Y0060663D01*
X0096785Y0061981D01*
X0094149Y0064616D02*
X0092832Y0065934D01*
X0091514Y0064616D01*
X0091514Y0060663D01*
X0094149Y0058015D02*
X0094149Y0052744D01*
X0092832Y0052744D02*
X0095467Y0052744D01*
X0096785Y0054062D01*
X0096785Y0056698D01*
X0095467Y0058015D01*
X0094149Y0058015D01*
X0091514Y0056698D02*
X0091514Y0054062D01*
X0092832Y0052744D01*
X0096785Y0050099D02*
X0096785Y0048781D01*
X0094149Y0046145D01*
X0091514Y0046145D02*
X0096785Y0046145D01*
X0098103Y0043498D02*
X0095467Y0043498D01*
X0094149Y0042180D01*
X0094149Y0038226D01*
X0091514Y0038226D02*
X0099421Y0038226D01*
X0099421Y0042180D01*
X0098103Y0043498D01*
X0104414Y0042180D02*
X0104414Y0039544D01*
X0105732Y0038226D01*
X0108367Y0039544D02*
X0109685Y0038226D01*
X0111003Y0038226D01*
X0112321Y0039544D01*
X0112321Y0042180D01*
X0111003Y0043498D01*
X0108367Y0042180D02*
X0107049Y0043498D01*
X0105732Y0043498D01*
X0104414Y0042180D01*
X0108367Y0042180D02*
X0108367Y0039544D01*
X0117314Y0039544D02*
X0118632Y0038226D01*
X0123903Y0038226D01*
X0125221Y0039544D01*
X0125221Y0042180D01*
X0123903Y0043498D01*
X0121267Y0046145D02*
X0118632Y0046145D01*
X0117314Y0047463D01*
X0117314Y0050099D01*
X0118632Y0051416D01*
X0121267Y0051416D01*
X0122585Y0050099D01*
X0122585Y0047463D01*
X0121267Y0046145D01*
X0118632Y0043498D02*
X0117314Y0042180D01*
X0117314Y0039544D01*
X0112321Y0046145D02*
X0112321Y0047463D01*
X0104414Y0047463D01*
X0104414Y0046145D02*
X0104414Y0048781D01*
X0104414Y0051424D02*
X0104414Y0054060D01*
X0104414Y0052742D02*
X0109685Y0052742D01*
X0109685Y0051424D01*
X0112321Y0052742D02*
X0113638Y0052742D01*
X0117314Y0054064D02*
X0122585Y0054064D01*
X0122585Y0058017D01*
X0121267Y0059335D01*
X0117314Y0059335D01*
X0117314Y0061983D02*
X0122585Y0061983D01*
X0135485Y0054058D02*
X0135485Y0052740D01*
X0132849Y0050105D01*
X0130214Y0050105D02*
X0135485Y0050105D01*
X0136803Y0047457D02*
X0134167Y0047457D01*
X0132849Y0046139D01*
X0132849Y0042186D01*
X0130214Y0042186D02*
X0138121Y0042186D01*
X0138121Y0046139D01*
X0136803Y0047457D01*
X0134167Y0031619D02*
X0131532Y0031619D01*
X0130214Y0030302D01*
X0130214Y0027666D01*
X0131532Y0026348D01*
X0134167Y0026348D01*
X0135485Y0027666D01*
X0135485Y0030302D01*
X0134167Y0031619D01*
X0138121Y0023701D02*
X0138121Y0018430D01*
X0138121Y0021065D02*
X0130214Y0021065D01*
X0125221Y0021065D02*
X0117314Y0021065D01*
X0117314Y0018430D02*
X0117314Y0023701D01*
X0117314Y0026348D02*
X0117314Y0027666D01*
X0118632Y0027666D01*
X0118632Y0026348D01*
X0117314Y0026348D01*
X0112321Y0022383D02*
X0111003Y0023701D01*
X0109685Y0023701D01*
X0104414Y0018430D01*
X0104414Y0023701D01*
X0104414Y0026348D02*
X0104414Y0027666D01*
X0105732Y0027666D01*
X0105732Y0026348D01*
X0104414Y0026348D01*
X0099421Y0022383D02*
X0098103Y0023701D01*
X0096785Y0023701D01*
X0095467Y0022383D01*
X0094149Y0023701D01*
X0092832Y0023701D01*
X0091514Y0022383D01*
X0091514Y0019747D01*
X0092832Y0018430D01*
X0098103Y0018430D02*
X0099421Y0019747D01*
X0099421Y0022383D01*
X0095467Y0022383D02*
X0095467Y0021065D01*
X0092832Y0026348D02*
X0091514Y0026348D01*
X0091514Y0027666D01*
X0092832Y0027666D01*
X0092832Y0026348D01*
X0111003Y0018430D02*
X0112321Y0019747D01*
X0112321Y0022383D01*
X0122585Y0018430D02*
X0125221Y0021065D01*
X0095467Y0068582D02*
X0096785Y0069899D01*
X0096785Y0073853D01*
X0094149Y0072535D02*
X0094149Y0069899D01*
X0095467Y0068582D01*
X0091514Y0068582D02*
X0091514Y0072535D01*
X0092832Y0073853D01*
X0094149Y0072535D01*
D14*
X0177778Y0126347D02*
X0221085Y0126347D01*
X0221209Y0126349D01*
X0221332Y0126355D01*
X0221456Y0126364D01*
X0221578Y0126378D01*
X0221701Y0126395D01*
X0221823Y0126417D01*
X0221944Y0126442D01*
X0222064Y0126471D01*
X0222183Y0126503D01*
X0222302Y0126540D01*
X0222419Y0126580D01*
X0222534Y0126623D01*
X0222649Y0126671D01*
X0222761Y0126722D01*
X0222872Y0126776D01*
X0222982Y0126834D01*
X0223089Y0126895D01*
X0223195Y0126960D01*
X0223298Y0127028D01*
X0223399Y0127099D01*
X0223498Y0127173D01*
X0223595Y0127250D01*
X0223689Y0127331D01*
X0223780Y0127414D01*
X0223869Y0127500D01*
X0223955Y0127589D01*
X0224038Y0127680D01*
X0224119Y0127774D01*
X0224196Y0127871D01*
X0224270Y0127970D01*
X0224341Y0128071D01*
X0224409Y0128174D01*
X0224474Y0128280D01*
X0224535Y0128387D01*
X0224593Y0128497D01*
X0224647Y0128608D01*
X0224698Y0128720D01*
X0224746Y0128835D01*
X0224789Y0128950D01*
X0224829Y0129067D01*
X0224866Y0129186D01*
X0224898Y0129305D01*
X0224927Y0129425D01*
X0224952Y0129546D01*
X0224974Y0129668D01*
X0224991Y0129791D01*
X0225005Y0129913D01*
X0225014Y0130037D01*
X0225020Y0130160D01*
X0225022Y0130284D01*
X0225022Y0171623D01*
X0225023Y0171623D02*
X0225021Y0171775D01*
X0225015Y0171927D01*
X0225005Y0172079D01*
X0224992Y0172230D01*
X0224974Y0172381D01*
X0224953Y0172532D01*
X0224927Y0172682D01*
X0224898Y0172831D01*
X0224865Y0172980D01*
X0224828Y0173127D01*
X0224788Y0173274D01*
X0224743Y0173419D01*
X0224695Y0173563D01*
X0224643Y0173706D01*
X0224588Y0173848D01*
X0224529Y0173988D01*
X0224466Y0174127D01*
X0224400Y0174264D01*
X0224330Y0174399D01*
X0224257Y0174532D01*
X0224180Y0174663D01*
X0224100Y0174793D01*
X0224017Y0174920D01*
X0223931Y0175045D01*
X0223841Y0175168D01*
X0223748Y0175288D01*
X0223652Y0175406D01*
X0223553Y0175522D01*
X0223451Y0175635D01*
X0223347Y0175745D01*
X0223239Y0175853D01*
X0223129Y0175957D01*
X0223016Y0176059D01*
X0222900Y0176158D01*
X0222782Y0176254D01*
X0222662Y0176347D01*
X0222539Y0176437D01*
X0222414Y0176523D01*
X0222287Y0176606D01*
X0222157Y0176686D01*
X0222026Y0176763D01*
X0221893Y0176836D01*
X0221758Y0176906D01*
X0221621Y0176972D01*
X0221482Y0177035D01*
X0221342Y0177094D01*
X0221200Y0177149D01*
X0221057Y0177201D01*
X0220913Y0177249D01*
X0220768Y0177294D01*
X0220621Y0177334D01*
X0220474Y0177371D01*
X0220325Y0177404D01*
X0220176Y0177433D01*
X0220026Y0177459D01*
X0219875Y0177480D01*
X0219724Y0177498D01*
X0219573Y0177511D01*
X0219421Y0177521D01*
X0219269Y0177527D01*
X0219117Y0177529D01*
X0219117Y0177528D02*
X0179746Y0177528D01*
X0179746Y0177529D02*
X0179594Y0177527D01*
X0179442Y0177521D01*
X0179290Y0177511D01*
X0179139Y0177498D01*
X0178988Y0177480D01*
X0178837Y0177459D01*
X0178687Y0177433D01*
X0178538Y0177404D01*
X0178389Y0177371D01*
X0178242Y0177334D01*
X0178095Y0177294D01*
X0177950Y0177249D01*
X0177806Y0177201D01*
X0177663Y0177149D01*
X0177521Y0177094D01*
X0177381Y0177035D01*
X0177242Y0176972D01*
X0177105Y0176906D01*
X0176970Y0176836D01*
X0176837Y0176763D01*
X0176706Y0176686D01*
X0176576Y0176606D01*
X0176449Y0176523D01*
X0176324Y0176437D01*
X0176201Y0176347D01*
X0176081Y0176254D01*
X0175963Y0176158D01*
X0175847Y0176059D01*
X0175734Y0175957D01*
X0175624Y0175853D01*
X0175516Y0175745D01*
X0175412Y0175635D01*
X0175310Y0175522D01*
X0175211Y0175406D01*
X0175115Y0175288D01*
X0175022Y0175168D01*
X0174932Y0175045D01*
X0174846Y0174920D01*
X0174763Y0174793D01*
X0174683Y0174663D01*
X0174606Y0174532D01*
X0174533Y0174399D01*
X0174463Y0174264D01*
X0174397Y0174127D01*
X0174334Y0173988D01*
X0174275Y0173848D01*
X0174220Y0173706D01*
X0174168Y0173563D01*
X0174120Y0173419D01*
X0174075Y0173274D01*
X0174035Y0173127D01*
X0173998Y0172980D01*
X0173965Y0172831D01*
X0173936Y0172682D01*
X0173910Y0172532D01*
X0173889Y0172381D01*
X0173871Y0172230D01*
X0173858Y0172079D01*
X0173848Y0171927D01*
X0173842Y0171775D01*
X0173840Y0171623D01*
X0173841Y0171623D02*
X0173841Y0130284D01*
X0173843Y0130160D01*
X0173849Y0130037D01*
X0173858Y0129913D01*
X0173872Y0129791D01*
X0173889Y0129668D01*
X0173911Y0129546D01*
X0173936Y0129425D01*
X0173965Y0129305D01*
X0173997Y0129186D01*
X0174034Y0129067D01*
X0174074Y0128950D01*
X0174117Y0128835D01*
X0174165Y0128720D01*
X0174216Y0128608D01*
X0174270Y0128497D01*
X0174328Y0128387D01*
X0174389Y0128280D01*
X0174454Y0128174D01*
X0174522Y0128071D01*
X0174593Y0127970D01*
X0174667Y0127871D01*
X0174744Y0127774D01*
X0174825Y0127680D01*
X0174908Y0127589D01*
X0174994Y0127500D01*
X0175083Y0127414D01*
X0175174Y0127331D01*
X0175268Y0127250D01*
X0175365Y0127173D01*
X0175464Y0127099D01*
X0175565Y0127028D01*
X0175668Y0126960D01*
X0175774Y0126895D01*
X0175881Y0126834D01*
X0175991Y0126776D01*
X0176102Y0126722D01*
X0176214Y0126671D01*
X0176329Y0126623D01*
X0176444Y0126580D01*
X0176561Y0126540D01*
X0176680Y0126503D01*
X0176799Y0126471D01*
X0176919Y0126442D01*
X0177040Y0126417D01*
X0177162Y0126395D01*
X0177285Y0126378D01*
X0177407Y0126364D01*
X0177531Y0126355D01*
X0177654Y0126349D01*
X0177778Y0126347D01*
D15*
X0164668Y0117863D02*
X0164668Y0105737D01*
X0159668Y0101800D02*
X0149786Y0101800D01*
X0144668Y0105737D02*
X0144668Y0117863D01*
X0149786Y0121800D02*
X0159550Y0121800D01*
X0149668Y0111800D02*
X0149670Y0111941D01*
X0149676Y0112082D01*
X0149686Y0112222D01*
X0149700Y0112362D01*
X0149718Y0112502D01*
X0149739Y0112641D01*
X0149765Y0112780D01*
X0149794Y0112918D01*
X0149828Y0113054D01*
X0149865Y0113190D01*
X0149906Y0113325D01*
X0149951Y0113459D01*
X0150000Y0113591D01*
X0150052Y0113722D01*
X0150108Y0113851D01*
X0150168Y0113978D01*
X0150231Y0114104D01*
X0150297Y0114228D01*
X0150368Y0114351D01*
X0150441Y0114471D01*
X0150518Y0114589D01*
X0150598Y0114705D01*
X0150682Y0114818D01*
X0150768Y0114929D01*
X0150858Y0115038D01*
X0150951Y0115144D01*
X0151046Y0115247D01*
X0151145Y0115348D01*
X0151246Y0115446D01*
X0151350Y0115541D01*
X0151457Y0115633D01*
X0151566Y0115722D01*
X0151678Y0115807D01*
X0151792Y0115890D01*
X0151908Y0115970D01*
X0152027Y0116046D01*
X0152148Y0116118D01*
X0152270Y0116188D01*
X0152395Y0116253D01*
X0152521Y0116316D01*
X0152649Y0116374D01*
X0152779Y0116429D01*
X0152910Y0116481D01*
X0153043Y0116528D01*
X0153177Y0116572D01*
X0153312Y0116613D01*
X0153448Y0116649D01*
X0153585Y0116681D01*
X0153723Y0116710D01*
X0153861Y0116735D01*
X0154001Y0116755D01*
X0154141Y0116772D01*
X0154281Y0116785D01*
X0154422Y0116794D01*
X0154562Y0116799D01*
X0154703Y0116800D01*
X0154844Y0116797D01*
X0154985Y0116790D01*
X0155125Y0116779D01*
X0155265Y0116764D01*
X0155405Y0116745D01*
X0155544Y0116723D01*
X0155682Y0116696D01*
X0155820Y0116666D01*
X0155956Y0116631D01*
X0156092Y0116593D01*
X0156226Y0116551D01*
X0156360Y0116505D01*
X0156492Y0116456D01*
X0156622Y0116402D01*
X0156751Y0116345D01*
X0156878Y0116285D01*
X0157004Y0116221D01*
X0157127Y0116153D01*
X0157249Y0116082D01*
X0157369Y0116008D01*
X0157486Y0115930D01*
X0157601Y0115849D01*
X0157714Y0115765D01*
X0157825Y0115678D01*
X0157933Y0115587D01*
X0158038Y0115494D01*
X0158141Y0115397D01*
X0158241Y0115298D01*
X0158338Y0115196D01*
X0158432Y0115091D01*
X0158523Y0114984D01*
X0158611Y0114874D01*
X0158696Y0114762D01*
X0158778Y0114647D01*
X0158857Y0114530D01*
X0158932Y0114411D01*
X0159004Y0114290D01*
X0159072Y0114167D01*
X0159137Y0114042D01*
X0159199Y0113915D01*
X0159256Y0113786D01*
X0159311Y0113656D01*
X0159361Y0113525D01*
X0159408Y0113392D01*
X0159451Y0113258D01*
X0159490Y0113122D01*
X0159525Y0112986D01*
X0159557Y0112849D01*
X0159584Y0112711D01*
X0159608Y0112572D01*
X0159628Y0112432D01*
X0159644Y0112292D01*
X0159656Y0112152D01*
X0159664Y0112011D01*
X0159668Y0111870D01*
X0159668Y0111730D01*
X0159664Y0111589D01*
X0159656Y0111448D01*
X0159644Y0111308D01*
X0159628Y0111168D01*
X0159608Y0111028D01*
X0159584Y0110889D01*
X0159557Y0110751D01*
X0159525Y0110614D01*
X0159490Y0110478D01*
X0159451Y0110342D01*
X0159408Y0110208D01*
X0159361Y0110075D01*
X0159311Y0109944D01*
X0159256Y0109814D01*
X0159199Y0109685D01*
X0159137Y0109558D01*
X0159072Y0109433D01*
X0159004Y0109310D01*
X0158932Y0109189D01*
X0158857Y0109070D01*
X0158778Y0108953D01*
X0158696Y0108838D01*
X0158611Y0108726D01*
X0158523Y0108616D01*
X0158432Y0108509D01*
X0158338Y0108404D01*
X0158241Y0108302D01*
X0158141Y0108203D01*
X0158038Y0108106D01*
X0157933Y0108013D01*
X0157825Y0107922D01*
X0157714Y0107835D01*
X0157601Y0107751D01*
X0157486Y0107670D01*
X0157369Y0107592D01*
X0157249Y0107518D01*
X0157127Y0107447D01*
X0157004Y0107379D01*
X0156878Y0107315D01*
X0156751Y0107255D01*
X0156622Y0107198D01*
X0156492Y0107144D01*
X0156360Y0107095D01*
X0156226Y0107049D01*
X0156092Y0107007D01*
X0155956Y0106969D01*
X0155820Y0106934D01*
X0155682Y0106904D01*
X0155544Y0106877D01*
X0155405Y0106855D01*
X0155265Y0106836D01*
X0155125Y0106821D01*
X0154985Y0106810D01*
X0154844Y0106803D01*
X0154703Y0106800D01*
X0154562Y0106801D01*
X0154422Y0106806D01*
X0154281Y0106815D01*
X0154141Y0106828D01*
X0154001Y0106845D01*
X0153861Y0106865D01*
X0153723Y0106890D01*
X0153585Y0106919D01*
X0153448Y0106951D01*
X0153312Y0106987D01*
X0153177Y0107028D01*
X0153043Y0107072D01*
X0152910Y0107119D01*
X0152779Y0107171D01*
X0152649Y0107226D01*
X0152521Y0107284D01*
X0152395Y0107347D01*
X0152270Y0107412D01*
X0152148Y0107482D01*
X0152027Y0107554D01*
X0151908Y0107630D01*
X0151792Y0107710D01*
X0151678Y0107793D01*
X0151566Y0107878D01*
X0151457Y0107967D01*
X0151350Y0108059D01*
X0151246Y0108154D01*
X0151145Y0108252D01*
X0151046Y0108353D01*
X0150951Y0108456D01*
X0150858Y0108562D01*
X0150768Y0108671D01*
X0150682Y0108782D01*
X0150598Y0108895D01*
X0150518Y0109011D01*
X0150441Y0109129D01*
X0150368Y0109249D01*
X0150297Y0109372D01*
X0150231Y0109496D01*
X0150168Y0109622D01*
X0150108Y0109749D01*
X0150052Y0109878D01*
X0150000Y0110009D01*
X0149951Y0110141D01*
X0149906Y0110275D01*
X0149865Y0110410D01*
X0149828Y0110546D01*
X0149794Y0110682D01*
X0149765Y0110820D01*
X0149739Y0110959D01*
X0149718Y0111098D01*
X0149700Y0111238D01*
X0149686Y0111378D01*
X0149676Y0111518D01*
X0149670Y0111659D01*
X0149668Y0111800D01*
X0182502Y0138749D02*
X0184865Y0138749D01*
X0188802Y0141308D02*
X0188802Y0162568D01*
X0184865Y0165127D02*
X0182502Y0165127D01*
X0178565Y0157843D02*
X0178565Y0151938D01*
X0164668Y0153237D02*
X0164668Y0165363D01*
X0159550Y0169300D02*
X0149668Y0169300D01*
X0144668Y0165363D02*
X0144668Y0153237D01*
X0149786Y0149300D02*
X0159550Y0149300D01*
X0149668Y0159300D02*
X0149670Y0159441D01*
X0149676Y0159582D01*
X0149686Y0159722D01*
X0149700Y0159862D01*
X0149718Y0160002D01*
X0149739Y0160141D01*
X0149765Y0160280D01*
X0149794Y0160418D01*
X0149828Y0160554D01*
X0149865Y0160690D01*
X0149906Y0160825D01*
X0149951Y0160959D01*
X0150000Y0161091D01*
X0150052Y0161222D01*
X0150108Y0161351D01*
X0150168Y0161478D01*
X0150231Y0161604D01*
X0150297Y0161728D01*
X0150368Y0161851D01*
X0150441Y0161971D01*
X0150518Y0162089D01*
X0150598Y0162205D01*
X0150682Y0162318D01*
X0150768Y0162429D01*
X0150858Y0162538D01*
X0150951Y0162644D01*
X0151046Y0162747D01*
X0151145Y0162848D01*
X0151246Y0162946D01*
X0151350Y0163041D01*
X0151457Y0163133D01*
X0151566Y0163222D01*
X0151678Y0163307D01*
X0151792Y0163390D01*
X0151908Y0163470D01*
X0152027Y0163546D01*
X0152148Y0163618D01*
X0152270Y0163688D01*
X0152395Y0163753D01*
X0152521Y0163816D01*
X0152649Y0163874D01*
X0152779Y0163929D01*
X0152910Y0163981D01*
X0153043Y0164028D01*
X0153177Y0164072D01*
X0153312Y0164113D01*
X0153448Y0164149D01*
X0153585Y0164181D01*
X0153723Y0164210D01*
X0153861Y0164235D01*
X0154001Y0164255D01*
X0154141Y0164272D01*
X0154281Y0164285D01*
X0154422Y0164294D01*
X0154562Y0164299D01*
X0154703Y0164300D01*
X0154844Y0164297D01*
X0154985Y0164290D01*
X0155125Y0164279D01*
X0155265Y0164264D01*
X0155405Y0164245D01*
X0155544Y0164223D01*
X0155682Y0164196D01*
X0155820Y0164166D01*
X0155956Y0164131D01*
X0156092Y0164093D01*
X0156226Y0164051D01*
X0156360Y0164005D01*
X0156492Y0163956D01*
X0156622Y0163902D01*
X0156751Y0163845D01*
X0156878Y0163785D01*
X0157004Y0163721D01*
X0157127Y0163653D01*
X0157249Y0163582D01*
X0157369Y0163508D01*
X0157486Y0163430D01*
X0157601Y0163349D01*
X0157714Y0163265D01*
X0157825Y0163178D01*
X0157933Y0163087D01*
X0158038Y0162994D01*
X0158141Y0162897D01*
X0158241Y0162798D01*
X0158338Y0162696D01*
X0158432Y0162591D01*
X0158523Y0162484D01*
X0158611Y0162374D01*
X0158696Y0162262D01*
X0158778Y0162147D01*
X0158857Y0162030D01*
X0158932Y0161911D01*
X0159004Y0161790D01*
X0159072Y0161667D01*
X0159137Y0161542D01*
X0159199Y0161415D01*
X0159256Y0161286D01*
X0159311Y0161156D01*
X0159361Y0161025D01*
X0159408Y0160892D01*
X0159451Y0160758D01*
X0159490Y0160622D01*
X0159525Y0160486D01*
X0159557Y0160349D01*
X0159584Y0160211D01*
X0159608Y0160072D01*
X0159628Y0159932D01*
X0159644Y0159792D01*
X0159656Y0159652D01*
X0159664Y0159511D01*
X0159668Y0159370D01*
X0159668Y0159230D01*
X0159664Y0159089D01*
X0159656Y0158948D01*
X0159644Y0158808D01*
X0159628Y0158668D01*
X0159608Y0158528D01*
X0159584Y0158389D01*
X0159557Y0158251D01*
X0159525Y0158114D01*
X0159490Y0157978D01*
X0159451Y0157842D01*
X0159408Y0157708D01*
X0159361Y0157575D01*
X0159311Y0157444D01*
X0159256Y0157314D01*
X0159199Y0157185D01*
X0159137Y0157058D01*
X0159072Y0156933D01*
X0159004Y0156810D01*
X0158932Y0156689D01*
X0158857Y0156570D01*
X0158778Y0156453D01*
X0158696Y0156338D01*
X0158611Y0156226D01*
X0158523Y0156116D01*
X0158432Y0156009D01*
X0158338Y0155904D01*
X0158241Y0155802D01*
X0158141Y0155703D01*
X0158038Y0155606D01*
X0157933Y0155513D01*
X0157825Y0155422D01*
X0157714Y0155335D01*
X0157601Y0155251D01*
X0157486Y0155170D01*
X0157369Y0155092D01*
X0157249Y0155018D01*
X0157127Y0154947D01*
X0157004Y0154879D01*
X0156878Y0154815D01*
X0156751Y0154755D01*
X0156622Y0154698D01*
X0156492Y0154644D01*
X0156360Y0154595D01*
X0156226Y0154549D01*
X0156092Y0154507D01*
X0155956Y0154469D01*
X0155820Y0154434D01*
X0155682Y0154404D01*
X0155544Y0154377D01*
X0155405Y0154355D01*
X0155265Y0154336D01*
X0155125Y0154321D01*
X0154985Y0154310D01*
X0154844Y0154303D01*
X0154703Y0154300D01*
X0154562Y0154301D01*
X0154422Y0154306D01*
X0154281Y0154315D01*
X0154141Y0154328D01*
X0154001Y0154345D01*
X0153861Y0154365D01*
X0153723Y0154390D01*
X0153585Y0154419D01*
X0153448Y0154451D01*
X0153312Y0154487D01*
X0153177Y0154528D01*
X0153043Y0154572D01*
X0152910Y0154619D01*
X0152779Y0154671D01*
X0152649Y0154726D01*
X0152521Y0154784D01*
X0152395Y0154847D01*
X0152270Y0154912D01*
X0152148Y0154982D01*
X0152027Y0155054D01*
X0151908Y0155130D01*
X0151792Y0155210D01*
X0151678Y0155293D01*
X0151566Y0155378D01*
X0151457Y0155467D01*
X0151350Y0155559D01*
X0151246Y0155654D01*
X0151145Y0155752D01*
X0151046Y0155853D01*
X0150951Y0155956D01*
X0150858Y0156062D01*
X0150768Y0156171D01*
X0150682Y0156282D01*
X0150598Y0156395D01*
X0150518Y0156511D01*
X0150441Y0156629D01*
X0150368Y0156749D01*
X0150297Y0156872D01*
X0150231Y0156996D01*
X0150168Y0157122D01*
X0150108Y0157249D01*
X0150052Y0157378D01*
X0150000Y0157509D01*
X0149951Y0157641D01*
X0149906Y0157775D01*
X0149865Y0157910D01*
X0149828Y0158046D01*
X0149794Y0158182D01*
X0149765Y0158320D01*
X0149739Y0158459D01*
X0149718Y0158598D01*
X0149700Y0158738D01*
X0149686Y0158878D01*
X0149676Y0159018D01*
X0149670Y0159159D01*
X0149668Y0159300D01*
X0379596Y0027096D02*
X0379596Y0025561D01*
X0384200Y0024027D02*
X0385735Y0025561D01*
X0388804Y0025561D01*
X0390339Y0024027D01*
X0390339Y0022492D01*
X0388804Y0020957D01*
X0385735Y0020957D01*
X0384200Y0019423D01*
X0384200Y0017888D01*
X0385735Y0016354D01*
X0388804Y0016354D01*
X0390339Y0017888D01*
X0393408Y0017888D02*
X0394943Y0016354D01*
X0399546Y0016354D01*
X0399546Y0025561D01*
X0394943Y0025561D01*
X0393408Y0024027D01*
X0393408Y0022492D01*
X0394943Y0020957D01*
X0399546Y0020957D01*
X0402616Y0020957D02*
X0404150Y0019423D01*
X0404150Y0022492D01*
X0407220Y0022492D01*
X0407220Y0019423D01*
X0404150Y0019423D01*
X0402616Y0020957D02*
X0402616Y0024027D01*
X0404150Y0025561D01*
X0407220Y0025561D01*
X0408754Y0024027D01*
X0408754Y0017888D01*
X0407220Y0016354D01*
X0404150Y0016354D01*
X0402616Y0017888D01*
X0394943Y0020957D02*
X0393408Y0019423D01*
X0393408Y0017888D01*
X0381131Y0016354D02*
X0378061Y0016354D01*
X0379596Y0016354D02*
X0379596Y0022492D01*
X0381131Y0022492D01*
X0374992Y0020957D02*
X0374992Y0017888D01*
X0373458Y0016354D01*
X0368854Y0016354D01*
X0368854Y0025561D01*
X0368854Y0022492D02*
X0373458Y0022492D01*
X0374992Y0020957D01*
X0365784Y0020957D02*
X0365784Y0017888D01*
X0364250Y0016354D01*
X0361180Y0016354D01*
X0356576Y0016354D02*
X0351972Y0016354D01*
X0350438Y0017888D01*
X0351972Y0019423D01*
X0355042Y0019423D01*
X0356576Y0020957D01*
X0355042Y0022492D01*
X0350438Y0022492D01*
X0347369Y0019423D02*
X0342765Y0019423D01*
X0341230Y0020957D01*
X0341230Y0024027D01*
X0342765Y0025561D01*
X0347369Y0025561D01*
X0347369Y0016354D01*
X0338161Y0016354D02*
X0338161Y0025561D01*
X0333557Y0025561D01*
X0332022Y0024027D01*
X0332022Y0020957D01*
X0333557Y0019423D01*
X0338161Y0019423D01*
X0335091Y0019423D02*
X0332022Y0016354D01*
X0359646Y0019423D02*
X0365784Y0019423D01*
X0365784Y0020957D02*
X0364250Y0022492D01*
X0361180Y0022492D01*
X0359646Y0020957D01*
X0359646Y0019423D01*
D16*
X0366617Y0034917D03*
X0369217Y0065717D03*
X0337217Y0068717D03*
X0329417Y0134517D03*
X0262817Y0151717D03*
D17*
X0263017Y0151617D03*
X0308817Y0145617D03*
X0309017Y0145617D03*
X0309217Y0145417D03*
X0309617Y0145217D03*
X0309817Y0145217D03*
X0310017Y0145017D03*
X0310417Y0144617D03*
X0330417Y0136017D03*
X0330617Y0136417D03*
X0330817Y0136617D03*
X0331417Y0137617D03*
X0331817Y0138417D03*
X0332017Y0138417D03*
X0333217Y0140217D03*
X0331417Y0157017D03*
X0317417Y0112617D03*
X0342617Y0103017D03*
X0338617Y0079217D03*
X0335217Y0068617D03*
X0335017Y0068617D03*
X0329417Y0067417D03*
X0329217Y0067417D03*
X0328817Y0067617D03*
X0313017Y0059417D03*
X0330217Y0037217D03*
X0370017Y0065417D03*
D18*
X0342817Y0081817D03*
X0322217Y0070217D03*
X0322017Y0070217D03*
X0321617Y0070417D03*
X0321217Y0070617D03*
X0321017Y0070617D03*
X0320217Y0071017D03*
X0320017Y0071017D03*
X0319817Y0071017D03*
X0319617Y0071017D03*
X0319417Y0071217D03*
X0319017Y0071417D03*
X0318817Y0071617D03*
X0315617Y0073417D03*
X0323017Y0069817D03*
X0323417Y0069617D03*
X0323617Y0069617D03*
X0324017Y0069417D03*
X0324417Y0069217D03*
X0324617Y0069217D03*
X0325417Y0068817D03*
X0325617Y0068817D03*
X0325817Y0068817D03*
X0326017Y0068617D03*
X0326417Y0068417D03*
X0326617Y0068417D03*
X0326817Y0068417D03*
X0327217Y0068217D03*
X0327417Y0068017D03*
X0327617Y0068017D03*
X0328017Y0067817D03*
X0303617Y0079617D03*
X0343017Y0102417D03*
X0318017Y0113217D03*
X0317617Y0112817D03*
X0343217Y0118617D03*
X0343417Y0119017D03*
X0333417Y0140417D03*
X0333617Y0140817D03*
X0334217Y0141417D03*
X0334417Y0141617D03*
X0335017Y0142417D03*
X0335217Y0142617D03*
X0336017Y0143617D03*
X0336217Y0143617D03*
X0336417Y0144017D03*
X0310617Y0144417D03*
X0287817Y0126017D03*
X0271217Y0120417D03*
X0263217Y0151617D03*
X0272817Y0169817D03*
X0366417Y0034617D03*
D19*
X0313617Y0059317D03*
X0339017Y0078917D03*
X0343017Y0081717D03*
X0370817Y0064917D03*
X0343617Y0101317D03*
X0343417Y0101717D03*
X0318417Y0113917D03*
X0343617Y0119317D03*
X0311017Y0143717D03*
X0339817Y0147117D03*
X0340217Y0147517D03*
X0340617Y0147917D03*
X0341617Y0148717D03*
X0263417Y0151517D03*
D20*
X0263617Y0151617D03*
X0297217Y0138617D03*
X0299017Y0126817D03*
X0318617Y0114217D03*
X0302017Y0109617D03*
X0271617Y0120617D03*
X0340417Y0147817D03*
X0340817Y0148017D03*
X0341017Y0148217D03*
X0341217Y0148417D03*
X0341417Y0148617D03*
X0341817Y0149017D03*
X0342017Y0149017D03*
X0342217Y0149217D03*
X0342617Y0149417D03*
X0342817Y0149617D03*
X0343417Y0150017D03*
X0344217Y0120217D03*
X0344017Y0120017D03*
X0343817Y0101017D03*
X0359017Y0098417D03*
X0273017Y0169817D03*
D21*
X0263817Y0151517D03*
X0319817Y0117317D03*
X0344417Y0120517D03*
X0344017Y0100517D03*
X0371017Y0064717D03*
X0382017Y0047917D03*
X0366217Y0034717D03*
X0330417Y0037317D03*
X0314017Y0059317D03*
X0313817Y0059317D03*
X0342417Y0149317D03*
X0343017Y0149717D03*
X0343217Y0149917D03*
X0343617Y0150317D03*
X0343817Y0150317D03*
X0344417Y0150717D03*
X0344617Y0150917D03*
D22*
X0345617Y0151517D03*
X0346417Y0151917D03*
X0346817Y0152317D03*
X0347217Y0152517D03*
X0347417Y0152517D03*
X0348017Y0152917D03*
X0348617Y0153317D03*
X0288017Y0126117D03*
X0272217Y0120717D03*
X0272017Y0120717D03*
X0264217Y0151517D03*
X0264017Y0151517D03*
X0344817Y0121317D03*
X0344217Y0100317D03*
X0371217Y0064517D03*
X0381817Y0048117D03*
D23*
X0315617Y0059417D03*
X0315417Y0059417D03*
X0315217Y0059417D03*
X0343417Y0081417D03*
X0344817Y0099217D03*
X0302617Y0083017D03*
X0345417Y0122617D03*
X0311417Y0142817D03*
X0298617Y0127417D03*
X0264617Y0151417D03*
X0264417Y0151417D03*
X0273617Y0169817D03*
X0350017Y0154017D03*
X0350417Y0154217D03*
X0350817Y0154417D03*
X0351017Y0154417D03*
X0351617Y0154817D03*
X0352217Y0155017D03*
X0352417Y0155017D03*
X0352617Y0155217D03*
X0353017Y0155417D03*
X0353217Y0155417D03*
X0354217Y0155817D03*
D24*
X0354017Y0155717D03*
X0353817Y0155717D03*
X0353617Y0155517D03*
X0353417Y0155517D03*
X0354417Y0155917D03*
X0355017Y0156117D03*
X0355217Y0156117D03*
X0355417Y0156317D03*
X0355617Y0156317D03*
X0356017Y0156517D03*
X0356217Y0156517D03*
X0311617Y0142517D03*
X0345617Y0122917D03*
X0345817Y0123117D03*
X0345217Y0098517D03*
X0358817Y0097717D03*
X0332017Y0061917D03*
X0330617Y0037317D03*
X0272617Y0120717D03*
X0264817Y0151517D03*
D25*
X0265017Y0151417D03*
X0273817Y0169617D03*
X0311817Y0142417D03*
X0354617Y0156017D03*
X0354817Y0156017D03*
X0355817Y0156417D03*
X0356417Y0156617D03*
X0356617Y0156617D03*
X0357017Y0156817D03*
X0357217Y0156817D03*
X0357417Y0156817D03*
X0357617Y0157017D03*
X0357817Y0157017D03*
X0272817Y0120817D03*
X0317217Y0113817D03*
X0371817Y0064017D03*
X0372017Y0064017D03*
X0381417Y0048217D03*
X0316217Y0059417D03*
X0316017Y0059417D03*
X0315817Y0059417D03*
D26*
X0316417Y0059317D03*
X0316617Y0059317D03*
X0316817Y0059317D03*
X0366017Y0035117D03*
X0345617Y0097517D03*
X0345417Y0097917D03*
X0301817Y0109517D03*
X0273017Y0120917D03*
X0298417Y0127717D03*
X0265217Y0151317D03*
X0274017Y0169517D03*
X0356817Y0156717D03*
X0358017Y0157117D03*
X0358617Y0157317D03*
X0358817Y0157317D03*
X0359017Y0157317D03*
X0359417Y0157517D03*
X0359617Y0157517D03*
D27*
X0359817Y0157617D03*
X0360017Y0157617D03*
X0360217Y0157617D03*
X0360817Y0157817D03*
X0361617Y0158017D03*
X0361817Y0158017D03*
X0362017Y0158017D03*
X0359217Y0157417D03*
X0358417Y0157217D03*
X0358217Y0157217D03*
X0346217Y0124017D03*
X0346017Y0123617D03*
X0345817Y0097417D03*
X0343617Y0081417D03*
X0338217Y0074617D03*
X0321417Y0058017D03*
X0321217Y0058017D03*
X0320417Y0058417D03*
X0319217Y0058817D03*
X0319017Y0058817D03*
X0317617Y0059217D03*
X0317417Y0059217D03*
X0317217Y0059217D03*
X0317017Y0059217D03*
X0322217Y0057417D03*
X0322817Y0057017D03*
X0323417Y0056617D03*
X0323617Y0056617D03*
X0372217Y0063817D03*
X0372417Y0063817D03*
X0381217Y0048417D03*
X0273217Y0121017D03*
X0265617Y0151217D03*
X0265417Y0151217D03*
X0274217Y0169417D03*
D28*
X0266017Y0151117D03*
X0265817Y0151117D03*
X0297417Y0138517D03*
X0317017Y0125317D03*
X0318217Y0121317D03*
X0301617Y0109517D03*
X0273417Y0121117D03*
X0346417Y0124517D03*
X0330817Y0156917D03*
X0360417Y0157717D03*
X0360617Y0157717D03*
X0361017Y0157917D03*
X0361217Y0157917D03*
X0361417Y0157917D03*
X0362217Y0158117D03*
X0362417Y0158117D03*
X0362617Y0158117D03*
X0320817Y0058317D03*
X0320617Y0058317D03*
X0320217Y0058517D03*
X0320017Y0058517D03*
X0319617Y0058717D03*
X0319417Y0058717D03*
X0318817Y0058917D03*
X0318617Y0058917D03*
X0318217Y0059117D03*
X0318017Y0059117D03*
X0317817Y0059117D03*
X0321017Y0058117D03*
X0321617Y0057917D03*
X0321817Y0057717D03*
X0322017Y0057517D03*
X0322417Y0057317D03*
X0323017Y0056917D03*
X0323217Y0056717D03*
X0323817Y0056517D03*
X0324017Y0056517D03*
D29*
X0324217Y0056417D03*
X0324417Y0056417D03*
X0324617Y0056417D03*
X0322617Y0057217D03*
X0319817Y0058617D03*
X0318417Y0059017D03*
X0332217Y0062017D03*
X0372617Y0063617D03*
X0372817Y0063617D03*
X0381017Y0048417D03*
X0365817Y0035217D03*
X0330817Y0037417D03*
X0346017Y0096617D03*
X0318417Y0120817D03*
X0318017Y0122217D03*
X0317817Y0122617D03*
X0317617Y0123617D03*
X0317217Y0124817D03*
X0346617Y0124817D03*
X0312017Y0141617D03*
X0330617Y0157017D03*
X0362817Y0158217D03*
X0363017Y0158217D03*
X0363217Y0158217D03*
X0363417Y0158217D03*
X0274417Y0169417D03*
X0266417Y0151017D03*
X0266217Y0151017D03*
X0273617Y0121217D03*
D30*
X0273817Y0121317D03*
X0297617Y0138517D03*
X0317417Y0123917D03*
X0318617Y0120517D03*
X0317017Y0114317D03*
X0346217Y0096317D03*
X0346417Y0095917D03*
X0346617Y0095717D03*
X0343817Y0081317D03*
X0373017Y0063517D03*
X0328617Y0055517D03*
X0325817Y0056317D03*
X0325617Y0056317D03*
X0325417Y0056317D03*
X0325217Y0056317D03*
X0325017Y0056317D03*
X0324817Y0056317D03*
X0266817Y0150917D03*
X0266617Y0150917D03*
X0274617Y0169317D03*
X0363617Y0158317D03*
X0363817Y0158317D03*
X0364017Y0158317D03*
X0364217Y0158317D03*
X0364417Y0158317D03*
X0365017Y0158517D03*
X0365217Y0158517D03*
D31*
X0365417Y0158617D03*
X0365617Y0158617D03*
X0365817Y0158617D03*
X0366017Y0158617D03*
X0366217Y0158617D03*
X0366417Y0158617D03*
X0366617Y0158617D03*
X0364817Y0158417D03*
X0364617Y0158417D03*
X0312217Y0141217D03*
X0346817Y0125417D03*
X0358617Y0097217D03*
X0373217Y0063417D03*
X0373417Y0063417D03*
X0380817Y0048417D03*
X0329217Y0055217D03*
X0329017Y0055417D03*
X0328817Y0055417D03*
X0328417Y0055617D03*
X0328217Y0055617D03*
X0327817Y0055817D03*
X0326417Y0056217D03*
X0326217Y0056217D03*
X0326017Y0056217D03*
X0267417Y0150817D03*
X0267217Y0150817D03*
X0267017Y0150817D03*
X0274817Y0169217D03*
D32*
X0275017Y0169117D03*
X0267817Y0150717D03*
X0267617Y0150717D03*
X0312417Y0140717D03*
X0274417Y0121517D03*
X0274217Y0121317D03*
X0274017Y0121317D03*
X0366817Y0158717D03*
X0367017Y0158717D03*
X0367217Y0158717D03*
X0367417Y0158717D03*
X0327217Y0056117D03*
X0327017Y0056117D03*
X0326817Y0056117D03*
X0326617Y0056117D03*
X0327617Y0055917D03*
X0328017Y0055717D03*
X0329417Y0055317D03*
X0329617Y0055317D03*
X0329817Y0055317D03*
D33*
X0327417Y0056017D03*
X0303617Y0084217D03*
X0319417Y0117417D03*
X0347017Y0125817D03*
X0312617Y0140617D03*
X0297817Y0138417D03*
X0274417Y0149217D03*
X0273817Y0149417D03*
X0273617Y0149617D03*
X0273417Y0149617D03*
X0268817Y0150617D03*
X0268617Y0150617D03*
X0268417Y0150617D03*
X0268217Y0150617D03*
X0268017Y0150617D03*
X0275217Y0169017D03*
X0275417Y0169017D03*
X0330417Y0156817D03*
X0367617Y0158817D03*
X0367817Y0158817D03*
X0368017Y0158817D03*
X0368217Y0158817D03*
X0368417Y0158817D03*
X0368617Y0158817D03*
X0368817Y0158817D03*
X0369017Y0158817D03*
X0369217Y0158817D03*
X0369417Y0158817D03*
X0369617Y0158817D03*
X0369817Y0158817D03*
X0370017Y0158817D03*
X0370217Y0158817D03*
X0370417Y0158817D03*
X0370617Y0158817D03*
X0370817Y0158817D03*
X0371017Y0158817D03*
X0274617Y0121617D03*
D34*
X0274817Y0121717D03*
X0298017Y0128317D03*
X0298217Y0128317D03*
X0319217Y0117517D03*
X0301417Y0109517D03*
X0346817Y0094917D03*
X0303817Y0084317D03*
X0330017Y0055317D03*
X0330217Y0055317D03*
X0330417Y0055317D03*
X0331017Y0054917D03*
X0331217Y0054917D03*
X0373617Y0063317D03*
X0380417Y0048717D03*
X0380617Y0048717D03*
X0347217Y0126317D03*
X0352017Y0138117D03*
X0371217Y0158717D03*
X0275817Y0168717D03*
X0275617Y0168917D03*
X0273217Y0149717D03*
X0273017Y0149717D03*
X0272817Y0149717D03*
X0272617Y0149717D03*
X0274017Y0149317D03*
X0274217Y0149317D03*
X0274617Y0149117D03*
X0271017Y0150117D03*
X0270817Y0150117D03*
X0269617Y0150317D03*
X0269417Y0150317D03*
X0269217Y0150317D03*
X0269017Y0150517D03*
D35*
X0269817Y0150217D03*
X0270017Y0150217D03*
X0270217Y0150217D03*
X0270417Y0150217D03*
X0270617Y0150217D03*
X0271217Y0150017D03*
X0271417Y0150017D03*
X0272017Y0149817D03*
X0272217Y0149817D03*
X0272417Y0149817D03*
X0274817Y0149017D03*
X0275017Y0149017D03*
X0275217Y0149017D03*
X0276017Y0148817D03*
X0276017Y0168617D03*
X0347417Y0126617D03*
X0371417Y0158817D03*
X0371617Y0158817D03*
X0371817Y0158817D03*
X0372017Y0158817D03*
X0372217Y0158817D03*
X0372417Y0158817D03*
X0372617Y0158817D03*
X0372817Y0158817D03*
X0373017Y0158817D03*
X0373217Y0158817D03*
X0373417Y0158817D03*
X0373617Y0158817D03*
X0373817Y0158817D03*
X0374017Y0158817D03*
X0374217Y0158817D03*
X0275017Y0121817D03*
X0347017Y0094617D03*
X0344017Y0081217D03*
X0338017Y0074617D03*
X0304017Y0084417D03*
X0302817Y0082817D03*
X0330617Y0055217D03*
X0330817Y0055217D03*
X0331417Y0054817D03*
X0331017Y0037617D03*
X0373817Y0063217D03*
X0374017Y0063217D03*
X0374217Y0063217D03*
D36*
X0369617Y0065517D03*
X0338417Y0079317D03*
X0314217Y0073517D03*
X0314017Y0073717D03*
X0313617Y0073917D03*
X0313417Y0073917D03*
X0313217Y0074117D03*
X0313017Y0074117D03*
X0312417Y0074317D03*
X0312217Y0074517D03*
X0312017Y0074517D03*
X0311817Y0074717D03*
X0311617Y0074717D03*
X0311417Y0074717D03*
X0311217Y0074717D03*
X0311017Y0074917D03*
X0310817Y0075117D03*
X0310617Y0075117D03*
X0310017Y0075317D03*
X0309617Y0075517D03*
X0309017Y0075717D03*
X0308617Y0075917D03*
X0308417Y0075917D03*
X0308017Y0076117D03*
X0307817Y0076117D03*
X0307417Y0076317D03*
X0307217Y0076517D03*
X0307017Y0076517D03*
X0306617Y0076717D03*
X0306417Y0076917D03*
X0306217Y0076917D03*
X0305817Y0077117D03*
X0305617Y0077317D03*
X0305217Y0077517D03*
X0305017Y0077717D03*
X0304417Y0078317D03*
X0333217Y0067517D03*
X0333417Y0067717D03*
X0333617Y0067917D03*
X0333817Y0067917D03*
X0334017Y0067917D03*
X0270817Y0120517D03*
X0287617Y0125917D03*
X0299417Y0125917D03*
X0329617Y0134917D03*
D37*
X0329817Y0135017D03*
X0330217Y0135817D03*
X0308617Y0145817D03*
X0308417Y0145817D03*
X0308017Y0146017D03*
X0307617Y0146217D03*
X0307417Y0146217D03*
X0271017Y0120417D03*
X0302217Y0109617D03*
X0342417Y0103217D03*
X0342817Y0118217D03*
X0304017Y0078817D03*
X0304617Y0078017D03*
X0304817Y0077817D03*
X0305417Y0077417D03*
X0306017Y0077017D03*
X0308217Y0076017D03*
X0308817Y0075817D03*
X0309217Y0075617D03*
X0309417Y0075617D03*
X0310217Y0075217D03*
X0310417Y0075217D03*
X0312617Y0074217D03*
X0312817Y0074217D03*
X0313817Y0073817D03*
X0314417Y0073417D03*
X0314617Y0073417D03*
X0314817Y0073417D03*
X0315017Y0073417D03*
X0315217Y0073417D03*
X0330617Y0067217D03*
X0330817Y0067217D03*
X0331017Y0067217D03*
X0331217Y0067217D03*
X0331417Y0067217D03*
X0331617Y0067217D03*
X0331817Y0067217D03*
X0332017Y0067217D03*
X0332217Y0067217D03*
X0332817Y0067417D03*
X0333017Y0067417D03*
X0334217Y0068217D03*
X0334417Y0068217D03*
X0334617Y0068417D03*
X0334817Y0068417D03*
X0331617Y0061617D03*
X0312817Y0059417D03*
D38*
X0327817Y0067917D03*
X0323217Y0069717D03*
X0338817Y0079117D03*
X0370417Y0065117D03*
X0318217Y0113717D03*
X0271417Y0120517D03*
X0310817Y0144117D03*
X0333017Y0139917D03*
X0334817Y0142117D03*
X0335417Y0142917D03*
X0335617Y0143117D03*
X0336617Y0144117D03*
X0336817Y0144317D03*
X0337017Y0144517D03*
X0337217Y0144717D03*
X0337417Y0144917D03*
X0337817Y0145317D03*
X0338017Y0145517D03*
X0338217Y0145717D03*
X0338417Y0145917D03*
D39*
X0330217Y0156717D03*
X0374417Y0158717D03*
X0374617Y0158717D03*
X0374817Y0158717D03*
X0347617Y0126917D03*
X0301217Y0109517D03*
X0275217Y0121917D03*
X0276217Y0148717D03*
X0276417Y0148717D03*
X0275817Y0148917D03*
X0275617Y0148917D03*
X0275417Y0148917D03*
X0271817Y0149917D03*
X0271617Y0149917D03*
X0276217Y0168517D03*
X0276417Y0168517D03*
X0344217Y0081117D03*
X0331817Y0054717D03*
X0331617Y0054717D03*
X0365617Y0035717D03*
X0380217Y0048917D03*
D40*
X0314417Y0059417D03*
X0314217Y0059417D03*
X0344417Y0100217D03*
X0344617Y0121017D03*
X0298817Y0127017D03*
X0271817Y0120617D03*
X0311217Y0143417D03*
X0331217Y0157017D03*
X0344817Y0151017D03*
X0345017Y0151217D03*
X0345217Y0151217D03*
X0345417Y0151417D03*
X0345817Y0151617D03*
X0346017Y0151817D03*
X0346217Y0151817D03*
X0346617Y0152017D03*
X0344217Y0150617D03*
X0344017Y0150417D03*
X0273217Y0169817D03*
D41*
X0273417Y0169717D03*
X0349017Y0153517D03*
X0349217Y0153517D03*
X0349817Y0153917D03*
X0350217Y0154117D03*
X0350617Y0154317D03*
X0351217Y0154517D03*
X0351417Y0154717D03*
X0351817Y0154917D03*
X0352017Y0154917D03*
X0352817Y0155317D03*
X0314217Y0128717D03*
X0319617Y0117317D03*
X0345017Y0121717D03*
X0345217Y0121917D03*
X0344617Y0099517D03*
X0345017Y0098717D03*
X0371617Y0064317D03*
X0381617Y0048117D03*
X0315017Y0059317D03*
X0272417Y0120717D03*
D42*
X0299217Y0126317D03*
X0317817Y0113117D03*
X0342817Y0102517D03*
X0359217Y0098517D03*
X0321817Y0070317D03*
X0321417Y0070517D03*
X0320817Y0070717D03*
X0320617Y0070717D03*
X0320417Y0070917D03*
X0319217Y0071317D03*
X0322417Y0070117D03*
X0322617Y0070117D03*
X0322817Y0069917D03*
X0323817Y0069517D03*
X0324217Y0069317D03*
X0324817Y0069117D03*
X0325017Y0068917D03*
X0325217Y0068917D03*
X0326217Y0068517D03*
X0327017Y0068317D03*
X0328217Y0067717D03*
X0328417Y0067717D03*
X0328617Y0067717D03*
X0329017Y0067517D03*
X0313217Y0059317D03*
X0370217Y0065317D03*
X0382217Y0047917D03*
X0331017Y0137117D03*
X0331217Y0137317D03*
X0331617Y0137917D03*
X0332217Y0138717D03*
X0332417Y0139117D03*
X0332617Y0139317D03*
X0332817Y0139717D03*
X0333817Y0140917D03*
X0334017Y0141117D03*
X0334617Y0141917D03*
X0310217Y0144717D03*
X0272617Y0169917D03*
D43*
X0276617Y0168417D03*
X0276817Y0168217D03*
X0277017Y0168217D03*
X0277217Y0168017D03*
X0277417Y0168017D03*
X0277217Y0148617D03*
X0277017Y0148617D03*
X0276817Y0148617D03*
X0276617Y0148617D03*
X0297817Y0128617D03*
X0316017Y0129817D03*
X0316817Y0127417D03*
X0347817Y0127617D03*
X0375017Y0158617D03*
X0375217Y0158617D03*
X0375417Y0158617D03*
X0375617Y0158617D03*
X0375817Y0158617D03*
X0376017Y0158617D03*
X0376217Y0158617D03*
X0376417Y0158617D03*
X0275817Y0122217D03*
X0275417Y0122017D03*
X0347217Y0094017D03*
X0337817Y0074617D03*
X0374417Y0063217D03*
X0374617Y0063217D03*
X0374817Y0063217D03*
X0375017Y0063217D03*
X0375217Y0063217D03*
X0375417Y0063217D03*
X0375617Y0063217D03*
X0375817Y0063217D03*
X0380017Y0049017D03*
X0332017Y0054817D03*
X0331217Y0037617D03*
D44*
X0365417Y0035917D03*
X0379817Y0049117D03*
X0376617Y0063317D03*
X0376417Y0063317D03*
X0376217Y0063317D03*
X0376017Y0063317D03*
X0376817Y0063517D03*
X0377017Y0063517D03*
X0377217Y0063517D03*
X0377417Y0063517D03*
X0344417Y0081117D03*
X0304217Y0084517D03*
X0301017Y0109717D03*
X0276217Y0122517D03*
X0276017Y0122317D03*
X0275617Y0122117D03*
X0312817Y0139717D03*
X0316217Y0129317D03*
X0316417Y0128317D03*
X0316617Y0127917D03*
X0348017Y0127917D03*
X0330017Y0156717D03*
X0376617Y0158517D03*
X0376817Y0158517D03*
X0377017Y0158517D03*
X0377217Y0158517D03*
X0377617Y0158317D03*
X0377817Y0158317D03*
X0378017Y0158317D03*
X0378217Y0158317D03*
X0378417Y0158317D03*
X0278617Y0167317D03*
X0278417Y0167317D03*
X0278217Y0167517D03*
X0277817Y0148717D03*
X0277617Y0148717D03*
X0277417Y0148717D03*
D45*
X0278017Y0148617D03*
X0278217Y0148617D03*
X0313017Y0139417D03*
X0276417Y0122617D03*
X0316817Y0114817D03*
X0319017Y0117417D03*
X0347417Y0093617D03*
X0304417Y0084617D03*
X0303017Y0083017D03*
X0345417Y0071017D03*
X0345617Y0071017D03*
X0377617Y0063617D03*
X0377817Y0063617D03*
X0378017Y0063617D03*
X0378217Y0063617D03*
X0378417Y0063617D03*
X0379217Y0049617D03*
X0379417Y0049417D03*
X0379617Y0049217D03*
X0332217Y0055017D03*
X0377417Y0158417D03*
X0378617Y0158217D03*
X0378817Y0158217D03*
X0279817Y0166617D03*
X0279417Y0166817D03*
X0279217Y0167017D03*
X0278817Y0167217D03*
X0278017Y0167617D03*
X0277817Y0167817D03*
X0277617Y0167817D03*
D46*
X0279017Y0167117D03*
X0279617Y0166717D03*
X0288817Y0160317D03*
X0289617Y0159917D03*
X0280817Y0148117D03*
X0280617Y0148117D03*
X0280017Y0148317D03*
X0279817Y0148317D03*
X0279417Y0148517D03*
X0279217Y0148517D03*
X0279017Y0148517D03*
X0278817Y0148517D03*
X0278617Y0148517D03*
X0278417Y0148517D03*
X0298017Y0138517D03*
X0313217Y0139117D03*
X0313417Y0138117D03*
X0313617Y0137717D03*
X0315617Y0130917D03*
X0315817Y0130717D03*
X0351817Y0138117D03*
X0329817Y0156717D03*
X0329617Y0156717D03*
X0379017Y0158117D03*
X0379217Y0158117D03*
X0379417Y0158117D03*
X0379617Y0158117D03*
X0379817Y0158117D03*
X0380017Y0158117D03*
X0276817Y0122917D03*
X0276617Y0122717D03*
X0347617Y0093317D03*
X0345217Y0071117D03*
X0378617Y0063717D03*
X0378817Y0063717D03*
X0379017Y0049717D03*
D47*
X0378817Y0049817D03*
X0379017Y0063817D03*
X0379217Y0063817D03*
X0379417Y0063817D03*
X0379617Y0063817D03*
X0379817Y0063817D03*
X0380017Y0063817D03*
X0380417Y0064017D03*
X0381217Y0064217D03*
X0381417Y0064217D03*
X0382017Y0064417D03*
X0345017Y0071217D03*
X0337617Y0074617D03*
X0344617Y0081017D03*
X0316617Y0115017D03*
X0277217Y0123217D03*
X0277017Y0123217D03*
X0314217Y0135617D03*
X0281017Y0148017D03*
X0280417Y0148217D03*
X0280217Y0148217D03*
X0279617Y0148417D03*
X0289217Y0160017D03*
X0289417Y0160017D03*
X0289017Y0160217D03*
X0288217Y0160817D03*
X0280017Y0166417D03*
X0380217Y0158017D03*
X0380417Y0158017D03*
X0380617Y0158017D03*
D48*
X0380817Y0157917D03*
X0381017Y0157917D03*
X0381217Y0157717D03*
X0381417Y0157717D03*
X0381617Y0157717D03*
X0382217Y0157517D03*
X0348417Y0129117D03*
X0348217Y0128717D03*
X0297617Y0129117D03*
X0277617Y0123517D03*
X0277417Y0123317D03*
X0300617Y0109917D03*
X0300817Y0109917D03*
X0347817Y0092717D03*
X0348017Y0092317D03*
X0344817Y0071317D03*
X0380217Y0063917D03*
X0380617Y0064117D03*
X0380817Y0064117D03*
X0381017Y0064117D03*
X0381617Y0064317D03*
X0381817Y0064317D03*
X0382217Y0064517D03*
X0382417Y0064517D03*
X0382617Y0064517D03*
X0378217Y0050317D03*
X0378417Y0050117D03*
X0378617Y0049917D03*
X0365217Y0036117D03*
X0331417Y0037717D03*
X0303217Y0082917D03*
X0304617Y0084517D03*
X0285017Y0146517D03*
X0284817Y0146517D03*
X0284617Y0146517D03*
X0284217Y0146717D03*
X0284017Y0146917D03*
X0283817Y0146917D03*
X0283217Y0147117D03*
X0282217Y0147517D03*
X0282017Y0147517D03*
X0281817Y0147717D03*
X0281617Y0147717D03*
X0281417Y0147917D03*
X0281217Y0147917D03*
X0289817Y0159717D03*
X0290217Y0159517D03*
X0290417Y0159317D03*
X0288617Y0160517D03*
X0288417Y0160717D03*
X0288017Y0160917D03*
X0287817Y0161117D03*
X0287617Y0161117D03*
X0287417Y0161317D03*
X0280217Y0166117D03*
D49*
X0280417Y0166017D03*
X0280617Y0165817D03*
X0280817Y0165617D03*
X0281017Y0165617D03*
X0286217Y0162017D03*
X0286417Y0161817D03*
X0286817Y0161617D03*
X0287017Y0161417D03*
X0287217Y0161417D03*
X0290017Y0159617D03*
X0283617Y0147017D03*
X0283417Y0147017D03*
X0283017Y0147217D03*
X0282817Y0147417D03*
X0282617Y0147417D03*
X0282417Y0147417D03*
X0284417Y0146617D03*
X0285217Y0146417D03*
X0285417Y0146417D03*
X0285617Y0146217D03*
X0313817Y0137017D03*
X0278017Y0123817D03*
X0277817Y0123617D03*
X0300417Y0110217D03*
X0304817Y0084417D03*
X0344617Y0071417D03*
X0382817Y0064617D03*
X0383017Y0064617D03*
X0377217Y0051017D03*
X0377817Y0050617D03*
X0378017Y0050417D03*
X0331617Y0037817D03*
X0329417Y0156617D03*
X0381817Y0157617D03*
X0382017Y0157617D03*
X0382417Y0157417D03*
X0382617Y0157417D03*
X0382817Y0157417D03*
X0383017Y0157417D03*
D50*
X0384217Y0157017D03*
X0384417Y0156817D03*
X0384617Y0156817D03*
X0385417Y0156617D03*
X0348817Y0130017D03*
X0298217Y0138417D03*
X0286417Y0145817D03*
X0286217Y0145817D03*
X0290817Y0159017D03*
X0285817Y0162217D03*
X0285217Y0162617D03*
X0285017Y0162617D03*
X0284817Y0162817D03*
X0284617Y0163017D03*
X0284417Y0163017D03*
X0284217Y0163217D03*
X0284017Y0163217D03*
X0283817Y0163417D03*
X0283617Y0163417D03*
X0283417Y0163617D03*
X0283017Y0164017D03*
X0282817Y0164017D03*
X0282617Y0164217D03*
X0282417Y0164417D03*
X0281817Y0164817D03*
X0281417Y0165217D03*
X0326617Y0155417D03*
X0327017Y0155617D03*
X0327217Y0155617D03*
X0327417Y0155817D03*
X0327617Y0155817D03*
X0328017Y0156017D03*
X0328217Y0156217D03*
X0328417Y0156217D03*
X0328617Y0156217D03*
X0297417Y0129417D03*
X0278617Y0124417D03*
X0278217Y0124017D03*
X0298017Y0112817D03*
X0300217Y0110417D03*
X0358417Y0095817D03*
X0344817Y0081017D03*
X0344417Y0071617D03*
X0344217Y0071617D03*
X0344017Y0071617D03*
X0372017Y0055617D03*
X0372217Y0055617D03*
X0372617Y0055217D03*
X0372817Y0055217D03*
X0373017Y0054817D03*
X0373217Y0054817D03*
X0374217Y0053817D03*
X0374817Y0053017D03*
X0375017Y0053017D03*
X0375617Y0052417D03*
X0375817Y0052217D03*
X0376017Y0052017D03*
X0376217Y0051817D03*
X0376417Y0051617D03*
X0376617Y0051617D03*
X0377017Y0051217D03*
X0383817Y0064817D03*
X0384417Y0065017D03*
X0384617Y0065217D03*
X0384817Y0065217D03*
X0385017Y0065217D03*
X0385217Y0065217D03*
X0385417Y0065217D03*
D51*
X0384217Y0064917D03*
X0384017Y0064917D03*
X0383617Y0064717D03*
X0383417Y0064717D03*
X0383217Y0064717D03*
X0376817Y0051317D03*
X0377417Y0050917D03*
X0377617Y0050717D03*
X0365017Y0036317D03*
X0305017Y0084517D03*
X0303417Y0082917D03*
X0298217Y0112517D03*
X0316417Y0115117D03*
X0348617Y0129717D03*
X0315417Y0131517D03*
X0314017Y0136517D03*
X0286017Y0146117D03*
X0285817Y0146117D03*
X0290617Y0159117D03*
X0286617Y0161717D03*
X0286017Y0162117D03*
X0285617Y0162317D03*
X0285417Y0162517D03*
X0283217Y0163917D03*
X0282217Y0164517D03*
X0282017Y0164717D03*
X0281617Y0164917D03*
X0281217Y0165317D03*
X0328817Y0156317D03*
X0329017Y0156517D03*
X0329217Y0156517D03*
X0383217Y0157317D03*
X0383417Y0157317D03*
X0383617Y0157117D03*
X0383817Y0157117D03*
X0384017Y0157117D03*
X0425217Y0111117D03*
X0278417Y0124317D03*
D52*
X0278817Y0124717D03*
X0279217Y0124917D03*
X0298417Y0112117D03*
X0299417Y0111117D03*
X0300017Y0110517D03*
X0318817Y0117717D03*
X0315217Y0131717D03*
X0325017Y0154717D03*
X0325217Y0154717D03*
X0325417Y0154717D03*
X0325617Y0154917D03*
X0325817Y0154917D03*
X0326017Y0155117D03*
X0326417Y0155317D03*
X0326817Y0155517D03*
X0327817Y0155917D03*
X0291017Y0158917D03*
X0384817Y0156717D03*
X0385017Y0156717D03*
X0385217Y0156717D03*
X0385617Y0156517D03*
X0386217Y0156317D03*
X0386417Y0156317D03*
X0345017Y0080917D03*
X0337417Y0074717D03*
X0371817Y0055717D03*
X0372417Y0055517D03*
X0373417Y0054717D03*
X0373617Y0054317D03*
X0373817Y0054317D03*
X0374017Y0053917D03*
X0374417Y0053517D03*
X0374617Y0053317D03*
X0375217Y0052917D03*
X0375417Y0052517D03*
X0385617Y0065317D03*
X0385817Y0065517D03*
X0386017Y0065517D03*
X0386417Y0065717D03*
D53*
X0386217Y0065617D03*
X0386617Y0065817D03*
X0386817Y0065817D03*
X0387017Y0065817D03*
X0387217Y0065817D03*
X0371617Y0056017D03*
X0371217Y0056217D03*
X0305217Y0084417D03*
X0299617Y0111017D03*
X0299217Y0111217D03*
X0299017Y0111617D03*
X0298817Y0111617D03*
X0298617Y0112017D03*
X0279817Y0125617D03*
X0279617Y0125417D03*
X0279417Y0125217D03*
X0279017Y0124817D03*
X0286617Y0145617D03*
X0286817Y0145617D03*
X0322617Y0153817D03*
X0322817Y0153817D03*
X0323017Y0153817D03*
X0323217Y0154017D03*
X0323417Y0154017D03*
X0323617Y0154217D03*
X0323817Y0154217D03*
X0324017Y0154217D03*
X0324217Y0154417D03*
X0324417Y0154417D03*
X0324617Y0154617D03*
X0324817Y0154617D03*
X0326217Y0155217D03*
X0349017Y0131017D03*
X0385817Y0156417D03*
X0386017Y0156417D03*
X0386617Y0156217D03*
X0387017Y0156017D03*
X0387217Y0156017D03*
D54*
X0387417Y0155917D03*
X0387617Y0155917D03*
X0388017Y0155717D03*
X0386817Y0156117D03*
X0322417Y0153717D03*
X0322217Y0153517D03*
X0322017Y0153517D03*
X0321817Y0153317D03*
X0321617Y0153317D03*
X0321417Y0153317D03*
X0280017Y0125717D03*
X0299817Y0110717D03*
X0305417Y0084517D03*
X0337217Y0074717D03*
X0343817Y0071717D03*
X0345217Y0080917D03*
X0387417Y0065917D03*
X0387617Y0066117D03*
X0388017Y0066317D03*
X0388217Y0066317D03*
X0371417Y0056117D03*
X0371017Y0056517D03*
X0331817Y0037917D03*
X0364817Y0036717D03*
D55*
X0364617Y0036817D03*
X0332017Y0038017D03*
X0370817Y0056617D03*
X0387817Y0066217D03*
X0388417Y0066417D03*
X0388617Y0066417D03*
X0389017Y0066617D03*
X0343617Y0071817D03*
X0280217Y0126217D03*
X0297217Y0129817D03*
X0321217Y0153217D03*
X0291217Y0158617D03*
X0349217Y0131217D03*
X0349417Y0131617D03*
X0387817Y0155817D03*
X0388217Y0155617D03*
X0388417Y0155417D03*
X0388617Y0155417D03*
D56*
X0388817Y0155317D03*
X0389017Y0155317D03*
X0389217Y0155317D03*
X0389417Y0155117D03*
X0389817Y0154917D03*
X0321017Y0153117D03*
X0287017Y0145317D03*
X0283017Y0129517D03*
X0282617Y0129117D03*
X0282217Y0128717D03*
X0281817Y0128117D03*
X0280817Y0126917D03*
X0280617Y0126717D03*
X0280417Y0126317D03*
X0296217Y0116717D03*
X0336817Y0074717D03*
X0337017Y0074717D03*
X0370417Y0057117D03*
X0370617Y0056917D03*
X0388817Y0066517D03*
X0389217Y0066717D03*
X0389617Y0066917D03*
X0390017Y0067117D03*
D57*
X0391017Y0067517D03*
X0391217Y0067717D03*
X0391417Y0067717D03*
X0345617Y0080917D03*
X0343417Y0072117D03*
X0306017Y0084517D03*
X0305817Y0084517D03*
X0297817Y0114117D03*
X0297217Y0115317D03*
X0296617Y0116117D03*
X0281617Y0127917D03*
X0281017Y0127117D03*
X0283217Y0129717D03*
X0283617Y0129917D03*
X0283817Y0130117D03*
X0316217Y0115717D03*
X0349617Y0132517D03*
X0349817Y0132917D03*
X0351617Y0137917D03*
X0320817Y0152717D03*
X0390217Y0154717D03*
X0390417Y0154717D03*
X0390617Y0154717D03*
X0390817Y0154517D03*
X0391017Y0154517D03*
X0391217Y0154317D03*
X0391417Y0154117D03*
X0364217Y0037317D03*
D58*
X0364417Y0037017D03*
X0332217Y0038217D03*
X0389417Y0066817D03*
X0389817Y0067017D03*
X0390217Y0067217D03*
X0390417Y0067217D03*
X0390617Y0067217D03*
X0390817Y0067417D03*
X0345417Y0080817D03*
X0358217Y0095417D03*
X0305617Y0084417D03*
X0296417Y0116617D03*
X0296017Y0117017D03*
X0281417Y0127617D03*
X0281217Y0127417D03*
X0282017Y0128417D03*
X0282417Y0128817D03*
X0282817Y0129217D03*
X0283417Y0129817D03*
X0297017Y0130017D03*
X0389617Y0155017D03*
X0390017Y0154817D03*
D59*
X0391617Y0154017D03*
X0316017Y0115817D03*
X0297617Y0114417D03*
X0297417Y0114817D03*
X0296817Y0116017D03*
X0296817Y0130417D03*
X0284217Y0130217D03*
X0284017Y0130217D03*
X0306217Y0084617D03*
X0343217Y0072217D03*
X0345817Y0081017D03*
X0370017Y0057617D03*
X0370217Y0057417D03*
X0364017Y0037417D03*
X0332417Y0038217D03*
D60*
X0369417Y0058117D03*
X0369617Y0057917D03*
X0369817Y0057917D03*
X0365217Y0062717D03*
X0365017Y0062917D03*
X0364617Y0063317D03*
X0391617Y0067917D03*
X0391817Y0067917D03*
X0392017Y0067917D03*
X0392217Y0068117D03*
X0392617Y0068317D03*
X0336617Y0074717D03*
X0306417Y0084517D03*
X0297017Y0115517D03*
X0285417Y0131117D03*
X0285017Y0130917D03*
X0284817Y0130717D03*
X0284617Y0130517D03*
X0284417Y0130517D03*
X0320617Y0152517D03*
X0391817Y0153917D03*
X0392017Y0153917D03*
X0392217Y0153917D03*
X0392417Y0153717D03*
X0392617Y0153517D03*
X0392817Y0153517D03*
D61*
X0393017Y0153417D03*
X0393217Y0153217D03*
X0393417Y0153217D03*
X0393617Y0153017D03*
X0393817Y0153017D03*
X0315017Y0132617D03*
X0298417Y0137817D03*
X0296617Y0130617D03*
X0286017Y0131617D03*
X0285617Y0131417D03*
X0285217Y0131017D03*
X0304217Y0153217D03*
X0304417Y0153217D03*
X0304617Y0153217D03*
X0304817Y0153217D03*
X0305017Y0153217D03*
X0305217Y0153217D03*
X0305417Y0153217D03*
X0305617Y0153217D03*
X0305817Y0153217D03*
X0306017Y0153217D03*
X0306217Y0153217D03*
X0306417Y0153217D03*
X0306617Y0153217D03*
X0306817Y0153217D03*
X0307017Y0153217D03*
X0307217Y0153217D03*
X0392417Y0068217D03*
X0392817Y0068417D03*
X0393417Y0068817D03*
X0369217Y0058417D03*
X0365817Y0062017D03*
X0365417Y0062417D03*
X0364817Y0063217D03*
X0364417Y0063617D03*
X0363817Y0037617D03*
X0332617Y0038217D03*
D62*
X0363617Y0037917D03*
X0369017Y0058517D03*
X0368817Y0058917D03*
X0368617Y0059117D03*
X0368417Y0059317D03*
X0368217Y0059517D03*
X0366417Y0061317D03*
X0366217Y0061517D03*
X0365617Y0062317D03*
X0364217Y0064117D03*
X0343017Y0072517D03*
X0346017Y0080917D03*
X0306617Y0084517D03*
X0315817Y0115917D03*
X0295417Y0118717D03*
X0295217Y0118917D03*
X0285817Y0131517D03*
X0286217Y0131917D03*
X0286417Y0132117D03*
X0286617Y0132517D03*
X0314817Y0132717D03*
X0351417Y0137517D03*
X0308217Y0153117D03*
X0308017Y0153117D03*
X0307817Y0153117D03*
X0307617Y0153117D03*
X0307417Y0153117D03*
X0304017Y0153117D03*
X0303817Y0153117D03*
X0303617Y0153117D03*
X0394017Y0152917D03*
X0394217Y0069117D03*
X0393617Y0068917D03*
X0393217Y0068717D03*
X0393017Y0068517D03*
D63*
X0393817Y0069017D03*
X0394017Y0069017D03*
X0394417Y0069417D03*
X0394617Y0069417D03*
X0394817Y0069617D03*
X0367617Y0060017D03*
X0367417Y0060417D03*
X0367217Y0060417D03*
X0367017Y0060817D03*
X0366817Y0061017D03*
X0366617Y0061217D03*
X0366017Y0061817D03*
X0342817Y0072617D03*
X0336417Y0074817D03*
X0346217Y0080817D03*
X0307017Y0084417D03*
X0306817Y0084417D03*
X0295817Y0118217D03*
X0295617Y0118417D03*
X0286817Y0132817D03*
X0298617Y0137817D03*
X0320417Y0152017D03*
X0303417Y0153017D03*
X0303217Y0153017D03*
X0303017Y0153017D03*
X0302817Y0153017D03*
X0302617Y0153017D03*
X0302417Y0153017D03*
X0350017Y0133817D03*
X0394217Y0152817D03*
X0394417Y0152617D03*
X0394617Y0152417D03*
X0363417Y0038217D03*
X0333017Y0038617D03*
D64*
X0333217Y0038817D03*
X0333817Y0039417D03*
X0363217Y0038417D03*
X0363817Y0064817D03*
X0342617Y0073017D03*
X0307417Y0084417D03*
X0395617Y0070017D03*
X0395817Y0070217D03*
X0396017Y0070217D03*
X0287017Y0133217D03*
X0320217Y0151817D03*
X0309017Y0153017D03*
X0308817Y0153017D03*
X0302017Y0152817D03*
X0351217Y0137417D03*
X0395017Y0152217D03*
X0395417Y0152017D03*
X0396017Y0151617D03*
D65*
X0410417Y0136017D03*
X0410417Y0085817D03*
X0410217Y0085617D03*
X0346217Y0063217D03*
X0341217Y0055817D03*
X0287217Y0139017D03*
D66*
X0287417Y0139217D03*
X0301617Y0135217D03*
X0301817Y0135217D03*
X0346617Y0063217D03*
D67*
X0382417Y0048017D03*
X0287417Y0126017D03*
X0317017Y0129817D03*
D68*
X0312817Y0120317D03*
X0287817Y0139117D03*
X0287617Y0139117D03*
X0410017Y0085117D03*
X0341417Y0055917D03*
D69*
X0341617Y0056017D03*
X0346817Y0063417D03*
X0361417Y0071217D03*
X0301417Y0135217D03*
X0288017Y0139217D03*
X0410017Y0136817D03*
D70*
X0411617Y0088817D03*
X0302817Y0133817D03*
X0288217Y0137017D03*
D71*
X0288417Y0136817D03*
X0411817Y0089217D03*
D72*
X0358817Y0073117D03*
X0358617Y0073117D03*
X0288617Y0136517D03*
D73*
X0288817Y0136317D03*
X0289017Y0136317D03*
X0303217Y0133517D03*
X0311017Y0123117D03*
D74*
X0289217Y0136117D03*
X0358217Y0073517D03*
D75*
X0289417Y0136017D03*
D76*
X0289617Y0135917D03*
X0412017Y0131717D03*
X0423617Y0110917D03*
X0412017Y0090117D03*
D77*
X0412217Y0090517D03*
X0289817Y0135717D03*
D78*
X0290017Y0135617D03*
X0303617Y0132817D03*
X0310617Y0123817D03*
X0412217Y0131217D03*
D79*
X0290217Y0135417D03*
D80*
X0290417Y0135317D03*
X0337817Y0055117D03*
D81*
X0412417Y0130217D03*
X0290817Y0135217D03*
X0290617Y0135217D03*
D82*
X0291017Y0141017D03*
X0296817Y0150817D03*
X0343817Y0057417D03*
D83*
X0342417Y0073117D03*
X0341817Y0073117D03*
X0335217Y0075717D03*
X0346417Y0080917D03*
X0307617Y0084517D03*
X0396217Y0070317D03*
X0396417Y0070517D03*
X0396617Y0070717D03*
X0397017Y0070917D03*
X0397217Y0071117D03*
X0334217Y0039917D03*
X0334017Y0039517D03*
X0333617Y0039317D03*
X0291017Y0125717D03*
X0314617Y0132917D03*
X0320017Y0151717D03*
X0309417Y0152917D03*
X0309217Y0152917D03*
X0396217Y0151517D03*
D84*
X0304617Y0131117D03*
X0291217Y0135317D03*
D85*
X0291417Y0141217D03*
D86*
X0291617Y0147917D03*
X0304217Y0131717D03*
X0310017Y0125117D03*
X0412417Y0091917D03*
D87*
X0400817Y0074017D03*
X0400417Y0073617D03*
X0400217Y0073417D03*
X0363017Y0066417D03*
X0335417Y0074617D03*
X0333217Y0075817D03*
X0333017Y0075817D03*
X0321417Y0080017D03*
X0318817Y0080417D03*
X0315617Y0082017D03*
X0315417Y0082217D03*
X0314417Y0082617D03*
X0314217Y0082617D03*
X0314017Y0082817D03*
X0313817Y0082817D03*
X0313217Y0083217D03*
X0313017Y0083217D03*
X0312817Y0083217D03*
X0312417Y0083417D03*
X0312217Y0083417D03*
X0291617Y0125417D03*
X0319017Y0150417D03*
X0312017Y0152217D03*
X0299617Y0152217D03*
X0299417Y0152217D03*
X0400417Y0148417D03*
X0400617Y0148217D03*
X0400817Y0148017D03*
X0362417Y0040217D03*
D88*
X0291817Y0140717D03*
D89*
X0292017Y0140217D03*
D90*
X0292217Y0140117D03*
D91*
X0292417Y0139717D03*
X0351417Y0074517D03*
D92*
X0420017Y0110817D03*
X0292817Y0139417D03*
X0292617Y0139617D03*
D93*
X0293017Y0139117D03*
D94*
X0293217Y0139017D03*
X0419817Y0111017D03*
X0351617Y0074617D03*
D95*
X0293617Y0138717D03*
X0293417Y0138717D03*
D96*
X0293817Y0138417D03*
D97*
X0294017Y0138317D03*
X0294217Y0138117D03*
X0294617Y0137917D03*
D98*
X0294417Y0138017D03*
X0295017Y0137617D03*
X0351817Y0074617D03*
D99*
X0352017Y0074717D03*
X0294817Y0137717D03*
D100*
X0295217Y0142917D03*
D101*
X0295417Y0142917D03*
X0422217Y0110917D03*
D102*
X0295617Y0143017D03*
D103*
X0295817Y0142917D03*
X0307217Y0129117D03*
D104*
X0306617Y0129517D03*
X0296417Y0142917D03*
X0296217Y0142917D03*
X0296017Y0142917D03*
D105*
X0296617Y0150717D03*
X0300217Y0135517D03*
X0408417Y0082517D03*
X0343417Y0057117D03*
D106*
X0344217Y0057817D03*
X0407217Y0080617D03*
X0407217Y0141217D03*
X0315417Y0149217D03*
X0297017Y0150817D03*
D107*
X0297217Y0150917D03*
X0315617Y0149117D03*
X0315817Y0149117D03*
X0407017Y0141517D03*
X0407017Y0080517D03*
X0344417Y0057917D03*
D108*
X0405617Y0078617D03*
X0406017Y0079017D03*
X0314217Y0118217D03*
X0316417Y0149017D03*
X0316617Y0149017D03*
X0316817Y0149017D03*
X0297417Y0151417D03*
X0405617Y0143217D03*
X0405817Y0143017D03*
X0406017Y0142817D03*
D109*
X0297617Y0151417D03*
X0315817Y0080417D03*
X0335417Y0059017D03*
X0336417Y0059817D03*
X0345217Y0058817D03*
X0405217Y0078217D03*
X0405417Y0078417D03*
D110*
X0362217Y0068117D03*
X0345417Y0059117D03*
X0337217Y0059917D03*
X0337017Y0059917D03*
X0336817Y0059917D03*
X0336617Y0059917D03*
X0336017Y0059317D03*
X0335617Y0059117D03*
X0335217Y0058917D03*
X0335017Y0058917D03*
X0334817Y0058717D03*
X0334617Y0058717D03*
X0334417Y0058717D03*
X0360017Y0044317D03*
X0360417Y0043717D03*
X0331217Y0111117D03*
X0331017Y0111117D03*
X0330817Y0111117D03*
X0405217Y0143717D03*
X0405417Y0143517D03*
X0317217Y0149117D03*
X0317017Y0149117D03*
X0297817Y0151517D03*
D111*
X0298017Y0151417D03*
X0313817Y0151017D03*
X0317417Y0149217D03*
X0299617Y0136817D03*
X0314617Y0117617D03*
X0330017Y0111217D03*
X0331817Y0111217D03*
X0332017Y0111217D03*
X0404417Y0144617D03*
X0357817Y0049017D03*
X0358217Y0047817D03*
X0358617Y0046817D03*
X0361417Y0042217D03*
X0361617Y0042017D03*
D112*
X0361817Y0041617D03*
X0362017Y0041417D03*
X0333217Y0058417D03*
X0403617Y0076417D03*
X0404217Y0077017D03*
X0424817Y0111017D03*
X0404217Y0145017D03*
X0403817Y0145217D03*
X0298217Y0151617D03*
D113*
X0298417Y0151817D03*
X0313017Y0151617D03*
X0313217Y0151617D03*
X0403017Y0146017D03*
X0403417Y0145617D03*
X0403017Y0075817D03*
X0362617Y0067217D03*
X0333017Y0058217D03*
X0332817Y0058217D03*
X0332617Y0058217D03*
D114*
X0332417Y0058317D03*
X0331417Y0076517D03*
X0331217Y0076717D03*
X0331017Y0076717D03*
X0402617Y0075517D03*
X0299217Y0137117D03*
X0318017Y0149717D03*
X0312817Y0151717D03*
X0298617Y0151917D03*
X0402817Y0146317D03*
D115*
X0402617Y0146417D03*
X0402417Y0146617D03*
X0402217Y0146817D03*
X0402017Y0147017D03*
X0401817Y0147217D03*
X0318217Y0149817D03*
X0298817Y0152017D03*
X0315017Y0117217D03*
X0326617Y0078217D03*
X0328417Y0077417D03*
X0328617Y0077417D03*
X0330617Y0076617D03*
X0330817Y0076617D03*
X0331617Y0076417D03*
X0402417Y0075217D03*
X0402817Y0075617D03*
D116*
X0397417Y0071217D03*
X0396817Y0070817D03*
X0363617Y0065017D03*
X0342217Y0073217D03*
X0342017Y0073217D03*
X0341617Y0073217D03*
X0335017Y0075817D03*
X0346617Y0080817D03*
X0308217Y0084417D03*
X0308017Y0084417D03*
X0307817Y0084417D03*
X0315617Y0116217D03*
X0298817Y0137817D03*
X0301417Y0152817D03*
X0301617Y0152817D03*
X0301817Y0152817D03*
X0309617Y0152817D03*
X0309817Y0152817D03*
X0310017Y0152817D03*
X0351017Y0137017D03*
X0396417Y0151417D03*
X0396617Y0151217D03*
X0396817Y0151017D03*
X0334417Y0040217D03*
X0363017Y0038817D03*
D117*
X0362217Y0040717D03*
X0341017Y0074317D03*
X0340817Y0074317D03*
X0332017Y0076117D03*
X0330417Y0076717D03*
X0330217Y0076717D03*
X0329817Y0076917D03*
X0329217Y0077117D03*
X0329017Y0077317D03*
X0328817Y0077317D03*
X0328217Y0077517D03*
X0328017Y0077717D03*
X0327817Y0077717D03*
X0327617Y0077917D03*
X0327417Y0077917D03*
X0327217Y0077917D03*
X0327017Y0077917D03*
X0326817Y0078117D03*
X0326417Y0078317D03*
X0326217Y0078317D03*
X0326017Y0078317D03*
X0325817Y0078517D03*
X0325617Y0078517D03*
X0325417Y0078717D03*
X0325217Y0078717D03*
X0325017Y0078717D03*
X0324817Y0078717D03*
X0324217Y0079117D03*
X0324017Y0079317D03*
X0323817Y0079317D03*
X0323617Y0079317D03*
X0323417Y0079517D03*
X0323217Y0079517D03*
X0323017Y0079717D03*
X0322817Y0079717D03*
X0329817Y0111317D03*
X0401817Y0074717D03*
X0402017Y0074917D03*
X0402217Y0075117D03*
X0401617Y0147317D03*
X0318417Y0149917D03*
X0312617Y0151917D03*
X0299017Y0152117D03*
D118*
X0300017Y0152317D03*
X0311017Y0152517D03*
X0311217Y0152517D03*
X0319217Y0150717D03*
X0319417Y0150917D03*
X0299017Y0137517D03*
X0350617Y0136317D03*
X0399617Y0149117D03*
X0399817Y0148917D03*
X0310417Y0084117D03*
X0310217Y0084117D03*
X0310017Y0084117D03*
X0309817Y0084117D03*
X0333617Y0075717D03*
X0335617Y0074717D03*
X0347217Y0080717D03*
X0363217Y0065917D03*
X0399217Y0072517D03*
X0399417Y0072717D03*
X0399817Y0073117D03*
D119*
X0401017Y0074117D03*
X0401217Y0074317D03*
X0332817Y0075917D03*
X0332617Y0075917D03*
X0332417Y0075917D03*
X0322217Y0079917D03*
X0322017Y0079917D03*
X0321817Y0079917D03*
X0321617Y0079917D03*
X0401017Y0147917D03*
X0401217Y0147717D03*
X0401417Y0147517D03*
X0312217Y0152117D03*
X0299217Y0152117D03*
D120*
X0317817Y0149517D03*
X0299417Y0136917D03*
X0314817Y0117517D03*
X0332217Y0111117D03*
X0403217Y0145917D03*
X0403617Y0145517D03*
X0403417Y0076317D03*
X0403217Y0075917D03*
D121*
X0342617Y0117817D03*
X0299617Y0125417D03*
D122*
X0315217Y0116717D03*
X0311017Y0083917D03*
X0311217Y0083717D03*
X0311417Y0083717D03*
X0311617Y0083717D03*
X0311817Y0083717D03*
X0312017Y0083517D03*
X0312617Y0083317D03*
X0313417Y0082917D03*
X0313617Y0082917D03*
X0314617Y0082517D03*
X0314817Y0082517D03*
X0315017Y0082317D03*
X0315217Y0082317D03*
X0319017Y0080517D03*
X0320217Y0080317D03*
X0320617Y0080117D03*
X0320817Y0080117D03*
X0321017Y0080117D03*
X0321217Y0080117D03*
X0400617Y0073717D03*
X0335817Y0043317D03*
X0335017Y0042117D03*
X0400217Y0148517D03*
X0311817Y0152317D03*
X0311617Y0152317D03*
X0299817Y0152317D03*
D123*
X0299817Y0136517D03*
X0314417Y0118117D03*
X0316017Y0080317D03*
X0345017Y0058717D03*
X0405817Y0078917D03*
D124*
X0406417Y0079517D03*
X0406617Y0079917D03*
X0344617Y0058117D03*
X0300017Y0136317D03*
X0314817Y0149717D03*
X0406617Y0141917D03*
D125*
X0399417Y0149217D03*
X0399217Y0149417D03*
X0399017Y0149617D03*
X0398817Y0149817D03*
X0315417Y0116617D03*
X0309617Y0084217D03*
X0309417Y0084217D03*
X0333817Y0075817D03*
X0334017Y0075817D03*
X0347017Y0080817D03*
X0398817Y0072217D03*
X0399017Y0072417D03*
X0336617Y0044617D03*
X0336417Y0044417D03*
X0336217Y0044017D03*
X0336017Y0043817D03*
X0334817Y0041417D03*
X0310817Y0152617D03*
X0300417Y0152417D03*
X0300217Y0152417D03*
D126*
X0300417Y0135417D03*
X0408417Y0139417D03*
X0408617Y0139217D03*
X0408617Y0082817D03*
X0343217Y0057017D03*
D127*
X0336817Y0044817D03*
X0398017Y0071617D03*
X0398417Y0072017D03*
X0336017Y0074617D03*
X0334617Y0075617D03*
X0334417Y0075617D03*
X0308617Y0084417D03*
X0308417Y0084417D03*
X0314417Y0133217D03*
X0350417Y0135817D03*
X0350817Y0136817D03*
X0319817Y0151217D03*
X0319617Y0151217D03*
X0310417Y0152617D03*
X0300817Y0152617D03*
X0300617Y0152617D03*
X0397817Y0150417D03*
D128*
X0409217Y0138417D03*
X0313617Y0120017D03*
X0300617Y0135417D03*
X0361617Y0070617D03*
D129*
X0342617Y0056517D03*
X0342417Y0056517D03*
X0314017Y0120117D03*
X0313817Y0120117D03*
X0313417Y0120117D03*
X0300817Y0135317D03*
D130*
X0301017Y0152717D03*
X0301217Y0152717D03*
X0310217Y0152717D03*
X0397017Y0150917D03*
X0397217Y0150917D03*
X0397417Y0150717D03*
X0397617Y0150517D03*
X0334817Y0075717D03*
X0336217Y0074517D03*
X0397617Y0071317D03*
X0397817Y0071517D03*
X0362817Y0039117D03*
D131*
X0342017Y0056217D03*
X0313217Y0120017D03*
X0301217Y0135217D03*
X0301017Y0135217D03*
D132*
X0302017Y0135017D03*
X0312417Y0120817D03*
X0346017Y0063217D03*
X0341017Y0055817D03*
D133*
X0364017Y0064317D03*
X0367817Y0059917D03*
X0368017Y0059717D03*
X0395017Y0069717D03*
X0395217Y0069717D03*
X0395417Y0069917D03*
X0333417Y0038917D03*
X0332817Y0038517D03*
X0307217Y0084517D03*
X0350217Y0134317D03*
X0308617Y0153117D03*
X0308417Y0153117D03*
X0302217Y0152917D03*
X0394817Y0152317D03*
X0395217Y0152117D03*
X0395617Y0151917D03*
X0395817Y0151717D03*
D134*
X0410617Y0135417D03*
X0302217Y0134817D03*
X0410617Y0086417D03*
X0360817Y0072017D03*
X0345817Y0063017D03*
D135*
X0369417Y0065717D03*
X0312617Y0059517D03*
X0302217Y0082917D03*
X0352217Y0137917D03*
D136*
X0302417Y0134517D03*
X0424017Y0110917D03*
X0360417Y0072517D03*
D137*
X0371417Y0064417D03*
X0339217Y0078617D03*
X0343217Y0081617D03*
X0338417Y0074817D03*
X0331817Y0061817D03*
X0314817Y0059417D03*
X0314617Y0059417D03*
X0302417Y0083017D03*
X0347017Y0152417D03*
X0347617Y0152617D03*
X0347817Y0152817D03*
X0348217Y0153017D03*
X0348417Y0153217D03*
X0348817Y0153417D03*
X0349417Y0153617D03*
X0349617Y0153817D03*
X0331017Y0157017D03*
D138*
X0302617Y0134017D03*
D139*
X0303017Y0133717D03*
X0411817Y0132717D03*
D140*
X0310817Y0123617D03*
X0303417Y0133017D03*
D141*
X0303817Y0132417D03*
X0338617Y0056417D03*
X0338817Y0056417D03*
X0338417Y0055817D03*
D142*
X0332617Y0067317D03*
X0332417Y0067317D03*
X0330417Y0067317D03*
X0330217Y0067317D03*
X0330017Y0067317D03*
X0329817Y0067317D03*
X0329617Y0067317D03*
X0315417Y0073317D03*
X0304217Y0078517D03*
X0303817Y0078917D03*
X0369817Y0065517D03*
X0343017Y0118317D03*
X0330017Y0135517D03*
X0309417Y0145317D03*
X0308217Y0145917D03*
X0307817Y0146117D03*
D143*
X0304017Y0132117D03*
X0339017Y0056917D03*
X0337617Y0054717D03*
X0337417Y0054517D03*
D144*
X0423017Y0110917D03*
X0309617Y0125517D03*
X0304417Y0131317D03*
D145*
X0304817Y0130917D03*
D146*
X0305017Y0130717D03*
X0309217Y0126517D03*
X0412617Y0128517D03*
D147*
X0305217Y0130417D03*
D148*
X0305417Y0130417D03*
X0307417Y0128017D03*
X0307617Y0127817D03*
X0307817Y0127617D03*
X0308217Y0127217D03*
X0422617Y0111017D03*
D149*
X0305817Y0130017D03*
X0305617Y0130017D03*
D150*
X0306017Y0129817D03*
X0348017Y0070617D03*
D151*
X0306217Y0129717D03*
D152*
X0306417Y0129617D03*
D153*
X0306817Y0129417D03*
X0307017Y0129217D03*
D154*
X0342217Y0103417D03*
X0306817Y0076617D03*
X0307617Y0076217D03*
X0309817Y0075417D03*
D155*
X0308617Y0126917D03*
X0308417Y0126917D03*
X0308017Y0127517D03*
D156*
X0308817Y0126717D03*
X0412617Y0093517D03*
D157*
X0398617Y0072117D03*
X0398217Y0071717D03*
X0363417Y0065717D03*
X0341417Y0073517D03*
X0335817Y0074717D03*
X0334217Y0075717D03*
X0346817Y0080917D03*
X0309217Y0084317D03*
X0309017Y0084317D03*
X0308817Y0084317D03*
X0337217Y0045317D03*
X0337017Y0045117D03*
X0334617Y0040917D03*
X0362617Y0039517D03*
X0398417Y0149917D03*
X0398617Y0149917D03*
X0398217Y0150117D03*
X0398017Y0150317D03*
X0310617Y0152717D03*
D158*
X0309017Y0126617D03*
X0422817Y0111017D03*
D159*
X0309417Y0126017D03*
D160*
X0309817Y0125317D03*
D161*
X0310217Y0124617D03*
X0338217Y0055617D03*
X0338017Y0055217D03*
D162*
X0310417Y0124317D03*
D163*
X0311417Y0152417D03*
X0400017Y0148817D03*
X0310817Y0084017D03*
X0310617Y0084017D03*
X0319217Y0080617D03*
X0319417Y0080617D03*
X0319617Y0080617D03*
X0319817Y0080617D03*
X0320017Y0080417D03*
X0320417Y0080217D03*
X0333417Y0075817D03*
X0347417Y0080817D03*
X0399617Y0072817D03*
X0400017Y0073217D03*
X0335617Y0043017D03*
X0335417Y0042817D03*
X0335217Y0042417D03*
D164*
X0311217Y0122817D03*
D165*
X0311417Y0122317D03*
D166*
X0311617Y0122117D03*
X0411617Y0133317D03*
X0423817Y0110917D03*
D167*
X0411417Y0088117D03*
X0359617Y0072917D03*
X0359417Y0072917D03*
X0311817Y0121917D03*
D168*
X0312017Y0121617D03*
X0360217Y0072617D03*
D169*
X0360617Y0072317D03*
X0312217Y0121317D03*
D170*
X0318617Y0150017D03*
X0318817Y0150217D03*
X0312417Y0152017D03*
X0425017Y0111017D03*
X0401617Y0074617D03*
X0401417Y0074417D03*
X0362817Y0066817D03*
X0341217Y0074217D03*
X0332217Y0076017D03*
X0331817Y0076217D03*
X0330017Y0076817D03*
X0329617Y0077017D03*
X0329417Y0077017D03*
X0324617Y0078817D03*
X0324417Y0079017D03*
X0322617Y0079817D03*
X0322417Y0079817D03*
D171*
X0361217Y0071717D03*
X0312617Y0120717D03*
D172*
X0313017Y0120117D03*
X0409817Y0137117D03*
X0409817Y0084717D03*
X0347017Y0063317D03*
X0341817Y0056117D03*
D173*
X0333417Y0058517D03*
X0358017Y0048517D03*
X0358417Y0047517D03*
X0362417Y0067717D03*
X0403817Y0076717D03*
X0404017Y0076917D03*
X0404017Y0145117D03*
X0317617Y0149317D03*
X0313617Y0151317D03*
X0313417Y0151317D03*
D174*
X0335817Y0143217D03*
X0337617Y0145017D03*
X0338617Y0146217D03*
X0338817Y0146217D03*
X0339017Y0146417D03*
X0339217Y0146617D03*
X0339417Y0146817D03*
X0339617Y0147017D03*
X0340017Y0147417D03*
X0343817Y0119417D03*
X0343217Y0102017D03*
X0370617Y0065017D03*
X0313417Y0059417D03*
D175*
X0333617Y0058517D03*
X0333817Y0058517D03*
X0334017Y0058517D03*
X0357617Y0049317D03*
X0358817Y0046517D03*
X0359017Y0045917D03*
X0359417Y0045117D03*
X0359617Y0044917D03*
X0361217Y0042717D03*
X0404417Y0077317D03*
X0404617Y0077517D03*
X0331617Y0111117D03*
X0330417Y0111117D03*
X0330217Y0111117D03*
X0404617Y0144317D03*
X0404817Y0144117D03*
X0314017Y0150917D03*
D176*
X0314217Y0150317D03*
X0316217Y0080117D03*
X0317017Y0079717D03*
X0317817Y0079317D03*
X0318017Y0079317D03*
X0344817Y0058317D03*
X0406217Y0079317D03*
D177*
X0318617Y0079017D03*
X0318417Y0079217D03*
X0318217Y0079217D03*
X0317617Y0079417D03*
X0317417Y0079417D03*
X0317217Y0079617D03*
X0316817Y0079817D03*
X0316617Y0079817D03*
X0316417Y0079817D03*
X0406417Y0142417D03*
X0406217Y0142617D03*
X0316217Y0149017D03*
X0314417Y0150217D03*
D178*
X0314617Y0149817D03*
X0316017Y0149017D03*
X0406817Y0141817D03*
X0406817Y0080017D03*
X0362017Y0069217D03*
D179*
X0344017Y0057717D03*
X0407617Y0140917D03*
X0407417Y0141117D03*
X0315217Y0149317D03*
X0315017Y0149317D03*
D180*
X0330617Y0111017D03*
X0331417Y0111017D03*
X0404817Y0077817D03*
X0405017Y0077817D03*
X0357417Y0049817D03*
X0359217Y0045617D03*
X0359817Y0044817D03*
X0360217Y0044017D03*
X0360617Y0043417D03*
X0360817Y0043017D03*
X0361017Y0043017D03*
X0345617Y0059217D03*
X0336217Y0059417D03*
X0335817Y0059217D03*
X0334217Y0058617D03*
X0405017Y0144017D03*
D181*
X0423217Y0111017D03*
X0339217Y0057817D03*
D182*
X0339417Y0061717D03*
D183*
X0339617Y0062017D03*
D184*
X0339817Y0062117D03*
D185*
X0340017Y0062217D03*
D186*
X0340217Y0062317D03*
X0340617Y0062717D03*
D187*
X0340417Y0062617D03*
D188*
X0340817Y0055717D03*
X0361017Y0071917D03*
D189*
X0347417Y0063517D03*
X0347217Y0063517D03*
X0342217Y0056317D03*
X0409617Y0084317D03*
D190*
X0343017Y0056817D03*
X0342817Y0056817D03*
X0408817Y0138817D03*
D191*
X0408217Y0139917D03*
X0408017Y0140117D03*
X0424617Y0111117D03*
X0408217Y0082117D03*
X0408017Y0081917D03*
X0343617Y0057317D03*
D192*
X0346417Y0063317D03*
X0424217Y0111117D03*
X0410217Y0136317D03*
D193*
X0422417Y0110917D03*
X0347817Y0070517D03*
X0347617Y0070317D03*
D194*
X0348217Y0074617D03*
D195*
X0348417Y0074417D03*
X0350417Y0073617D03*
D196*
X0348617Y0074217D03*
X0421017Y0111017D03*
D197*
X0348817Y0074117D03*
D198*
X0349017Y0073717D03*
D199*
X0349217Y0073517D03*
X0349417Y0073317D03*
X0421417Y0110917D03*
D200*
X0350017Y0072917D03*
X0349817Y0072917D03*
X0349617Y0073117D03*
D201*
X0350217Y0073017D03*
D202*
X0350617Y0073717D03*
D203*
X0350817Y0074217D03*
D204*
X0351017Y0074417D03*
X0420417Y0111017D03*
D205*
X0351217Y0074517D03*
D206*
X0352217Y0074717D03*
D207*
X0352417Y0074517D03*
D208*
X0352617Y0074517D03*
D209*
X0352817Y0074417D03*
D210*
X0353017Y0074317D03*
D211*
X0353217Y0074317D03*
D212*
X0353417Y0074217D03*
D213*
X0353617Y0074317D03*
X0418617Y0110917D03*
D214*
X0353817Y0074217D03*
D215*
X0354017Y0074117D03*
D216*
X0354217Y0074017D03*
D217*
X0354417Y0073817D03*
X0418017Y0111017D03*
X0418217Y0111017D03*
D218*
X0354617Y0073717D03*
D219*
X0354817Y0073617D03*
D220*
X0355017Y0073417D03*
X0417617Y0111017D03*
D221*
X0355217Y0073217D03*
D222*
X0355417Y0072917D03*
X0355617Y0072917D03*
X0417217Y0110917D03*
D223*
X0355817Y0072517D03*
D224*
X0356017Y0072417D03*
D225*
X0356217Y0072317D03*
D226*
X0356417Y0072117D03*
X0416817Y0110917D03*
D227*
X0356617Y0072017D03*
D228*
X0356817Y0071817D03*
D229*
X0357017Y0071717D03*
D230*
X0357217Y0071417D03*
X0416217Y0111017D03*
D231*
X0357417Y0079917D03*
D232*
X0357617Y0080017D03*
D233*
X0357817Y0079917D03*
D234*
X0358017Y0080017D03*
X0421217Y0111017D03*
D235*
X0358417Y0073417D03*
D236*
X0359017Y0073017D03*
X0359217Y0073017D03*
D237*
X0359817Y0072817D03*
X0411417Y0133817D03*
D238*
X0411217Y0134317D03*
X0411217Y0087717D03*
X0360017Y0072717D03*
D239*
X0361817Y0069617D03*
X0407417Y0080817D03*
X0407617Y0081217D03*
X0407817Y0140617D03*
D240*
X0407817Y0081317D03*
D241*
X0408817Y0083117D03*
X0409017Y0083317D03*
X0409217Y0083517D03*
X0409017Y0138717D03*
D242*
X0409417Y0137817D03*
X0409617Y0137617D03*
X0424417Y0111017D03*
X0409417Y0084017D03*
D243*
X0410817Y0135117D03*
D244*
X0411017Y0134817D03*
X0411017Y0087017D03*
X0410817Y0086817D03*
D245*
X0412817Y0110917D03*
D246*
X0413017Y0111017D03*
D247*
X0413217Y0111017D03*
D248*
X0413417Y0111017D03*
D249*
X0413617Y0110917D03*
D250*
X0413817Y0110917D03*
X0414017Y0110917D03*
D251*
X0414217Y0111017D03*
D252*
X0414417Y0110917D03*
D253*
X0414617Y0110917D03*
D254*
X0414817Y0111017D03*
D255*
X0415017Y0110917D03*
D256*
X0415217Y0111017D03*
D257*
X0415417Y0110917D03*
D258*
X0415617Y0111017D03*
D259*
X0415817Y0110917D03*
D260*
X0416017Y0110917D03*
D261*
X0416417Y0111017D03*
D262*
X0416617Y0110917D03*
D263*
X0417017Y0110917D03*
D264*
X0417417Y0110917D03*
D265*
X0417817Y0110917D03*
D266*
X0418417Y0111017D03*
D267*
X0418817Y0110917D03*
D268*
X0419017Y0110917D03*
D269*
X0419217Y0111017D03*
D270*
X0419417Y0111017D03*
D271*
X0419617Y0111017D03*
D272*
X0420217Y0111017D03*
D273*
X0420617Y0110917D03*
D274*
X0420817Y0110917D03*
D275*
X0421617Y0110917D03*
D276*
X0421817Y0110817D03*
D277*
X0422017Y0110917D03*
D278*
X0423417Y0110917D03*
D279*
X0188485Y0147405D02*
X0188118Y0147038D01*
X0187751Y0147038D01*
X0187384Y0147405D01*
X0187384Y0148139D01*
X0187017Y0148506D01*
X0186650Y0148506D01*
X0186283Y0148139D01*
X0186283Y0147405D01*
X0186650Y0147038D01*
X0188485Y0147405D02*
X0188485Y0148139D01*
X0188118Y0148506D01*
X0187751Y0149248D02*
X0188485Y0149982D01*
X0186283Y0149982D01*
X0186283Y0149248D02*
X0186283Y0150716D01*
D280*
X0080928Y0149969D02*
X0080928Y0153119D01*
X0063211Y0144851D02*
X0059668Y0144851D01*
X0059668Y0174772D01*
X0063211Y0174772D01*
X0080928Y0169654D02*
X0080928Y0166505D01*
M02*
