G75*
%MOIN*%
%OFA0B0*%
%FSLAX25Y25*%
%IPPOS*%
%LPD*%
%AMOC8*
5,1,8,0,0,1.08239X$1,22.5*
%
%ADD10C,0.00000*%
%ADD11C,0.07400*%
%ADD12C,0.12661*%
%ADD13C,0.05200*%
%ADD14R,0.03000X0.06000*%
%ADD15C,0.06000*%
%ADD16R,0.05906X0.02756*%
%ADD17R,0.02362X0.03937*%
%ADD18R,0.03150X0.03937*%
%ADD19R,0.09843X0.09843*%
%ADD20C,0.04756*%
%ADD21R,0.05315X0.01575*%
%ADD22R,0.07874X0.03937*%
%ADD23C,0.02400*%
%ADD24C,0.03562*%
%ADD25C,0.01600*%
%ADD26C,0.04724*%
%ADD27C,0.03600*%
%ADD28C,0.03200*%
%ADD29C,0.01200*%
D10*
X0059668Y0020048D02*
X0059668Y0185402D01*
X0059673Y0185783D01*
X0059686Y0186163D01*
X0059709Y0186543D01*
X0059742Y0186922D01*
X0059783Y0187300D01*
X0059833Y0187677D01*
X0059893Y0188053D01*
X0059961Y0188428D01*
X0060039Y0188800D01*
X0060126Y0189171D01*
X0060221Y0189539D01*
X0060326Y0189905D01*
X0060439Y0190268D01*
X0060561Y0190629D01*
X0060691Y0190986D01*
X0060831Y0191340D01*
X0060978Y0191691D01*
X0061135Y0192038D01*
X0061299Y0192381D01*
X0061472Y0192720D01*
X0061653Y0193055D01*
X0061842Y0193386D01*
X0062039Y0193711D01*
X0062243Y0194032D01*
X0062456Y0194348D01*
X0062676Y0194658D01*
X0062903Y0194964D01*
X0063138Y0195263D01*
X0063380Y0195557D01*
X0063628Y0195845D01*
X0063884Y0196127D01*
X0064147Y0196402D01*
X0064416Y0196671D01*
X0064691Y0196934D01*
X0064973Y0197190D01*
X0065261Y0197438D01*
X0065555Y0197680D01*
X0065854Y0197915D01*
X0066160Y0198142D01*
X0066470Y0198362D01*
X0066786Y0198575D01*
X0067107Y0198779D01*
X0067432Y0198976D01*
X0067763Y0199165D01*
X0068098Y0199346D01*
X0068437Y0199519D01*
X0068780Y0199683D01*
X0069127Y0199840D01*
X0069478Y0199987D01*
X0069832Y0200127D01*
X0070189Y0200257D01*
X0070550Y0200379D01*
X0070913Y0200492D01*
X0071279Y0200597D01*
X0071647Y0200692D01*
X0072018Y0200779D01*
X0072390Y0200857D01*
X0072765Y0200925D01*
X0073141Y0200985D01*
X0073518Y0201035D01*
X0073896Y0201076D01*
X0074275Y0201109D01*
X0074655Y0201132D01*
X0075035Y0201145D01*
X0075416Y0201150D01*
X0437620Y0201150D01*
X0438001Y0201145D01*
X0438381Y0201132D01*
X0438761Y0201109D01*
X0439140Y0201076D01*
X0439518Y0201035D01*
X0439895Y0200985D01*
X0440271Y0200925D01*
X0440646Y0200857D01*
X0441018Y0200779D01*
X0441389Y0200692D01*
X0441757Y0200597D01*
X0442123Y0200492D01*
X0442486Y0200379D01*
X0442847Y0200257D01*
X0443204Y0200127D01*
X0443558Y0199987D01*
X0443909Y0199840D01*
X0444256Y0199683D01*
X0444599Y0199519D01*
X0444938Y0199346D01*
X0445273Y0199165D01*
X0445604Y0198976D01*
X0445929Y0198779D01*
X0446250Y0198575D01*
X0446566Y0198362D01*
X0446876Y0198142D01*
X0447182Y0197915D01*
X0447481Y0197680D01*
X0447775Y0197438D01*
X0448063Y0197190D01*
X0448345Y0196934D01*
X0448620Y0196671D01*
X0448889Y0196402D01*
X0449152Y0196127D01*
X0449408Y0195845D01*
X0449656Y0195557D01*
X0449898Y0195263D01*
X0450133Y0194964D01*
X0450360Y0194658D01*
X0450580Y0194348D01*
X0450793Y0194032D01*
X0450997Y0193711D01*
X0451194Y0193386D01*
X0451383Y0193055D01*
X0451564Y0192720D01*
X0451737Y0192381D01*
X0451901Y0192038D01*
X0452058Y0191691D01*
X0452205Y0191340D01*
X0452345Y0190986D01*
X0452475Y0190629D01*
X0452597Y0190268D01*
X0452710Y0189905D01*
X0452815Y0189539D01*
X0452910Y0189171D01*
X0452997Y0188800D01*
X0453075Y0188428D01*
X0453143Y0188053D01*
X0453203Y0187677D01*
X0453253Y0187300D01*
X0453294Y0186922D01*
X0453327Y0186543D01*
X0453350Y0186163D01*
X0453363Y0185783D01*
X0453368Y0185402D01*
X0453369Y0185402D02*
X0453369Y0020048D01*
X0453368Y0020048D02*
X0453363Y0019667D01*
X0453350Y0019287D01*
X0453327Y0018907D01*
X0453294Y0018528D01*
X0453253Y0018150D01*
X0453203Y0017773D01*
X0453143Y0017397D01*
X0453075Y0017022D01*
X0452997Y0016650D01*
X0452910Y0016279D01*
X0452815Y0015911D01*
X0452710Y0015545D01*
X0452597Y0015182D01*
X0452475Y0014821D01*
X0452345Y0014464D01*
X0452205Y0014110D01*
X0452058Y0013759D01*
X0451901Y0013412D01*
X0451737Y0013069D01*
X0451564Y0012730D01*
X0451383Y0012395D01*
X0451194Y0012064D01*
X0450997Y0011739D01*
X0450793Y0011418D01*
X0450580Y0011102D01*
X0450360Y0010792D01*
X0450133Y0010486D01*
X0449898Y0010187D01*
X0449656Y0009893D01*
X0449408Y0009605D01*
X0449152Y0009323D01*
X0448889Y0009048D01*
X0448620Y0008779D01*
X0448345Y0008516D01*
X0448063Y0008260D01*
X0447775Y0008012D01*
X0447481Y0007770D01*
X0447182Y0007535D01*
X0446876Y0007308D01*
X0446566Y0007088D01*
X0446250Y0006875D01*
X0445929Y0006671D01*
X0445604Y0006474D01*
X0445273Y0006285D01*
X0444938Y0006104D01*
X0444599Y0005931D01*
X0444256Y0005767D01*
X0443909Y0005610D01*
X0443558Y0005463D01*
X0443204Y0005323D01*
X0442847Y0005193D01*
X0442486Y0005071D01*
X0442123Y0004958D01*
X0441757Y0004853D01*
X0441389Y0004758D01*
X0441018Y0004671D01*
X0440646Y0004593D01*
X0440271Y0004525D01*
X0439895Y0004465D01*
X0439518Y0004415D01*
X0439140Y0004374D01*
X0438761Y0004341D01*
X0438381Y0004318D01*
X0438001Y0004305D01*
X0437620Y0004300D01*
X0075416Y0004300D01*
X0075035Y0004305D01*
X0074655Y0004318D01*
X0074275Y0004341D01*
X0073896Y0004374D01*
X0073518Y0004415D01*
X0073141Y0004465D01*
X0072765Y0004525D01*
X0072390Y0004593D01*
X0072018Y0004671D01*
X0071647Y0004758D01*
X0071279Y0004853D01*
X0070913Y0004958D01*
X0070550Y0005071D01*
X0070189Y0005193D01*
X0069832Y0005323D01*
X0069478Y0005463D01*
X0069127Y0005610D01*
X0068780Y0005767D01*
X0068437Y0005931D01*
X0068098Y0006104D01*
X0067763Y0006285D01*
X0067432Y0006474D01*
X0067107Y0006671D01*
X0066786Y0006875D01*
X0066470Y0007088D01*
X0066160Y0007308D01*
X0065854Y0007535D01*
X0065555Y0007770D01*
X0065261Y0008012D01*
X0064973Y0008260D01*
X0064691Y0008516D01*
X0064416Y0008779D01*
X0064147Y0009048D01*
X0063884Y0009323D01*
X0063628Y0009605D01*
X0063380Y0009893D01*
X0063138Y0010187D01*
X0062903Y0010486D01*
X0062676Y0010792D01*
X0062456Y0011102D01*
X0062243Y0011418D01*
X0062039Y0011739D01*
X0061842Y0012064D01*
X0061653Y0012395D01*
X0061472Y0012730D01*
X0061299Y0013069D01*
X0061135Y0013412D01*
X0060978Y0013759D01*
X0060831Y0014110D01*
X0060691Y0014464D01*
X0060561Y0014821D01*
X0060439Y0015182D01*
X0060326Y0015545D01*
X0060221Y0015911D01*
X0060126Y0016279D01*
X0060039Y0016650D01*
X0059961Y0017022D01*
X0059893Y0017397D01*
X0059833Y0017773D01*
X0059783Y0018150D01*
X0059742Y0018528D01*
X0059709Y0018907D01*
X0059686Y0019287D01*
X0059673Y0019667D01*
X0059668Y0020048D01*
X0068920Y0097942D02*
X0068922Y0098035D01*
X0068928Y0098127D01*
X0068938Y0098219D01*
X0068952Y0098310D01*
X0068969Y0098401D01*
X0068991Y0098491D01*
X0069016Y0098580D01*
X0069045Y0098668D01*
X0069078Y0098754D01*
X0069115Y0098839D01*
X0069155Y0098923D01*
X0069199Y0099004D01*
X0069246Y0099084D01*
X0069296Y0099162D01*
X0069350Y0099237D01*
X0069407Y0099310D01*
X0069467Y0099380D01*
X0069530Y0099448D01*
X0069596Y0099513D01*
X0069664Y0099575D01*
X0069735Y0099635D01*
X0069809Y0099691D01*
X0069885Y0099744D01*
X0069963Y0099793D01*
X0070043Y0099840D01*
X0070125Y0099882D01*
X0070209Y0099922D01*
X0070294Y0099957D01*
X0070381Y0099989D01*
X0070469Y0100018D01*
X0070558Y0100042D01*
X0070648Y0100063D01*
X0070739Y0100079D01*
X0070831Y0100092D01*
X0070923Y0100101D01*
X0071016Y0100106D01*
X0071108Y0100107D01*
X0071201Y0100104D01*
X0071293Y0100097D01*
X0071385Y0100086D01*
X0071476Y0100071D01*
X0071567Y0100053D01*
X0071657Y0100030D01*
X0071745Y0100004D01*
X0071833Y0099974D01*
X0071919Y0099940D01*
X0072003Y0099903D01*
X0072086Y0099861D01*
X0072167Y0099817D01*
X0072247Y0099769D01*
X0072324Y0099718D01*
X0072398Y0099663D01*
X0072471Y0099605D01*
X0072541Y0099545D01*
X0072608Y0099481D01*
X0072672Y0099415D01*
X0072734Y0099345D01*
X0072792Y0099274D01*
X0072847Y0099200D01*
X0072899Y0099123D01*
X0072948Y0099044D01*
X0072994Y0098964D01*
X0073036Y0098881D01*
X0073074Y0098797D01*
X0073109Y0098711D01*
X0073140Y0098624D01*
X0073167Y0098536D01*
X0073190Y0098446D01*
X0073210Y0098356D01*
X0073226Y0098265D01*
X0073238Y0098173D01*
X0073246Y0098081D01*
X0073250Y0097988D01*
X0073250Y0097896D01*
X0073246Y0097803D01*
X0073238Y0097711D01*
X0073226Y0097619D01*
X0073210Y0097528D01*
X0073190Y0097438D01*
X0073167Y0097348D01*
X0073140Y0097260D01*
X0073109Y0097173D01*
X0073074Y0097087D01*
X0073036Y0097003D01*
X0072994Y0096920D01*
X0072948Y0096840D01*
X0072899Y0096761D01*
X0072847Y0096684D01*
X0072792Y0096610D01*
X0072734Y0096539D01*
X0072672Y0096469D01*
X0072608Y0096403D01*
X0072541Y0096339D01*
X0072471Y0096279D01*
X0072398Y0096221D01*
X0072324Y0096166D01*
X0072247Y0096115D01*
X0072168Y0096067D01*
X0072086Y0096023D01*
X0072003Y0095981D01*
X0071919Y0095944D01*
X0071833Y0095910D01*
X0071745Y0095880D01*
X0071657Y0095854D01*
X0071567Y0095831D01*
X0071476Y0095813D01*
X0071385Y0095798D01*
X0071293Y0095787D01*
X0071201Y0095780D01*
X0071108Y0095777D01*
X0071016Y0095778D01*
X0070923Y0095783D01*
X0070831Y0095792D01*
X0070739Y0095805D01*
X0070648Y0095821D01*
X0070558Y0095842D01*
X0070469Y0095866D01*
X0070381Y0095895D01*
X0070294Y0095927D01*
X0070209Y0095962D01*
X0070125Y0096002D01*
X0070043Y0096044D01*
X0069963Y0096091D01*
X0069885Y0096140D01*
X0069809Y0096193D01*
X0069735Y0096249D01*
X0069664Y0096309D01*
X0069596Y0096371D01*
X0069530Y0096436D01*
X0069467Y0096504D01*
X0069407Y0096574D01*
X0069350Y0096647D01*
X0069296Y0096722D01*
X0069246Y0096800D01*
X0069199Y0096880D01*
X0069155Y0096961D01*
X0069115Y0097045D01*
X0069078Y0097130D01*
X0069045Y0097216D01*
X0069016Y0097304D01*
X0068991Y0097393D01*
X0068969Y0097483D01*
X0068952Y0097574D01*
X0068938Y0097665D01*
X0068928Y0097757D01*
X0068922Y0097849D01*
X0068920Y0097942D01*
X0068920Y0115658D02*
X0068922Y0115751D01*
X0068928Y0115843D01*
X0068938Y0115935D01*
X0068952Y0116026D01*
X0068969Y0116117D01*
X0068991Y0116207D01*
X0069016Y0116296D01*
X0069045Y0116384D01*
X0069078Y0116470D01*
X0069115Y0116555D01*
X0069155Y0116639D01*
X0069199Y0116720D01*
X0069246Y0116800D01*
X0069296Y0116878D01*
X0069350Y0116953D01*
X0069407Y0117026D01*
X0069467Y0117096D01*
X0069530Y0117164D01*
X0069596Y0117229D01*
X0069664Y0117291D01*
X0069735Y0117351D01*
X0069809Y0117407D01*
X0069885Y0117460D01*
X0069963Y0117509D01*
X0070043Y0117556D01*
X0070125Y0117598D01*
X0070209Y0117638D01*
X0070294Y0117673D01*
X0070381Y0117705D01*
X0070469Y0117734D01*
X0070558Y0117758D01*
X0070648Y0117779D01*
X0070739Y0117795D01*
X0070831Y0117808D01*
X0070923Y0117817D01*
X0071016Y0117822D01*
X0071108Y0117823D01*
X0071201Y0117820D01*
X0071293Y0117813D01*
X0071385Y0117802D01*
X0071476Y0117787D01*
X0071567Y0117769D01*
X0071657Y0117746D01*
X0071745Y0117720D01*
X0071833Y0117690D01*
X0071919Y0117656D01*
X0072003Y0117619D01*
X0072086Y0117577D01*
X0072167Y0117533D01*
X0072247Y0117485D01*
X0072324Y0117434D01*
X0072398Y0117379D01*
X0072471Y0117321D01*
X0072541Y0117261D01*
X0072608Y0117197D01*
X0072672Y0117131D01*
X0072734Y0117061D01*
X0072792Y0116990D01*
X0072847Y0116916D01*
X0072899Y0116839D01*
X0072948Y0116760D01*
X0072994Y0116680D01*
X0073036Y0116597D01*
X0073074Y0116513D01*
X0073109Y0116427D01*
X0073140Y0116340D01*
X0073167Y0116252D01*
X0073190Y0116162D01*
X0073210Y0116072D01*
X0073226Y0115981D01*
X0073238Y0115889D01*
X0073246Y0115797D01*
X0073250Y0115704D01*
X0073250Y0115612D01*
X0073246Y0115519D01*
X0073238Y0115427D01*
X0073226Y0115335D01*
X0073210Y0115244D01*
X0073190Y0115154D01*
X0073167Y0115064D01*
X0073140Y0114976D01*
X0073109Y0114889D01*
X0073074Y0114803D01*
X0073036Y0114719D01*
X0072994Y0114636D01*
X0072948Y0114556D01*
X0072899Y0114477D01*
X0072847Y0114400D01*
X0072792Y0114326D01*
X0072734Y0114255D01*
X0072672Y0114185D01*
X0072608Y0114119D01*
X0072541Y0114055D01*
X0072471Y0113995D01*
X0072398Y0113937D01*
X0072324Y0113882D01*
X0072247Y0113831D01*
X0072168Y0113783D01*
X0072086Y0113739D01*
X0072003Y0113697D01*
X0071919Y0113660D01*
X0071833Y0113626D01*
X0071745Y0113596D01*
X0071657Y0113570D01*
X0071567Y0113547D01*
X0071476Y0113529D01*
X0071385Y0113514D01*
X0071293Y0113503D01*
X0071201Y0113496D01*
X0071108Y0113493D01*
X0071016Y0113494D01*
X0070923Y0113499D01*
X0070831Y0113508D01*
X0070739Y0113521D01*
X0070648Y0113537D01*
X0070558Y0113558D01*
X0070469Y0113582D01*
X0070381Y0113611D01*
X0070294Y0113643D01*
X0070209Y0113678D01*
X0070125Y0113718D01*
X0070043Y0113760D01*
X0069963Y0113807D01*
X0069885Y0113856D01*
X0069809Y0113909D01*
X0069735Y0113965D01*
X0069664Y0114025D01*
X0069596Y0114087D01*
X0069530Y0114152D01*
X0069467Y0114220D01*
X0069407Y0114290D01*
X0069350Y0114363D01*
X0069296Y0114438D01*
X0069246Y0114516D01*
X0069199Y0114596D01*
X0069155Y0114677D01*
X0069115Y0114761D01*
X0069078Y0114846D01*
X0069045Y0114932D01*
X0069016Y0115020D01*
X0068991Y0115109D01*
X0068969Y0115199D01*
X0068952Y0115290D01*
X0068938Y0115381D01*
X0068928Y0115473D01*
X0068922Y0115565D01*
X0068920Y0115658D01*
X0067935Y0144457D02*
X0070298Y0144457D01*
X0070297Y0144457D02*
X0070360Y0144465D01*
X0070422Y0144476D01*
X0070484Y0144491D01*
X0070544Y0144509D01*
X0070604Y0144531D01*
X0070662Y0144556D01*
X0070718Y0144585D01*
X0070773Y0144617D01*
X0070825Y0144652D01*
X0070876Y0144690D01*
X0070924Y0144730D01*
X0070970Y0144774D01*
X0071013Y0144820D01*
X0071054Y0144869D01*
X0071092Y0144920D01*
X0071126Y0144972D01*
X0071158Y0145027D01*
X0071186Y0145084D01*
X0071211Y0145142D01*
X0071232Y0145202D01*
X0071250Y0145262D01*
X0071264Y0145324D01*
X0071275Y0145386D01*
X0071282Y0145449D01*
X0071286Y0145512D01*
X0071285Y0145575D01*
X0071282Y0145638D01*
X0071282Y0145639D02*
X0071285Y0145702D01*
X0071286Y0145765D01*
X0071282Y0145828D01*
X0071275Y0145891D01*
X0071264Y0145953D01*
X0071250Y0146015D01*
X0071232Y0146075D01*
X0071211Y0146135D01*
X0071186Y0146193D01*
X0071158Y0146250D01*
X0071126Y0146305D01*
X0071092Y0146357D01*
X0071054Y0146408D01*
X0071013Y0146457D01*
X0070970Y0146503D01*
X0070924Y0146547D01*
X0070876Y0146587D01*
X0070825Y0146625D01*
X0070773Y0146660D01*
X0070718Y0146692D01*
X0070662Y0146721D01*
X0070604Y0146746D01*
X0070544Y0146768D01*
X0070484Y0146786D01*
X0070422Y0146801D01*
X0070360Y0146812D01*
X0070297Y0146820D01*
X0070298Y0146820D02*
X0067935Y0146820D01*
X0067936Y0146820D02*
X0067870Y0146812D01*
X0067806Y0146800D01*
X0067742Y0146784D01*
X0067679Y0146765D01*
X0067618Y0146741D01*
X0067558Y0146714D01*
X0067500Y0146684D01*
X0067444Y0146650D01*
X0067390Y0146613D01*
X0067338Y0146572D01*
X0067289Y0146528D01*
X0067242Y0146482D01*
X0067199Y0146433D01*
X0067158Y0146381D01*
X0067121Y0146327D01*
X0067087Y0146271D01*
X0067057Y0146213D01*
X0067030Y0146153D01*
X0067006Y0146092D01*
X0066987Y0146029D01*
X0066971Y0145965D01*
X0066959Y0145901D01*
X0066951Y0145835D01*
X0066947Y0145770D01*
X0066947Y0145704D01*
X0066951Y0145639D01*
X0066951Y0145638D02*
X0066947Y0145573D01*
X0066947Y0145507D01*
X0066951Y0145442D01*
X0066959Y0145376D01*
X0066971Y0145312D01*
X0066987Y0145248D01*
X0067006Y0145185D01*
X0067030Y0145124D01*
X0067057Y0145064D01*
X0067087Y0145006D01*
X0067121Y0144950D01*
X0067158Y0144896D01*
X0067199Y0144844D01*
X0067242Y0144795D01*
X0067289Y0144749D01*
X0067338Y0144705D01*
X0067390Y0144664D01*
X0067444Y0144627D01*
X0067500Y0144593D01*
X0067558Y0144563D01*
X0067618Y0144536D01*
X0067679Y0144512D01*
X0067742Y0144493D01*
X0067806Y0144477D01*
X0067870Y0144465D01*
X0067936Y0144457D01*
X0075219Y0152135D02*
X0075221Y0152209D01*
X0075227Y0152283D01*
X0075237Y0152356D01*
X0075251Y0152429D01*
X0075268Y0152501D01*
X0075290Y0152571D01*
X0075315Y0152641D01*
X0075344Y0152709D01*
X0075377Y0152775D01*
X0075413Y0152840D01*
X0075453Y0152902D01*
X0075495Y0152963D01*
X0075541Y0153021D01*
X0075590Y0153076D01*
X0075642Y0153129D01*
X0075697Y0153179D01*
X0075754Y0153225D01*
X0075814Y0153269D01*
X0075876Y0153309D01*
X0075940Y0153346D01*
X0076006Y0153380D01*
X0076074Y0153410D01*
X0076143Y0153436D01*
X0076214Y0153459D01*
X0076285Y0153477D01*
X0076358Y0153492D01*
X0076431Y0153503D01*
X0076505Y0153510D01*
X0076579Y0153513D01*
X0076652Y0153512D01*
X0076726Y0153507D01*
X0076800Y0153498D01*
X0076873Y0153485D01*
X0076945Y0153468D01*
X0077016Y0153448D01*
X0077086Y0153423D01*
X0077154Y0153395D01*
X0077221Y0153364D01*
X0077286Y0153328D01*
X0077349Y0153290D01*
X0077410Y0153248D01*
X0077469Y0153202D01*
X0077525Y0153154D01*
X0077578Y0153103D01*
X0077628Y0153049D01*
X0077676Y0152992D01*
X0077720Y0152933D01*
X0077762Y0152871D01*
X0077800Y0152808D01*
X0077834Y0152742D01*
X0077865Y0152675D01*
X0077892Y0152606D01*
X0077915Y0152536D01*
X0077935Y0152465D01*
X0077951Y0152392D01*
X0077963Y0152319D01*
X0077971Y0152246D01*
X0077975Y0152172D01*
X0077975Y0152098D01*
X0077971Y0152024D01*
X0077963Y0151951D01*
X0077951Y0151878D01*
X0077935Y0151805D01*
X0077915Y0151734D01*
X0077892Y0151664D01*
X0077865Y0151595D01*
X0077834Y0151528D01*
X0077800Y0151462D01*
X0077762Y0151399D01*
X0077720Y0151337D01*
X0077676Y0151278D01*
X0077628Y0151221D01*
X0077578Y0151167D01*
X0077525Y0151116D01*
X0077469Y0151068D01*
X0077410Y0151022D01*
X0077349Y0150980D01*
X0077286Y0150942D01*
X0077221Y0150906D01*
X0077154Y0150875D01*
X0077086Y0150847D01*
X0077016Y0150822D01*
X0076945Y0150802D01*
X0076873Y0150785D01*
X0076800Y0150772D01*
X0076726Y0150763D01*
X0076652Y0150758D01*
X0076579Y0150757D01*
X0076505Y0150760D01*
X0076431Y0150767D01*
X0076358Y0150778D01*
X0076285Y0150793D01*
X0076214Y0150811D01*
X0076143Y0150834D01*
X0076074Y0150860D01*
X0076006Y0150890D01*
X0075940Y0150924D01*
X0075876Y0150961D01*
X0075814Y0151001D01*
X0075754Y0151045D01*
X0075697Y0151091D01*
X0075642Y0151141D01*
X0075590Y0151194D01*
X0075541Y0151249D01*
X0075495Y0151307D01*
X0075453Y0151368D01*
X0075413Y0151430D01*
X0075377Y0151495D01*
X0075344Y0151561D01*
X0075315Y0151629D01*
X0075290Y0151699D01*
X0075268Y0151769D01*
X0075251Y0151841D01*
X0075237Y0151914D01*
X0075227Y0151987D01*
X0075221Y0152061D01*
X0075219Y0152135D01*
X0075219Y0167489D02*
X0075221Y0167563D01*
X0075227Y0167637D01*
X0075237Y0167710D01*
X0075251Y0167783D01*
X0075268Y0167855D01*
X0075290Y0167925D01*
X0075315Y0167995D01*
X0075344Y0168063D01*
X0075377Y0168129D01*
X0075413Y0168194D01*
X0075453Y0168256D01*
X0075495Y0168317D01*
X0075541Y0168375D01*
X0075590Y0168430D01*
X0075642Y0168483D01*
X0075697Y0168533D01*
X0075754Y0168579D01*
X0075814Y0168623D01*
X0075876Y0168663D01*
X0075940Y0168700D01*
X0076006Y0168734D01*
X0076074Y0168764D01*
X0076143Y0168790D01*
X0076214Y0168813D01*
X0076285Y0168831D01*
X0076358Y0168846D01*
X0076431Y0168857D01*
X0076505Y0168864D01*
X0076579Y0168867D01*
X0076652Y0168866D01*
X0076726Y0168861D01*
X0076800Y0168852D01*
X0076873Y0168839D01*
X0076945Y0168822D01*
X0077016Y0168802D01*
X0077086Y0168777D01*
X0077154Y0168749D01*
X0077221Y0168718D01*
X0077286Y0168682D01*
X0077349Y0168644D01*
X0077410Y0168602D01*
X0077469Y0168556D01*
X0077525Y0168508D01*
X0077578Y0168457D01*
X0077628Y0168403D01*
X0077676Y0168346D01*
X0077720Y0168287D01*
X0077762Y0168225D01*
X0077800Y0168162D01*
X0077834Y0168096D01*
X0077865Y0168029D01*
X0077892Y0167960D01*
X0077915Y0167890D01*
X0077935Y0167819D01*
X0077951Y0167746D01*
X0077963Y0167673D01*
X0077971Y0167600D01*
X0077975Y0167526D01*
X0077975Y0167452D01*
X0077971Y0167378D01*
X0077963Y0167305D01*
X0077951Y0167232D01*
X0077935Y0167159D01*
X0077915Y0167088D01*
X0077892Y0167018D01*
X0077865Y0166949D01*
X0077834Y0166882D01*
X0077800Y0166816D01*
X0077762Y0166753D01*
X0077720Y0166691D01*
X0077676Y0166632D01*
X0077628Y0166575D01*
X0077578Y0166521D01*
X0077525Y0166470D01*
X0077469Y0166422D01*
X0077410Y0166376D01*
X0077349Y0166334D01*
X0077286Y0166296D01*
X0077221Y0166260D01*
X0077154Y0166229D01*
X0077086Y0166201D01*
X0077016Y0166176D01*
X0076945Y0166156D01*
X0076873Y0166139D01*
X0076800Y0166126D01*
X0076726Y0166117D01*
X0076652Y0166112D01*
X0076579Y0166111D01*
X0076505Y0166114D01*
X0076431Y0166121D01*
X0076358Y0166132D01*
X0076285Y0166147D01*
X0076214Y0166165D01*
X0076143Y0166188D01*
X0076074Y0166214D01*
X0076006Y0166244D01*
X0075940Y0166278D01*
X0075876Y0166315D01*
X0075814Y0166355D01*
X0075754Y0166399D01*
X0075697Y0166445D01*
X0075642Y0166495D01*
X0075590Y0166548D01*
X0075541Y0166603D01*
X0075495Y0166661D01*
X0075453Y0166722D01*
X0075413Y0166784D01*
X0075377Y0166849D01*
X0075344Y0166915D01*
X0075315Y0166983D01*
X0075290Y0167053D01*
X0075268Y0167123D01*
X0075251Y0167195D01*
X0075237Y0167268D01*
X0075227Y0167341D01*
X0075221Y0167415D01*
X0075219Y0167489D01*
X0070298Y0172804D02*
X0067935Y0172804D01*
X0067936Y0172804D02*
X0067870Y0172812D01*
X0067806Y0172824D01*
X0067742Y0172840D01*
X0067679Y0172859D01*
X0067618Y0172883D01*
X0067558Y0172910D01*
X0067500Y0172940D01*
X0067444Y0172974D01*
X0067390Y0173011D01*
X0067338Y0173052D01*
X0067289Y0173096D01*
X0067242Y0173142D01*
X0067199Y0173191D01*
X0067158Y0173243D01*
X0067121Y0173297D01*
X0067087Y0173353D01*
X0067057Y0173411D01*
X0067030Y0173471D01*
X0067006Y0173532D01*
X0066987Y0173595D01*
X0066971Y0173659D01*
X0066959Y0173723D01*
X0066951Y0173789D01*
X0066947Y0173854D01*
X0066947Y0173920D01*
X0066951Y0173985D01*
X0066947Y0174050D01*
X0066947Y0174116D01*
X0066951Y0174181D01*
X0066959Y0174247D01*
X0066971Y0174311D01*
X0066987Y0174375D01*
X0067006Y0174438D01*
X0067030Y0174499D01*
X0067057Y0174559D01*
X0067087Y0174617D01*
X0067121Y0174673D01*
X0067158Y0174727D01*
X0067199Y0174779D01*
X0067242Y0174828D01*
X0067289Y0174874D01*
X0067338Y0174918D01*
X0067390Y0174959D01*
X0067444Y0174996D01*
X0067500Y0175030D01*
X0067558Y0175060D01*
X0067618Y0175087D01*
X0067679Y0175111D01*
X0067742Y0175130D01*
X0067806Y0175146D01*
X0067870Y0175158D01*
X0067936Y0175166D01*
X0067935Y0175166D02*
X0070298Y0175166D01*
X0070297Y0175166D02*
X0070360Y0175158D01*
X0070422Y0175147D01*
X0070484Y0175132D01*
X0070544Y0175114D01*
X0070604Y0175092D01*
X0070662Y0175067D01*
X0070718Y0175038D01*
X0070773Y0175006D01*
X0070825Y0174971D01*
X0070876Y0174933D01*
X0070924Y0174893D01*
X0070970Y0174849D01*
X0071013Y0174803D01*
X0071054Y0174754D01*
X0071092Y0174703D01*
X0071126Y0174651D01*
X0071158Y0174596D01*
X0071186Y0174539D01*
X0071211Y0174481D01*
X0071232Y0174421D01*
X0071250Y0174361D01*
X0071264Y0174299D01*
X0071275Y0174237D01*
X0071282Y0174174D01*
X0071286Y0174111D01*
X0071285Y0174048D01*
X0071282Y0173985D01*
X0071285Y0173922D01*
X0071286Y0173859D01*
X0071282Y0173796D01*
X0071275Y0173733D01*
X0071264Y0173671D01*
X0071250Y0173609D01*
X0071232Y0173549D01*
X0071211Y0173489D01*
X0071186Y0173431D01*
X0071158Y0173374D01*
X0071126Y0173319D01*
X0071092Y0173267D01*
X0071054Y0173216D01*
X0071013Y0173167D01*
X0070970Y0173121D01*
X0070924Y0173077D01*
X0070876Y0173037D01*
X0070825Y0172999D01*
X0070773Y0172964D01*
X0070718Y0172932D01*
X0070662Y0172903D01*
X0070604Y0172878D01*
X0070544Y0172856D01*
X0070484Y0172838D01*
X0070422Y0172823D01*
X0070360Y0172812D01*
X0070297Y0172804D01*
X0181911Y0157843D02*
X0181913Y0157927D01*
X0181919Y0158010D01*
X0181929Y0158093D01*
X0181943Y0158176D01*
X0181960Y0158258D01*
X0181982Y0158339D01*
X0182007Y0158418D01*
X0182036Y0158497D01*
X0182069Y0158574D01*
X0182105Y0158649D01*
X0182145Y0158723D01*
X0182188Y0158795D01*
X0182235Y0158864D01*
X0182285Y0158931D01*
X0182338Y0158996D01*
X0182394Y0159058D01*
X0182452Y0159118D01*
X0182514Y0159175D01*
X0182578Y0159228D01*
X0182645Y0159279D01*
X0182714Y0159326D01*
X0182785Y0159371D01*
X0182858Y0159411D01*
X0182933Y0159448D01*
X0183010Y0159482D01*
X0183088Y0159512D01*
X0183167Y0159538D01*
X0183248Y0159561D01*
X0183330Y0159579D01*
X0183412Y0159594D01*
X0183495Y0159605D01*
X0183578Y0159612D01*
X0183662Y0159615D01*
X0183746Y0159614D01*
X0183829Y0159609D01*
X0183913Y0159600D01*
X0183995Y0159587D01*
X0184077Y0159571D01*
X0184158Y0159550D01*
X0184239Y0159526D01*
X0184317Y0159498D01*
X0184395Y0159466D01*
X0184471Y0159430D01*
X0184545Y0159391D01*
X0184617Y0159349D01*
X0184687Y0159303D01*
X0184755Y0159254D01*
X0184820Y0159202D01*
X0184883Y0159147D01*
X0184943Y0159089D01*
X0185001Y0159028D01*
X0185055Y0158964D01*
X0185107Y0158898D01*
X0185155Y0158830D01*
X0185200Y0158759D01*
X0185241Y0158686D01*
X0185280Y0158612D01*
X0185314Y0158536D01*
X0185345Y0158458D01*
X0185372Y0158379D01*
X0185396Y0158298D01*
X0185415Y0158217D01*
X0185431Y0158135D01*
X0185443Y0158052D01*
X0185451Y0157968D01*
X0185455Y0157885D01*
X0185455Y0157801D01*
X0185451Y0157718D01*
X0185443Y0157634D01*
X0185431Y0157551D01*
X0185415Y0157469D01*
X0185396Y0157388D01*
X0185372Y0157307D01*
X0185345Y0157228D01*
X0185314Y0157150D01*
X0185280Y0157074D01*
X0185241Y0157000D01*
X0185200Y0156927D01*
X0185155Y0156856D01*
X0185107Y0156788D01*
X0185055Y0156722D01*
X0185001Y0156658D01*
X0184943Y0156597D01*
X0184883Y0156539D01*
X0184820Y0156484D01*
X0184755Y0156432D01*
X0184687Y0156383D01*
X0184617Y0156337D01*
X0184545Y0156295D01*
X0184471Y0156256D01*
X0184395Y0156220D01*
X0184317Y0156188D01*
X0184239Y0156160D01*
X0184158Y0156136D01*
X0184077Y0156115D01*
X0183995Y0156099D01*
X0183913Y0156086D01*
X0183829Y0156077D01*
X0183746Y0156072D01*
X0183662Y0156071D01*
X0183578Y0156074D01*
X0183495Y0156081D01*
X0183412Y0156092D01*
X0183330Y0156107D01*
X0183248Y0156125D01*
X0183167Y0156148D01*
X0183088Y0156174D01*
X0183010Y0156204D01*
X0182933Y0156238D01*
X0182858Y0156275D01*
X0182785Y0156315D01*
X0182714Y0156360D01*
X0182645Y0156407D01*
X0182578Y0156458D01*
X0182514Y0156511D01*
X0182452Y0156568D01*
X0182394Y0156628D01*
X0182338Y0156690D01*
X0182285Y0156755D01*
X0182235Y0156822D01*
X0182188Y0156891D01*
X0182145Y0156963D01*
X0182105Y0157037D01*
X0182069Y0157112D01*
X0182036Y0157189D01*
X0182007Y0157268D01*
X0181982Y0157347D01*
X0181960Y0157428D01*
X0181943Y0157510D01*
X0181929Y0157593D01*
X0181919Y0157676D01*
X0181913Y0157759D01*
X0181911Y0157843D01*
X0181911Y0146032D02*
X0181913Y0146116D01*
X0181919Y0146199D01*
X0181929Y0146282D01*
X0181943Y0146365D01*
X0181960Y0146447D01*
X0181982Y0146528D01*
X0182007Y0146607D01*
X0182036Y0146686D01*
X0182069Y0146763D01*
X0182105Y0146838D01*
X0182145Y0146912D01*
X0182188Y0146984D01*
X0182235Y0147053D01*
X0182285Y0147120D01*
X0182338Y0147185D01*
X0182394Y0147247D01*
X0182452Y0147307D01*
X0182514Y0147364D01*
X0182578Y0147417D01*
X0182645Y0147468D01*
X0182714Y0147515D01*
X0182785Y0147560D01*
X0182858Y0147600D01*
X0182933Y0147637D01*
X0183010Y0147671D01*
X0183088Y0147701D01*
X0183167Y0147727D01*
X0183248Y0147750D01*
X0183330Y0147768D01*
X0183412Y0147783D01*
X0183495Y0147794D01*
X0183578Y0147801D01*
X0183662Y0147804D01*
X0183746Y0147803D01*
X0183829Y0147798D01*
X0183913Y0147789D01*
X0183995Y0147776D01*
X0184077Y0147760D01*
X0184158Y0147739D01*
X0184239Y0147715D01*
X0184317Y0147687D01*
X0184395Y0147655D01*
X0184471Y0147619D01*
X0184545Y0147580D01*
X0184617Y0147538D01*
X0184687Y0147492D01*
X0184755Y0147443D01*
X0184820Y0147391D01*
X0184883Y0147336D01*
X0184943Y0147278D01*
X0185001Y0147217D01*
X0185055Y0147153D01*
X0185107Y0147087D01*
X0185155Y0147019D01*
X0185200Y0146948D01*
X0185241Y0146875D01*
X0185280Y0146801D01*
X0185314Y0146725D01*
X0185345Y0146647D01*
X0185372Y0146568D01*
X0185396Y0146487D01*
X0185415Y0146406D01*
X0185431Y0146324D01*
X0185443Y0146241D01*
X0185451Y0146157D01*
X0185455Y0146074D01*
X0185455Y0145990D01*
X0185451Y0145907D01*
X0185443Y0145823D01*
X0185431Y0145740D01*
X0185415Y0145658D01*
X0185396Y0145577D01*
X0185372Y0145496D01*
X0185345Y0145417D01*
X0185314Y0145339D01*
X0185280Y0145263D01*
X0185241Y0145189D01*
X0185200Y0145116D01*
X0185155Y0145045D01*
X0185107Y0144977D01*
X0185055Y0144911D01*
X0185001Y0144847D01*
X0184943Y0144786D01*
X0184883Y0144728D01*
X0184820Y0144673D01*
X0184755Y0144621D01*
X0184687Y0144572D01*
X0184617Y0144526D01*
X0184545Y0144484D01*
X0184471Y0144445D01*
X0184395Y0144409D01*
X0184317Y0144377D01*
X0184239Y0144349D01*
X0184158Y0144325D01*
X0184077Y0144304D01*
X0183995Y0144288D01*
X0183913Y0144275D01*
X0183829Y0144266D01*
X0183746Y0144261D01*
X0183662Y0144260D01*
X0183578Y0144263D01*
X0183495Y0144270D01*
X0183412Y0144281D01*
X0183330Y0144296D01*
X0183248Y0144314D01*
X0183167Y0144337D01*
X0183088Y0144363D01*
X0183010Y0144393D01*
X0182933Y0144427D01*
X0182858Y0144464D01*
X0182785Y0144504D01*
X0182714Y0144549D01*
X0182645Y0144596D01*
X0182578Y0144647D01*
X0182514Y0144700D01*
X0182452Y0144757D01*
X0182394Y0144817D01*
X0182338Y0144879D01*
X0182285Y0144944D01*
X0182235Y0145011D01*
X0182188Y0145080D01*
X0182145Y0145152D01*
X0182105Y0145226D01*
X0182069Y0145301D01*
X0182036Y0145378D01*
X0182007Y0145457D01*
X0181982Y0145536D01*
X0181960Y0145617D01*
X0181943Y0145699D01*
X0181929Y0145782D01*
X0181919Y0145865D01*
X0181913Y0145948D01*
X0181911Y0146032D01*
X0430731Y0183434D02*
X0430733Y0183574D01*
X0430739Y0183714D01*
X0430749Y0183853D01*
X0430763Y0183992D01*
X0430781Y0184131D01*
X0430802Y0184269D01*
X0430828Y0184407D01*
X0430858Y0184544D01*
X0430891Y0184679D01*
X0430929Y0184814D01*
X0430970Y0184948D01*
X0431015Y0185081D01*
X0431063Y0185212D01*
X0431116Y0185341D01*
X0431172Y0185470D01*
X0431231Y0185596D01*
X0431295Y0185721D01*
X0431361Y0185844D01*
X0431432Y0185965D01*
X0431505Y0186084D01*
X0431582Y0186201D01*
X0431663Y0186315D01*
X0431746Y0186427D01*
X0431833Y0186537D01*
X0431923Y0186645D01*
X0432015Y0186749D01*
X0432111Y0186851D01*
X0432210Y0186951D01*
X0432311Y0187047D01*
X0432415Y0187141D01*
X0432522Y0187231D01*
X0432631Y0187318D01*
X0432743Y0187403D01*
X0432857Y0187484D01*
X0432973Y0187562D01*
X0433091Y0187636D01*
X0433212Y0187707D01*
X0433334Y0187775D01*
X0433459Y0187839D01*
X0433585Y0187900D01*
X0433712Y0187957D01*
X0433842Y0188010D01*
X0433973Y0188060D01*
X0434105Y0188105D01*
X0434238Y0188148D01*
X0434373Y0188186D01*
X0434508Y0188220D01*
X0434645Y0188251D01*
X0434782Y0188278D01*
X0434920Y0188300D01*
X0435059Y0188319D01*
X0435198Y0188334D01*
X0435337Y0188345D01*
X0435477Y0188352D01*
X0435617Y0188355D01*
X0435757Y0188354D01*
X0435897Y0188349D01*
X0436036Y0188340D01*
X0436176Y0188327D01*
X0436315Y0188310D01*
X0436453Y0188289D01*
X0436591Y0188265D01*
X0436728Y0188236D01*
X0436864Y0188204D01*
X0436999Y0188167D01*
X0437133Y0188127D01*
X0437266Y0188083D01*
X0437397Y0188035D01*
X0437527Y0187984D01*
X0437656Y0187929D01*
X0437783Y0187870D01*
X0437908Y0187807D01*
X0438031Y0187742D01*
X0438153Y0187672D01*
X0438272Y0187599D01*
X0438390Y0187523D01*
X0438505Y0187444D01*
X0438618Y0187361D01*
X0438728Y0187275D01*
X0438836Y0187186D01*
X0438941Y0187094D01*
X0439044Y0186999D01*
X0439144Y0186901D01*
X0439241Y0186801D01*
X0439335Y0186697D01*
X0439427Y0186591D01*
X0439515Y0186483D01*
X0439600Y0186372D01*
X0439682Y0186258D01*
X0439761Y0186142D01*
X0439836Y0186025D01*
X0439908Y0185905D01*
X0439976Y0185783D01*
X0440041Y0185659D01*
X0440103Y0185533D01*
X0440161Y0185406D01*
X0440215Y0185277D01*
X0440266Y0185146D01*
X0440312Y0185014D01*
X0440355Y0184881D01*
X0440395Y0184747D01*
X0440430Y0184612D01*
X0440462Y0184475D01*
X0440489Y0184338D01*
X0440513Y0184200D01*
X0440533Y0184062D01*
X0440549Y0183923D01*
X0440561Y0183783D01*
X0440569Y0183644D01*
X0440573Y0183504D01*
X0440573Y0183364D01*
X0440569Y0183224D01*
X0440561Y0183085D01*
X0440549Y0182945D01*
X0440533Y0182806D01*
X0440513Y0182668D01*
X0440489Y0182530D01*
X0440462Y0182393D01*
X0440430Y0182256D01*
X0440395Y0182121D01*
X0440355Y0181987D01*
X0440312Y0181854D01*
X0440266Y0181722D01*
X0440215Y0181591D01*
X0440161Y0181462D01*
X0440103Y0181335D01*
X0440041Y0181209D01*
X0439976Y0181085D01*
X0439908Y0180963D01*
X0439836Y0180843D01*
X0439761Y0180726D01*
X0439682Y0180610D01*
X0439600Y0180496D01*
X0439515Y0180385D01*
X0439427Y0180277D01*
X0439335Y0180171D01*
X0439241Y0180067D01*
X0439144Y0179967D01*
X0439044Y0179869D01*
X0438941Y0179774D01*
X0438836Y0179682D01*
X0438728Y0179593D01*
X0438618Y0179507D01*
X0438505Y0179424D01*
X0438390Y0179345D01*
X0438272Y0179269D01*
X0438153Y0179196D01*
X0438031Y0179126D01*
X0437908Y0179061D01*
X0437783Y0178998D01*
X0437656Y0178939D01*
X0437527Y0178884D01*
X0437397Y0178833D01*
X0437266Y0178785D01*
X0437133Y0178741D01*
X0436999Y0178701D01*
X0436864Y0178664D01*
X0436728Y0178632D01*
X0436591Y0178603D01*
X0436453Y0178579D01*
X0436315Y0178558D01*
X0436176Y0178541D01*
X0436036Y0178528D01*
X0435897Y0178519D01*
X0435757Y0178514D01*
X0435617Y0178513D01*
X0435477Y0178516D01*
X0435337Y0178523D01*
X0435198Y0178534D01*
X0435059Y0178549D01*
X0434920Y0178568D01*
X0434782Y0178590D01*
X0434645Y0178617D01*
X0434508Y0178648D01*
X0434373Y0178682D01*
X0434238Y0178720D01*
X0434105Y0178763D01*
X0433973Y0178808D01*
X0433842Y0178858D01*
X0433712Y0178911D01*
X0433585Y0178968D01*
X0433459Y0179029D01*
X0433334Y0179093D01*
X0433212Y0179161D01*
X0433091Y0179232D01*
X0432973Y0179306D01*
X0432857Y0179384D01*
X0432743Y0179465D01*
X0432631Y0179550D01*
X0432522Y0179637D01*
X0432415Y0179727D01*
X0432311Y0179821D01*
X0432210Y0179917D01*
X0432111Y0180017D01*
X0432015Y0180119D01*
X0431923Y0180223D01*
X0431833Y0180331D01*
X0431746Y0180441D01*
X0431663Y0180553D01*
X0431582Y0180667D01*
X0431505Y0180784D01*
X0431432Y0180903D01*
X0431361Y0181024D01*
X0431295Y0181147D01*
X0431231Y0181272D01*
X0431172Y0181398D01*
X0431116Y0181527D01*
X0431063Y0181656D01*
X0431015Y0181787D01*
X0430970Y0181920D01*
X0430929Y0182054D01*
X0430891Y0182189D01*
X0430858Y0182324D01*
X0430828Y0182461D01*
X0430802Y0182599D01*
X0430781Y0182737D01*
X0430763Y0182876D01*
X0430749Y0183015D01*
X0430739Y0183154D01*
X0430733Y0183294D01*
X0430731Y0183434D01*
X0431794Y0102725D02*
X0431796Y0102918D01*
X0431803Y0103111D01*
X0431815Y0103304D01*
X0431832Y0103497D01*
X0431853Y0103689D01*
X0431879Y0103880D01*
X0431910Y0104071D01*
X0431945Y0104261D01*
X0431985Y0104450D01*
X0432030Y0104638D01*
X0432079Y0104825D01*
X0432133Y0105011D01*
X0432191Y0105195D01*
X0432254Y0105378D01*
X0432322Y0105559D01*
X0432393Y0105738D01*
X0432470Y0105916D01*
X0432550Y0106092D01*
X0432635Y0106265D01*
X0432724Y0106437D01*
X0432817Y0106606D01*
X0432914Y0106773D01*
X0433016Y0106938D01*
X0433121Y0107100D01*
X0433230Y0107259D01*
X0433344Y0107416D01*
X0433461Y0107569D01*
X0433581Y0107720D01*
X0433706Y0107868D01*
X0433834Y0108013D01*
X0433965Y0108154D01*
X0434100Y0108293D01*
X0434239Y0108428D01*
X0434380Y0108559D01*
X0434525Y0108687D01*
X0434673Y0108812D01*
X0434824Y0108932D01*
X0434977Y0109049D01*
X0435134Y0109163D01*
X0435293Y0109272D01*
X0435455Y0109377D01*
X0435620Y0109479D01*
X0435787Y0109576D01*
X0435956Y0109669D01*
X0436128Y0109758D01*
X0436301Y0109843D01*
X0436477Y0109923D01*
X0436655Y0110000D01*
X0436834Y0110071D01*
X0437015Y0110139D01*
X0437198Y0110202D01*
X0437382Y0110260D01*
X0437568Y0110314D01*
X0437755Y0110363D01*
X0437943Y0110408D01*
X0438132Y0110448D01*
X0438322Y0110483D01*
X0438513Y0110514D01*
X0438704Y0110540D01*
X0438896Y0110561D01*
X0439089Y0110578D01*
X0439282Y0110590D01*
X0439475Y0110597D01*
X0439668Y0110599D01*
X0439861Y0110597D01*
X0440054Y0110590D01*
X0440247Y0110578D01*
X0440440Y0110561D01*
X0440632Y0110540D01*
X0440823Y0110514D01*
X0441014Y0110483D01*
X0441204Y0110448D01*
X0441393Y0110408D01*
X0441581Y0110363D01*
X0441768Y0110314D01*
X0441954Y0110260D01*
X0442138Y0110202D01*
X0442321Y0110139D01*
X0442502Y0110071D01*
X0442681Y0110000D01*
X0442859Y0109923D01*
X0443035Y0109843D01*
X0443208Y0109758D01*
X0443380Y0109669D01*
X0443549Y0109576D01*
X0443716Y0109479D01*
X0443881Y0109377D01*
X0444043Y0109272D01*
X0444202Y0109163D01*
X0444359Y0109049D01*
X0444512Y0108932D01*
X0444663Y0108812D01*
X0444811Y0108687D01*
X0444956Y0108559D01*
X0445097Y0108428D01*
X0445236Y0108293D01*
X0445371Y0108154D01*
X0445502Y0108013D01*
X0445630Y0107868D01*
X0445755Y0107720D01*
X0445875Y0107569D01*
X0445992Y0107416D01*
X0446106Y0107259D01*
X0446215Y0107100D01*
X0446320Y0106938D01*
X0446422Y0106773D01*
X0446519Y0106606D01*
X0446612Y0106437D01*
X0446701Y0106265D01*
X0446786Y0106092D01*
X0446866Y0105916D01*
X0446943Y0105738D01*
X0447014Y0105559D01*
X0447082Y0105378D01*
X0447145Y0105195D01*
X0447203Y0105011D01*
X0447257Y0104825D01*
X0447306Y0104638D01*
X0447351Y0104450D01*
X0447391Y0104261D01*
X0447426Y0104071D01*
X0447457Y0103880D01*
X0447483Y0103689D01*
X0447504Y0103497D01*
X0447521Y0103304D01*
X0447533Y0103111D01*
X0447540Y0102918D01*
X0447542Y0102725D01*
X0447540Y0102532D01*
X0447533Y0102339D01*
X0447521Y0102146D01*
X0447504Y0101953D01*
X0447483Y0101761D01*
X0447457Y0101570D01*
X0447426Y0101379D01*
X0447391Y0101189D01*
X0447351Y0101000D01*
X0447306Y0100812D01*
X0447257Y0100625D01*
X0447203Y0100439D01*
X0447145Y0100255D01*
X0447082Y0100072D01*
X0447014Y0099891D01*
X0446943Y0099712D01*
X0446866Y0099534D01*
X0446786Y0099358D01*
X0446701Y0099185D01*
X0446612Y0099013D01*
X0446519Y0098844D01*
X0446422Y0098677D01*
X0446320Y0098512D01*
X0446215Y0098350D01*
X0446106Y0098191D01*
X0445992Y0098034D01*
X0445875Y0097881D01*
X0445755Y0097730D01*
X0445630Y0097582D01*
X0445502Y0097437D01*
X0445371Y0097296D01*
X0445236Y0097157D01*
X0445097Y0097022D01*
X0444956Y0096891D01*
X0444811Y0096763D01*
X0444663Y0096638D01*
X0444512Y0096518D01*
X0444359Y0096401D01*
X0444202Y0096287D01*
X0444043Y0096178D01*
X0443881Y0096073D01*
X0443716Y0095971D01*
X0443549Y0095874D01*
X0443380Y0095781D01*
X0443208Y0095692D01*
X0443035Y0095607D01*
X0442859Y0095527D01*
X0442681Y0095450D01*
X0442502Y0095379D01*
X0442321Y0095311D01*
X0442138Y0095248D01*
X0441954Y0095190D01*
X0441768Y0095136D01*
X0441581Y0095087D01*
X0441393Y0095042D01*
X0441204Y0095002D01*
X0441014Y0094967D01*
X0440823Y0094936D01*
X0440632Y0094910D01*
X0440440Y0094889D01*
X0440247Y0094872D01*
X0440054Y0094860D01*
X0439861Y0094853D01*
X0439668Y0094851D01*
X0439475Y0094853D01*
X0439282Y0094860D01*
X0439089Y0094872D01*
X0438896Y0094889D01*
X0438704Y0094910D01*
X0438513Y0094936D01*
X0438322Y0094967D01*
X0438132Y0095002D01*
X0437943Y0095042D01*
X0437755Y0095087D01*
X0437568Y0095136D01*
X0437382Y0095190D01*
X0437198Y0095248D01*
X0437015Y0095311D01*
X0436834Y0095379D01*
X0436655Y0095450D01*
X0436477Y0095527D01*
X0436301Y0095607D01*
X0436128Y0095692D01*
X0435956Y0095781D01*
X0435787Y0095874D01*
X0435620Y0095971D01*
X0435455Y0096073D01*
X0435293Y0096178D01*
X0435134Y0096287D01*
X0434977Y0096401D01*
X0434824Y0096518D01*
X0434673Y0096638D01*
X0434525Y0096763D01*
X0434380Y0096891D01*
X0434239Y0097022D01*
X0434100Y0097157D01*
X0433965Y0097296D01*
X0433834Y0097437D01*
X0433706Y0097582D01*
X0433581Y0097730D01*
X0433461Y0097881D01*
X0433344Y0098034D01*
X0433230Y0098191D01*
X0433121Y0098350D01*
X0433016Y0098512D01*
X0432914Y0098677D01*
X0432817Y0098844D01*
X0432724Y0099013D01*
X0432635Y0099185D01*
X0432550Y0099358D01*
X0432470Y0099534D01*
X0432393Y0099712D01*
X0432322Y0099891D01*
X0432254Y0100072D01*
X0432191Y0100255D01*
X0432133Y0100439D01*
X0432079Y0100625D01*
X0432030Y0100812D01*
X0431985Y0101000D01*
X0431945Y0101189D01*
X0431910Y0101379D01*
X0431879Y0101570D01*
X0431853Y0101761D01*
X0431832Y0101953D01*
X0431815Y0102146D01*
X0431803Y0102339D01*
X0431796Y0102532D01*
X0431794Y0102725D01*
X0430731Y0022017D02*
X0430733Y0022157D01*
X0430739Y0022297D01*
X0430749Y0022436D01*
X0430763Y0022575D01*
X0430781Y0022714D01*
X0430802Y0022852D01*
X0430828Y0022990D01*
X0430858Y0023127D01*
X0430891Y0023262D01*
X0430929Y0023397D01*
X0430970Y0023531D01*
X0431015Y0023664D01*
X0431063Y0023795D01*
X0431116Y0023924D01*
X0431172Y0024053D01*
X0431231Y0024179D01*
X0431295Y0024304D01*
X0431361Y0024427D01*
X0431432Y0024548D01*
X0431505Y0024667D01*
X0431582Y0024784D01*
X0431663Y0024898D01*
X0431746Y0025010D01*
X0431833Y0025120D01*
X0431923Y0025228D01*
X0432015Y0025332D01*
X0432111Y0025434D01*
X0432210Y0025534D01*
X0432311Y0025630D01*
X0432415Y0025724D01*
X0432522Y0025814D01*
X0432631Y0025901D01*
X0432743Y0025986D01*
X0432857Y0026067D01*
X0432973Y0026145D01*
X0433091Y0026219D01*
X0433212Y0026290D01*
X0433334Y0026358D01*
X0433459Y0026422D01*
X0433585Y0026483D01*
X0433712Y0026540D01*
X0433842Y0026593D01*
X0433973Y0026643D01*
X0434105Y0026688D01*
X0434238Y0026731D01*
X0434373Y0026769D01*
X0434508Y0026803D01*
X0434645Y0026834D01*
X0434782Y0026861D01*
X0434920Y0026883D01*
X0435059Y0026902D01*
X0435198Y0026917D01*
X0435337Y0026928D01*
X0435477Y0026935D01*
X0435617Y0026938D01*
X0435757Y0026937D01*
X0435897Y0026932D01*
X0436036Y0026923D01*
X0436176Y0026910D01*
X0436315Y0026893D01*
X0436453Y0026872D01*
X0436591Y0026848D01*
X0436728Y0026819D01*
X0436864Y0026787D01*
X0436999Y0026750D01*
X0437133Y0026710D01*
X0437266Y0026666D01*
X0437397Y0026618D01*
X0437527Y0026567D01*
X0437656Y0026512D01*
X0437783Y0026453D01*
X0437908Y0026390D01*
X0438031Y0026325D01*
X0438153Y0026255D01*
X0438272Y0026182D01*
X0438390Y0026106D01*
X0438505Y0026027D01*
X0438618Y0025944D01*
X0438728Y0025858D01*
X0438836Y0025769D01*
X0438941Y0025677D01*
X0439044Y0025582D01*
X0439144Y0025484D01*
X0439241Y0025384D01*
X0439335Y0025280D01*
X0439427Y0025174D01*
X0439515Y0025066D01*
X0439600Y0024955D01*
X0439682Y0024841D01*
X0439761Y0024725D01*
X0439836Y0024608D01*
X0439908Y0024488D01*
X0439976Y0024366D01*
X0440041Y0024242D01*
X0440103Y0024116D01*
X0440161Y0023989D01*
X0440215Y0023860D01*
X0440266Y0023729D01*
X0440312Y0023597D01*
X0440355Y0023464D01*
X0440395Y0023330D01*
X0440430Y0023195D01*
X0440462Y0023058D01*
X0440489Y0022921D01*
X0440513Y0022783D01*
X0440533Y0022645D01*
X0440549Y0022506D01*
X0440561Y0022366D01*
X0440569Y0022227D01*
X0440573Y0022087D01*
X0440573Y0021947D01*
X0440569Y0021807D01*
X0440561Y0021668D01*
X0440549Y0021528D01*
X0440533Y0021389D01*
X0440513Y0021251D01*
X0440489Y0021113D01*
X0440462Y0020976D01*
X0440430Y0020839D01*
X0440395Y0020704D01*
X0440355Y0020570D01*
X0440312Y0020437D01*
X0440266Y0020305D01*
X0440215Y0020174D01*
X0440161Y0020045D01*
X0440103Y0019918D01*
X0440041Y0019792D01*
X0439976Y0019668D01*
X0439908Y0019546D01*
X0439836Y0019426D01*
X0439761Y0019309D01*
X0439682Y0019193D01*
X0439600Y0019079D01*
X0439515Y0018968D01*
X0439427Y0018860D01*
X0439335Y0018754D01*
X0439241Y0018650D01*
X0439144Y0018550D01*
X0439044Y0018452D01*
X0438941Y0018357D01*
X0438836Y0018265D01*
X0438728Y0018176D01*
X0438618Y0018090D01*
X0438505Y0018007D01*
X0438390Y0017928D01*
X0438272Y0017852D01*
X0438153Y0017779D01*
X0438031Y0017709D01*
X0437908Y0017644D01*
X0437783Y0017581D01*
X0437656Y0017522D01*
X0437527Y0017467D01*
X0437397Y0017416D01*
X0437266Y0017368D01*
X0437133Y0017324D01*
X0436999Y0017284D01*
X0436864Y0017247D01*
X0436728Y0017215D01*
X0436591Y0017186D01*
X0436453Y0017162D01*
X0436315Y0017141D01*
X0436176Y0017124D01*
X0436036Y0017111D01*
X0435897Y0017102D01*
X0435757Y0017097D01*
X0435617Y0017096D01*
X0435477Y0017099D01*
X0435337Y0017106D01*
X0435198Y0017117D01*
X0435059Y0017132D01*
X0434920Y0017151D01*
X0434782Y0017173D01*
X0434645Y0017200D01*
X0434508Y0017231D01*
X0434373Y0017265D01*
X0434238Y0017303D01*
X0434105Y0017346D01*
X0433973Y0017391D01*
X0433842Y0017441D01*
X0433712Y0017494D01*
X0433585Y0017551D01*
X0433459Y0017612D01*
X0433334Y0017676D01*
X0433212Y0017744D01*
X0433091Y0017815D01*
X0432973Y0017889D01*
X0432857Y0017967D01*
X0432743Y0018048D01*
X0432631Y0018133D01*
X0432522Y0018220D01*
X0432415Y0018310D01*
X0432311Y0018404D01*
X0432210Y0018500D01*
X0432111Y0018600D01*
X0432015Y0018702D01*
X0431923Y0018806D01*
X0431833Y0018914D01*
X0431746Y0019024D01*
X0431663Y0019136D01*
X0431582Y0019250D01*
X0431505Y0019367D01*
X0431432Y0019486D01*
X0431361Y0019607D01*
X0431295Y0019730D01*
X0431231Y0019855D01*
X0431172Y0019981D01*
X0431116Y0020110D01*
X0431063Y0020239D01*
X0431015Y0020370D01*
X0430970Y0020503D01*
X0430929Y0020637D01*
X0430891Y0020772D01*
X0430858Y0020907D01*
X0430828Y0021044D01*
X0430802Y0021182D01*
X0430781Y0021320D01*
X0430763Y0021459D01*
X0430749Y0021598D01*
X0430739Y0021737D01*
X0430733Y0021877D01*
X0430731Y0022017D01*
D11*
X0080928Y0093020D03*
X0080928Y0102363D03*
X0080928Y0111237D03*
X0080928Y0120580D03*
D12*
X0071479Y0129635D03*
X0071479Y0083965D03*
D13*
X0112168Y0104800D03*
X0112168Y0123800D03*
D14*
X0147168Y0122800D03*
X0162168Y0122800D03*
X0162168Y0100800D03*
X0147168Y0100800D03*
X0147168Y0148300D03*
X0162168Y0148300D03*
X0162168Y0170300D03*
X0147168Y0170300D03*
D15*
X0284668Y0186300D02*
X0284668Y0192300D01*
X0294668Y0192300D02*
X0294668Y0186300D01*
X0304668Y0186300D02*
X0304668Y0192300D01*
X0314668Y0192300D02*
X0314668Y0186300D01*
X0436983Y0161308D02*
X0442983Y0161308D01*
X0442983Y0151308D02*
X0436983Y0151308D01*
X0436983Y0141308D02*
X0442983Y0141308D01*
X0442983Y0131308D02*
X0436983Y0131308D01*
X0436983Y0121308D02*
X0442983Y0121308D01*
X0442983Y0085717D02*
X0436983Y0085717D01*
X0436983Y0075717D02*
X0442983Y0075717D01*
X0442983Y0065717D02*
X0436983Y0065717D01*
X0436983Y0055717D02*
X0442983Y0055717D01*
X0442983Y0045717D02*
X0436983Y0045717D01*
X0189668Y0022300D02*
X0189668Y0016300D01*
X0179668Y0016300D02*
X0179668Y0022300D01*
X0169668Y0022300D02*
X0169668Y0016300D01*
X0159668Y0016300D02*
X0159668Y0022300D01*
X0149668Y0022300D02*
X0149668Y0016300D01*
D16*
X0176794Y0143080D03*
X0176794Y0148985D03*
X0176794Y0160796D03*
D17*
X0187620Y0166308D03*
X0187620Y0137568D03*
D18*
X0179353Y0137568D03*
X0179353Y0166308D03*
D19*
X0069117Y0173985D03*
X0069117Y0145639D03*
D20*
X0080140Y0146820D02*
X0080140Y0142064D01*
X0080140Y0172804D02*
X0080140Y0177560D01*
D21*
X0079648Y0164930D03*
X0079648Y0162371D03*
X0079648Y0159812D03*
X0079648Y0157253D03*
X0079648Y0154694D03*
D22*
X0068723Y0156859D03*
X0068723Y0162765D03*
D23*
X0074860Y0162765D01*
X0074860Y0163594D01*
X0074940Y0163293D01*
X0075191Y0162860D01*
X0075191Y0155425D01*
X0074860Y0155288D01*
X0074860Y0156859D01*
X0068723Y0156859D01*
X0068723Y0156859D01*
X0074860Y0156859D01*
X0074860Y0159117D01*
X0074710Y0159677D01*
X0074632Y0159812D01*
X0074710Y0159947D01*
X0074860Y0160506D01*
X0074860Y0162764D01*
X0068723Y0162764D01*
X0068723Y0158596D01*
X0068723Y0156859D01*
X0068723Y0156859D01*
X0068723Y0162764D01*
X0068723Y0162764D01*
X0068723Y0162765D01*
X0068723Y0162764D01*
X0062586Y0162764D01*
X0062586Y0160506D01*
X0062736Y0159947D01*
X0062814Y0159812D01*
X0062736Y0159677D01*
X0062586Y0159117D01*
X0062586Y0156859D01*
X0062586Y0154601D01*
X0062736Y0154041D01*
X0063025Y0153540D01*
X0063435Y0153130D01*
X0063937Y0152840D01*
X0064238Y0152760D01*
X0063906Y0152760D01*
X0063346Y0152610D01*
X0062844Y0152320D01*
X0062435Y0151911D01*
X0062145Y0151409D01*
X0061995Y0150849D01*
X0061995Y0145639D01*
X0064742Y0145639D01*
X0064742Y0145639D01*
X0064742Y0145639D01*
X0061995Y0145639D01*
X0061995Y0140428D01*
X0062145Y0139868D01*
X0062435Y0139366D01*
X0062844Y0138957D01*
X0063346Y0138667D01*
X0063906Y0138517D01*
X0069116Y0138517D01*
X0069116Y0142257D01*
X0069117Y0142257D01*
X0069117Y0138517D01*
X0074327Y0138517D01*
X0074887Y0138667D01*
X0075389Y0138957D01*
X0075798Y0139366D01*
X0076088Y0139868D01*
X0076099Y0139911D01*
X0076225Y0139664D01*
X0076648Y0139081D01*
X0077158Y0138572D01*
X0077741Y0138148D01*
X0078383Y0137821D01*
X0079068Y0137599D01*
X0079780Y0137486D01*
X0080140Y0137486D01*
X0080140Y0146820D01*
X0080140Y0146820D01*
X0080140Y0137486D01*
X0080500Y0137486D01*
X0081212Y0137599D01*
X0081897Y0137821D01*
X0082540Y0138148D01*
X0082658Y0138235D01*
X0082658Y0137344D01*
X0082639Y0137336D01*
X0081632Y0136329D01*
X0081087Y0135012D01*
X0081087Y0133588D01*
X0081632Y0132271D01*
X0082639Y0131264D01*
X0083955Y0130719D01*
X0085380Y0130719D01*
X0086696Y0131264D01*
X0087704Y0132271D01*
X0088249Y0133588D01*
X0088249Y0135012D01*
X0087858Y0135955D01*
X0087858Y0150486D01*
X0087462Y0151442D01*
X0084105Y0154799D01*
X0084105Y0154853D01*
X0085721Y0154853D01*
X0089768Y0150806D01*
X0089768Y0129464D01*
X0089132Y0128829D01*
X0088587Y0127512D01*
X0088587Y0126088D01*
X0089132Y0124771D01*
X0090139Y0123764D01*
X0091455Y0123219D01*
X0092880Y0123219D01*
X0094196Y0123764D01*
X0094768Y0124336D01*
X0094768Y0122231D01*
X0086374Y0113837D01*
X0085804Y0113837D01*
X0085590Y0114352D01*
X0084245Y0115697D01*
X0084771Y0116079D01*
X0085428Y0116736D01*
X0085974Y0117487D01*
X0086395Y0118315D01*
X0086682Y0119198D01*
X0086828Y0120115D01*
X0086828Y0120579D01*
X0080928Y0120579D01*
X0080928Y0120580D01*
X0080927Y0120580D01*
X0080927Y0120579D01*
X0075028Y0120579D01*
X0075028Y0120115D01*
X0075173Y0119198D01*
X0075460Y0118315D01*
X0075881Y0117487D01*
X0076427Y0116736D01*
X0077084Y0116079D01*
X0077610Y0115697D01*
X0076265Y0114352D01*
X0075428Y0112331D01*
X0075428Y0110143D01*
X0076265Y0108122D01*
X0077586Y0106800D01*
X0076265Y0105478D01*
X0075428Y0103457D01*
X0075428Y0101269D01*
X0076265Y0099247D01*
X0077812Y0097700D01*
X0077833Y0097692D01*
X0077812Y0097683D01*
X0076265Y0096136D01*
X0075428Y0094114D01*
X0075428Y0091926D01*
X0075826Y0090965D01*
X0073096Y0092096D01*
X0069861Y0092096D01*
X0066873Y0090858D01*
X0064586Y0088571D01*
X0063348Y0085583D01*
X0063348Y0082348D01*
X0064586Y0079360D01*
X0066873Y0077072D01*
X0069861Y0075835D01*
X0073096Y0075835D01*
X0076084Y0077072D01*
X0078372Y0079360D01*
X0079609Y0082348D01*
X0079609Y0085583D01*
X0078594Y0088034D01*
X0079834Y0087520D01*
X0082022Y0087520D01*
X0084043Y0088358D01*
X0085590Y0089905D01*
X0086428Y0091926D01*
X0086428Y0094114D01*
X0085590Y0096136D01*
X0084043Y0097683D01*
X0084022Y0097692D01*
X0084043Y0097700D01*
X0085590Y0099247D01*
X0085756Y0099648D01*
X0103587Y0083985D01*
X0103587Y0083588D01*
X0104132Y0082271D01*
X0104568Y0081836D01*
X0104568Y0072441D01*
X0104116Y0071989D01*
X0103568Y0070666D01*
X0103568Y0069234D01*
X0104116Y0067910D01*
X0105128Y0066898D01*
X0106452Y0066350D01*
X0107884Y0066350D01*
X0109207Y0066898D01*
X0110220Y0067910D01*
X0110768Y0069234D01*
X0110768Y0070666D01*
X0110220Y0071989D01*
X0109768Y0072441D01*
X0109768Y0081836D01*
X0110204Y0082271D01*
X0110749Y0083588D01*
X0110749Y0085012D01*
X0110204Y0086329D01*
X0109196Y0087336D01*
X0107880Y0087881D01*
X0107031Y0087881D01*
X0088384Y0104261D01*
X0088077Y0104567D01*
X0087997Y0104600D01*
X0087932Y0104658D01*
X0087522Y0104797D01*
X0087122Y0104963D01*
X0087035Y0104963D01*
X0086953Y0104991D01*
X0086521Y0104963D01*
X0085804Y0104963D01*
X0085590Y0105478D01*
X0084269Y0106800D01*
X0085590Y0108122D01*
X0085804Y0108637D01*
X0086727Y0108637D01*
X0112068Y0085648D01*
X0112068Y0071791D01*
X0111616Y0071339D01*
X0111068Y0070016D01*
X0111068Y0068584D01*
X0111616Y0067261D01*
X0112628Y0066248D01*
X0113952Y0065700D01*
X0115384Y0065700D01*
X0116707Y0066248D01*
X0117720Y0067261D01*
X0118268Y0068584D01*
X0118268Y0070016D01*
X0117720Y0071339D01*
X0117268Y0071791D01*
X0117268Y0086348D01*
X0117290Y0086410D01*
X0117268Y0086863D01*
X0117268Y0087317D01*
X0117243Y0087378D01*
X0117239Y0087443D01*
X0117046Y0087853D01*
X0116872Y0088273D01*
X0116826Y0088319D01*
X0116798Y0088378D01*
X0116462Y0088683D01*
X0116140Y0089004D01*
X0116080Y0089029D01*
X0091056Y0111731D01*
X0099202Y0119878D01*
X0099568Y0120760D01*
X0099568Y0152277D01*
X0099202Y0153159D01*
X0091191Y0161171D01*
X0090515Y0161846D01*
X0089633Y0162212D01*
X0084105Y0162212D01*
X0084105Y0162860D01*
X0084356Y0163293D01*
X0084505Y0163853D01*
X0084505Y0164930D01*
X0084505Y0166007D01*
X0084356Y0166566D01*
X0084066Y0167068D01*
X0083656Y0167478D01*
X0083155Y0167767D01*
X0082595Y0167917D01*
X0080175Y0167917D01*
X0080175Y0168201D01*
X0080164Y0168226D01*
X0080500Y0168226D01*
X0081212Y0168339D01*
X0081897Y0168561D01*
X0082540Y0168889D01*
X0083122Y0169312D01*
X0083632Y0169822D01*
X0084056Y0170405D01*
X0084383Y0171047D01*
X0084605Y0171732D01*
X0084718Y0172444D01*
X0084718Y0172804D01*
X0084718Y0177920D01*
X0084605Y0178632D01*
X0084383Y0179317D01*
X0084056Y0179959D01*
X0083632Y0180542D01*
X0083122Y0181052D01*
X0082540Y0181475D01*
X0081897Y0181802D01*
X0081212Y0182025D01*
X0080500Y0182138D01*
X0080140Y0182138D01*
X0079780Y0182138D01*
X0079068Y0182025D01*
X0078383Y0181802D01*
X0077741Y0181475D01*
X0077158Y0181052D01*
X0076648Y0180542D01*
X0076225Y0179959D01*
X0076099Y0179713D01*
X0076088Y0179755D01*
X0075798Y0180257D01*
X0075389Y0180667D01*
X0074887Y0180956D01*
X0074327Y0181106D01*
X0069117Y0181106D01*
X0069117Y0177366D01*
X0069116Y0177366D01*
X0069116Y0181106D01*
X0063906Y0181106D01*
X0063346Y0180956D01*
X0062844Y0180667D01*
X0062435Y0180257D01*
X0062145Y0179755D01*
X0061995Y0179196D01*
X0061995Y0173985D01*
X0061995Y0168774D01*
X0062145Y0168215D01*
X0062435Y0167713D01*
X0062844Y0167303D01*
X0063346Y0167014D01*
X0063906Y0166864D01*
X0064238Y0166864D01*
X0063937Y0166783D01*
X0063435Y0166494D01*
X0063025Y0166084D01*
X0062736Y0165582D01*
X0062586Y0165023D01*
X0062586Y0162765D01*
X0068723Y0162765D01*
X0068723Y0162602D02*
X0068723Y0162602D01*
X0068723Y0160203D02*
X0068723Y0160203D01*
X0068723Y0157805D02*
X0068723Y0157805D01*
X0068723Y0156859D02*
X0068723Y0156859D01*
X0062586Y0156859D01*
X0068723Y0156859D01*
X0074860Y0157805D02*
X0075191Y0157805D01*
X0075191Y0160203D02*
X0074779Y0160203D01*
X0074860Y0162602D02*
X0075191Y0162602D01*
X0083079Y0164930D02*
X0084505Y0164930D01*
X0083080Y0164930D01*
X0083079Y0164930D01*
X0084505Y0165000D02*
X0123768Y0165000D01*
X0123768Y0162602D02*
X0084105Y0162602D01*
X0092159Y0160203D02*
X0123768Y0160203D01*
X0123768Y0157805D02*
X0094557Y0157805D01*
X0096956Y0155406D02*
X0123768Y0155406D01*
X0123768Y0153008D02*
X0099265Y0153008D01*
X0099568Y0150609D02*
X0123768Y0150609D01*
X0123768Y0148211D02*
X0099568Y0148211D01*
X0099568Y0145812D02*
X0123768Y0145812D01*
X0123768Y0143414D02*
X0099568Y0143414D01*
X0099568Y0141015D02*
X0123768Y0141015D01*
X0123768Y0138617D02*
X0099568Y0138617D01*
X0099568Y0136218D02*
X0123768Y0136218D01*
X0123768Y0133820D02*
X0099568Y0133820D01*
X0099568Y0131421D02*
X0123768Y0131421D01*
X0123768Y0129023D02*
X0099568Y0129023D01*
X0099568Y0126624D02*
X0108769Y0126624D01*
X0108438Y0126292D02*
X0107768Y0124675D01*
X0107768Y0122925D01*
X0108438Y0121308D01*
X0109675Y0120070D01*
X0111292Y0119400D01*
X0113043Y0119400D01*
X0114660Y0120070D01*
X0115898Y0121308D01*
X0116568Y0122925D01*
X0116568Y0124675D01*
X0115898Y0126292D01*
X0114660Y0127530D01*
X0113043Y0128200D01*
X0111292Y0128200D01*
X0109675Y0127530D01*
X0108438Y0126292D01*
X0107768Y0124226D02*
X0099568Y0124226D01*
X0094768Y0124226D02*
X0094658Y0124226D01*
X0089678Y0124226D02*
X0085571Y0124226D01*
X0085428Y0124423D02*
X0084771Y0125080D01*
X0084020Y0125626D01*
X0083192Y0126047D01*
X0082309Y0126334D01*
X0081392Y0126480D01*
X0080928Y0126480D01*
X0080928Y0120580D01*
X0086828Y0120580D01*
X0086828Y0121044D01*
X0086682Y0121961D01*
X0086395Y0122844D01*
X0085974Y0123672D01*
X0085428Y0124423D01*
X0088587Y0126624D02*
X0079032Y0126624D01*
X0078814Y0126096D02*
X0079609Y0128017D01*
X0079609Y0131252D01*
X0078372Y0134240D01*
X0076084Y0136528D01*
X0073096Y0137765D01*
X0069861Y0137765D01*
X0066873Y0136528D01*
X0064586Y0134240D01*
X0063348Y0131252D01*
X0063348Y0128017D01*
X0064586Y0125029D01*
X0066873Y0122742D01*
X0069861Y0121504D01*
X0073096Y0121504D01*
X0075324Y0122427D01*
X0075173Y0121961D01*
X0075028Y0121044D01*
X0075028Y0120580D01*
X0080927Y0120580D01*
X0080927Y0126480D01*
X0080463Y0126480D01*
X0079546Y0126334D01*
X0078814Y0126096D01*
X0080927Y0124226D02*
X0080928Y0124226D01*
X0080927Y0121827D02*
X0080928Y0121827D01*
X0086704Y0121827D02*
X0094364Y0121827D01*
X0091965Y0119429D02*
X0086719Y0119429D01*
X0085641Y0117030D02*
X0089567Y0117030D01*
X0087168Y0114632D02*
X0085311Y0114632D01*
X0091558Y0112233D02*
X0123768Y0112233D01*
X0123768Y0109834D02*
X0093146Y0109834D01*
X0095790Y0107436D02*
X0108581Y0107436D01*
X0108438Y0107292D02*
X0109675Y0108530D01*
X0111292Y0109200D01*
X0113043Y0109200D01*
X0114660Y0108530D01*
X0115898Y0107292D01*
X0116568Y0105675D01*
X0116568Y0103925D01*
X0115898Y0102308D01*
X0114660Y0101070D01*
X0113043Y0100400D01*
X0111292Y0100400D01*
X0109675Y0101070D01*
X0108438Y0102308D01*
X0107768Y0103925D01*
X0107768Y0105675D01*
X0108438Y0107292D01*
X0107768Y0105037D02*
X0098434Y0105037D01*
X0101078Y0102639D02*
X0108300Y0102639D01*
X0103722Y0100240D02*
X0123768Y0100240D01*
X0123768Y0097842D02*
X0106366Y0097842D01*
X0109010Y0095443D02*
X0123768Y0095443D01*
X0123768Y0093045D02*
X0111653Y0093045D01*
X0114297Y0090646D02*
X0123768Y0090646D01*
X0123768Y0088248D02*
X0116882Y0088248D01*
X0117268Y0085849D02*
X0123768Y0085849D01*
X0123768Y0083451D02*
X0117268Y0083451D01*
X0117268Y0081052D02*
X0123388Y0081052D01*
X0123639Y0081658D02*
X0123006Y0080128D01*
X0123006Y0078480D01*
X0119768Y0075243D01*
X0118924Y0074399D01*
X0118468Y0073297D01*
X0118468Y0038543D01*
X0114418Y0034493D01*
X0114039Y0034336D01*
X0113032Y0033329D01*
X0112487Y0032012D01*
X0112487Y0030588D01*
X0113032Y0029271D01*
X0114039Y0028264D01*
X0115355Y0027719D01*
X0116780Y0027719D01*
X0118096Y0028264D01*
X0119104Y0029271D01*
X0119649Y0030588D01*
X0119649Y0031238D01*
X0124011Y0035601D01*
X0124468Y0036703D01*
X0124468Y0071457D01*
X0128256Y0075246D01*
X0129525Y0075771D01*
X0130696Y0076942D01*
X0131330Y0078472D01*
X0131330Y0080128D01*
X0130696Y0081658D01*
X0130568Y0081786D01*
X0130568Y0106087D01*
X0131455Y0105719D01*
X0132880Y0105719D01*
X0134196Y0106264D01*
X0135204Y0107271D01*
X0135749Y0108588D01*
X0135749Y0110012D01*
X0135204Y0111329D01*
X0134568Y0111964D01*
X0134568Y0129336D01*
X0135139Y0128764D01*
X0136455Y0128219D01*
X0137880Y0128219D01*
X0139196Y0128764D01*
X0139768Y0129336D01*
X0139768Y0096991D01*
X0139116Y0096339D01*
X0138568Y0095016D01*
X0138568Y0093584D01*
X0139116Y0092261D01*
X0140128Y0091248D01*
X0141452Y0090700D01*
X0142884Y0090700D01*
X0144207Y0091248D01*
X0144768Y0091809D01*
X0144768Y0065294D01*
X0142633Y0063159D01*
X0142268Y0062277D01*
X0142268Y0061964D01*
X0141632Y0061329D01*
X0141087Y0060012D01*
X0141087Y0058588D01*
X0141477Y0057645D01*
X0137068Y0060584D01*
X0137068Y0086609D01*
X0137720Y0087261D01*
X0138268Y0088584D01*
X0138268Y0090016D01*
X0137720Y0091339D01*
X0136707Y0092352D01*
X0135384Y0092900D01*
X0133952Y0092900D01*
X0132628Y0092352D01*
X0131616Y0091339D01*
X0131068Y0090016D01*
X0131068Y0088584D01*
X0131616Y0087261D01*
X0132268Y0086609D01*
X0132268Y0059535D01*
X0132221Y0059297D01*
X0132268Y0059062D01*
X0132268Y0058823D01*
X0132360Y0058599D01*
X0132408Y0058361D01*
X0132541Y0058162D01*
X0132633Y0057941D01*
X0132804Y0057769D01*
X0132939Y0057568D01*
X0133139Y0057435D01*
X0133308Y0057265D01*
X0133532Y0057173D01*
X0140639Y0052435D01*
X0140808Y0052265D01*
X0141032Y0052173D01*
X0141234Y0052038D01*
X0141469Y0051992D01*
X0141690Y0051900D01*
X0141933Y0051900D01*
X0142159Y0051855D01*
X0141632Y0051329D01*
X0141087Y0050012D01*
X0141087Y0048588D01*
X0141632Y0047271D01*
X0142639Y0046264D01*
X0143955Y0045719D01*
X0144855Y0045719D01*
X0147268Y0043306D01*
X0147268Y0026501D01*
X0146949Y0026369D01*
X0145598Y0025019D01*
X0144868Y0023255D01*
X0144868Y0015345D01*
X0145598Y0013581D01*
X0146949Y0012231D01*
X0148713Y0011500D01*
X0150622Y0011500D01*
X0152387Y0012231D01*
X0153737Y0013581D01*
X0154468Y0015345D01*
X0154468Y0023255D01*
X0153737Y0025019D01*
X0152387Y0026369D01*
X0152068Y0026501D01*
X0152068Y0043506D01*
X0157268Y0038306D01*
X0157268Y0026501D01*
X0156949Y0026369D01*
X0155598Y0025019D01*
X0154868Y0023255D01*
X0154868Y0015345D01*
X0155598Y0013581D01*
X0156949Y0012231D01*
X0158713Y0011500D01*
X0160622Y0011500D01*
X0162387Y0012231D01*
X0163737Y0013581D01*
X0164468Y0015345D01*
X0164468Y0023255D01*
X0163737Y0025019D01*
X0162387Y0026369D01*
X0162068Y0026501D01*
X0162068Y0039777D01*
X0161702Y0040659D01*
X0161027Y0041335D01*
X0156643Y0045719D01*
X0157355Y0045719D01*
X0165133Y0037941D01*
X0165808Y0037265D01*
X0166690Y0036900D01*
X0173674Y0036900D01*
X0177268Y0033306D01*
X0177268Y0026501D01*
X0176949Y0026369D01*
X0175598Y0025019D01*
X0174868Y0023255D01*
X0174868Y0015345D01*
X0175598Y0013581D01*
X0176949Y0012231D01*
X0178713Y0011500D01*
X0180622Y0011500D01*
X0182387Y0012231D01*
X0183737Y0013581D01*
X0184468Y0015345D01*
X0184468Y0023255D01*
X0183737Y0025019D01*
X0182387Y0026369D01*
X0182068Y0026501D01*
X0182068Y0034777D01*
X0181702Y0035659D01*
X0176027Y0041335D01*
X0175145Y0041700D01*
X0168162Y0041700D01*
X0160749Y0049113D01*
X0160749Y0050012D01*
X0160204Y0051329D01*
X0160163Y0051369D01*
X0163246Y0049828D01*
X0163308Y0049765D01*
X0163671Y0049615D01*
X0164021Y0049440D01*
X0164109Y0049434D01*
X0164190Y0049400D01*
X0164582Y0049400D01*
X0164974Y0049372D01*
X0165057Y0049400D01*
X0234477Y0049400D01*
X0235128Y0048748D01*
X0236452Y0048200D01*
X0237884Y0048200D01*
X0239207Y0048748D01*
X0240220Y0049761D01*
X0240768Y0051084D01*
X0240768Y0052516D01*
X0240220Y0053839D01*
X0239859Y0054200D01*
X0244677Y0054200D01*
X0245128Y0053748D01*
X0246452Y0053200D01*
X0247884Y0053200D01*
X0249207Y0053748D01*
X0250220Y0054761D01*
X0250768Y0056084D01*
X0250768Y0057516D01*
X0250220Y0058839D01*
X0249207Y0059852D01*
X0247884Y0060400D01*
X0246452Y0060400D01*
X0245128Y0059852D01*
X0244677Y0059400D01*
X0223245Y0059400D01*
X0219768Y0062877D01*
X0219768Y0076014D01*
X0220696Y0076942D01*
X0221330Y0078472D01*
X0221330Y0080128D01*
X0220696Y0081658D01*
X0219525Y0082829D01*
X0217996Y0083462D01*
X0217814Y0083462D01*
X0208068Y0093208D01*
X0208068Y0162056D01*
X0208207Y0161720D01*
X0209214Y0160713D01*
X0209693Y0160515D01*
X0209883Y0160324D01*
X0209927Y0160306D01*
X0209961Y0160274D01*
X0210366Y0160124D01*
X0210765Y0159959D01*
X0210812Y0159959D01*
X0210836Y0159950D01*
X0210031Y0158340D01*
X0209964Y0158273D01*
X0209801Y0157880D01*
X0209611Y0157500D01*
X0209604Y0157405D01*
X0209568Y0157317D01*
X0209568Y0156892D01*
X0209538Y0156468D01*
X0209568Y0156378D01*
X0209568Y0143783D01*
X0209964Y0142827D01*
X0239568Y0113223D01*
X0239568Y0081791D01*
X0239116Y0081339D01*
X0238568Y0080016D01*
X0238568Y0078584D01*
X0239116Y0077261D01*
X0240128Y0076248D01*
X0241452Y0075700D01*
X0242884Y0075700D01*
X0244207Y0076248D01*
X0245220Y0077261D01*
X0245768Y0078584D01*
X0245768Y0080016D01*
X0245220Y0081339D01*
X0244768Y0081791D01*
X0244768Y0114817D01*
X0244372Y0115773D01*
X0214768Y0145377D01*
X0214768Y0146609D01*
X0215128Y0146248D01*
X0216452Y0145700D01*
X0217884Y0145700D01*
X0219051Y0146184D01*
X0218568Y0145016D01*
X0218568Y0143584D01*
X0219116Y0142261D01*
X0220128Y0141248D01*
X0221452Y0140700D01*
X0222884Y0140700D01*
X0224051Y0141184D01*
X0223568Y0140016D01*
X0223568Y0138584D01*
X0224116Y0137261D01*
X0225128Y0136248D01*
X0226452Y0135700D01*
X0227884Y0135700D01*
X0229051Y0136184D01*
X0228568Y0135016D01*
X0228568Y0133584D01*
X0229116Y0132261D01*
X0230128Y0131248D01*
X0231452Y0130700D01*
X0232884Y0130700D01*
X0234051Y0131184D01*
X0233568Y0130016D01*
X0233568Y0128584D01*
X0234116Y0127261D01*
X0235128Y0126248D01*
X0236452Y0125700D01*
X0237884Y0125700D01*
X0239051Y0126184D01*
X0238568Y0125016D01*
X0238568Y0123584D01*
X0239116Y0122261D01*
X0240128Y0121248D01*
X0241452Y0120700D01*
X0242884Y0120700D01*
X0244051Y0121184D01*
X0243568Y0120016D01*
X0243568Y0118584D01*
X0244116Y0117261D01*
X0245128Y0116248D01*
X0246452Y0115700D01*
X0247884Y0115700D01*
X0248714Y0116044D01*
X0257068Y0103513D01*
X0257068Y0096985D01*
X0257021Y0096656D01*
X0257068Y0096472D01*
X0257068Y0096283D01*
X0257195Y0095976D01*
X0257277Y0095654D01*
X0257391Y0095502D01*
X0257464Y0095327D01*
X0257699Y0095092D01*
X0272068Y0075933D01*
X0272068Y0074722D01*
X0272038Y0074632D01*
X0272068Y0074208D01*
X0272068Y0073783D01*
X0272104Y0073695D01*
X0272111Y0073600D01*
X0272301Y0073220D01*
X0272464Y0072827D01*
X0272531Y0072760D01*
X0273720Y0070383D01*
X0273568Y0070016D01*
X0273568Y0068584D01*
X0274116Y0067261D01*
X0275128Y0066248D01*
X0276452Y0065700D01*
X0277884Y0065700D01*
X0279207Y0066248D01*
X0280220Y0067261D01*
X0280768Y0068584D01*
X0280768Y0070016D01*
X0280220Y0071339D01*
X0279207Y0072352D01*
X0278377Y0072696D01*
X0277268Y0074914D01*
X0277268Y0076615D01*
X0277315Y0076944D01*
X0277268Y0077128D01*
X0277268Y0077317D01*
X0277141Y0077624D01*
X0277058Y0077946D01*
X0276944Y0078098D01*
X0276872Y0078273D01*
X0276637Y0078508D01*
X0262268Y0097667D01*
X0262268Y0098262D01*
X0262339Y0098033D01*
X0262417Y0097939D01*
X0262464Y0097827D01*
X0262746Y0097545D01*
X0273568Y0084559D01*
X0273568Y0083584D01*
X0274116Y0082261D01*
X0275128Y0081248D01*
X0276452Y0080700D01*
X0277884Y0080700D01*
X0279207Y0081248D01*
X0280220Y0082261D01*
X0280768Y0083584D01*
X0280768Y0085016D01*
X0280220Y0086339D01*
X0279207Y0087352D01*
X0277884Y0087900D01*
X0277552Y0087900D01*
X0267268Y0100241D01*
X0267268Y0103286D01*
X0269801Y0098220D01*
X0269964Y0097827D01*
X0270031Y0097760D01*
X0270073Y0097675D01*
X0270395Y0097396D01*
X0270695Y0097096D01*
X0270783Y0097059D01*
X0270855Y0096997D01*
X0271258Y0096863D01*
X0271651Y0096700D01*
X0271746Y0096700D01*
X0271836Y0096670D01*
X0272260Y0096700D01*
X0274677Y0096700D01*
X0275128Y0096248D01*
X0276452Y0095700D01*
X0277884Y0095700D01*
X0279207Y0096248D01*
X0280220Y0097261D01*
X0280768Y0098584D01*
X0280768Y0100016D01*
X0280220Y0101339D01*
X0279207Y0102352D01*
X0277884Y0102900D01*
X0276452Y0102900D01*
X0275128Y0102352D01*
X0274677Y0101900D01*
X0273775Y0101900D01*
X0269668Y0110114D01*
X0269647Y0110239D01*
X0269438Y0110573D01*
X0269262Y0110925D01*
X0269166Y0111009D01*
X0268626Y0111872D01*
X0268872Y0111815D01*
X0269151Y0111700D01*
X0269372Y0111700D01*
X0269587Y0111650D01*
X0269884Y0111700D01*
X0274677Y0111700D01*
X0275128Y0111248D01*
X0276452Y0110700D01*
X0277884Y0110700D01*
X0279207Y0111248D01*
X0280220Y0112261D01*
X0280768Y0113584D01*
X0280768Y0115016D01*
X0280220Y0116339D01*
X0279207Y0117352D01*
X0277884Y0117900D01*
X0276452Y0117900D01*
X0275128Y0117352D01*
X0274677Y0116900D01*
X0271109Y0116900D01*
X0269662Y0119214D01*
X0270128Y0118748D01*
X0271452Y0118200D01*
X0272884Y0118200D01*
X0274207Y0118748D01*
X0274659Y0119200D01*
X0284413Y0119200D01*
X0284670Y0119149D01*
X0284925Y0119200D01*
X0285185Y0119200D01*
X0285427Y0119300D01*
X0285685Y0119352D01*
X0285901Y0119496D01*
X0286140Y0119596D01*
X0286326Y0119781D01*
X0286544Y0119927D01*
X0286688Y0120144D01*
X0286872Y0120327D01*
X0286972Y0120570D01*
X0291546Y0127430D01*
X0291616Y0127261D01*
X0292068Y0126809D01*
X0292068Y0101791D01*
X0291616Y0101339D01*
X0291068Y0100016D01*
X0291068Y0098584D01*
X0291616Y0097261D01*
X0292268Y0096609D01*
X0292268Y0071991D01*
X0291616Y0071339D01*
X0291068Y0070016D01*
X0291068Y0068584D01*
X0291616Y0067261D01*
X0292068Y0066809D01*
X0292068Y0054555D01*
X0292017Y0054297D01*
X0292068Y0054043D01*
X0292068Y0053783D01*
X0292168Y0053540D01*
X0292220Y0053283D01*
X0292364Y0053067D01*
X0292464Y0052827D01*
X0292649Y0052642D01*
X0292795Y0052424D01*
X0293011Y0052279D01*
X0293195Y0052096D01*
X0293437Y0051995D01*
X0298573Y0048572D01*
X0299116Y0047261D01*
X0300128Y0046248D01*
X0301452Y0045700D01*
X0302884Y0045700D01*
X0304207Y0046248D01*
X0305220Y0047261D01*
X0305768Y0048584D01*
X0305768Y0050016D01*
X0305220Y0051339D01*
X0304207Y0052352D01*
X0302884Y0052900D01*
X0301455Y0052900D01*
X0297268Y0055691D01*
X0297268Y0066809D01*
X0297720Y0067261D01*
X0298268Y0068584D01*
X0298268Y0070016D01*
X0297720Y0071339D01*
X0297068Y0071991D01*
X0297068Y0096609D01*
X0297720Y0097261D01*
X0298268Y0098584D01*
X0298268Y0100016D01*
X0297720Y0101339D01*
X0297268Y0101791D01*
X0297268Y0126809D01*
X0297720Y0127261D01*
X0298268Y0128584D01*
X0298268Y0130016D01*
X0297720Y0131339D01*
X0297068Y0131991D01*
X0297068Y0156609D01*
X0297720Y0157261D01*
X0298268Y0158584D01*
X0298268Y0160016D01*
X0297720Y0161339D01*
X0296707Y0162352D01*
X0295384Y0162900D01*
X0293952Y0162900D01*
X0292628Y0162352D01*
X0292268Y0161991D01*
X0292268Y0176809D01*
X0292720Y0177261D01*
X0293268Y0178584D01*
X0293268Y0180016D01*
X0292720Y0181339D01*
X0292481Y0181578D01*
X0292672Y0181481D01*
X0293450Y0181228D01*
X0294258Y0181100D01*
X0294668Y0181100D01*
X0295077Y0181100D01*
X0295885Y0181228D01*
X0296664Y0181481D01*
X0297393Y0181853D01*
X0298055Y0182334D01*
X0298634Y0182912D01*
X0299115Y0183575D01*
X0299487Y0184304D01*
X0299668Y0184861D01*
X0299849Y0184304D01*
X0300220Y0183575D01*
X0300701Y0182912D01*
X0301280Y0182334D01*
X0301942Y0181853D01*
X0302672Y0181481D01*
X0303450Y0181228D01*
X0304258Y0181100D01*
X0304668Y0181100D01*
X0305077Y0181100D01*
X0305885Y0181228D01*
X0306664Y0181481D01*
X0307393Y0181853D01*
X0308055Y0182334D01*
X0308634Y0182912D01*
X0309115Y0183575D01*
X0309487Y0184304D01*
X0309668Y0184861D01*
X0309849Y0184304D01*
X0310220Y0183575D01*
X0310701Y0182912D01*
X0311280Y0182334D01*
X0311942Y0181853D01*
X0312672Y0181481D01*
X0313450Y0181228D01*
X0314258Y0181100D01*
X0314668Y0181100D01*
X0315077Y0181100D01*
X0315885Y0181228D01*
X0316664Y0181481D01*
X0317393Y0181853D01*
X0318055Y0182334D01*
X0318634Y0182912D01*
X0319115Y0183575D01*
X0319487Y0184304D01*
X0319740Y0185082D01*
X0319868Y0185891D01*
X0319868Y0189300D01*
X0319868Y0192709D01*
X0319740Y0193518D01*
X0319487Y0194296D01*
X0319115Y0195025D01*
X0318634Y0195688D01*
X0318055Y0196266D01*
X0317393Y0196747D01*
X0316664Y0197119D01*
X0315885Y0197372D01*
X0315077Y0197500D01*
X0314668Y0197500D01*
X0314668Y0189300D01*
X0319868Y0189300D01*
X0314668Y0189300D01*
X0314668Y0189300D01*
X0314668Y0189300D01*
X0314668Y0181100D01*
X0314668Y0189300D01*
X0314668Y0189300D01*
X0314668Y0197500D01*
X0314258Y0197500D01*
X0313450Y0197372D01*
X0312672Y0197119D01*
X0311942Y0196747D01*
X0311280Y0196266D01*
X0310701Y0195688D01*
X0310220Y0195025D01*
X0309849Y0194296D01*
X0309668Y0193739D01*
X0309487Y0194296D01*
X0309115Y0195025D01*
X0308634Y0195688D01*
X0308055Y0196266D01*
X0307393Y0196747D01*
X0306664Y0197119D01*
X0305885Y0197372D01*
X0305077Y0197500D01*
X0304668Y0197500D01*
X0304668Y0189300D01*
X0309868Y0189300D01*
X0314668Y0189300D01*
X0304668Y0189300D01*
X0304668Y0189300D01*
X0304668Y0189300D01*
X0304668Y0181100D01*
X0304668Y0189300D01*
X0304668Y0189300D01*
X0304668Y0197500D01*
X0304258Y0197500D01*
X0303450Y0197372D01*
X0302672Y0197119D01*
X0301942Y0196747D01*
X0301280Y0196266D01*
X0300701Y0195688D01*
X0300220Y0195025D01*
X0299849Y0194296D01*
X0299668Y0193739D01*
X0299487Y0194296D01*
X0299115Y0195025D01*
X0298634Y0195688D01*
X0298055Y0196266D01*
X0297393Y0196747D01*
X0296664Y0197119D01*
X0295885Y0197372D01*
X0295077Y0197500D01*
X0294668Y0197500D01*
X0294668Y0189300D01*
X0299868Y0189300D01*
X0304668Y0189300D01*
X0294668Y0189300D01*
X0294668Y0189300D01*
X0294668Y0189300D01*
X0294668Y0181100D01*
X0294668Y0189300D01*
X0294668Y0189300D01*
X0294668Y0197500D01*
X0294258Y0197500D01*
X0293450Y0197372D01*
X0292672Y0197119D01*
X0291942Y0196747D01*
X0291280Y0196266D01*
X0290701Y0195688D01*
X0290220Y0195025D01*
X0289849Y0194296D01*
X0289668Y0193739D01*
X0289487Y0194296D01*
X0289115Y0195025D01*
X0288634Y0195688D01*
X0288055Y0196266D01*
X0287393Y0196747D01*
X0286664Y0197119D01*
X0285885Y0197372D01*
X0285077Y0197500D01*
X0284668Y0197500D01*
X0284668Y0189300D01*
X0289868Y0189300D01*
X0294668Y0189300D01*
X0284668Y0189300D01*
X0284668Y0189300D01*
X0284668Y0181100D01*
X0285077Y0181100D01*
X0285885Y0181228D01*
X0286664Y0181481D01*
X0286855Y0181578D01*
X0286616Y0181339D01*
X0286068Y0180016D01*
X0286068Y0178584D01*
X0286616Y0177261D01*
X0287068Y0176809D01*
X0287068Y0156900D01*
X0274659Y0156900D01*
X0274207Y0157352D01*
X0272884Y0157900D01*
X0271452Y0157900D01*
X0270128Y0157352D01*
X0269116Y0156339D01*
X0268568Y0155016D01*
X0268568Y0153584D01*
X0269116Y0152261D01*
X0270128Y0151248D01*
X0271452Y0150700D01*
X0272884Y0150700D01*
X0274207Y0151248D01*
X0274659Y0151700D01*
X0287068Y0151700D01*
X0287068Y0130087D01*
X0283276Y0124400D01*
X0274659Y0124400D01*
X0274207Y0124852D01*
X0272884Y0125400D01*
X0271452Y0125400D01*
X0270128Y0124852D01*
X0269116Y0123839D01*
X0268568Y0122516D01*
X0268568Y0121084D01*
X0268713Y0120733D01*
X0260564Y0133772D01*
X0264891Y0128002D01*
X0264964Y0127827D01*
X0265199Y0127592D01*
X0265398Y0127326D01*
X0265561Y0127230D01*
X0265695Y0127096D01*
X0266002Y0126969D01*
X0266288Y0126799D01*
X0266476Y0126772D01*
X0266651Y0126700D01*
X0266983Y0126700D01*
X0267312Y0126653D01*
X0267495Y0126700D01*
X0274677Y0126700D01*
X0275128Y0126248D01*
X0276452Y0125700D01*
X0277884Y0125700D01*
X0279207Y0126248D01*
X0280220Y0127261D01*
X0280768Y0128584D01*
X0280768Y0130016D01*
X0280220Y0131339D01*
X0279207Y0132352D01*
X0277884Y0132900D01*
X0276452Y0132900D01*
X0275128Y0132352D01*
X0274677Y0131900D01*
X0268468Y0131900D01*
X0262356Y0140049D01*
X0263128Y0139663D01*
X0263195Y0139596D01*
X0263587Y0139433D01*
X0263968Y0139243D01*
X0264063Y0139236D01*
X0264151Y0139200D01*
X0264575Y0139200D01*
X0264999Y0139170D01*
X0265090Y0139200D01*
X0267177Y0139200D01*
X0267628Y0138748D01*
X0268952Y0138200D01*
X0270384Y0138200D01*
X0271707Y0138748D01*
X0272720Y0139761D01*
X0273268Y0141084D01*
X0273268Y0142516D01*
X0272720Y0143839D01*
X0272359Y0144200D01*
X0274677Y0144200D01*
X0275128Y0143748D01*
X0276452Y0143200D01*
X0277884Y0143200D01*
X0279207Y0143748D01*
X0280220Y0144761D01*
X0280768Y0146084D01*
X0280768Y0147516D01*
X0280220Y0148839D01*
X0279207Y0149852D01*
X0277884Y0150400D01*
X0276452Y0150400D01*
X0275128Y0149852D01*
X0274677Y0149400D01*
X0270090Y0149400D01*
X0263077Y0151737D01*
X0262685Y0151900D01*
X0262590Y0151900D01*
X0262499Y0151930D01*
X0262075Y0151900D01*
X0219659Y0151900D01*
X0219207Y0152352D01*
X0217884Y0152900D01*
X0216452Y0152900D01*
X0215128Y0152352D01*
X0214768Y0151991D01*
X0214768Y0156186D01*
X0216275Y0159200D01*
X0246746Y0159200D01*
X0246836Y0159170D01*
X0247260Y0159200D01*
X0247685Y0159200D01*
X0247773Y0159236D01*
X0247868Y0159243D01*
X0248248Y0159433D01*
X0248640Y0159596D01*
X0248708Y0159663D01*
X0253248Y0161933D01*
X0253640Y0162096D01*
X0253708Y0162163D01*
X0253793Y0162206D01*
X0254071Y0162527D01*
X0254372Y0162827D01*
X0254408Y0162915D01*
X0254471Y0162987D01*
X0254605Y0163390D01*
X0254768Y0163783D01*
X0254768Y0163878D01*
X0254798Y0163968D01*
X0254768Y0164392D01*
X0254768Y0182693D01*
X0257781Y0184200D01*
X0264677Y0184200D01*
X0265128Y0183748D01*
X0266452Y0183200D01*
X0267884Y0183200D01*
X0269207Y0183748D01*
X0270220Y0184761D01*
X0270768Y0186084D01*
X0270768Y0187516D01*
X0270220Y0188839D01*
X0269207Y0189852D01*
X0267884Y0190400D01*
X0266452Y0190400D01*
X0265128Y0189852D01*
X0264677Y0189400D01*
X0257590Y0189400D01*
X0257499Y0189430D01*
X0257075Y0189400D01*
X0256651Y0189400D01*
X0256563Y0189364D01*
X0256468Y0189357D01*
X0256087Y0189167D01*
X0255695Y0189004D01*
X0255628Y0188937D01*
X0251087Y0186667D01*
X0250695Y0186504D01*
X0250628Y0186437D01*
X0250542Y0186394D01*
X0250264Y0186073D01*
X0249964Y0185773D01*
X0249927Y0185685D01*
X0249865Y0185613D01*
X0249730Y0185210D01*
X0249568Y0184817D01*
X0249568Y0184722D01*
X0249538Y0184632D01*
X0249568Y0184208D01*
X0249568Y0165907D01*
X0246554Y0164400D01*
X0214824Y0164400D01*
X0214824Y0164461D01*
X0214278Y0165777D01*
X0213271Y0166785D01*
X0211955Y0167330D01*
X0210530Y0167330D01*
X0209214Y0166785D01*
X0208207Y0165777D01*
X0208068Y0165442D01*
X0208068Y0169200D01*
X0234677Y0169200D01*
X0235128Y0168748D01*
X0236452Y0168200D01*
X0237884Y0168200D01*
X0239207Y0168748D01*
X0240220Y0169761D01*
X0240768Y0171084D01*
X0240768Y0172516D01*
X0240220Y0173839D01*
X0239207Y0174852D01*
X0237884Y0175400D01*
X0236452Y0175400D01*
X0235128Y0174852D01*
X0234677Y0174400D01*
X0207954Y0174400D01*
X0207025Y0175329D01*
X0205496Y0175962D01*
X0203840Y0175962D01*
X0202310Y0175329D01*
X0201139Y0174158D01*
X0200506Y0172628D01*
X0200506Y0170972D01*
X0201139Y0169442D01*
X0201268Y0169314D01*
X0201268Y0091124D01*
X0201785Y0089874D01*
X0213006Y0078654D01*
X0149568Y0078654D01*
X0149568Y0081052D02*
X0210607Y0081052D01*
X0213006Y0078654D02*
X0213006Y0078472D01*
X0213639Y0076942D01*
X0214568Y0076014D01*
X0214568Y0061283D01*
X0214964Y0060327D01*
X0219964Y0055327D01*
X0220695Y0054596D01*
X0221651Y0054200D01*
X0234477Y0054200D01*
X0234477Y0054200D01*
X0165234Y0054200D01*
X0161089Y0056272D01*
X0161027Y0056335D01*
X0160665Y0056485D01*
X0160314Y0056660D01*
X0160226Y0056666D01*
X0160145Y0056700D01*
X0159753Y0056700D01*
X0159362Y0056728D01*
X0159278Y0056700D01*
X0147132Y0056700D01*
X0147704Y0057271D01*
X0148249Y0058588D01*
X0148249Y0060012D01*
X0147704Y0061329D01*
X0147647Y0061385D01*
X0148527Y0062265D01*
X0149202Y0062941D01*
X0149568Y0063823D01*
X0149568Y0096154D01*
X0150468Y0097054D01*
X0150468Y0104546D01*
X0149568Y0105446D01*
X0149568Y0118154D01*
X0150468Y0119054D01*
X0150468Y0121474D01*
X0151863Y0121997D01*
X0152174Y0122070D01*
X0152306Y0122164D01*
X0152457Y0122220D01*
X0152691Y0122439D01*
X0155840Y0124688D01*
X0156027Y0124765D01*
X0156224Y0124962D01*
X0156451Y0125125D01*
X0156559Y0125297D01*
X0156702Y0125441D01*
X0156809Y0125698D01*
X0156957Y0125935D01*
X0156990Y0126135D01*
X0157068Y0126323D01*
X0157068Y0126601D01*
X0157114Y0126876D01*
X0157068Y0127074D01*
X0157068Y0129136D01*
X0157704Y0129771D01*
X0158249Y0131088D01*
X0158249Y0132512D01*
X0157704Y0133829D01*
X0156696Y0134836D01*
X0155380Y0135381D01*
X0153955Y0135381D01*
X0152639Y0134836D01*
X0151632Y0133829D01*
X0151087Y0132512D01*
X0151087Y0131088D01*
X0151632Y0129771D01*
X0152268Y0129136D01*
X0152268Y0128035D01*
X0150349Y0126664D01*
X0149413Y0127600D01*
X0144922Y0127600D01*
X0144568Y0127246D01*
X0144568Y0143854D01*
X0144922Y0143500D01*
X0149413Y0143500D01*
X0150468Y0144554D01*
X0150468Y0152046D01*
X0149568Y0152946D01*
X0149568Y0165654D01*
X0150468Y0166554D01*
X0150468Y0174046D01*
X0150432Y0174081D01*
X0150466Y0174393D01*
X0150540Y0174749D01*
X0150518Y0174864D01*
X0150531Y0174981D01*
X0150429Y0175330D01*
X0150361Y0175687D01*
X0150297Y0175785D01*
X0149973Y0176897D01*
X0153765Y0176897D01*
X0152639Y0176430D01*
X0151632Y0175423D01*
X0151087Y0174107D01*
X0151087Y0172682D01*
X0151632Y0171366D01*
X0152639Y0170359D01*
X0153955Y0169813D01*
X0155380Y0169813D01*
X0155622Y0169913D01*
X0156342Y0169446D01*
X0156679Y0169202D01*
X0156740Y0169187D01*
X0156793Y0169153D01*
X0157203Y0169077D01*
X0158868Y0168681D01*
X0158868Y0166554D01*
X0159768Y0165654D01*
X0159768Y0152946D01*
X0158868Y0152046D01*
X0158868Y0144554D01*
X0159768Y0143654D01*
X0159768Y0134464D01*
X0159132Y0133829D01*
X0158587Y0132512D01*
X0158587Y0131088D01*
X0159132Y0129771D01*
X0160139Y0128764D01*
X0161455Y0128219D01*
X0162880Y0128219D01*
X0164196Y0128764D01*
X0165204Y0129771D01*
X0165749Y0131088D01*
X0165749Y0132512D01*
X0165204Y0133829D01*
X0164568Y0134464D01*
X0164568Y0143654D01*
X0165468Y0144554D01*
X0165468Y0146385D01*
X0172517Y0146385D01*
X0172870Y0146032D01*
X0172041Y0145203D01*
X0172041Y0140956D01*
X0173095Y0139902D01*
X0175978Y0139902D01*
X0175978Y0134854D01*
X0177032Y0133799D01*
X0181010Y0133799D01*
X0181283Y0133525D01*
X0181283Y0091610D01*
X0180648Y0090974D01*
X0180102Y0089658D01*
X0180102Y0088233D01*
X0180648Y0086917D01*
X0181655Y0085910D01*
X0182971Y0085365D01*
X0184396Y0085365D01*
X0185712Y0085910D01*
X0186719Y0086917D01*
X0187265Y0088233D01*
X0187265Y0089658D01*
X0186719Y0090974D01*
X0186083Y0091610D01*
X0186083Y0133525D01*
X0186357Y0133799D01*
X0189547Y0133799D01*
X0190602Y0134854D01*
X0190602Y0140282D01*
X0189547Y0141336D01*
X0185694Y0141336D01*
X0184639Y0140282D01*
X0184639Y0139670D01*
X0184396Y0139771D01*
X0182971Y0139771D01*
X0182728Y0139670D01*
X0182728Y0140282D01*
X0181673Y0141336D01*
X0181546Y0141336D01*
X0181546Y0142619D01*
X0182893Y0142061D01*
X0184473Y0142061D01*
X0185933Y0142665D01*
X0187050Y0143783D01*
X0187655Y0145242D01*
X0187655Y0146822D01*
X0187050Y0148282D01*
X0185933Y0149399D01*
X0184473Y0150004D01*
X0182893Y0150004D01*
X0181546Y0149446D01*
X0181546Y0151109D01*
X0180492Y0152163D01*
X0173095Y0152163D01*
X0172517Y0151585D01*
X0165468Y0151585D01*
X0165468Y0152046D01*
X0164568Y0152946D01*
X0164568Y0165654D01*
X0165468Y0166554D01*
X0165468Y0166849D01*
X0165731Y0166213D01*
X0166463Y0165482D01*
X0172041Y0159903D01*
X0172041Y0158673D01*
X0173095Y0157618D01*
X0179712Y0157618D01*
X0179712Y0157053D01*
X0180316Y0155594D01*
X0181434Y0154476D01*
X0182893Y0153872D01*
X0184473Y0153872D01*
X0185933Y0154476D01*
X0187050Y0155594D01*
X0187655Y0157053D01*
X0187655Y0158633D01*
X0187050Y0160093D01*
X0185933Y0161210D01*
X0184473Y0161815D01*
X0182893Y0161815D01*
X0181546Y0161257D01*
X0181546Y0162539D01*
X0181673Y0162539D01*
X0182728Y0163594D01*
X0182728Y0169022D01*
X0181673Y0170076D01*
X0177032Y0170076D01*
X0175978Y0169022D01*
X0175978Y0163974D01*
X0175324Y0163974D01*
X0170535Y0168763D01*
X0170535Y0176077D01*
X0170140Y0177033D01*
X0166203Y0180970D01*
X0165471Y0181701D01*
X0164516Y0182097D01*
X0149042Y0182097D01*
X0148803Y0182336D01*
X0147486Y0182881D01*
X0146643Y0182881D01*
X0150662Y0186900D01*
X0163342Y0186900D01*
X0163938Y0186303D01*
X0165255Y0185758D01*
X0166679Y0185758D01*
X0167995Y0186303D01*
X0168592Y0186900D01*
X0185615Y0186900D01*
X0186085Y0186899D01*
X0186087Y0186900D01*
X0186090Y0186900D01*
X0186185Y0186939D01*
X0221937Y0186939D01*
X0222628Y0186248D01*
X0223952Y0185700D01*
X0225384Y0185700D01*
X0226707Y0186248D01*
X0227720Y0187261D01*
X0228268Y0188584D01*
X0228268Y0190016D01*
X0227720Y0191339D01*
X0226707Y0192352D01*
X0225384Y0192900D01*
X0223952Y0192900D01*
X0222628Y0192352D01*
X0222016Y0191739D01*
X0168631Y0191739D01*
X0167995Y0192375D01*
X0166679Y0192920D01*
X0165255Y0192920D01*
X0163938Y0192375D01*
X0163263Y0191700D01*
X0149190Y0191700D01*
X0148308Y0191335D01*
X0147633Y0190659D01*
X0140808Y0183835D01*
X0140133Y0183159D01*
X0139768Y0182277D01*
X0139768Y0134264D01*
X0139196Y0134836D01*
X0138421Y0135157D01*
X0138190Y0135742D01*
X0138190Y0187482D01*
X0138826Y0188118D01*
X0139371Y0189434D01*
X0139371Y0190859D01*
X0138826Y0192175D01*
X0137818Y0193182D01*
X0136502Y0193728D01*
X0135077Y0193728D01*
X0133761Y0193182D01*
X0132754Y0192175D01*
X0132209Y0190859D01*
X0132209Y0189434D01*
X0132754Y0188118D01*
X0133390Y0187482D01*
X0133390Y0140564D01*
X0132880Y0140775D01*
X0131455Y0140775D01*
X0130568Y0140407D01*
X0130568Y0176814D01*
X0130696Y0176942D01*
X0131330Y0178472D01*
X0131330Y0180128D01*
X0130696Y0181658D01*
X0129525Y0182829D01*
X0127996Y0183462D01*
X0126340Y0183462D01*
X0124810Y0182829D01*
X0123639Y0181658D01*
X0123006Y0180128D01*
X0123006Y0178472D01*
X0123639Y0176942D01*
X0123768Y0176814D01*
X0123768Y0081786D01*
X0123639Y0081658D01*
X0123006Y0078654D02*
X0117268Y0078654D01*
X0112068Y0078654D02*
X0109768Y0078654D01*
X0109768Y0081052D02*
X0112068Y0081052D01*
X0112068Y0083451D02*
X0110692Y0083451D01*
X0110402Y0085849D02*
X0111846Y0085849D01*
X0109202Y0088248D02*
X0106613Y0088248D01*
X0106558Y0090646D02*
X0103883Y0090646D01*
X0098734Y0088248D02*
X0083778Y0088248D01*
X0085897Y0090646D02*
X0096003Y0090646D01*
X0093273Y0093045D02*
X0086428Y0093045D01*
X0085877Y0095443D02*
X0090542Y0095443D01*
X0087812Y0097842D02*
X0084185Y0097842D01*
X0077670Y0097842D02*
X0075450Y0097842D01*
X0075450Y0097073D02*
X0074786Y0095469D01*
X0073558Y0094241D01*
X0071953Y0093576D01*
X0070217Y0093576D01*
X0068612Y0094241D01*
X0067384Y0095469D01*
X0066720Y0097073D01*
X0066720Y0098810D01*
X0067384Y0100415D01*
X0068612Y0101642D01*
X0070217Y0102307D01*
X0071953Y0102307D01*
X0073558Y0101642D01*
X0074786Y0100415D01*
X0075450Y0098810D01*
X0075450Y0097073D01*
X0075978Y0095443D02*
X0074760Y0095443D01*
X0075428Y0093045D02*
X0061868Y0093045D01*
X0061868Y0095443D02*
X0067410Y0095443D01*
X0066720Y0097842D02*
X0061868Y0097842D01*
X0061868Y0100240D02*
X0067312Y0100240D01*
X0061868Y0102639D02*
X0075428Y0102639D01*
X0075854Y0100240D02*
X0074858Y0100240D01*
X0076082Y0105037D02*
X0061868Y0105037D01*
X0061868Y0107436D02*
X0076950Y0107436D01*
X0075555Y0109834D02*
X0061868Y0109834D01*
X0061868Y0112233D02*
X0068337Y0112233D01*
X0068612Y0111957D02*
X0070217Y0111293D01*
X0071953Y0111293D01*
X0073558Y0111957D01*
X0074786Y0113185D01*
X0075450Y0114790D01*
X0075450Y0116527D01*
X0074786Y0118131D01*
X0073558Y0119359D01*
X0071953Y0120024D01*
X0070217Y0120024D01*
X0068612Y0119359D01*
X0067384Y0118131D01*
X0066720Y0116527D01*
X0066720Y0114790D01*
X0067384Y0113185D01*
X0068612Y0111957D01*
X0066785Y0114632D02*
X0061868Y0114632D01*
X0061868Y0117030D02*
X0066928Y0117030D01*
X0068780Y0119429D02*
X0061868Y0119429D01*
X0061868Y0121827D02*
X0069081Y0121827D01*
X0073876Y0121827D02*
X0075152Y0121827D01*
X0075136Y0119429D02*
X0073390Y0119429D01*
X0075242Y0117030D02*
X0076214Y0117030D01*
X0076544Y0114632D02*
X0075385Y0114632D01*
X0075428Y0112233D02*
X0073833Y0112233D01*
X0084905Y0107436D02*
X0088051Y0107436D01*
X0085773Y0105037D02*
X0090695Y0105037D01*
X0090230Y0102639D02*
X0093339Y0102639D01*
X0092961Y0100240D02*
X0095983Y0100240D01*
X0095691Y0097842D02*
X0098627Y0097842D01*
X0098422Y0095443D02*
X0101270Y0095443D01*
X0101152Y0093045D02*
X0103914Y0093045D01*
X0101464Y0085849D02*
X0079499Y0085849D01*
X0079609Y0083451D02*
X0103643Y0083451D01*
X0104568Y0081052D02*
X0079073Y0081052D01*
X0077666Y0078654D02*
X0104568Y0078654D01*
X0104568Y0076255D02*
X0074112Y0076255D01*
X0068846Y0076255D02*
X0061868Y0076255D01*
X0061868Y0073857D02*
X0104568Y0073857D01*
X0103896Y0071458D02*
X0061868Y0071458D01*
X0061868Y0069060D02*
X0103640Y0069060D01*
X0105699Y0066661D02*
X0061868Y0066661D01*
X0061868Y0064263D02*
X0118468Y0064263D01*
X0118468Y0066661D02*
X0117120Y0066661D01*
X0118268Y0069060D02*
X0118468Y0069060D01*
X0118468Y0071458D02*
X0117601Y0071458D01*
X0117268Y0073857D02*
X0118700Y0073857D01*
X0117268Y0076255D02*
X0120780Y0076255D01*
X0121468Y0072700D02*
X0121468Y0037300D01*
X0116068Y0031900D01*
X0112930Y0033082D02*
X0061868Y0033082D01*
X0061868Y0035481D02*
X0115406Y0035481D01*
X0117804Y0037879D02*
X0061868Y0037879D01*
X0061868Y0040278D02*
X0118468Y0040278D01*
X0118468Y0042676D02*
X0061868Y0042676D01*
X0061868Y0045075D02*
X0118468Y0045075D01*
X0118468Y0047473D02*
X0061868Y0047473D01*
X0061868Y0049872D02*
X0118468Y0049872D01*
X0118468Y0052270D02*
X0061868Y0052270D01*
X0061868Y0054669D02*
X0118468Y0054669D01*
X0118468Y0057067D02*
X0061868Y0057067D01*
X0061868Y0059466D02*
X0118468Y0059466D01*
X0118468Y0061864D02*
X0061868Y0061864D01*
X0061868Y0078654D02*
X0065292Y0078654D01*
X0063885Y0081052D02*
X0061868Y0081052D01*
X0061868Y0083451D02*
X0063348Y0083451D01*
X0063459Y0085849D02*
X0061868Y0085849D01*
X0061868Y0088248D02*
X0064452Y0088248D01*
X0066661Y0090646D02*
X0061868Y0090646D01*
X0109768Y0076255D02*
X0112068Y0076255D01*
X0112068Y0073857D02*
X0109768Y0073857D01*
X0110439Y0071458D02*
X0111735Y0071458D01*
X0111068Y0069060D02*
X0110696Y0069060D01*
X0112215Y0066661D02*
X0108636Y0066661D01*
X0121468Y0072700D02*
X0127168Y0078400D01*
X0127168Y0079300D01*
X0130947Y0081052D02*
X0132268Y0081052D01*
X0132268Y0078654D02*
X0131330Y0078654D01*
X0137068Y0078654D02*
X0144768Y0078654D01*
X0144768Y0081052D02*
X0137068Y0081052D01*
X0137068Y0083451D02*
X0144768Y0083451D01*
X0144768Y0085849D02*
X0137068Y0085849D01*
X0138129Y0088248D02*
X0144768Y0088248D01*
X0144768Y0090646D02*
X0138007Y0090646D01*
X0138791Y0093045D02*
X0130568Y0093045D01*
X0130568Y0095443D02*
X0138745Y0095443D01*
X0139768Y0097842D02*
X0130568Y0097842D01*
X0130568Y0100240D02*
X0139768Y0100240D01*
X0139768Y0102639D02*
X0130568Y0102639D01*
X0130568Y0105037D02*
X0139768Y0105037D01*
X0139768Y0107436D02*
X0135272Y0107436D01*
X0135749Y0109834D02*
X0139768Y0109834D01*
X0139768Y0112233D02*
X0134568Y0112233D01*
X0134568Y0114632D02*
X0139768Y0114632D01*
X0139768Y0117030D02*
X0134568Y0117030D01*
X0134568Y0119429D02*
X0139768Y0119429D01*
X0139768Y0121827D02*
X0134568Y0121827D01*
X0134568Y0124226D02*
X0139768Y0124226D01*
X0139768Y0126624D02*
X0134568Y0126624D01*
X0134568Y0129023D02*
X0134881Y0129023D01*
X0139455Y0129023D02*
X0139768Y0129023D01*
X0144568Y0129023D02*
X0152268Y0129023D01*
X0151087Y0131421D02*
X0144568Y0131421D01*
X0144568Y0133820D02*
X0151628Y0133820D01*
X0157707Y0133820D02*
X0159128Y0133820D01*
X0158587Y0131421D02*
X0158249Y0131421D01*
X0157068Y0129023D02*
X0159881Y0129023D01*
X0160378Y0128000D02*
X0159819Y0127850D01*
X0159317Y0127560D01*
X0158907Y0127151D01*
X0158618Y0126649D01*
X0158468Y0126090D01*
X0158468Y0122800D01*
X0158468Y0119510D01*
X0158618Y0118951D01*
X0158907Y0118449D01*
X0159317Y0118040D01*
X0159819Y0117750D01*
X0160378Y0117600D01*
X0162168Y0117600D01*
X0163957Y0117600D01*
X0164517Y0117750D01*
X0165019Y0118040D01*
X0165428Y0118449D01*
X0165718Y0118951D01*
X0165868Y0119510D01*
X0165868Y0122800D01*
X0165868Y0126090D01*
X0165718Y0126649D01*
X0165428Y0127151D01*
X0165019Y0127560D01*
X0164517Y0127850D01*
X0163957Y0128000D01*
X0162168Y0128000D01*
X0162168Y0122800D01*
X0165868Y0122800D01*
X0162168Y0122800D01*
X0162168Y0122800D01*
X0162168Y0117600D01*
X0162168Y0122800D01*
X0162168Y0122800D01*
X0162168Y0122800D01*
X0162168Y0128000D01*
X0160378Y0128000D01*
X0158611Y0126624D02*
X0157071Y0126624D01*
X0158468Y0124226D02*
X0155193Y0124226D01*
X0158468Y0122800D02*
X0162168Y0122800D01*
X0158468Y0122800D01*
X0158468Y0121827D02*
X0151408Y0121827D01*
X0150468Y0119429D02*
X0158490Y0119429D01*
X0162168Y0119429D02*
X0162168Y0119429D01*
X0162168Y0121827D02*
X0162168Y0121827D01*
X0162168Y0122800D02*
X0162168Y0122800D01*
X0162168Y0124226D02*
X0162168Y0124226D01*
X0162168Y0126624D02*
X0162168Y0126624D01*
X0164455Y0129023D02*
X0181283Y0129023D01*
X0181283Y0131421D02*
X0165749Y0131421D01*
X0165207Y0133820D02*
X0177012Y0133820D01*
X0175978Y0136218D02*
X0164568Y0136218D01*
X0159768Y0136218D02*
X0144568Y0136218D01*
X0139768Y0136218D02*
X0138190Y0136218D01*
X0138190Y0138617D02*
X0139768Y0138617D01*
X0139768Y0141015D02*
X0138190Y0141015D01*
X0138190Y0143414D02*
X0139768Y0143414D01*
X0139768Y0145812D02*
X0138190Y0145812D01*
X0138190Y0148211D02*
X0139768Y0148211D01*
X0139768Y0150609D02*
X0138190Y0150609D01*
X0133390Y0150609D02*
X0130568Y0150609D01*
X0130568Y0148211D02*
X0133390Y0148211D01*
X0133390Y0145812D02*
X0130568Y0145812D01*
X0130568Y0143414D02*
X0133390Y0143414D01*
X0133390Y0141015D02*
X0130568Y0141015D01*
X0144568Y0141015D02*
X0159768Y0141015D01*
X0159768Y0138617D02*
X0144568Y0138617D01*
X0144568Y0143414D02*
X0159768Y0143414D01*
X0158868Y0145812D02*
X0150468Y0145812D01*
X0150468Y0148211D02*
X0158868Y0148211D01*
X0158868Y0150609D02*
X0150468Y0150609D01*
X0149568Y0153008D02*
X0159768Y0153008D01*
X0159768Y0155406D02*
X0149568Y0155406D01*
X0149568Y0157805D02*
X0159768Y0157805D01*
X0159768Y0160203D02*
X0149568Y0160203D01*
X0149568Y0162602D02*
X0159768Y0162602D01*
X0159768Y0165000D02*
X0149568Y0165000D01*
X0150468Y0167399D02*
X0158868Y0167399D01*
X0155801Y0169797D02*
X0150468Y0169797D01*
X0150468Y0172196D02*
X0151288Y0172196D01*
X0151289Y0174594D02*
X0150508Y0174594D01*
X0139768Y0174594D02*
X0138190Y0174594D01*
X0138190Y0172196D02*
X0139768Y0172196D01*
X0139768Y0169797D02*
X0138190Y0169797D01*
X0138190Y0167399D02*
X0139768Y0167399D01*
X0133390Y0167399D02*
X0130568Y0167399D01*
X0130568Y0169797D02*
X0133390Y0169797D01*
X0133390Y0172196D02*
X0130568Y0172196D01*
X0130568Y0174594D02*
X0133390Y0174594D01*
X0133390Y0176993D02*
X0130717Y0176993D01*
X0131330Y0179391D02*
X0133390Y0179391D01*
X0138190Y0179391D02*
X0139768Y0179391D01*
X0139768Y0176993D02*
X0138190Y0176993D01*
X0138190Y0181790D02*
X0139768Y0181790D01*
X0141162Y0184188D02*
X0138190Y0184188D01*
X0138190Y0186587D02*
X0143560Y0186587D01*
X0145959Y0188985D02*
X0139185Y0188985D01*
X0139153Y0191384D02*
X0148427Y0191384D01*
X0150349Y0186587D02*
X0163655Y0186587D01*
X0168279Y0186587D02*
X0222290Y0186587D01*
X0227046Y0186587D02*
X0250895Y0186587D01*
X0249568Y0184188D02*
X0147950Y0184188D01*
X0133390Y0184188D02*
X0061868Y0184188D01*
X0061868Y0185402D02*
X0061984Y0187171D01*
X0062899Y0190587D01*
X0064667Y0193650D01*
X0067168Y0196151D01*
X0070231Y0197919D01*
X0073647Y0198834D01*
X0075416Y0198950D01*
X0437620Y0198950D01*
X0439389Y0198834D01*
X0442805Y0197919D01*
X0445868Y0196151D01*
X0448369Y0193650D01*
X0450137Y0190587D01*
X0451053Y0187171D01*
X0451169Y0185402D01*
X0451169Y0020048D01*
X0451053Y0018280D01*
X0451053Y0018280D01*
X0450137Y0014863D01*
X0448369Y0011801D01*
X0445868Y0009300D01*
X0442805Y0007531D01*
X0439389Y0006616D01*
X0437620Y0006500D01*
X0075416Y0006500D01*
X0073647Y0006616D01*
X0070231Y0007531D01*
X0067168Y0009300D01*
X0064667Y0011801D01*
X0062899Y0014863D01*
X0061984Y0018280D01*
X0061868Y0020048D01*
X0061868Y0185402D01*
X0061945Y0186587D02*
X0133390Y0186587D01*
X0132395Y0188985D02*
X0062470Y0188985D01*
X0063359Y0191384D02*
X0132426Y0191384D01*
X0133390Y0181790D02*
X0130564Y0181790D01*
X0123771Y0181790D02*
X0081922Y0181790D01*
X0080140Y0181790D02*
X0080140Y0181790D01*
X0080140Y0182138D02*
X0080140Y0172804D01*
X0080140Y0172804D01*
X0080140Y0182138D01*
X0078358Y0181790D02*
X0061868Y0181790D01*
X0061868Y0179391D02*
X0062048Y0179391D01*
X0061995Y0176993D02*
X0061868Y0176993D01*
X0061868Y0174594D02*
X0061995Y0174594D01*
X0061995Y0173985D02*
X0064742Y0173985D01*
X0061995Y0173985D01*
X0061995Y0172196D02*
X0061868Y0172196D01*
X0061868Y0169797D02*
X0061995Y0169797D01*
X0061868Y0167399D02*
X0062749Y0167399D01*
X0062586Y0165000D02*
X0061868Y0165000D01*
X0061868Y0162602D02*
X0062586Y0162602D01*
X0062667Y0160203D02*
X0061868Y0160203D01*
X0061868Y0157805D02*
X0062586Y0157805D01*
X0062586Y0155406D02*
X0061868Y0155406D01*
X0061868Y0153008D02*
X0063647Y0153008D01*
X0061995Y0150609D02*
X0061868Y0150609D01*
X0061868Y0148211D02*
X0061995Y0148211D01*
X0061995Y0145812D02*
X0061868Y0145812D01*
X0061868Y0143414D02*
X0061995Y0143414D01*
X0061995Y0141015D02*
X0061868Y0141015D01*
X0061868Y0138617D02*
X0063535Y0138617D01*
X0061868Y0136218D02*
X0066564Y0136218D01*
X0064412Y0133820D02*
X0061868Y0133820D01*
X0061868Y0131421D02*
X0063418Y0131421D01*
X0063348Y0129023D02*
X0061868Y0129023D01*
X0061868Y0126624D02*
X0063925Y0126624D01*
X0065389Y0124226D02*
X0061868Y0124226D01*
X0079609Y0129023D02*
X0089326Y0129023D01*
X0089768Y0131421D02*
X0086853Y0131421D01*
X0088249Y0133820D02*
X0089768Y0133820D01*
X0089768Y0136218D02*
X0087858Y0136218D01*
X0087858Y0138617D02*
X0089768Y0138617D01*
X0089768Y0141015D02*
X0087858Y0141015D01*
X0087858Y0143414D02*
X0089768Y0143414D01*
X0089768Y0145812D02*
X0087858Y0145812D01*
X0087858Y0148211D02*
X0089768Y0148211D01*
X0089768Y0150609D02*
X0087807Y0150609D01*
X0087566Y0153008D02*
X0085897Y0153008D01*
X0075145Y0155406D02*
X0074860Y0155406D01*
X0080140Y0145812D02*
X0080140Y0145812D01*
X0080140Y0143414D02*
X0080140Y0143414D01*
X0080140Y0141015D02*
X0080140Y0141015D01*
X0080140Y0138617D02*
X0080140Y0138617D01*
X0077113Y0138617D02*
X0074698Y0138617D01*
X0069117Y0138617D02*
X0069116Y0138617D01*
X0069116Y0141015D02*
X0069117Y0141015D01*
X0076394Y0136218D02*
X0081586Y0136218D01*
X0081087Y0133820D02*
X0078546Y0133820D01*
X0079539Y0131421D02*
X0082482Y0131421D01*
X0099568Y0121827D02*
X0108222Y0121827D01*
X0111224Y0119429D02*
X0098753Y0119429D01*
X0096355Y0117030D02*
X0123768Y0117030D01*
X0123768Y0114632D02*
X0093956Y0114632D01*
X0113112Y0119429D02*
X0123768Y0119429D01*
X0123768Y0121827D02*
X0116113Y0121827D01*
X0116568Y0124226D02*
X0123768Y0124226D01*
X0123768Y0126624D02*
X0115566Y0126624D01*
X0149568Y0117030D02*
X0181283Y0117030D01*
X0181283Y0114632D02*
X0149568Y0114632D01*
X0149568Y0112233D02*
X0181283Y0112233D01*
X0181283Y0109834D02*
X0149568Y0109834D01*
X0149568Y0107436D02*
X0181283Y0107436D01*
X0186083Y0107436D02*
X0201268Y0107436D01*
X0201268Y0109834D02*
X0186083Y0109834D01*
X0186083Y0112233D02*
X0201268Y0112233D01*
X0201268Y0114632D02*
X0186083Y0114632D01*
X0186083Y0117030D02*
X0201268Y0117030D01*
X0201268Y0119429D02*
X0186083Y0119429D01*
X0186083Y0121827D02*
X0201268Y0121827D01*
X0201268Y0124226D02*
X0186083Y0124226D01*
X0186083Y0126624D02*
X0201268Y0126624D01*
X0201268Y0129023D02*
X0186083Y0129023D01*
X0186083Y0131421D02*
X0201268Y0131421D01*
X0201268Y0133820D02*
X0189568Y0133820D01*
X0190602Y0136218D02*
X0201268Y0136218D01*
X0201268Y0138617D02*
X0190602Y0138617D01*
X0189868Y0141015D02*
X0201268Y0141015D01*
X0201268Y0143414D02*
X0186682Y0143414D01*
X0187655Y0145812D02*
X0201268Y0145812D01*
X0201268Y0148211D02*
X0187080Y0148211D01*
X0181546Y0150609D02*
X0201268Y0150609D01*
X0201268Y0153008D02*
X0164568Y0153008D01*
X0164568Y0155406D02*
X0180504Y0155406D01*
X0186863Y0155406D02*
X0201268Y0155406D01*
X0201268Y0157805D02*
X0187655Y0157805D01*
X0186940Y0160203D02*
X0201268Y0160203D01*
X0201268Y0162602D02*
X0189610Y0162602D01*
X0189547Y0162539D02*
X0190602Y0163594D01*
X0190602Y0169022D01*
X0189547Y0170076D01*
X0185694Y0170076D01*
X0184639Y0169022D01*
X0184639Y0163594D01*
X0185694Y0162539D01*
X0189547Y0162539D01*
X0190602Y0165000D02*
X0201268Y0165000D01*
X0201268Y0167399D02*
X0190602Y0167399D01*
X0189826Y0169797D02*
X0200992Y0169797D01*
X0200506Y0172196D02*
X0170535Y0172196D01*
X0170535Y0174594D02*
X0201576Y0174594D01*
X0207760Y0174594D02*
X0234871Y0174594D01*
X0239465Y0174594D02*
X0249568Y0174594D01*
X0249568Y0172196D02*
X0240768Y0172196D01*
X0240235Y0169797D02*
X0249568Y0169797D01*
X0249568Y0167399D02*
X0208068Y0167399D01*
X0214600Y0165000D02*
X0247754Y0165000D01*
X0254146Y0162602D02*
X0257068Y0162602D01*
X0257068Y0165000D02*
X0254768Y0165000D01*
X0254768Y0167399D02*
X0257068Y0167399D01*
X0257068Y0169797D02*
X0254768Y0169797D01*
X0254768Y0172196D02*
X0256681Y0172196D01*
X0256616Y0172261D02*
X0257068Y0171809D01*
X0257068Y0159291D01*
X0256616Y0158839D01*
X0256068Y0157516D01*
X0256068Y0156084D01*
X0256616Y0154761D01*
X0257628Y0153748D01*
X0258952Y0153200D01*
X0260384Y0153200D01*
X0261707Y0153748D01*
X0262720Y0154761D01*
X0263268Y0156084D01*
X0263268Y0157516D01*
X0262784Y0158684D01*
X0263952Y0158200D01*
X0265384Y0158200D01*
X0266707Y0158748D01*
X0267720Y0159761D01*
X0268268Y0161084D01*
X0268268Y0162516D01*
X0267720Y0163839D01*
X0267268Y0164291D01*
X0267268Y0168513D01*
X0275396Y0180705D01*
X0276707Y0181248D01*
X0277720Y0182261D01*
X0278268Y0183584D01*
X0278268Y0185016D01*
X0277720Y0186339D01*
X0276707Y0187352D01*
X0275384Y0187900D01*
X0273952Y0187900D01*
X0272628Y0187352D01*
X0271616Y0186339D01*
X0271068Y0185016D01*
X0271068Y0183587D01*
X0262647Y0170956D01*
X0262464Y0170773D01*
X0262363Y0170530D01*
X0262268Y0170387D01*
X0262268Y0171809D01*
X0262720Y0172261D01*
X0263268Y0173584D01*
X0263268Y0175016D01*
X0262720Y0176339D01*
X0261707Y0177352D01*
X0260384Y0177900D01*
X0258952Y0177900D01*
X0257628Y0177352D01*
X0256616Y0176339D01*
X0256068Y0175016D01*
X0256068Y0173584D01*
X0256616Y0172261D01*
X0256068Y0174594D02*
X0254768Y0174594D01*
X0254768Y0176993D02*
X0257269Y0176993D01*
X0254768Y0179391D02*
X0268270Y0179391D01*
X0266671Y0176993D02*
X0262066Y0176993D01*
X0263268Y0174594D02*
X0265072Y0174594D01*
X0263473Y0172196D02*
X0262655Y0172196D01*
X0268124Y0169797D02*
X0287068Y0169797D01*
X0287068Y0167399D02*
X0267268Y0167399D01*
X0267268Y0165000D02*
X0287068Y0165000D01*
X0287068Y0162602D02*
X0268232Y0162602D01*
X0267903Y0160203D02*
X0287068Y0160203D01*
X0287068Y0157805D02*
X0273114Y0157805D01*
X0271222Y0157805D02*
X0263148Y0157805D01*
X0262987Y0155406D02*
X0268729Y0155406D01*
X0268806Y0153008D02*
X0214768Y0153008D01*
X0214768Y0155406D02*
X0256348Y0155406D01*
X0256187Y0157805D02*
X0215577Y0157805D01*
X0209763Y0157805D02*
X0208068Y0157805D01*
X0208068Y0160203D02*
X0210153Y0160203D01*
X0209568Y0155406D02*
X0208068Y0155406D01*
X0208068Y0153008D02*
X0209568Y0153008D01*
X0209568Y0150609D02*
X0208068Y0150609D01*
X0208068Y0148211D02*
X0209568Y0148211D01*
X0209568Y0145812D02*
X0208068Y0145812D01*
X0208068Y0143414D02*
X0209721Y0143414D01*
X0208068Y0141015D02*
X0211776Y0141015D01*
X0214174Y0138617D02*
X0208068Y0138617D01*
X0208068Y0136218D02*
X0216573Y0136218D01*
X0218971Y0133820D02*
X0208068Y0133820D01*
X0208068Y0131421D02*
X0221370Y0131421D01*
X0223768Y0129023D02*
X0208068Y0129023D01*
X0208068Y0126624D02*
X0226167Y0126624D01*
X0228565Y0124226D02*
X0208068Y0124226D01*
X0208068Y0121827D02*
X0230964Y0121827D01*
X0233362Y0119429D02*
X0208068Y0119429D01*
X0208068Y0117030D02*
X0235761Y0117030D01*
X0238159Y0114632D02*
X0208068Y0114632D01*
X0208068Y0112233D02*
X0239568Y0112233D01*
X0239568Y0109834D02*
X0208068Y0109834D01*
X0208068Y0107436D02*
X0239568Y0107436D01*
X0244768Y0107436D02*
X0254452Y0107436D01*
X0252853Y0109834D02*
X0244768Y0109834D01*
X0244768Y0112233D02*
X0251254Y0112233D01*
X0249655Y0114632D02*
X0244768Y0114632D01*
X0244347Y0117030D02*
X0243115Y0117030D01*
X0243568Y0119429D02*
X0240716Y0119429D01*
X0239549Y0121827D02*
X0238318Y0121827D01*
X0238568Y0124226D02*
X0235919Y0124226D01*
X0234752Y0126624D02*
X0233521Y0126624D01*
X0233568Y0129023D02*
X0231122Y0129023D01*
X0229955Y0131421D02*
X0228724Y0131421D01*
X0228568Y0133820D02*
X0226325Y0133820D01*
X0225201Y0136218D02*
X0223927Y0136218D01*
X0223568Y0138617D02*
X0221528Y0138617D01*
X0220691Y0141015D02*
X0219130Y0141015D01*
X0218638Y0143414D02*
X0216731Y0143414D01*
X0216181Y0145812D02*
X0214768Y0145812D01*
X0218155Y0145812D02*
X0218897Y0145812D01*
X0223645Y0141015D02*
X0223982Y0141015D01*
X0185373Y0141015D02*
X0181994Y0141015D01*
X0175978Y0138617D02*
X0164568Y0138617D01*
X0164568Y0141015D02*
X0172041Y0141015D01*
X0172041Y0143414D02*
X0164568Y0143414D01*
X0165468Y0145812D02*
X0172650Y0145812D01*
X0172909Y0157805D02*
X0164568Y0157805D01*
X0164568Y0160203D02*
X0171741Y0160203D01*
X0169343Y0162602D02*
X0164568Y0162602D01*
X0164568Y0165000D02*
X0166944Y0165000D01*
X0171899Y0167399D02*
X0175978Y0167399D01*
X0176753Y0169797D02*
X0170535Y0169797D01*
X0181952Y0169797D02*
X0185415Y0169797D01*
X0184639Y0167399D02*
X0182728Y0167399D01*
X0182728Y0165000D02*
X0184639Y0165000D01*
X0185631Y0162602D02*
X0181736Y0162602D01*
X0175978Y0165000D02*
X0174298Y0165000D01*
X0170156Y0176993D02*
X0249568Y0176993D01*
X0249568Y0179391D02*
X0167781Y0179391D01*
X0165257Y0181790D02*
X0249568Y0181790D01*
X0254768Y0181790D02*
X0269869Y0181790D01*
X0269647Y0184188D02*
X0271068Y0184188D01*
X0270768Y0186587D02*
X0271863Y0186587D01*
X0270073Y0188985D02*
X0279468Y0188985D01*
X0279468Y0189300D02*
X0279468Y0185891D01*
X0279596Y0185082D01*
X0279849Y0184304D01*
X0280220Y0183575D01*
X0280701Y0182912D01*
X0281280Y0182334D01*
X0281942Y0181853D01*
X0282672Y0181481D01*
X0283450Y0181228D01*
X0284258Y0181100D01*
X0284668Y0181100D01*
X0284668Y0189300D01*
X0284668Y0189300D01*
X0284668Y0189300D01*
X0284668Y0197500D01*
X0284258Y0197500D01*
X0283450Y0197372D01*
X0282672Y0197119D01*
X0281942Y0196747D01*
X0281280Y0196266D01*
X0280701Y0195688D01*
X0280220Y0195025D01*
X0279849Y0194296D01*
X0279596Y0193518D01*
X0279468Y0192709D01*
X0279468Y0189300D01*
X0284668Y0189300D01*
X0284668Y0189300D01*
X0279468Y0189300D01*
X0279468Y0191384D02*
X0227675Y0191384D01*
X0228268Y0188985D02*
X0255676Y0188985D01*
X0257758Y0184188D02*
X0264688Y0184188D01*
X0274520Y0179391D02*
X0286068Y0179391D01*
X0286884Y0176993D02*
X0272921Y0176993D01*
X0271322Y0174594D02*
X0287068Y0174594D01*
X0287068Y0172196D02*
X0269723Y0172196D01*
X0277249Y0181790D02*
X0282065Y0181790D01*
X0284668Y0181790D02*
X0284668Y0181790D01*
X0284668Y0184188D02*
X0284668Y0184188D01*
X0284668Y0186587D02*
X0284668Y0186587D01*
X0284668Y0188985D02*
X0284668Y0188985D01*
X0284668Y0191384D02*
X0284668Y0191384D01*
X0284668Y0193782D02*
X0284668Y0193782D01*
X0289654Y0193782D02*
X0289682Y0193782D01*
X0294668Y0193782D02*
X0294668Y0193782D01*
X0294668Y0191384D02*
X0294668Y0191384D01*
X0294668Y0189300D02*
X0294668Y0189300D01*
X0294668Y0188985D02*
X0294668Y0188985D01*
X0294668Y0186587D02*
X0294668Y0186587D01*
X0294668Y0184188D02*
X0294668Y0184188D01*
X0294668Y0181790D02*
X0294668Y0181790D01*
X0297270Y0181790D02*
X0302065Y0181790D01*
X0304668Y0181790D02*
X0304668Y0181790D01*
X0304668Y0184188D02*
X0304668Y0184188D01*
X0304668Y0186587D02*
X0304668Y0186587D01*
X0304668Y0188985D02*
X0304668Y0188985D01*
X0304668Y0189300D02*
X0304668Y0189300D01*
X0304668Y0191384D02*
X0304668Y0191384D01*
X0304668Y0193782D02*
X0304668Y0193782D01*
X0309654Y0193782D02*
X0309682Y0193782D01*
X0314668Y0193782D02*
X0314668Y0193782D01*
X0314668Y0191384D02*
X0314668Y0191384D01*
X0314668Y0189300D02*
X0314668Y0189300D01*
X0314668Y0188985D02*
X0314668Y0188985D01*
X0314668Y0186587D02*
X0314668Y0186587D01*
X0314668Y0184188D02*
X0314668Y0184188D01*
X0314668Y0181790D02*
X0314668Y0181790D01*
X0317270Y0181790D02*
X0421952Y0181790D01*
X0421952Y0181630D02*
X0422886Y0178146D01*
X0424689Y0175022D01*
X0427240Y0172471D01*
X0430364Y0170667D01*
X0433848Y0169734D01*
X0437456Y0169734D01*
X0440940Y0170667D01*
X0444064Y0172471D01*
X0446615Y0175022D01*
X0448418Y0178146D01*
X0449352Y0181630D01*
X0449352Y0185237D01*
X0448418Y0188722D01*
X0446615Y0191846D01*
X0444064Y0194397D01*
X0440940Y0196200D01*
X0437456Y0197134D01*
X0433848Y0197134D01*
X0430364Y0196200D01*
X0427240Y0194397D01*
X0424689Y0191846D01*
X0422886Y0188722D01*
X0421952Y0185237D01*
X0421952Y0181630D01*
X0422552Y0179391D02*
X0293268Y0179391D01*
X0292452Y0176993D02*
X0423551Y0176993D01*
X0425117Y0174594D02*
X0292268Y0174594D01*
X0292268Y0172196D02*
X0427717Y0172196D01*
X0433612Y0169797D02*
X0292268Y0169797D01*
X0292268Y0167399D02*
X0451169Y0167399D01*
X0451169Y0169797D02*
X0437692Y0169797D01*
X0443587Y0172196D02*
X0451169Y0172196D01*
X0451169Y0174594D02*
X0446187Y0174594D01*
X0447753Y0176993D02*
X0451169Y0176993D01*
X0451169Y0179391D02*
X0448752Y0179391D01*
X0449352Y0181790D02*
X0451169Y0181790D01*
X0451169Y0184188D02*
X0449352Y0184188D01*
X0448990Y0186587D02*
X0451091Y0186587D01*
X0450566Y0188985D02*
X0448266Y0188985D01*
X0446881Y0191384D02*
X0449677Y0191384D01*
X0448236Y0193782D02*
X0444678Y0193782D01*
X0445816Y0196181D02*
X0440973Y0196181D01*
X0440341Y0198579D02*
X0072695Y0198579D01*
X0067220Y0196181D02*
X0281195Y0196181D01*
X0284668Y0196181D02*
X0284668Y0196181D01*
X0288141Y0196181D02*
X0291195Y0196181D01*
X0294668Y0196181D02*
X0294668Y0196181D01*
X0298141Y0196181D02*
X0301195Y0196181D01*
X0304668Y0196181D02*
X0304668Y0196181D01*
X0308141Y0196181D02*
X0311195Y0196181D01*
X0314668Y0196181D02*
X0314668Y0196181D01*
X0318141Y0196181D02*
X0430331Y0196181D01*
X0426626Y0193782D02*
X0319654Y0193782D01*
X0319868Y0191384D02*
X0424423Y0191384D01*
X0423038Y0188985D02*
X0319868Y0188985D01*
X0319868Y0186587D02*
X0422314Y0186587D01*
X0421952Y0184188D02*
X0319428Y0184188D01*
X0312065Y0181790D02*
X0307270Y0181790D01*
X0309428Y0184188D02*
X0309908Y0184188D01*
X0299908Y0184188D02*
X0299428Y0184188D01*
X0299654Y0193782D02*
X0299682Y0193782D01*
X0279682Y0193782D02*
X0064800Y0193782D01*
X0069116Y0179391D02*
X0069117Y0179391D01*
X0064742Y0173985D02*
X0064742Y0173985D01*
X0064742Y0173985D01*
X0080140Y0174594D02*
X0080140Y0174594D01*
X0080140Y0172804D02*
X0084718Y0172804D01*
X0080140Y0172804D01*
X0080140Y0172804D01*
X0084679Y0172196D02*
X0123768Y0172196D01*
X0123768Y0174594D02*
X0084718Y0174594D01*
X0084718Y0176993D02*
X0123618Y0176993D01*
X0123006Y0179391D02*
X0084345Y0179391D01*
X0080140Y0179391D02*
X0080140Y0179391D01*
X0080140Y0176993D02*
X0080140Y0176993D01*
X0083608Y0169797D02*
X0123768Y0169797D01*
X0123768Y0167399D02*
X0083735Y0167399D01*
X0130568Y0165000D02*
X0133390Y0165000D01*
X0133390Y0162602D02*
X0130568Y0162602D01*
X0130568Y0160203D02*
X0133390Y0160203D01*
X0133390Y0157805D02*
X0130568Y0157805D01*
X0130568Y0155406D02*
X0133390Y0155406D01*
X0133390Y0153008D02*
X0130568Y0153008D01*
X0138190Y0153008D02*
X0139768Y0153008D01*
X0139768Y0155406D02*
X0138190Y0155406D01*
X0138190Y0157805D02*
X0139768Y0157805D01*
X0139768Y0160203D02*
X0138190Y0160203D01*
X0138190Y0162602D02*
X0139768Y0162602D01*
X0139768Y0165000D02*
X0138190Y0165000D01*
X0165725Y0126624D02*
X0181283Y0126624D01*
X0181283Y0124226D02*
X0165868Y0124226D01*
X0165868Y0121827D02*
X0181283Y0121827D01*
X0181283Y0119429D02*
X0165846Y0119429D01*
X0163957Y0106000D02*
X0162168Y0106000D01*
X0162168Y0100800D01*
X0165868Y0100800D01*
X0165868Y0104090D01*
X0165718Y0104649D01*
X0165428Y0105151D01*
X0165019Y0105560D01*
X0164517Y0105850D01*
X0163957Y0106000D01*
X0162168Y0106000D02*
X0160378Y0106000D01*
X0159819Y0105850D01*
X0159317Y0105560D01*
X0158907Y0105151D01*
X0158618Y0104649D01*
X0158468Y0104090D01*
X0158468Y0100800D01*
X0158468Y0097510D01*
X0158618Y0096951D01*
X0158907Y0096449D01*
X0159317Y0096040D01*
X0159819Y0095750D01*
X0160378Y0095600D01*
X0162168Y0095600D01*
X0163957Y0095600D01*
X0164517Y0095750D01*
X0165019Y0096040D01*
X0165428Y0096449D01*
X0165718Y0096951D01*
X0165868Y0097510D01*
X0165868Y0100800D01*
X0162168Y0100800D01*
X0162168Y0100800D01*
X0162168Y0095600D01*
X0162168Y0100800D01*
X0162168Y0100800D01*
X0162168Y0100800D01*
X0162168Y0106000D01*
X0162168Y0105037D02*
X0162168Y0105037D01*
X0162168Y0102639D02*
X0162168Y0102639D01*
X0162168Y0100800D02*
X0158468Y0100800D01*
X0162168Y0100800D01*
X0162168Y0100800D01*
X0162168Y0100240D02*
X0162168Y0100240D01*
X0162168Y0097842D02*
X0162168Y0097842D01*
X0165868Y0097842D02*
X0181283Y0097842D01*
X0181283Y0100240D02*
X0165868Y0100240D01*
X0165868Y0102639D02*
X0181283Y0102639D01*
X0181283Y0105037D02*
X0165494Y0105037D01*
X0158842Y0105037D02*
X0149976Y0105037D01*
X0150468Y0102639D02*
X0158468Y0102639D01*
X0158468Y0100240D02*
X0150468Y0100240D01*
X0150468Y0097842D02*
X0158468Y0097842D01*
X0149568Y0095443D02*
X0181283Y0095443D01*
X0181283Y0093045D02*
X0149568Y0093045D01*
X0149568Y0090646D02*
X0180512Y0090646D01*
X0180102Y0088248D02*
X0149568Y0088248D01*
X0149568Y0085849D02*
X0181801Y0085849D01*
X0185566Y0085849D02*
X0205810Y0085849D01*
X0208209Y0083451D02*
X0149568Y0083451D01*
X0149568Y0076255D02*
X0214326Y0076255D01*
X0214568Y0073857D02*
X0149568Y0073857D01*
X0149568Y0071458D02*
X0214568Y0071458D01*
X0214568Y0069060D02*
X0149568Y0069060D01*
X0149568Y0066661D02*
X0214568Y0066661D01*
X0214568Y0064263D02*
X0149568Y0064263D01*
X0144768Y0066661D02*
X0137068Y0066661D01*
X0137068Y0064263D02*
X0143736Y0064263D01*
X0142168Y0061864D02*
X0137068Y0061864D01*
X0138746Y0059466D02*
X0141087Y0059466D01*
X0133690Y0057067D02*
X0124468Y0057067D01*
X0124468Y0054669D02*
X0137288Y0054669D01*
X0140803Y0052270D02*
X0124468Y0052270D01*
X0124468Y0049872D02*
X0141087Y0049872D01*
X0141548Y0047473D02*
X0124468Y0047473D01*
X0124468Y0045075D02*
X0145499Y0045075D01*
X0147268Y0042676D02*
X0124468Y0042676D01*
X0124468Y0040278D02*
X0147268Y0040278D01*
X0147268Y0037879D02*
X0124468Y0037879D01*
X0123891Y0035481D02*
X0147268Y0035481D01*
X0147268Y0033082D02*
X0121492Y0033082D01*
X0119649Y0030684D02*
X0147268Y0030684D01*
X0147268Y0028285D02*
X0118117Y0028285D01*
X0114018Y0028285D02*
X0061868Y0028285D01*
X0061868Y0025887D02*
X0146466Y0025887D01*
X0144964Y0023488D02*
X0061868Y0023488D01*
X0061868Y0021090D02*
X0144868Y0021090D01*
X0144868Y0018691D02*
X0061957Y0018691D01*
X0062516Y0016293D02*
X0144868Y0016293D01*
X0145469Y0013894D02*
X0063459Y0013894D01*
X0064972Y0011496D02*
X0167643Y0011496D01*
X0167672Y0011481D02*
X0168450Y0011228D01*
X0169258Y0011100D01*
X0169668Y0011100D01*
X0170077Y0011100D01*
X0170885Y0011228D01*
X0171664Y0011481D01*
X0172393Y0011853D01*
X0173055Y0012334D01*
X0173634Y0012912D01*
X0174115Y0013575D01*
X0174487Y0014304D01*
X0174740Y0015082D01*
X0174868Y0015891D01*
X0174868Y0019300D01*
X0174868Y0022709D01*
X0174740Y0023518D01*
X0174487Y0024296D01*
X0174115Y0025025D01*
X0173634Y0025688D01*
X0173055Y0026266D01*
X0172393Y0026747D01*
X0171664Y0027119D01*
X0170885Y0027372D01*
X0170077Y0027500D01*
X0169668Y0027500D01*
X0169668Y0019300D01*
X0174868Y0019300D01*
X0169668Y0019300D01*
X0169668Y0019300D01*
X0169668Y0019300D01*
X0169668Y0011100D01*
X0169668Y0019300D01*
X0169668Y0019300D01*
X0169668Y0027500D01*
X0169258Y0027500D01*
X0168450Y0027372D01*
X0167672Y0027119D01*
X0166942Y0026747D01*
X0166280Y0026266D01*
X0165701Y0025688D01*
X0165220Y0025025D01*
X0164849Y0024296D01*
X0164596Y0023518D01*
X0164468Y0022709D01*
X0164468Y0019300D01*
X0164468Y0015891D01*
X0164596Y0015082D01*
X0164849Y0014304D01*
X0165220Y0013575D01*
X0165701Y0012912D01*
X0166280Y0012334D01*
X0166942Y0011853D01*
X0167672Y0011481D01*
X0169668Y0011496D02*
X0169668Y0011496D01*
X0171692Y0011496D02*
X0426798Y0011496D01*
X0427240Y0011054D02*
X0430364Y0009250D01*
X0433848Y0008317D01*
X0437456Y0008317D01*
X0440940Y0009250D01*
X0444064Y0011054D01*
X0446615Y0013605D01*
X0448418Y0016729D01*
X0449352Y0020213D01*
X0449352Y0023820D01*
X0448418Y0027305D01*
X0446615Y0030429D01*
X0444064Y0032979D01*
X0440940Y0034783D01*
X0437456Y0035717D01*
X0433848Y0035717D01*
X0430364Y0034783D01*
X0427240Y0032979D01*
X0424689Y0030429D01*
X0422886Y0027305D01*
X0421952Y0023820D01*
X0421952Y0020213D01*
X0422886Y0016729D01*
X0424689Y0013605D01*
X0427240Y0011054D01*
X0424522Y0013894D02*
X0193867Y0013894D01*
X0193737Y0013581D02*
X0194468Y0015345D01*
X0194468Y0023255D01*
X0193737Y0025019D01*
X0192387Y0026369D01*
X0190622Y0027100D01*
X0188713Y0027100D01*
X0186949Y0026369D01*
X0185598Y0025019D01*
X0184868Y0023255D01*
X0184868Y0015345D01*
X0185598Y0013581D01*
X0186949Y0012231D01*
X0188713Y0011500D01*
X0190622Y0011500D01*
X0192387Y0012231D01*
X0193737Y0013581D01*
X0194468Y0016293D02*
X0423137Y0016293D01*
X0422360Y0018691D02*
X0194468Y0018691D01*
X0194468Y0021090D02*
X0421952Y0021090D01*
X0421952Y0023488D02*
X0194371Y0023488D01*
X0192869Y0025887D02*
X0422506Y0025887D01*
X0423452Y0028285D02*
X0182068Y0028285D01*
X0182068Y0030684D02*
X0424944Y0030684D01*
X0427418Y0033082D02*
X0182068Y0033082D01*
X0181776Y0035481D02*
X0432968Y0035481D01*
X0438336Y0035481D02*
X0451169Y0035481D01*
X0451169Y0037879D02*
X0179483Y0037879D01*
X0177084Y0040278D02*
X0451169Y0040278D01*
X0451169Y0042676D02*
X0446730Y0042676D01*
X0447052Y0042998D02*
X0447783Y0044763D01*
X0447783Y0046672D01*
X0447052Y0048436D01*
X0445702Y0049787D01*
X0443937Y0050517D01*
X0436028Y0050517D01*
X0434264Y0049787D01*
X0432913Y0048436D01*
X0432183Y0046672D01*
X0432183Y0044763D01*
X0432913Y0042998D01*
X0434264Y0041648D01*
X0436028Y0040917D01*
X0443937Y0040917D01*
X0445702Y0041648D01*
X0447052Y0042998D01*
X0447783Y0045075D02*
X0451169Y0045075D01*
X0451169Y0047473D02*
X0447451Y0047473D01*
X0445496Y0049872D02*
X0451169Y0049872D01*
X0451169Y0052270D02*
X0446324Y0052270D01*
X0445702Y0051648D02*
X0447052Y0052998D01*
X0447783Y0054763D01*
X0447783Y0056672D01*
X0447052Y0058436D01*
X0445702Y0059787D01*
X0443937Y0060517D01*
X0436028Y0060517D01*
X0434264Y0059787D01*
X0432913Y0058436D01*
X0432183Y0056672D01*
X0432183Y0054763D01*
X0432913Y0052998D01*
X0434264Y0051648D01*
X0436028Y0050917D01*
X0443937Y0050917D01*
X0445702Y0051648D01*
X0447744Y0054669D02*
X0451169Y0054669D01*
X0451169Y0057067D02*
X0447619Y0057067D01*
X0446022Y0059466D02*
X0451169Y0059466D01*
X0451169Y0061864D02*
X0445918Y0061864D01*
X0445702Y0061648D02*
X0447052Y0062998D01*
X0447783Y0064763D01*
X0447783Y0066672D01*
X0447052Y0068436D01*
X0445702Y0069787D01*
X0443937Y0070517D01*
X0436028Y0070517D01*
X0434264Y0069787D01*
X0432913Y0068436D01*
X0432183Y0066672D01*
X0432183Y0064763D01*
X0432913Y0062998D01*
X0434264Y0061648D01*
X0436028Y0060917D01*
X0443937Y0060917D01*
X0445702Y0061648D01*
X0447576Y0064263D02*
X0451169Y0064263D01*
X0451169Y0066661D02*
X0447783Y0066661D01*
X0446428Y0069060D02*
X0451169Y0069060D01*
X0451169Y0071458D02*
X0445244Y0071458D01*
X0445702Y0071648D02*
X0447052Y0072998D01*
X0447783Y0074763D01*
X0447783Y0076672D01*
X0447052Y0078436D01*
X0445702Y0079787D01*
X0443937Y0080517D01*
X0436028Y0080517D01*
X0434264Y0079787D01*
X0432913Y0078436D01*
X0432183Y0076672D01*
X0432183Y0074763D01*
X0432913Y0072998D01*
X0434264Y0071648D01*
X0436028Y0070917D01*
X0443937Y0070917D01*
X0445702Y0071648D01*
X0447408Y0073857D02*
X0451169Y0073857D01*
X0451169Y0076255D02*
X0447783Y0076255D01*
X0446834Y0078654D02*
X0451169Y0078654D01*
X0451169Y0081052D02*
X0444263Y0081052D01*
X0443937Y0080917D02*
X0445702Y0081648D01*
X0447052Y0082998D01*
X0447783Y0084763D01*
X0447783Y0086672D01*
X0447052Y0088436D01*
X0445702Y0089787D01*
X0443937Y0090517D01*
X0436028Y0090517D01*
X0434264Y0089787D01*
X0432913Y0088436D01*
X0432183Y0086672D01*
X0432183Y0084763D01*
X0432913Y0082998D01*
X0434264Y0081648D01*
X0436028Y0080917D01*
X0443937Y0080917D01*
X0447239Y0083451D02*
X0451169Y0083451D01*
X0451169Y0085849D02*
X0447783Y0085849D01*
X0447130Y0088248D02*
X0451169Y0088248D01*
X0451169Y0090646D02*
X0417068Y0090646D01*
X0417068Y0088248D02*
X0432835Y0088248D01*
X0432183Y0085849D02*
X0417068Y0085849D01*
X0417068Y0083451D02*
X0432726Y0083451D01*
X0435702Y0081052D02*
X0417068Y0081052D01*
X0417068Y0078654D02*
X0433131Y0078654D01*
X0432183Y0076255D02*
X0417068Y0076255D01*
X0417068Y0073857D02*
X0432558Y0073857D01*
X0434722Y0071458D02*
X0417601Y0071458D01*
X0417720Y0071339D02*
X0417068Y0071991D01*
X0417068Y0096609D01*
X0417720Y0097261D01*
X0418268Y0098584D01*
X0418268Y0100016D01*
X0417720Y0101339D01*
X0417068Y0101991D01*
X0417068Y0126609D01*
X0417720Y0127261D01*
X0418268Y0128584D01*
X0418268Y0130016D01*
X0417720Y0131339D01*
X0417068Y0131991D01*
X0417068Y0156609D01*
X0417720Y0157261D01*
X0418268Y0158584D01*
X0418268Y0160016D01*
X0417720Y0161339D01*
X0416707Y0162352D01*
X0415384Y0162900D01*
X0413952Y0162900D01*
X0412628Y0162352D01*
X0411616Y0161339D01*
X0411068Y0160016D01*
X0411068Y0158584D01*
X0411616Y0157261D01*
X0412268Y0156609D01*
X0412268Y0131991D01*
X0411616Y0131339D01*
X0411068Y0130016D01*
X0411068Y0128584D01*
X0411616Y0127261D01*
X0412268Y0126609D01*
X0412268Y0101991D01*
X0411616Y0101339D01*
X0411068Y0100016D01*
X0411068Y0098584D01*
X0411616Y0097261D01*
X0412268Y0096609D01*
X0412268Y0071991D01*
X0412177Y0071900D01*
X0406651Y0071900D01*
X0405695Y0071504D01*
X0404964Y0070773D01*
X0398591Y0064400D01*
X0384151Y0064400D01*
X0383195Y0064004D01*
X0382464Y0063273D01*
X0377464Y0058273D01*
X0377068Y0057317D01*
X0377068Y0051791D01*
X0376616Y0051339D01*
X0376068Y0050016D01*
X0376068Y0048584D01*
X0376616Y0047261D01*
X0377628Y0046248D01*
X0378952Y0045700D01*
X0380384Y0045700D01*
X0381707Y0046248D01*
X0382720Y0047261D01*
X0383268Y0048584D01*
X0383268Y0050016D01*
X0382720Y0051339D01*
X0382268Y0051791D01*
X0382268Y0055723D01*
X0385745Y0059200D01*
X0400185Y0059200D01*
X0401140Y0059596D01*
X0408245Y0066700D01*
X0412177Y0066700D01*
X0412628Y0066248D01*
X0413952Y0065700D01*
X0415384Y0065700D01*
X0416707Y0066248D01*
X0417720Y0067261D01*
X0418268Y0068584D01*
X0418268Y0070016D01*
X0417720Y0071339D01*
X0418268Y0069060D02*
X0433537Y0069060D01*
X0432183Y0066661D02*
X0417120Y0066661D01*
X0412215Y0066661D02*
X0408206Y0066661D01*
X0405807Y0064263D02*
X0432390Y0064263D01*
X0434048Y0061864D02*
X0403409Y0061864D01*
X0400826Y0059466D02*
X0433943Y0059466D01*
X0432346Y0057067D02*
X0383612Y0057067D01*
X0382268Y0054669D02*
X0432222Y0054669D01*
X0433642Y0052270D02*
X0382268Y0052270D01*
X0383268Y0049872D02*
X0434469Y0049872D01*
X0432515Y0047473D02*
X0382808Y0047473D01*
X0376528Y0047473D02*
X0372808Y0047473D01*
X0372720Y0047261D02*
X0373268Y0048584D01*
X0373268Y0050016D01*
X0372720Y0051339D01*
X0372268Y0051791D01*
X0372268Y0055582D01*
X0385609Y0066700D01*
X0392177Y0066700D01*
X0392628Y0066248D01*
X0393952Y0065700D01*
X0395384Y0065700D01*
X0396707Y0066248D01*
X0397720Y0067261D01*
X0398268Y0068584D01*
X0398268Y0070016D01*
X0397720Y0071339D01*
X0397068Y0071991D01*
X0397068Y0096609D01*
X0397720Y0097261D01*
X0398268Y0098584D01*
X0398268Y0100016D01*
X0397720Y0101339D01*
X0397068Y0101991D01*
X0397068Y0126609D01*
X0397720Y0127261D01*
X0398268Y0128584D01*
X0398268Y0130016D01*
X0397720Y0131339D01*
X0397068Y0131991D01*
X0397068Y0156609D01*
X0397720Y0157261D01*
X0398268Y0158584D01*
X0398268Y0160016D01*
X0397720Y0161339D01*
X0396707Y0162352D01*
X0395384Y0162900D01*
X0393952Y0162900D01*
X0392628Y0162352D01*
X0391616Y0161339D01*
X0391068Y0160016D01*
X0391068Y0158584D01*
X0391616Y0157261D01*
X0392268Y0156609D01*
X0392268Y0131991D01*
X0391616Y0131339D01*
X0391068Y0130016D01*
X0391068Y0128584D01*
X0391616Y0127261D01*
X0392268Y0126609D01*
X0392268Y0101991D01*
X0391616Y0101339D01*
X0391068Y0100016D01*
X0391068Y0098584D01*
X0391616Y0097261D01*
X0392268Y0096609D01*
X0392268Y0071991D01*
X0392177Y0071900D01*
X0384786Y0071900D01*
X0384388Y0071936D01*
X0384272Y0071900D01*
X0384151Y0071900D01*
X0383782Y0071747D01*
X0383401Y0071628D01*
X0383307Y0071551D01*
X0383195Y0071504D01*
X0382913Y0071222D01*
X0368307Y0059051D01*
X0368195Y0059004D01*
X0367913Y0058722D01*
X0367606Y0058466D01*
X0367549Y0058359D01*
X0367464Y0058273D01*
X0367311Y0057904D01*
X0367125Y0057550D01*
X0367114Y0057429D01*
X0367068Y0057317D01*
X0367068Y0056918D01*
X0367032Y0056520D01*
X0367068Y0056404D01*
X0367068Y0051791D01*
X0366616Y0051339D01*
X0366068Y0050016D01*
X0366068Y0048584D01*
X0366616Y0047261D01*
X0367628Y0046248D01*
X0368952Y0045700D01*
X0370384Y0045700D01*
X0371707Y0046248D01*
X0372720Y0047261D01*
X0366528Y0047473D02*
X0362808Y0047473D01*
X0362720Y0047261D02*
X0363268Y0048584D01*
X0363268Y0050016D01*
X0362720Y0051339D01*
X0362268Y0051791D01*
X0362268Y0056013D01*
X0366059Y0061700D01*
X0370185Y0061700D01*
X0371140Y0062096D01*
X0374745Y0065700D01*
X0375384Y0065700D01*
X0376707Y0066248D01*
X0377720Y0067261D01*
X0378268Y0068584D01*
X0378268Y0070016D01*
X0377720Y0071339D01*
X0377068Y0071991D01*
X0377068Y0096609D01*
X0377720Y0097261D01*
X0378268Y0098584D01*
X0378268Y0100016D01*
X0377720Y0101339D01*
X0377068Y0101991D01*
X0377068Y0126609D01*
X0377720Y0127261D01*
X0378268Y0128584D01*
X0378268Y0130016D01*
X0377720Y0131339D01*
X0377068Y0131991D01*
X0377068Y0156609D01*
X0377720Y0157261D01*
X0378268Y0158584D01*
X0378268Y0160016D01*
X0377720Y0161339D01*
X0376707Y0162352D01*
X0375384Y0162900D01*
X0373952Y0162900D01*
X0372628Y0162352D01*
X0371616Y0161339D01*
X0371068Y0160016D01*
X0371068Y0158584D01*
X0371616Y0157261D01*
X0372268Y0156609D01*
X0372268Y0131991D01*
X0371616Y0131339D01*
X0371068Y0130016D01*
X0371068Y0128584D01*
X0371616Y0127261D01*
X0372268Y0126609D01*
X0372268Y0101991D01*
X0371616Y0101339D01*
X0371068Y0100016D01*
X0371068Y0098584D01*
X0371616Y0097261D01*
X0372268Y0096609D01*
X0372268Y0071991D01*
X0371616Y0071339D01*
X0371068Y0070016D01*
X0371068Y0069377D01*
X0368591Y0066900D01*
X0364922Y0066900D01*
X0364665Y0066951D01*
X0364410Y0066900D01*
X0364151Y0066900D01*
X0363908Y0066800D01*
X0363651Y0066748D01*
X0363435Y0066604D01*
X0363195Y0066504D01*
X0363009Y0066319D01*
X0362791Y0066173D01*
X0362647Y0065956D01*
X0362464Y0065773D01*
X0362363Y0065530D01*
X0357647Y0058456D01*
X0357464Y0058273D01*
X0357363Y0058030D01*
X0357218Y0057812D01*
X0357167Y0057557D01*
X0357068Y0057317D01*
X0357068Y0057055D01*
X0357017Y0056797D01*
X0357068Y0056543D01*
X0357068Y0051791D01*
X0356616Y0051339D01*
X0356068Y0050016D01*
X0356068Y0048584D01*
X0356616Y0047261D01*
X0357628Y0046248D01*
X0358952Y0045700D01*
X0360384Y0045700D01*
X0361707Y0046248D01*
X0362720Y0047261D01*
X0363268Y0049872D02*
X0366068Y0049872D01*
X0367068Y0052270D02*
X0362268Y0052270D01*
X0362268Y0054669D02*
X0367068Y0054669D01*
X0367068Y0057067D02*
X0362971Y0057067D01*
X0364570Y0059466D02*
X0368805Y0059466D01*
X0370581Y0061864D02*
X0371684Y0061864D01*
X0376928Y0059466D02*
X0378657Y0059466D01*
X0379806Y0061864D02*
X0381055Y0061864D01*
X0382684Y0064263D02*
X0383819Y0064263D01*
X0385563Y0066661D02*
X0392215Y0066661D01*
X0397120Y0066661D02*
X0400852Y0066661D01*
X0403251Y0069060D02*
X0398268Y0069060D01*
X0397601Y0071458D02*
X0405649Y0071458D01*
X0412268Y0073857D02*
X0397068Y0073857D01*
X0397068Y0076255D02*
X0412268Y0076255D01*
X0412268Y0078654D02*
X0397068Y0078654D01*
X0397068Y0081052D02*
X0412268Y0081052D01*
X0412268Y0083451D02*
X0397068Y0083451D01*
X0397068Y0085849D02*
X0412268Y0085849D01*
X0412268Y0088248D02*
X0397068Y0088248D01*
X0397068Y0090646D02*
X0412268Y0090646D01*
X0412268Y0093045D02*
X0397068Y0093045D01*
X0397068Y0095443D02*
X0412268Y0095443D01*
X0411375Y0097842D02*
X0397960Y0097842D01*
X0398175Y0100240D02*
X0411161Y0100240D01*
X0412268Y0102639D02*
X0397068Y0102639D01*
X0397068Y0105037D02*
X0412268Y0105037D01*
X0417068Y0105037D02*
X0429858Y0105037D01*
X0429594Y0104051D02*
X0429594Y0101399D01*
X0430280Y0098837D01*
X0431606Y0096540D01*
X0433482Y0094664D01*
X0435779Y0093338D01*
X0438341Y0092651D01*
X0440994Y0092651D01*
X0443556Y0093338D01*
X0445853Y0094664D01*
X0447729Y0096540D01*
X0449055Y0098837D01*
X0449742Y0101399D01*
X0449742Y0104051D01*
X0449055Y0106614D01*
X0447729Y0108911D01*
X0445853Y0110786D01*
X0443556Y0112113D01*
X0440994Y0112799D01*
X0438341Y0112799D01*
X0435779Y0112113D01*
X0433482Y0110786D01*
X0431606Y0108911D01*
X0430280Y0106614D01*
X0429594Y0104051D01*
X0429594Y0102639D02*
X0417068Y0102639D01*
X0418175Y0100240D02*
X0429904Y0100240D01*
X0430855Y0097842D02*
X0417960Y0097842D01*
X0417068Y0095443D02*
X0432703Y0095443D01*
X0436872Y0093045D02*
X0417068Y0093045D01*
X0442463Y0093045D02*
X0451169Y0093045D01*
X0451169Y0095443D02*
X0446633Y0095443D01*
X0448481Y0097842D02*
X0451169Y0097842D01*
X0451169Y0100240D02*
X0449431Y0100240D01*
X0449742Y0102639D02*
X0451169Y0102639D01*
X0451169Y0105037D02*
X0449478Y0105037D01*
X0448580Y0107436D02*
X0451169Y0107436D01*
X0451169Y0109834D02*
X0446805Y0109834D01*
X0443107Y0112233D02*
X0451169Y0112233D01*
X0451169Y0114632D02*
X0417068Y0114632D01*
X0417068Y0117030D02*
X0434767Y0117030D01*
X0434264Y0117239D02*
X0436028Y0116508D01*
X0443937Y0116508D01*
X0445702Y0117239D01*
X0447052Y0118589D01*
X0447783Y0120353D01*
X0447783Y0122263D01*
X0447052Y0124027D01*
X0445702Y0125377D01*
X0443937Y0126108D01*
X0436028Y0126108D01*
X0434264Y0125377D01*
X0432913Y0124027D01*
X0432183Y0122263D01*
X0432183Y0120353D01*
X0432913Y0118589D01*
X0434264Y0117239D01*
X0432566Y0119429D02*
X0417068Y0119429D01*
X0417068Y0121827D02*
X0432183Y0121827D01*
X0433112Y0124226D02*
X0417068Y0124226D01*
X0417083Y0126624D02*
X0435747Y0126624D01*
X0436028Y0126508D02*
X0443937Y0126508D01*
X0445702Y0127239D01*
X0447052Y0128589D01*
X0447783Y0130353D01*
X0447783Y0132263D01*
X0447052Y0134027D01*
X0445702Y0135377D01*
X0443937Y0136108D01*
X0436028Y0136108D01*
X0434264Y0135377D01*
X0432913Y0134027D01*
X0432183Y0132263D01*
X0432183Y0130353D01*
X0432913Y0128589D01*
X0434264Y0127239D01*
X0436028Y0126508D01*
X0432734Y0129023D02*
X0418268Y0129023D01*
X0417638Y0131421D02*
X0432183Y0131421D01*
X0432828Y0133820D02*
X0417068Y0133820D01*
X0417068Y0136218D02*
X0451169Y0136218D01*
X0451169Y0133820D02*
X0447138Y0133820D01*
X0447783Y0131421D02*
X0451169Y0131421D01*
X0451169Y0129023D02*
X0447232Y0129023D01*
X0444218Y0126624D02*
X0451169Y0126624D01*
X0451169Y0124226D02*
X0446853Y0124226D01*
X0447783Y0121827D02*
X0451169Y0121827D01*
X0451169Y0119429D02*
X0447400Y0119429D01*
X0445198Y0117030D02*
X0451169Y0117030D01*
X0436228Y0112233D02*
X0417068Y0112233D01*
X0417068Y0109834D02*
X0432530Y0109834D01*
X0430755Y0107436D02*
X0417068Y0107436D01*
X0412268Y0107436D02*
X0397068Y0107436D01*
X0397068Y0109834D02*
X0412268Y0109834D01*
X0412268Y0112233D02*
X0397068Y0112233D01*
X0397068Y0114632D02*
X0412268Y0114632D01*
X0412268Y0117030D02*
X0397068Y0117030D01*
X0397068Y0119429D02*
X0412268Y0119429D01*
X0412268Y0121827D02*
X0397068Y0121827D01*
X0392268Y0121827D02*
X0377068Y0121827D01*
X0377068Y0119429D02*
X0392268Y0119429D01*
X0392268Y0117030D02*
X0377068Y0117030D01*
X0377068Y0114632D02*
X0392268Y0114632D01*
X0392268Y0112233D02*
X0377068Y0112233D01*
X0377068Y0109834D02*
X0392268Y0109834D01*
X0392268Y0107436D02*
X0377068Y0107436D01*
X0372268Y0107436D02*
X0357068Y0107436D01*
X0357068Y0109834D02*
X0372268Y0109834D01*
X0372268Y0112233D02*
X0357068Y0112233D01*
X0357068Y0114632D02*
X0372268Y0114632D01*
X0372268Y0117030D02*
X0357068Y0117030D01*
X0357068Y0119429D02*
X0372268Y0119429D01*
X0372268Y0121827D02*
X0357068Y0121827D01*
X0357068Y0124226D02*
X0372268Y0124226D01*
X0372252Y0126624D02*
X0357083Y0126624D01*
X0357068Y0126609D02*
X0357720Y0127261D01*
X0358268Y0128584D01*
X0358268Y0130016D01*
X0357720Y0131339D01*
X0357068Y0131991D01*
X0357068Y0156609D01*
X0357720Y0157261D01*
X0358268Y0158584D01*
X0358268Y0160016D01*
X0357720Y0161339D01*
X0356707Y0162352D01*
X0355384Y0162900D01*
X0353952Y0162900D01*
X0352628Y0162352D01*
X0351616Y0161339D01*
X0351068Y0160016D01*
X0351068Y0158584D01*
X0351616Y0157261D01*
X0352268Y0156609D01*
X0352268Y0131991D01*
X0351616Y0131339D01*
X0351068Y0130016D01*
X0351068Y0128584D01*
X0351616Y0127261D01*
X0352268Y0126609D01*
X0352268Y0101991D01*
X0351616Y0101339D01*
X0351068Y0100016D01*
X0351068Y0098584D01*
X0351616Y0097261D01*
X0352268Y0096609D01*
X0352268Y0071991D01*
X0351616Y0071339D01*
X0351068Y0070016D01*
X0351068Y0068584D01*
X0351616Y0067261D01*
X0352068Y0066809D01*
X0352068Y0062877D01*
X0347464Y0058273D01*
X0347068Y0057317D01*
X0347068Y0051791D01*
X0346616Y0051339D01*
X0346068Y0050016D01*
X0346068Y0048584D01*
X0346616Y0047261D01*
X0347628Y0046248D01*
X0348952Y0045700D01*
X0350384Y0045700D01*
X0351707Y0046248D01*
X0352720Y0047261D01*
X0353268Y0048584D01*
X0353268Y0050016D01*
X0352720Y0051339D01*
X0352268Y0051791D01*
X0352268Y0055723D01*
X0356140Y0059596D01*
X0356872Y0060327D01*
X0357268Y0061283D01*
X0357268Y0066809D01*
X0357720Y0067261D01*
X0358268Y0068584D01*
X0358268Y0070016D01*
X0357720Y0071339D01*
X0357068Y0071991D01*
X0357068Y0096609D01*
X0357720Y0097261D01*
X0358268Y0098584D01*
X0358268Y0100016D01*
X0357720Y0101339D01*
X0357068Y0101991D01*
X0357068Y0126609D01*
X0358268Y0129023D02*
X0371068Y0129023D01*
X0371698Y0131421D02*
X0357638Y0131421D01*
X0357068Y0133820D02*
X0372268Y0133820D01*
X0372268Y0136218D02*
X0357068Y0136218D01*
X0357068Y0138617D02*
X0372268Y0138617D01*
X0372268Y0141015D02*
X0357068Y0141015D01*
X0357068Y0143414D02*
X0372268Y0143414D01*
X0372268Y0145812D02*
X0357068Y0145812D01*
X0357068Y0148211D02*
X0372268Y0148211D01*
X0372268Y0150609D02*
X0357068Y0150609D01*
X0357068Y0153008D02*
X0372268Y0153008D01*
X0372268Y0155406D02*
X0357068Y0155406D01*
X0357945Y0157805D02*
X0371390Y0157805D01*
X0371145Y0160203D02*
X0358190Y0160203D01*
X0356104Y0162602D02*
X0373232Y0162602D01*
X0376104Y0162602D02*
X0393232Y0162602D01*
X0396104Y0162602D02*
X0413232Y0162602D01*
X0416104Y0162602D02*
X0432323Y0162602D01*
X0432183Y0162263D02*
X0432183Y0160353D01*
X0432913Y0158589D01*
X0434264Y0157239D01*
X0436028Y0156508D01*
X0443937Y0156508D01*
X0445702Y0157239D01*
X0447052Y0158589D01*
X0447783Y0160353D01*
X0447783Y0162263D01*
X0447052Y0164027D01*
X0445702Y0165377D01*
X0443937Y0166108D01*
X0436028Y0166108D01*
X0434264Y0165377D01*
X0432913Y0164027D01*
X0432183Y0162263D01*
X0432245Y0160203D02*
X0418190Y0160203D01*
X0417945Y0157805D02*
X0433698Y0157805D01*
X0434334Y0155406D02*
X0417068Y0155406D01*
X0417068Y0153008D02*
X0432491Y0153008D01*
X0432183Y0152263D02*
X0432913Y0154027D01*
X0434264Y0155377D01*
X0436028Y0156108D01*
X0443937Y0156108D01*
X0445702Y0155377D01*
X0447052Y0154027D01*
X0447783Y0152263D01*
X0447783Y0150353D01*
X0447052Y0148589D01*
X0445702Y0147239D01*
X0443937Y0146508D01*
X0436028Y0146508D01*
X0434264Y0147239D01*
X0432913Y0148589D01*
X0432183Y0150353D01*
X0432183Y0152263D01*
X0432183Y0150609D02*
X0417068Y0150609D01*
X0417068Y0148211D02*
X0433292Y0148211D01*
X0434264Y0145377D02*
X0432913Y0144027D01*
X0432183Y0142263D01*
X0432183Y0140353D01*
X0432913Y0138589D01*
X0434264Y0137239D01*
X0436028Y0136508D01*
X0443937Y0136508D01*
X0445702Y0137239D01*
X0447052Y0138589D01*
X0447783Y0140353D01*
X0447783Y0142263D01*
X0447052Y0144027D01*
X0445702Y0145377D01*
X0443937Y0146108D01*
X0436028Y0146108D01*
X0434264Y0145377D01*
X0435314Y0145812D02*
X0417068Y0145812D01*
X0417068Y0143414D02*
X0432659Y0143414D01*
X0432183Y0141015D02*
X0417068Y0141015D01*
X0417068Y0138617D02*
X0432902Y0138617D01*
X0444651Y0145812D02*
X0451169Y0145812D01*
X0451169Y0143414D02*
X0447306Y0143414D01*
X0447783Y0141015D02*
X0451169Y0141015D01*
X0451169Y0138617D02*
X0447063Y0138617D01*
X0446674Y0148211D02*
X0451169Y0148211D01*
X0451169Y0150609D02*
X0447783Y0150609D01*
X0447474Y0153008D02*
X0451169Y0153008D01*
X0451169Y0155406D02*
X0445631Y0155406D01*
X0446268Y0157805D02*
X0451169Y0157805D01*
X0451169Y0160203D02*
X0447721Y0160203D01*
X0447642Y0162602D02*
X0451169Y0162602D01*
X0451169Y0165000D02*
X0446078Y0165000D01*
X0433887Y0165000D02*
X0292268Y0165000D01*
X0292268Y0162602D02*
X0293232Y0162602D01*
X0296104Y0162602D02*
X0313232Y0162602D01*
X0312628Y0162352D02*
X0311616Y0161339D01*
X0311068Y0160016D01*
X0311068Y0158584D01*
X0311616Y0157261D01*
X0312268Y0156609D01*
X0312268Y0131991D01*
X0311616Y0131339D01*
X0311068Y0130016D01*
X0311068Y0128584D01*
X0311616Y0127261D01*
X0312268Y0126609D01*
X0312268Y0101991D01*
X0311616Y0101339D01*
X0311068Y0100016D01*
X0311068Y0098584D01*
X0311616Y0097261D01*
X0312268Y0096609D01*
X0312268Y0071991D01*
X0311616Y0071339D01*
X0311068Y0070016D01*
X0311068Y0068584D01*
X0311616Y0067261D01*
X0312628Y0066248D01*
X0313952Y0065700D01*
X0314591Y0065700D01*
X0322068Y0058223D01*
X0322068Y0053783D01*
X0322464Y0052827D01*
X0323195Y0052096D01*
X0326068Y0049223D01*
X0326068Y0048584D01*
X0326616Y0047261D01*
X0327628Y0046248D01*
X0328952Y0045700D01*
X0330384Y0045700D01*
X0331707Y0046248D01*
X0332720Y0047261D01*
X0333268Y0048584D01*
X0333268Y0050016D01*
X0332720Y0051339D01*
X0331707Y0052352D01*
X0330384Y0052900D01*
X0329745Y0052900D01*
X0327268Y0055377D01*
X0327268Y0059817D01*
X0326872Y0060773D01*
X0318268Y0069377D01*
X0318268Y0070016D01*
X0317720Y0071339D01*
X0317068Y0071991D01*
X0317068Y0096609D01*
X0317720Y0097261D01*
X0318268Y0098584D01*
X0318268Y0100016D01*
X0317720Y0101339D01*
X0317068Y0101991D01*
X0317068Y0126609D01*
X0317720Y0127261D01*
X0318268Y0128584D01*
X0318268Y0130016D01*
X0317720Y0131339D01*
X0317068Y0131991D01*
X0317068Y0156609D01*
X0317720Y0157261D01*
X0318268Y0158584D01*
X0318268Y0160016D01*
X0317720Y0161339D01*
X0316707Y0162352D01*
X0315384Y0162900D01*
X0313952Y0162900D01*
X0312628Y0162352D01*
X0311145Y0160203D02*
X0298190Y0160203D01*
X0297945Y0157805D02*
X0311390Y0157805D01*
X0312268Y0155406D02*
X0297068Y0155406D01*
X0297068Y0153008D02*
X0312268Y0153008D01*
X0317068Y0153008D02*
X0332268Y0153008D01*
X0332268Y0155406D02*
X0317068Y0155406D01*
X0317945Y0157805D02*
X0331390Y0157805D01*
X0331616Y0157261D02*
X0332268Y0156609D01*
X0332268Y0131991D01*
X0331616Y0131339D01*
X0331068Y0130016D01*
X0331068Y0128584D01*
X0331616Y0127261D01*
X0332268Y0126609D01*
X0332268Y0101991D01*
X0331616Y0101339D01*
X0331068Y0100016D01*
X0331068Y0098584D01*
X0331616Y0097261D01*
X0332268Y0096609D01*
X0332268Y0071991D01*
X0331616Y0071339D01*
X0331068Y0070016D01*
X0331068Y0068584D01*
X0331616Y0067261D01*
X0332068Y0066809D01*
X0332068Y0061283D01*
X0332464Y0060327D01*
X0333195Y0059596D01*
X0337068Y0055723D01*
X0337068Y0051791D01*
X0336616Y0051339D01*
X0336068Y0050016D01*
X0336068Y0048584D01*
X0336616Y0047261D01*
X0337628Y0046248D01*
X0338952Y0045700D01*
X0340384Y0045700D01*
X0341707Y0046248D01*
X0342720Y0047261D01*
X0343268Y0048584D01*
X0343268Y0050016D01*
X0342720Y0051339D01*
X0342268Y0051791D01*
X0342268Y0057317D01*
X0341872Y0058273D01*
X0337268Y0062877D01*
X0337268Y0066809D01*
X0337720Y0067261D01*
X0338268Y0068584D01*
X0338268Y0070016D01*
X0337720Y0071339D01*
X0337068Y0071991D01*
X0337068Y0096609D01*
X0337720Y0097261D01*
X0338268Y0098584D01*
X0338268Y0100016D01*
X0337720Y0101339D01*
X0337068Y0101991D01*
X0337068Y0126609D01*
X0337720Y0127261D01*
X0338268Y0128584D01*
X0338268Y0130016D01*
X0337720Y0131339D01*
X0337068Y0131991D01*
X0337068Y0156609D01*
X0337720Y0157261D01*
X0338268Y0158584D01*
X0338268Y0160016D01*
X0337720Y0161339D01*
X0336707Y0162352D01*
X0335384Y0162900D01*
X0333952Y0162900D01*
X0332628Y0162352D01*
X0331616Y0161339D01*
X0331068Y0160016D01*
X0331068Y0158584D01*
X0331616Y0157261D01*
X0331145Y0160203D02*
X0318190Y0160203D01*
X0316104Y0162602D02*
X0333232Y0162602D01*
X0336104Y0162602D02*
X0353232Y0162602D01*
X0351145Y0160203D02*
X0338190Y0160203D01*
X0337945Y0157805D02*
X0351390Y0157805D01*
X0352268Y0155406D02*
X0337068Y0155406D01*
X0337068Y0153008D02*
X0352268Y0153008D01*
X0352268Y0150609D02*
X0337068Y0150609D01*
X0337068Y0148211D02*
X0352268Y0148211D01*
X0352268Y0145812D02*
X0337068Y0145812D01*
X0337068Y0143414D02*
X0352268Y0143414D01*
X0352268Y0141015D02*
X0337068Y0141015D01*
X0337068Y0138617D02*
X0352268Y0138617D01*
X0352268Y0136218D02*
X0337068Y0136218D01*
X0337068Y0133820D02*
X0352268Y0133820D01*
X0351698Y0131421D02*
X0337638Y0131421D01*
X0338268Y0129023D02*
X0351068Y0129023D01*
X0352252Y0126624D02*
X0337083Y0126624D01*
X0337068Y0124226D02*
X0352268Y0124226D01*
X0352268Y0121827D02*
X0337068Y0121827D01*
X0337068Y0119429D02*
X0352268Y0119429D01*
X0352268Y0117030D02*
X0337068Y0117030D01*
X0337068Y0114632D02*
X0352268Y0114632D01*
X0352268Y0112233D02*
X0337068Y0112233D01*
X0337068Y0109834D02*
X0352268Y0109834D01*
X0352268Y0107436D02*
X0337068Y0107436D01*
X0332268Y0107436D02*
X0317068Y0107436D01*
X0317068Y0109834D02*
X0332268Y0109834D01*
X0332268Y0112233D02*
X0317068Y0112233D01*
X0317068Y0114632D02*
X0332268Y0114632D01*
X0332268Y0117030D02*
X0317068Y0117030D01*
X0317068Y0119429D02*
X0332268Y0119429D01*
X0332268Y0121827D02*
X0317068Y0121827D01*
X0312268Y0121827D02*
X0297268Y0121827D01*
X0297268Y0119429D02*
X0312268Y0119429D01*
X0312268Y0117030D02*
X0297268Y0117030D01*
X0297268Y0114632D02*
X0312268Y0114632D01*
X0312268Y0112233D02*
X0297268Y0112233D01*
X0297268Y0109834D02*
X0312268Y0109834D01*
X0312268Y0107436D02*
X0297268Y0107436D01*
X0292068Y0107436D02*
X0271007Y0107436D01*
X0269807Y0109834D02*
X0292068Y0109834D01*
X0292068Y0112233D02*
X0280192Y0112233D01*
X0280768Y0114632D02*
X0292068Y0114632D01*
X0292068Y0117030D02*
X0279529Y0117030D01*
X0274807Y0117030D02*
X0271027Y0117030D01*
X0268568Y0121827D02*
X0268029Y0121827D01*
X0269502Y0124226D02*
X0266530Y0124226D01*
X0265031Y0126624D02*
X0274752Y0126624D01*
X0279583Y0126624D02*
X0284759Y0126624D01*
X0286358Y0129023D02*
X0280768Y0129023D01*
X0280138Y0131421D02*
X0287068Y0131421D01*
X0287068Y0133820D02*
X0267028Y0133820D01*
X0265229Y0136218D02*
X0287068Y0136218D01*
X0287068Y0138617D02*
X0271390Y0138617D01*
X0273239Y0141015D02*
X0287068Y0141015D01*
X0287068Y0143414D02*
X0278400Y0143414D01*
X0275936Y0143414D02*
X0272896Y0143414D01*
X0267946Y0138617D02*
X0263430Y0138617D01*
X0262327Y0131421D02*
X0262033Y0131421D01*
X0263532Y0129023D02*
X0264126Y0129023D01*
X0285799Y0119429D02*
X0292068Y0119429D01*
X0292068Y0121827D02*
X0287811Y0121827D01*
X0289410Y0124226D02*
X0292068Y0124226D01*
X0292068Y0126624D02*
X0291009Y0126624D01*
X0297268Y0126624D02*
X0312252Y0126624D01*
X0312268Y0124226D02*
X0297268Y0124226D01*
X0298268Y0129023D02*
X0311068Y0129023D01*
X0311698Y0131421D02*
X0297638Y0131421D01*
X0297068Y0133820D02*
X0312268Y0133820D01*
X0312268Y0136218D02*
X0297068Y0136218D01*
X0297068Y0138617D02*
X0312268Y0138617D01*
X0312268Y0141015D02*
X0297068Y0141015D01*
X0297068Y0143414D02*
X0312268Y0143414D01*
X0312268Y0145812D02*
X0297068Y0145812D01*
X0297068Y0148211D02*
X0312268Y0148211D01*
X0312268Y0150609D02*
X0297068Y0150609D01*
X0287068Y0150609D02*
X0266462Y0150609D01*
X0280480Y0148211D02*
X0287068Y0148211D01*
X0287068Y0145812D02*
X0280655Y0145812D01*
X0257068Y0160203D02*
X0249788Y0160203D01*
X0278268Y0184188D02*
X0279908Y0184188D01*
X0279468Y0186587D02*
X0277472Y0186587D01*
X0317068Y0150609D02*
X0332268Y0150609D01*
X0332268Y0148211D02*
X0317068Y0148211D01*
X0317068Y0145812D02*
X0332268Y0145812D01*
X0332268Y0143414D02*
X0317068Y0143414D01*
X0317068Y0141015D02*
X0332268Y0141015D01*
X0332268Y0138617D02*
X0317068Y0138617D01*
X0317068Y0136218D02*
X0332268Y0136218D01*
X0332268Y0133820D02*
X0317068Y0133820D01*
X0317638Y0131421D02*
X0331698Y0131421D01*
X0331068Y0129023D02*
X0318268Y0129023D01*
X0317083Y0126624D02*
X0332252Y0126624D01*
X0332268Y0124226D02*
X0317068Y0124226D01*
X0317068Y0105037D02*
X0332268Y0105037D01*
X0332268Y0102639D02*
X0317068Y0102639D01*
X0318175Y0100240D02*
X0331161Y0100240D01*
X0331375Y0097842D02*
X0317960Y0097842D01*
X0317068Y0095443D02*
X0332268Y0095443D01*
X0332268Y0093045D02*
X0317068Y0093045D01*
X0312268Y0093045D02*
X0297068Y0093045D01*
X0297068Y0095443D02*
X0312268Y0095443D01*
X0311375Y0097842D02*
X0297960Y0097842D01*
X0298175Y0100240D02*
X0311161Y0100240D01*
X0312268Y0102639D02*
X0297268Y0102639D01*
X0297268Y0105037D02*
X0312268Y0105037D01*
X0292068Y0105037D02*
X0272206Y0105037D01*
X0273405Y0102639D02*
X0275821Y0102639D01*
X0278514Y0102639D02*
X0292068Y0102639D01*
X0291161Y0100240D02*
X0280675Y0100240D01*
X0280460Y0097842D02*
X0291375Y0097842D01*
X0292268Y0095443D02*
X0271266Y0095443D01*
X0269957Y0097842D02*
X0269267Y0097842D01*
X0268791Y0100240D02*
X0267268Y0100240D01*
X0267268Y0102639D02*
X0267591Y0102639D01*
X0262457Y0097842D02*
X0262268Y0097842D01*
X0263935Y0095443D02*
X0264497Y0095443D01*
X0265734Y0093045D02*
X0266496Y0093045D01*
X0273265Y0093045D02*
X0292268Y0093045D01*
X0292268Y0090646D02*
X0275263Y0090646D01*
X0277262Y0088248D02*
X0292268Y0088248D01*
X0292268Y0085849D02*
X0280423Y0085849D01*
X0280713Y0083451D02*
X0292268Y0083451D01*
X0292268Y0081052D02*
X0278734Y0081052D01*
X0275601Y0081052D02*
X0274728Y0081052D01*
X0273623Y0083451D02*
X0272930Y0083451D01*
X0272492Y0085849D02*
X0271131Y0085849D01*
X0270493Y0088248D02*
X0269332Y0088248D01*
X0268495Y0090646D02*
X0267533Y0090646D01*
X0262832Y0088248D02*
X0244768Y0088248D01*
X0244768Y0090646D02*
X0261033Y0090646D01*
X0259234Y0093045D02*
X0244768Y0093045D01*
X0244768Y0095443D02*
X0257415Y0095443D01*
X0257068Y0097842D02*
X0244768Y0097842D01*
X0244768Y0100240D02*
X0257068Y0100240D01*
X0257068Y0102639D02*
X0244768Y0102639D01*
X0244768Y0105037D02*
X0256051Y0105037D01*
X0239568Y0105037D02*
X0208068Y0105037D01*
X0208068Y0102639D02*
X0239568Y0102639D01*
X0239568Y0100240D02*
X0208068Y0100240D01*
X0208068Y0097842D02*
X0239568Y0097842D01*
X0239568Y0095443D02*
X0208068Y0095443D01*
X0208231Y0093045D02*
X0239568Y0093045D01*
X0239568Y0090646D02*
X0210630Y0090646D01*
X0213028Y0088248D02*
X0239568Y0088248D01*
X0239568Y0085849D02*
X0215427Y0085849D01*
X0218023Y0083451D02*
X0239568Y0083451D01*
X0238997Y0081052D02*
X0220947Y0081052D01*
X0221330Y0078654D02*
X0238568Y0078654D01*
X0245338Y0081052D02*
X0268228Y0081052D01*
X0270027Y0078654D02*
X0245768Y0078654D01*
X0244214Y0076255D02*
X0271826Y0076255D01*
X0272068Y0073857D02*
X0219768Y0073857D01*
X0219768Y0071458D02*
X0273182Y0071458D01*
X0273568Y0069060D02*
X0219768Y0069060D01*
X0219768Y0066661D02*
X0274715Y0066661D01*
X0279620Y0066661D02*
X0292068Y0066661D01*
X0292068Y0064263D02*
X0219768Y0064263D01*
X0220780Y0061864D02*
X0292068Y0061864D01*
X0292068Y0059466D02*
X0249593Y0059466D01*
X0250768Y0057067D02*
X0292068Y0057067D01*
X0292068Y0054669D02*
X0250128Y0054669D01*
X0244742Y0059466D02*
X0223179Y0059466D01*
X0218224Y0057067D02*
X0147499Y0057067D01*
X0148249Y0059466D02*
X0215825Y0059466D01*
X0214568Y0061864D02*
X0148126Y0061864D01*
X0164297Y0054669D02*
X0220622Y0054669D01*
X0219964Y0055327D02*
X0219964Y0055327D01*
X0240266Y0049872D02*
X0296623Y0049872D01*
X0293021Y0052270D02*
X0240768Y0052270D01*
X0280768Y0069060D02*
X0291068Y0069060D01*
X0291735Y0071458D02*
X0280101Y0071458D01*
X0277796Y0073857D02*
X0292268Y0073857D01*
X0292268Y0076255D02*
X0277268Y0076255D01*
X0276527Y0078654D02*
X0292268Y0078654D01*
X0297068Y0078654D02*
X0312268Y0078654D01*
X0312268Y0081052D02*
X0297068Y0081052D01*
X0297068Y0083451D02*
X0312268Y0083451D01*
X0312268Y0085849D02*
X0297068Y0085849D01*
X0297068Y0088248D02*
X0312268Y0088248D01*
X0312268Y0090646D02*
X0297068Y0090646D01*
X0317068Y0090646D02*
X0332268Y0090646D01*
X0332268Y0088248D02*
X0317068Y0088248D01*
X0317068Y0085849D02*
X0332268Y0085849D01*
X0332268Y0083451D02*
X0317068Y0083451D01*
X0317068Y0081052D02*
X0332268Y0081052D01*
X0332268Y0078654D02*
X0317068Y0078654D01*
X0317068Y0076255D02*
X0332268Y0076255D01*
X0332268Y0073857D02*
X0317068Y0073857D01*
X0317601Y0071458D02*
X0331735Y0071458D01*
X0331068Y0069060D02*
X0318585Y0069060D01*
X0320983Y0066661D02*
X0332068Y0066661D01*
X0332068Y0064263D02*
X0323382Y0064263D01*
X0316028Y0064263D02*
X0297268Y0064263D01*
X0297268Y0066661D02*
X0312215Y0066661D01*
X0311068Y0069060D02*
X0298268Y0069060D01*
X0297601Y0071458D02*
X0311735Y0071458D01*
X0312268Y0073857D02*
X0297068Y0073857D01*
X0297068Y0076255D02*
X0312268Y0076255D01*
X0337068Y0076255D02*
X0352268Y0076255D01*
X0352268Y0073857D02*
X0337068Y0073857D01*
X0337601Y0071458D02*
X0351735Y0071458D01*
X0351068Y0069060D02*
X0338268Y0069060D01*
X0337268Y0066661D02*
X0352068Y0066661D01*
X0352068Y0064263D02*
X0337268Y0064263D01*
X0338280Y0061864D02*
X0351055Y0061864D01*
X0348657Y0059466D02*
X0340679Y0059466D01*
X0342268Y0057067D02*
X0347068Y0057067D01*
X0347068Y0054669D02*
X0342268Y0054669D01*
X0342268Y0052270D02*
X0347068Y0052270D01*
X0346068Y0049872D02*
X0343268Y0049872D01*
X0352268Y0052270D02*
X0357068Y0052270D01*
X0357068Y0054669D02*
X0352268Y0054669D01*
X0353612Y0057067D02*
X0357068Y0057067D01*
X0356010Y0059466D02*
X0358320Y0059466D01*
X0357268Y0061864D02*
X0359919Y0061864D01*
X0361518Y0064263D02*
X0357268Y0064263D01*
X0357268Y0066661D02*
X0363521Y0066661D01*
X0358268Y0069060D02*
X0370751Y0069060D01*
X0371735Y0071458D02*
X0357601Y0071458D01*
X0357068Y0073857D02*
X0372268Y0073857D01*
X0372268Y0076255D02*
X0357068Y0076255D01*
X0357068Y0078654D02*
X0372268Y0078654D01*
X0372268Y0081052D02*
X0357068Y0081052D01*
X0357068Y0083451D02*
X0372268Y0083451D01*
X0372268Y0085849D02*
X0357068Y0085849D01*
X0357068Y0088248D02*
X0372268Y0088248D01*
X0372268Y0090646D02*
X0357068Y0090646D01*
X0357068Y0093045D02*
X0372268Y0093045D01*
X0372268Y0095443D02*
X0357068Y0095443D01*
X0357960Y0097842D02*
X0371375Y0097842D01*
X0371161Y0100240D02*
X0358175Y0100240D01*
X0357068Y0102639D02*
X0372268Y0102639D01*
X0372268Y0105037D02*
X0357068Y0105037D01*
X0352268Y0105037D02*
X0337068Y0105037D01*
X0337068Y0102639D02*
X0352268Y0102639D01*
X0351161Y0100240D02*
X0338175Y0100240D01*
X0337960Y0097842D02*
X0351375Y0097842D01*
X0352268Y0095443D02*
X0337068Y0095443D01*
X0337068Y0093045D02*
X0352268Y0093045D01*
X0352268Y0090646D02*
X0337068Y0090646D01*
X0337068Y0088248D02*
X0352268Y0088248D01*
X0352268Y0085849D02*
X0337068Y0085849D01*
X0337068Y0083451D02*
X0352268Y0083451D01*
X0352268Y0081052D02*
X0337068Y0081052D01*
X0337068Y0078654D02*
X0352268Y0078654D01*
X0377068Y0078654D02*
X0392268Y0078654D01*
X0392268Y0081052D02*
X0377068Y0081052D01*
X0377068Y0083451D02*
X0392268Y0083451D01*
X0392268Y0085849D02*
X0377068Y0085849D01*
X0377068Y0088248D02*
X0392268Y0088248D01*
X0392268Y0090646D02*
X0377068Y0090646D01*
X0377068Y0093045D02*
X0392268Y0093045D01*
X0392268Y0095443D02*
X0377068Y0095443D01*
X0377960Y0097842D02*
X0391375Y0097842D01*
X0391161Y0100240D02*
X0378175Y0100240D01*
X0377068Y0102639D02*
X0392268Y0102639D01*
X0392268Y0105037D02*
X0377068Y0105037D01*
X0377068Y0124226D02*
X0392268Y0124226D01*
X0392252Y0126624D02*
X0377083Y0126624D01*
X0378268Y0129023D02*
X0391068Y0129023D01*
X0391698Y0131421D02*
X0377638Y0131421D01*
X0377068Y0133820D02*
X0392268Y0133820D01*
X0392268Y0136218D02*
X0377068Y0136218D01*
X0377068Y0138617D02*
X0392268Y0138617D01*
X0392268Y0141015D02*
X0377068Y0141015D01*
X0377068Y0143414D02*
X0392268Y0143414D01*
X0392268Y0145812D02*
X0377068Y0145812D01*
X0377068Y0148211D02*
X0392268Y0148211D01*
X0392268Y0150609D02*
X0377068Y0150609D01*
X0377068Y0153008D02*
X0392268Y0153008D01*
X0392268Y0155406D02*
X0377068Y0155406D01*
X0377945Y0157805D02*
X0391390Y0157805D01*
X0391145Y0160203D02*
X0378190Y0160203D01*
X0397068Y0155406D02*
X0412268Y0155406D01*
X0412268Y0153008D02*
X0397068Y0153008D01*
X0397068Y0150609D02*
X0412268Y0150609D01*
X0412268Y0148211D02*
X0397068Y0148211D01*
X0397068Y0145812D02*
X0412268Y0145812D01*
X0412268Y0143414D02*
X0397068Y0143414D01*
X0397068Y0141015D02*
X0412268Y0141015D01*
X0412268Y0138617D02*
X0397068Y0138617D01*
X0397068Y0136218D02*
X0412268Y0136218D01*
X0412268Y0133820D02*
X0397068Y0133820D01*
X0397638Y0131421D02*
X0411698Y0131421D01*
X0411068Y0129023D02*
X0398268Y0129023D01*
X0397083Y0126624D02*
X0412252Y0126624D01*
X0412268Y0124226D02*
X0397068Y0124226D01*
X0397945Y0157805D02*
X0411390Y0157805D01*
X0411145Y0160203D02*
X0398190Y0160203D01*
X0264631Y0085849D02*
X0244768Y0085849D01*
X0244768Y0083451D02*
X0266430Y0083451D01*
X0240121Y0076255D02*
X0220009Y0076255D01*
X0203411Y0088248D02*
X0187265Y0088248D01*
X0186855Y0090646D02*
X0201465Y0090646D01*
X0201268Y0093045D02*
X0186083Y0093045D01*
X0186083Y0095443D02*
X0201268Y0095443D01*
X0201268Y0097842D02*
X0186083Y0097842D01*
X0186083Y0100240D02*
X0201268Y0100240D01*
X0201268Y0102639D02*
X0186083Y0102639D01*
X0186083Y0105037D02*
X0201268Y0105037D01*
X0144768Y0076255D02*
X0137068Y0076255D01*
X0137068Y0073857D02*
X0144768Y0073857D01*
X0144768Y0071458D02*
X0137068Y0071458D01*
X0137068Y0069060D02*
X0144768Y0069060D01*
X0132268Y0069060D02*
X0124468Y0069060D01*
X0124469Y0071458D02*
X0132268Y0071458D01*
X0132268Y0073857D02*
X0126867Y0073857D01*
X0130009Y0076255D02*
X0132268Y0076255D01*
X0132268Y0083451D02*
X0130568Y0083451D01*
X0130568Y0085849D02*
X0132268Y0085849D01*
X0131207Y0088248D02*
X0130568Y0088248D01*
X0130568Y0090646D02*
X0131329Y0090646D01*
X0123768Y0102639D02*
X0116035Y0102639D01*
X0116568Y0105037D02*
X0123768Y0105037D01*
X0123768Y0107436D02*
X0115754Y0107436D01*
X0124468Y0066661D02*
X0132268Y0066661D01*
X0132268Y0064263D02*
X0124468Y0064263D01*
X0124468Y0061864D02*
X0132268Y0061864D01*
X0132254Y0059466D02*
X0124468Y0059466D01*
X0157287Y0045075D02*
X0157999Y0045075D01*
X0159686Y0042676D02*
X0160397Y0042676D01*
X0161860Y0040278D02*
X0162796Y0040278D01*
X0162068Y0037879D02*
X0165194Y0037879D01*
X0162068Y0035481D02*
X0175093Y0035481D01*
X0177268Y0033082D02*
X0162068Y0033082D01*
X0157268Y0033082D02*
X0152068Y0033082D01*
X0152068Y0035481D02*
X0157268Y0035481D01*
X0157268Y0037879D02*
X0152068Y0037879D01*
X0152068Y0040278D02*
X0155296Y0040278D01*
X0152897Y0042676D02*
X0152068Y0042676D01*
X0162389Y0047473D02*
X0299028Y0047473D01*
X0305308Y0047473D02*
X0326528Y0047473D01*
X0332808Y0047473D02*
X0336528Y0047473D01*
X0342808Y0047473D02*
X0346528Y0047473D01*
X0352808Y0047473D02*
X0356528Y0047473D01*
X0356068Y0049872D02*
X0353268Y0049872D01*
X0337068Y0052270D02*
X0331789Y0052270D01*
X0333268Y0049872D02*
X0336068Y0049872D01*
X0337068Y0054669D02*
X0327976Y0054669D01*
X0327268Y0057067D02*
X0335724Y0057067D01*
X0333325Y0059466D02*
X0327268Y0059466D01*
X0325780Y0061864D02*
X0332068Y0061864D01*
X0322068Y0057067D02*
X0297268Y0057067D01*
X0297268Y0059466D02*
X0320825Y0059466D01*
X0318426Y0061864D02*
X0297268Y0061864D01*
X0298802Y0054669D02*
X0322068Y0054669D01*
X0323021Y0052270D02*
X0304289Y0052270D01*
X0305768Y0049872D02*
X0325419Y0049872D01*
X0372268Y0052270D02*
X0377068Y0052270D01*
X0377068Y0054669D02*
X0372268Y0054669D01*
X0374050Y0057067D02*
X0377068Y0057067D01*
X0376068Y0049872D02*
X0373268Y0049872D01*
X0373307Y0064263D02*
X0374562Y0064263D01*
X0377120Y0066661D02*
X0377440Y0066661D01*
X0378268Y0069060D02*
X0380318Y0069060D01*
X0377601Y0071458D02*
X0383149Y0071458D01*
X0377068Y0073857D02*
X0392268Y0073857D01*
X0392268Y0076255D02*
X0377068Y0076255D01*
X0432183Y0045075D02*
X0164787Y0045075D01*
X0167186Y0042676D02*
X0433236Y0042676D01*
X0443886Y0033082D02*
X0451169Y0033082D01*
X0451169Y0030684D02*
X0446360Y0030684D01*
X0447852Y0028285D02*
X0451169Y0028285D01*
X0451169Y0025887D02*
X0448798Y0025887D01*
X0449352Y0023488D02*
X0451169Y0023488D01*
X0451169Y0021090D02*
X0449352Y0021090D01*
X0448944Y0018691D02*
X0451080Y0018691D01*
X0450520Y0016293D02*
X0448167Y0016293D01*
X0446782Y0013894D02*
X0449578Y0013894D01*
X0448064Y0011496D02*
X0444506Y0011496D01*
X0445517Y0009097D02*
X0440368Y0009097D01*
X0439697Y0006699D02*
X0073339Y0006699D01*
X0067519Y0009097D02*
X0430936Y0009097D01*
X0186466Y0025887D02*
X0182869Y0025887D01*
X0184371Y0023488D02*
X0184964Y0023488D01*
X0184868Y0021090D02*
X0184468Y0021090D01*
X0184468Y0018691D02*
X0184868Y0018691D01*
X0184868Y0016293D02*
X0184468Y0016293D01*
X0183867Y0013894D02*
X0185469Y0013894D01*
X0175469Y0013894D02*
X0174278Y0013894D01*
X0174868Y0016293D02*
X0174868Y0016293D01*
X0169668Y0016293D02*
X0169668Y0016293D01*
X0169668Y0013894D02*
X0169668Y0013894D01*
X0165058Y0013894D02*
X0163867Y0013894D01*
X0164468Y0016293D02*
X0164468Y0016293D01*
X0164468Y0018691D02*
X0164468Y0018691D01*
X0164468Y0019300D02*
X0169668Y0019300D01*
X0169668Y0019300D01*
X0164468Y0019300D01*
X0164468Y0021090D02*
X0164468Y0021090D01*
X0164371Y0023488D02*
X0164591Y0023488D01*
X0165900Y0025887D02*
X0162869Y0025887D01*
X0162068Y0028285D02*
X0177268Y0028285D01*
X0177268Y0030684D02*
X0162068Y0030684D01*
X0157268Y0030684D02*
X0152068Y0030684D01*
X0152068Y0028285D02*
X0157268Y0028285D01*
X0156466Y0025887D02*
X0152869Y0025887D01*
X0154371Y0023488D02*
X0154964Y0023488D01*
X0154868Y0021090D02*
X0154468Y0021090D01*
X0154468Y0018691D02*
X0154868Y0018691D01*
X0154868Y0016293D02*
X0154468Y0016293D01*
X0153867Y0013894D02*
X0155469Y0013894D01*
X0169668Y0018691D02*
X0169668Y0018691D01*
X0169668Y0021090D02*
X0169668Y0021090D01*
X0169668Y0023488D02*
X0169668Y0023488D01*
X0169668Y0025887D02*
X0169668Y0025887D01*
X0173435Y0025887D02*
X0176466Y0025887D01*
X0174964Y0023488D02*
X0174744Y0023488D01*
X0174868Y0021090D02*
X0174868Y0021090D01*
X0174868Y0018691D02*
X0174868Y0018691D01*
X0112487Y0030684D02*
X0061868Y0030684D01*
X0160749Y0049872D02*
X0163158Y0049872D01*
D24*
X0157168Y0049300D03*
X0152168Y0049300D03*
X0144668Y0049300D03*
X0144668Y0059300D03*
X0128172Y0068080D03*
X0099825Y0068080D03*
X0107168Y0084300D03*
X0121085Y0089339D03*
X0142345Y0084615D03*
X0183683Y0088946D03*
X0232168Y0076800D03*
X0249668Y0109300D03*
X0183683Y0136190D03*
X0177778Y0124379D03*
X0162168Y0131800D03*
X0154668Y0131800D03*
X0137168Y0131800D03*
X0132168Y0137194D03*
X0135258Y0120048D03*
X0132168Y0109300D03*
X0135258Y0105875D03*
X0109274Y0115324D03*
X0092168Y0126800D03*
X0084668Y0134300D03*
X0091164Y0171623D03*
X0135790Y0190146D03*
X0146774Y0179300D03*
X0154668Y0173394D03*
X0165967Y0189339D03*
X0195494Y0167686D03*
X0211243Y0163749D03*
X0232109Y0188552D03*
X0399648Y0178060D03*
X0406597Y0037765D03*
X0137068Y0015100D03*
X0116068Y0031300D03*
X0087268Y0027700D03*
D25*
X0116068Y0031300D02*
X0116068Y0031900D01*
X0114668Y0069300D02*
X0114668Y0086800D01*
X0087731Y0111237D01*
X0087168Y0111237D01*
X0080928Y0111237D01*
X0080928Y0102363D02*
X0086605Y0102363D01*
X0107168Y0084300D01*
X0107168Y0069950D01*
X0217168Y0061800D02*
X0222168Y0056800D01*
X0247168Y0056800D01*
X0277168Y0069300D02*
X0274668Y0074300D01*
X0274668Y0076800D01*
X0259668Y0096800D01*
X0259668Y0104300D01*
X0249668Y0119300D01*
X0247168Y0119300D01*
X0242168Y0114300D02*
X0212168Y0144300D01*
X0212168Y0156800D01*
X0214369Y0161202D01*
X0214668Y0161800D01*
X0247168Y0161800D01*
X0252168Y0164300D01*
X0252168Y0184300D01*
X0257168Y0186800D01*
X0267168Y0186800D01*
X0274668Y0184300D02*
X0264668Y0169300D01*
X0264668Y0161800D01*
X0259668Y0156800D02*
X0259668Y0174300D01*
X0237168Y0171800D02*
X0204668Y0171800D01*
X0176794Y0160796D02*
X0174825Y0160796D01*
X0167935Y0167686D01*
X0167935Y0175560D01*
X0163998Y0179497D01*
X0146971Y0179497D01*
X0146774Y0179300D01*
X0162853Y0148985D02*
X0162168Y0148300D01*
X0162853Y0148985D02*
X0176794Y0148985D01*
X0217168Y0149300D02*
X0262168Y0149300D01*
X0269668Y0146800D01*
X0277168Y0146800D01*
X0272168Y0154300D02*
X0289668Y0154300D01*
X0289668Y0179300D01*
X0289668Y0154300D02*
X0289668Y0129300D01*
X0284668Y0121800D01*
X0272168Y0121800D01*
X0269668Y0114300D02*
X0277168Y0114300D01*
X0269668Y0114300D02*
X0257168Y0134300D01*
X0232168Y0134300D01*
X0227168Y0139300D02*
X0259668Y0139300D01*
X0267168Y0129300D01*
X0277168Y0129300D01*
X0294668Y0129300D02*
X0294668Y0099300D01*
X0277168Y0099300D02*
X0272168Y0099300D01*
X0267168Y0109300D01*
X0254668Y0129300D01*
X0237168Y0129300D01*
X0242168Y0124300D02*
X0252168Y0124300D01*
X0264668Y0104300D01*
X0264668Y0099300D01*
X0277168Y0084300D01*
X0294668Y0069300D02*
X0294668Y0054300D01*
X0302168Y0049300D01*
X0324668Y0054300D02*
X0324668Y0059300D01*
X0314668Y0069300D01*
X0334668Y0069300D02*
X0334668Y0061800D01*
X0339668Y0056800D01*
X0339668Y0049300D01*
X0349668Y0049300D02*
X0349668Y0056800D01*
X0354668Y0061800D01*
X0354668Y0069300D01*
X0364668Y0064300D02*
X0369668Y0064300D01*
X0374668Y0069300D01*
X0364668Y0064300D02*
X0359668Y0056800D01*
X0359668Y0049300D01*
X0369668Y0049300D02*
X0369668Y0056800D01*
X0384668Y0069300D01*
X0394668Y0069300D01*
X0399668Y0061800D02*
X0407168Y0069300D01*
X0414668Y0069300D01*
X0399668Y0061800D02*
X0384668Y0061800D01*
X0379668Y0056800D01*
X0379668Y0049300D01*
X0329668Y0049300D02*
X0324668Y0054300D01*
X0242168Y0079300D02*
X0242168Y0114300D01*
X0259668Y0144300D02*
X0264668Y0141800D01*
X0269668Y0141800D01*
X0259668Y0144300D02*
X0222168Y0144300D01*
X0085258Y0149969D02*
X0085258Y0134891D01*
X0084668Y0134300D01*
X0085258Y0149969D02*
X0080534Y0154694D01*
X0079648Y0154694D01*
X0079648Y0164930D02*
X0080140Y0165422D01*
X0080140Y0172804D01*
X0217168Y0079300D02*
X0217168Y0061800D01*
D26*
X0217168Y0079300D03*
X0127168Y0079300D03*
X0204668Y0171800D03*
X0127168Y0179300D03*
D27*
X0217168Y0149300D03*
X0222168Y0144300D03*
X0227168Y0139300D03*
X0232168Y0134300D03*
X0237168Y0129300D03*
X0242168Y0124300D03*
X0247168Y0119300D03*
X0272168Y0121800D03*
X0277168Y0114300D03*
X0277168Y0099300D03*
X0294668Y0099300D03*
X0314668Y0099300D03*
X0334668Y0099300D03*
X0354668Y0099300D03*
X0374668Y0099300D03*
X0394668Y0099300D03*
X0414668Y0099300D03*
X0414668Y0129300D03*
X0394668Y0129300D03*
X0374668Y0129300D03*
X0354668Y0129300D03*
X0334668Y0129300D03*
X0314668Y0129300D03*
X0294668Y0129300D03*
X0277168Y0129300D03*
X0269668Y0141800D03*
X0277168Y0146800D03*
X0272168Y0154300D03*
X0259668Y0156800D03*
X0264668Y0161800D03*
X0259668Y0174300D03*
X0274668Y0184300D03*
X0267168Y0186800D03*
X0289668Y0179300D03*
X0294668Y0159300D03*
X0314668Y0159300D03*
X0334668Y0159300D03*
X0354668Y0159300D03*
X0374668Y0159300D03*
X0394668Y0159300D03*
X0414668Y0159300D03*
X0277168Y0084300D03*
X0277168Y0069300D03*
X0294668Y0069300D03*
X0314668Y0069300D03*
X0334668Y0069300D03*
X0354668Y0069300D03*
X0374668Y0069300D03*
X0394668Y0069300D03*
X0414668Y0069300D03*
X0379668Y0049300D03*
X0369668Y0049300D03*
X0359668Y0049300D03*
X0349668Y0049300D03*
X0339668Y0049300D03*
X0329668Y0049300D03*
X0302168Y0049300D03*
X0247168Y0056800D03*
X0237168Y0051800D03*
X0242168Y0079300D03*
X0142168Y0094300D03*
X0134668Y0089300D03*
X0114668Y0069300D03*
X0107168Y0069950D03*
X0237168Y0171800D03*
X0224668Y0189300D03*
D28*
X0204668Y0171800D02*
X0204668Y0091800D01*
X0217168Y0079300D01*
X0127168Y0079300D02*
X0127168Y0179300D01*
D29*
X0142168Y0181800D02*
X0142168Y0094300D01*
X0134668Y0089300D02*
X0134668Y0059300D01*
X0142168Y0054300D01*
X0159668Y0054300D01*
X0164668Y0051800D01*
X0237168Y0051800D01*
X0179668Y0034300D02*
X0174668Y0039300D01*
X0167168Y0039300D01*
X0157168Y0049300D01*
X0152168Y0049300D02*
X0152168Y0046800D01*
X0159668Y0039300D01*
X0159668Y0019300D01*
X0149668Y0019300D02*
X0149668Y0044300D01*
X0144668Y0049300D01*
X0144668Y0059300D02*
X0144668Y0061800D01*
X0147168Y0064300D01*
X0147168Y0100800D01*
X0147168Y0122800D01*
X0151168Y0124300D01*
X0154668Y0126800D01*
X0154668Y0131800D01*
X0162168Y0131800D02*
X0162168Y0148300D01*
X0162168Y0170300D01*
X0162168Y0170363D01*
X0157699Y0171426D01*
X0154668Y0173394D01*
X0148093Y0174769D02*
X0147168Y0170300D01*
X0147168Y0148300D01*
X0132168Y0137194D02*
X0132168Y0109300D01*
X0097168Y0121237D02*
X0087168Y0111237D01*
X0097168Y0121237D02*
X0097168Y0151800D01*
X0089156Y0159812D01*
X0079648Y0159812D01*
X0079648Y0157253D02*
X0086715Y0157253D01*
X0092168Y0151800D01*
X0092168Y0126800D01*
X0135790Y0135284D02*
X0137168Y0131800D01*
X0135790Y0135284D02*
X0135790Y0190146D01*
X0142168Y0181800D02*
X0149668Y0189300D01*
X0185613Y0189300D01*
X0165967Y0189339D01*
X0224628Y0189339D01*
X0224668Y0189300D01*
X0211243Y0163749D02*
X0211243Y0162359D01*
X0214369Y0161202D01*
X0183683Y0136190D02*
X0183683Y0088946D01*
X0294668Y0099300D02*
X0294668Y0069300D01*
X0314668Y0069300D02*
X0314668Y0099300D01*
X0314668Y0129300D01*
X0314668Y0159300D01*
X0294668Y0159300D02*
X0294668Y0129300D01*
X0334668Y0129300D02*
X0334668Y0099300D01*
X0334668Y0069300D01*
X0354668Y0069300D02*
X0354668Y0099300D01*
X0354668Y0129300D01*
X0354668Y0159300D01*
X0374668Y0159300D02*
X0374668Y0129300D01*
X0374668Y0099300D01*
X0374668Y0069300D01*
X0394668Y0069300D02*
X0394668Y0099300D01*
X0394668Y0129300D01*
X0394668Y0159300D01*
X0414668Y0159300D02*
X0414668Y0129300D01*
X0414668Y0099300D01*
X0414668Y0069300D01*
X0334668Y0129300D02*
X0334668Y0159300D01*
X0148093Y0174769D02*
X0146774Y0179300D01*
X0179668Y0034300D02*
X0179668Y0019300D01*
M02*
