G75*
%MOIN*%
%OFA0B0*%
%FSLAX25Y25*%
%IPPOS*%
%LPD*%
%AMOC8*
5,1,8,0,0,1.08239X$1,22.5*
%
%ADD10C,0.00000*%
%ADD11C,0.05200*%
%ADD12R,0.03000X0.06000*%
%ADD13C,0.06000*%
%ADD14R,0.05906X0.02756*%
%ADD15R,0.02362X0.03937*%
%ADD16R,0.03150X0.03937*%
%ADD17R,0.09843X0.09843*%
%ADD18C,0.04756*%
%ADD19R,0.05315X0.01575*%
%ADD20R,0.07874X0.03937*%
%ADD21C,0.02400*%
%ADD22C,0.03562*%
%ADD23C,0.01600*%
%ADD24C,0.04724*%
%ADD25C,0.03600*%
%ADD26C,0.03200*%
%ADD27C,0.01200*%
D10*
X0020048Y0004300D02*
X0382253Y0004300D01*
X0382634Y0004305D01*
X0383014Y0004318D01*
X0383394Y0004341D01*
X0383773Y0004374D01*
X0384151Y0004415D01*
X0384528Y0004465D01*
X0384904Y0004525D01*
X0385279Y0004593D01*
X0385651Y0004671D01*
X0386022Y0004758D01*
X0386390Y0004853D01*
X0386756Y0004958D01*
X0387119Y0005071D01*
X0387480Y0005193D01*
X0387837Y0005323D01*
X0388191Y0005463D01*
X0388542Y0005610D01*
X0388889Y0005767D01*
X0389232Y0005931D01*
X0389571Y0006104D01*
X0389906Y0006285D01*
X0390237Y0006474D01*
X0390562Y0006671D01*
X0390883Y0006875D01*
X0391199Y0007088D01*
X0391509Y0007308D01*
X0391815Y0007535D01*
X0392114Y0007770D01*
X0392408Y0008012D01*
X0392696Y0008260D01*
X0392978Y0008516D01*
X0393253Y0008779D01*
X0393522Y0009048D01*
X0393785Y0009323D01*
X0394041Y0009605D01*
X0394289Y0009893D01*
X0394531Y0010187D01*
X0394766Y0010486D01*
X0394993Y0010792D01*
X0395213Y0011102D01*
X0395426Y0011418D01*
X0395630Y0011739D01*
X0395827Y0012064D01*
X0396016Y0012395D01*
X0396197Y0012730D01*
X0396370Y0013069D01*
X0396534Y0013412D01*
X0396691Y0013759D01*
X0396838Y0014110D01*
X0396978Y0014464D01*
X0397108Y0014821D01*
X0397230Y0015182D01*
X0397343Y0015545D01*
X0397448Y0015911D01*
X0397543Y0016279D01*
X0397630Y0016650D01*
X0397708Y0017022D01*
X0397776Y0017397D01*
X0397836Y0017773D01*
X0397886Y0018150D01*
X0397927Y0018528D01*
X0397960Y0018907D01*
X0397983Y0019287D01*
X0397996Y0019667D01*
X0398001Y0020048D01*
X0398001Y0185402D01*
X0397996Y0185783D01*
X0397983Y0186163D01*
X0397960Y0186543D01*
X0397927Y0186922D01*
X0397886Y0187300D01*
X0397836Y0187677D01*
X0397776Y0188053D01*
X0397708Y0188428D01*
X0397630Y0188800D01*
X0397543Y0189171D01*
X0397448Y0189539D01*
X0397343Y0189905D01*
X0397230Y0190268D01*
X0397108Y0190629D01*
X0396978Y0190986D01*
X0396838Y0191340D01*
X0396691Y0191691D01*
X0396534Y0192038D01*
X0396370Y0192381D01*
X0396197Y0192720D01*
X0396016Y0193055D01*
X0395827Y0193386D01*
X0395630Y0193711D01*
X0395426Y0194032D01*
X0395213Y0194348D01*
X0394993Y0194658D01*
X0394766Y0194964D01*
X0394531Y0195263D01*
X0394289Y0195557D01*
X0394041Y0195845D01*
X0393785Y0196127D01*
X0393522Y0196402D01*
X0393253Y0196671D01*
X0392978Y0196934D01*
X0392696Y0197190D01*
X0392408Y0197438D01*
X0392114Y0197680D01*
X0391815Y0197915D01*
X0391509Y0198142D01*
X0391199Y0198362D01*
X0390883Y0198575D01*
X0390562Y0198779D01*
X0390237Y0198976D01*
X0389906Y0199165D01*
X0389571Y0199346D01*
X0389232Y0199519D01*
X0388889Y0199683D01*
X0388542Y0199840D01*
X0388191Y0199987D01*
X0387837Y0200127D01*
X0387480Y0200257D01*
X0387119Y0200379D01*
X0386756Y0200492D01*
X0386390Y0200597D01*
X0386022Y0200692D01*
X0385651Y0200779D01*
X0385279Y0200857D01*
X0384904Y0200925D01*
X0384528Y0200985D01*
X0384151Y0201035D01*
X0383773Y0201076D01*
X0383394Y0201109D01*
X0383014Y0201132D01*
X0382634Y0201145D01*
X0382253Y0201150D01*
X0020048Y0201150D01*
X0019662Y0201145D01*
X0019275Y0201131D01*
X0018890Y0201107D01*
X0018504Y0201074D01*
X0018120Y0201032D01*
X0017737Y0200980D01*
X0017356Y0200918D01*
X0016976Y0200847D01*
X0016598Y0200767D01*
X0016222Y0200678D01*
X0015848Y0200580D01*
X0015477Y0200472D01*
X0015108Y0200355D01*
X0014743Y0200229D01*
X0014380Y0200095D01*
X0014022Y0199951D01*
X0013666Y0199799D01*
X0013315Y0199638D01*
X0012968Y0199468D01*
X0012624Y0199290D01*
X0012286Y0199104D01*
X0011952Y0198910D01*
X0011623Y0198707D01*
X0011299Y0198496D01*
X0010980Y0198277D01*
X0010667Y0198051D01*
X0010359Y0197817D01*
X0010058Y0197575D01*
X0009762Y0197327D01*
X0009472Y0197070D01*
X0009189Y0196807D01*
X0008912Y0196538D01*
X0008643Y0196261D01*
X0008380Y0195978D01*
X0008123Y0195688D01*
X0007875Y0195392D01*
X0007633Y0195091D01*
X0007399Y0194783D01*
X0007173Y0194470D01*
X0006954Y0194151D01*
X0006743Y0193827D01*
X0006540Y0193498D01*
X0006346Y0193164D01*
X0006160Y0192826D01*
X0005982Y0192482D01*
X0005812Y0192135D01*
X0005651Y0191784D01*
X0005499Y0191428D01*
X0005355Y0191070D01*
X0005221Y0190707D01*
X0005095Y0190342D01*
X0004978Y0189973D01*
X0004870Y0189602D01*
X0004772Y0189228D01*
X0004683Y0188852D01*
X0004603Y0188474D01*
X0004532Y0188094D01*
X0004470Y0187713D01*
X0004418Y0187330D01*
X0004376Y0186946D01*
X0004343Y0186560D01*
X0004319Y0186175D01*
X0004305Y0185788D01*
X0004300Y0185402D01*
X0004300Y0020048D01*
X0004305Y0019667D01*
X0004318Y0019287D01*
X0004341Y0018907D01*
X0004374Y0018528D01*
X0004415Y0018150D01*
X0004465Y0017773D01*
X0004525Y0017397D01*
X0004593Y0017022D01*
X0004671Y0016650D01*
X0004758Y0016279D01*
X0004853Y0015911D01*
X0004958Y0015545D01*
X0005071Y0015182D01*
X0005193Y0014821D01*
X0005323Y0014464D01*
X0005463Y0014110D01*
X0005610Y0013759D01*
X0005767Y0013412D01*
X0005931Y0013069D01*
X0006104Y0012730D01*
X0006285Y0012395D01*
X0006474Y0012064D01*
X0006671Y0011739D01*
X0006875Y0011418D01*
X0007088Y0011102D01*
X0007308Y0010792D01*
X0007535Y0010486D01*
X0007770Y0010187D01*
X0008012Y0009893D01*
X0008260Y0009605D01*
X0008516Y0009323D01*
X0008779Y0009048D01*
X0009048Y0008779D01*
X0009323Y0008516D01*
X0009605Y0008260D01*
X0009893Y0008012D01*
X0010187Y0007770D01*
X0010486Y0007535D01*
X0010792Y0007308D01*
X0011102Y0007088D01*
X0011418Y0006875D01*
X0011739Y0006671D01*
X0012064Y0006474D01*
X0012395Y0006285D01*
X0012730Y0006104D01*
X0013069Y0005931D01*
X0013412Y0005767D01*
X0013759Y0005610D01*
X0014110Y0005463D01*
X0014464Y0005323D01*
X0014821Y0005193D01*
X0015182Y0005071D01*
X0015545Y0004958D01*
X0015911Y0004853D01*
X0016279Y0004758D01*
X0016650Y0004671D01*
X0017022Y0004593D01*
X0017397Y0004525D01*
X0017773Y0004465D01*
X0018150Y0004415D01*
X0018528Y0004374D01*
X0018907Y0004341D01*
X0019287Y0004318D01*
X0019667Y0004305D01*
X0020048Y0004300D01*
X0014930Y0144457D02*
X0012568Y0144457D01*
X0012502Y0144465D01*
X0012438Y0144477D01*
X0012374Y0144493D01*
X0012311Y0144512D01*
X0012250Y0144536D01*
X0012190Y0144563D01*
X0012132Y0144593D01*
X0012076Y0144627D01*
X0012022Y0144664D01*
X0011970Y0144705D01*
X0011921Y0144749D01*
X0011874Y0144795D01*
X0011831Y0144844D01*
X0011790Y0144896D01*
X0011753Y0144950D01*
X0011719Y0145006D01*
X0011689Y0145064D01*
X0011662Y0145124D01*
X0011638Y0145185D01*
X0011619Y0145248D01*
X0011603Y0145312D01*
X0011591Y0145376D01*
X0011583Y0145442D01*
X0011579Y0145507D01*
X0011579Y0145573D01*
X0011583Y0145638D01*
X0011583Y0145639D02*
X0011579Y0145704D01*
X0011579Y0145770D01*
X0011583Y0145835D01*
X0011591Y0145901D01*
X0011603Y0145965D01*
X0011619Y0146029D01*
X0011638Y0146092D01*
X0011662Y0146153D01*
X0011689Y0146213D01*
X0011719Y0146271D01*
X0011753Y0146327D01*
X0011790Y0146381D01*
X0011831Y0146433D01*
X0011874Y0146482D01*
X0011921Y0146528D01*
X0011970Y0146572D01*
X0012022Y0146613D01*
X0012076Y0146650D01*
X0012132Y0146684D01*
X0012190Y0146714D01*
X0012250Y0146741D01*
X0012311Y0146765D01*
X0012374Y0146784D01*
X0012438Y0146800D01*
X0012502Y0146812D01*
X0012568Y0146820D01*
X0014930Y0146820D01*
X0014929Y0146820D02*
X0014992Y0146812D01*
X0015054Y0146801D01*
X0015116Y0146786D01*
X0015176Y0146768D01*
X0015236Y0146746D01*
X0015294Y0146721D01*
X0015350Y0146692D01*
X0015405Y0146660D01*
X0015457Y0146625D01*
X0015508Y0146587D01*
X0015556Y0146547D01*
X0015602Y0146503D01*
X0015645Y0146457D01*
X0015686Y0146408D01*
X0015724Y0146357D01*
X0015758Y0146305D01*
X0015790Y0146250D01*
X0015818Y0146193D01*
X0015843Y0146135D01*
X0015864Y0146075D01*
X0015882Y0146015D01*
X0015896Y0145953D01*
X0015907Y0145891D01*
X0015914Y0145828D01*
X0015918Y0145765D01*
X0015917Y0145702D01*
X0015914Y0145639D01*
X0015914Y0145638D02*
X0015917Y0145575D01*
X0015918Y0145512D01*
X0015914Y0145449D01*
X0015907Y0145386D01*
X0015896Y0145324D01*
X0015882Y0145262D01*
X0015864Y0145202D01*
X0015843Y0145142D01*
X0015818Y0145084D01*
X0015790Y0145027D01*
X0015758Y0144972D01*
X0015724Y0144920D01*
X0015686Y0144869D01*
X0015645Y0144820D01*
X0015602Y0144774D01*
X0015556Y0144730D01*
X0015508Y0144690D01*
X0015457Y0144652D01*
X0015405Y0144617D01*
X0015350Y0144585D01*
X0015294Y0144556D01*
X0015236Y0144531D01*
X0015176Y0144509D01*
X0015116Y0144491D01*
X0015054Y0144476D01*
X0014992Y0144465D01*
X0014929Y0144457D01*
X0019851Y0152135D02*
X0019853Y0152209D01*
X0019859Y0152283D01*
X0019869Y0152356D01*
X0019883Y0152429D01*
X0019900Y0152501D01*
X0019922Y0152571D01*
X0019947Y0152641D01*
X0019976Y0152709D01*
X0020009Y0152775D01*
X0020045Y0152840D01*
X0020085Y0152902D01*
X0020127Y0152963D01*
X0020173Y0153021D01*
X0020222Y0153076D01*
X0020274Y0153129D01*
X0020329Y0153179D01*
X0020386Y0153225D01*
X0020446Y0153269D01*
X0020508Y0153309D01*
X0020572Y0153346D01*
X0020638Y0153380D01*
X0020706Y0153410D01*
X0020775Y0153436D01*
X0020846Y0153459D01*
X0020917Y0153477D01*
X0020990Y0153492D01*
X0021063Y0153503D01*
X0021137Y0153510D01*
X0021211Y0153513D01*
X0021284Y0153512D01*
X0021358Y0153507D01*
X0021432Y0153498D01*
X0021505Y0153485D01*
X0021577Y0153468D01*
X0021648Y0153448D01*
X0021718Y0153423D01*
X0021786Y0153395D01*
X0021853Y0153364D01*
X0021918Y0153328D01*
X0021981Y0153290D01*
X0022042Y0153248D01*
X0022101Y0153202D01*
X0022157Y0153154D01*
X0022210Y0153103D01*
X0022260Y0153049D01*
X0022308Y0152992D01*
X0022352Y0152933D01*
X0022394Y0152871D01*
X0022432Y0152808D01*
X0022466Y0152742D01*
X0022497Y0152675D01*
X0022524Y0152606D01*
X0022547Y0152536D01*
X0022567Y0152465D01*
X0022583Y0152392D01*
X0022595Y0152319D01*
X0022603Y0152246D01*
X0022607Y0152172D01*
X0022607Y0152098D01*
X0022603Y0152024D01*
X0022595Y0151951D01*
X0022583Y0151878D01*
X0022567Y0151805D01*
X0022547Y0151734D01*
X0022524Y0151664D01*
X0022497Y0151595D01*
X0022466Y0151528D01*
X0022432Y0151462D01*
X0022394Y0151399D01*
X0022352Y0151337D01*
X0022308Y0151278D01*
X0022260Y0151221D01*
X0022210Y0151167D01*
X0022157Y0151116D01*
X0022101Y0151068D01*
X0022042Y0151022D01*
X0021981Y0150980D01*
X0021918Y0150942D01*
X0021853Y0150906D01*
X0021786Y0150875D01*
X0021718Y0150847D01*
X0021648Y0150822D01*
X0021577Y0150802D01*
X0021505Y0150785D01*
X0021432Y0150772D01*
X0021358Y0150763D01*
X0021284Y0150758D01*
X0021211Y0150757D01*
X0021137Y0150760D01*
X0021063Y0150767D01*
X0020990Y0150778D01*
X0020917Y0150793D01*
X0020846Y0150811D01*
X0020775Y0150834D01*
X0020706Y0150860D01*
X0020638Y0150890D01*
X0020572Y0150924D01*
X0020508Y0150961D01*
X0020446Y0151001D01*
X0020386Y0151045D01*
X0020329Y0151091D01*
X0020274Y0151141D01*
X0020222Y0151194D01*
X0020173Y0151249D01*
X0020127Y0151307D01*
X0020085Y0151368D01*
X0020045Y0151430D01*
X0020009Y0151495D01*
X0019976Y0151561D01*
X0019947Y0151629D01*
X0019922Y0151699D01*
X0019900Y0151769D01*
X0019883Y0151841D01*
X0019869Y0151914D01*
X0019859Y0151987D01*
X0019853Y0152061D01*
X0019851Y0152135D01*
X0019851Y0167489D02*
X0019853Y0167563D01*
X0019859Y0167637D01*
X0019869Y0167710D01*
X0019883Y0167783D01*
X0019900Y0167855D01*
X0019922Y0167925D01*
X0019947Y0167995D01*
X0019976Y0168063D01*
X0020009Y0168129D01*
X0020045Y0168194D01*
X0020085Y0168256D01*
X0020127Y0168317D01*
X0020173Y0168375D01*
X0020222Y0168430D01*
X0020274Y0168483D01*
X0020329Y0168533D01*
X0020386Y0168579D01*
X0020446Y0168623D01*
X0020508Y0168663D01*
X0020572Y0168700D01*
X0020638Y0168734D01*
X0020706Y0168764D01*
X0020775Y0168790D01*
X0020846Y0168813D01*
X0020917Y0168831D01*
X0020990Y0168846D01*
X0021063Y0168857D01*
X0021137Y0168864D01*
X0021211Y0168867D01*
X0021284Y0168866D01*
X0021358Y0168861D01*
X0021432Y0168852D01*
X0021505Y0168839D01*
X0021577Y0168822D01*
X0021648Y0168802D01*
X0021718Y0168777D01*
X0021786Y0168749D01*
X0021853Y0168718D01*
X0021918Y0168682D01*
X0021981Y0168644D01*
X0022042Y0168602D01*
X0022101Y0168556D01*
X0022157Y0168508D01*
X0022210Y0168457D01*
X0022260Y0168403D01*
X0022308Y0168346D01*
X0022352Y0168287D01*
X0022394Y0168225D01*
X0022432Y0168162D01*
X0022466Y0168096D01*
X0022497Y0168029D01*
X0022524Y0167960D01*
X0022547Y0167890D01*
X0022567Y0167819D01*
X0022583Y0167746D01*
X0022595Y0167673D01*
X0022603Y0167600D01*
X0022607Y0167526D01*
X0022607Y0167452D01*
X0022603Y0167378D01*
X0022595Y0167305D01*
X0022583Y0167232D01*
X0022567Y0167159D01*
X0022547Y0167088D01*
X0022524Y0167018D01*
X0022497Y0166949D01*
X0022466Y0166882D01*
X0022432Y0166816D01*
X0022394Y0166753D01*
X0022352Y0166691D01*
X0022308Y0166632D01*
X0022260Y0166575D01*
X0022210Y0166521D01*
X0022157Y0166470D01*
X0022101Y0166422D01*
X0022042Y0166376D01*
X0021981Y0166334D01*
X0021918Y0166296D01*
X0021853Y0166260D01*
X0021786Y0166229D01*
X0021718Y0166201D01*
X0021648Y0166176D01*
X0021577Y0166156D01*
X0021505Y0166139D01*
X0021432Y0166126D01*
X0021358Y0166117D01*
X0021284Y0166112D01*
X0021211Y0166111D01*
X0021137Y0166114D01*
X0021063Y0166121D01*
X0020990Y0166132D01*
X0020917Y0166147D01*
X0020846Y0166165D01*
X0020775Y0166188D01*
X0020706Y0166214D01*
X0020638Y0166244D01*
X0020572Y0166278D01*
X0020508Y0166315D01*
X0020446Y0166355D01*
X0020386Y0166399D01*
X0020329Y0166445D01*
X0020274Y0166495D01*
X0020222Y0166548D01*
X0020173Y0166603D01*
X0020127Y0166661D01*
X0020085Y0166722D01*
X0020045Y0166784D01*
X0020009Y0166849D01*
X0019976Y0166915D01*
X0019947Y0166983D01*
X0019922Y0167053D01*
X0019900Y0167123D01*
X0019883Y0167195D01*
X0019869Y0167268D01*
X0019859Y0167341D01*
X0019853Y0167415D01*
X0019851Y0167489D01*
X0014930Y0172804D02*
X0012568Y0172804D01*
X0012502Y0172812D01*
X0012438Y0172824D01*
X0012374Y0172840D01*
X0012311Y0172859D01*
X0012250Y0172883D01*
X0012190Y0172910D01*
X0012132Y0172940D01*
X0012076Y0172974D01*
X0012022Y0173011D01*
X0011970Y0173052D01*
X0011921Y0173096D01*
X0011874Y0173142D01*
X0011831Y0173191D01*
X0011790Y0173243D01*
X0011753Y0173297D01*
X0011719Y0173353D01*
X0011689Y0173411D01*
X0011662Y0173471D01*
X0011638Y0173532D01*
X0011619Y0173595D01*
X0011603Y0173659D01*
X0011591Y0173723D01*
X0011583Y0173789D01*
X0011579Y0173854D01*
X0011579Y0173920D01*
X0011583Y0173985D01*
X0011579Y0174050D01*
X0011579Y0174116D01*
X0011583Y0174181D01*
X0011591Y0174247D01*
X0011603Y0174311D01*
X0011619Y0174375D01*
X0011638Y0174438D01*
X0011662Y0174499D01*
X0011689Y0174559D01*
X0011719Y0174617D01*
X0011753Y0174673D01*
X0011790Y0174727D01*
X0011831Y0174779D01*
X0011874Y0174828D01*
X0011921Y0174874D01*
X0011970Y0174918D01*
X0012022Y0174959D01*
X0012076Y0174996D01*
X0012132Y0175030D01*
X0012190Y0175060D01*
X0012250Y0175087D01*
X0012311Y0175111D01*
X0012374Y0175130D01*
X0012438Y0175146D01*
X0012502Y0175158D01*
X0012568Y0175166D01*
X0014930Y0175166D01*
X0014929Y0175166D02*
X0014992Y0175158D01*
X0015054Y0175147D01*
X0015116Y0175132D01*
X0015176Y0175114D01*
X0015236Y0175092D01*
X0015294Y0175067D01*
X0015350Y0175038D01*
X0015405Y0175006D01*
X0015457Y0174971D01*
X0015508Y0174933D01*
X0015556Y0174893D01*
X0015602Y0174849D01*
X0015645Y0174803D01*
X0015686Y0174754D01*
X0015724Y0174703D01*
X0015758Y0174651D01*
X0015790Y0174596D01*
X0015818Y0174539D01*
X0015843Y0174481D01*
X0015864Y0174421D01*
X0015882Y0174361D01*
X0015896Y0174299D01*
X0015907Y0174237D01*
X0015914Y0174174D01*
X0015918Y0174111D01*
X0015917Y0174048D01*
X0015914Y0173985D01*
X0015917Y0173922D01*
X0015918Y0173859D01*
X0015914Y0173796D01*
X0015907Y0173733D01*
X0015896Y0173671D01*
X0015882Y0173609D01*
X0015864Y0173549D01*
X0015843Y0173489D01*
X0015818Y0173431D01*
X0015790Y0173374D01*
X0015758Y0173319D01*
X0015724Y0173267D01*
X0015686Y0173216D01*
X0015645Y0173167D01*
X0015602Y0173121D01*
X0015556Y0173077D01*
X0015508Y0173037D01*
X0015457Y0172999D01*
X0015405Y0172964D01*
X0015350Y0172932D01*
X0015294Y0172903D01*
X0015236Y0172878D01*
X0015176Y0172856D01*
X0015116Y0172838D01*
X0015054Y0172823D01*
X0014992Y0172812D01*
X0014929Y0172804D01*
X0126544Y0157843D02*
X0126546Y0157927D01*
X0126552Y0158010D01*
X0126562Y0158093D01*
X0126576Y0158176D01*
X0126593Y0158258D01*
X0126615Y0158339D01*
X0126640Y0158418D01*
X0126669Y0158497D01*
X0126702Y0158574D01*
X0126738Y0158649D01*
X0126778Y0158723D01*
X0126821Y0158795D01*
X0126868Y0158864D01*
X0126918Y0158931D01*
X0126971Y0158996D01*
X0127027Y0159058D01*
X0127085Y0159118D01*
X0127147Y0159175D01*
X0127211Y0159228D01*
X0127278Y0159279D01*
X0127347Y0159326D01*
X0127418Y0159371D01*
X0127491Y0159411D01*
X0127566Y0159448D01*
X0127643Y0159482D01*
X0127721Y0159512D01*
X0127800Y0159538D01*
X0127881Y0159561D01*
X0127963Y0159579D01*
X0128045Y0159594D01*
X0128128Y0159605D01*
X0128211Y0159612D01*
X0128295Y0159615D01*
X0128379Y0159614D01*
X0128462Y0159609D01*
X0128546Y0159600D01*
X0128628Y0159587D01*
X0128710Y0159571D01*
X0128791Y0159550D01*
X0128872Y0159526D01*
X0128950Y0159498D01*
X0129028Y0159466D01*
X0129104Y0159430D01*
X0129178Y0159391D01*
X0129250Y0159349D01*
X0129320Y0159303D01*
X0129388Y0159254D01*
X0129453Y0159202D01*
X0129516Y0159147D01*
X0129576Y0159089D01*
X0129634Y0159028D01*
X0129688Y0158964D01*
X0129740Y0158898D01*
X0129788Y0158830D01*
X0129833Y0158759D01*
X0129874Y0158686D01*
X0129913Y0158612D01*
X0129947Y0158536D01*
X0129978Y0158458D01*
X0130005Y0158379D01*
X0130029Y0158298D01*
X0130048Y0158217D01*
X0130064Y0158135D01*
X0130076Y0158052D01*
X0130084Y0157968D01*
X0130088Y0157885D01*
X0130088Y0157801D01*
X0130084Y0157718D01*
X0130076Y0157634D01*
X0130064Y0157551D01*
X0130048Y0157469D01*
X0130029Y0157388D01*
X0130005Y0157307D01*
X0129978Y0157228D01*
X0129947Y0157150D01*
X0129913Y0157074D01*
X0129874Y0157000D01*
X0129833Y0156927D01*
X0129788Y0156856D01*
X0129740Y0156788D01*
X0129688Y0156722D01*
X0129634Y0156658D01*
X0129576Y0156597D01*
X0129516Y0156539D01*
X0129453Y0156484D01*
X0129388Y0156432D01*
X0129320Y0156383D01*
X0129250Y0156337D01*
X0129178Y0156295D01*
X0129104Y0156256D01*
X0129028Y0156220D01*
X0128950Y0156188D01*
X0128872Y0156160D01*
X0128791Y0156136D01*
X0128710Y0156115D01*
X0128628Y0156099D01*
X0128546Y0156086D01*
X0128462Y0156077D01*
X0128379Y0156072D01*
X0128295Y0156071D01*
X0128211Y0156074D01*
X0128128Y0156081D01*
X0128045Y0156092D01*
X0127963Y0156107D01*
X0127881Y0156125D01*
X0127800Y0156148D01*
X0127721Y0156174D01*
X0127643Y0156204D01*
X0127566Y0156238D01*
X0127491Y0156275D01*
X0127418Y0156315D01*
X0127347Y0156360D01*
X0127278Y0156407D01*
X0127211Y0156458D01*
X0127147Y0156511D01*
X0127085Y0156568D01*
X0127027Y0156628D01*
X0126971Y0156690D01*
X0126918Y0156755D01*
X0126868Y0156822D01*
X0126821Y0156891D01*
X0126778Y0156963D01*
X0126738Y0157037D01*
X0126702Y0157112D01*
X0126669Y0157189D01*
X0126640Y0157268D01*
X0126615Y0157347D01*
X0126593Y0157428D01*
X0126576Y0157510D01*
X0126562Y0157593D01*
X0126552Y0157676D01*
X0126546Y0157759D01*
X0126544Y0157843D01*
X0126544Y0146032D02*
X0126546Y0146116D01*
X0126552Y0146199D01*
X0126562Y0146282D01*
X0126576Y0146365D01*
X0126593Y0146447D01*
X0126615Y0146528D01*
X0126640Y0146607D01*
X0126669Y0146686D01*
X0126702Y0146763D01*
X0126738Y0146838D01*
X0126778Y0146912D01*
X0126821Y0146984D01*
X0126868Y0147053D01*
X0126918Y0147120D01*
X0126971Y0147185D01*
X0127027Y0147247D01*
X0127085Y0147307D01*
X0127147Y0147364D01*
X0127211Y0147417D01*
X0127278Y0147468D01*
X0127347Y0147515D01*
X0127418Y0147560D01*
X0127491Y0147600D01*
X0127566Y0147637D01*
X0127643Y0147671D01*
X0127721Y0147701D01*
X0127800Y0147727D01*
X0127881Y0147750D01*
X0127963Y0147768D01*
X0128045Y0147783D01*
X0128128Y0147794D01*
X0128211Y0147801D01*
X0128295Y0147804D01*
X0128379Y0147803D01*
X0128462Y0147798D01*
X0128546Y0147789D01*
X0128628Y0147776D01*
X0128710Y0147760D01*
X0128791Y0147739D01*
X0128872Y0147715D01*
X0128950Y0147687D01*
X0129028Y0147655D01*
X0129104Y0147619D01*
X0129178Y0147580D01*
X0129250Y0147538D01*
X0129320Y0147492D01*
X0129388Y0147443D01*
X0129453Y0147391D01*
X0129516Y0147336D01*
X0129576Y0147278D01*
X0129634Y0147217D01*
X0129688Y0147153D01*
X0129740Y0147087D01*
X0129788Y0147019D01*
X0129833Y0146948D01*
X0129874Y0146875D01*
X0129913Y0146801D01*
X0129947Y0146725D01*
X0129978Y0146647D01*
X0130005Y0146568D01*
X0130029Y0146487D01*
X0130048Y0146406D01*
X0130064Y0146324D01*
X0130076Y0146241D01*
X0130084Y0146157D01*
X0130088Y0146074D01*
X0130088Y0145990D01*
X0130084Y0145907D01*
X0130076Y0145823D01*
X0130064Y0145740D01*
X0130048Y0145658D01*
X0130029Y0145577D01*
X0130005Y0145496D01*
X0129978Y0145417D01*
X0129947Y0145339D01*
X0129913Y0145263D01*
X0129874Y0145189D01*
X0129833Y0145116D01*
X0129788Y0145045D01*
X0129740Y0144977D01*
X0129688Y0144911D01*
X0129634Y0144847D01*
X0129576Y0144786D01*
X0129516Y0144728D01*
X0129453Y0144673D01*
X0129388Y0144621D01*
X0129320Y0144572D01*
X0129250Y0144526D01*
X0129178Y0144484D01*
X0129104Y0144445D01*
X0129028Y0144409D01*
X0128950Y0144377D01*
X0128872Y0144349D01*
X0128791Y0144325D01*
X0128710Y0144304D01*
X0128628Y0144288D01*
X0128546Y0144275D01*
X0128462Y0144266D01*
X0128379Y0144261D01*
X0128295Y0144260D01*
X0128211Y0144263D01*
X0128128Y0144270D01*
X0128045Y0144281D01*
X0127963Y0144296D01*
X0127881Y0144314D01*
X0127800Y0144337D01*
X0127721Y0144363D01*
X0127643Y0144393D01*
X0127566Y0144427D01*
X0127491Y0144464D01*
X0127418Y0144504D01*
X0127347Y0144549D01*
X0127278Y0144596D01*
X0127211Y0144647D01*
X0127147Y0144700D01*
X0127085Y0144757D01*
X0127027Y0144817D01*
X0126971Y0144879D01*
X0126918Y0144944D01*
X0126868Y0145011D01*
X0126821Y0145080D01*
X0126778Y0145152D01*
X0126738Y0145226D01*
X0126702Y0145301D01*
X0126669Y0145378D01*
X0126640Y0145457D01*
X0126615Y0145536D01*
X0126593Y0145617D01*
X0126576Y0145699D01*
X0126562Y0145782D01*
X0126552Y0145865D01*
X0126546Y0145948D01*
X0126544Y0146032D01*
X0375363Y0183434D02*
X0375365Y0183574D01*
X0375371Y0183714D01*
X0375381Y0183853D01*
X0375395Y0183992D01*
X0375413Y0184131D01*
X0375434Y0184269D01*
X0375460Y0184407D01*
X0375490Y0184544D01*
X0375523Y0184679D01*
X0375561Y0184814D01*
X0375602Y0184948D01*
X0375647Y0185081D01*
X0375695Y0185212D01*
X0375748Y0185341D01*
X0375804Y0185470D01*
X0375863Y0185596D01*
X0375927Y0185721D01*
X0375993Y0185844D01*
X0376064Y0185965D01*
X0376137Y0186084D01*
X0376214Y0186201D01*
X0376295Y0186315D01*
X0376378Y0186427D01*
X0376465Y0186537D01*
X0376555Y0186645D01*
X0376647Y0186749D01*
X0376743Y0186851D01*
X0376842Y0186951D01*
X0376943Y0187047D01*
X0377047Y0187141D01*
X0377154Y0187231D01*
X0377263Y0187318D01*
X0377375Y0187403D01*
X0377489Y0187484D01*
X0377605Y0187562D01*
X0377723Y0187636D01*
X0377844Y0187707D01*
X0377966Y0187775D01*
X0378091Y0187839D01*
X0378217Y0187900D01*
X0378344Y0187957D01*
X0378474Y0188010D01*
X0378605Y0188060D01*
X0378737Y0188105D01*
X0378870Y0188148D01*
X0379005Y0188186D01*
X0379140Y0188220D01*
X0379277Y0188251D01*
X0379414Y0188278D01*
X0379552Y0188300D01*
X0379691Y0188319D01*
X0379830Y0188334D01*
X0379969Y0188345D01*
X0380109Y0188352D01*
X0380249Y0188355D01*
X0380389Y0188354D01*
X0380529Y0188349D01*
X0380668Y0188340D01*
X0380808Y0188327D01*
X0380947Y0188310D01*
X0381085Y0188289D01*
X0381223Y0188265D01*
X0381360Y0188236D01*
X0381496Y0188204D01*
X0381631Y0188167D01*
X0381765Y0188127D01*
X0381898Y0188083D01*
X0382029Y0188035D01*
X0382159Y0187984D01*
X0382288Y0187929D01*
X0382415Y0187870D01*
X0382540Y0187807D01*
X0382663Y0187742D01*
X0382785Y0187672D01*
X0382904Y0187599D01*
X0383022Y0187523D01*
X0383137Y0187444D01*
X0383250Y0187361D01*
X0383360Y0187275D01*
X0383468Y0187186D01*
X0383573Y0187094D01*
X0383676Y0186999D01*
X0383776Y0186901D01*
X0383873Y0186801D01*
X0383967Y0186697D01*
X0384059Y0186591D01*
X0384147Y0186483D01*
X0384232Y0186372D01*
X0384314Y0186258D01*
X0384393Y0186142D01*
X0384468Y0186025D01*
X0384540Y0185905D01*
X0384608Y0185783D01*
X0384673Y0185659D01*
X0384735Y0185533D01*
X0384793Y0185406D01*
X0384847Y0185277D01*
X0384898Y0185146D01*
X0384944Y0185014D01*
X0384987Y0184881D01*
X0385027Y0184747D01*
X0385062Y0184612D01*
X0385094Y0184475D01*
X0385121Y0184338D01*
X0385145Y0184200D01*
X0385165Y0184062D01*
X0385181Y0183923D01*
X0385193Y0183783D01*
X0385201Y0183644D01*
X0385205Y0183504D01*
X0385205Y0183364D01*
X0385201Y0183224D01*
X0385193Y0183085D01*
X0385181Y0182945D01*
X0385165Y0182806D01*
X0385145Y0182668D01*
X0385121Y0182530D01*
X0385094Y0182393D01*
X0385062Y0182256D01*
X0385027Y0182121D01*
X0384987Y0181987D01*
X0384944Y0181854D01*
X0384898Y0181722D01*
X0384847Y0181591D01*
X0384793Y0181462D01*
X0384735Y0181335D01*
X0384673Y0181209D01*
X0384608Y0181085D01*
X0384540Y0180963D01*
X0384468Y0180843D01*
X0384393Y0180726D01*
X0384314Y0180610D01*
X0384232Y0180496D01*
X0384147Y0180385D01*
X0384059Y0180277D01*
X0383967Y0180171D01*
X0383873Y0180067D01*
X0383776Y0179967D01*
X0383676Y0179869D01*
X0383573Y0179774D01*
X0383468Y0179682D01*
X0383360Y0179593D01*
X0383250Y0179507D01*
X0383137Y0179424D01*
X0383022Y0179345D01*
X0382904Y0179269D01*
X0382785Y0179196D01*
X0382663Y0179126D01*
X0382540Y0179061D01*
X0382415Y0178998D01*
X0382288Y0178939D01*
X0382159Y0178884D01*
X0382029Y0178833D01*
X0381898Y0178785D01*
X0381765Y0178741D01*
X0381631Y0178701D01*
X0381496Y0178664D01*
X0381360Y0178632D01*
X0381223Y0178603D01*
X0381085Y0178579D01*
X0380947Y0178558D01*
X0380808Y0178541D01*
X0380668Y0178528D01*
X0380529Y0178519D01*
X0380389Y0178514D01*
X0380249Y0178513D01*
X0380109Y0178516D01*
X0379969Y0178523D01*
X0379830Y0178534D01*
X0379691Y0178549D01*
X0379552Y0178568D01*
X0379414Y0178590D01*
X0379277Y0178617D01*
X0379140Y0178648D01*
X0379005Y0178682D01*
X0378870Y0178720D01*
X0378737Y0178763D01*
X0378605Y0178808D01*
X0378474Y0178858D01*
X0378344Y0178911D01*
X0378217Y0178968D01*
X0378091Y0179029D01*
X0377966Y0179093D01*
X0377844Y0179161D01*
X0377723Y0179232D01*
X0377605Y0179306D01*
X0377489Y0179384D01*
X0377375Y0179465D01*
X0377263Y0179550D01*
X0377154Y0179637D01*
X0377047Y0179727D01*
X0376943Y0179821D01*
X0376842Y0179917D01*
X0376743Y0180017D01*
X0376647Y0180119D01*
X0376555Y0180223D01*
X0376465Y0180331D01*
X0376378Y0180441D01*
X0376295Y0180553D01*
X0376214Y0180667D01*
X0376137Y0180784D01*
X0376064Y0180903D01*
X0375993Y0181024D01*
X0375927Y0181147D01*
X0375863Y0181272D01*
X0375804Y0181398D01*
X0375748Y0181527D01*
X0375695Y0181656D01*
X0375647Y0181787D01*
X0375602Y0181920D01*
X0375561Y0182054D01*
X0375523Y0182189D01*
X0375490Y0182324D01*
X0375460Y0182461D01*
X0375434Y0182599D01*
X0375413Y0182737D01*
X0375395Y0182876D01*
X0375381Y0183015D01*
X0375371Y0183154D01*
X0375365Y0183294D01*
X0375363Y0183434D01*
X0376426Y0102725D02*
X0376428Y0102918D01*
X0376435Y0103111D01*
X0376447Y0103304D01*
X0376464Y0103497D01*
X0376485Y0103689D01*
X0376511Y0103880D01*
X0376542Y0104071D01*
X0376577Y0104261D01*
X0376617Y0104450D01*
X0376662Y0104638D01*
X0376711Y0104825D01*
X0376765Y0105011D01*
X0376823Y0105195D01*
X0376886Y0105378D01*
X0376954Y0105559D01*
X0377025Y0105738D01*
X0377102Y0105916D01*
X0377182Y0106092D01*
X0377267Y0106265D01*
X0377356Y0106437D01*
X0377449Y0106606D01*
X0377546Y0106773D01*
X0377648Y0106938D01*
X0377753Y0107100D01*
X0377862Y0107259D01*
X0377976Y0107416D01*
X0378093Y0107569D01*
X0378213Y0107720D01*
X0378338Y0107868D01*
X0378466Y0108013D01*
X0378597Y0108154D01*
X0378732Y0108293D01*
X0378871Y0108428D01*
X0379012Y0108559D01*
X0379157Y0108687D01*
X0379305Y0108812D01*
X0379456Y0108932D01*
X0379609Y0109049D01*
X0379766Y0109163D01*
X0379925Y0109272D01*
X0380087Y0109377D01*
X0380252Y0109479D01*
X0380419Y0109576D01*
X0380588Y0109669D01*
X0380760Y0109758D01*
X0380933Y0109843D01*
X0381109Y0109923D01*
X0381287Y0110000D01*
X0381466Y0110071D01*
X0381647Y0110139D01*
X0381830Y0110202D01*
X0382014Y0110260D01*
X0382200Y0110314D01*
X0382387Y0110363D01*
X0382575Y0110408D01*
X0382764Y0110448D01*
X0382954Y0110483D01*
X0383145Y0110514D01*
X0383336Y0110540D01*
X0383528Y0110561D01*
X0383721Y0110578D01*
X0383914Y0110590D01*
X0384107Y0110597D01*
X0384300Y0110599D01*
X0384493Y0110597D01*
X0384686Y0110590D01*
X0384879Y0110578D01*
X0385072Y0110561D01*
X0385264Y0110540D01*
X0385455Y0110514D01*
X0385646Y0110483D01*
X0385836Y0110448D01*
X0386025Y0110408D01*
X0386213Y0110363D01*
X0386400Y0110314D01*
X0386586Y0110260D01*
X0386770Y0110202D01*
X0386953Y0110139D01*
X0387134Y0110071D01*
X0387313Y0110000D01*
X0387491Y0109923D01*
X0387667Y0109843D01*
X0387840Y0109758D01*
X0388012Y0109669D01*
X0388181Y0109576D01*
X0388348Y0109479D01*
X0388513Y0109377D01*
X0388675Y0109272D01*
X0388834Y0109163D01*
X0388991Y0109049D01*
X0389144Y0108932D01*
X0389295Y0108812D01*
X0389443Y0108687D01*
X0389588Y0108559D01*
X0389729Y0108428D01*
X0389868Y0108293D01*
X0390003Y0108154D01*
X0390134Y0108013D01*
X0390262Y0107868D01*
X0390387Y0107720D01*
X0390507Y0107569D01*
X0390624Y0107416D01*
X0390738Y0107259D01*
X0390847Y0107100D01*
X0390952Y0106938D01*
X0391054Y0106773D01*
X0391151Y0106606D01*
X0391244Y0106437D01*
X0391333Y0106265D01*
X0391418Y0106092D01*
X0391498Y0105916D01*
X0391575Y0105738D01*
X0391646Y0105559D01*
X0391714Y0105378D01*
X0391777Y0105195D01*
X0391835Y0105011D01*
X0391889Y0104825D01*
X0391938Y0104638D01*
X0391983Y0104450D01*
X0392023Y0104261D01*
X0392058Y0104071D01*
X0392089Y0103880D01*
X0392115Y0103689D01*
X0392136Y0103497D01*
X0392153Y0103304D01*
X0392165Y0103111D01*
X0392172Y0102918D01*
X0392174Y0102725D01*
X0392172Y0102532D01*
X0392165Y0102339D01*
X0392153Y0102146D01*
X0392136Y0101953D01*
X0392115Y0101761D01*
X0392089Y0101570D01*
X0392058Y0101379D01*
X0392023Y0101189D01*
X0391983Y0101000D01*
X0391938Y0100812D01*
X0391889Y0100625D01*
X0391835Y0100439D01*
X0391777Y0100255D01*
X0391714Y0100072D01*
X0391646Y0099891D01*
X0391575Y0099712D01*
X0391498Y0099534D01*
X0391418Y0099358D01*
X0391333Y0099185D01*
X0391244Y0099013D01*
X0391151Y0098844D01*
X0391054Y0098677D01*
X0390952Y0098512D01*
X0390847Y0098350D01*
X0390738Y0098191D01*
X0390624Y0098034D01*
X0390507Y0097881D01*
X0390387Y0097730D01*
X0390262Y0097582D01*
X0390134Y0097437D01*
X0390003Y0097296D01*
X0389868Y0097157D01*
X0389729Y0097022D01*
X0389588Y0096891D01*
X0389443Y0096763D01*
X0389295Y0096638D01*
X0389144Y0096518D01*
X0388991Y0096401D01*
X0388834Y0096287D01*
X0388675Y0096178D01*
X0388513Y0096073D01*
X0388348Y0095971D01*
X0388181Y0095874D01*
X0388012Y0095781D01*
X0387840Y0095692D01*
X0387667Y0095607D01*
X0387491Y0095527D01*
X0387313Y0095450D01*
X0387134Y0095379D01*
X0386953Y0095311D01*
X0386770Y0095248D01*
X0386586Y0095190D01*
X0386400Y0095136D01*
X0386213Y0095087D01*
X0386025Y0095042D01*
X0385836Y0095002D01*
X0385646Y0094967D01*
X0385455Y0094936D01*
X0385264Y0094910D01*
X0385072Y0094889D01*
X0384879Y0094872D01*
X0384686Y0094860D01*
X0384493Y0094853D01*
X0384300Y0094851D01*
X0384107Y0094853D01*
X0383914Y0094860D01*
X0383721Y0094872D01*
X0383528Y0094889D01*
X0383336Y0094910D01*
X0383145Y0094936D01*
X0382954Y0094967D01*
X0382764Y0095002D01*
X0382575Y0095042D01*
X0382387Y0095087D01*
X0382200Y0095136D01*
X0382014Y0095190D01*
X0381830Y0095248D01*
X0381647Y0095311D01*
X0381466Y0095379D01*
X0381287Y0095450D01*
X0381109Y0095527D01*
X0380933Y0095607D01*
X0380760Y0095692D01*
X0380588Y0095781D01*
X0380419Y0095874D01*
X0380252Y0095971D01*
X0380087Y0096073D01*
X0379925Y0096178D01*
X0379766Y0096287D01*
X0379609Y0096401D01*
X0379456Y0096518D01*
X0379305Y0096638D01*
X0379157Y0096763D01*
X0379012Y0096891D01*
X0378871Y0097022D01*
X0378732Y0097157D01*
X0378597Y0097296D01*
X0378466Y0097437D01*
X0378338Y0097582D01*
X0378213Y0097730D01*
X0378093Y0097881D01*
X0377976Y0098034D01*
X0377862Y0098191D01*
X0377753Y0098350D01*
X0377648Y0098512D01*
X0377546Y0098677D01*
X0377449Y0098844D01*
X0377356Y0099013D01*
X0377267Y0099185D01*
X0377182Y0099358D01*
X0377102Y0099534D01*
X0377025Y0099712D01*
X0376954Y0099891D01*
X0376886Y0100072D01*
X0376823Y0100255D01*
X0376765Y0100439D01*
X0376711Y0100625D01*
X0376662Y0100812D01*
X0376617Y0101000D01*
X0376577Y0101189D01*
X0376542Y0101379D01*
X0376511Y0101570D01*
X0376485Y0101761D01*
X0376464Y0101953D01*
X0376447Y0102146D01*
X0376435Y0102339D01*
X0376428Y0102532D01*
X0376426Y0102725D01*
X0375363Y0022017D02*
X0375365Y0022157D01*
X0375371Y0022297D01*
X0375381Y0022436D01*
X0375395Y0022575D01*
X0375413Y0022714D01*
X0375434Y0022852D01*
X0375460Y0022990D01*
X0375490Y0023127D01*
X0375523Y0023262D01*
X0375561Y0023397D01*
X0375602Y0023531D01*
X0375647Y0023664D01*
X0375695Y0023795D01*
X0375748Y0023924D01*
X0375804Y0024053D01*
X0375863Y0024179D01*
X0375927Y0024304D01*
X0375993Y0024427D01*
X0376064Y0024548D01*
X0376137Y0024667D01*
X0376214Y0024784D01*
X0376295Y0024898D01*
X0376378Y0025010D01*
X0376465Y0025120D01*
X0376555Y0025228D01*
X0376647Y0025332D01*
X0376743Y0025434D01*
X0376842Y0025534D01*
X0376943Y0025630D01*
X0377047Y0025724D01*
X0377154Y0025814D01*
X0377263Y0025901D01*
X0377375Y0025986D01*
X0377489Y0026067D01*
X0377605Y0026145D01*
X0377723Y0026219D01*
X0377844Y0026290D01*
X0377966Y0026358D01*
X0378091Y0026422D01*
X0378217Y0026483D01*
X0378344Y0026540D01*
X0378474Y0026593D01*
X0378605Y0026643D01*
X0378737Y0026688D01*
X0378870Y0026731D01*
X0379005Y0026769D01*
X0379140Y0026803D01*
X0379277Y0026834D01*
X0379414Y0026861D01*
X0379552Y0026883D01*
X0379691Y0026902D01*
X0379830Y0026917D01*
X0379969Y0026928D01*
X0380109Y0026935D01*
X0380249Y0026938D01*
X0380389Y0026937D01*
X0380529Y0026932D01*
X0380668Y0026923D01*
X0380808Y0026910D01*
X0380947Y0026893D01*
X0381085Y0026872D01*
X0381223Y0026848D01*
X0381360Y0026819D01*
X0381496Y0026787D01*
X0381631Y0026750D01*
X0381765Y0026710D01*
X0381898Y0026666D01*
X0382029Y0026618D01*
X0382159Y0026567D01*
X0382288Y0026512D01*
X0382415Y0026453D01*
X0382540Y0026390D01*
X0382663Y0026325D01*
X0382785Y0026255D01*
X0382904Y0026182D01*
X0383022Y0026106D01*
X0383137Y0026027D01*
X0383250Y0025944D01*
X0383360Y0025858D01*
X0383468Y0025769D01*
X0383573Y0025677D01*
X0383676Y0025582D01*
X0383776Y0025484D01*
X0383873Y0025384D01*
X0383967Y0025280D01*
X0384059Y0025174D01*
X0384147Y0025066D01*
X0384232Y0024955D01*
X0384314Y0024841D01*
X0384393Y0024725D01*
X0384468Y0024608D01*
X0384540Y0024488D01*
X0384608Y0024366D01*
X0384673Y0024242D01*
X0384735Y0024116D01*
X0384793Y0023989D01*
X0384847Y0023860D01*
X0384898Y0023729D01*
X0384944Y0023597D01*
X0384987Y0023464D01*
X0385027Y0023330D01*
X0385062Y0023195D01*
X0385094Y0023058D01*
X0385121Y0022921D01*
X0385145Y0022783D01*
X0385165Y0022645D01*
X0385181Y0022506D01*
X0385193Y0022366D01*
X0385201Y0022227D01*
X0385205Y0022087D01*
X0385205Y0021947D01*
X0385201Y0021807D01*
X0385193Y0021668D01*
X0385181Y0021528D01*
X0385165Y0021389D01*
X0385145Y0021251D01*
X0385121Y0021113D01*
X0385094Y0020976D01*
X0385062Y0020839D01*
X0385027Y0020704D01*
X0384987Y0020570D01*
X0384944Y0020437D01*
X0384898Y0020305D01*
X0384847Y0020174D01*
X0384793Y0020045D01*
X0384735Y0019918D01*
X0384673Y0019792D01*
X0384608Y0019668D01*
X0384540Y0019546D01*
X0384468Y0019426D01*
X0384393Y0019309D01*
X0384314Y0019193D01*
X0384232Y0019079D01*
X0384147Y0018968D01*
X0384059Y0018860D01*
X0383967Y0018754D01*
X0383873Y0018650D01*
X0383776Y0018550D01*
X0383676Y0018452D01*
X0383573Y0018357D01*
X0383468Y0018265D01*
X0383360Y0018176D01*
X0383250Y0018090D01*
X0383137Y0018007D01*
X0383022Y0017928D01*
X0382904Y0017852D01*
X0382785Y0017779D01*
X0382663Y0017709D01*
X0382540Y0017644D01*
X0382415Y0017581D01*
X0382288Y0017522D01*
X0382159Y0017467D01*
X0382029Y0017416D01*
X0381898Y0017368D01*
X0381765Y0017324D01*
X0381631Y0017284D01*
X0381496Y0017247D01*
X0381360Y0017215D01*
X0381223Y0017186D01*
X0381085Y0017162D01*
X0380947Y0017141D01*
X0380808Y0017124D01*
X0380668Y0017111D01*
X0380529Y0017102D01*
X0380389Y0017097D01*
X0380249Y0017096D01*
X0380109Y0017099D01*
X0379969Y0017106D01*
X0379830Y0017117D01*
X0379691Y0017132D01*
X0379552Y0017151D01*
X0379414Y0017173D01*
X0379277Y0017200D01*
X0379140Y0017231D01*
X0379005Y0017265D01*
X0378870Y0017303D01*
X0378737Y0017346D01*
X0378605Y0017391D01*
X0378474Y0017441D01*
X0378344Y0017494D01*
X0378217Y0017551D01*
X0378091Y0017612D01*
X0377966Y0017676D01*
X0377844Y0017744D01*
X0377723Y0017815D01*
X0377605Y0017889D01*
X0377489Y0017967D01*
X0377375Y0018048D01*
X0377263Y0018133D01*
X0377154Y0018220D01*
X0377047Y0018310D01*
X0376943Y0018404D01*
X0376842Y0018500D01*
X0376743Y0018600D01*
X0376647Y0018702D01*
X0376555Y0018806D01*
X0376465Y0018914D01*
X0376378Y0019024D01*
X0376295Y0019136D01*
X0376214Y0019250D01*
X0376137Y0019367D01*
X0376064Y0019486D01*
X0375993Y0019607D01*
X0375927Y0019730D01*
X0375863Y0019855D01*
X0375804Y0019981D01*
X0375748Y0020110D01*
X0375695Y0020239D01*
X0375647Y0020370D01*
X0375602Y0020503D01*
X0375561Y0020637D01*
X0375523Y0020772D01*
X0375490Y0020907D01*
X0375460Y0021044D01*
X0375434Y0021182D01*
X0375413Y0021320D01*
X0375395Y0021459D01*
X0375381Y0021598D01*
X0375371Y0021737D01*
X0375365Y0021877D01*
X0375363Y0022017D01*
D11*
X0056800Y0104800D03*
X0056800Y0123800D03*
X0029300Y0048800D03*
X0029300Y0029800D03*
D12*
X0091800Y0100800D03*
X0106800Y0100800D03*
X0106800Y0122800D03*
X0091800Y0122800D03*
X0091800Y0148300D03*
X0106800Y0148300D03*
X0106800Y0170300D03*
X0091800Y0170300D03*
D13*
X0229300Y0186300D02*
X0229300Y0192300D01*
X0239300Y0192300D02*
X0239300Y0186300D01*
X0249300Y0186300D02*
X0249300Y0192300D01*
X0259300Y0192300D02*
X0259300Y0186300D01*
X0381615Y0161308D02*
X0387615Y0161308D01*
X0387615Y0151308D02*
X0381615Y0151308D01*
X0381615Y0141308D02*
X0387615Y0141308D01*
X0387615Y0131308D02*
X0381615Y0131308D01*
X0381615Y0121308D02*
X0387615Y0121308D01*
X0387615Y0085717D02*
X0381615Y0085717D01*
X0381615Y0075717D02*
X0387615Y0075717D01*
X0387615Y0065717D02*
X0381615Y0065717D01*
X0381615Y0055717D02*
X0387615Y0055717D01*
X0387615Y0045717D02*
X0381615Y0045717D01*
X0134300Y0022300D02*
X0134300Y0016300D01*
X0124300Y0016300D02*
X0124300Y0022300D01*
X0114300Y0022300D02*
X0114300Y0016300D01*
X0104300Y0016300D02*
X0104300Y0022300D01*
X0094300Y0022300D02*
X0094300Y0016300D01*
X0113505Y0072135D02*
X0119505Y0072135D01*
X0119505Y0082135D02*
X0113505Y0082135D01*
D14*
X0121426Y0143080D03*
X0121426Y0148985D03*
X0121426Y0160796D03*
D15*
X0132253Y0166308D03*
X0132253Y0137568D03*
D16*
X0123985Y0137568D03*
X0123985Y0166308D03*
D17*
X0013749Y0173985D03*
X0013749Y0145639D03*
D18*
X0024772Y0146820D02*
X0024772Y0142064D01*
X0024772Y0172804D02*
X0024772Y0177560D01*
D19*
X0024280Y0164930D03*
X0024280Y0162371D03*
X0024280Y0159812D03*
X0024280Y0157253D03*
X0024280Y0154694D03*
D20*
X0013355Y0156859D03*
X0013355Y0162765D03*
D21*
X0011801Y0009300D02*
X0014863Y0007531D01*
X0018280Y0006616D01*
X0020048Y0006500D01*
X0382253Y0006500D01*
X0384021Y0006616D01*
X0387437Y0007531D01*
X0390500Y0009300D01*
X0393001Y0011801D01*
X0394770Y0014863D01*
X0395685Y0018280D01*
X0395685Y0018280D01*
X0395801Y0020048D01*
X0395801Y0185402D01*
X0395685Y0187171D01*
X0394770Y0190587D01*
X0393001Y0193650D01*
X0390500Y0196151D01*
X0387437Y0197919D01*
X0384021Y0198834D01*
X0382253Y0198950D01*
X0020048Y0198950D01*
X0018280Y0198834D01*
X0014863Y0197919D01*
X0011801Y0196151D01*
X0009300Y0193650D01*
X0007531Y0190587D01*
X0006616Y0187171D01*
X0006500Y0185402D01*
X0006500Y0020048D01*
X0006616Y0018280D01*
X0007531Y0014863D01*
X0009300Y0011801D01*
X0011801Y0009300D01*
X0012151Y0009097D02*
X0375568Y0009097D01*
X0374996Y0009250D02*
X0378481Y0008317D01*
X0382088Y0008317D01*
X0385572Y0009250D01*
X0388696Y0011054D01*
X0391247Y0013605D01*
X0393051Y0016729D01*
X0393984Y0020213D01*
X0393984Y0023820D01*
X0393051Y0027305D01*
X0391247Y0030429D01*
X0388696Y0032979D01*
X0385572Y0034783D01*
X0382088Y0035717D01*
X0378481Y0035717D01*
X0374996Y0034783D01*
X0371872Y0032979D01*
X0369322Y0030429D01*
X0367518Y0027305D01*
X0366584Y0023820D01*
X0366584Y0020213D01*
X0367518Y0016729D01*
X0369322Y0013605D01*
X0371872Y0011054D01*
X0374996Y0009250D01*
X0371431Y0011496D02*
X0116325Y0011496D01*
X0116296Y0011481D02*
X0117025Y0011853D01*
X0117688Y0012334D01*
X0118266Y0012912D01*
X0118747Y0013575D01*
X0119119Y0014304D01*
X0119372Y0015082D01*
X0119500Y0015891D01*
X0119500Y0019300D01*
X0119500Y0022709D01*
X0119372Y0023518D01*
X0119119Y0024296D01*
X0118747Y0025025D01*
X0118266Y0025688D01*
X0117688Y0026266D01*
X0117025Y0026747D01*
X0116296Y0027119D01*
X0115518Y0027372D01*
X0114709Y0027500D01*
X0114300Y0027500D01*
X0114300Y0019300D01*
X0114300Y0019300D01*
X0119500Y0019300D01*
X0114300Y0019300D01*
X0114300Y0019300D01*
X0114300Y0019300D01*
X0109100Y0019300D01*
X0109100Y0022709D01*
X0109228Y0023518D01*
X0109481Y0024296D01*
X0109853Y0025025D01*
X0110334Y0025688D01*
X0110912Y0026266D01*
X0111575Y0026747D01*
X0112304Y0027119D01*
X0113082Y0027372D01*
X0113891Y0027500D01*
X0114300Y0027500D01*
X0114300Y0019300D01*
X0114300Y0011100D01*
X0114709Y0011100D01*
X0115518Y0011228D01*
X0116296Y0011481D01*
X0114300Y0011496D02*
X0114300Y0011496D01*
X0114300Y0011100D02*
X0114300Y0019300D01*
X0114300Y0019300D01*
X0109100Y0019300D01*
X0109100Y0015891D01*
X0109228Y0015082D01*
X0109481Y0014304D01*
X0109853Y0013575D01*
X0110334Y0012912D01*
X0110912Y0012334D01*
X0111575Y0011853D01*
X0112304Y0011481D01*
X0113082Y0011228D01*
X0113891Y0011100D01*
X0114300Y0011100D01*
X0112275Y0011496D02*
X0009605Y0011496D01*
X0008091Y0013894D02*
X0090101Y0013894D01*
X0090231Y0013581D02*
X0091581Y0012231D01*
X0093345Y0011500D01*
X0095255Y0011500D01*
X0097019Y0012231D01*
X0098369Y0013581D01*
X0099100Y0015345D01*
X0099100Y0023255D01*
X0098369Y0025019D01*
X0097019Y0026369D01*
X0096700Y0026501D01*
X0096700Y0043506D01*
X0101900Y0038306D01*
X0101900Y0026501D01*
X0101581Y0026369D01*
X0100231Y0025019D01*
X0099500Y0023255D01*
X0099500Y0015345D01*
X0100231Y0013581D01*
X0101581Y0012231D01*
X0103345Y0011500D01*
X0105255Y0011500D01*
X0107019Y0012231D01*
X0108369Y0013581D01*
X0109100Y0015345D01*
X0109100Y0023255D01*
X0108369Y0025019D01*
X0107019Y0026369D01*
X0106700Y0026501D01*
X0106700Y0039777D01*
X0106335Y0040659D01*
X0105659Y0041335D01*
X0101275Y0045719D01*
X0101987Y0045719D01*
X0109765Y0037941D01*
X0110441Y0037265D01*
X0111323Y0036900D01*
X0118306Y0036900D01*
X0121900Y0033306D01*
X0121900Y0026501D01*
X0121581Y0026369D01*
X0120231Y0025019D01*
X0119500Y0023255D01*
X0119500Y0015345D01*
X0120231Y0013581D01*
X0121581Y0012231D01*
X0123345Y0011500D01*
X0125255Y0011500D01*
X0127019Y0012231D01*
X0128369Y0013581D01*
X0129100Y0015345D01*
X0129100Y0023255D01*
X0128369Y0025019D01*
X0127019Y0026369D01*
X0126700Y0026501D01*
X0126700Y0034777D01*
X0126335Y0035659D01*
X0120659Y0041335D01*
X0119777Y0041700D01*
X0112794Y0041700D01*
X0105381Y0049113D01*
X0105381Y0050012D01*
X0104836Y0051329D01*
X0104795Y0051369D01*
X0107878Y0049828D01*
X0107941Y0049765D01*
X0108303Y0049615D01*
X0108654Y0049440D01*
X0108741Y0049434D01*
X0108823Y0049400D01*
X0109215Y0049400D01*
X0109606Y0049372D01*
X0109689Y0049400D01*
X0179109Y0049400D01*
X0179761Y0048748D01*
X0181084Y0048200D01*
X0182516Y0048200D01*
X0183839Y0048748D01*
X0184852Y0049761D01*
X0185400Y0051084D01*
X0185400Y0052516D01*
X0184852Y0053839D01*
X0184491Y0054200D01*
X0189309Y0054200D01*
X0189761Y0053748D01*
X0191084Y0053200D01*
X0192516Y0053200D01*
X0193839Y0053748D01*
X0194852Y0054761D01*
X0195400Y0056084D01*
X0195400Y0057516D01*
X0194852Y0058839D01*
X0193839Y0059852D01*
X0192516Y0060400D01*
X0191084Y0060400D01*
X0189761Y0059852D01*
X0189309Y0059400D01*
X0167877Y0059400D01*
X0164400Y0062877D01*
X0164400Y0076014D01*
X0165329Y0076942D01*
X0165962Y0078472D01*
X0165962Y0080128D01*
X0165329Y0081658D01*
X0164158Y0082829D01*
X0162628Y0083462D01*
X0162446Y0083462D01*
X0152700Y0093208D01*
X0152700Y0162056D01*
X0152839Y0161720D01*
X0153846Y0160713D01*
X0154325Y0160515D01*
X0154515Y0160324D01*
X0154559Y0160306D01*
X0154594Y0160274D01*
X0154999Y0160124D01*
X0155397Y0159959D01*
X0155445Y0159959D01*
X0155468Y0159950D01*
X0154663Y0158340D01*
X0154596Y0158273D01*
X0154433Y0157880D01*
X0154243Y0157500D01*
X0154236Y0157405D01*
X0154200Y0157317D01*
X0154200Y0156892D01*
X0154170Y0156468D01*
X0154200Y0156378D01*
X0154200Y0143783D01*
X0154596Y0142827D01*
X0184200Y0113223D01*
X0184200Y0081791D01*
X0183748Y0081339D01*
X0183200Y0080016D01*
X0183200Y0078584D01*
X0183748Y0077261D01*
X0184761Y0076248D01*
X0186084Y0075700D01*
X0187516Y0075700D01*
X0188839Y0076248D01*
X0189852Y0077261D01*
X0190400Y0078584D01*
X0190400Y0080016D01*
X0189852Y0081339D01*
X0189400Y0081791D01*
X0189400Y0114817D01*
X0189004Y0115773D01*
X0188273Y0116504D01*
X0188273Y0116504D01*
X0159400Y0145377D01*
X0159400Y0146609D01*
X0159761Y0146248D01*
X0161084Y0145700D01*
X0162516Y0145700D01*
X0163684Y0146184D01*
X0163200Y0145016D01*
X0163200Y0143584D01*
X0163748Y0142261D01*
X0164761Y0141248D01*
X0166084Y0140700D01*
X0167516Y0140700D01*
X0168684Y0141184D01*
X0168200Y0140016D01*
X0168200Y0138584D01*
X0168748Y0137261D01*
X0169761Y0136248D01*
X0171084Y0135700D01*
X0172516Y0135700D01*
X0173684Y0136184D01*
X0173200Y0135016D01*
X0173200Y0133584D01*
X0173748Y0132261D01*
X0174761Y0131248D01*
X0176084Y0130700D01*
X0177516Y0130700D01*
X0178684Y0131184D01*
X0178200Y0130016D01*
X0178200Y0128584D01*
X0178748Y0127261D01*
X0179761Y0126248D01*
X0181084Y0125700D01*
X0182516Y0125700D01*
X0183684Y0126184D01*
X0183200Y0125016D01*
X0183200Y0123584D01*
X0183748Y0122261D01*
X0184761Y0121248D01*
X0186084Y0120700D01*
X0187516Y0120700D01*
X0188684Y0121184D01*
X0188200Y0120016D01*
X0188200Y0118584D01*
X0188748Y0117261D01*
X0189761Y0116248D01*
X0191084Y0115700D01*
X0192516Y0115700D01*
X0193346Y0116044D01*
X0201700Y0103513D01*
X0201700Y0096985D01*
X0201653Y0096656D01*
X0201700Y0096472D01*
X0201700Y0096283D01*
X0201827Y0095976D01*
X0201910Y0095654D01*
X0202023Y0095502D01*
X0202096Y0095327D01*
X0202331Y0095092D01*
X0216700Y0075933D01*
X0216700Y0074722D01*
X0216670Y0074632D01*
X0216700Y0074208D01*
X0216700Y0073783D01*
X0216736Y0073695D01*
X0216743Y0073600D01*
X0216933Y0073220D01*
X0217096Y0072827D01*
X0217163Y0072760D01*
X0218352Y0070383D01*
X0218200Y0070016D01*
X0218200Y0068584D01*
X0218748Y0067261D01*
X0219761Y0066248D01*
X0221084Y0065700D01*
X0222516Y0065700D01*
X0223839Y0066248D01*
X0224852Y0067261D01*
X0225400Y0068584D01*
X0225400Y0070016D01*
X0224852Y0071339D01*
X0223839Y0072352D01*
X0223009Y0072696D01*
X0221900Y0074914D01*
X0221900Y0076615D01*
X0221947Y0076944D01*
X0221900Y0077128D01*
X0221900Y0077317D01*
X0221773Y0077624D01*
X0221690Y0077946D01*
X0221577Y0078098D01*
X0221504Y0078273D01*
X0221269Y0078508D01*
X0206900Y0097667D01*
X0206900Y0098262D01*
X0206972Y0098033D01*
X0207049Y0097939D01*
X0207096Y0097827D01*
X0207378Y0097545D01*
X0218200Y0084559D01*
X0218200Y0083584D01*
X0218748Y0082261D01*
X0219761Y0081248D01*
X0221084Y0080700D01*
X0222516Y0080700D01*
X0223839Y0081248D01*
X0224852Y0082261D01*
X0225400Y0083584D01*
X0225400Y0085016D01*
X0224852Y0086339D01*
X0223839Y0087352D01*
X0222516Y0087900D01*
X0222184Y0087900D01*
X0211900Y0100241D01*
X0211900Y0103286D01*
X0214433Y0098220D01*
X0214596Y0097827D01*
X0214663Y0097760D01*
X0214706Y0097675D01*
X0215027Y0097396D01*
X0215327Y0097096D01*
X0215415Y0097059D01*
X0215487Y0096997D01*
X0215890Y0096863D01*
X0216283Y0096700D01*
X0216378Y0096700D01*
X0216468Y0096670D01*
X0216892Y0096700D01*
X0219309Y0096700D01*
X0219761Y0096248D01*
X0221084Y0095700D01*
X0222516Y0095700D01*
X0223839Y0096248D01*
X0224852Y0097261D01*
X0225400Y0098584D01*
X0225400Y0100016D01*
X0224852Y0101339D01*
X0223839Y0102352D01*
X0222516Y0102900D01*
X0221084Y0102900D01*
X0219761Y0102352D01*
X0219309Y0101900D01*
X0218407Y0101900D01*
X0214300Y0110114D01*
X0214279Y0110239D01*
X0214070Y0110573D01*
X0213894Y0110925D01*
X0213798Y0111009D01*
X0213259Y0111872D01*
X0213505Y0111815D01*
X0213783Y0111700D01*
X0214004Y0111700D01*
X0214219Y0111650D01*
X0214516Y0111700D01*
X0219309Y0111700D01*
X0219761Y0111248D01*
X0221084Y0110700D01*
X0222516Y0110700D01*
X0223839Y0111248D01*
X0224852Y0112261D01*
X0225400Y0113584D01*
X0225400Y0115016D01*
X0224852Y0116339D01*
X0223839Y0117352D01*
X0222516Y0117900D01*
X0221084Y0117900D01*
X0219761Y0117352D01*
X0219309Y0116900D01*
X0215741Y0116900D01*
X0214295Y0119214D01*
X0214761Y0118748D01*
X0216084Y0118200D01*
X0217516Y0118200D01*
X0218839Y0118748D01*
X0219291Y0119200D01*
X0229045Y0119200D01*
X0229303Y0119149D01*
X0229557Y0119200D01*
X0229817Y0119200D01*
X0230060Y0119300D01*
X0230317Y0119352D01*
X0230533Y0119496D01*
X0230773Y0119596D01*
X0230958Y0119781D01*
X0231176Y0119927D01*
X0231321Y0120144D01*
X0231504Y0120327D01*
X0231605Y0120570D01*
X0236178Y0127430D01*
X0236248Y0127261D01*
X0236700Y0126809D01*
X0236700Y0101791D01*
X0236248Y0101339D01*
X0235700Y0100016D01*
X0235700Y0098584D01*
X0236248Y0097261D01*
X0236900Y0096609D01*
X0236900Y0071991D01*
X0236248Y0071339D01*
X0235700Y0070016D01*
X0235700Y0068584D01*
X0236248Y0067261D01*
X0236700Y0066809D01*
X0236700Y0054555D01*
X0236649Y0054297D01*
X0236700Y0054043D01*
X0236700Y0053783D01*
X0236800Y0053540D01*
X0236852Y0053283D01*
X0236996Y0053067D01*
X0237096Y0052827D01*
X0237281Y0052642D01*
X0237427Y0052424D01*
X0237644Y0052279D01*
X0237827Y0052096D01*
X0238070Y0051995D01*
X0243205Y0048572D01*
X0243748Y0047261D01*
X0244761Y0046248D01*
X0246084Y0045700D01*
X0247516Y0045700D01*
X0248839Y0046248D01*
X0249852Y0047261D01*
X0250400Y0048584D01*
X0250400Y0050016D01*
X0249852Y0051339D01*
X0248839Y0052352D01*
X0247516Y0052900D01*
X0246087Y0052900D01*
X0241900Y0055691D01*
X0241900Y0066809D01*
X0242352Y0067261D01*
X0242900Y0068584D01*
X0242900Y0070016D01*
X0242352Y0071339D01*
X0241700Y0071991D01*
X0241700Y0096609D01*
X0242352Y0097261D01*
X0242900Y0098584D01*
X0242900Y0100016D01*
X0242352Y0101339D01*
X0241900Y0101791D01*
X0241900Y0126809D01*
X0242352Y0127261D01*
X0242900Y0128584D01*
X0242900Y0130016D01*
X0242352Y0131339D01*
X0241700Y0131991D01*
X0241700Y0156609D01*
X0242352Y0157261D01*
X0242900Y0158584D01*
X0242900Y0160016D01*
X0242352Y0161339D01*
X0241339Y0162352D01*
X0240016Y0162900D01*
X0238584Y0162900D01*
X0237261Y0162352D01*
X0236900Y0161991D01*
X0236900Y0176809D01*
X0237352Y0177261D01*
X0237900Y0178584D01*
X0237900Y0180016D01*
X0237352Y0181339D01*
X0237113Y0181578D01*
X0237304Y0181481D01*
X0238082Y0181228D01*
X0238891Y0181100D01*
X0239300Y0181100D01*
X0239709Y0181100D01*
X0240518Y0181228D01*
X0241296Y0181481D01*
X0242025Y0181853D01*
X0242688Y0182334D01*
X0243266Y0182912D01*
X0243747Y0183575D01*
X0244119Y0184304D01*
X0244300Y0184861D01*
X0244481Y0184304D01*
X0244853Y0183575D01*
X0245334Y0182912D01*
X0245912Y0182334D01*
X0246575Y0181853D01*
X0247304Y0181481D01*
X0248082Y0181228D01*
X0248891Y0181100D01*
X0249300Y0181100D01*
X0249709Y0181100D01*
X0250518Y0181228D01*
X0251296Y0181481D01*
X0252025Y0181853D01*
X0252688Y0182334D01*
X0253266Y0182912D01*
X0253747Y0183575D01*
X0254119Y0184304D01*
X0254300Y0184861D01*
X0254481Y0184304D01*
X0254853Y0183575D01*
X0255334Y0182912D01*
X0255912Y0182334D01*
X0256575Y0181853D01*
X0257304Y0181481D01*
X0258082Y0181228D01*
X0258891Y0181100D01*
X0259300Y0181100D01*
X0259709Y0181100D01*
X0260518Y0181228D01*
X0261296Y0181481D01*
X0262025Y0181853D01*
X0262688Y0182334D01*
X0263266Y0182912D01*
X0263747Y0183575D01*
X0264119Y0184304D01*
X0264372Y0185082D01*
X0264500Y0185891D01*
X0264500Y0189300D01*
X0264500Y0192709D01*
X0264372Y0193518D01*
X0264119Y0194296D01*
X0263747Y0195025D01*
X0263266Y0195688D01*
X0262688Y0196266D01*
X0262025Y0196747D01*
X0261296Y0197119D01*
X0260518Y0197372D01*
X0259709Y0197500D01*
X0259300Y0197500D01*
X0259300Y0189300D01*
X0259300Y0189300D01*
X0264500Y0189300D01*
X0259300Y0189300D01*
X0259300Y0189300D01*
X0259300Y0197500D01*
X0258891Y0197500D01*
X0258082Y0197372D01*
X0257304Y0197119D01*
X0256575Y0196747D01*
X0255912Y0196266D01*
X0255334Y0195688D01*
X0254853Y0195025D01*
X0254481Y0194296D01*
X0254300Y0193739D01*
X0254119Y0194296D01*
X0253747Y0195025D01*
X0253266Y0195688D01*
X0252688Y0196266D01*
X0252025Y0196747D01*
X0251296Y0197119D01*
X0250518Y0197372D01*
X0249709Y0197500D01*
X0249300Y0197500D01*
X0249300Y0189300D01*
X0249300Y0189300D01*
X0254100Y0189300D01*
X0259300Y0189300D01*
X0259300Y0181100D01*
X0259300Y0189300D01*
X0259300Y0189300D01*
X0259300Y0189300D01*
X0249300Y0189300D01*
X0249300Y0189300D01*
X0249300Y0197500D01*
X0248891Y0197500D01*
X0248082Y0197372D01*
X0247304Y0197119D01*
X0246575Y0196747D01*
X0245912Y0196266D01*
X0245334Y0195688D01*
X0244853Y0195025D01*
X0244481Y0194296D01*
X0244300Y0193739D01*
X0244119Y0194296D01*
X0243747Y0195025D01*
X0243266Y0195688D01*
X0242688Y0196266D01*
X0242025Y0196747D01*
X0241296Y0197119D01*
X0240518Y0197372D01*
X0239709Y0197500D01*
X0239300Y0197500D01*
X0239300Y0189300D01*
X0239300Y0189300D01*
X0244500Y0189300D01*
X0249300Y0189300D01*
X0249300Y0181100D01*
X0249300Y0189300D01*
X0249300Y0189300D01*
X0249300Y0189300D01*
X0239300Y0189300D01*
X0239300Y0189300D01*
X0239300Y0197500D01*
X0238891Y0197500D01*
X0238082Y0197372D01*
X0237304Y0197119D01*
X0236575Y0196747D01*
X0235912Y0196266D01*
X0235334Y0195688D01*
X0234853Y0195025D01*
X0234481Y0194296D01*
X0234300Y0193739D01*
X0234119Y0194296D01*
X0233747Y0195025D01*
X0233266Y0195688D01*
X0232688Y0196266D01*
X0232025Y0196747D01*
X0231296Y0197119D01*
X0230518Y0197372D01*
X0229709Y0197500D01*
X0229300Y0197500D01*
X0229300Y0189300D01*
X0229300Y0189300D01*
X0234500Y0189300D01*
X0239300Y0189300D01*
X0239300Y0181100D01*
X0239300Y0189300D01*
X0239300Y0189300D01*
X0239300Y0189300D01*
X0229300Y0189300D01*
X0229300Y0189300D01*
X0229300Y0181100D01*
X0229709Y0181100D01*
X0230518Y0181228D01*
X0231296Y0181481D01*
X0231487Y0181578D01*
X0231248Y0181339D01*
X0230700Y0180016D01*
X0230700Y0178584D01*
X0231248Y0177261D01*
X0231700Y0176809D01*
X0231700Y0156900D01*
X0219291Y0156900D01*
X0218839Y0157352D01*
X0217516Y0157900D01*
X0216084Y0157900D01*
X0214761Y0157352D01*
X0213748Y0156339D01*
X0213200Y0155016D01*
X0213200Y0153584D01*
X0213748Y0152261D01*
X0214761Y0151248D01*
X0216084Y0150700D01*
X0217516Y0150700D01*
X0218839Y0151248D01*
X0219291Y0151700D01*
X0231700Y0151700D01*
X0231700Y0130087D01*
X0227909Y0124400D01*
X0219291Y0124400D01*
X0218839Y0124852D01*
X0217516Y0125400D01*
X0216084Y0125400D01*
X0214761Y0124852D01*
X0213748Y0123839D01*
X0213200Y0122516D01*
X0213200Y0121084D01*
X0213345Y0120733D01*
X0205196Y0133772D01*
X0209523Y0128002D01*
X0209596Y0127827D01*
X0209831Y0127592D01*
X0210030Y0127326D01*
X0210193Y0127230D01*
X0210327Y0127096D01*
X0210634Y0126969D01*
X0210920Y0126799D01*
X0211108Y0126772D01*
X0211283Y0126700D01*
X0211615Y0126700D01*
X0211944Y0126653D01*
X0212128Y0126700D01*
X0219309Y0126700D01*
X0219761Y0126248D01*
X0221084Y0125700D01*
X0222516Y0125700D01*
X0223839Y0126248D01*
X0224852Y0127261D01*
X0225400Y0128584D01*
X0225400Y0130016D01*
X0224852Y0131339D01*
X0223839Y0132352D01*
X0222516Y0132900D01*
X0221084Y0132900D01*
X0219761Y0132352D01*
X0219309Y0131900D01*
X0213100Y0131900D01*
X0206988Y0140049D01*
X0207760Y0139663D01*
X0207827Y0139596D01*
X0208220Y0139433D01*
X0208600Y0139243D01*
X0208695Y0139236D01*
X0208783Y0139200D01*
X0209208Y0139200D01*
X0209632Y0139170D01*
X0209722Y0139200D01*
X0211809Y0139200D01*
X0212261Y0138748D01*
X0213584Y0138200D01*
X0215016Y0138200D01*
X0216339Y0138748D01*
X0217352Y0139761D01*
X0217900Y0141084D01*
X0217900Y0142516D01*
X0217352Y0143839D01*
X0216991Y0144200D01*
X0219309Y0144200D01*
X0219761Y0143748D01*
X0221084Y0143200D01*
X0222516Y0143200D01*
X0223839Y0143748D01*
X0224852Y0144761D01*
X0225400Y0146084D01*
X0225400Y0147516D01*
X0224852Y0148839D01*
X0223839Y0149852D01*
X0222516Y0150400D01*
X0221084Y0150400D01*
X0219761Y0149852D01*
X0219309Y0149400D01*
X0214722Y0149400D01*
X0207710Y0151737D01*
X0207317Y0151900D01*
X0207222Y0151900D01*
X0207132Y0151930D01*
X0206708Y0151900D01*
X0164291Y0151900D01*
X0163839Y0152352D01*
X0162516Y0152900D01*
X0161084Y0152900D01*
X0159761Y0152352D01*
X0159400Y0151991D01*
X0159400Y0156186D01*
X0160907Y0159200D01*
X0191378Y0159200D01*
X0191468Y0159170D01*
X0191892Y0159200D01*
X0192317Y0159200D01*
X0192405Y0159236D01*
X0192500Y0159243D01*
X0192880Y0159433D01*
X0193273Y0159596D01*
X0193340Y0159663D01*
X0197880Y0161933D01*
X0198273Y0162096D01*
X0198340Y0162163D01*
X0198425Y0162206D01*
X0198704Y0162527D01*
X0199004Y0162827D01*
X0199041Y0162915D01*
X0199103Y0162987D01*
X0199237Y0163390D01*
X0199400Y0163783D01*
X0199400Y0163878D01*
X0199430Y0163968D01*
X0199400Y0164392D01*
X0199400Y0182693D01*
X0202414Y0184200D01*
X0209309Y0184200D01*
X0209761Y0183748D01*
X0211084Y0183200D01*
X0212516Y0183200D01*
X0213839Y0183748D01*
X0214852Y0184761D01*
X0215400Y0186084D01*
X0215400Y0187516D01*
X0214852Y0188839D01*
X0213839Y0189852D01*
X0212516Y0190400D01*
X0211084Y0190400D01*
X0209761Y0189852D01*
X0209309Y0189400D01*
X0202222Y0189400D01*
X0202132Y0189430D01*
X0201708Y0189400D01*
X0201283Y0189400D01*
X0201195Y0189364D01*
X0201100Y0189357D01*
X0200720Y0189167D01*
X0200327Y0189004D01*
X0200260Y0188937D01*
X0195720Y0186667D01*
X0195327Y0186504D01*
X0195260Y0186437D01*
X0195175Y0186394D01*
X0194896Y0186073D01*
X0194596Y0185773D01*
X0194559Y0185685D01*
X0194497Y0185613D01*
X0194363Y0185210D01*
X0194200Y0184817D01*
X0194200Y0184722D01*
X0194170Y0184632D01*
X0194200Y0184208D01*
X0194200Y0165907D01*
X0191186Y0164400D01*
X0159456Y0164400D01*
X0159456Y0164461D01*
X0158911Y0165777D01*
X0157903Y0166785D01*
X0156587Y0167330D01*
X0155162Y0167330D01*
X0153846Y0166785D01*
X0152839Y0165777D01*
X0152700Y0165442D01*
X0152700Y0169200D01*
X0179309Y0169200D01*
X0179761Y0168748D01*
X0181084Y0168200D01*
X0182516Y0168200D01*
X0183839Y0168748D01*
X0184852Y0169761D01*
X0185400Y0171084D01*
X0185400Y0172516D01*
X0184852Y0173839D01*
X0183839Y0174852D01*
X0182516Y0175400D01*
X0181084Y0175400D01*
X0179761Y0174852D01*
X0179309Y0174400D01*
X0152586Y0174400D01*
X0151658Y0175329D01*
X0150128Y0175962D01*
X0148472Y0175962D01*
X0146942Y0175329D01*
X0145771Y0174158D01*
X0145138Y0172628D01*
X0145138Y0170972D01*
X0145771Y0169442D01*
X0145900Y0169314D01*
X0145900Y0091124D01*
X0146418Y0089874D01*
X0157638Y0078654D01*
X0157638Y0078472D01*
X0158271Y0076942D01*
X0159200Y0076014D01*
X0159200Y0061283D01*
X0159596Y0060327D01*
X0164596Y0055327D01*
X0165327Y0054596D01*
X0166283Y0054200D01*
X0179109Y0054200D01*
X0179109Y0054200D01*
X0109867Y0054200D01*
X0105722Y0056272D01*
X0105659Y0056335D01*
X0105297Y0056485D01*
X0104946Y0056660D01*
X0104859Y0056666D01*
X0104777Y0056700D01*
X0104385Y0056700D01*
X0103994Y0056728D01*
X0103911Y0056700D01*
X0091764Y0056700D01*
X0092336Y0057271D01*
X0092881Y0058588D01*
X0092881Y0060012D01*
X0092336Y0061329D01*
X0092279Y0061385D01*
X0093159Y0062265D01*
X0093835Y0062941D01*
X0094200Y0063823D01*
X0094200Y0096154D01*
X0095100Y0097054D01*
X0095100Y0104546D01*
X0094200Y0105446D01*
X0094200Y0118154D01*
X0095100Y0119054D01*
X0095100Y0121474D01*
X0096495Y0121997D01*
X0096806Y0122070D01*
X0096938Y0122164D01*
X0097090Y0122220D01*
X0097323Y0122439D01*
X0100472Y0124688D01*
X0100659Y0124765D01*
X0100857Y0124962D01*
X0101083Y0125125D01*
X0101191Y0125297D01*
X0101335Y0125441D01*
X0101441Y0125698D01*
X0101589Y0125935D01*
X0101622Y0126135D01*
X0101700Y0126323D01*
X0101700Y0126601D01*
X0101746Y0126876D01*
X0101700Y0127074D01*
X0101700Y0129136D01*
X0102336Y0129771D01*
X0102881Y0131088D01*
X0102881Y0132512D01*
X0102336Y0133829D01*
X0101329Y0134836D01*
X0100012Y0135381D01*
X0098588Y0135381D01*
X0097271Y0134836D01*
X0096264Y0133829D01*
X0095719Y0132512D01*
X0095719Y0131088D01*
X0096264Y0129771D01*
X0096900Y0129136D01*
X0096900Y0128035D01*
X0094981Y0126664D01*
X0094046Y0127600D01*
X0089554Y0127600D01*
X0089200Y0127246D01*
X0089200Y0143854D01*
X0089554Y0143500D01*
X0094046Y0143500D01*
X0095100Y0144554D01*
X0095100Y0152046D01*
X0094200Y0152946D01*
X0094200Y0165654D01*
X0095100Y0166554D01*
X0095100Y0174046D01*
X0095064Y0174081D01*
X0095098Y0174393D01*
X0095172Y0174749D01*
X0095150Y0174864D01*
X0095163Y0174981D01*
X0095061Y0175330D01*
X0094993Y0175687D01*
X0094929Y0175785D01*
X0094605Y0176897D01*
X0098398Y0176897D01*
X0097271Y0176430D01*
X0096264Y0175423D01*
X0095719Y0174107D01*
X0095719Y0172682D01*
X0096264Y0171366D01*
X0097271Y0170359D01*
X0098588Y0169813D01*
X0100012Y0169813D01*
X0100254Y0169913D01*
X0100974Y0169446D01*
X0101312Y0169202D01*
X0101372Y0169187D01*
X0101425Y0169153D01*
X0101835Y0169077D01*
X0103500Y0168681D01*
X0103500Y0166554D01*
X0104400Y0165654D01*
X0104400Y0152946D01*
X0103500Y0152046D01*
X0103500Y0144554D01*
X0104400Y0143654D01*
X0104400Y0134464D01*
X0103764Y0133829D01*
X0103219Y0132512D01*
X0103219Y0131088D01*
X0103764Y0129771D01*
X0104771Y0128764D01*
X0106088Y0128219D01*
X0107512Y0128219D01*
X0108829Y0128764D01*
X0109568Y0129503D01*
X0109568Y0127608D01*
X0109149Y0127850D01*
X0108590Y0128000D01*
X0106800Y0128000D01*
X0106800Y0122800D01*
X0106800Y0122800D01*
X0106800Y0117600D01*
X0108590Y0117600D01*
X0109149Y0117750D01*
X0109568Y0117992D01*
X0109568Y0105608D01*
X0109149Y0105850D01*
X0108590Y0106000D01*
X0106800Y0106000D01*
X0106800Y0100800D01*
X0106800Y0100800D01*
X0106800Y0095600D01*
X0108590Y0095600D01*
X0109149Y0095750D01*
X0109568Y0095992D01*
X0109568Y0088349D01*
X0110024Y0087246D01*
X0110868Y0086402D01*
X0110985Y0086286D01*
X0110786Y0086204D01*
X0109435Y0084854D01*
X0108705Y0083089D01*
X0108705Y0081180D01*
X0109435Y0079416D01*
X0110786Y0078065D01*
X0112550Y0077335D01*
X0120459Y0077335D01*
X0122224Y0078065D01*
X0123574Y0079416D01*
X0124305Y0081180D01*
X0124305Y0083089D01*
X0123574Y0084854D01*
X0122224Y0086204D01*
X0120459Y0086935D01*
X0118821Y0086935D01*
X0115568Y0090188D01*
X0115568Y0142821D01*
X0116673Y0143927D01*
X0116673Y0140956D01*
X0117728Y0139902D01*
X0120610Y0139902D01*
X0120610Y0134854D01*
X0121665Y0133799D01*
X0125642Y0133799D01*
X0125916Y0133525D01*
X0125916Y0091610D01*
X0125280Y0090974D01*
X0124735Y0089658D01*
X0124735Y0088233D01*
X0125280Y0086917D01*
X0126287Y0085910D01*
X0127603Y0085365D01*
X0129028Y0085365D01*
X0130344Y0085910D01*
X0131352Y0086917D01*
X0131897Y0088233D01*
X0131897Y0089658D01*
X0131352Y0090974D01*
X0130716Y0091610D01*
X0130716Y0133525D01*
X0130990Y0133799D01*
X0134179Y0133799D01*
X0135234Y0134854D01*
X0135234Y0140282D01*
X0134179Y0141336D01*
X0130326Y0141336D01*
X0129272Y0140282D01*
X0129272Y0139670D01*
X0129028Y0139771D01*
X0127603Y0139771D01*
X0127360Y0139670D01*
X0127360Y0140282D01*
X0126305Y0141336D01*
X0126179Y0141336D01*
X0126179Y0142619D01*
X0127526Y0142061D01*
X0129106Y0142061D01*
X0130566Y0142665D01*
X0131683Y0143783D01*
X0132287Y0145242D01*
X0132287Y0146822D01*
X0131683Y0148282D01*
X0130566Y0149399D01*
X0129106Y0150004D01*
X0127526Y0150004D01*
X0126179Y0149446D01*
X0126179Y0151109D01*
X0125124Y0152163D01*
X0117728Y0152163D01*
X0116673Y0151109D01*
X0116673Y0151001D01*
X0115908Y0151001D01*
X0114805Y0150544D01*
X0113961Y0149700D01*
X0110100Y0145839D01*
X0110100Y0152046D01*
X0109200Y0152946D01*
X0109200Y0165654D01*
X0110100Y0166554D01*
X0110100Y0166849D01*
X0110364Y0166213D01*
X0111095Y0165482D01*
X0116673Y0159903D01*
X0116673Y0158673D01*
X0117728Y0157618D01*
X0124344Y0157618D01*
X0124344Y0157053D01*
X0124949Y0155594D01*
X0126066Y0154476D01*
X0127526Y0153872D01*
X0129106Y0153872D01*
X0130566Y0154476D01*
X0131683Y0155594D01*
X0132287Y0157053D01*
X0132287Y0158633D01*
X0131683Y0160093D01*
X0130566Y0161210D01*
X0129106Y0161815D01*
X0127526Y0161815D01*
X0126179Y0161257D01*
X0126179Y0162539D01*
X0126305Y0162539D01*
X0127360Y0163594D01*
X0127360Y0169022D01*
X0126305Y0170076D01*
X0121665Y0170076D01*
X0120610Y0169022D01*
X0120610Y0163974D01*
X0119956Y0163974D01*
X0115168Y0168763D01*
X0115168Y0176077D01*
X0114772Y0177033D01*
X0110835Y0180970D01*
X0110103Y0181701D01*
X0109148Y0182097D01*
X0093674Y0182097D01*
X0093435Y0182336D01*
X0092119Y0182881D01*
X0091275Y0182881D01*
X0095294Y0186900D01*
X0107974Y0186900D01*
X0108571Y0186303D01*
X0109887Y0185758D01*
X0111312Y0185758D01*
X0112628Y0186303D01*
X0113224Y0186900D01*
X0130245Y0186900D01*
X0130717Y0186899D01*
X0130720Y0186900D01*
X0130722Y0186900D01*
X0130817Y0186939D01*
X0166569Y0186939D01*
X0167261Y0186248D01*
X0168584Y0185700D01*
X0170016Y0185700D01*
X0171339Y0186248D01*
X0172352Y0187261D01*
X0172900Y0188584D01*
X0172900Y0190016D01*
X0172352Y0191339D01*
X0171339Y0192352D01*
X0170016Y0192900D01*
X0168584Y0192900D01*
X0167261Y0192352D01*
X0166648Y0191739D01*
X0113264Y0191739D01*
X0112628Y0192375D01*
X0111312Y0192920D01*
X0109887Y0192920D01*
X0108571Y0192375D01*
X0107895Y0191700D01*
X0093823Y0191700D01*
X0092941Y0191335D01*
X0092265Y0190659D01*
X0085441Y0183835D01*
X0084765Y0183159D01*
X0084400Y0182277D01*
X0084400Y0134264D01*
X0083829Y0134836D01*
X0083053Y0135157D01*
X0082822Y0135742D01*
X0082822Y0187482D01*
X0083458Y0188118D01*
X0084003Y0189434D01*
X0084003Y0190859D01*
X0083458Y0192175D01*
X0082451Y0193182D01*
X0081134Y0193728D01*
X0079710Y0193728D01*
X0078394Y0193182D01*
X0077386Y0192175D01*
X0076841Y0190859D01*
X0076841Y0189434D01*
X0077386Y0188118D01*
X0078022Y0187482D01*
X0078022Y0140564D01*
X0077512Y0140775D01*
X0076088Y0140775D01*
X0075200Y0140407D01*
X0075200Y0176814D01*
X0075329Y0176942D01*
X0075962Y0178472D01*
X0075962Y0180128D01*
X0075329Y0181658D01*
X0074158Y0182829D01*
X0072628Y0183462D01*
X0070972Y0183462D01*
X0069442Y0182829D01*
X0068271Y0181658D01*
X0067638Y0180128D01*
X0067638Y0178472D01*
X0068271Y0176942D01*
X0068400Y0176814D01*
X0068400Y0081786D01*
X0068271Y0081658D01*
X0067638Y0080128D01*
X0067638Y0078472D01*
X0068271Y0076942D01*
X0069442Y0075771D01*
X0070972Y0075138D01*
X0072628Y0075138D01*
X0074158Y0075771D01*
X0075329Y0076942D01*
X0075962Y0078472D01*
X0075962Y0080128D01*
X0075329Y0081658D01*
X0075200Y0081786D01*
X0075200Y0106087D01*
X0076088Y0105719D01*
X0077512Y0105719D01*
X0078829Y0106264D01*
X0079836Y0107271D01*
X0080381Y0108588D01*
X0080381Y0110012D01*
X0079836Y0111329D01*
X0079200Y0111964D01*
X0079200Y0129336D01*
X0079771Y0128764D01*
X0081088Y0128219D01*
X0082512Y0128219D01*
X0083829Y0128764D01*
X0084400Y0129336D01*
X0084400Y0096991D01*
X0083748Y0096339D01*
X0083200Y0095016D01*
X0083200Y0093584D01*
X0083748Y0092261D01*
X0084761Y0091248D01*
X0086084Y0090700D01*
X0087516Y0090700D01*
X0088839Y0091248D01*
X0089400Y0091809D01*
X0089400Y0065294D01*
X0087265Y0063159D01*
X0086900Y0062277D01*
X0086900Y0061964D01*
X0086264Y0061329D01*
X0085719Y0060012D01*
X0085719Y0058588D01*
X0086109Y0057645D01*
X0081700Y0060584D01*
X0081700Y0086609D01*
X0082352Y0087261D01*
X0082900Y0088584D01*
X0082900Y0090016D01*
X0082352Y0091339D01*
X0081339Y0092352D01*
X0080016Y0092900D01*
X0078584Y0092900D01*
X0077261Y0092352D01*
X0076248Y0091339D01*
X0075700Y0090016D01*
X0075700Y0088584D01*
X0076248Y0087261D01*
X0076900Y0086609D01*
X0076900Y0059535D01*
X0076853Y0059297D01*
X0076900Y0059062D01*
X0076900Y0058823D01*
X0076993Y0058599D01*
X0077040Y0058361D01*
X0077174Y0058162D01*
X0077265Y0057941D01*
X0077437Y0057769D01*
X0077572Y0057568D01*
X0077771Y0057435D01*
X0077941Y0057265D01*
X0078164Y0057173D01*
X0085271Y0052435D01*
X0085441Y0052265D01*
X0085664Y0052173D01*
X0085866Y0052038D01*
X0086101Y0051992D01*
X0086323Y0051900D01*
X0086565Y0051900D01*
X0086791Y0051855D01*
X0086264Y0051329D01*
X0085719Y0050012D01*
X0085719Y0048588D01*
X0086264Y0047271D01*
X0087271Y0046264D01*
X0088588Y0045719D01*
X0089487Y0045719D01*
X0091900Y0043306D01*
X0091900Y0026501D01*
X0091581Y0026369D01*
X0090231Y0025019D01*
X0089500Y0023255D01*
X0089500Y0015345D01*
X0090231Y0013581D01*
X0089500Y0016293D02*
X0007148Y0016293D01*
X0006589Y0018691D02*
X0089500Y0018691D01*
X0089500Y0021090D02*
X0006500Y0021090D01*
X0006500Y0023488D02*
X0089597Y0023488D01*
X0091098Y0025887D02*
X0031350Y0025887D01*
X0031792Y0026070D02*
X0033030Y0027308D01*
X0033700Y0028925D01*
X0033700Y0030675D01*
X0033030Y0032292D01*
X0031792Y0033530D01*
X0030175Y0034200D01*
X0028425Y0034200D01*
X0026808Y0033530D01*
X0025570Y0032292D01*
X0024900Y0030675D01*
X0024900Y0028925D01*
X0025570Y0027308D01*
X0026808Y0026070D01*
X0028425Y0025400D01*
X0030175Y0025400D01*
X0031792Y0026070D01*
X0033435Y0028285D02*
X0091900Y0028285D01*
X0091900Y0030684D02*
X0033697Y0030684D01*
X0032240Y0033082D02*
X0091900Y0033082D01*
X0091900Y0035481D02*
X0006500Y0035481D01*
X0006500Y0037879D02*
X0091900Y0037879D01*
X0091900Y0040278D02*
X0006500Y0040278D01*
X0006500Y0042676D02*
X0091900Y0042676D01*
X0090131Y0045075D02*
X0031797Y0045075D01*
X0031792Y0045070D02*
X0033030Y0046308D01*
X0033700Y0047925D01*
X0033700Y0049675D01*
X0033030Y0051292D01*
X0031792Y0052530D01*
X0030175Y0053200D01*
X0028425Y0053200D01*
X0026808Y0052530D01*
X0025570Y0051292D01*
X0024900Y0049675D01*
X0024900Y0047925D01*
X0025570Y0046308D01*
X0026808Y0045070D01*
X0028425Y0044400D01*
X0030175Y0044400D01*
X0031792Y0045070D01*
X0033513Y0047473D02*
X0086181Y0047473D01*
X0085719Y0049872D02*
X0033619Y0049872D01*
X0032052Y0052270D02*
X0085436Y0052270D01*
X0081920Y0054669D02*
X0006500Y0054669D01*
X0006500Y0057067D02*
X0078322Y0057067D01*
X0076886Y0059466D02*
X0054281Y0059466D01*
X0053839Y0059024D02*
X0054852Y0060036D01*
X0055400Y0061359D01*
X0055400Y0062792D01*
X0054852Y0064115D01*
X0054400Y0064567D01*
X0054400Y0081836D01*
X0054836Y0082271D01*
X0055381Y0083588D01*
X0055381Y0085012D01*
X0054836Y0086329D01*
X0053829Y0087336D01*
X0052512Y0087881D01*
X0051613Y0087881D01*
X0039200Y0100294D01*
X0039200Y0151006D01*
X0039400Y0150806D01*
X0039400Y0103823D01*
X0039765Y0102941D01*
X0056700Y0086006D01*
X0056700Y0071791D01*
X0056248Y0071339D01*
X0055700Y0070016D01*
X0055700Y0068584D01*
X0056248Y0067261D01*
X0057261Y0066248D01*
X0058584Y0065700D01*
X0060016Y0065700D01*
X0061339Y0066248D01*
X0062352Y0067261D01*
X0062900Y0068584D01*
X0062900Y0070016D01*
X0062352Y0071339D01*
X0061900Y0071791D01*
X0061900Y0087317D01*
X0061504Y0088273D01*
X0060773Y0089004D01*
X0060290Y0089204D01*
X0044200Y0105294D01*
X0044200Y0152277D01*
X0043835Y0153159D01*
X0035823Y0161171D01*
X0035148Y0161846D01*
X0034266Y0162212D01*
X0028738Y0162212D01*
X0028738Y0162860D01*
X0028988Y0163293D01*
X0029138Y0163853D01*
X0029138Y0164930D01*
X0029138Y0166007D01*
X0028988Y0166566D01*
X0028698Y0167068D01*
X0028289Y0167478D01*
X0027787Y0167767D01*
X0027227Y0167917D01*
X0024807Y0167917D01*
X0024807Y0168201D01*
X0024797Y0168226D01*
X0025133Y0168226D01*
X0025844Y0168339D01*
X0026530Y0168561D01*
X0027172Y0168889D01*
X0027755Y0169312D01*
X0028264Y0169822D01*
X0028688Y0170405D01*
X0029015Y0171047D01*
X0029238Y0171732D01*
X0029350Y0172444D01*
X0029350Y0172804D01*
X0029350Y0177920D01*
X0029238Y0178632D01*
X0029015Y0179317D01*
X0028688Y0179959D01*
X0028264Y0180542D01*
X0027755Y0181052D01*
X0027172Y0181475D01*
X0026530Y0181802D01*
X0025844Y0182025D01*
X0025133Y0182138D01*
X0024772Y0182138D01*
X0024412Y0182138D01*
X0023700Y0182025D01*
X0023015Y0181802D01*
X0022373Y0181475D01*
X0021790Y0181052D01*
X0021281Y0180542D01*
X0020857Y0179959D01*
X0020732Y0179713D01*
X0020720Y0179755D01*
X0020431Y0180257D01*
X0020021Y0180667D01*
X0019519Y0180956D01*
X0018960Y0181106D01*
X0013749Y0181106D01*
X0013749Y0177366D01*
X0013749Y0177366D01*
X0013749Y0181106D01*
X0008538Y0181106D01*
X0007978Y0180956D01*
X0007477Y0180667D01*
X0007067Y0180257D01*
X0006777Y0179755D01*
X0006628Y0179196D01*
X0006628Y0173985D01*
X0009374Y0173985D01*
X0006628Y0173985D01*
X0006628Y0168774D01*
X0006777Y0168215D01*
X0007067Y0167713D01*
X0007477Y0167303D01*
X0007978Y0167014D01*
X0008538Y0166864D01*
X0008870Y0166864D01*
X0008569Y0166783D01*
X0008067Y0166494D01*
X0007658Y0166084D01*
X0007368Y0165582D01*
X0007218Y0165023D01*
X0007218Y0162765D01*
X0013355Y0162765D01*
X0013355Y0162764D01*
X0013355Y0162764D01*
X0013355Y0156859D01*
X0007218Y0156859D01*
X0007218Y0154601D01*
X0007368Y0154041D01*
X0007658Y0153540D01*
X0008067Y0153130D01*
X0008569Y0152840D01*
X0008870Y0152760D01*
X0008538Y0152760D01*
X0007978Y0152610D01*
X0007477Y0152320D01*
X0007067Y0151911D01*
X0006777Y0151409D01*
X0006628Y0150849D01*
X0006628Y0145639D01*
X0009374Y0145639D01*
X0009374Y0145639D01*
X0009374Y0145639D01*
X0006628Y0145639D01*
X0006628Y0140428D01*
X0006777Y0139868D01*
X0007067Y0139366D01*
X0007477Y0138957D01*
X0007978Y0138667D01*
X0008538Y0138517D01*
X0013749Y0138517D01*
X0018960Y0138517D01*
X0019519Y0138667D01*
X0020021Y0138957D01*
X0020431Y0139366D01*
X0020720Y0139868D01*
X0020732Y0139911D01*
X0020857Y0139664D01*
X0021281Y0139081D01*
X0021790Y0138572D01*
X0022373Y0138148D01*
X0023015Y0137821D01*
X0023700Y0137599D01*
X0024412Y0137486D01*
X0024772Y0137486D01*
X0024772Y0146820D01*
X0024772Y0146820D01*
X0024772Y0137486D01*
X0025133Y0137486D01*
X0025844Y0137599D01*
X0026530Y0137821D01*
X0027172Y0138148D01*
X0027291Y0138235D01*
X0027291Y0137344D01*
X0027271Y0137336D01*
X0026264Y0136329D01*
X0025719Y0135012D01*
X0025719Y0133588D01*
X0026264Y0132271D01*
X0027271Y0131264D01*
X0028588Y0130719D01*
X0030012Y0130719D01*
X0031329Y0131264D01*
X0032336Y0132271D01*
X0032881Y0133588D01*
X0032881Y0135012D01*
X0032491Y0135955D01*
X0032491Y0150486D01*
X0032095Y0151442D01*
X0028738Y0154799D01*
X0028738Y0154853D01*
X0030353Y0154853D01*
X0034400Y0150806D01*
X0034400Y0098823D01*
X0034765Y0097941D01*
X0048219Y0084487D01*
X0048219Y0083588D01*
X0048764Y0082271D01*
X0049200Y0081836D01*
X0049200Y0064567D01*
X0048748Y0064115D01*
X0048200Y0062792D01*
X0048200Y0061359D01*
X0048748Y0060036D01*
X0049761Y0059024D01*
X0051084Y0058476D01*
X0052516Y0058476D01*
X0053839Y0059024D01*
X0055400Y0061864D02*
X0076900Y0061864D01*
X0081700Y0061864D02*
X0086800Y0061864D01*
X0085719Y0059466D02*
X0083378Y0059466D01*
X0092132Y0057067D02*
X0162856Y0057067D01*
X0165254Y0054669D02*
X0108929Y0054669D01*
X0107790Y0049872D02*
X0105381Y0049872D01*
X0107021Y0047473D02*
X0243660Y0047473D01*
X0241255Y0049872D02*
X0184898Y0049872D01*
X0185400Y0052270D02*
X0237653Y0052270D01*
X0236700Y0054669D02*
X0194760Y0054669D01*
X0195400Y0057067D02*
X0236700Y0057067D01*
X0236700Y0059466D02*
X0194225Y0059466D01*
X0189375Y0059466D02*
X0167811Y0059466D01*
X0165413Y0061864D02*
X0236700Y0061864D01*
X0236700Y0064263D02*
X0164400Y0064263D01*
X0164400Y0066661D02*
X0219348Y0066661D01*
X0218200Y0069060D02*
X0164400Y0069060D01*
X0164400Y0071458D02*
X0217814Y0071458D01*
X0216700Y0073857D02*
X0164400Y0073857D01*
X0164642Y0076255D02*
X0184753Y0076255D01*
X0188847Y0076255D02*
X0216458Y0076255D01*
X0214660Y0078654D02*
X0190400Y0078654D01*
X0189971Y0081052D02*
X0212861Y0081052D01*
X0211062Y0083451D02*
X0189400Y0083451D01*
X0189400Y0085849D02*
X0209263Y0085849D01*
X0207464Y0088248D02*
X0189400Y0088248D01*
X0189400Y0090646D02*
X0205665Y0090646D01*
X0212165Y0090646D02*
X0213127Y0090646D01*
X0213964Y0088248D02*
X0215126Y0088248D01*
X0215763Y0085849D02*
X0217124Y0085849D01*
X0217562Y0083451D02*
X0218255Y0083451D01*
X0219361Y0081052D02*
X0220233Y0081052D01*
X0221160Y0078654D02*
X0236900Y0078654D01*
X0236900Y0081052D02*
X0223367Y0081052D01*
X0225345Y0083451D02*
X0236900Y0083451D01*
X0236900Y0085849D02*
X0225055Y0085849D01*
X0221895Y0088248D02*
X0236900Y0088248D01*
X0236900Y0090646D02*
X0219896Y0090646D01*
X0217897Y0093045D02*
X0236900Y0093045D01*
X0236900Y0095443D02*
X0215898Y0095443D01*
X0214590Y0097842D02*
X0213899Y0097842D01*
X0213423Y0100240D02*
X0211901Y0100240D01*
X0211900Y0102639D02*
X0212224Y0102639D01*
X0216838Y0105037D02*
X0236700Y0105037D01*
X0236700Y0102639D02*
X0223146Y0102639D01*
X0220454Y0102639D02*
X0218037Y0102639D01*
X0225307Y0100240D02*
X0235793Y0100240D01*
X0236007Y0097842D02*
X0225093Y0097842D01*
X0211128Y0093045D02*
X0210366Y0093045D01*
X0209129Y0095443D02*
X0208567Y0095443D01*
X0207090Y0097842D02*
X0206900Y0097842D01*
X0201700Y0097842D02*
X0189400Y0097842D01*
X0189400Y0100240D02*
X0201700Y0100240D01*
X0201700Y0102639D02*
X0189400Y0102639D01*
X0189400Y0105037D02*
X0200684Y0105037D01*
X0199085Y0107436D02*
X0189400Y0107436D01*
X0189400Y0109834D02*
X0197486Y0109834D01*
X0195887Y0112233D02*
X0189400Y0112233D01*
X0189400Y0114632D02*
X0194288Y0114632D01*
X0188979Y0117030D02*
X0187747Y0117030D01*
X0188200Y0119429D02*
X0185348Y0119429D01*
X0184182Y0121827D02*
X0182950Y0121827D01*
X0177995Y0119429D02*
X0152700Y0119429D01*
X0152700Y0121827D02*
X0175596Y0121827D01*
X0173197Y0124226D02*
X0152700Y0124226D01*
X0152700Y0126624D02*
X0170799Y0126624D01*
X0168400Y0129023D02*
X0152700Y0129023D01*
X0152700Y0131421D02*
X0166002Y0131421D01*
X0163603Y0133820D02*
X0152700Y0133820D01*
X0152700Y0136218D02*
X0161205Y0136218D01*
X0168559Y0136218D02*
X0169833Y0136218D01*
X0170957Y0133820D02*
X0173200Y0133820D01*
X0173356Y0131421D02*
X0174588Y0131421D01*
X0175754Y0129023D02*
X0178200Y0129023D01*
X0178153Y0126624D02*
X0179385Y0126624D01*
X0180551Y0124226D02*
X0183200Y0124226D01*
X0180393Y0117030D02*
X0152700Y0117030D01*
X0152700Y0114632D02*
X0182792Y0114632D01*
X0184200Y0112233D02*
X0152700Y0112233D01*
X0152700Y0109834D02*
X0184200Y0109834D01*
X0184200Y0107436D02*
X0152700Y0107436D01*
X0145900Y0107436D02*
X0130716Y0107436D01*
X0130716Y0109834D02*
X0145900Y0109834D01*
X0145900Y0112233D02*
X0130716Y0112233D01*
X0130716Y0114632D02*
X0145900Y0114632D01*
X0145900Y0117030D02*
X0130716Y0117030D01*
X0130716Y0119429D02*
X0145900Y0119429D01*
X0145900Y0121827D02*
X0130716Y0121827D01*
X0125916Y0121827D02*
X0115568Y0121827D01*
X0115568Y0119429D02*
X0125916Y0119429D01*
X0125916Y0117030D02*
X0115568Y0117030D01*
X0115568Y0114632D02*
X0125916Y0114632D01*
X0125916Y0112233D02*
X0115568Y0112233D01*
X0115568Y0109834D02*
X0125916Y0109834D01*
X0125916Y0107436D02*
X0115568Y0107436D01*
X0109568Y0107436D02*
X0094200Y0107436D01*
X0094200Y0109834D02*
X0109568Y0109834D01*
X0109568Y0112233D02*
X0094200Y0112233D01*
X0094200Y0114632D02*
X0109568Y0114632D01*
X0109568Y0117030D02*
X0094200Y0117030D01*
X0095100Y0119429D02*
X0103122Y0119429D01*
X0103100Y0119510D02*
X0103250Y0118951D01*
X0103540Y0118449D01*
X0103949Y0118040D01*
X0104451Y0117750D01*
X0105010Y0117600D01*
X0106800Y0117600D01*
X0106800Y0122800D01*
X0106800Y0122800D01*
X0106800Y0122800D01*
X0103100Y0122800D01*
X0103100Y0126090D01*
X0103250Y0126649D01*
X0103540Y0127151D01*
X0103949Y0127560D01*
X0104451Y0127850D01*
X0105010Y0128000D01*
X0106800Y0128000D01*
X0106800Y0122800D01*
X0103100Y0122800D01*
X0103100Y0119510D01*
X0103100Y0121827D02*
X0096041Y0121827D01*
X0099825Y0124226D02*
X0103100Y0124226D01*
X0103243Y0126624D02*
X0101704Y0126624D01*
X0101700Y0129023D02*
X0104513Y0129023D01*
X0103219Y0131421D02*
X0102881Y0131421D01*
X0102340Y0133820D02*
X0103760Y0133820D01*
X0104400Y0136218D02*
X0089200Y0136218D01*
X0089200Y0133820D02*
X0096260Y0133820D01*
X0095719Y0131421D02*
X0089200Y0131421D01*
X0089200Y0129023D02*
X0096900Y0129023D01*
X0106800Y0126624D02*
X0106800Y0126624D01*
X0106800Y0124226D02*
X0106800Y0124226D01*
X0106800Y0121827D02*
X0106800Y0121827D01*
X0106800Y0119429D02*
X0106800Y0119429D01*
X0115568Y0124226D02*
X0125916Y0124226D01*
X0125916Y0126624D02*
X0115568Y0126624D01*
X0115568Y0129023D02*
X0125916Y0129023D01*
X0125916Y0131421D02*
X0115568Y0131421D01*
X0115568Y0133820D02*
X0121644Y0133820D01*
X0120610Y0136218D02*
X0115568Y0136218D01*
X0115568Y0138617D02*
X0120610Y0138617D01*
X0116673Y0141015D02*
X0115568Y0141015D01*
X0116160Y0143414D02*
X0116673Y0143414D01*
X0112568Y0144064D02*
X0116505Y0148001D01*
X0120442Y0148001D01*
X0121426Y0148985D01*
X0126179Y0150609D02*
X0145900Y0150609D01*
X0145900Y0148211D02*
X0131712Y0148211D01*
X0132287Y0145812D02*
X0145900Y0145812D01*
X0145900Y0143414D02*
X0131314Y0143414D01*
X0130005Y0141015D02*
X0126626Y0141015D01*
X0134501Y0141015D02*
X0145900Y0141015D01*
X0145900Y0138617D02*
X0135234Y0138617D01*
X0135234Y0136218D02*
X0145900Y0136218D01*
X0145900Y0133820D02*
X0134200Y0133820D01*
X0130716Y0131421D02*
X0145900Y0131421D01*
X0145900Y0129023D02*
X0130716Y0129023D01*
X0130716Y0126624D02*
X0145900Y0126624D01*
X0145900Y0124226D02*
X0130716Y0124226D01*
X0109568Y0129023D02*
X0109087Y0129023D01*
X0104400Y0138617D02*
X0089200Y0138617D01*
X0089200Y0141015D02*
X0104400Y0141015D01*
X0104400Y0143414D02*
X0089200Y0143414D01*
X0095100Y0145812D02*
X0103500Y0145812D01*
X0103500Y0148211D02*
X0095100Y0148211D01*
X0095100Y0150609D02*
X0103500Y0150609D01*
X0104400Y0153008D02*
X0094200Y0153008D01*
X0094200Y0155406D02*
X0104400Y0155406D01*
X0104400Y0157805D02*
X0094200Y0157805D01*
X0094200Y0160203D02*
X0104400Y0160203D01*
X0104400Y0162602D02*
X0094200Y0162602D01*
X0094200Y0165000D02*
X0104400Y0165000D01*
X0103500Y0167399D02*
X0095100Y0167399D01*
X0095100Y0169797D02*
X0100433Y0169797D01*
X0095920Y0172196D02*
X0095100Y0172196D01*
X0095140Y0174594D02*
X0095921Y0174594D01*
X0084400Y0174594D02*
X0082822Y0174594D01*
X0082822Y0172196D02*
X0084400Y0172196D01*
X0084400Y0169797D02*
X0082822Y0169797D01*
X0082822Y0167399D02*
X0084400Y0167399D01*
X0078022Y0167399D02*
X0075200Y0167399D01*
X0075200Y0169797D02*
X0078022Y0169797D01*
X0078022Y0172196D02*
X0075200Y0172196D01*
X0075200Y0174594D02*
X0078022Y0174594D01*
X0078022Y0176993D02*
X0075349Y0176993D01*
X0075962Y0179391D02*
X0078022Y0179391D01*
X0082822Y0179391D02*
X0084400Y0179391D01*
X0084400Y0176993D02*
X0082822Y0176993D01*
X0082822Y0181790D02*
X0084400Y0181790D01*
X0085794Y0184188D02*
X0082822Y0184188D01*
X0082822Y0186587D02*
X0088193Y0186587D01*
X0090591Y0188985D02*
X0083817Y0188985D01*
X0083786Y0191384D02*
X0093059Y0191384D01*
X0094981Y0186587D02*
X0108287Y0186587D01*
X0112911Y0186587D02*
X0166922Y0186587D01*
X0171678Y0186587D02*
X0195527Y0186587D01*
X0194200Y0184188D02*
X0092582Y0184188D01*
X0078022Y0184188D02*
X0006500Y0184188D01*
X0006500Y0181790D02*
X0022990Y0181790D01*
X0024772Y0181790D02*
X0024772Y0181790D01*
X0024772Y0182138D02*
X0024772Y0172804D01*
X0024772Y0172804D01*
X0024772Y0182138D01*
X0026554Y0181790D02*
X0068404Y0181790D01*
X0075196Y0181790D02*
X0078022Y0181790D01*
X0078022Y0186587D02*
X0006578Y0186587D01*
X0007102Y0188985D02*
X0077027Y0188985D01*
X0077058Y0191384D02*
X0007991Y0191384D01*
X0009432Y0193782D02*
X0224314Y0193782D01*
X0224228Y0193518D02*
X0224100Y0192709D01*
X0224100Y0189300D01*
X0229300Y0189300D01*
X0229300Y0189300D01*
X0229300Y0189300D01*
X0229300Y0197500D01*
X0228891Y0197500D01*
X0228082Y0197372D01*
X0227304Y0197119D01*
X0226575Y0196747D01*
X0225912Y0196266D01*
X0225334Y0195688D01*
X0224853Y0195025D01*
X0224481Y0194296D01*
X0224228Y0193518D01*
X0224100Y0191384D02*
X0172307Y0191384D01*
X0172900Y0188985D02*
X0200308Y0188985D01*
X0202390Y0184188D02*
X0209320Y0184188D01*
X0214280Y0184188D02*
X0215700Y0184188D01*
X0215700Y0183587D02*
X0215700Y0185016D01*
X0216248Y0186339D01*
X0217261Y0187352D01*
X0218584Y0187900D01*
X0220016Y0187900D01*
X0221339Y0187352D01*
X0222352Y0186339D01*
X0222900Y0185016D01*
X0222900Y0183584D01*
X0222352Y0182261D01*
X0221339Y0181248D01*
X0220028Y0180705D01*
X0211900Y0168513D01*
X0211900Y0164291D01*
X0212352Y0163839D01*
X0212900Y0162516D01*
X0212900Y0161084D01*
X0212352Y0159761D01*
X0211339Y0158748D01*
X0210016Y0158200D01*
X0208584Y0158200D01*
X0207416Y0158684D01*
X0207900Y0157516D01*
X0207900Y0156084D01*
X0207352Y0154761D01*
X0206339Y0153748D01*
X0205016Y0153200D01*
X0203584Y0153200D01*
X0202261Y0153748D01*
X0201248Y0154761D01*
X0200700Y0156084D01*
X0200700Y0157516D01*
X0201248Y0158839D01*
X0201700Y0159291D01*
X0201700Y0171809D01*
X0201248Y0172261D01*
X0200700Y0173584D01*
X0200700Y0175016D01*
X0201248Y0176339D01*
X0202261Y0177352D01*
X0203584Y0177900D01*
X0205016Y0177900D01*
X0206339Y0177352D01*
X0207352Y0176339D01*
X0207900Y0175016D01*
X0207900Y0173584D01*
X0207352Y0172261D01*
X0206900Y0171809D01*
X0206900Y0170387D01*
X0206995Y0170530D01*
X0207096Y0170773D01*
X0207279Y0170956D01*
X0215700Y0183587D01*
X0214502Y0181790D02*
X0199400Y0181790D01*
X0194200Y0181790D02*
X0109889Y0181790D01*
X0112413Y0179391D02*
X0194200Y0179391D01*
X0194200Y0176993D02*
X0114788Y0176993D01*
X0115168Y0174594D02*
X0146208Y0174594D01*
X0145138Y0172196D02*
X0115168Y0172196D01*
X0115168Y0169797D02*
X0121386Y0169797D01*
X0120610Y0167399D02*
X0116532Y0167399D01*
X0118930Y0165000D02*
X0120610Y0165000D01*
X0113975Y0162602D02*
X0109200Y0162602D01*
X0109200Y0165000D02*
X0111576Y0165000D01*
X0109200Y0160203D02*
X0116373Y0160203D01*
X0117541Y0157805D02*
X0109200Y0157805D01*
X0109200Y0155406D02*
X0125136Y0155406D01*
X0131495Y0155406D02*
X0145900Y0155406D01*
X0145900Y0153008D02*
X0109200Y0153008D01*
X0110100Y0150609D02*
X0114963Y0150609D01*
X0112472Y0148211D02*
X0110100Y0148211D01*
X0112568Y0144064D02*
X0112568Y0088946D01*
X0116505Y0085009D01*
X0116505Y0082135D01*
X0110197Y0078654D02*
X0094200Y0078654D01*
X0094200Y0081052D02*
X0108758Y0081052D01*
X0108854Y0083451D02*
X0094200Y0083451D01*
X0094200Y0085849D02*
X0110431Y0085849D01*
X0109610Y0088248D02*
X0094200Y0088248D01*
X0094200Y0090646D02*
X0109568Y0090646D01*
X0115568Y0090646D02*
X0125144Y0090646D01*
X0124735Y0088248D02*
X0117508Y0088248D01*
X0122578Y0085849D02*
X0126433Y0085849D01*
X0124155Y0083451D02*
X0152841Y0083451D01*
X0155239Y0081052D02*
X0124252Y0081052D01*
X0122812Y0078654D02*
X0157638Y0078654D01*
X0158958Y0076255D02*
X0122680Y0076255D01*
X0122892Y0076101D02*
X0122230Y0076582D01*
X0121501Y0076954D01*
X0120722Y0077207D01*
X0119914Y0077335D01*
X0116505Y0077335D01*
X0116505Y0072135D01*
X0116505Y0072135D01*
X0124705Y0072135D01*
X0124705Y0072544D01*
X0124577Y0073352D01*
X0124324Y0074131D01*
X0123952Y0074860D01*
X0123471Y0075522D01*
X0122892Y0076101D01*
X0124413Y0073857D02*
X0159200Y0073857D01*
X0159200Y0071458D02*
X0124662Y0071458D01*
X0124705Y0071725D02*
X0124705Y0072135D01*
X0116505Y0072135D01*
X0116505Y0072135D01*
X0116505Y0077335D01*
X0113095Y0077335D01*
X0112287Y0077207D01*
X0111509Y0076954D01*
X0110779Y0076582D01*
X0110117Y0076101D01*
X0109538Y0075522D01*
X0109057Y0074860D01*
X0108686Y0074131D01*
X0108433Y0073352D01*
X0108305Y0072544D01*
X0108305Y0072135D01*
X0116505Y0072135D01*
X0116505Y0072135D01*
X0116505Y0066935D01*
X0119914Y0066935D01*
X0120722Y0067063D01*
X0121501Y0067316D01*
X0122230Y0067687D01*
X0122892Y0068168D01*
X0123471Y0068747D01*
X0123952Y0069409D01*
X0124324Y0070139D01*
X0124577Y0070917D01*
X0124705Y0071725D01*
X0123698Y0069060D02*
X0159200Y0069060D01*
X0159200Y0066661D02*
X0094200Y0066661D01*
X0094200Y0064263D02*
X0159200Y0064263D01*
X0159200Y0061864D02*
X0092758Y0061864D01*
X0092881Y0059466D02*
X0160457Y0059466D01*
X0121716Y0040278D02*
X0395801Y0040278D01*
X0395801Y0042676D02*
X0391362Y0042676D01*
X0391684Y0042998D02*
X0392415Y0044763D01*
X0392415Y0046672D01*
X0391684Y0048436D01*
X0390334Y0049787D01*
X0388570Y0050517D01*
X0380660Y0050517D01*
X0378896Y0049787D01*
X0377546Y0048436D01*
X0376815Y0046672D01*
X0376815Y0044763D01*
X0377546Y0042998D01*
X0378896Y0041648D01*
X0380660Y0040917D01*
X0388570Y0040917D01*
X0390334Y0041648D01*
X0391684Y0042998D01*
X0392415Y0045075D02*
X0395801Y0045075D01*
X0395801Y0047473D02*
X0392083Y0047473D01*
X0390128Y0049872D02*
X0395801Y0049872D01*
X0395801Y0052270D02*
X0390956Y0052270D01*
X0390334Y0051648D02*
X0391684Y0052998D01*
X0392415Y0054763D01*
X0392415Y0056672D01*
X0391684Y0058436D01*
X0390334Y0059787D01*
X0388570Y0060517D01*
X0380660Y0060517D01*
X0378896Y0059787D01*
X0377546Y0058436D01*
X0376815Y0056672D01*
X0376815Y0054763D01*
X0377546Y0052998D01*
X0378896Y0051648D01*
X0380660Y0050917D01*
X0388570Y0050917D01*
X0390334Y0051648D01*
X0392376Y0054669D02*
X0395801Y0054669D01*
X0395801Y0057067D02*
X0392251Y0057067D01*
X0390655Y0059466D02*
X0395801Y0059466D01*
X0395801Y0061864D02*
X0390550Y0061864D01*
X0390334Y0061648D02*
X0391684Y0062998D01*
X0392415Y0064763D01*
X0392415Y0066672D01*
X0391684Y0068436D01*
X0390334Y0069787D01*
X0388570Y0070517D01*
X0380660Y0070517D01*
X0378896Y0069787D01*
X0377546Y0068436D01*
X0376815Y0066672D01*
X0376815Y0064763D01*
X0377546Y0062998D01*
X0378896Y0061648D01*
X0380660Y0060917D01*
X0388570Y0060917D01*
X0390334Y0061648D01*
X0392208Y0064263D02*
X0395801Y0064263D01*
X0395801Y0066661D02*
X0392415Y0066661D01*
X0391061Y0069060D02*
X0395801Y0069060D01*
X0395801Y0071458D02*
X0389876Y0071458D01*
X0390334Y0071648D02*
X0388570Y0070917D01*
X0380660Y0070917D01*
X0378896Y0071648D01*
X0377546Y0072998D01*
X0376815Y0074763D01*
X0376815Y0076672D01*
X0377546Y0078436D01*
X0378896Y0079787D01*
X0380660Y0080517D01*
X0388570Y0080517D01*
X0390334Y0079787D01*
X0391684Y0078436D01*
X0392415Y0076672D01*
X0392415Y0074763D01*
X0391684Y0072998D01*
X0390334Y0071648D01*
X0392040Y0073857D02*
X0395801Y0073857D01*
X0395801Y0076255D02*
X0392415Y0076255D01*
X0391467Y0078654D02*
X0395801Y0078654D01*
X0395801Y0081052D02*
X0388896Y0081052D01*
X0388570Y0080917D02*
X0390334Y0081648D01*
X0391684Y0082998D01*
X0392415Y0084763D01*
X0392415Y0086672D01*
X0391684Y0088436D01*
X0390334Y0089787D01*
X0388570Y0090517D01*
X0380660Y0090517D01*
X0378896Y0089787D01*
X0377546Y0088436D01*
X0376815Y0086672D01*
X0376815Y0084763D01*
X0377546Y0082998D01*
X0378896Y0081648D01*
X0380660Y0080917D01*
X0388570Y0080917D01*
X0391872Y0083451D02*
X0395801Y0083451D01*
X0395801Y0085849D02*
X0392415Y0085849D01*
X0391762Y0088248D02*
X0395801Y0088248D01*
X0395801Y0090646D02*
X0361700Y0090646D01*
X0361700Y0088248D02*
X0377468Y0088248D01*
X0376815Y0085849D02*
X0361700Y0085849D01*
X0361700Y0083451D02*
X0377358Y0083451D01*
X0380334Y0081052D02*
X0361700Y0081052D01*
X0361700Y0078654D02*
X0377763Y0078654D01*
X0376815Y0076255D02*
X0361700Y0076255D01*
X0361700Y0073857D02*
X0377190Y0073857D01*
X0379354Y0071458D02*
X0362233Y0071458D01*
X0362352Y0071339D02*
X0361700Y0071991D01*
X0361700Y0096609D01*
X0362352Y0097261D01*
X0362900Y0098584D01*
X0362900Y0100016D01*
X0362352Y0101339D01*
X0361700Y0101991D01*
X0361700Y0126609D01*
X0362352Y0127261D01*
X0362900Y0128584D01*
X0362900Y0130016D01*
X0362352Y0131339D01*
X0361700Y0131991D01*
X0361700Y0156609D01*
X0362352Y0157261D01*
X0362900Y0158584D01*
X0362900Y0160016D01*
X0362352Y0161339D01*
X0361339Y0162352D01*
X0360016Y0162900D01*
X0358584Y0162900D01*
X0357261Y0162352D01*
X0356248Y0161339D01*
X0355700Y0160016D01*
X0355700Y0158584D01*
X0356248Y0157261D01*
X0356900Y0156609D01*
X0356900Y0131991D01*
X0356248Y0131339D01*
X0355700Y0130016D01*
X0355700Y0128584D01*
X0356248Y0127261D01*
X0356900Y0126609D01*
X0356900Y0101991D01*
X0356248Y0101339D01*
X0355700Y0100016D01*
X0355700Y0098584D01*
X0356248Y0097261D01*
X0356900Y0096609D01*
X0356900Y0071991D01*
X0356809Y0071900D01*
X0351283Y0071900D01*
X0350327Y0071504D01*
X0349596Y0070773D01*
X0343223Y0064400D01*
X0328783Y0064400D01*
X0327827Y0064004D01*
X0327096Y0063273D01*
X0322096Y0058273D01*
X0321700Y0057317D01*
X0321700Y0051791D01*
X0321248Y0051339D01*
X0320700Y0050016D01*
X0320700Y0048584D01*
X0321248Y0047261D01*
X0322261Y0046248D01*
X0323584Y0045700D01*
X0325016Y0045700D01*
X0326339Y0046248D01*
X0327352Y0047261D01*
X0327900Y0048584D01*
X0327900Y0050016D01*
X0327352Y0051339D01*
X0326900Y0051791D01*
X0326900Y0055723D01*
X0330377Y0059200D01*
X0344817Y0059200D01*
X0345773Y0059596D01*
X0352877Y0066700D01*
X0356809Y0066700D01*
X0357261Y0066248D01*
X0358584Y0065700D01*
X0360016Y0065700D01*
X0361339Y0066248D01*
X0362352Y0067261D01*
X0362900Y0068584D01*
X0362900Y0070016D01*
X0362352Y0071339D01*
X0362900Y0069060D02*
X0378169Y0069060D01*
X0376815Y0066661D02*
X0361752Y0066661D01*
X0356848Y0066661D02*
X0352838Y0066661D01*
X0350440Y0064263D02*
X0377022Y0064263D01*
X0378680Y0061864D02*
X0348041Y0061864D01*
X0345459Y0059466D02*
X0378575Y0059466D01*
X0376979Y0057067D02*
X0328244Y0057067D01*
X0326900Y0054669D02*
X0376854Y0054669D01*
X0378274Y0052270D02*
X0326900Y0052270D01*
X0327900Y0049872D02*
X0379102Y0049872D01*
X0377147Y0047473D02*
X0327440Y0047473D01*
X0321160Y0047473D02*
X0317440Y0047473D01*
X0317352Y0047261D02*
X0317900Y0048584D01*
X0317900Y0050016D01*
X0317352Y0051339D01*
X0316900Y0051791D01*
X0316900Y0055582D01*
X0330241Y0066700D01*
X0336809Y0066700D01*
X0337261Y0066248D01*
X0338584Y0065700D01*
X0340016Y0065700D01*
X0341339Y0066248D01*
X0342352Y0067261D01*
X0342900Y0068584D01*
X0342900Y0070016D01*
X0342352Y0071339D01*
X0341700Y0071991D01*
X0341700Y0096609D01*
X0342352Y0097261D01*
X0342900Y0098584D01*
X0342900Y0100016D01*
X0342352Y0101339D01*
X0341700Y0101991D01*
X0341700Y0126609D01*
X0342352Y0127261D01*
X0342900Y0128584D01*
X0342900Y0130016D01*
X0342352Y0131339D01*
X0341700Y0131991D01*
X0341700Y0156609D01*
X0342352Y0157261D01*
X0342900Y0158584D01*
X0342900Y0160016D01*
X0342352Y0161339D01*
X0341339Y0162352D01*
X0340016Y0162900D01*
X0338584Y0162900D01*
X0337261Y0162352D01*
X0336248Y0161339D01*
X0335700Y0160016D01*
X0335700Y0158584D01*
X0336248Y0157261D01*
X0336900Y0156609D01*
X0336900Y0131991D01*
X0336248Y0131339D01*
X0335700Y0130016D01*
X0335700Y0128584D01*
X0336248Y0127261D01*
X0336900Y0126609D01*
X0336900Y0101991D01*
X0336248Y0101339D01*
X0335700Y0100016D01*
X0335700Y0098584D01*
X0336248Y0097261D01*
X0336900Y0096609D01*
X0336900Y0071991D01*
X0336809Y0071900D01*
X0329418Y0071900D01*
X0329020Y0071936D01*
X0328904Y0071900D01*
X0328783Y0071900D01*
X0328414Y0071747D01*
X0328033Y0071628D01*
X0327939Y0071551D01*
X0327827Y0071504D01*
X0327545Y0071222D01*
X0312939Y0059051D01*
X0312827Y0059004D01*
X0312545Y0058722D01*
X0312238Y0058466D01*
X0312182Y0058359D01*
X0312096Y0058273D01*
X0311943Y0057904D01*
X0311758Y0057550D01*
X0311747Y0057429D01*
X0311700Y0057317D01*
X0311700Y0056918D01*
X0311664Y0056520D01*
X0311700Y0056404D01*
X0311700Y0051791D01*
X0311248Y0051339D01*
X0310700Y0050016D01*
X0310700Y0048584D01*
X0311248Y0047261D01*
X0312261Y0046248D01*
X0313584Y0045700D01*
X0315016Y0045700D01*
X0316339Y0046248D01*
X0317352Y0047261D01*
X0311160Y0047473D02*
X0307440Y0047473D01*
X0307352Y0047261D02*
X0307900Y0048584D01*
X0307900Y0050016D01*
X0307352Y0051339D01*
X0306900Y0051791D01*
X0306900Y0056013D01*
X0310691Y0061700D01*
X0314817Y0061700D01*
X0315773Y0062096D01*
X0319377Y0065700D01*
X0320016Y0065700D01*
X0321339Y0066248D01*
X0322352Y0067261D01*
X0322900Y0068584D01*
X0322900Y0070016D01*
X0322352Y0071339D01*
X0321700Y0071991D01*
X0321700Y0096609D01*
X0322352Y0097261D01*
X0322900Y0098584D01*
X0322900Y0100016D01*
X0322352Y0101339D01*
X0321700Y0101991D01*
X0321700Y0126609D01*
X0322352Y0127261D01*
X0322900Y0128584D01*
X0322900Y0130016D01*
X0322352Y0131339D01*
X0321700Y0131991D01*
X0321700Y0156609D01*
X0322352Y0157261D01*
X0322900Y0158584D01*
X0322900Y0160016D01*
X0322352Y0161339D01*
X0321339Y0162352D01*
X0320016Y0162900D01*
X0318584Y0162900D01*
X0317261Y0162352D01*
X0316248Y0161339D01*
X0315700Y0160016D01*
X0315700Y0158584D01*
X0316248Y0157261D01*
X0316900Y0156609D01*
X0316900Y0131991D01*
X0316248Y0131339D01*
X0315700Y0130016D01*
X0315700Y0128584D01*
X0316248Y0127261D01*
X0316900Y0126609D01*
X0316900Y0101991D01*
X0316248Y0101339D01*
X0315700Y0100016D01*
X0315700Y0098584D01*
X0316248Y0097261D01*
X0316900Y0096609D01*
X0316900Y0071991D01*
X0316248Y0071339D01*
X0315700Y0070016D01*
X0315700Y0069377D01*
X0313223Y0066900D01*
X0309555Y0066900D01*
X0309297Y0066951D01*
X0309043Y0066900D01*
X0308783Y0066900D01*
X0308540Y0066800D01*
X0308283Y0066748D01*
X0308067Y0066604D01*
X0307827Y0066504D01*
X0307642Y0066319D01*
X0307424Y0066173D01*
X0307279Y0065956D01*
X0307096Y0065773D01*
X0306995Y0065530D01*
X0302279Y0058456D01*
X0302096Y0058273D01*
X0301995Y0058030D01*
X0301850Y0057812D01*
X0301799Y0057557D01*
X0301700Y0057317D01*
X0301700Y0057055D01*
X0301649Y0056797D01*
X0301700Y0056543D01*
X0301700Y0051791D01*
X0301248Y0051339D01*
X0300700Y0050016D01*
X0300700Y0048584D01*
X0301248Y0047261D01*
X0302261Y0046248D01*
X0303584Y0045700D01*
X0305016Y0045700D01*
X0306339Y0046248D01*
X0307352Y0047261D01*
X0307900Y0049872D02*
X0310700Y0049872D01*
X0311700Y0052270D02*
X0306900Y0052270D01*
X0306900Y0054669D02*
X0311700Y0054669D01*
X0311700Y0057067D02*
X0307603Y0057067D01*
X0309202Y0059466D02*
X0313438Y0059466D01*
X0315214Y0061864D02*
X0316316Y0061864D01*
X0321560Y0059466D02*
X0323289Y0059466D01*
X0324438Y0061864D02*
X0325687Y0061864D01*
X0327317Y0064263D02*
X0328452Y0064263D01*
X0330195Y0066661D02*
X0336848Y0066661D01*
X0341752Y0066661D02*
X0345484Y0066661D01*
X0347883Y0069060D02*
X0342900Y0069060D01*
X0342233Y0071458D02*
X0350281Y0071458D01*
X0356900Y0073857D02*
X0341700Y0073857D01*
X0341700Y0076255D02*
X0356900Y0076255D01*
X0356900Y0078654D02*
X0341700Y0078654D01*
X0341700Y0081052D02*
X0356900Y0081052D01*
X0356900Y0083451D02*
X0341700Y0083451D01*
X0341700Y0085849D02*
X0356900Y0085849D01*
X0356900Y0088248D02*
X0341700Y0088248D01*
X0341700Y0090646D02*
X0356900Y0090646D01*
X0356900Y0093045D02*
X0341700Y0093045D01*
X0341700Y0095443D02*
X0356900Y0095443D01*
X0356007Y0097842D02*
X0342593Y0097842D01*
X0342807Y0100240D02*
X0355793Y0100240D01*
X0356900Y0102639D02*
X0341700Y0102639D01*
X0341700Y0105037D02*
X0356900Y0105037D01*
X0361700Y0105037D02*
X0374490Y0105037D01*
X0374226Y0104051D02*
X0374226Y0101399D01*
X0374913Y0098837D01*
X0376239Y0096540D01*
X0378114Y0094664D01*
X0380412Y0093338D01*
X0382974Y0092651D01*
X0385626Y0092651D01*
X0388188Y0093338D01*
X0390486Y0094664D01*
X0392361Y0096540D01*
X0393687Y0098837D01*
X0394374Y0101399D01*
X0394374Y0104051D01*
X0393687Y0106614D01*
X0392361Y0108911D01*
X0390486Y0110786D01*
X0388188Y0112113D01*
X0385626Y0112799D01*
X0382974Y0112799D01*
X0380412Y0112113D01*
X0378114Y0110786D01*
X0376239Y0108911D01*
X0374913Y0106614D01*
X0374226Y0104051D01*
X0374226Y0102639D02*
X0361700Y0102639D01*
X0362807Y0100240D02*
X0374536Y0100240D01*
X0375487Y0097842D02*
X0362593Y0097842D01*
X0361700Y0095443D02*
X0377335Y0095443D01*
X0381504Y0093045D02*
X0361700Y0093045D01*
X0336900Y0093045D02*
X0321700Y0093045D01*
X0321700Y0095443D02*
X0336900Y0095443D01*
X0336007Y0097842D02*
X0322593Y0097842D01*
X0322807Y0100240D02*
X0335793Y0100240D01*
X0336900Y0102639D02*
X0321700Y0102639D01*
X0321700Y0105037D02*
X0336900Y0105037D01*
X0336900Y0107436D02*
X0321700Y0107436D01*
X0321700Y0109834D02*
X0336900Y0109834D01*
X0336900Y0112233D02*
X0321700Y0112233D01*
X0321700Y0114632D02*
X0336900Y0114632D01*
X0336900Y0117030D02*
X0321700Y0117030D01*
X0321700Y0119429D02*
X0336900Y0119429D01*
X0336900Y0121827D02*
X0321700Y0121827D01*
X0316900Y0121827D02*
X0301700Y0121827D01*
X0301700Y0119429D02*
X0316900Y0119429D01*
X0316900Y0117030D02*
X0301700Y0117030D01*
X0301700Y0114632D02*
X0316900Y0114632D01*
X0316900Y0112233D02*
X0301700Y0112233D01*
X0301700Y0109834D02*
X0316900Y0109834D01*
X0316900Y0107436D02*
X0301700Y0107436D01*
X0296900Y0107436D02*
X0281700Y0107436D01*
X0281700Y0109834D02*
X0296900Y0109834D01*
X0296900Y0112233D02*
X0281700Y0112233D01*
X0281700Y0114632D02*
X0296900Y0114632D01*
X0296900Y0117030D02*
X0281700Y0117030D01*
X0281700Y0119429D02*
X0296900Y0119429D01*
X0296900Y0121827D02*
X0281700Y0121827D01*
X0281700Y0124226D02*
X0296900Y0124226D01*
X0296900Y0126609D02*
X0296900Y0101991D01*
X0296248Y0101339D01*
X0295700Y0100016D01*
X0295700Y0098584D01*
X0296248Y0097261D01*
X0296900Y0096609D01*
X0296900Y0071991D01*
X0296248Y0071339D01*
X0295700Y0070016D01*
X0295700Y0068584D01*
X0296248Y0067261D01*
X0296700Y0066809D01*
X0296700Y0062877D01*
X0292096Y0058273D01*
X0291700Y0057317D01*
X0291700Y0051791D01*
X0291248Y0051339D01*
X0290700Y0050016D01*
X0290700Y0048584D01*
X0291248Y0047261D01*
X0292261Y0046248D01*
X0293584Y0045700D01*
X0295016Y0045700D01*
X0296339Y0046248D01*
X0297352Y0047261D01*
X0297900Y0048584D01*
X0297900Y0050016D01*
X0297352Y0051339D01*
X0296900Y0051791D01*
X0296900Y0055723D01*
X0300773Y0059596D01*
X0301504Y0060327D01*
X0301900Y0061283D01*
X0301900Y0066809D01*
X0302352Y0067261D01*
X0302900Y0068584D01*
X0302900Y0070016D01*
X0302352Y0071339D01*
X0301700Y0071991D01*
X0301700Y0096609D01*
X0302352Y0097261D01*
X0302900Y0098584D01*
X0302900Y0100016D01*
X0302352Y0101339D01*
X0301700Y0101991D01*
X0301700Y0126609D01*
X0302352Y0127261D01*
X0302900Y0128584D01*
X0302900Y0130016D01*
X0302352Y0131339D01*
X0301700Y0131991D01*
X0301700Y0156609D01*
X0302352Y0157261D01*
X0302900Y0158584D01*
X0302900Y0160016D01*
X0302352Y0161339D01*
X0301339Y0162352D01*
X0300016Y0162900D01*
X0298584Y0162900D01*
X0297261Y0162352D01*
X0296248Y0161339D01*
X0295700Y0160016D01*
X0295700Y0158584D01*
X0296248Y0157261D01*
X0296900Y0156609D01*
X0296900Y0131991D01*
X0296248Y0131339D01*
X0295700Y0130016D01*
X0295700Y0128584D01*
X0296248Y0127261D01*
X0296900Y0126609D01*
X0296885Y0126624D02*
X0281715Y0126624D01*
X0281700Y0126609D02*
X0282352Y0127261D01*
X0282900Y0128584D01*
X0282900Y0130016D01*
X0282352Y0131339D01*
X0281700Y0131991D01*
X0281700Y0156609D01*
X0282352Y0157261D01*
X0282900Y0158584D01*
X0282900Y0160016D01*
X0282352Y0161339D01*
X0281339Y0162352D01*
X0280016Y0162900D01*
X0278584Y0162900D01*
X0277261Y0162352D01*
X0276248Y0161339D01*
X0275700Y0160016D01*
X0275700Y0158584D01*
X0276248Y0157261D01*
X0276900Y0156609D01*
X0276900Y0131991D01*
X0276248Y0131339D01*
X0275700Y0130016D01*
X0275700Y0128584D01*
X0276248Y0127261D01*
X0276900Y0126609D01*
X0276900Y0101991D01*
X0276248Y0101339D01*
X0275700Y0100016D01*
X0275700Y0098584D01*
X0276248Y0097261D01*
X0276900Y0096609D01*
X0276900Y0071991D01*
X0276248Y0071339D01*
X0275700Y0070016D01*
X0275700Y0068584D01*
X0276248Y0067261D01*
X0276700Y0066809D01*
X0276700Y0061283D01*
X0277096Y0060327D01*
X0277827Y0059596D01*
X0281700Y0055723D01*
X0281700Y0051791D01*
X0281248Y0051339D01*
X0280700Y0050016D01*
X0280700Y0048584D01*
X0281248Y0047261D01*
X0282261Y0046248D01*
X0283584Y0045700D01*
X0285016Y0045700D01*
X0286339Y0046248D01*
X0287352Y0047261D01*
X0287900Y0048584D01*
X0287900Y0050016D01*
X0287352Y0051339D01*
X0286900Y0051791D01*
X0286900Y0057317D01*
X0286504Y0058273D01*
X0281900Y0062877D01*
X0281900Y0066809D01*
X0282352Y0067261D01*
X0282900Y0068584D01*
X0282900Y0070016D01*
X0282352Y0071339D01*
X0281700Y0071991D01*
X0281700Y0096609D01*
X0282352Y0097261D01*
X0282900Y0098584D01*
X0282900Y0100016D01*
X0282352Y0101339D01*
X0281700Y0101991D01*
X0281700Y0126609D01*
X0282900Y0129023D02*
X0295700Y0129023D01*
X0296330Y0131421D02*
X0282270Y0131421D01*
X0281700Y0133820D02*
X0296900Y0133820D01*
X0296900Y0136218D02*
X0281700Y0136218D01*
X0281700Y0138617D02*
X0296900Y0138617D01*
X0296900Y0141015D02*
X0281700Y0141015D01*
X0281700Y0143414D02*
X0296900Y0143414D01*
X0296900Y0145812D02*
X0281700Y0145812D01*
X0281700Y0148211D02*
X0296900Y0148211D01*
X0296900Y0150609D02*
X0281700Y0150609D01*
X0281700Y0153008D02*
X0296900Y0153008D01*
X0296900Y0155406D02*
X0281700Y0155406D01*
X0282577Y0157805D02*
X0296023Y0157805D01*
X0295778Y0160203D02*
X0282822Y0160203D01*
X0280736Y0162602D02*
X0297864Y0162602D01*
X0300736Y0162602D02*
X0317864Y0162602D01*
X0320736Y0162602D02*
X0337864Y0162602D01*
X0340736Y0162602D02*
X0357864Y0162602D01*
X0360736Y0162602D02*
X0376955Y0162602D01*
X0376815Y0162263D02*
X0376815Y0160353D01*
X0377546Y0158589D01*
X0378896Y0157239D01*
X0380660Y0156508D01*
X0388570Y0156508D01*
X0390334Y0157239D01*
X0391684Y0158589D01*
X0392415Y0160353D01*
X0392415Y0162263D01*
X0391684Y0164027D01*
X0390334Y0165377D01*
X0388570Y0166108D01*
X0380660Y0166108D01*
X0378896Y0165377D01*
X0377546Y0164027D01*
X0376815Y0162263D01*
X0376877Y0160203D02*
X0362822Y0160203D01*
X0362577Y0157805D02*
X0378330Y0157805D01*
X0378966Y0155406D02*
X0361700Y0155406D01*
X0361700Y0153008D02*
X0377124Y0153008D01*
X0376815Y0152263D02*
X0377546Y0154027D01*
X0378896Y0155377D01*
X0380660Y0156108D01*
X0388570Y0156108D01*
X0390334Y0155377D01*
X0391684Y0154027D01*
X0392415Y0152263D01*
X0392415Y0150353D01*
X0391684Y0148589D01*
X0390334Y0147239D01*
X0388570Y0146508D01*
X0380660Y0146508D01*
X0378896Y0147239D01*
X0377546Y0148589D01*
X0376815Y0150353D01*
X0376815Y0152263D01*
X0376815Y0150609D02*
X0361700Y0150609D01*
X0361700Y0148211D02*
X0377924Y0148211D01*
X0378896Y0145377D02*
X0377546Y0144027D01*
X0376815Y0142263D01*
X0376815Y0140353D01*
X0377546Y0138589D01*
X0378896Y0137239D01*
X0380660Y0136508D01*
X0388570Y0136508D01*
X0390334Y0137239D01*
X0391684Y0138589D01*
X0392415Y0140353D01*
X0392415Y0142263D01*
X0391684Y0144027D01*
X0390334Y0145377D01*
X0388570Y0146108D01*
X0380660Y0146108D01*
X0378896Y0145377D01*
X0379946Y0145812D02*
X0361700Y0145812D01*
X0361700Y0143414D02*
X0377292Y0143414D01*
X0376815Y0141015D02*
X0361700Y0141015D01*
X0361700Y0138617D02*
X0377534Y0138617D01*
X0378896Y0135377D02*
X0377546Y0134027D01*
X0376815Y0132263D01*
X0376815Y0130353D01*
X0377546Y0128589D01*
X0378896Y0127239D01*
X0380660Y0126508D01*
X0388570Y0126508D01*
X0390334Y0127239D01*
X0391684Y0128589D01*
X0392415Y0130353D01*
X0392415Y0132263D01*
X0391684Y0134027D01*
X0390334Y0135377D01*
X0388570Y0136108D01*
X0380660Y0136108D01*
X0378896Y0135377D01*
X0377460Y0133820D02*
X0361700Y0133820D01*
X0361700Y0136218D02*
X0395801Y0136218D01*
X0395801Y0133820D02*
X0391770Y0133820D01*
X0392415Y0131421D02*
X0395801Y0131421D01*
X0395801Y0129023D02*
X0391864Y0129023D01*
X0388850Y0126624D02*
X0395801Y0126624D01*
X0395801Y0124226D02*
X0391485Y0124226D01*
X0391684Y0124027D02*
X0390334Y0125377D01*
X0388570Y0126108D01*
X0380660Y0126108D01*
X0378896Y0125377D01*
X0377546Y0124027D01*
X0376815Y0122263D01*
X0376815Y0120353D01*
X0377546Y0118589D01*
X0378896Y0117239D01*
X0380660Y0116508D01*
X0388570Y0116508D01*
X0390334Y0117239D01*
X0391684Y0118589D01*
X0392415Y0120353D01*
X0392415Y0122263D01*
X0391684Y0124027D01*
X0392415Y0121827D02*
X0395801Y0121827D01*
X0395801Y0119429D02*
X0392032Y0119429D01*
X0389830Y0117030D02*
X0395801Y0117030D01*
X0395801Y0114632D02*
X0361700Y0114632D01*
X0361700Y0117030D02*
X0379400Y0117030D01*
X0377198Y0119429D02*
X0361700Y0119429D01*
X0361700Y0121827D02*
X0376815Y0121827D01*
X0377744Y0124226D02*
X0361700Y0124226D01*
X0361715Y0126624D02*
X0380380Y0126624D01*
X0377366Y0129023D02*
X0362900Y0129023D01*
X0362270Y0131421D02*
X0376815Y0131421D01*
X0391696Y0138617D02*
X0395801Y0138617D01*
X0395801Y0141015D02*
X0392415Y0141015D01*
X0391938Y0143414D02*
X0395801Y0143414D01*
X0395801Y0145812D02*
X0389284Y0145812D01*
X0391306Y0148211D02*
X0395801Y0148211D01*
X0395801Y0150609D02*
X0392415Y0150609D01*
X0392106Y0153008D02*
X0395801Y0153008D01*
X0395801Y0155406D02*
X0390264Y0155406D01*
X0390900Y0157805D02*
X0395801Y0157805D01*
X0395801Y0160203D02*
X0392353Y0160203D01*
X0392274Y0162602D02*
X0395801Y0162602D01*
X0395801Y0165000D02*
X0390711Y0165000D01*
X0395801Y0167399D02*
X0236900Y0167399D01*
X0236900Y0169797D02*
X0378244Y0169797D01*
X0378481Y0169734D02*
X0382088Y0169734D01*
X0385572Y0170667D01*
X0388696Y0172471D01*
X0391247Y0175022D01*
X0393051Y0178146D01*
X0393984Y0181630D01*
X0393984Y0185237D01*
X0393051Y0188722D01*
X0391247Y0191846D01*
X0388696Y0194397D01*
X0385572Y0196200D01*
X0382088Y0197134D01*
X0378481Y0197134D01*
X0374996Y0196200D01*
X0371872Y0194397D01*
X0369322Y0191846D01*
X0367518Y0188722D01*
X0366584Y0185237D01*
X0366584Y0181630D01*
X0367518Y0178146D01*
X0369322Y0175022D01*
X0371872Y0172471D01*
X0374996Y0170667D01*
X0378481Y0169734D01*
X0382325Y0169797D02*
X0395801Y0169797D01*
X0395801Y0172196D02*
X0388219Y0172196D01*
X0390819Y0174594D02*
X0395801Y0174594D01*
X0395801Y0176993D02*
X0392385Y0176993D01*
X0393384Y0179391D02*
X0395801Y0179391D01*
X0395801Y0181790D02*
X0393984Y0181790D01*
X0393984Y0184188D02*
X0395801Y0184188D01*
X0395723Y0186587D02*
X0393623Y0186587D01*
X0392898Y0188985D02*
X0395199Y0188985D01*
X0394309Y0191384D02*
X0391514Y0191384D01*
X0392869Y0193782D02*
X0389310Y0193782D01*
X0390448Y0196181D02*
X0385606Y0196181D01*
X0384973Y0198579D02*
X0017328Y0198579D01*
X0011853Y0196181D02*
X0225827Y0196181D01*
X0229300Y0196181D02*
X0229300Y0196181D01*
X0232773Y0196181D02*
X0235827Y0196181D01*
X0239300Y0196181D02*
X0239300Y0196181D01*
X0242773Y0196181D02*
X0245827Y0196181D01*
X0249300Y0196181D02*
X0249300Y0196181D01*
X0252773Y0196181D02*
X0255827Y0196181D01*
X0259300Y0196181D02*
X0259300Y0196181D01*
X0262773Y0196181D02*
X0374963Y0196181D01*
X0371258Y0193782D02*
X0264286Y0193782D01*
X0264500Y0191384D02*
X0369055Y0191384D01*
X0367670Y0188985D02*
X0264500Y0188985D01*
X0264500Y0186587D02*
X0366946Y0186587D01*
X0366584Y0184188D02*
X0264060Y0184188D01*
X0261902Y0181790D02*
X0366584Y0181790D01*
X0367184Y0179391D02*
X0237900Y0179391D01*
X0237084Y0176993D02*
X0368184Y0176993D01*
X0369749Y0174594D02*
X0236900Y0174594D01*
X0236900Y0172196D02*
X0372349Y0172196D01*
X0378519Y0165000D02*
X0236900Y0165000D01*
X0236900Y0162602D02*
X0237864Y0162602D01*
X0240736Y0162602D02*
X0257864Y0162602D01*
X0257261Y0162352D02*
X0258584Y0162900D01*
X0260016Y0162900D01*
X0261339Y0162352D01*
X0262352Y0161339D01*
X0262900Y0160016D01*
X0262900Y0158584D01*
X0262352Y0157261D01*
X0261700Y0156609D01*
X0261700Y0131991D01*
X0262352Y0131339D01*
X0262900Y0130016D01*
X0262900Y0128584D01*
X0262352Y0127261D01*
X0261700Y0126609D01*
X0261700Y0101991D01*
X0262352Y0101339D01*
X0262900Y0100016D01*
X0262900Y0098584D01*
X0262352Y0097261D01*
X0261700Y0096609D01*
X0261700Y0071991D01*
X0262352Y0071339D01*
X0262900Y0070016D01*
X0262900Y0069377D01*
X0271504Y0060773D01*
X0271900Y0059817D01*
X0271900Y0055377D01*
X0274377Y0052900D01*
X0275016Y0052900D01*
X0276339Y0052352D01*
X0277352Y0051339D01*
X0277900Y0050016D01*
X0277900Y0048584D01*
X0277352Y0047261D01*
X0276339Y0046248D01*
X0275016Y0045700D01*
X0273584Y0045700D01*
X0272261Y0046248D01*
X0271248Y0047261D01*
X0270700Y0048584D01*
X0270700Y0049223D01*
X0267827Y0052096D01*
X0267096Y0052827D01*
X0266700Y0053783D01*
X0266700Y0058223D01*
X0259223Y0065700D01*
X0258584Y0065700D01*
X0257261Y0066248D01*
X0256248Y0067261D01*
X0255700Y0068584D01*
X0255700Y0070016D01*
X0256248Y0071339D01*
X0256900Y0071991D01*
X0256900Y0096609D01*
X0256248Y0097261D01*
X0255700Y0098584D01*
X0255700Y0100016D01*
X0256248Y0101339D01*
X0256900Y0101991D01*
X0256900Y0126609D01*
X0256248Y0127261D01*
X0255700Y0128584D01*
X0255700Y0130016D01*
X0256248Y0131339D01*
X0256900Y0131991D01*
X0256900Y0156609D01*
X0256248Y0157261D01*
X0255700Y0158584D01*
X0255700Y0160016D01*
X0256248Y0161339D01*
X0257261Y0162352D01*
X0255778Y0160203D02*
X0242822Y0160203D01*
X0242577Y0157805D02*
X0256023Y0157805D01*
X0256900Y0155406D02*
X0241700Y0155406D01*
X0241700Y0153008D02*
X0256900Y0153008D01*
X0256900Y0150609D02*
X0241700Y0150609D01*
X0241700Y0148211D02*
X0256900Y0148211D01*
X0256900Y0145812D02*
X0241700Y0145812D01*
X0241700Y0143414D02*
X0256900Y0143414D01*
X0256900Y0141015D02*
X0241700Y0141015D01*
X0241700Y0138617D02*
X0256900Y0138617D01*
X0256900Y0136218D02*
X0241700Y0136218D01*
X0241700Y0133820D02*
X0256900Y0133820D01*
X0256330Y0131421D02*
X0242270Y0131421D01*
X0242900Y0129023D02*
X0255700Y0129023D01*
X0256885Y0126624D02*
X0241900Y0126624D01*
X0241900Y0124226D02*
X0256900Y0124226D01*
X0256900Y0121827D02*
X0241900Y0121827D01*
X0241900Y0119429D02*
X0256900Y0119429D01*
X0256900Y0117030D02*
X0241900Y0117030D01*
X0241900Y0114632D02*
X0256900Y0114632D01*
X0256900Y0112233D02*
X0241900Y0112233D01*
X0241900Y0109834D02*
X0256900Y0109834D01*
X0256900Y0107436D02*
X0241900Y0107436D01*
X0241900Y0105037D02*
X0256900Y0105037D01*
X0256900Y0102639D02*
X0241900Y0102639D01*
X0242807Y0100240D02*
X0255793Y0100240D01*
X0256007Y0097842D02*
X0242593Y0097842D01*
X0241700Y0095443D02*
X0256900Y0095443D01*
X0256900Y0093045D02*
X0241700Y0093045D01*
X0241700Y0090646D02*
X0256900Y0090646D01*
X0256900Y0088248D02*
X0241700Y0088248D01*
X0241700Y0085849D02*
X0256900Y0085849D01*
X0256900Y0083451D02*
X0241700Y0083451D01*
X0241700Y0081052D02*
X0256900Y0081052D01*
X0256900Y0078654D02*
X0241700Y0078654D01*
X0241700Y0076255D02*
X0256900Y0076255D01*
X0256900Y0073857D02*
X0241700Y0073857D01*
X0242233Y0071458D02*
X0256367Y0071458D01*
X0255700Y0069060D02*
X0242900Y0069060D01*
X0241900Y0066661D02*
X0256848Y0066661D01*
X0260660Y0064263D02*
X0241900Y0064263D01*
X0241900Y0061864D02*
X0263059Y0061864D01*
X0265457Y0059466D02*
X0241900Y0059466D01*
X0241900Y0057067D02*
X0266700Y0057067D01*
X0266700Y0054669D02*
X0243434Y0054669D01*
X0248921Y0052270D02*
X0267653Y0052270D01*
X0270051Y0049872D02*
X0250400Y0049872D01*
X0249940Y0047473D02*
X0271160Y0047473D01*
X0277440Y0047473D02*
X0281160Y0047473D01*
X0280700Y0049872D02*
X0277900Y0049872D01*
X0276421Y0052270D02*
X0281700Y0052270D01*
X0281700Y0054669D02*
X0272608Y0054669D01*
X0271900Y0057067D02*
X0280356Y0057067D01*
X0277957Y0059466D02*
X0271900Y0059466D01*
X0270413Y0061864D02*
X0276700Y0061864D01*
X0276700Y0064263D02*
X0268014Y0064263D01*
X0265616Y0066661D02*
X0276700Y0066661D01*
X0275700Y0069060D02*
X0263217Y0069060D01*
X0262233Y0071458D02*
X0276367Y0071458D01*
X0276900Y0073857D02*
X0261700Y0073857D01*
X0261700Y0076255D02*
X0276900Y0076255D01*
X0276900Y0078654D02*
X0261700Y0078654D01*
X0261700Y0081052D02*
X0276900Y0081052D01*
X0276900Y0083451D02*
X0261700Y0083451D01*
X0261700Y0085849D02*
X0276900Y0085849D01*
X0276900Y0088248D02*
X0261700Y0088248D01*
X0261700Y0090646D02*
X0276900Y0090646D01*
X0276900Y0093045D02*
X0261700Y0093045D01*
X0261700Y0095443D02*
X0276900Y0095443D01*
X0276007Y0097842D02*
X0262593Y0097842D01*
X0262807Y0100240D02*
X0275793Y0100240D01*
X0276900Y0102639D02*
X0261700Y0102639D01*
X0261700Y0105037D02*
X0276900Y0105037D01*
X0276900Y0107436D02*
X0261700Y0107436D01*
X0261700Y0109834D02*
X0276900Y0109834D01*
X0276900Y0112233D02*
X0261700Y0112233D01*
X0261700Y0114632D02*
X0276900Y0114632D01*
X0276900Y0117030D02*
X0261700Y0117030D01*
X0261700Y0119429D02*
X0276900Y0119429D01*
X0276900Y0121827D02*
X0261700Y0121827D01*
X0261700Y0124226D02*
X0276900Y0124226D01*
X0276885Y0126624D02*
X0261715Y0126624D01*
X0262900Y0129023D02*
X0275700Y0129023D01*
X0276330Y0131421D02*
X0262270Y0131421D01*
X0261700Y0133820D02*
X0276900Y0133820D01*
X0276900Y0136218D02*
X0261700Y0136218D01*
X0261700Y0138617D02*
X0276900Y0138617D01*
X0276900Y0141015D02*
X0261700Y0141015D01*
X0261700Y0143414D02*
X0276900Y0143414D01*
X0276900Y0145812D02*
X0261700Y0145812D01*
X0261700Y0148211D02*
X0276900Y0148211D01*
X0276900Y0150609D02*
X0261700Y0150609D01*
X0261700Y0153008D02*
X0276900Y0153008D01*
X0276900Y0155406D02*
X0261700Y0155406D01*
X0262577Y0157805D02*
X0276023Y0157805D01*
X0275778Y0160203D02*
X0262822Y0160203D01*
X0260736Y0162602D02*
X0277864Y0162602D01*
X0301700Y0155406D02*
X0316900Y0155406D01*
X0316900Y0153008D02*
X0301700Y0153008D01*
X0301700Y0150609D02*
X0316900Y0150609D01*
X0316900Y0148211D02*
X0301700Y0148211D01*
X0301700Y0145812D02*
X0316900Y0145812D01*
X0316900Y0143414D02*
X0301700Y0143414D01*
X0301700Y0141015D02*
X0316900Y0141015D01*
X0316900Y0138617D02*
X0301700Y0138617D01*
X0301700Y0136218D02*
X0316900Y0136218D01*
X0316900Y0133820D02*
X0301700Y0133820D01*
X0302270Y0131421D02*
X0316330Y0131421D01*
X0315700Y0129023D02*
X0302900Y0129023D01*
X0301715Y0126624D02*
X0316885Y0126624D01*
X0316900Y0124226D02*
X0301700Y0124226D01*
X0321700Y0124226D02*
X0336900Y0124226D01*
X0336885Y0126624D02*
X0321715Y0126624D01*
X0322900Y0129023D02*
X0335700Y0129023D01*
X0336330Y0131421D02*
X0322270Y0131421D01*
X0321700Y0133820D02*
X0336900Y0133820D01*
X0336900Y0136218D02*
X0321700Y0136218D01*
X0321700Y0138617D02*
X0336900Y0138617D01*
X0336900Y0141015D02*
X0321700Y0141015D01*
X0321700Y0143414D02*
X0336900Y0143414D01*
X0336900Y0145812D02*
X0321700Y0145812D01*
X0321700Y0148211D02*
X0336900Y0148211D01*
X0336900Y0150609D02*
X0321700Y0150609D01*
X0321700Y0153008D02*
X0336900Y0153008D01*
X0336900Y0155406D02*
X0321700Y0155406D01*
X0322577Y0157805D02*
X0336023Y0157805D01*
X0335778Y0160203D02*
X0322822Y0160203D01*
X0315778Y0160203D02*
X0302822Y0160203D01*
X0302577Y0157805D02*
X0316023Y0157805D01*
X0341700Y0155406D02*
X0356900Y0155406D01*
X0356900Y0153008D02*
X0341700Y0153008D01*
X0341700Y0150609D02*
X0356900Y0150609D01*
X0356900Y0148211D02*
X0341700Y0148211D01*
X0341700Y0145812D02*
X0356900Y0145812D01*
X0356900Y0143414D02*
X0341700Y0143414D01*
X0341700Y0141015D02*
X0356900Y0141015D01*
X0356900Y0138617D02*
X0341700Y0138617D01*
X0341700Y0136218D02*
X0356900Y0136218D01*
X0356900Y0133820D02*
X0341700Y0133820D01*
X0342270Y0131421D02*
X0356330Y0131421D01*
X0355700Y0129023D02*
X0342900Y0129023D01*
X0341715Y0126624D02*
X0356885Y0126624D01*
X0356900Y0124226D02*
X0341700Y0124226D01*
X0341700Y0121827D02*
X0356900Y0121827D01*
X0356900Y0119429D02*
X0341700Y0119429D01*
X0341700Y0117030D02*
X0356900Y0117030D01*
X0356900Y0114632D02*
X0341700Y0114632D01*
X0341700Y0112233D02*
X0356900Y0112233D01*
X0356900Y0109834D02*
X0341700Y0109834D01*
X0341700Y0107436D02*
X0356900Y0107436D01*
X0361700Y0107436D02*
X0375387Y0107436D01*
X0377162Y0109834D02*
X0361700Y0109834D01*
X0361700Y0112233D02*
X0380861Y0112233D01*
X0387739Y0112233D02*
X0395801Y0112233D01*
X0395801Y0109834D02*
X0391437Y0109834D01*
X0393213Y0107436D02*
X0395801Y0107436D01*
X0395801Y0105037D02*
X0394110Y0105037D01*
X0394374Y0102639D02*
X0395801Y0102639D01*
X0395801Y0100240D02*
X0394064Y0100240D01*
X0393113Y0097842D02*
X0395801Y0097842D01*
X0395801Y0095443D02*
X0391265Y0095443D01*
X0387096Y0093045D02*
X0395801Y0093045D01*
X0336900Y0090646D02*
X0321700Y0090646D01*
X0321700Y0088248D02*
X0336900Y0088248D01*
X0336900Y0085849D02*
X0321700Y0085849D01*
X0321700Y0083451D02*
X0336900Y0083451D01*
X0336900Y0081052D02*
X0321700Y0081052D01*
X0321700Y0078654D02*
X0336900Y0078654D01*
X0336900Y0076255D02*
X0321700Y0076255D01*
X0321700Y0073857D02*
X0336900Y0073857D01*
X0327781Y0071458D02*
X0322233Y0071458D01*
X0322900Y0069060D02*
X0324950Y0069060D01*
X0322072Y0066661D02*
X0321752Y0066661D01*
X0319194Y0064263D02*
X0317940Y0064263D01*
X0315383Y0069060D02*
X0302900Y0069060D01*
X0302233Y0071458D02*
X0316367Y0071458D01*
X0316900Y0073857D02*
X0301700Y0073857D01*
X0301700Y0076255D02*
X0316900Y0076255D01*
X0316900Y0078654D02*
X0301700Y0078654D01*
X0301700Y0081052D02*
X0316900Y0081052D01*
X0316900Y0083451D02*
X0301700Y0083451D01*
X0301700Y0085849D02*
X0316900Y0085849D01*
X0316900Y0088248D02*
X0301700Y0088248D01*
X0301700Y0090646D02*
X0316900Y0090646D01*
X0316900Y0093045D02*
X0301700Y0093045D01*
X0301700Y0095443D02*
X0316900Y0095443D01*
X0316007Y0097842D02*
X0302593Y0097842D01*
X0302807Y0100240D02*
X0315793Y0100240D01*
X0316900Y0102639D02*
X0301700Y0102639D01*
X0301700Y0105037D02*
X0316900Y0105037D01*
X0296900Y0105037D02*
X0281700Y0105037D01*
X0281700Y0102639D02*
X0296900Y0102639D01*
X0295793Y0100240D02*
X0282807Y0100240D01*
X0282593Y0097842D02*
X0296007Y0097842D01*
X0296900Y0095443D02*
X0281700Y0095443D01*
X0281700Y0093045D02*
X0296900Y0093045D01*
X0296900Y0090646D02*
X0281700Y0090646D01*
X0281700Y0088248D02*
X0296900Y0088248D01*
X0296900Y0085849D02*
X0281700Y0085849D01*
X0281700Y0083451D02*
X0296900Y0083451D01*
X0296900Y0081052D02*
X0281700Y0081052D01*
X0281700Y0078654D02*
X0296900Y0078654D01*
X0296900Y0076255D02*
X0281700Y0076255D01*
X0281700Y0073857D02*
X0296900Y0073857D01*
X0296367Y0071458D02*
X0282233Y0071458D01*
X0282900Y0069060D02*
X0295700Y0069060D01*
X0296700Y0066661D02*
X0281900Y0066661D01*
X0281900Y0064263D02*
X0296700Y0064263D01*
X0295687Y0061864D02*
X0282913Y0061864D01*
X0285311Y0059466D02*
X0293289Y0059466D01*
X0291700Y0057067D02*
X0286900Y0057067D01*
X0286900Y0054669D02*
X0291700Y0054669D01*
X0291700Y0052270D02*
X0286900Y0052270D01*
X0287900Y0049872D02*
X0290700Y0049872D01*
X0296900Y0052270D02*
X0301700Y0052270D01*
X0301700Y0054669D02*
X0296900Y0054669D01*
X0298244Y0057067D02*
X0301700Y0057067D01*
X0300643Y0059466D02*
X0302952Y0059466D01*
X0301900Y0061864D02*
X0304551Y0061864D01*
X0306150Y0064263D02*
X0301900Y0064263D01*
X0301900Y0066661D02*
X0308153Y0066661D01*
X0318682Y0057067D02*
X0321700Y0057067D01*
X0321700Y0054669D02*
X0316900Y0054669D01*
X0316900Y0052270D02*
X0321700Y0052270D01*
X0320700Y0049872D02*
X0317900Y0049872D01*
X0301160Y0047473D02*
X0297440Y0047473D01*
X0291160Y0047473D02*
X0287440Y0047473D01*
X0297900Y0049872D02*
X0300700Y0049872D01*
X0236700Y0066661D02*
X0224252Y0066661D01*
X0225400Y0069060D02*
X0235700Y0069060D01*
X0236367Y0071458D02*
X0224733Y0071458D01*
X0222428Y0073857D02*
X0236900Y0073857D01*
X0236900Y0076255D02*
X0221900Y0076255D01*
X0203866Y0093045D02*
X0189400Y0093045D01*
X0189400Y0095443D02*
X0202048Y0095443D01*
X0184200Y0095443D02*
X0152700Y0095443D01*
X0152700Y0097842D02*
X0184200Y0097842D01*
X0184200Y0100240D02*
X0152700Y0100240D01*
X0152700Y0102639D02*
X0184200Y0102639D01*
X0184200Y0105037D02*
X0152700Y0105037D01*
X0145900Y0105037D02*
X0130716Y0105037D01*
X0130716Y0102639D02*
X0145900Y0102639D01*
X0145900Y0100240D02*
X0130716Y0100240D01*
X0130716Y0097842D02*
X0145900Y0097842D01*
X0145900Y0095443D02*
X0130716Y0095443D01*
X0130716Y0093045D02*
X0145900Y0093045D01*
X0152863Y0093045D02*
X0184200Y0093045D01*
X0184200Y0090646D02*
X0155262Y0090646D01*
X0157660Y0088248D02*
X0184200Y0088248D01*
X0184200Y0085849D02*
X0160059Y0085849D01*
X0162655Y0083451D02*
X0184200Y0083451D01*
X0183629Y0081052D02*
X0165579Y0081052D01*
X0165962Y0078654D02*
X0183200Y0078654D01*
X0150442Y0085849D02*
X0130199Y0085849D01*
X0131897Y0088248D02*
X0148044Y0088248D01*
X0146098Y0090646D02*
X0131487Y0090646D01*
X0125916Y0093045D02*
X0115568Y0093045D01*
X0115568Y0095443D02*
X0125916Y0095443D01*
X0125916Y0097842D02*
X0115568Y0097842D01*
X0115568Y0100240D02*
X0125916Y0100240D01*
X0125916Y0102639D02*
X0115568Y0102639D01*
X0115568Y0105037D02*
X0125916Y0105037D01*
X0109568Y0095443D02*
X0094200Y0095443D01*
X0094200Y0093045D02*
X0109568Y0093045D01*
X0106800Y0095600D02*
X0106800Y0100800D01*
X0106800Y0100800D01*
X0106800Y0100800D01*
X0103100Y0100800D01*
X0103100Y0104090D01*
X0103250Y0104649D01*
X0103540Y0105151D01*
X0103949Y0105560D01*
X0104451Y0105850D01*
X0105010Y0106000D01*
X0106800Y0106000D01*
X0106800Y0100800D01*
X0103100Y0100800D01*
X0103100Y0097510D01*
X0103250Y0096951D01*
X0103540Y0096449D01*
X0103949Y0096040D01*
X0104451Y0095750D01*
X0105010Y0095600D01*
X0106800Y0095600D01*
X0106800Y0097842D02*
X0106800Y0097842D01*
X0106800Y0100240D02*
X0106800Y0100240D01*
X0106800Y0102639D02*
X0106800Y0102639D01*
X0106800Y0105037D02*
X0106800Y0105037D01*
X0103474Y0105037D02*
X0094608Y0105037D01*
X0095100Y0102639D02*
X0103100Y0102639D01*
X0103100Y0100240D02*
X0095100Y0100240D01*
X0095100Y0097842D02*
X0103100Y0097842D01*
X0089400Y0090646D02*
X0082639Y0090646D01*
X0082761Y0088248D02*
X0089400Y0088248D01*
X0089400Y0085849D02*
X0081700Y0085849D01*
X0081700Y0083451D02*
X0089400Y0083451D01*
X0089400Y0081052D02*
X0081700Y0081052D01*
X0081700Y0078654D02*
X0089400Y0078654D01*
X0089400Y0076255D02*
X0081700Y0076255D01*
X0081700Y0073857D02*
X0089400Y0073857D01*
X0089400Y0071458D02*
X0081700Y0071458D01*
X0081700Y0069060D02*
X0089400Y0069060D01*
X0089400Y0066661D02*
X0081700Y0066661D01*
X0081700Y0064263D02*
X0088369Y0064263D01*
X0094200Y0069060D02*
X0109311Y0069060D01*
X0109538Y0068747D02*
X0110117Y0068168D01*
X0110779Y0067687D01*
X0111509Y0067316D01*
X0112287Y0067063D01*
X0113095Y0066935D01*
X0116505Y0066935D01*
X0116505Y0072135D01*
X0116505Y0072135D01*
X0108305Y0072135D01*
X0108305Y0071725D01*
X0108433Y0070917D01*
X0108686Y0070139D01*
X0109057Y0069409D01*
X0109538Y0068747D01*
X0108347Y0071458D02*
X0094200Y0071458D01*
X0094200Y0073857D02*
X0108597Y0073857D01*
X0110330Y0076255D02*
X0094200Y0076255D01*
X0076900Y0076255D02*
X0074642Y0076255D01*
X0076900Y0073857D02*
X0061900Y0073857D01*
X0061900Y0076255D02*
X0068958Y0076255D01*
X0067638Y0078654D02*
X0061900Y0078654D01*
X0061900Y0081052D02*
X0068021Y0081052D01*
X0068400Y0083451D02*
X0061900Y0083451D01*
X0061900Y0085849D02*
X0068400Y0085849D01*
X0068400Y0088248D02*
X0061514Y0088248D01*
X0058848Y0090646D02*
X0068400Y0090646D01*
X0075200Y0090646D02*
X0075961Y0090646D01*
X0075839Y0088248D02*
X0075200Y0088248D01*
X0075200Y0085849D02*
X0076900Y0085849D01*
X0076900Y0083451D02*
X0075200Y0083451D01*
X0075579Y0081052D02*
X0076900Y0081052D01*
X0076900Y0078654D02*
X0075962Y0078654D01*
X0076900Y0071458D02*
X0062233Y0071458D01*
X0062900Y0069060D02*
X0076900Y0069060D01*
X0076900Y0066661D02*
X0061752Y0066661D01*
X0056848Y0066661D02*
X0054400Y0066661D01*
X0054400Y0069060D02*
X0055700Y0069060D01*
X0056367Y0071458D02*
X0054400Y0071458D01*
X0054400Y0073857D02*
X0056700Y0073857D01*
X0056700Y0076255D02*
X0054400Y0076255D01*
X0049200Y0076255D02*
X0006500Y0076255D01*
X0006500Y0073857D02*
X0049200Y0073857D01*
X0049200Y0071458D02*
X0006500Y0071458D01*
X0006500Y0069060D02*
X0049200Y0069060D01*
X0049200Y0066661D02*
X0006500Y0066661D01*
X0006500Y0064263D02*
X0048896Y0064263D01*
X0054704Y0064263D02*
X0076900Y0064263D01*
X0056700Y0078654D02*
X0054400Y0078654D01*
X0054400Y0081052D02*
X0056700Y0081052D01*
X0056700Y0083451D02*
X0055324Y0083451D01*
X0055034Y0085849D02*
X0056700Y0085849D01*
X0054458Y0088248D02*
X0051246Y0088248D01*
X0052059Y0090646D02*
X0048848Y0090646D01*
X0044458Y0088248D02*
X0006500Y0088248D01*
X0006500Y0090646D02*
X0042059Y0090646D01*
X0039661Y0093045D02*
X0006500Y0093045D01*
X0006500Y0095443D02*
X0037262Y0095443D01*
X0034864Y0097842D02*
X0006500Y0097842D01*
X0006500Y0100240D02*
X0034400Y0100240D01*
X0034400Y0102639D02*
X0006500Y0102639D01*
X0006500Y0105037D02*
X0034400Y0105037D01*
X0039200Y0105037D02*
X0039400Y0105037D01*
X0039200Y0102639D02*
X0040067Y0102639D01*
X0039254Y0100240D02*
X0042465Y0100240D01*
X0041652Y0097842D02*
X0044864Y0097842D01*
X0044051Y0095443D02*
X0047262Y0095443D01*
X0046449Y0093045D02*
X0049661Y0093045D01*
X0054051Y0095443D02*
X0068400Y0095443D01*
X0068400Y0093045D02*
X0056449Y0093045D01*
X0051652Y0097842D02*
X0068400Y0097842D01*
X0068400Y0100240D02*
X0049254Y0100240D01*
X0046855Y0102639D02*
X0052933Y0102639D01*
X0053070Y0102308D02*
X0054308Y0101070D01*
X0055925Y0100400D01*
X0057675Y0100400D01*
X0059292Y0101070D01*
X0060530Y0102308D01*
X0061200Y0103925D01*
X0061200Y0105675D01*
X0060530Y0107292D01*
X0059292Y0108530D01*
X0057675Y0109200D01*
X0055925Y0109200D01*
X0054308Y0108530D01*
X0053070Y0107292D01*
X0052400Y0105675D01*
X0052400Y0103925D01*
X0053070Y0102308D01*
X0052400Y0105037D02*
X0044457Y0105037D01*
X0044200Y0107436D02*
X0053213Y0107436D01*
X0060387Y0107436D02*
X0068400Y0107436D01*
X0068400Y0109834D02*
X0044200Y0109834D01*
X0044200Y0112233D02*
X0068400Y0112233D01*
X0068400Y0114632D02*
X0044200Y0114632D01*
X0044200Y0117030D02*
X0068400Y0117030D01*
X0068400Y0119429D02*
X0057744Y0119429D01*
X0057675Y0119400D02*
X0059292Y0120070D01*
X0060530Y0121308D01*
X0061200Y0122925D01*
X0061200Y0124675D01*
X0060530Y0126292D01*
X0059292Y0127530D01*
X0057675Y0128200D01*
X0055925Y0128200D01*
X0054308Y0127530D01*
X0053070Y0126292D01*
X0052400Y0124675D01*
X0052400Y0122925D01*
X0053070Y0121308D01*
X0054308Y0120070D01*
X0055925Y0119400D01*
X0057675Y0119400D01*
X0055856Y0119429D02*
X0044200Y0119429D01*
X0044200Y0121827D02*
X0052855Y0121827D01*
X0052400Y0124226D02*
X0044200Y0124226D01*
X0044200Y0126624D02*
X0053402Y0126624D01*
X0060198Y0126624D02*
X0068400Y0126624D01*
X0068400Y0124226D02*
X0061200Y0124226D01*
X0060745Y0121827D02*
X0068400Y0121827D01*
X0079200Y0121827D02*
X0084400Y0121827D01*
X0084400Y0119429D02*
X0079200Y0119429D01*
X0079200Y0117030D02*
X0084400Y0117030D01*
X0084400Y0114632D02*
X0079200Y0114632D01*
X0079200Y0112233D02*
X0084400Y0112233D01*
X0084400Y0109834D02*
X0080381Y0109834D01*
X0079904Y0107436D02*
X0084400Y0107436D01*
X0084400Y0105037D02*
X0075200Y0105037D01*
X0075200Y0102639D02*
X0084400Y0102639D01*
X0084400Y0100240D02*
X0075200Y0100240D01*
X0075200Y0097842D02*
X0084400Y0097842D01*
X0083377Y0095443D02*
X0075200Y0095443D01*
X0075200Y0093045D02*
X0083423Y0093045D01*
X0068400Y0102639D02*
X0060667Y0102639D01*
X0061200Y0105037D02*
X0068400Y0105037D01*
X0039400Y0107436D02*
X0039200Y0107436D01*
X0039200Y0109834D02*
X0039400Y0109834D01*
X0039400Y0112233D02*
X0039200Y0112233D01*
X0039200Y0114632D02*
X0039400Y0114632D01*
X0039400Y0117030D02*
X0039200Y0117030D01*
X0039200Y0119429D02*
X0039400Y0119429D01*
X0039400Y0121827D02*
X0039200Y0121827D01*
X0034400Y0121827D02*
X0006500Y0121827D01*
X0006500Y0119429D02*
X0034400Y0119429D01*
X0034400Y0117030D02*
X0006500Y0117030D01*
X0006500Y0114632D02*
X0034400Y0114632D01*
X0034400Y0112233D02*
X0006500Y0112233D01*
X0006500Y0109834D02*
X0034400Y0109834D01*
X0034400Y0107436D02*
X0006500Y0107436D01*
X0006500Y0124226D02*
X0034400Y0124226D01*
X0034400Y0126624D02*
X0006500Y0126624D01*
X0006500Y0129023D02*
X0034400Y0129023D01*
X0034400Y0131421D02*
X0031486Y0131421D01*
X0032881Y0133820D02*
X0034400Y0133820D01*
X0034400Y0136218D02*
X0032491Y0136218D01*
X0039200Y0136218D02*
X0039400Y0136218D01*
X0039400Y0133820D02*
X0039200Y0133820D01*
X0039200Y0131421D02*
X0039400Y0131421D01*
X0039400Y0129023D02*
X0039200Y0129023D01*
X0039200Y0126624D02*
X0039400Y0126624D01*
X0039400Y0124226D02*
X0039200Y0124226D01*
X0044200Y0129023D02*
X0068400Y0129023D01*
X0068400Y0131421D02*
X0044200Y0131421D01*
X0044200Y0133820D02*
X0068400Y0133820D01*
X0068400Y0136218D02*
X0044200Y0136218D01*
X0044200Y0138617D02*
X0068400Y0138617D01*
X0068400Y0141015D02*
X0044200Y0141015D01*
X0044200Y0143414D02*
X0068400Y0143414D01*
X0068400Y0145812D02*
X0044200Y0145812D01*
X0044200Y0148211D02*
X0068400Y0148211D01*
X0068400Y0150609D02*
X0044200Y0150609D01*
X0039400Y0150609D02*
X0039200Y0150609D01*
X0039200Y0148211D02*
X0039400Y0148211D01*
X0039400Y0145812D02*
X0039200Y0145812D01*
X0039200Y0143414D02*
X0039400Y0143414D01*
X0039400Y0141015D02*
X0039200Y0141015D01*
X0039200Y0138617D02*
X0039400Y0138617D01*
X0034400Y0138617D02*
X0032491Y0138617D01*
X0032491Y0141015D02*
X0034400Y0141015D01*
X0034400Y0143414D02*
X0032491Y0143414D01*
X0032491Y0145812D02*
X0034400Y0145812D01*
X0034400Y0148211D02*
X0032491Y0148211D01*
X0032440Y0150609D02*
X0034400Y0150609D01*
X0032198Y0153008D02*
X0030529Y0153008D01*
X0039189Y0157805D02*
X0068400Y0157805D01*
X0068400Y0160203D02*
X0036791Y0160203D01*
X0041588Y0155406D02*
X0068400Y0155406D01*
X0068400Y0153008D02*
X0043897Y0153008D01*
X0028738Y0162602D02*
X0068400Y0162602D01*
X0068400Y0165000D02*
X0029138Y0165000D01*
X0029138Y0164930D02*
X0027712Y0164930D01*
X0027712Y0164930D01*
X0029138Y0164930D01*
X0028368Y0167399D02*
X0068400Y0167399D01*
X0068400Y0169797D02*
X0028240Y0169797D01*
X0029311Y0172196D02*
X0068400Y0172196D01*
X0068400Y0174594D02*
X0029350Y0174594D01*
X0029350Y0172804D02*
X0024773Y0172804D01*
X0024773Y0172804D01*
X0029350Y0172804D01*
X0024772Y0174594D02*
X0024772Y0174594D01*
X0024772Y0176993D02*
X0024772Y0176993D01*
X0024772Y0179391D02*
X0024772Y0179391D01*
X0028977Y0179391D02*
X0067638Y0179391D01*
X0068251Y0176993D02*
X0029350Y0176993D01*
X0013749Y0179391D02*
X0013749Y0179391D01*
X0009374Y0173985D02*
X0009374Y0173985D01*
X0009374Y0173985D01*
X0006628Y0174594D02*
X0006500Y0174594D01*
X0006500Y0172196D02*
X0006628Y0172196D01*
X0006628Y0169797D02*
X0006500Y0169797D01*
X0006500Y0167399D02*
X0007381Y0167399D01*
X0007218Y0165000D02*
X0006500Y0165000D01*
X0007218Y0162764D02*
X0007218Y0160506D01*
X0007368Y0159947D01*
X0007446Y0159812D01*
X0007368Y0159677D01*
X0007218Y0159117D01*
X0007218Y0156859D01*
X0013355Y0156859D01*
X0013355Y0156859D01*
X0013355Y0156859D01*
X0013355Y0158596D01*
X0013355Y0162764D01*
X0007218Y0162764D01*
X0007218Y0162602D02*
X0006500Y0162602D01*
X0006500Y0160203D02*
X0007299Y0160203D01*
X0007218Y0157805D02*
X0006500Y0157805D01*
X0006500Y0155406D02*
X0007218Y0155406D01*
X0006500Y0153008D02*
X0008279Y0153008D01*
X0013355Y0156859D02*
X0013355Y0156859D01*
X0019492Y0156859D01*
X0019492Y0155288D01*
X0019823Y0155425D01*
X0019823Y0162860D01*
X0019573Y0163293D01*
X0019492Y0163594D01*
X0019492Y0162765D01*
X0013355Y0162765D01*
X0013355Y0162764D01*
X0019492Y0162764D01*
X0019492Y0160506D01*
X0019342Y0159947D01*
X0019264Y0159812D01*
X0019342Y0159677D01*
X0019492Y0159117D01*
X0019492Y0156859D01*
X0013355Y0156859D01*
X0013355Y0157805D02*
X0013355Y0157805D01*
X0013355Y0160203D02*
X0013355Y0160203D01*
X0013355Y0162602D02*
X0013355Y0162602D01*
X0019492Y0162602D02*
X0019823Y0162602D01*
X0019823Y0160203D02*
X0019411Y0160203D01*
X0019492Y0157805D02*
X0019823Y0157805D01*
X0019778Y0155406D02*
X0019492Y0155406D01*
X0006628Y0150609D02*
X0006500Y0150609D01*
X0006500Y0148211D02*
X0006628Y0148211D01*
X0006628Y0145812D02*
X0006500Y0145812D01*
X0006500Y0143414D02*
X0006628Y0143414D01*
X0006628Y0141015D02*
X0006500Y0141015D01*
X0006500Y0138617D02*
X0008167Y0138617D01*
X0013749Y0138617D02*
X0013749Y0138617D01*
X0013749Y0138517D02*
X0013749Y0142257D01*
X0013749Y0142257D01*
X0013749Y0138517D01*
X0013749Y0141015D02*
X0013749Y0141015D01*
X0019330Y0138617D02*
X0021745Y0138617D01*
X0024772Y0138617D02*
X0024772Y0138617D01*
X0024772Y0141015D02*
X0024772Y0141015D01*
X0024772Y0143414D02*
X0024772Y0143414D01*
X0024772Y0145812D02*
X0024772Y0145812D01*
X0026218Y0136218D02*
X0006500Y0136218D01*
X0006500Y0133820D02*
X0025719Y0133820D01*
X0027114Y0131421D02*
X0006500Y0131421D01*
X0075200Y0141015D02*
X0078022Y0141015D01*
X0078022Y0143414D02*
X0075200Y0143414D01*
X0075200Y0145812D02*
X0078022Y0145812D01*
X0078022Y0148211D02*
X0075200Y0148211D01*
X0075200Y0150609D02*
X0078022Y0150609D01*
X0082822Y0150609D02*
X0084400Y0150609D01*
X0084400Y0148211D02*
X0082822Y0148211D01*
X0082822Y0145812D02*
X0084400Y0145812D01*
X0084400Y0143414D02*
X0082822Y0143414D01*
X0082822Y0141015D02*
X0084400Y0141015D01*
X0084400Y0138617D02*
X0082822Y0138617D01*
X0082822Y0136218D02*
X0084400Y0136218D01*
X0084400Y0129023D02*
X0084087Y0129023D01*
X0084400Y0126624D02*
X0079200Y0126624D01*
X0079200Y0124226D02*
X0084400Y0124226D01*
X0079513Y0129023D02*
X0079200Y0129023D01*
X0078022Y0153008D02*
X0075200Y0153008D01*
X0075200Y0155406D02*
X0078022Y0155406D01*
X0078022Y0157805D02*
X0075200Y0157805D01*
X0075200Y0160203D02*
X0078022Y0160203D01*
X0078022Y0162602D02*
X0075200Y0162602D01*
X0075200Y0165000D02*
X0078022Y0165000D01*
X0082822Y0165000D02*
X0084400Y0165000D01*
X0084400Y0162602D02*
X0082822Y0162602D01*
X0082822Y0160203D02*
X0084400Y0160203D01*
X0084400Y0157805D02*
X0082822Y0157805D01*
X0082822Y0155406D02*
X0084400Y0155406D01*
X0084400Y0153008D02*
X0082822Y0153008D01*
X0126368Y0162602D02*
X0130264Y0162602D01*
X0130326Y0162539D02*
X0134179Y0162539D01*
X0135234Y0163594D01*
X0135234Y0169022D01*
X0134179Y0170076D01*
X0130326Y0170076D01*
X0129272Y0169022D01*
X0129272Y0163594D01*
X0130326Y0162539D01*
X0131573Y0160203D02*
X0145900Y0160203D01*
X0145900Y0157805D02*
X0132287Y0157805D01*
X0134242Y0162602D02*
X0145900Y0162602D01*
X0145900Y0165000D02*
X0135234Y0165000D01*
X0129272Y0165000D02*
X0127360Y0165000D01*
X0127360Y0167399D02*
X0129272Y0167399D01*
X0130047Y0169797D02*
X0126585Y0169797D01*
X0134459Y0169797D02*
X0145624Y0169797D01*
X0145900Y0167399D02*
X0135234Y0167399D01*
X0152700Y0167399D02*
X0194200Y0167399D01*
X0194200Y0169797D02*
X0184867Y0169797D01*
X0185400Y0172196D02*
X0194200Y0172196D01*
X0194200Y0174594D02*
X0184097Y0174594D01*
X0179503Y0174594D02*
X0152392Y0174594D01*
X0159233Y0165000D02*
X0192387Y0165000D01*
X0194420Y0160203D02*
X0201700Y0160203D01*
X0201700Y0162602D02*
X0198779Y0162602D01*
X0199400Y0165000D02*
X0201700Y0165000D01*
X0201700Y0167399D02*
X0199400Y0167399D01*
X0199400Y0169797D02*
X0201700Y0169797D01*
X0201313Y0172196D02*
X0199400Y0172196D01*
X0199400Y0174594D02*
X0200700Y0174594D01*
X0201902Y0176993D02*
X0199400Y0176993D01*
X0199400Y0179391D02*
X0212903Y0179391D01*
X0211304Y0176993D02*
X0206698Y0176993D01*
X0207900Y0174594D02*
X0209705Y0174594D01*
X0208106Y0172196D02*
X0207287Y0172196D01*
X0212756Y0169797D02*
X0231700Y0169797D01*
X0231700Y0167399D02*
X0211900Y0167399D01*
X0211900Y0165000D02*
X0231700Y0165000D01*
X0231700Y0162602D02*
X0212865Y0162602D01*
X0212535Y0160203D02*
X0231700Y0160203D01*
X0231700Y0157805D02*
X0217746Y0157805D01*
X0215854Y0157805D02*
X0207780Y0157805D01*
X0207619Y0155406D02*
X0213362Y0155406D01*
X0213439Y0153008D02*
X0159400Y0153008D01*
X0159400Y0155406D02*
X0200981Y0155406D01*
X0200820Y0157805D02*
X0160209Y0157805D01*
X0154395Y0157805D02*
X0152700Y0157805D01*
X0152700Y0160203D02*
X0154785Y0160203D01*
X0154200Y0155406D02*
X0152700Y0155406D01*
X0152700Y0153008D02*
X0154200Y0153008D01*
X0154200Y0150609D02*
X0152700Y0150609D01*
X0152700Y0148211D02*
X0154200Y0148211D01*
X0154200Y0145812D02*
X0152700Y0145812D01*
X0152700Y0143414D02*
X0154353Y0143414D01*
X0152700Y0141015D02*
X0156408Y0141015D01*
X0158806Y0138617D02*
X0152700Y0138617D01*
X0159400Y0145812D02*
X0160813Y0145812D01*
X0162787Y0145812D02*
X0163530Y0145812D01*
X0163271Y0143414D02*
X0161363Y0143414D01*
X0163762Y0141015D02*
X0165323Y0141015D01*
X0166160Y0138617D02*
X0168200Y0138617D01*
X0168277Y0141015D02*
X0168614Y0141015D01*
X0206665Y0131421D02*
X0206959Y0131421D01*
X0208164Y0129023D02*
X0208758Y0129023D01*
X0209663Y0126624D02*
X0219385Y0126624D01*
X0224215Y0126624D02*
X0229391Y0126624D01*
X0230990Y0129023D02*
X0225400Y0129023D01*
X0224770Y0131421D02*
X0231700Y0131421D01*
X0231700Y0133820D02*
X0211660Y0133820D01*
X0209861Y0136218D02*
X0231700Y0136218D01*
X0231700Y0138617D02*
X0216022Y0138617D01*
X0217871Y0141015D02*
X0231700Y0141015D01*
X0231700Y0143414D02*
X0223032Y0143414D01*
X0220568Y0143414D02*
X0217528Y0143414D01*
X0225287Y0145812D02*
X0231700Y0145812D01*
X0231700Y0148211D02*
X0225112Y0148211D01*
X0231700Y0150609D02*
X0211094Y0150609D01*
X0212578Y0138617D02*
X0208063Y0138617D01*
X0211163Y0124226D02*
X0214134Y0124226D01*
X0213200Y0121827D02*
X0212662Y0121827D01*
X0215660Y0117030D02*
X0219439Y0117030D01*
X0224161Y0117030D02*
X0236700Y0117030D01*
X0236700Y0114632D02*
X0225400Y0114632D01*
X0224824Y0112233D02*
X0236700Y0112233D01*
X0236700Y0109834D02*
X0214440Y0109834D01*
X0215639Y0107436D02*
X0236700Y0107436D01*
X0236700Y0119429D02*
X0230431Y0119429D01*
X0232443Y0121827D02*
X0236700Y0121827D01*
X0236700Y0124226D02*
X0234042Y0124226D01*
X0235641Y0126624D02*
X0236700Y0126624D01*
X0231700Y0172196D02*
X0214355Y0172196D01*
X0215954Y0174594D02*
X0231700Y0174594D01*
X0231516Y0176993D02*
X0217553Y0176993D01*
X0219152Y0179391D02*
X0230700Y0179391D01*
X0229300Y0181100D02*
X0229300Y0189300D01*
X0224100Y0189300D01*
X0224100Y0185891D01*
X0224228Y0185082D01*
X0224481Y0184304D01*
X0224853Y0183575D01*
X0225334Y0182912D01*
X0225912Y0182334D01*
X0226575Y0181853D01*
X0227304Y0181481D01*
X0228082Y0181228D01*
X0228891Y0181100D01*
X0229300Y0181100D01*
X0229300Y0181790D02*
X0229300Y0181790D01*
X0229300Y0184188D02*
X0229300Y0184188D01*
X0229300Y0186587D02*
X0229300Y0186587D01*
X0229300Y0188985D02*
X0229300Y0188985D01*
X0229300Y0191384D02*
X0229300Y0191384D01*
X0229300Y0193782D02*
X0229300Y0193782D01*
X0234286Y0193782D02*
X0234314Y0193782D01*
X0239300Y0193782D02*
X0239300Y0193782D01*
X0239300Y0191384D02*
X0239300Y0191384D01*
X0239300Y0188985D02*
X0239300Y0188985D01*
X0239300Y0186587D02*
X0239300Y0186587D01*
X0239300Y0184188D02*
X0239300Y0184188D01*
X0239300Y0181790D02*
X0239300Y0181790D01*
X0241902Y0181790D02*
X0246698Y0181790D01*
X0249300Y0181790D02*
X0249300Y0181790D01*
X0249300Y0184188D02*
X0249300Y0184188D01*
X0249300Y0186587D02*
X0249300Y0186587D01*
X0249300Y0188985D02*
X0249300Y0188985D01*
X0249300Y0191384D02*
X0249300Y0191384D01*
X0249300Y0193782D02*
X0249300Y0193782D01*
X0244314Y0193782D02*
X0244286Y0193782D01*
X0254286Y0193782D02*
X0254314Y0193782D01*
X0259300Y0193782D02*
X0259300Y0193782D01*
X0259300Y0191384D02*
X0259300Y0191384D01*
X0259300Y0188985D02*
X0259300Y0188985D01*
X0259300Y0186587D02*
X0259300Y0186587D01*
X0259300Y0184188D02*
X0259300Y0184188D01*
X0259300Y0181790D02*
X0259300Y0181790D01*
X0256698Y0181790D02*
X0251902Y0181790D01*
X0254060Y0184188D02*
X0254540Y0184188D01*
X0244540Y0184188D02*
X0244060Y0184188D01*
X0226698Y0181790D02*
X0221881Y0181790D01*
X0222900Y0184188D02*
X0224540Y0184188D01*
X0224100Y0186587D02*
X0222104Y0186587D01*
X0224100Y0188985D02*
X0214706Y0188985D01*
X0215400Y0186587D02*
X0216496Y0186587D01*
X0342822Y0160203D02*
X0355778Y0160203D01*
X0356023Y0157805D02*
X0342577Y0157805D01*
X0376815Y0045075D02*
X0109419Y0045075D01*
X0111818Y0042676D02*
X0377868Y0042676D01*
X0377600Y0035481D02*
X0126409Y0035481D01*
X0126700Y0033082D02*
X0372050Y0033082D01*
X0369577Y0030684D02*
X0126700Y0030684D01*
X0126700Y0028285D02*
X0368084Y0028285D01*
X0367138Y0025887D02*
X0137502Y0025887D01*
X0137019Y0026369D02*
X0135255Y0027100D01*
X0133345Y0027100D01*
X0131581Y0026369D01*
X0130231Y0025019D01*
X0129500Y0023255D01*
X0129500Y0015345D01*
X0130231Y0013581D01*
X0131581Y0012231D01*
X0133345Y0011500D01*
X0135255Y0011500D01*
X0137019Y0012231D01*
X0138369Y0013581D01*
X0139100Y0015345D01*
X0139100Y0023255D01*
X0138369Y0025019D01*
X0137019Y0026369D01*
X0139003Y0023488D02*
X0366584Y0023488D01*
X0366584Y0021090D02*
X0139100Y0021090D01*
X0139100Y0018691D02*
X0366992Y0018691D01*
X0367770Y0016293D02*
X0139100Y0016293D01*
X0138499Y0013894D02*
X0369154Y0013894D01*
X0385001Y0009097D02*
X0390149Y0009097D01*
X0389138Y0011496D02*
X0392696Y0011496D01*
X0391414Y0013894D02*
X0394210Y0013894D01*
X0395152Y0016293D02*
X0392799Y0016293D01*
X0393576Y0018691D02*
X0395712Y0018691D01*
X0395801Y0021090D02*
X0393984Y0021090D01*
X0393984Y0023488D02*
X0395801Y0023488D01*
X0395801Y0025887D02*
X0393431Y0025887D01*
X0392484Y0028285D02*
X0395801Y0028285D01*
X0395801Y0030684D02*
X0390992Y0030684D01*
X0388518Y0033082D02*
X0395801Y0033082D01*
X0395801Y0035481D02*
X0382968Y0035481D01*
X0395801Y0037879D02*
X0124115Y0037879D01*
X0119725Y0035481D02*
X0106700Y0035481D01*
X0106700Y0037879D02*
X0109827Y0037879D01*
X0107428Y0040278D02*
X0106493Y0040278D01*
X0105030Y0042676D02*
X0104318Y0042676D01*
X0102631Y0045075D02*
X0101919Y0045075D01*
X0097530Y0042676D02*
X0096700Y0042676D01*
X0096700Y0040278D02*
X0099928Y0040278D01*
X0101900Y0037879D02*
X0096700Y0037879D01*
X0096700Y0035481D02*
X0101900Y0035481D01*
X0101900Y0033082D02*
X0096700Y0033082D01*
X0096700Y0030684D02*
X0101900Y0030684D01*
X0101900Y0028285D02*
X0096700Y0028285D01*
X0097502Y0025887D02*
X0101098Y0025887D01*
X0099597Y0023488D02*
X0099003Y0023488D01*
X0099100Y0021090D02*
X0099500Y0021090D01*
X0099500Y0018691D02*
X0099100Y0018691D01*
X0099100Y0016293D02*
X0099500Y0016293D01*
X0100101Y0013894D02*
X0098499Y0013894D01*
X0108499Y0013894D02*
X0109690Y0013894D01*
X0109100Y0016293D02*
X0109100Y0016293D01*
X0114300Y0016293D02*
X0114300Y0016293D01*
X0114300Y0013894D02*
X0114300Y0013894D01*
X0118910Y0013894D02*
X0120101Y0013894D01*
X0119500Y0016293D02*
X0119500Y0016293D01*
X0119500Y0018691D02*
X0119500Y0018691D01*
X0119500Y0021090D02*
X0119500Y0021090D01*
X0119597Y0023488D02*
X0119377Y0023488D01*
X0118067Y0025887D02*
X0121098Y0025887D01*
X0121900Y0028285D02*
X0106700Y0028285D01*
X0106700Y0030684D02*
X0121900Y0030684D01*
X0121900Y0033082D02*
X0106700Y0033082D01*
X0107502Y0025887D02*
X0110533Y0025887D01*
X0109223Y0023488D02*
X0109003Y0023488D01*
X0109100Y0021090D02*
X0109100Y0021090D01*
X0109100Y0018691D02*
X0109100Y0018691D01*
X0114300Y0018691D02*
X0114300Y0018691D01*
X0114300Y0021090D02*
X0114300Y0021090D01*
X0114300Y0023488D02*
X0114300Y0023488D01*
X0114300Y0025887D02*
X0114300Y0025887D01*
X0127502Y0025887D02*
X0131098Y0025887D01*
X0129597Y0023488D02*
X0129003Y0023488D01*
X0129100Y0021090D02*
X0129500Y0021090D01*
X0129500Y0018691D02*
X0129100Y0018691D01*
X0129100Y0016293D02*
X0129500Y0016293D01*
X0130101Y0013894D02*
X0128499Y0013894D01*
X0049319Y0059466D02*
X0006500Y0059466D01*
X0006500Y0061864D02*
X0048200Y0061864D01*
X0026548Y0052270D02*
X0006500Y0052270D01*
X0006500Y0049872D02*
X0024981Y0049872D01*
X0025087Y0047473D02*
X0006500Y0047473D01*
X0006500Y0045075D02*
X0026803Y0045075D01*
X0026360Y0033082D02*
X0006500Y0033082D01*
X0006500Y0030684D02*
X0024903Y0030684D01*
X0025165Y0028285D02*
X0006500Y0028285D01*
X0006500Y0025887D02*
X0027250Y0025887D01*
X0017971Y0006699D02*
X0384329Y0006699D01*
X0116505Y0069060D02*
X0116505Y0069060D01*
X0116505Y0071458D02*
X0116505Y0071458D01*
X0116505Y0073857D02*
X0116505Y0073857D01*
X0116505Y0076255D02*
X0116505Y0076255D01*
X0049200Y0078654D02*
X0006500Y0078654D01*
X0006500Y0081052D02*
X0049200Y0081052D01*
X0048276Y0083451D02*
X0006500Y0083451D01*
X0006500Y0085849D02*
X0046856Y0085849D01*
X0006628Y0176993D02*
X0006500Y0176993D01*
X0006500Y0179391D02*
X0006680Y0179391D01*
D22*
X0035796Y0171623D03*
X0080422Y0190146D03*
X0091406Y0179300D03*
X0099300Y0173394D03*
X0110599Y0189339D03*
X0140127Y0167686D03*
X0155875Y0163749D03*
X0176741Y0188552D03*
X0076800Y0137194D03*
X0081800Y0131800D03*
X0099300Y0131800D03*
X0106800Y0131800D03*
X0122410Y0124379D03*
X0128316Y0136190D03*
X0079891Y0120048D03*
X0076800Y0109300D03*
X0079891Y0105875D03*
X0053906Y0115324D03*
X0029300Y0134300D03*
X0065717Y0089339D03*
X0051800Y0084300D03*
X0044457Y0068080D03*
X0072804Y0068080D03*
X0089300Y0059300D03*
X0089300Y0049300D03*
X0096800Y0049300D03*
X0101800Y0049300D03*
X0086977Y0084615D03*
X0128316Y0088946D03*
X0176800Y0076800D03*
X0194300Y0109300D03*
X0344280Y0178060D03*
X0351229Y0037765D03*
D23*
X0324300Y0049300D02*
X0324300Y0056800D01*
X0329300Y0061800D01*
X0344300Y0061800D01*
X0351800Y0069300D01*
X0359300Y0069300D01*
X0339300Y0069300D02*
X0329300Y0069300D01*
X0314300Y0056800D01*
X0314300Y0049300D01*
X0304300Y0049300D02*
X0304300Y0056800D01*
X0309300Y0064300D01*
X0314300Y0064300D01*
X0319300Y0069300D01*
X0299300Y0069300D02*
X0299300Y0061800D01*
X0294300Y0056800D01*
X0294300Y0049300D01*
X0284300Y0049300D02*
X0284300Y0056800D01*
X0279300Y0061800D01*
X0279300Y0069300D01*
X0269300Y0059300D02*
X0259300Y0069300D01*
X0269300Y0059300D02*
X0269300Y0054300D01*
X0274300Y0049300D01*
X0246800Y0049300D02*
X0239300Y0054300D01*
X0239300Y0069300D01*
X0221800Y0069300D02*
X0219300Y0074300D01*
X0219300Y0076800D01*
X0204300Y0096800D01*
X0204300Y0104300D01*
X0194300Y0119300D01*
X0191800Y0119300D01*
X0186800Y0114300D02*
X0156800Y0144300D01*
X0156800Y0156800D01*
X0159001Y0161202D01*
X0159300Y0161800D01*
X0191800Y0161800D01*
X0196800Y0164300D01*
X0196800Y0184300D01*
X0201800Y0186800D01*
X0211800Y0186800D01*
X0219300Y0184300D02*
X0209300Y0169300D01*
X0209300Y0161800D01*
X0204300Y0156800D02*
X0204300Y0174300D01*
X0181800Y0171800D02*
X0149300Y0171800D01*
X0121426Y0160796D02*
X0119457Y0160796D01*
X0112568Y0167686D01*
X0112568Y0175560D01*
X0108631Y0179497D01*
X0091603Y0179497D01*
X0091406Y0179300D01*
X0107485Y0148985D02*
X0106800Y0148300D01*
X0161800Y0149300D02*
X0206800Y0149300D01*
X0214300Y0146800D01*
X0221800Y0146800D01*
X0214300Y0141800D02*
X0209300Y0141800D01*
X0204300Y0144300D01*
X0166800Y0144300D01*
X0171800Y0139300D02*
X0204300Y0139300D01*
X0211800Y0129300D01*
X0221800Y0129300D01*
X0229300Y0121800D02*
X0234300Y0129300D01*
X0234300Y0154300D01*
X0216800Y0154300D01*
X0234300Y0154300D02*
X0234300Y0179300D01*
X0201800Y0134300D02*
X0176800Y0134300D01*
X0181800Y0129300D02*
X0199300Y0129300D01*
X0211800Y0109300D01*
X0216800Y0099300D01*
X0221800Y0099300D01*
X0209300Y0099300D02*
X0221800Y0084300D01*
X0209300Y0099300D02*
X0209300Y0104300D01*
X0196800Y0124300D01*
X0186800Y0124300D01*
X0186800Y0114300D02*
X0186800Y0079300D01*
X0161800Y0079300D02*
X0161800Y0061800D01*
X0166800Y0056800D01*
X0191800Y0056800D01*
X0239300Y0099300D02*
X0239300Y0129300D01*
X0229300Y0121800D02*
X0216800Y0121800D01*
X0214300Y0114300D02*
X0221800Y0114300D01*
X0214300Y0114300D02*
X0201800Y0134300D01*
X0059300Y0086800D02*
X0059300Y0069300D01*
X0051800Y0062076D02*
X0051800Y0084300D01*
X0029300Y0134300D02*
X0029891Y0134891D01*
X0029891Y0149969D01*
X0025166Y0154694D01*
X0024280Y0154694D01*
X0024280Y0164930D02*
X0024772Y0165422D01*
X0024772Y0172804D01*
D24*
X0071800Y0179300D03*
X0149300Y0171800D03*
X0161800Y0079300D03*
X0071800Y0079300D03*
D25*
X0079300Y0089300D03*
X0086800Y0094300D03*
X0059300Y0069300D03*
X0051800Y0062076D03*
X0181800Y0051800D03*
X0191800Y0056800D03*
X0221800Y0069300D03*
X0239300Y0069300D03*
X0259300Y0069300D03*
X0279300Y0069300D03*
X0299300Y0069300D03*
X0319300Y0069300D03*
X0339300Y0069300D03*
X0359300Y0069300D03*
X0324300Y0049300D03*
X0314300Y0049300D03*
X0304300Y0049300D03*
X0294300Y0049300D03*
X0284300Y0049300D03*
X0274300Y0049300D03*
X0246800Y0049300D03*
X0186800Y0079300D03*
X0221800Y0084300D03*
X0221800Y0099300D03*
X0239300Y0099300D03*
X0259300Y0099300D03*
X0279300Y0099300D03*
X0299300Y0099300D03*
X0319300Y0099300D03*
X0339300Y0099300D03*
X0359300Y0099300D03*
X0359300Y0129300D03*
X0339300Y0129300D03*
X0319300Y0129300D03*
X0299300Y0129300D03*
X0279300Y0129300D03*
X0259300Y0129300D03*
X0239300Y0129300D03*
X0221800Y0129300D03*
X0216800Y0121800D03*
X0221800Y0114300D03*
X0191800Y0119300D03*
X0186800Y0124300D03*
X0181800Y0129300D03*
X0176800Y0134300D03*
X0171800Y0139300D03*
X0166800Y0144300D03*
X0161800Y0149300D03*
X0204300Y0156800D03*
X0209300Y0161800D03*
X0216800Y0154300D03*
X0221800Y0146800D03*
X0214300Y0141800D03*
X0239300Y0159300D03*
X0259300Y0159300D03*
X0279300Y0159300D03*
X0299300Y0159300D03*
X0319300Y0159300D03*
X0339300Y0159300D03*
X0359300Y0159300D03*
X0234300Y0179300D03*
X0219300Y0184300D03*
X0211800Y0186800D03*
X0204300Y0174300D03*
X0181800Y0171800D03*
X0169300Y0189300D03*
D26*
X0149300Y0171800D02*
X0149300Y0091800D01*
X0161800Y0079300D01*
X0071800Y0079300D02*
X0071800Y0179300D01*
D27*
X0086800Y0181800D02*
X0086800Y0094300D01*
X0079300Y0089300D02*
X0079300Y0059300D01*
X0086800Y0054300D01*
X0104300Y0054300D01*
X0109300Y0051800D01*
X0181800Y0051800D01*
X0239300Y0069300D02*
X0239300Y0099300D01*
X0259300Y0099300D02*
X0259300Y0129300D01*
X0259300Y0159300D01*
X0239300Y0159300D02*
X0239300Y0129300D01*
X0279300Y0129300D02*
X0279300Y0099300D01*
X0279300Y0069300D01*
X0259300Y0069300D02*
X0259300Y0099300D01*
X0299300Y0099300D02*
X0299300Y0129300D01*
X0299300Y0159300D01*
X0279300Y0159300D02*
X0279300Y0129300D01*
X0319300Y0129300D02*
X0319300Y0099300D01*
X0319300Y0069300D01*
X0299300Y0069300D02*
X0299300Y0099300D01*
X0339300Y0099300D02*
X0339300Y0129300D01*
X0339300Y0159300D01*
X0319300Y0159300D02*
X0319300Y0129300D01*
X0359300Y0129300D02*
X0359300Y0099300D01*
X0359300Y0069300D01*
X0339300Y0069300D02*
X0339300Y0099300D01*
X0359300Y0129300D02*
X0359300Y0159300D01*
X0169300Y0189300D02*
X0169261Y0189339D01*
X0110599Y0189339D01*
X0130245Y0189300D01*
X0094300Y0189300D01*
X0086800Y0181800D01*
X0091406Y0179300D02*
X0092725Y0174769D01*
X0091800Y0170300D01*
X0091800Y0148300D01*
X0106800Y0148300D02*
X0106800Y0170300D01*
X0106800Y0170363D01*
X0102331Y0171426D01*
X0099300Y0173394D01*
X0080422Y0190146D02*
X0080422Y0135284D01*
X0081800Y0131800D01*
X0076800Y0137194D02*
X0076800Y0109300D01*
X0091800Y0100800D02*
X0091800Y0064300D01*
X0089300Y0061800D01*
X0089300Y0059300D01*
X0089300Y0049300D02*
X0094300Y0044300D01*
X0094300Y0019300D01*
X0104300Y0019300D02*
X0104300Y0039300D01*
X0096800Y0046800D01*
X0096800Y0049300D01*
X0101800Y0049300D02*
X0111800Y0039300D01*
X0119300Y0039300D01*
X0124300Y0034300D01*
X0124300Y0019300D01*
X0051800Y0084300D02*
X0036800Y0099300D01*
X0036800Y0151800D01*
X0031347Y0157253D01*
X0024280Y0157253D01*
X0024280Y0159812D02*
X0033788Y0159812D01*
X0041800Y0151800D01*
X0041800Y0104300D01*
X0059300Y0086800D01*
X0091800Y0100800D02*
X0091800Y0122800D01*
X0095800Y0124300D01*
X0099300Y0126800D01*
X0099300Y0131800D01*
X0106800Y0131800D02*
X0106800Y0148300D01*
X0128316Y0136190D02*
X0128316Y0088946D01*
X0155875Y0162359D02*
X0159001Y0161202D01*
X0155875Y0162359D02*
X0155875Y0163749D01*
M02*
