%
M48
M72
T01C0.02362
T02C0.02400
T03C0.03150
T04C0.03200
T05C0.03600
T06C0.04000
T07C0.04331
T08C0.08661
T09C0.09843
T10C0.15748
%
T01
X406597Y46965
X144668Y58500
X152168Y58500
X157168Y58500
X144668Y68500
X128172Y77280
X99825Y77280
X107168Y93500
X121085Y98539
X142345Y93815
X135258Y115075
X132168Y118500
X135258Y129248
X137168Y141000
X132168Y146000
X154668Y141000
X162168Y141000
X109274Y124524
X92168Y136000
X84668Y143500
X102168Y148500
X232168Y86000
X249668Y118500
X154668Y188500
X147168Y188500
X138152Y196984
X232109Y197752
X399648Y187260
T02
X114668Y78500
X107168Y71276
X134668Y98500
X142168Y103500
X232168Y143500
X237168Y138500
X242168Y133500
X247168Y128500
X272168Y131000
X277168Y123500
X277168Y138500
X294668Y138500
X314668Y138500
X334668Y138500
X354668Y138500
X374668Y138500
X394668Y138500
X414668Y138500
X414668Y166000
X394668Y168500
X374668Y168500
X354668Y168500
X334668Y168500
X314668Y168500
X294668Y168500
X272168Y163500
X277168Y156000
X269668Y151000
X259668Y166000
X264668Y171000
X259668Y183500
X274668Y193500
X267168Y196000
X289668Y188500
X237168Y181000
X224668Y198500
X217168Y158500
X222168Y153500
X227168Y148500
X277168Y108500
X294668Y108500
X314668Y108500
X334668Y108500
X354668Y108500
X374668Y108500
X394668Y108500
X414668Y108500
X414668Y78500
X394668Y78500
X374668Y78500
X354668Y78500
X334668Y78500
X314668Y78500
X294668Y78500
X277168Y78500
X247168Y66000
X237168Y61000
X242168Y88500
X277168Y93500
X302168Y58500
X329668Y58500
X339668Y58500
X349668Y58500
X359668Y58500
X369668Y58500
X379668Y58500
T03
X127168Y188500
X127168Y88500
X217168Y88500
X204668Y181000
T04
X112168Y133000
X112168Y114000
X84668Y58000
X84668Y39000
T05
X80928Y129780
X80928Y120437
X80928Y111563
X80928Y102220
T06
X107168Y183500
X117168Y183500
X117168Y173500
X107168Y173500
X107168Y163500
X117168Y163500
X117168Y153500
X107168Y153500
X174668Y178500
X184668Y178500
X184668Y188500
X174668Y188500
X284668Y198500
X294668Y198500
X304668Y198500
X314668Y198500
X439983Y170508
X439983Y160508
X439983Y150508
X439983Y140508
X439983Y130508
X439983Y94917
X439983Y84917
X439983Y74917
X439983Y64917
X439983Y54917
X189668Y28500
X179668Y28500
X169668Y28500
X159668Y28500
X149668Y28500
T07
X71085Y107142
X71085Y124858
T08
X71479Y138835
X71479Y93165
T09
X434668Y36000
X434668Y193500
T10
X439668Y111925
M30
