G75*
%MOIN*%
%OFA0B0*%
%FSLAX25Y25*%
%IPPOS*%
%LPD*%
%AMOC8*
5,1,8,0,0,1.08239X$1,22.5*
%
%ADD10C,0.00000*%
%ADD11C,0.05200*%
%ADD12C,0.07400*%
%ADD13C,0.12661*%
%ADD14R,0.03000X0.06000*%
%ADD15C,0.06000*%
%ADD16OC8,0.06000*%
%ADD17R,0.05984X0.01496*%
%ADD18C,0.01800*%
%ADD19R,0.07480X0.07480*%
%ADD20C,0.02400*%
%ADD21C,0.03562*%
%ADD22C,0.04724*%
%ADD23C,0.01600*%
%ADD24C,0.03600*%
%ADD25C,0.03200*%
%ADD26C,0.01200*%
D10*
X0059668Y0031528D02*
X0059668Y0185867D01*
X0059675Y0186459D01*
X0059697Y0187050D01*
X0059732Y0187640D01*
X0059782Y0188230D01*
X0059847Y0188818D01*
X0059925Y0189405D01*
X0060017Y0189989D01*
X0060124Y0190571D01*
X0060245Y0191150D01*
X0060379Y0191726D01*
X0060528Y0192299D01*
X0060690Y0192868D01*
X0060866Y0193433D01*
X0061056Y0193993D01*
X0061259Y0194549D01*
X0061475Y0195099D01*
X0061705Y0195645D01*
X0061948Y0196184D01*
X0062204Y0196718D01*
X0062472Y0197245D01*
X0062754Y0197765D01*
X0063047Y0198279D01*
X0063353Y0198785D01*
X0063672Y0199284D01*
X0064002Y0199775D01*
X0064344Y0200258D01*
X0064697Y0200732D01*
X0065062Y0201198D01*
X0065438Y0201655D01*
X0065825Y0202102D01*
X0066223Y0202540D01*
X0066631Y0202969D01*
X0067049Y0203387D01*
X0067478Y0203795D01*
X0067916Y0204193D01*
X0068363Y0204580D01*
X0068820Y0204956D01*
X0069286Y0205321D01*
X0069760Y0205674D01*
X0070243Y0206016D01*
X0070734Y0206346D01*
X0071233Y0206665D01*
X0071739Y0206971D01*
X0072253Y0207264D01*
X0072773Y0207546D01*
X0073300Y0207814D01*
X0073834Y0208070D01*
X0074373Y0208313D01*
X0074919Y0208543D01*
X0075469Y0208759D01*
X0076025Y0208962D01*
X0076585Y0209152D01*
X0077150Y0209328D01*
X0077719Y0209490D01*
X0078292Y0209639D01*
X0078868Y0209773D01*
X0079447Y0209894D01*
X0080029Y0210001D01*
X0080613Y0210093D01*
X0081200Y0210171D01*
X0081788Y0210236D01*
X0082378Y0210286D01*
X0082968Y0210321D01*
X0083559Y0210343D01*
X0084151Y0210350D01*
X0438667Y0210350D01*
X0438667Y0210351D02*
X0439022Y0210347D01*
X0439377Y0210334D01*
X0439732Y0210312D01*
X0440086Y0210282D01*
X0440439Y0210244D01*
X0440791Y0210197D01*
X0441142Y0210141D01*
X0441492Y0210077D01*
X0441839Y0210005D01*
X0442185Y0209924D01*
X0442529Y0209835D01*
X0442871Y0209737D01*
X0443210Y0209631D01*
X0443547Y0209518D01*
X0443880Y0209396D01*
X0444211Y0209266D01*
X0444538Y0209128D01*
X0444862Y0208982D01*
X0445183Y0208828D01*
X0445499Y0208667D01*
X0445812Y0208498D01*
X0446120Y0208322D01*
X0446424Y0208138D01*
X0446724Y0207947D01*
X0447019Y0207749D01*
X0447309Y0207543D01*
X0447594Y0207331D01*
X0447873Y0207112D01*
X0448147Y0206886D01*
X0448416Y0206654D01*
X0448679Y0206415D01*
X0448937Y0206170D01*
X0449188Y0205919D01*
X0449433Y0205661D01*
X0449672Y0205398D01*
X0449904Y0205129D01*
X0450130Y0204855D01*
X0450349Y0204576D01*
X0450561Y0204291D01*
X0450767Y0204001D01*
X0450965Y0203706D01*
X0451156Y0203406D01*
X0451340Y0203102D01*
X0451516Y0202794D01*
X0451685Y0202481D01*
X0451846Y0202165D01*
X0452000Y0201844D01*
X0452146Y0201520D01*
X0452284Y0201193D01*
X0452414Y0200862D01*
X0452536Y0200529D01*
X0452649Y0200192D01*
X0452755Y0199853D01*
X0452853Y0199511D01*
X0452942Y0199167D01*
X0453023Y0198821D01*
X0453095Y0198474D01*
X0453159Y0198124D01*
X0453215Y0197773D01*
X0453262Y0197421D01*
X0453300Y0197068D01*
X0453330Y0196714D01*
X0453352Y0196359D01*
X0453365Y0196004D01*
X0453369Y0195649D01*
X0453369Y0039112D01*
X0429747Y0036000D02*
X0429749Y0036140D01*
X0429755Y0036280D01*
X0429765Y0036419D01*
X0429779Y0036558D01*
X0429797Y0036697D01*
X0429818Y0036835D01*
X0429844Y0036973D01*
X0429874Y0037110D01*
X0429907Y0037245D01*
X0429945Y0037380D01*
X0429986Y0037514D01*
X0430031Y0037647D01*
X0430079Y0037778D01*
X0430132Y0037907D01*
X0430188Y0038036D01*
X0430247Y0038162D01*
X0430311Y0038287D01*
X0430377Y0038410D01*
X0430448Y0038531D01*
X0430521Y0038650D01*
X0430598Y0038767D01*
X0430679Y0038881D01*
X0430762Y0038993D01*
X0430849Y0039103D01*
X0430939Y0039211D01*
X0431031Y0039315D01*
X0431127Y0039417D01*
X0431226Y0039517D01*
X0431327Y0039613D01*
X0431431Y0039707D01*
X0431538Y0039797D01*
X0431647Y0039884D01*
X0431759Y0039969D01*
X0431873Y0040050D01*
X0431989Y0040128D01*
X0432107Y0040202D01*
X0432228Y0040273D01*
X0432350Y0040341D01*
X0432475Y0040405D01*
X0432601Y0040466D01*
X0432728Y0040523D01*
X0432858Y0040576D01*
X0432989Y0040626D01*
X0433121Y0040671D01*
X0433254Y0040714D01*
X0433389Y0040752D01*
X0433524Y0040786D01*
X0433661Y0040817D01*
X0433798Y0040844D01*
X0433936Y0040866D01*
X0434075Y0040885D01*
X0434214Y0040900D01*
X0434353Y0040911D01*
X0434493Y0040918D01*
X0434633Y0040921D01*
X0434773Y0040920D01*
X0434913Y0040915D01*
X0435052Y0040906D01*
X0435192Y0040893D01*
X0435331Y0040876D01*
X0435469Y0040855D01*
X0435607Y0040831D01*
X0435744Y0040802D01*
X0435880Y0040770D01*
X0436015Y0040733D01*
X0436149Y0040693D01*
X0436282Y0040649D01*
X0436413Y0040601D01*
X0436543Y0040550D01*
X0436672Y0040495D01*
X0436799Y0040436D01*
X0436924Y0040373D01*
X0437047Y0040308D01*
X0437169Y0040238D01*
X0437288Y0040165D01*
X0437406Y0040089D01*
X0437521Y0040010D01*
X0437634Y0039927D01*
X0437744Y0039841D01*
X0437852Y0039752D01*
X0437957Y0039660D01*
X0438060Y0039565D01*
X0438160Y0039467D01*
X0438257Y0039367D01*
X0438351Y0039263D01*
X0438443Y0039157D01*
X0438531Y0039049D01*
X0438616Y0038938D01*
X0438698Y0038824D01*
X0438777Y0038708D01*
X0438852Y0038591D01*
X0438924Y0038471D01*
X0438992Y0038349D01*
X0439057Y0038225D01*
X0439119Y0038099D01*
X0439177Y0037972D01*
X0439231Y0037843D01*
X0439282Y0037712D01*
X0439328Y0037580D01*
X0439371Y0037447D01*
X0439411Y0037313D01*
X0439446Y0037178D01*
X0439478Y0037041D01*
X0439505Y0036904D01*
X0439529Y0036766D01*
X0439549Y0036628D01*
X0439565Y0036489D01*
X0439577Y0036349D01*
X0439585Y0036210D01*
X0439589Y0036070D01*
X0439589Y0035930D01*
X0439585Y0035790D01*
X0439577Y0035651D01*
X0439565Y0035511D01*
X0439549Y0035372D01*
X0439529Y0035234D01*
X0439505Y0035096D01*
X0439478Y0034959D01*
X0439446Y0034822D01*
X0439411Y0034687D01*
X0439371Y0034553D01*
X0439328Y0034420D01*
X0439282Y0034288D01*
X0439231Y0034157D01*
X0439177Y0034028D01*
X0439119Y0033901D01*
X0439057Y0033775D01*
X0438992Y0033651D01*
X0438924Y0033529D01*
X0438852Y0033409D01*
X0438777Y0033292D01*
X0438698Y0033176D01*
X0438616Y0033062D01*
X0438531Y0032951D01*
X0438443Y0032843D01*
X0438351Y0032737D01*
X0438257Y0032633D01*
X0438160Y0032533D01*
X0438060Y0032435D01*
X0437957Y0032340D01*
X0437852Y0032248D01*
X0437744Y0032159D01*
X0437634Y0032073D01*
X0437521Y0031990D01*
X0437406Y0031911D01*
X0437288Y0031835D01*
X0437169Y0031762D01*
X0437047Y0031692D01*
X0436924Y0031627D01*
X0436799Y0031564D01*
X0436672Y0031505D01*
X0436543Y0031450D01*
X0436413Y0031399D01*
X0436282Y0031351D01*
X0436149Y0031307D01*
X0436015Y0031267D01*
X0435880Y0031230D01*
X0435744Y0031198D01*
X0435607Y0031169D01*
X0435469Y0031145D01*
X0435331Y0031124D01*
X0435192Y0031107D01*
X0435052Y0031094D01*
X0434913Y0031085D01*
X0434773Y0031080D01*
X0434633Y0031079D01*
X0434493Y0031082D01*
X0434353Y0031089D01*
X0434214Y0031100D01*
X0434075Y0031115D01*
X0433936Y0031134D01*
X0433798Y0031156D01*
X0433661Y0031183D01*
X0433524Y0031214D01*
X0433389Y0031248D01*
X0433254Y0031286D01*
X0433121Y0031329D01*
X0432989Y0031374D01*
X0432858Y0031424D01*
X0432728Y0031477D01*
X0432601Y0031534D01*
X0432475Y0031595D01*
X0432350Y0031659D01*
X0432228Y0031727D01*
X0432107Y0031798D01*
X0431989Y0031872D01*
X0431873Y0031950D01*
X0431759Y0032031D01*
X0431647Y0032116D01*
X0431538Y0032203D01*
X0431431Y0032293D01*
X0431327Y0032387D01*
X0431226Y0032483D01*
X0431127Y0032583D01*
X0431031Y0032685D01*
X0430939Y0032789D01*
X0430849Y0032897D01*
X0430762Y0033007D01*
X0430679Y0033119D01*
X0430598Y0033233D01*
X0430521Y0033350D01*
X0430448Y0033469D01*
X0430377Y0033590D01*
X0430311Y0033713D01*
X0430247Y0033838D01*
X0430188Y0033964D01*
X0430132Y0034093D01*
X0430079Y0034222D01*
X0430031Y0034353D01*
X0429986Y0034486D01*
X0429945Y0034620D01*
X0429907Y0034755D01*
X0429874Y0034890D01*
X0429844Y0035027D01*
X0429818Y0035165D01*
X0429797Y0035303D01*
X0429779Y0035442D01*
X0429765Y0035581D01*
X0429755Y0035720D01*
X0429749Y0035860D01*
X0429747Y0036000D01*
X0427757Y0013500D02*
X0428376Y0013507D01*
X0428994Y0013530D01*
X0429612Y0013567D01*
X0430229Y0013620D01*
X0430844Y0013687D01*
X0431458Y0013769D01*
X0432069Y0013866D01*
X0432678Y0013977D01*
X0433284Y0014103D01*
X0433886Y0014244D01*
X0434485Y0014400D01*
X0435081Y0014569D01*
X0435672Y0014754D01*
X0436258Y0014952D01*
X0436839Y0015164D01*
X0437415Y0015391D01*
X0437986Y0015631D01*
X0438550Y0015885D01*
X0439108Y0016153D01*
X0439659Y0016434D01*
X0440204Y0016728D01*
X0440741Y0017035D01*
X0441271Y0017355D01*
X0441793Y0017688D01*
X0442306Y0018034D01*
X0442811Y0018391D01*
X0443308Y0018761D01*
X0443795Y0019143D01*
X0444273Y0019536D01*
X0444741Y0019941D01*
X0445199Y0020357D01*
X0445647Y0020784D01*
X0446085Y0021222D01*
X0446512Y0021670D01*
X0446928Y0022128D01*
X0447333Y0022596D01*
X0447726Y0023074D01*
X0448108Y0023561D01*
X0448478Y0024058D01*
X0448835Y0024563D01*
X0449181Y0025076D01*
X0449514Y0025598D01*
X0449834Y0026128D01*
X0450141Y0026665D01*
X0450435Y0027210D01*
X0450716Y0027761D01*
X0450984Y0028319D01*
X0451238Y0028883D01*
X0451478Y0029454D01*
X0451705Y0030030D01*
X0451917Y0030611D01*
X0452115Y0031197D01*
X0452300Y0031788D01*
X0452469Y0032384D01*
X0452625Y0032983D01*
X0452766Y0033585D01*
X0452892Y0034191D01*
X0453003Y0034800D01*
X0453100Y0035411D01*
X0453182Y0036025D01*
X0453249Y0036640D01*
X0453302Y0037257D01*
X0453339Y0037875D01*
X0453362Y0038493D01*
X0453369Y0039112D01*
X0427757Y0013500D02*
X0077695Y0013500D01*
X0077259Y0013505D01*
X0076824Y0013521D01*
X0076389Y0013547D01*
X0075955Y0013584D01*
X0075522Y0013631D01*
X0075090Y0013689D01*
X0074660Y0013757D01*
X0074231Y0013836D01*
X0073805Y0013925D01*
X0073381Y0014024D01*
X0072959Y0014133D01*
X0072540Y0014253D01*
X0072124Y0014382D01*
X0071711Y0014522D01*
X0071302Y0014672D01*
X0070897Y0014831D01*
X0070495Y0015000D01*
X0070098Y0015179D01*
X0069705Y0015367D01*
X0069317Y0015565D01*
X0068934Y0015772D01*
X0068556Y0015988D01*
X0068183Y0016214D01*
X0067815Y0016448D01*
X0067454Y0016691D01*
X0067098Y0016943D01*
X0066749Y0017203D01*
X0066406Y0017472D01*
X0066070Y0017749D01*
X0065740Y0018034D01*
X0065418Y0018327D01*
X0065102Y0018627D01*
X0064794Y0018935D01*
X0064494Y0019251D01*
X0064201Y0019573D01*
X0063916Y0019903D01*
X0063639Y0020239D01*
X0063370Y0020582D01*
X0063110Y0020931D01*
X0062858Y0021287D01*
X0062615Y0021648D01*
X0062381Y0022016D01*
X0062155Y0022389D01*
X0061939Y0022767D01*
X0061732Y0023150D01*
X0061534Y0023538D01*
X0061346Y0023931D01*
X0061167Y0024328D01*
X0060998Y0024730D01*
X0060839Y0025135D01*
X0060689Y0025544D01*
X0060549Y0025957D01*
X0060420Y0026373D01*
X0060300Y0026792D01*
X0060191Y0027214D01*
X0060092Y0027638D01*
X0060003Y0028064D01*
X0059924Y0028493D01*
X0059856Y0028923D01*
X0059798Y0029355D01*
X0059751Y0029788D01*
X0059714Y0030222D01*
X0059688Y0030657D01*
X0059672Y0031092D01*
X0059667Y0031528D01*
X0068920Y0107142D02*
X0068922Y0107235D01*
X0068928Y0107327D01*
X0068938Y0107419D01*
X0068952Y0107510D01*
X0068969Y0107601D01*
X0068991Y0107691D01*
X0069016Y0107780D01*
X0069045Y0107868D01*
X0069078Y0107954D01*
X0069115Y0108039D01*
X0069155Y0108123D01*
X0069199Y0108204D01*
X0069246Y0108284D01*
X0069296Y0108362D01*
X0069350Y0108437D01*
X0069407Y0108510D01*
X0069467Y0108580D01*
X0069530Y0108648D01*
X0069596Y0108713D01*
X0069664Y0108775D01*
X0069735Y0108835D01*
X0069809Y0108891D01*
X0069885Y0108944D01*
X0069963Y0108993D01*
X0070043Y0109040D01*
X0070125Y0109082D01*
X0070209Y0109122D01*
X0070294Y0109157D01*
X0070381Y0109189D01*
X0070469Y0109218D01*
X0070558Y0109242D01*
X0070648Y0109263D01*
X0070739Y0109279D01*
X0070831Y0109292D01*
X0070923Y0109301D01*
X0071016Y0109306D01*
X0071108Y0109307D01*
X0071201Y0109304D01*
X0071293Y0109297D01*
X0071385Y0109286D01*
X0071476Y0109271D01*
X0071567Y0109253D01*
X0071657Y0109230D01*
X0071745Y0109204D01*
X0071833Y0109174D01*
X0071919Y0109140D01*
X0072003Y0109103D01*
X0072086Y0109061D01*
X0072167Y0109017D01*
X0072247Y0108969D01*
X0072324Y0108918D01*
X0072398Y0108863D01*
X0072471Y0108805D01*
X0072541Y0108745D01*
X0072608Y0108681D01*
X0072672Y0108615D01*
X0072734Y0108545D01*
X0072792Y0108474D01*
X0072847Y0108400D01*
X0072899Y0108323D01*
X0072948Y0108244D01*
X0072994Y0108164D01*
X0073036Y0108081D01*
X0073074Y0107997D01*
X0073109Y0107911D01*
X0073140Y0107824D01*
X0073167Y0107736D01*
X0073190Y0107646D01*
X0073210Y0107556D01*
X0073226Y0107465D01*
X0073238Y0107373D01*
X0073246Y0107281D01*
X0073250Y0107188D01*
X0073250Y0107096D01*
X0073246Y0107003D01*
X0073238Y0106911D01*
X0073226Y0106819D01*
X0073210Y0106728D01*
X0073190Y0106638D01*
X0073167Y0106548D01*
X0073140Y0106460D01*
X0073109Y0106373D01*
X0073074Y0106287D01*
X0073036Y0106203D01*
X0072994Y0106120D01*
X0072948Y0106040D01*
X0072899Y0105961D01*
X0072847Y0105884D01*
X0072792Y0105810D01*
X0072734Y0105739D01*
X0072672Y0105669D01*
X0072608Y0105603D01*
X0072541Y0105539D01*
X0072471Y0105479D01*
X0072398Y0105421D01*
X0072324Y0105366D01*
X0072247Y0105315D01*
X0072168Y0105267D01*
X0072086Y0105223D01*
X0072003Y0105181D01*
X0071919Y0105144D01*
X0071833Y0105110D01*
X0071745Y0105080D01*
X0071657Y0105054D01*
X0071567Y0105031D01*
X0071476Y0105013D01*
X0071385Y0104998D01*
X0071293Y0104987D01*
X0071201Y0104980D01*
X0071108Y0104977D01*
X0071016Y0104978D01*
X0070923Y0104983D01*
X0070831Y0104992D01*
X0070739Y0105005D01*
X0070648Y0105021D01*
X0070558Y0105042D01*
X0070469Y0105066D01*
X0070381Y0105095D01*
X0070294Y0105127D01*
X0070209Y0105162D01*
X0070125Y0105202D01*
X0070043Y0105244D01*
X0069963Y0105291D01*
X0069885Y0105340D01*
X0069809Y0105393D01*
X0069735Y0105449D01*
X0069664Y0105509D01*
X0069596Y0105571D01*
X0069530Y0105636D01*
X0069467Y0105704D01*
X0069407Y0105774D01*
X0069350Y0105847D01*
X0069296Y0105922D01*
X0069246Y0106000D01*
X0069199Y0106080D01*
X0069155Y0106161D01*
X0069115Y0106245D01*
X0069078Y0106330D01*
X0069045Y0106416D01*
X0069016Y0106504D01*
X0068991Y0106593D01*
X0068969Y0106683D01*
X0068952Y0106774D01*
X0068938Y0106865D01*
X0068928Y0106957D01*
X0068922Y0107049D01*
X0068920Y0107142D01*
X0068920Y0124858D02*
X0068922Y0124951D01*
X0068928Y0125043D01*
X0068938Y0125135D01*
X0068952Y0125226D01*
X0068969Y0125317D01*
X0068991Y0125407D01*
X0069016Y0125496D01*
X0069045Y0125584D01*
X0069078Y0125670D01*
X0069115Y0125755D01*
X0069155Y0125839D01*
X0069199Y0125920D01*
X0069246Y0126000D01*
X0069296Y0126078D01*
X0069350Y0126153D01*
X0069407Y0126226D01*
X0069467Y0126296D01*
X0069530Y0126364D01*
X0069596Y0126429D01*
X0069664Y0126491D01*
X0069735Y0126551D01*
X0069809Y0126607D01*
X0069885Y0126660D01*
X0069963Y0126709D01*
X0070043Y0126756D01*
X0070125Y0126798D01*
X0070209Y0126838D01*
X0070294Y0126873D01*
X0070381Y0126905D01*
X0070469Y0126934D01*
X0070558Y0126958D01*
X0070648Y0126979D01*
X0070739Y0126995D01*
X0070831Y0127008D01*
X0070923Y0127017D01*
X0071016Y0127022D01*
X0071108Y0127023D01*
X0071201Y0127020D01*
X0071293Y0127013D01*
X0071385Y0127002D01*
X0071476Y0126987D01*
X0071567Y0126969D01*
X0071657Y0126946D01*
X0071745Y0126920D01*
X0071833Y0126890D01*
X0071919Y0126856D01*
X0072003Y0126819D01*
X0072086Y0126777D01*
X0072167Y0126733D01*
X0072247Y0126685D01*
X0072324Y0126634D01*
X0072398Y0126579D01*
X0072471Y0126521D01*
X0072541Y0126461D01*
X0072608Y0126397D01*
X0072672Y0126331D01*
X0072734Y0126261D01*
X0072792Y0126190D01*
X0072847Y0126116D01*
X0072899Y0126039D01*
X0072948Y0125960D01*
X0072994Y0125880D01*
X0073036Y0125797D01*
X0073074Y0125713D01*
X0073109Y0125627D01*
X0073140Y0125540D01*
X0073167Y0125452D01*
X0073190Y0125362D01*
X0073210Y0125272D01*
X0073226Y0125181D01*
X0073238Y0125089D01*
X0073246Y0124997D01*
X0073250Y0124904D01*
X0073250Y0124812D01*
X0073246Y0124719D01*
X0073238Y0124627D01*
X0073226Y0124535D01*
X0073210Y0124444D01*
X0073190Y0124354D01*
X0073167Y0124264D01*
X0073140Y0124176D01*
X0073109Y0124089D01*
X0073074Y0124003D01*
X0073036Y0123919D01*
X0072994Y0123836D01*
X0072948Y0123756D01*
X0072899Y0123677D01*
X0072847Y0123600D01*
X0072792Y0123526D01*
X0072734Y0123455D01*
X0072672Y0123385D01*
X0072608Y0123319D01*
X0072541Y0123255D01*
X0072471Y0123195D01*
X0072398Y0123137D01*
X0072324Y0123082D01*
X0072247Y0123031D01*
X0072168Y0122983D01*
X0072086Y0122939D01*
X0072003Y0122897D01*
X0071919Y0122860D01*
X0071833Y0122826D01*
X0071745Y0122796D01*
X0071657Y0122770D01*
X0071567Y0122747D01*
X0071476Y0122729D01*
X0071385Y0122714D01*
X0071293Y0122703D01*
X0071201Y0122696D01*
X0071108Y0122693D01*
X0071016Y0122694D01*
X0070923Y0122699D01*
X0070831Y0122708D01*
X0070739Y0122721D01*
X0070648Y0122737D01*
X0070558Y0122758D01*
X0070469Y0122782D01*
X0070381Y0122811D01*
X0070294Y0122843D01*
X0070209Y0122878D01*
X0070125Y0122918D01*
X0070043Y0122960D01*
X0069963Y0123007D01*
X0069885Y0123056D01*
X0069809Y0123109D01*
X0069735Y0123165D01*
X0069664Y0123225D01*
X0069596Y0123287D01*
X0069530Y0123352D01*
X0069467Y0123420D01*
X0069407Y0123490D01*
X0069350Y0123563D01*
X0069296Y0123638D01*
X0069246Y0123716D01*
X0069199Y0123796D01*
X0069155Y0123877D01*
X0069115Y0123961D01*
X0069078Y0124046D01*
X0069045Y0124132D01*
X0069016Y0124220D01*
X0068991Y0124309D01*
X0068969Y0124399D01*
X0068952Y0124490D01*
X0068938Y0124581D01*
X0068928Y0124673D01*
X0068922Y0124765D01*
X0068920Y0124858D01*
X0429747Y0193500D02*
X0429749Y0193640D01*
X0429755Y0193780D01*
X0429765Y0193919D01*
X0429779Y0194058D01*
X0429797Y0194197D01*
X0429818Y0194335D01*
X0429844Y0194473D01*
X0429874Y0194610D01*
X0429907Y0194745D01*
X0429945Y0194880D01*
X0429986Y0195014D01*
X0430031Y0195147D01*
X0430079Y0195278D01*
X0430132Y0195407D01*
X0430188Y0195536D01*
X0430247Y0195662D01*
X0430311Y0195787D01*
X0430377Y0195910D01*
X0430448Y0196031D01*
X0430521Y0196150D01*
X0430598Y0196267D01*
X0430679Y0196381D01*
X0430762Y0196493D01*
X0430849Y0196603D01*
X0430939Y0196711D01*
X0431031Y0196815D01*
X0431127Y0196917D01*
X0431226Y0197017D01*
X0431327Y0197113D01*
X0431431Y0197207D01*
X0431538Y0197297D01*
X0431647Y0197384D01*
X0431759Y0197469D01*
X0431873Y0197550D01*
X0431989Y0197628D01*
X0432107Y0197702D01*
X0432228Y0197773D01*
X0432350Y0197841D01*
X0432475Y0197905D01*
X0432601Y0197966D01*
X0432728Y0198023D01*
X0432858Y0198076D01*
X0432989Y0198126D01*
X0433121Y0198171D01*
X0433254Y0198214D01*
X0433389Y0198252D01*
X0433524Y0198286D01*
X0433661Y0198317D01*
X0433798Y0198344D01*
X0433936Y0198366D01*
X0434075Y0198385D01*
X0434214Y0198400D01*
X0434353Y0198411D01*
X0434493Y0198418D01*
X0434633Y0198421D01*
X0434773Y0198420D01*
X0434913Y0198415D01*
X0435052Y0198406D01*
X0435192Y0198393D01*
X0435331Y0198376D01*
X0435469Y0198355D01*
X0435607Y0198331D01*
X0435744Y0198302D01*
X0435880Y0198270D01*
X0436015Y0198233D01*
X0436149Y0198193D01*
X0436282Y0198149D01*
X0436413Y0198101D01*
X0436543Y0198050D01*
X0436672Y0197995D01*
X0436799Y0197936D01*
X0436924Y0197873D01*
X0437047Y0197808D01*
X0437169Y0197738D01*
X0437288Y0197665D01*
X0437406Y0197589D01*
X0437521Y0197510D01*
X0437634Y0197427D01*
X0437744Y0197341D01*
X0437852Y0197252D01*
X0437957Y0197160D01*
X0438060Y0197065D01*
X0438160Y0196967D01*
X0438257Y0196867D01*
X0438351Y0196763D01*
X0438443Y0196657D01*
X0438531Y0196549D01*
X0438616Y0196438D01*
X0438698Y0196324D01*
X0438777Y0196208D01*
X0438852Y0196091D01*
X0438924Y0195971D01*
X0438992Y0195849D01*
X0439057Y0195725D01*
X0439119Y0195599D01*
X0439177Y0195472D01*
X0439231Y0195343D01*
X0439282Y0195212D01*
X0439328Y0195080D01*
X0439371Y0194947D01*
X0439411Y0194813D01*
X0439446Y0194678D01*
X0439478Y0194541D01*
X0439505Y0194404D01*
X0439529Y0194266D01*
X0439549Y0194128D01*
X0439565Y0193989D01*
X0439577Y0193849D01*
X0439585Y0193710D01*
X0439589Y0193570D01*
X0439589Y0193430D01*
X0439585Y0193290D01*
X0439577Y0193151D01*
X0439565Y0193011D01*
X0439549Y0192872D01*
X0439529Y0192734D01*
X0439505Y0192596D01*
X0439478Y0192459D01*
X0439446Y0192322D01*
X0439411Y0192187D01*
X0439371Y0192053D01*
X0439328Y0191920D01*
X0439282Y0191788D01*
X0439231Y0191657D01*
X0439177Y0191528D01*
X0439119Y0191401D01*
X0439057Y0191275D01*
X0438992Y0191151D01*
X0438924Y0191029D01*
X0438852Y0190909D01*
X0438777Y0190792D01*
X0438698Y0190676D01*
X0438616Y0190562D01*
X0438531Y0190451D01*
X0438443Y0190343D01*
X0438351Y0190237D01*
X0438257Y0190133D01*
X0438160Y0190033D01*
X0438060Y0189935D01*
X0437957Y0189840D01*
X0437852Y0189748D01*
X0437744Y0189659D01*
X0437634Y0189573D01*
X0437521Y0189490D01*
X0437406Y0189411D01*
X0437288Y0189335D01*
X0437169Y0189262D01*
X0437047Y0189192D01*
X0436924Y0189127D01*
X0436799Y0189064D01*
X0436672Y0189005D01*
X0436543Y0188950D01*
X0436413Y0188899D01*
X0436282Y0188851D01*
X0436149Y0188807D01*
X0436015Y0188767D01*
X0435880Y0188730D01*
X0435744Y0188698D01*
X0435607Y0188669D01*
X0435469Y0188645D01*
X0435331Y0188624D01*
X0435192Y0188607D01*
X0435052Y0188594D01*
X0434913Y0188585D01*
X0434773Y0188580D01*
X0434633Y0188579D01*
X0434493Y0188582D01*
X0434353Y0188589D01*
X0434214Y0188600D01*
X0434075Y0188615D01*
X0433936Y0188634D01*
X0433798Y0188656D01*
X0433661Y0188683D01*
X0433524Y0188714D01*
X0433389Y0188748D01*
X0433254Y0188786D01*
X0433121Y0188829D01*
X0432989Y0188874D01*
X0432858Y0188924D01*
X0432728Y0188977D01*
X0432601Y0189034D01*
X0432475Y0189095D01*
X0432350Y0189159D01*
X0432228Y0189227D01*
X0432107Y0189298D01*
X0431989Y0189372D01*
X0431873Y0189450D01*
X0431759Y0189531D01*
X0431647Y0189616D01*
X0431538Y0189703D01*
X0431431Y0189793D01*
X0431327Y0189887D01*
X0431226Y0189983D01*
X0431127Y0190083D01*
X0431031Y0190185D01*
X0430939Y0190289D01*
X0430849Y0190397D01*
X0430762Y0190507D01*
X0430679Y0190619D01*
X0430598Y0190733D01*
X0430521Y0190850D01*
X0430448Y0190969D01*
X0430377Y0191090D01*
X0430311Y0191213D01*
X0430247Y0191338D01*
X0430188Y0191464D01*
X0430132Y0191593D01*
X0430079Y0191722D01*
X0430031Y0191853D01*
X0429986Y0191986D01*
X0429945Y0192120D01*
X0429907Y0192255D01*
X0429874Y0192390D01*
X0429844Y0192527D01*
X0429818Y0192665D01*
X0429797Y0192803D01*
X0429779Y0192942D01*
X0429765Y0193081D01*
X0429755Y0193220D01*
X0429749Y0193360D01*
X0429747Y0193500D01*
X0431794Y0111925D02*
X0431796Y0112118D01*
X0431803Y0112311D01*
X0431815Y0112504D01*
X0431832Y0112697D01*
X0431853Y0112889D01*
X0431879Y0113080D01*
X0431910Y0113271D01*
X0431945Y0113461D01*
X0431985Y0113650D01*
X0432030Y0113838D01*
X0432079Y0114025D01*
X0432133Y0114211D01*
X0432191Y0114395D01*
X0432254Y0114578D01*
X0432322Y0114759D01*
X0432393Y0114938D01*
X0432470Y0115116D01*
X0432550Y0115292D01*
X0432635Y0115465D01*
X0432724Y0115637D01*
X0432817Y0115806D01*
X0432914Y0115973D01*
X0433016Y0116138D01*
X0433121Y0116300D01*
X0433230Y0116459D01*
X0433344Y0116616D01*
X0433461Y0116769D01*
X0433581Y0116920D01*
X0433706Y0117068D01*
X0433834Y0117213D01*
X0433965Y0117354D01*
X0434100Y0117493D01*
X0434239Y0117628D01*
X0434380Y0117759D01*
X0434525Y0117887D01*
X0434673Y0118012D01*
X0434824Y0118132D01*
X0434977Y0118249D01*
X0435134Y0118363D01*
X0435293Y0118472D01*
X0435455Y0118577D01*
X0435620Y0118679D01*
X0435787Y0118776D01*
X0435956Y0118869D01*
X0436128Y0118958D01*
X0436301Y0119043D01*
X0436477Y0119123D01*
X0436655Y0119200D01*
X0436834Y0119271D01*
X0437015Y0119339D01*
X0437198Y0119402D01*
X0437382Y0119460D01*
X0437568Y0119514D01*
X0437755Y0119563D01*
X0437943Y0119608D01*
X0438132Y0119648D01*
X0438322Y0119683D01*
X0438513Y0119714D01*
X0438704Y0119740D01*
X0438896Y0119761D01*
X0439089Y0119778D01*
X0439282Y0119790D01*
X0439475Y0119797D01*
X0439668Y0119799D01*
X0439861Y0119797D01*
X0440054Y0119790D01*
X0440247Y0119778D01*
X0440440Y0119761D01*
X0440632Y0119740D01*
X0440823Y0119714D01*
X0441014Y0119683D01*
X0441204Y0119648D01*
X0441393Y0119608D01*
X0441581Y0119563D01*
X0441768Y0119514D01*
X0441954Y0119460D01*
X0442138Y0119402D01*
X0442321Y0119339D01*
X0442502Y0119271D01*
X0442681Y0119200D01*
X0442859Y0119123D01*
X0443035Y0119043D01*
X0443208Y0118958D01*
X0443380Y0118869D01*
X0443549Y0118776D01*
X0443716Y0118679D01*
X0443881Y0118577D01*
X0444043Y0118472D01*
X0444202Y0118363D01*
X0444359Y0118249D01*
X0444512Y0118132D01*
X0444663Y0118012D01*
X0444811Y0117887D01*
X0444956Y0117759D01*
X0445097Y0117628D01*
X0445236Y0117493D01*
X0445371Y0117354D01*
X0445502Y0117213D01*
X0445630Y0117068D01*
X0445755Y0116920D01*
X0445875Y0116769D01*
X0445992Y0116616D01*
X0446106Y0116459D01*
X0446215Y0116300D01*
X0446320Y0116138D01*
X0446422Y0115973D01*
X0446519Y0115806D01*
X0446612Y0115637D01*
X0446701Y0115465D01*
X0446786Y0115292D01*
X0446866Y0115116D01*
X0446943Y0114938D01*
X0447014Y0114759D01*
X0447082Y0114578D01*
X0447145Y0114395D01*
X0447203Y0114211D01*
X0447257Y0114025D01*
X0447306Y0113838D01*
X0447351Y0113650D01*
X0447391Y0113461D01*
X0447426Y0113271D01*
X0447457Y0113080D01*
X0447483Y0112889D01*
X0447504Y0112697D01*
X0447521Y0112504D01*
X0447533Y0112311D01*
X0447540Y0112118D01*
X0447542Y0111925D01*
X0447540Y0111732D01*
X0447533Y0111539D01*
X0447521Y0111346D01*
X0447504Y0111153D01*
X0447483Y0110961D01*
X0447457Y0110770D01*
X0447426Y0110579D01*
X0447391Y0110389D01*
X0447351Y0110200D01*
X0447306Y0110012D01*
X0447257Y0109825D01*
X0447203Y0109639D01*
X0447145Y0109455D01*
X0447082Y0109272D01*
X0447014Y0109091D01*
X0446943Y0108912D01*
X0446866Y0108734D01*
X0446786Y0108558D01*
X0446701Y0108385D01*
X0446612Y0108213D01*
X0446519Y0108044D01*
X0446422Y0107877D01*
X0446320Y0107712D01*
X0446215Y0107550D01*
X0446106Y0107391D01*
X0445992Y0107234D01*
X0445875Y0107081D01*
X0445755Y0106930D01*
X0445630Y0106782D01*
X0445502Y0106637D01*
X0445371Y0106496D01*
X0445236Y0106357D01*
X0445097Y0106222D01*
X0444956Y0106091D01*
X0444811Y0105963D01*
X0444663Y0105838D01*
X0444512Y0105718D01*
X0444359Y0105601D01*
X0444202Y0105487D01*
X0444043Y0105378D01*
X0443881Y0105273D01*
X0443716Y0105171D01*
X0443549Y0105074D01*
X0443380Y0104981D01*
X0443208Y0104892D01*
X0443035Y0104807D01*
X0442859Y0104727D01*
X0442681Y0104650D01*
X0442502Y0104579D01*
X0442321Y0104511D01*
X0442138Y0104448D01*
X0441954Y0104390D01*
X0441768Y0104336D01*
X0441581Y0104287D01*
X0441393Y0104242D01*
X0441204Y0104202D01*
X0441014Y0104167D01*
X0440823Y0104136D01*
X0440632Y0104110D01*
X0440440Y0104089D01*
X0440247Y0104072D01*
X0440054Y0104060D01*
X0439861Y0104053D01*
X0439668Y0104051D01*
X0439475Y0104053D01*
X0439282Y0104060D01*
X0439089Y0104072D01*
X0438896Y0104089D01*
X0438704Y0104110D01*
X0438513Y0104136D01*
X0438322Y0104167D01*
X0438132Y0104202D01*
X0437943Y0104242D01*
X0437755Y0104287D01*
X0437568Y0104336D01*
X0437382Y0104390D01*
X0437198Y0104448D01*
X0437015Y0104511D01*
X0436834Y0104579D01*
X0436655Y0104650D01*
X0436477Y0104727D01*
X0436301Y0104807D01*
X0436128Y0104892D01*
X0435956Y0104981D01*
X0435787Y0105074D01*
X0435620Y0105171D01*
X0435455Y0105273D01*
X0435293Y0105378D01*
X0435134Y0105487D01*
X0434977Y0105601D01*
X0434824Y0105718D01*
X0434673Y0105838D01*
X0434525Y0105963D01*
X0434380Y0106091D01*
X0434239Y0106222D01*
X0434100Y0106357D01*
X0433965Y0106496D01*
X0433834Y0106637D01*
X0433706Y0106782D01*
X0433581Y0106930D01*
X0433461Y0107081D01*
X0433344Y0107234D01*
X0433230Y0107391D01*
X0433121Y0107550D01*
X0433016Y0107712D01*
X0432914Y0107877D01*
X0432817Y0108044D01*
X0432724Y0108213D01*
X0432635Y0108385D01*
X0432550Y0108558D01*
X0432470Y0108734D01*
X0432393Y0108912D01*
X0432322Y0109091D01*
X0432254Y0109272D01*
X0432191Y0109455D01*
X0432133Y0109639D01*
X0432079Y0109825D01*
X0432030Y0110012D01*
X0431985Y0110200D01*
X0431945Y0110389D01*
X0431910Y0110579D01*
X0431879Y0110770D01*
X0431853Y0110961D01*
X0431832Y0111153D01*
X0431815Y0111346D01*
X0431803Y0111539D01*
X0431796Y0111732D01*
X0431794Y0111925D01*
D11*
X0112168Y0114000D03*
X0112168Y0133000D03*
X0084668Y0058000D03*
X0084668Y0039000D03*
D12*
X0080928Y0102220D03*
X0080928Y0111563D03*
X0080928Y0120437D03*
X0080928Y0129780D03*
D13*
X0071479Y0138835D03*
X0071479Y0093165D03*
D14*
X0147168Y0110000D03*
X0162168Y0110000D03*
X0162168Y0132000D03*
X0147168Y0132000D03*
X0147168Y0157500D03*
X0162168Y0157500D03*
X0162168Y0179500D03*
X0147168Y0179500D03*
D15*
X0284668Y0195500D02*
X0284668Y0201500D01*
X0294668Y0201500D02*
X0294668Y0195500D01*
X0304668Y0195500D02*
X0304668Y0201500D01*
X0314668Y0201500D02*
X0314668Y0195500D01*
X0436983Y0170508D02*
X0442983Y0170508D01*
X0442983Y0160508D02*
X0436983Y0160508D01*
X0436983Y0150508D02*
X0442983Y0150508D01*
X0442983Y0140508D02*
X0436983Y0140508D01*
X0436983Y0130508D02*
X0442983Y0130508D01*
X0442983Y0094917D02*
X0436983Y0094917D01*
X0436983Y0084917D02*
X0442983Y0084917D01*
X0442983Y0074917D02*
X0436983Y0074917D01*
X0436983Y0064917D02*
X0442983Y0064917D01*
X0442983Y0054917D02*
X0436983Y0054917D01*
X0189668Y0031500D02*
X0189668Y0025500D01*
X0179668Y0025500D02*
X0179668Y0031500D01*
X0169668Y0031500D02*
X0169668Y0025500D01*
X0159668Y0025500D02*
X0159668Y0031500D01*
X0149668Y0031500D02*
X0149668Y0025500D01*
D16*
X0117168Y0153500D03*
X0107168Y0153500D03*
X0107168Y0163500D03*
X0117168Y0163500D03*
X0117168Y0173500D03*
X0107168Y0173500D03*
X0107168Y0183500D03*
X0117168Y0183500D03*
X0174668Y0178500D03*
X0184668Y0178500D03*
X0184668Y0188500D03*
X0174668Y0188500D03*
D17*
X0079668Y0173618D03*
X0079668Y0171059D03*
X0079668Y0168500D03*
X0079668Y0165941D03*
X0079668Y0163382D03*
D18*
X0070268Y0162400D02*
X0070268Y0166600D01*
X0070268Y0162400D02*
X0066068Y0162400D01*
X0066068Y0166600D01*
X0070268Y0166600D01*
X0070268Y0164199D02*
X0066068Y0164199D01*
X0066068Y0165998D02*
X0070268Y0165998D01*
X0070268Y0170400D02*
X0070268Y0174600D01*
X0070268Y0170400D02*
X0066068Y0170400D01*
X0066068Y0174600D01*
X0070268Y0174600D01*
X0070268Y0172199D02*
X0066068Y0172199D01*
X0066068Y0173998D02*
X0070268Y0173998D01*
D19*
X0068168Y0184051D03*
X0068168Y0152949D03*
D20*
X0062003Y0029462D02*
X0063073Y0025471D01*
X0065138Y0021892D01*
X0068060Y0018971D01*
X0071638Y0016905D01*
X0075630Y0015835D01*
X0077695Y0015700D01*
X0427757Y0015700D01*
X0430378Y0015847D01*
X0435489Y0017014D01*
X0440212Y0019288D01*
X0444311Y0022557D01*
X0447580Y0026656D01*
X0449855Y0031379D01*
X0451021Y0036491D01*
X0451169Y0039112D01*
X0451169Y0195649D01*
X0451062Y0197281D01*
X0450217Y0200433D01*
X0448585Y0203259D01*
X0446277Y0205567D01*
X0443451Y0207199D01*
X0440299Y0208043D01*
X0438667Y0208150D01*
X0084151Y0208150D01*
X0081656Y0208010D01*
X0076791Y0206900D01*
X0072296Y0204735D01*
X0068394Y0201624D01*
X0065283Y0197722D01*
X0063118Y0193227D01*
X0062008Y0188362D01*
X0061868Y0185867D01*
X0061868Y0031528D01*
X0062003Y0029462D01*
X0061949Y0030290D02*
X0144868Y0030290D01*
X0144868Y0032455D02*
X0144868Y0024545D01*
X0145598Y0022781D01*
X0146949Y0021431D01*
X0148713Y0020700D01*
X0150622Y0020700D01*
X0152387Y0021431D01*
X0153737Y0022781D01*
X0154468Y0024545D01*
X0154468Y0032455D01*
X0153737Y0034219D01*
X0152387Y0035569D01*
X0152068Y0035701D01*
X0152068Y0052706D01*
X0157268Y0047506D01*
X0157268Y0035701D01*
X0156949Y0035569D01*
X0155598Y0034219D01*
X0154868Y0032455D01*
X0154868Y0024545D01*
X0155598Y0022781D01*
X0156949Y0021431D01*
X0158713Y0020700D01*
X0160622Y0020700D01*
X0162387Y0021431D01*
X0163737Y0022781D01*
X0164468Y0024545D01*
X0164468Y0032455D01*
X0163737Y0034219D01*
X0162387Y0035569D01*
X0162068Y0035701D01*
X0162068Y0048977D01*
X0161702Y0049859D01*
X0161027Y0050535D01*
X0156643Y0054919D01*
X0157355Y0054919D01*
X0165133Y0047141D01*
X0165808Y0046465D01*
X0166690Y0046100D01*
X0173674Y0046100D01*
X0177268Y0042506D01*
X0177268Y0035701D01*
X0176949Y0035569D01*
X0175598Y0034219D01*
X0174868Y0032455D01*
X0174868Y0024545D01*
X0175598Y0022781D01*
X0176949Y0021431D01*
X0178713Y0020700D01*
X0180622Y0020700D01*
X0182387Y0021431D01*
X0183737Y0022781D01*
X0184468Y0024545D01*
X0184468Y0032455D01*
X0183737Y0034219D01*
X0182387Y0035569D01*
X0182068Y0035701D01*
X0182068Y0043977D01*
X0181702Y0044859D01*
X0176027Y0050535D01*
X0175145Y0050900D01*
X0168162Y0050900D01*
X0160749Y0058313D01*
X0160749Y0059212D01*
X0160204Y0060529D01*
X0160163Y0060569D01*
X0163246Y0059028D01*
X0163308Y0058965D01*
X0163671Y0058815D01*
X0164021Y0058640D01*
X0164109Y0058634D01*
X0164190Y0058600D01*
X0164582Y0058600D01*
X0164974Y0058572D01*
X0165057Y0058600D01*
X0234477Y0058600D01*
X0235128Y0057948D01*
X0236452Y0057400D01*
X0237884Y0057400D01*
X0239207Y0057948D01*
X0240220Y0058961D01*
X0240768Y0060284D01*
X0240768Y0061716D01*
X0240220Y0063039D01*
X0239859Y0063400D01*
X0244677Y0063400D01*
X0245128Y0062948D01*
X0246452Y0062400D01*
X0247884Y0062400D01*
X0249207Y0062948D01*
X0250220Y0063961D01*
X0250768Y0065284D01*
X0250768Y0066716D01*
X0250220Y0068039D01*
X0249207Y0069052D01*
X0247884Y0069600D01*
X0246452Y0069600D01*
X0245128Y0069052D01*
X0244677Y0068600D01*
X0223245Y0068600D01*
X0219768Y0072077D01*
X0219768Y0085214D01*
X0220696Y0086142D01*
X0221330Y0087672D01*
X0221330Y0089328D01*
X0220696Y0090858D01*
X0219525Y0092029D01*
X0217996Y0092662D01*
X0217814Y0092662D01*
X0208068Y0102408D01*
X0208068Y0178400D01*
X0234677Y0178400D01*
X0235128Y0177948D01*
X0236452Y0177400D01*
X0237884Y0177400D01*
X0239207Y0177948D01*
X0240220Y0178961D01*
X0240768Y0180284D01*
X0240768Y0181716D01*
X0240220Y0183039D01*
X0239207Y0184052D01*
X0237884Y0184600D01*
X0236452Y0184600D01*
X0235128Y0184052D01*
X0234677Y0183600D01*
X0207954Y0183600D01*
X0207025Y0184529D01*
X0205496Y0185162D01*
X0203840Y0185162D01*
X0202310Y0184529D01*
X0201139Y0183358D01*
X0200506Y0181828D01*
X0200506Y0180172D01*
X0201139Y0178642D01*
X0201268Y0178514D01*
X0201268Y0100324D01*
X0201785Y0099074D01*
X0213006Y0087854D01*
X0149568Y0087854D01*
X0149568Y0090252D02*
X0210607Y0090252D01*
X0213006Y0087854D02*
X0213006Y0087672D01*
X0213639Y0086142D01*
X0214568Y0085214D01*
X0214568Y0070483D01*
X0214964Y0069527D01*
X0219964Y0064527D01*
X0220695Y0063796D01*
X0221651Y0063400D01*
X0234477Y0063400D01*
X0234477Y0063400D01*
X0165234Y0063400D01*
X0161089Y0065472D01*
X0161027Y0065535D01*
X0160665Y0065685D01*
X0160314Y0065860D01*
X0160226Y0065866D01*
X0160145Y0065900D01*
X0159753Y0065900D01*
X0159362Y0065928D01*
X0159278Y0065900D01*
X0147132Y0065900D01*
X0147704Y0066471D01*
X0148249Y0067788D01*
X0148249Y0069212D01*
X0147704Y0070529D01*
X0147647Y0070585D01*
X0148527Y0071465D01*
X0149202Y0072141D01*
X0149568Y0073023D01*
X0149568Y0105354D01*
X0150468Y0106254D01*
X0150468Y0113746D01*
X0149568Y0114646D01*
X0149568Y0127354D01*
X0150468Y0128254D01*
X0150468Y0130674D01*
X0151863Y0131197D01*
X0152174Y0131270D01*
X0152306Y0131364D01*
X0152457Y0131420D01*
X0152691Y0131639D01*
X0155840Y0133888D01*
X0156027Y0133965D01*
X0156224Y0134162D01*
X0156451Y0134325D01*
X0156559Y0134497D01*
X0156702Y0134641D01*
X0156809Y0134898D01*
X0156957Y0135135D01*
X0156990Y0135335D01*
X0157068Y0135523D01*
X0157068Y0135801D01*
X0157114Y0136076D01*
X0157068Y0136274D01*
X0157068Y0138336D01*
X0157704Y0138971D01*
X0158249Y0140288D01*
X0158249Y0141712D01*
X0157704Y0143029D01*
X0156696Y0144036D01*
X0155380Y0144581D01*
X0153955Y0144581D01*
X0152639Y0144036D01*
X0151632Y0143029D01*
X0151087Y0141712D01*
X0151087Y0140288D01*
X0151632Y0138971D01*
X0152268Y0138336D01*
X0152268Y0137235D01*
X0150349Y0135864D01*
X0149413Y0136800D01*
X0144922Y0136800D01*
X0144568Y0136446D01*
X0144568Y0153054D01*
X0144922Y0152700D01*
X0149413Y0152700D01*
X0150468Y0153754D01*
X0150468Y0161246D01*
X0149568Y0162146D01*
X0149568Y0174854D01*
X0150468Y0175754D01*
X0150468Y0179406D01*
X0151343Y0180281D01*
X0151667Y0180589D01*
X0151680Y0180618D01*
X0151702Y0180641D01*
X0151873Y0181053D01*
X0152055Y0181462D01*
X0152056Y0181493D01*
X0152068Y0181523D01*
X0152068Y0181969D01*
X0152079Y0182416D01*
X0152068Y0182446D01*
X0152068Y0182477D01*
X0151897Y0182890D01*
X0150367Y0186867D01*
X0150749Y0187788D01*
X0150749Y0189212D01*
X0150204Y0190529D01*
X0149196Y0191536D01*
X0147880Y0192081D01*
X0146643Y0192081D01*
X0150662Y0196100D01*
X0221977Y0196100D01*
X0222628Y0195448D01*
X0223952Y0194900D01*
X0225384Y0194900D01*
X0226707Y0195448D01*
X0227720Y0196461D01*
X0228268Y0197784D01*
X0228268Y0199216D01*
X0227720Y0200539D01*
X0226707Y0201552D01*
X0225384Y0202100D01*
X0223952Y0202100D01*
X0222628Y0201552D01*
X0221977Y0200900D01*
X0149190Y0200900D01*
X0148308Y0200535D01*
X0140808Y0193035D01*
X0140552Y0192778D01*
X0140552Y0194320D01*
X0141188Y0194956D01*
X0141733Y0196272D01*
X0141733Y0197697D01*
X0141188Y0199013D01*
X0140180Y0200020D01*
X0138864Y0200565D01*
X0137440Y0200565D01*
X0136123Y0200020D01*
X0135116Y0199013D01*
X0134571Y0197697D01*
X0134571Y0196272D01*
X0135116Y0194956D01*
X0135752Y0194320D01*
X0135752Y0144817D01*
X0135583Y0144220D01*
X0135249Y0144081D01*
X0135749Y0145288D01*
X0135749Y0146712D01*
X0135204Y0148029D01*
X0134196Y0149036D01*
X0132880Y0149581D01*
X0131455Y0149581D01*
X0130568Y0149213D01*
X0130568Y0186014D01*
X0130696Y0186142D01*
X0131330Y0187672D01*
X0131330Y0189328D01*
X0130696Y0190858D01*
X0129525Y0192029D01*
X0127996Y0192662D01*
X0126340Y0192662D01*
X0124810Y0192029D01*
X0123639Y0190858D01*
X0123006Y0189328D01*
X0123006Y0187672D01*
X0123639Y0186142D01*
X0123768Y0186014D01*
X0123768Y0090986D01*
X0123639Y0090858D01*
X0123006Y0089328D01*
X0123006Y0087672D01*
X0123639Y0086142D01*
X0124810Y0084971D01*
X0126340Y0084338D01*
X0127996Y0084338D01*
X0129525Y0084971D01*
X0130696Y0086142D01*
X0131330Y0087672D01*
X0131330Y0089328D01*
X0130696Y0090858D01*
X0130568Y0090986D01*
X0130568Y0115287D01*
X0131455Y0114919D01*
X0132880Y0114919D01*
X0134196Y0115464D01*
X0135204Y0116471D01*
X0135749Y0117788D01*
X0135749Y0119212D01*
X0135204Y0120529D01*
X0134568Y0121164D01*
X0134568Y0138536D01*
X0135139Y0137964D01*
X0136455Y0137419D01*
X0137880Y0137419D01*
X0139196Y0137964D01*
X0139768Y0138536D01*
X0139768Y0106191D01*
X0139116Y0105539D01*
X0138568Y0104216D01*
X0138568Y0102784D01*
X0139116Y0101461D01*
X0140128Y0100448D01*
X0141452Y0099900D01*
X0142884Y0099900D01*
X0144207Y0100448D01*
X0144768Y0101009D01*
X0144768Y0074494D01*
X0142633Y0072359D01*
X0142268Y0071477D01*
X0142268Y0071164D01*
X0141632Y0070529D01*
X0141087Y0069212D01*
X0141087Y0067788D01*
X0141477Y0066845D01*
X0137068Y0069784D01*
X0137068Y0095809D01*
X0137720Y0096461D01*
X0138268Y0097784D01*
X0138268Y0099216D01*
X0137720Y0100539D01*
X0136707Y0101552D01*
X0135384Y0102100D01*
X0133952Y0102100D01*
X0132628Y0101552D01*
X0131616Y0100539D01*
X0131068Y0099216D01*
X0131068Y0097784D01*
X0131616Y0096461D01*
X0132268Y0095809D01*
X0132268Y0068735D01*
X0132221Y0068497D01*
X0132268Y0068262D01*
X0132268Y0068023D01*
X0132360Y0067799D01*
X0132408Y0067561D01*
X0132541Y0067362D01*
X0132633Y0067141D01*
X0132804Y0066969D01*
X0132939Y0066768D01*
X0133139Y0066635D01*
X0133308Y0066465D01*
X0133532Y0066373D01*
X0140639Y0061635D01*
X0140808Y0061465D01*
X0141032Y0061373D01*
X0141234Y0061238D01*
X0141469Y0061192D01*
X0141690Y0061100D01*
X0141933Y0061100D01*
X0142159Y0061055D01*
X0141632Y0060529D01*
X0141087Y0059212D01*
X0141087Y0057788D01*
X0141632Y0056471D01*
X0142639Y0055464D01*
X0143955Y0054919D01*
X0144855Y0054919D01*
X0147268Y0052506D01*
X0147268Y0035701D01*
X0146949Y0035569D01*
X0145598Y0034219D01*
X0144868Y0032455D01*
X0144964Y0032688D02*
X0061868Y0032688D01*
X0061868Y0035087D02*
X0082618Y0035087D01*
X0082175Y0035270D02*
X0083792Y0034600D01*
X0085543Y0034600D01*
X0087160Y0035270D01*
X0088398Y0036508D01*
X0089068Y0038125D01*
X0089068Y0039875D01*
X0088398Y0041492D01*
X0087160Y0042730D01*
X0085543Y0043400D01*
X0083792Y0043400D01*
X0082175Y0042730D01*
X0080938Y0041492D01*
X0080268Y0039875D01*
X0080268Y0038125D01*
X0080938Y0036508D01*
X0082175Y0035270D01*
X0080533Y0037485D02*
X0061868Y0037485D01*
X0061868Y0039884D02*
X0080271Y0039884D01*
X0081727Y0042282D02*
X0061868Y0042282D01*
X0061868Y0044681D02*
X0147268Y0044681D01*
X0147268Y0047079D02*
X0061868Y0047079D01*
X0061868Y0049478D02*
X0147268Y0049478D01*
X0147268Y0051876D02*
X0061868Y0051876D01*
X0061868Y0054275D02*
X0082170Y0054275D01*
X0082175Y0054270D02*
X0083792Y0053600D01*
X0085543Y0053600D01*
X0087160Y0054270D01*
X0088398Y0055508D01*
X0089068Y0057125D01*
X0089068Y0058875D01*
X0088398Y0060492D01*
X0087160Y0061730D01*
X0085543Y0062400D01*
X0083792Y0062400D01*
X0082175Y0061730D01*
X0080938Y0060492D01*
X0080268Y0058875D01*
X0080268Y0057125D01*
X0080938Y0055508D01*
X0082175Y0054270D01*
X0080455Y0056673D02*
X0061868Y0056673D01*
X0061868Y0059072D02*
X0080349Y0059072D01*
X0081915Y0061470D02*
X0061868Y0061470D01*
X0061868Y0063869D02*
X0137288Y0063869D01*
X0140803Y0061470D02*
X0087420Y0061470D01*
X0088986Y0059072D02*
X0141087Y0059072D01*
X0141548Y0056673D02*
X0088881Y0056673D01*
X0087165Y0054275D02*
X0145499Y0054275D01*
X0152068Y0051876D02*
X0152897Y0051876D01*
X0152068Y0049478D02*
X0155296Y0049478D01*
X0159686Y0051876D02*
X0160397Y0051876D01*
X0161860Y0049478D02*
X0162796Y0049478D01*
X0167186Y0051876D02*
X0433236Y0051876D01*
X0432913Y0052198D02*
X0432183Y0053963D01*
X0432183Y0055872D01*
X0432913Y0057636D01*
X0434264Y0058987D01*
X0436028Y0059717D01*
X0443937Y0059717D01*
X0445702Y0058987D01*
X0447052Y0057636D01*
X0447783Y0055872D01*
X0447783Y0053963D01*
X0447052Y0052198D01*
X0445702Y0050848D01*
X0443937Y0050117D01*
X0436028Y0050117D01*
X0434264Y0050848D01*
X0432913Y0052198D01*
X0432183Y0054275D02*
X0164787Y0054275D01*
X0162389Y0056673D02*
X0299028Y0056673D01*
X0299116Y0056461D02*
X0300128Y0055448D01*
X0301452Y0054900D01*
X0302884Y0054900D01*
X0304207Y0055448D01*
X0305220Y0056461D01*
X0305768Y0057784D01*
X0305768Y0059216D01*
X0305220Y0060539D01*
X0304207Y0061552D01*
X0302884Y0062100D01*
X0301455Y0062100D01*
X0297268Y0064891D01*
X0297268Y0076009D01*
X0297720Y0076461D01*
X0298268Y0077784D01*
X0298268Y0079216D01*
X0297720Y0080539D01*
X0297068Y0081191D01*
X0297068Y0105809D01*
X0297720Y0106461D01*
X0298268Y0107784D01*
X0298268Y0109216D01*
X0297720Y0110539D01*
X0297268Y0110991D01*
X0297268Y0136009D01*
X0297720Y0136461D01*
X0298268Y0137784D01*
X0298268Y0139216D01*
X0297720Y0140539D01*
X0297068Y0141191D01*
X0297068Y0165809D01*
X0297720Y0166461D01*
X0298268Y0167784D01*
X0298268Y0169216D01*
X0297720Y0170539D01*
X0296707Y0171552D01*
X0295384Y0172100D01*
X0293952Y0172100D01*
X0292628Y0171552D01*
X0292268Y0171191D01*
X0292268Y0186009D01*
X0292720Y0186461D01*
X0293268Y0187784D01*
X0293268Y0189216D01*
X0292720Y0190539D01*
X0292481Y0190778D01*
X0292672Y0190681D01*
X0293450Y0190428D01*
X0294258Y0190300D01*
X0294668Y0190300D01*
X0295077Y0190300D01*
X0295885Y0190428D01*
X0296664Y0190681D01*
X0297393Y0191053D01*
X0298055Y0191534D01*
X0298634Y0192112D01*
X0299115Y0192775D01*
X0299487Y0193504D01*
X0299668Y0194061D01*
X0299849Y0193504D01*
X0300220Y0192775D01*
X0300701Y0192112D01*
X0301280Y0191534D01*
X0301942Y0191053D01*
X0302672Y0190681D01*
X0303450Y0190428D01*
X0304258Y0190300D01*
X0304668Y0190300D01*
X0305077Y0190300D01*
X0305885Y0190428D01*
X0306664Y0190681D01*
X0307393Y0191053D01*
X0308055Y0191534D01*
X0308634Y0192112D01*
X0309115Y0192775D01*
X0309487Y0193504D01*
X0309668Y0194061D01*
X0309849Y0193504D01*
X0310220Y0192775D01*
X0310701Y0192112D01*
X0311280Y0191534D01*
X0311942Y0191053D01*
X0312672Y0190681D01*
X0313450Y0190428D01*
X0314258Y0190300D01*
X0314668Y0190300D01*
X0315077Y0190300D01*
X0315885Y0190428D01*
X0316664Y0190681D01*
X0317393Y0191053D01*
X0318055Y0191534D01*
X0318634Y0192112D01*
X0319115Y0192775D01*
X0319487Y0193504D01*
X0319740Y0194282D01*
X0319868Y0195091D01*
X0319868Y0198500D01*
X0319868Y0201909D01*
X0319740Y0202718D01*
X0319487Y0203496D01*
X0319115Y0204225D01*
X0318634Y0204888D01*
X0318055Y0205466D01*
X0317393Y0205947D01*
X0316664Y0206319D01*
X0315885Y0206572D01*
X0315077Y0206700D01*
X0314668Y0206700D01*
X0314668Y0198500D01*
X0319868Y0198500D01*
X0314668Y0198500D01*
X0314668Y0198500D01*
X0314668Y0198500D01*
X0314668Y0190300D01*
X0314668Y0198500D01*
X0314668Y0198500D01*
X0314668Y0206700D01*
X0314258Y0206700D01*
X0313450Y0206572D01*
X0312672Y0206319D01*
X0311942Y0205947D01*
X0311280Y0205466D01*
X0310701Y0204888D01*
X0310220Y0204225D01*
X0309849Y0203496D01*
X0309668Y0202939D01*
X0309487Y0203496D01*
X0309115Y0204225D01*
X0308634Y0204888D01*
X0308055Y0205466D01*
X0307393Y0205947D01*
X0306664Y0206319D01*
X0305885Y0206572D01*
X0305077Y0206700D01*
X0304668Y0206700D01*
X0304668Y0198500D01*
X0309868Y0198500D01*
X0314668Y0198500D01*
X0304668Y0198500D01*
X0304668Y0198500D01*
X0304668Y0198500D01*
X0304668Y0190300D01*
X0304668Y0198500D01*
X0304668Y0198500D01*
X0304668Y0206700D01*
X0304258Y0206700D01*
X0303450Y0206572D01*
X0302672Y0206319D01*
X0301942Y0205947D01*
X0301280Y0205466D01*
X0300701Y0204888D01*
X0300220Y0204225D01*
X0299849Y0203496D01*
X0299668Y0202939D01*
X0299487Y0203496D01*
X0299115Y0204225D01*
X0298634Y0204888D01*
X0298055Y0205466D01*
X0297393Y0205947D01*
X0296664Y0206319D01*
X0295885Y0206572D01*
X0295077Y0206700D01*
X0294668Y0206700D01*
X0294668Y0198500D01*
X0299868Y0198500D01*
X0304668Y0198500D01*
X0294668Y0198500D01*
X0294668Y0198500D01*
X0294668Y0198500D01*
X0294668Y0190300D01*
X0294668Y0198500D01*
X0294668Y0198500D01*
X0294668Y0206700D01*
X0294258Y0206700D01*
X0293450Y0206572D01*
X0292672Y0206319D01*
X0291942Y0205947D01*
X0291280Y0205466D01*
X0290701Y0204888D01*
X0290220Y0204225D01*
X0289849Y0203496D01*
X0289668Y0202939D01*
X0289487Y0203496D01*
X0289115Y0204225D01*
X0288634Y0204888D01*
X0288055Y0205466D01*
X0287393Y0205947D01*
X0286664Y0206319D01*
X0285885Y0206572D01*
X0285077Y0206700D01*
X0284668Y0206700D01*
X0284668Y0198500D01*
X0289868Y0198500D01*
X0294668Y0198500D01*
X0284668Y0198500D01*
X0284668Y0198500D01*
X0284668Y0190300D01*
X0285077Y0190300D01*
X0285885Y0190428D01*
X0286664Y0190681D01*
X0286855Y0190778D01*
X0286616Y0190539D01*
X0286068Y0189216D01*
X0286068Y0187784D01*
X0286616Y0186461D01*
X0287068Y0186009D01*
X0287068Y0166100D01*
X0274659Y0166100D01*
X0274207Y0166552D01*
X0272884Y0167100D01*
X0271452Y0167100D01*
X0270128Y0166552D01*
X0269116Y0165539D01*
X0268568Y0164216D01*
X0268568Y0162784D01*
X0269116Y0161461D01*
X0270128Y0160448D01*
X0271452Y0159900D01*
X0272884Y0159900D01*
X0274207Y0160448D01*
X0274659Y0160900D01*
X0287068Y0160900D01*
X0287068Y0139287D01*
X0283276Y0133600D01*
X0274659Y0133600D01*
X0274207Y0134052D01*
X0272884Y0134600D01*
X0271452Y0134600D01*
X0270128Y0134052D01*
X0269116Y0133039D01*
X0268568Y0131716D01*
X0268568Y0130284D01*
X0268713Y0129933D01*
X0260564Y0142972D01*
X0264891Y0137202D01*
X0264964Y0137027D01*
X0265199Y0136792D01*
X0265398Y0136526D01*
X0265561Y0136430D01*
X0265695Y0136296D01*
X0266002Y0136169D01*
X0266288Y0135999D01*
X0266476Y0135972D01*
X0266651Y0135900D01*
X0266983Y0135900D01*
X0267312Y0135853D01*
X0267495Y0135900D01*
X0274677Y0135900D01*
X0275128Y0135448D01*
X0276452Y0134900D01*
X0277884Y0134900D01*
X0279207Y0135448D01*
X0280220Y0136461D01*
X0280768Y0137784D01*
X0280768Y0139216D01*
X0280220Y0140539D01*
X0279207Y0141552D01*
X0277884Y0142100D01*
X0276452Y0142100D01*
X0275128Y0141552D01*
X0274677Y0141100D01*
X0268468Y0141100D01*
X0262356Y0149249D01*
X0263128Y0148863D01*
X0263195Y0148796D01*
X0263588Y0148633D01*
X0263968Y0148443D01*
X0264063Y0148436D01*
X0264151Y0148400D01*
X0264575Y0148400D01*
X0264999Y0148370D01*
X0265090Y0148400D01*
X0267177Y0148400D01*
X0267628Y0147948D01*
X0268952Y0147400D01*
X0270384Y0147400D01*
X0271707Y0147948D01*
X0272720Y0148961D01*
X0273268Y0150284D01*
X0273268Y0151716D01*
X0272720Y0153039D01*
X0272359Y0153400D01*
X0274677Y0153400D01*
X0275128Y0152948D01*
X0276452Y0152400D01*
X0277884Y0152400D01*
X0279207Y0152948D01*
X0280220Y0153961D01*
X0280768Y0155284D01*
X0280768Y0156716D01*
X0280220Y0158039D01*
X0279207Y0159052D01*
X0277884Y0159600D01*
X0276452Y0159600D01*
X0275128Y0159052D01*
X0274677Y0158600D01*
X0270090Y0158600D01*
X0263077Y0160937D01*
X0262685Y0161100D01*
X0262590Y0161100D01*
X0262499Y0161130D01*
X0262075Y0161100D01*
X0219659Y0161100D01*
X0219207Y0161552D01*
X0217884Y0162100D01*
X0216452Y0162100D01*
X0215128Y0161552D01*
X0214768Y0161191D01*
X0214768Y0165386D01*
X0216275Y0168400D01*
X0246746Y0168400D01*
X0246836Y0168370D01*
X0247260Y0168400D01*
X0247685Y0168400D01*
X0247773Y0168436D01*
X0247868Y0168443D01*
X0248248Y0168633D01*
X0248640Y0168796D01*
X0248708Y0168863D01*
X0253248Y0171133D01*
X0253640Y0171296D01*
X0253708Y0171363D01*
X0253793Y0171406D01*
X0254071Y0171727D01*
X0254372Y0172027D01*
X0254408Y0172115D01*
X0254471Y0172187D01*
X0254605Y0172590D01*
X0254768Y0172983D01*
X0254768Y0173078D01*
X0254798Y0173168D01*
X0254768Y0173592D01*
X0254768Y0191893D01*
X0257781Y0193400D01*
X0264677Y0193400D01*
X0265128Y0192948D01*
X0266452Y0192400D01*
X0267884Y0192400D01*
X0269207Y0192948D01*
X0270220Y0193961D01*
X0270768Y0195284D01*
X0270768Y0196716D01*
X0270220Y0198039D01*
X0269207Y0199052D01*
X0267884Y0199600D01*
X0266452Y0199600D01*
X0265128Y0199052D01*
X0264677Y0198600D01*
X0257590Y0198600D01*
X0257499Y0198630D01*
X0257075Y0198600D01*
X0256651Y0198600D01*
X0256563Y0198564D01*
X0256468Y0198557D01*
X0256087Y0198367D01*
X0255695Y0198204D01*
X0255628Y0198137D01*
X0251087Y0195867D01*
X0250695Y0195704D01*
X0250628Y0195637D01*
X0250542Y0195594D01*
X0250264Y0195273D01*
X0249964Y0194973D01*
X0249927Y0194885D01*
X0249865Y0194813D01*
X0249730Y0194410D01*
X0249568Y0194017D01*
X0249568Y0193922D01*
X0249538Y0193832D01*
X0249568Y0193408D01*
X0249568Y0175107D01*
X0246554Y0173600D01*
X0214760Y0173600D01*
X0214336Y0173630D01*
X0214246Y0173600D01*
X0214151Y0173600D01*
X0213758Y0173437D01*
X0213355Y0173303D01*
X0213283Y0173241D01*
X0213195Y0173204D01*
X0212895Y0172904D01*
X0212573Y0172625D01*
X0212531Y0172540D01*
X0212464Y0172473D01*
X0212301Y0172080D01*
X0210031Y0167540D01*
X0209964Y0167473D01*
X0209801Y0167080D01*
X0209611Y0166700D01*
X0209604Y0166605D01*
X0209568Y0166517D01*
X0209568Y0166092D01*
X0209538Y0165668D01*
X0209568Y0165578D01*
X0209568Y0152983D01*
X0209964Y0152027D01*
X0239568Y0122423D01*
X0239568Y0090991D01*
X0239116Y0090539D01*
X0238568Y0089216D01*
X0238568Y0087784D01*
X0239116Y0086461D01*
X0240128Y0085448D01*
X0241452Y0084900D01*
X0242884Y0084900D01*
X0244207Y0085448D01*
X0245220Y0086461D01*
X0245768Y0087784D01*
X0245768Y0089216D01*
X0245220Y0090539D01*
X0244768Y0090991D01*
X0244768Y0124017D01*
X0244372Y0124973D01*
X0214768Y0154577D01*
X0214768Y0155809D01*
X0215128Y0155448D01*
X0216452Y0154900D01*
X0217884Y0154900D01*
X0219051Y0155384D01*
X0218568Y0154216D01*
X0218568Y0152784D01*
X0219116Y0151461D01*
X0220128Y0150448D01*
X0221452Y0149900D01*
X0222884Y0149900D01*
X0224051Y0150384D01*
X0223568Y0149216D01*
X0223568Y0147784D01*
X0224116Y0146461D01*
X0225128Y0145448D01*
X0226452Y0144900D01*
X0227884Y0144900D01*
X0229051Y0145384D01*
X0228568Y0144216D01*
X0228568Y0142784D01*
X0229116Y0141461D01*
X0230128Y0140448D01*
X0231452Y0139900D01*
X0232884Y0139900D01*
X0234051Y0140384D01*
X0233568Y0139216D01*
X0233568Y0137784D01*
X0234116Y0136461D01*
X0235128Y0135448D01*
X0236452Y0134900D01*
X0237884Y0134900D01*
X0239051Y0135384D01*
X0238568Y0134216D01*
X0238568Y0132784D01*
X0239116Y0131461D01*
X0240128Y0130448D01*
X0241452Y0129900D01*
X0242884Y0129900D01*
X0244051Y0130384D01*
X0243568Y0129216D01*
X0243568Y0127784D01*
X0244116Y0126461D01*
X0245128Y0125448D01*
X0246452Y0124900D01*
X0247884Y0124900D01*
X0248714Y0125244D01*
X0257068Y0112713D01*
X0257068Y0106185D01*
X0257021Y0105856D01*
X0257068Y0105672D01*
X0257068Y0105483D01*
X0257195Y0105176D01*
X0257277Y0104854D01*
X0257391Y0104702D01*
X0257464Y0104527D01*
X0257699Y0104292D01*
X0272068Y0085133D01*
X0272068Y0083922D01*
X0272038Y0083832D01*
X0272068Y0083408D01*
X0272068Y0082983D01*
X0272104Y0082895D01*
X0272111Y0082800D01*
X0272301Y0082420D01*
X0272464Y0082027D01*
X0272531Y0081960D01*
X0273720Y0079583D01*
X0273568Y0079216D01*
X0273568Y0077784D01*
X0274116Y0076461D01*
X0275128Y0075448D01*
X0276452Y0074900D01*
X0277884Y0074900D01*
X0279207Y0075448D01*
X0280220Y0076461D01*
X0280768Y0077784D01*
X0280768Y0079216D01*
X0280220Y0080539D01*
X0279207Y0081552D01*
X0278377Y0081896D01*
X0277268Y0084114D01*
X0277268Y0085815D01*
X0277315Y0086144D01*
X0277268Y0086328D01*
X0277268Y0086517D01*
X0277141Y0086824D01*
X0277058Y0087146D01*
X0276944Y0087298D01*
X0276872Y0087473D01*
X0276637Y0087708D01*
X0262268Y0106867D01*
X0262268Y0107462D01*
X0262339Y0107233D01*
X0262417Y0107139D01*
X0262464Y0107027D01*
X0262746Y0106745D01*
X0273568Y0093759D01*
X0273568Y0092784D01*
X0274116Y0091461D01*
X0275128Y0090448D01*
X0276452Y0089900D01*
X0277884Y0089900D01*
X0279207Y0090448D01*
X0280220Y0091461D01*
X0280768Y0092784D01*
X0280768Y0094216D01*
X0280220Y0095539D01*
X0279207Y0096552D01*
X0277884Y0097100D01*
X0277552Y0097100D01*
X0267268Y0109441D01*
X0267268Y0112486D01*
X0269801Y0107420D01*
X0269964Y0107027D01*
X0270031Y0106960D01*
X0270073Y0106875D01*
X0270395Y0106596D01*
X0270695Y0106296D01*
X0270783Y0106259D01*
X0270855Y0106197D01*
X0271258Y0106063D01*
X0271651Y0105900D01*
X0271746Y0105900D01*
X0271836Y0105870D01*
X0272260Y0105900D01*
X0274677Y0105900D01*
X0275128Y0105448D01*
X0276452Y0104900D01*
X0277884Y0104900D01*
X0279207Y0105448D01*
X0280220Y0106461D01*
X0280768Y0107784D01*
X0280768Y0109216D01*
X0280220Y0110539D01*
X0279207Y0111552D01*
X0277884Y0112100D01*
X0276452Y0112100D01*
X0275128Y0111552D01*
X0274677Y0111100D01*
X0273775Y0111100D01*
X0269668Y0119314D01*
X0269647Y0119439D01*
X0269438Y0119773D01*
X0269262Y0120125D01*
X0269166Y0120209D01*
X0268626Y0121072D01*
X0268872Y0121015D01*
X0269151Y0120900D01*
X0269372Y0120900D01*
X0269587Y0120850D01*
X0269884Y0120900D01*
X0274677Y0120900D01*
X0275128Y0120448D01*
X0276452Y0119900D01*
X0277884Y0119900D01*
X0279207Y0120448D01*
X0280220Y0121461D01*
X0280768Y0122784D01*
X0280768Y0124216D01*
X0280220Y0125539D01*
X0279207Y0126552D01*
X0277884Y0127100D01*
X0276452Y0127100D01*
X0275128Y0126552D01*
X0274677Y0126100D01*
X0271109Y0126100D01*
X0269662Y0128414D01*
X0270128Y0127948D01*
X0271452Y0127400D01*
X0272884Y0127400D01*
X0274207Y0127948D01*
X0274659Y0128400D01*
X0284413Y0128400D01*
X0284670Y0128349D01*
X0284925Y0128400D01*
X0285185Y0128400D01*
X0285427Y0128500D01*
X0285685Y0128552D01*
X0285901Y0128696D01*
X0286140Y0128796D01*
X0286326Y0128981D01*
X0286544Y0129127D01*
X0286688Y0129344D01*
X0286872Y0129527D01*
X0286972Y0129770D01*
X0291546Y0136630D01*
X0291616Y0136461D01*
X0292068Y0136009D01*
X0292068Y0110991D01*
X0291616Y0110539D01*
X0291068Y0109216D01*
X0291068Y0107784D01*
X0291616Y0106461D01*
X0292268Y0105809D01*
X0292268Y0081191D01*
X0291616Y0080539D01*
X0291068Y0079216D01*
X0291068Y0077784D01*
X0291616Y0076461D01*
X0292068Y0076009D01*
X0292068Y0063755D01*
X0292017Y0063497D01*
X0292068Y0063243D01*
X0292068Y0062983D01*
X0292168Y0062740D01*
X0292220Y0062483D01*
X0292364Y0062267D01*
X0292464Y0062027D01*
X0292649Y0061842D01*
X0292795Y0061624D01*
X0293011Y0061479D01*
X0293195Y0061296D01*
X0293437Y0061195D01*
X0298573Y0057772D01*
X0299116Y0056461D01*
X0296623Y0059072D02*
X0240266Y0059072D01*
X0240768Y0061470D02*
X0293021Y0061470D01*
X0292068Y0063869D02*
X0250128Y0063869D01*
X0250768Y0066267D02*
X0292068Y0066267D01*
X0292068Y0068666D02*
X0249593Y0068666D01*
X0244742Y0068666D02*
X0223179Y0068666D01*
X0220780Y0071064D02*
X0292068Y0071064D01*
X0292068Y0073463D02*
X0219768Y0073463D01*
X0219768Y0075861D02*
X0274715Y0075861D01*
X0273568Y0078260D02*
X0219768Y0078260D01*
X0219768Y0080658D02*
X0273182Y0080658D01*
X0272068Y0083057D02*
X0219768Y0083057D01*
X0214568Y0083057D02*
X0149568Y0083057D01*
X0149568Y0080658D02*
X0214568Y0080658D01*
X0214568Y0078260D02*
X0149568Y0078260D01*
X0149568Y0075861D02*
X0214568Y0075861D01*
X0214568Y0073463D02*
X0149568Y0073463D01*
X0148126Y0071064D02*
X0214568Y0071064D01*
X0215825Y0068666D02*
X0148249Y0068666D01*
X0147499Y0066267D02*
X0218224Y0066267D01*
X0220622Y0063869D02*
X0164297Y0063869D01*
X0163158Y0059072D02*
X0160749Y0059072D01*
X0157999Y0054275D02*
X0157287Y0054275D01*
X0157268Y0047079D02*
X0152068Y0047079D01*
X0152068Y0044681D02*
X0157268Y0044681D01*
X0157268Y0042282D02*
X0152068Y0042282D01*
X0152068Y0039884D02*
X0157268Y0039884D01*
X0157268Y0037485D02*
X0152068Y0037485D01*
X0152869Y0035087D02*
X0156466Y0035087D01*
X0154964Y0032688D02*
X0154371Y0032688D01*
X0154468Y0030290D02*
X0154868Y0030290D01*
X0154868Y0027891D02*
X0154468Y0027891D01*
X0154468Y0025493D02*
X0154868Y0025493D01*
X0155469Y0023094D02*
X0153867Y0023094D01*
X0145469Y0023094D02*
X0064445Y0023094D01*
X0063067Y0025493D02*
X0144868Y0025493D01*
X0144868Y0027891D02*
X0062424Y0027891D01*
X0066335Y0020696D02*
X0167643Y0020696D01*
X0167672Y0020681D02*
X0168450Y0020428D01*
X0169258Y0020300D01*
X0169668Y0020300D01*
X0170077Y0020300D01*
X0170885Y0020428D01*
X0171664Y0020681D01*
X0172393Y0021053D01*
X0173055Y0021534D01*
X0173634Y0022112D01*
X0174115Y0022775D01*
X0174487Y0023504D01*
X0174740Y0024282D01*
X0174868Y0025091D01*
X0174868Y0028500D01*
X0169668Y0028500D01*
X0174868Y0028500D01*
X0174868Y0031909D01*
X0174740Y0032718D01*
X0174487Y0033496D01*
X0174115Y0034225D01*
X0173634Y0034888D01*
X0173055Y0035466D01*
X0172393Y0035947D01*
X0171664Y0036319D01*
X0170885Y0036572D01*
X0170077Y0036700D01*
X0169668Y0036700D01*
X0169668Y0028500D01*
X0169668Y0028500D01*
X0169668Y0028500D01*
X0169668Y0020300D01*
X0169668Y0028500D01*
X0169668Y0028500D01*
X0169668Y0036700D01*
X0169258Y0036700D01*
X0168450Y0036572D01*
X0167672Y0036319D01*
X0166942Y0035947D01*
X0166280Y0035466D01*
X0165701Y0034888D01*
X0165220Y0034225D01*
X0164849Y0033496D01*
X0164596Y0032718D01*
X0164468Y0031909D01*
X0164468Y0028500D01*
X0164468Y0025091D01*
X0164596Y0024282D01*
X0164849Y0023504D01*
X0165220Y0022775D01*
X0165701Y0022112D01*
X0166280Y0021534D01*
X0166942Y0021053D01*
X0167672Y0020681D01*
X0169668Y0020696D02*
X0169668Y0020696D01*
X0171692Y0020696D02*
X0441977Y0020696D01*
X0439956Y0023234D02*
X0443080Y0025037D01*
X0445630Y0027588D01*
X0447434Y0030712D01*
X0448368Y0034196D01*
X0448368Y0037804D01*
X0447434Y0041288D01*
X0445630Y0044412D01*
X0443080Y0046963D01*
X0439956Y0048766D01*
X0436471Y0049700D01*
X0432864Y0049700D01*
X0429380Y0048766D01*
X0426256Y0046963D01*
X0423705Y0044412D01*
X0421901Y0041288D01*
X0420968Y0037804D01*
X0420968Y0034196D01*
X0421901Y0030712D01*
X0423705Y0027588D01*
X0426256Y0025037D01*
X0429380Y0023234D01*
X0432864Y0022300D01*
X0436471Y0022300D01*
X0439956Y0023234D01*
X0439435Y0023094D02*
X0444739Y0023094D01*
X0443535Y0025493D02*
X0446652Y0025493D01*
X0445805Y0027891D02*
X0448175Y0027891D01*
X0447190Y0030290D02*
X0449330Y0030290D01*
X0450153Y0032688D02*
X0447964Y0032688D01*
X0448368Y0035087D02*
X0450701Y0035087D01*
X0451077Y0037485D02*
X0448368Y0037485D01*
X0447810Y0039884D02*
X0451169Y0039884D01*
X0451169Y0042282D02*
X0446860Y0042282D01*
X0445362Y0044681D02*
X0451169Y0044681D01*
X0451169Y0047079D02*
X0442878Y0047079D01*
X0437301Y0049478D02*
X0451169Y0049478D01*
X0451169Y0051876D02*
X0446730Y0051876D01*
X0447783Y0054275D02*
X0451169Y0054275D01*
X0451169Y0056673D02*
X0447451Y0056673D01*
X0445496Y0059072D02*
X0451169Y0059072D01*
X0451169Y0061470D02*
X0446324Y0061470D01*
X0445702Y0060848D02*
X0447052Y0062198D01*
X0447783Y0063963D01*
X0447783Y0065872D01*
X0447052Y0067636D01*
X0445702Y0068987D01*
X0443937Y0069717D01*
X0436028Y0069717D01*
X0434264Y0068987D01*
X0432913Y0067636D01*
X0432183Y0065872D01*
X0432183Y0063963D01*
X0432913Y0062198D01*
X0434264Y0060848D01*
X0436028Y0060117D01*
X0443937Y0060117D01*
X0445702Y0060848D01*
X0447744Y0063869D02*
X0451169Y0063869D01*
X0451169Y0066267D02*
X0447619Y0066267D01*
X0446022Y0068666D02*
X0451169Y0068666D01*
X0451169Y0071064D02*
X0445918Y0071064D01*
X0445702Y0070848D02*
X0447052Y0072198D01*
X0447783Y0073963D01*
X0447783Y0075872D01*
X0447052Y0077636D01*
X0445702Y0078987D01*
X0443937Y0079717D01*
X0436028Y0079717D01*
X0434264Y0078987D01*
X0432913Y0077636D01*
X0432183Y0075872D01*
X0432183Y0073963D01*
X0432913Y0072198D01*
X0434264Y0070848D01*
X0436028Y0070117D01*
X0443937Y0070117D01*
X0445702Y0070848D01*
X0447576Y0073463D02*
X0451169Y0073463D01*
X0451169Y0075861D02*
X0447783Y0075861D01*
X0446428Y0078260D02*
X0451169Y0078260D01*
X0451169Y0080658D02*
X0445244Y0080658D01*
X0445702Y0080848D02*
X0443937Y0080117D01*
X0436028Y0080117D01*
X0434264Y0080848D01*
X0432913Y0082198D01*
X0432183Y0083963D01*
X0432183Y0085872D01*
X0432913Y0087636D01*
X0434264Y0088987D01*
X0436028Y0089717D01*
X0443937Y0089717D01*
X0445702Y0088987D01*
X0447052Y0087636D01*
X0447783Y0085872D01*
X0447783Y0083963D01*
X0447052Y0082198D01*
X0445702Y0080848D01*
X0447408Y0083057D02*
X0451169Y0083057D01*
X0451169Y0085455D02*
X0447783Y0085455D01*
X0446834Y0087854D02*
X0451169Y0087854D01*
X0451169Y0090252D02*
X0444263Y0090252D01*
X0443937Y0090117D02*
X0445702Y0090848D01*
X0447052Y0092198D01*
X0447783Y0093963D01*
X0447783Y0095872D01*
X0447052Y0097636D01*
X0445702Y0098987D01*
X0443937Y0099717D01*
X0436028Y0099717D01*
X0434264Y0098987D01*
X0432913Y0097636D01*
X0432183Y0095872D01*
X0432183Y0093963D01*
X0432913Y0092198D01*
X0434264Y0090848D01*
X0436028Y0090117D01*
X0443937Y0090117D01*
X0447239Y0092651D02*
X0451169Y0092651D01*
X0451169Y0095049D02*
X0447783Y0095049D01*
X0447130Y0097448D02*
X0451169Y0097448D01*
X0451169Y0099846D02*
X0417068Y0099846D01*
X0417068Y0097448D02*
X0432835Y0097448D01*
X0432183Y0095049D02*
X0417068Y0095049D01*
X0417068Y0092651D02*
X0432726Y0092651D01*
X0435702Y0090252D02*
X0417068Y0090252D01*
X0417068Y0087854D02*
X0433131Y0087854D01*
X0432183Y0085455D02*
X0417068Y0085455D01*
X0412268Y0085455D02*
X0397068Y0085455D01*
X0397068Y0087854D02*
X0412268Y0087854D01*
X0412268Y0090252D02*
X0397068Y0090252D01*
X0397068Y0092651D02*
X0412268Y0092651D01*
X0412268Y0095049D02*
X0397068Y0095049D01*
X0397068Y0097448D02*
X0412268Y0097448D01*
X0412268Y0099846D02*
X0397068Y0099846D01*
X0397068Y0102245D02*
X0412268Y0102245D01*
X0412268Y0104643D02*
X0397068Y0104643D01*
X0397068Y0105809D02*
X0397720Y0106461D01*
X0398268Y0107784D01*
X0398268Y0109216D01*
X0397720Y0110539D01*
X0397068Y0111191D01*
X0397068Y0135809D01*
X0397720Y0136461D01*
X0398268Y0137784D01*
X0398268Y0139216D01*
X0397720Y0140539D01*
X0397068Y0141191D01*
X0397068Y0165809D01*
X0397720Y0166461D01*
X0398268Y0167784D01*
X0398268Y0169216D01*
X0397720Y0170539D01*
X0396707Y0171552D01*
X0395384Y0172100D01*
X0393952Y0172100D01*
X0392628Y0171552D01*
X0391616Y0170539D01*
X0391068Y0169216D01*
X0391068Y0167784D01*
X0391616Y0166461D01*
X0392268Y0165809D01*
X0392268Y0141191D01*
X0391616Y0140539D01*
X0391068Y0139216D01*
X0391068Y0137784D01*
X0391616Y0136461D01*
X0392268Y0135809D01*
X0392268Y0111191D01*
X0391616Y0110539D01*
X0391068Y0109216D01*
X0391068Y0107784D01*
X0391616Y0106461D01*
X0392268Y0105809D01*
X0392268Y0081191D01*
X0392177Y0081100D01*
X0384786Y0081100D01*
X0384388Y0081136D01*
X0384272Y0081100D01*
X0384151Y0081100D01*
X0383782Y0080947D01*
X0383401Y0080828D01*
X0383307Y0080751D01*
X0383195Y0080704D01*
X0382913Y0080422D01*
X0368307Y0068251D01*
X0368195Y0068204D01*
X0367913Y0067922D01*
X0367606Y0067666D01*
X0367549Y0067559D01*
X0367464Y0067473D01*
X0367311Y0067104D01*
X0367125Y0066750D01*
X0367114Y0066629D01*
X0367068Y0066517D01*
X0367068Y0066118D01*
X0367032Y0065720D01*
X0367068Y0065604D01*
X0367068Y0060991D01*
X0366616Y0060539D01*
X0366068Y0059216D01*
X0366068Y0057784D01*
X0366616Y0056461D01*
X0367628Y0055448D01*
X0368952Y0054900D01*
X0370384Y0054900D01*
X0371707Y0055448D01*
X0372720Y0056461D01*
X0373268Y0057784D01*
X0373268Y0059216D01*
X0372720Y0060539D01*
X0372268Y0060991D01*
X0372268Y0064782D01*
X0385609Y0075900D01*
X0392177Y0075900D01*
X0392628Y0075448D01*
X0393952Y0074900D01*
X0395384Y0074900D01*
X0396707Y0075448D01*
X0397720Y0076461D01*
X0398268Y0077784D01*
X0398268Y0079216D01*
X0397720Y0080539D01*
X0397068Y0081191D01*
X0397068Y0105809D01*
X0397960Y0107042D02*
X0411375Y0107042D01*
X0411616Y0106461D02*
X0412268Y0105809D01*
X0412268Y0081191D01*
X0412177Y0081100D01*
X0406651Y0081100D01*
X0405695Y0080704D01*
X0404964Y0079973D01*
X0398591Y0073600D01*
X0384151Y0073600D01*
X0383195Y0073204D01*
X0382464Y0072473D01*
X0377464Y0067473D01*
X0377068Y0066517D01*
X0377068Y0060991D01*
X0376616Y0060539D01*
X0376068Y0059216D01*
X0376068Y0057784D01*
X0376616Y0056461D01*
X0377628Y0055448D01*
X0378952Y0054900D01*
X0380384Y0054900D01*
X0381707Y0055448D01*
X0382720Y0056461D01*
X0383268Y0057784D01*
X0383268Y0059216D01*
X0382720Y0060539D01*
X0382268Y0060991D01*
X0382268Y0064923D01*
X0385745Y0068400D01*
X0400185Y0068400D01*
X0401140Y0068796D01*
X0408245Y0075900D01*
X0412177Y0075900D01*
X0412628Y0075448D01*
X0413952Y0074900D01*
X0415384Y0074900D01*
X0416707Y0075448D01*
X0417720Y0076461D01*
X0418268Y0077784D01*
X0418268Y0079216D01*
X0417720Y0080539D01*
X0417068Y0081191D01*
X0417068Y0105809D01*
X0417720Y0106461D01*
X0418268Y0107784D01*
X0418268Y0109216D01*
X0417720Y0110539D01*
X0417068Y0111191D01*
X0417068Y0135809D01*
X0417720Y0136461D01*
X0418268Y0137784D01*
X0418268Y0139216D01*
X0417720Y0140539D01*
X0417068Y0141191D01*
X0417068Y0163309D01*
X0417720Y0163961D01*
X0418268Y0165284D01*
X0418268Y0166716D01*
X0417720Y0168039D01*
X0416707Y0169052D01*
X0415384Y0169600D01*
X0413952Y0169600D01*
X0412628Y0169052D01*
X0411616Y0168039D01*
X0411068Y0166716D01*
X0411068Y0165284D01*
X0411616Y0163961D01*
X0412268Y0163309D01*
X0412268Y0141191D01*
X0411616Y0140539D01*
X0411068Y0139216D01*
X0411068Y0137784D01*
X0411616Y0136461D01*
X0412268Y0135809D01*
X0412268Y0111191D01*
X0411616Y0110539D01*
X0411068Y0109216D01*
X0411068Y0107784D01*
X0411616Y0106461D01*
X0411161Y0109440D02*
X0398175Y0109440D01*
X0397068Y0111839D02*
X0412268Y0111839D01*
X0412268Y0114237D02*
X0397068Y0114237D01*
X0397068Y0116636D02*
X0412268Y0116636D01*
X0417068Y0116636D02*
X0430755Y0116636D01*
X0430280Y0115814D02*
X0429594Y0113251D01*
X0429594Y0110599D01*
X0430280Y0108037D01*
X0431606Y0105740D01*
X0433482Y0103864D01*
X0435779Y0102538D01*
X0438341Y0101851D01*
X0440994Y0101851D01*
X0443556Y0102538D01*
X0445853Y0103864D01*
X0447729Y0105740D01*
X0449055Y0108037D01*
X0449742Y0110599D01*
X0449742Y0113251D01*
X0449055Y0115814D01*
X0447729Y0118111D01*
X0445853Y0119986D01*
X0443556Y0121313D01*
X0440994Y0121999D01*
X0438341Y0121999D01*
X0435779Y0121313D01*
X0433482Y0119986D01*
X0431606Y0118111D01*
X0430280Y0115814D01*
X0429858Y0114237D02*
X0417068Y0114237D01*
X0417068Y0111839D02*
X0429594Y0111839D01*
X0429904Y0109440D02*
X0418175Y0109440D01*
X0417960Y0107042D02*
X0430855Y0107042D01*
X0432703Y0104643D02*
X0417068Y0104643D01*
X0417068Y0102245D02*
X0436872Y0102245D01*
X0442463Y0102245D02*
X0451169Y0102245D01*
X0451169Y0104643D02*
X0446633Y0104643D01*
X0448481Y0107042D02*
X0451169Y0107042D01*
X0451169Y0109440D02*
X0449431Y0109440D01*
X0449742Y0111839D02*
X0451169Y0111839D01*
X0451169Y0114237D02*
X0449478Y0114237D01*
X0448580Y0116636D02*
X0451169Y0116636D01*
X0451169Y0119034D02*
X0446805Y0119034D01*
X0443107Y0121433D02*
X0451169Y0121433D01*
X0451169Y0123832D02*
X0417068Y0123832D01*
X0417068Y0126230D02*
X0434767Y0126230D01*
X0434264Y0126439D02*
X0436028Y0125708D01*
X0443937Y0125708D01*
X0445702Y0126439D01*
X0447052Y0127789D01*
X0447783Y0129553D01*
X0447783Y0131463D01*
X0447052Y0133227D01*
X0445702Y0134577D01*
X0443937Y0135308D01*
X0436028Y0135308D01*
X0434264Y0134577D01*
X0432913Y0133227D01*
X0432183Y0131463D01*
X0432183Y0129553D01*
X0432913Y0127789D01*
X0434264Y0126439D01*
X0432566Y0128629D02*
X0417068Y0128629D01*
X0417068Y0131027D02*
X0432183Y0131027D01*
X0433112Y0133426D02*
X0417068Y0133426D01*
X0417083Y0135824D02*
X0435747Y0135824D01*
X0436028Y0135708D02*
X0443937Y0135708D01*
X0445702Y0136439D01*
X0447052Y0137789D01*
X0447783Y0139553D01*
X0447783Y0141463D01*
X0447052Y0143227D01*
X0445702Y0144577D01*
X0443937Y0145308D01*
X0436028Y0145308D01*
X0434264Y0144577D01*
X0432913Y0143227D01*
X0432183Y0141463D01*
X0432183Y0139553D01*
X0432913Y0137789D01*
X0434264Y0136439D01*
X0436028Y0135708D01*
X0432734Y0138223D02*
X0418268Y0138223D01*
X0417638Y0140621D02*
X0432183Y0140621D01*
X0432828Y0143020D02*
X0417068Y0143020D01*
X0417068Y0145418D02*
X0451169Y0145418D01*
X0451169Y0143020D02*
X0447138Y0143020D01*
X0447783Y0140621D02*
X0451169Y0140621D01*
X0451169Y0138223D02*
X0447232Y0138223D01*
X0444218Y0135824D02*
X0451169Y0135824D01*
X0451169Y0133426D02*
X0446853Y0133426D01*
X0447783Y0131027D02*
X0451169Y0131027D01*
X0451169Y0128629D02*
X0447400Y0128629D01*
X0445198Y0126230D02*
X0451169Y0126230D01*
X0436228Y0121433D02*
X0417068Y0121433D01*
X0417068Y0119034D02*
X0432530Y0119034D01*
X0412268Y0119034D02*
X0397068Y0119034D01*
X0397068Y0121433D02*
X0412268Y0121433D01*
X0412268Y0123832D02*
X0397068Y0123832D01*
X0397068Y0126230D02*
X0412268Y0126230D01*
X0412268Y0128629D02*
X0397068Y0128629D01*
X0397068Y0131027D02*
X0412268Y0131027D01*
X0412268Y0133426D02*
X0397068Y0133426D01*
X0397083Y0135824D02*
X0412252Y0135824D01*
X0411068Y0138223D02*
X0398268Y0138223D01*
X0397638Y0140621D02*
X0411698Y0140621D01*
X0412268Y0143020D02*
X0397068Y0143020D01*
X0397068Y0145418D02*
X0412268Y0145418D01*
X0412268Y0147817D02*
X0397068Y0147817D01*
X0397068Y0150215D02*
X0412268Y0150215D01*
X0412268Y0152614D02*
X0397068Y0152614D01*
X0392268Y0152614D02*
X0377068Y0152614D01*
X0377068Y0150215D02*
X0392268Y0150215D01*
X0392268Y0147817D02*
X0377068Y0147817D01*
X0377068Y0145418D02*
X0392268Y0145418D01*
X0392268Y0143020D02*
X0377068Y0143020D01*
X0377068Y0141191D02*
X0377068Y0165809D01*
X0377720Y0166461D01*
X0378268Y0167784D01*
X0378268Y0169216D01*
X0377720Y0170539D01*
X0376707Y0171552D01*
X0375384Y0172100D01*
X0373952Y0172100D01*
X0372628Y0171552D01*
X0371616Y0170539D01*
X0371068Y0169216D01*
X0371068Y0167784D01*
X0371616Y0166461D01*
X0372268Y0165809D01*
X0372268Y0141191D01*
X0371616Y0140539D01*
X0371068Y0139216D01*
X0371068Y0137784D01*
X0371616Y0136461D01*
X0372268Y0135809D01*
X0372268Y0111191D01*
X0371616Y0110539D01*
X0371068Y0109216D01*
X0371068Y0107784D01*
X0371616Y0106461D01*
X0372268Y0105809D01*
X0372268Y0081191D01*
X0371616Y0080539D01*
X0371068Y0079216D01*
X0371068Y0078577D01*
X0368591Y0076100D01*
X0364922Y0076100D01*
X0364665Y0076151D01*
X0364410Y0076100D01*
X0364151Y0076100D01*
X0363908Y0076000D01*
X0363651Y0075948D01*
X0363435Y0075804D01*
X0363195Y0075704D01*
X0363009Y0075519D01*
X0362791Y0075373D01*
X0362647Y0075156D01*
X0362464Y0074973D01*
X0362363Y0074730D01*
X0357647Y0067656D01*
X0357464Y0067473D01*
X0357363Y0067230D01*
X0357218Y0067012D01*
X0357167Y0066757D01*
X0357068Y0066517D01*
X0357068Y0066255D01*
X0357017Y0065997D01*
X0357068Y0065743D01*
X0357068Y0060991D01*
X0356616Y0060539D01*
X0356068Y0059216D01*
X0356068Y0057784D01*
X0356616Y0056461D01*
X0357628Y0055448D01*
X0358952Y0054900D01*
X0360384Y0054900D01*
X0361707Y0055448D01*
X0362720Y0056461D01*
X0363268Y0057784D01*
X0363268Y0059216D01*
X0362720Y0060539D01*
X0362268Y0060991D01*
X0362268Y0065213D01*
X0366059Y0070900D01*
X0370185Y0070900D01*
X0371140Y0071296D01*
X0374745Y0074900D01*
X0375384Y0074900D01*
X0376707Y0075448D01*
X0377720Y0076461D01*
X0378268Y0077784D01*
X0378268Y0079216D01*
X0377720Y0080539D01*
X0377068Y0081191D01*
X0377068Y0105809D01*
X0377720Y0106461D01*
X0378268Y0107784D01*
X0378268Y0109216D01*
X0377720Y0110539D01*
X0377068Y0111191D01*
X0377068Y0135809D01*
X0377720Y0136461D01*
X0378268Y0137784D01*
X0378268Y0139216D01*
X0377720Y0140539D01*
X0377068Y0141191D01*
X0377638Y0140621D02*
X0391698Y0140621D01*
X0391068Y0138223D02*
X0378268Y0138223D01*
X0377083Y0135824D02*
X0392252Y0135824D01*
X0392268Y0133426D02*
X0377068Y0133426D01*
X0377068Y0131027D02*
X0392268Y0131027D01*
X0392268Y0128629D02*
X0377068Y0128629D01*
X0377068Y0126230D02*
X0392268Y0126230D01*
X0392268Y0123832D02*
X0377068Y0123832D01*
X0377068Y0121433D02*
X0392268Y0121433D01*
X0392268Y0119034D02*
X0377068Y0119034D01*
X0372268Y0119034D02*
X0357068Y0119034D01*
X0357068Y0121433D02*
X0372268Y0121433D01*
X0372268Y0123832D02*
X0357068Y0123832D01*
X0357068Y0126230D02*
X0372268Y0126230D01*
X0372268Y0128629D02*
X0357068Y0128629D01*
X0357068Y0131027D02*
X0372268Y0131027D01*
X0372268Y0133426D02*
X0357068Y0133426D01*
X0357068Y0135809D02*
X0357720Y0136461D01*
X0358268Y0137784D01*
X0358268Y0139216D01*
X0357720Y0140539D01*
X0357068Y0141191D01*
X0357068Y0165809D01*
X0357720Y0166461D01*
X0358268Y0167784D01*
X0358268Y0169216D01*
X0357720Y0170539D01*
X0356707Y0171552D01*
X0355384Y0172100D01*
X0353952Y0172100D01*
X0352628Y0171552D01*
X0351616Y0170539D01*
X0351068Y0169216D01*
X0351068Y0167784D01*
X0351616Y0166461D01*
X0352268Y0165809D01*
X0352268Y0141191D01*
X0351616Y0140539D01*
X0351068Y0139216D01*
X0351068Y0137784D01*
X0351616Y0136461D01*
X0352268Y0135809D01*
X0352268Y0111191D01*
X0351616Y0110539D01*
X0351068Y0109216D01*
X0351068Y0107784D01*
X0351616Y0106461D01*
X0352268Y0105809D01*
X0352268Y0081191D01*
X0351616Y0080539D01*
X0351068Y0079216D01*
X0351068Y0077784D01*
X0351616Y0076461D01*
X0352068Y0076009D01*
X0352068Y0072077D01*
X0347464Y0067473D01*
X0347068Y0066517D01*
X0347068Y0060991D01*
X0346616Y0060539D01*
X0346068Y0059216D01*
X0346068Y0057784D01*
X0346616Y0056461D01*
X0347628Y0055448D01*
X0348952Y0054900D01*
X0350384Y0054900D01*
X0351707Y0055448D01*
X0352720Y0056461D01*
X0353268Y0057784D01*
X0353268Y0059216D01*
X0352720Y0060539D01*
X0352268Y0060991D01*
X0352268Y0064923D01*
X0356140Y0068796D01*
X0356872Y0069527D01*
X0357268Y0070483D01*
X0357268Y0076009D01*
X0357720Y0076461D01*
X0358268Y0077784D01*
X0358268Y0079216D01*
X0357720Y0080539D01*
X0357068Y0081191D01*
X0357068Y0105809D01*
X0357720Y0106461D01*
X0358268Y0107784D01*
X0358268Y0109216D01*
X0357720Y0110539D01*
X0357068Y0111191D01*
X0357068Y0135809D01*
X0357083Y0135824D02*
X0372252Y0135824D01*
X0371068Y0138223D02*
X0358268Y0138223D01*
X0357638Y0140621D02*
X0371698Y0140621D01*
X0372268Y0143020D02*
X0357068Y0143020D01*
X0357068Y0145418D02*
X0372268Y0145418D01*
X0372268Y0147817D02*
X0357068Y0147817D01*
X0357068Y0150215D02*
X0372268Y0150215D01*
X0372268Y0152614D02*
X0357068Y0152614D01*
X0352268Y0152614D02*
X0337068Y0152614D01*
X0337068Y0150215D02*
X0352268Y0150215D01*
X0352268Y0147817D02*
X0337068Y0147817D01*
X0337068Y0145418D02*
X0352268Y0145418D01*
X0352268Y0143020D02*
X0337068Y0143020D01*
X0337068Y0141191D02*
X0337068Y0165809D01*
X0337720Y0166461D01*
X0338268Y0167784D01*
X0338268Y0169216D01*
X0337720Y0170539D01*
X0336707Y0171552D01*
X0335384Y0172100D01*
X0333952Y0172100D01*
X0332628Y0171552D01*
X0331616Y0170539D01*
X0331068Y0169216D01*
X0331068Y0167784D01*
X0331616Y0166461D01*
X0332268Y0165809D01*
X0332268Y0141191D01*
X0331616Y0140539D01*
X0331068Y0139216D01*
X0331068Y0137784D01*
X0331616Y0136461D01*
X0332268Y0135809D01*
X0332268Y0111191D01*
X0331616Y0110539D01*
X0331068Y0109216D01*
X0331068Y0107784D01*
X0331616Y0106461D01*
X0332268Y0105809D01*
X0332268Y0081191D01*
X0331616Y0080539D01*
X0331068Y0079216D01*
X0331068Y0077784D01*
X0331616Y0076461D01*
X0332068Y0076009D01*
X0332068Y0070483D01*
X0332464Y0069527D01*
X0333195Y0068796D01*
X0337068Y0064923D01*
X0337068Y0060991D01*
X0336616Y0060539D01*
X0336068Y0059216D01*
X0336068Y0057784D01*
X0336616Y0056461D01*
X0337628Y0055448D01*
X0338952Y0054900D01*
X0340384Y0054900D01*
X0341707Y0055448D01*
X0342720Y0056461D01*
X0343268Y0057784D01*
X0343268Y0059216D01*
X0342720Y0060539D01*
X0342268Y0060991D01*
X0342268Y0066517D01*
X0341872Y0067473D01*
X0337268Y0072077D01*
X0337268Y0076009D01*
X0337720Y0076461D01*
X0338268Y0077784D01*
X0338268Y0079216D01*
X0337720Y0080539D01*
X0337068Y0081191D01*
X0337068Y0105809D01*
X0337720Y0106461D01*
X0338268Y0107784D01*
X0338268Y0109216D01*
X0337720Y0110539D01*
X0337068Y0111191D01*
X0337068Y0135809D01*
X0337720Y0136461D01*
X0338268Y0137784D01*
X0338268Y0139216D01*
X0337720Y0140539D01*
X0337068Y0141191D01*
X0337638Y0140621D02*
X0351698Y0140621D01*
X0351068Y0138223D02*
X0338268Y0138223D01*
X0337083Y0135824D02*
X0352252Y0135824D01*
X0352268Y0133426D02*
X0337068Y0133426D01*
X0337068Y0131027D02*
X0352268Y0131027D01*
X0352268Y0128629D02*
X0337068Y0128629D01*
X0337068Y0126230D02*
X0352268Y0126230D01*
X0352268Y0123832D02*
X0337068Y0123832D01*
X0337068Y0121433D02*
X0352268Y0121433D01*
X0352268Y0119034D02*
X0337068Y0119034D01*
X0332268Y0119034D02*
X0317068Y0119034D01*
X0317068Y0121433D02*
X0332268Y0121433D01*
X0332268Y0123832D02*
X0317068Y0123832D01*
X0317068Y0126230D02*
X0332268Y0126230D01*
X0332268Y0128629D02*
X0317068Y0128629D01*
X0317068Y0131027D02*
X0332268Y0131027D01*
X0332268Y0133426D02*
X0317068Y0133426D01*
X0317068Y0135809D02*
X0317720Y0136461D01*
X0318268Y0137784D01*
X0318268Y0139216D01*
X0317720Y0140539D01*
X0317068Y0141191D01*
X0317068Y0165809D01*
X0317720Y0166461D01*
X0318268Y0167784D01*
X0318268Y0169216D01*
X0317720Y0170539D01*
X0316707Y0171552D01*
X0315384Y0172100D01*
X0313952Y0172100D01*
X0312628Y0171552D01*
X0311616Y0170539D01*
X0311068Y0169216D01*
X0311068Y0167784D01*
X0311616Y0166461D01*
X0312268Y0165809D01*
X0312268Y0141191D01*
X0311616Y0140539D01*
X0311068Y0139216D01*
X0311068Y0137784D01*
X0311616Y0136461D01*
X0312268Y0135809D01*
X0312268Y0111191D01*
X0311616Y0110539D01*
X0311068Y0109216D01*
X0311068Y0107784D01*
X0311616Y0106461D01*
X0312268Y0105809D01*
X0312268Y0081191D01*
X0311616Y0080539D01*
X0311068Y0079216D01*
X0311068Y0077784D01*
X0311616Y0076461D01*
X0312628Y0075448D01*
X0313952Y0074900D01*
X0314591Y0074900D01*
X0322068Y0067423D01*
X0322068Y0062983D01*
X0322464Y0062027D01*
X0323195Y0061296D01*
X0326068Y0058423D01*
X0326068Y0057784D01*
X0326616Y0056461D01*
X0327628Y0055448D01*
X0328952Y0054900D01*
X0330384Y0054900D01*
X0331707Y0055448D01*
X0332720Y0056461D01*
X0333268Y0057784D01*
X0333268Y0059216D01*
X0332720Y0060539D01*
X0331707Y0061552D01*
X0330384Y0062100D01*
X0329745Y0062100D01*
X0327268Y0064577D01*
X0327268Y0069017D01*
X0326872Y0069973D01*
X0318268Y0078577D01*
X0318268Y0079216D01*
X0317720Y0080539D01*
X0317068Y0081191D01*
X0317068Y0105809D01*
X0317720Y0106461D01*
X0318268Y0107784D01*
X0318268Y0109216D01*
X0317720Y0110539D01*
X0317068Y0111191D01*
X0317068Y0135809D01*
X0317083Y0135824D02*
X0332252Y0135824D01*
X0331068Y0138223D02*
X0318268Y0138223D01*
X0317638Y0140621D02*
X0331698Y0140621D01*
X0332268Y0143020D02*
X0317068Y0143020D01*
X0317068Y0145418D02*
X0332268Y0145418D01*
X0332268Y0147817D02*
X0317068Y0147817D01*
X0317068Y0150215D02*
X0332268Y0150215D01*
X0332268Y0152614D02*
X0317068Y0152614D01*
X0312268Y0152614D02*
X0297068Y0152614D01*
X0297068Y0150215D02*
X0312268Y0150215D01*
X0312268Y0147817D02*
X0297068Y0147817D01*
X0297068Y0145418D02*
X0312268Y0145418D01*
X0312268Y0143020D02*
X0297068Y0143020D01*
X0297638Y0140621D02*
X0311698Y0140621D01*
X0311068Y0138223D02*
X0298268Y0138223D01*
X0297268Y0135824D02*
X0312252Y0135824D01*
X0312268Y0133426D02*
X0297268Y0133426D01*
X0297268Y0131027D02*
X0312268Y0131027D01*
X0312268Y0128629D02*
X0297268Y0128629D01*
X0297268Y0126230D02*
X0312268Y0126230D01*
X0312268Y0123832D02*
X0297268Y0123832D01*
X0297268Y0121433D02*
X0312268Y0121433D01*
X0312268Y0119034D02*
X0297268Y0119034D01*
X0292068Y0119034D02*
X0269807Y0119034D01*
X0271007Y0116636D02*
X0292068Y0116636D01*
X0292068Y0114237D02*
X0272206Y0114237D01*
X0273405Y0111839D02*
X0275821Y0111839D01*
X0278514Y0111839D02*
X0292068Y0111839D01*
X0291161Y0109440D02*
X0280675Y0109440D01*
X0280460Y0107042D02*
X0291375Y0107042D01*
X0292268Y0104643D02*
X0271266Y0104643D01*
X0269957Y0107042D02*
X0269267Y0107042D01*
X0268791Y0109440D02*
X0267268Y0109440D01*
X0267268Y0111839D02*
X0267591Y0111839D01*
X0262457Y0107042D02*
X0262268Y0107042D01*
X0263935Y0104643D02*
X0264497Y0104643D01*
X0265734Y0102245D02*
X0266496Y0102245D01*
X0267533Y0099846D02*
X0268495Y0099846D01*
X0269332Y0097448D02*
X0270493Y0097448D01*
X0271131Y0095049D02*
X0272492Y0095049D01*
X0272930Y0092651D02*
X0273623Y0092651D01*
X0274728Y0090252D02*
X0275601Y0090252D01*
X0276527Y0087854D02*
X0292268Y0087854D01*
X0292268Y0090252D02*
X0278734Y0090252D01*
X0280713Y0092651D02*
X0292268Y0092651D01*
X0292268Y0095049D02*
X0280423Y0095049D01*
X0277262Y0097448D02*
X0292268Y0097448D01*
X0292268Y0099846D02*
X0275263Y0099846D01*
X0273265Y0102245D02*
X0292268Y0102245D01*
X0297068Y0102245D02*
X0312268Y0102245D01*
X0312268Y0104643D02*
X0297068Y0104643D01*
X0297960Y0107042D02*
X0311375Y0107042D01*
X0311161Y0109440D02*
X0298175Y0109440D01*
X0297268Y0111839D02*
X0312268Y0111839D01*
X0312268Y0114237D02*
X0297268Y0114237D01*
X0297268Y0116636D02*
X0312268Y0116636D01*
X0317068Y0116636D02*
X0332268Y0116636D01*
X0332268Y0114237D02*
X0317068Y0114237D01*
X0317068Y0111839D02*
X0332268Y0111839D01*
X0331161Y0109440D02*
X0318175Y0109440D01*
X0317960Y0107042D02*
X0331375Y0107042D01*
X0332268Y0104643D02*
X0317068Y0104643D01*
X0317068Y0102245D02*
X0332268Y0102245D01*
X0332268Y0099846D02*
X0317068Y0099846D01*
X0317068Y0097448D02*
X0332268Y0097448D01*
X0332268Y0095049D02*
X0317068Y0095049D01*
X0317068Y0092651D02*
X0332268Y0092651D01*
X0332268Y0090252D02*
X0317068Y0090252D01*
X0317068Y0087854D02*
X0332268Y0087854D01*
X0332268Y0085455D02*
X0317068Y0085455D01*
X0312268Y0085455D02*
X0297068Y0085455D01*
X0297068Y0087854D02*
X0312268Y0087854D01*
X0312268Y0090252D02*
X0297068Y0090252D01*
X0297068Y0092651D02*
X0312268Y0092651D01*
X0312268Y0095049D02*
X0297068Y0095049D01*
X0297068Y0097448D02*
X0312268Y0097448D01*
X0312268Y0099846D02*
X0297068Y0099846D01*
X0292268Y0085455D02*
X0277268Y0085455D01*
X0271826Y0085455D02*
X0244214Y0085455D01*
X0245768Y0087854D02*
X0270027Y0087854D01*
X0268228Y0090252D02*
X0245338Y0090252D01*
X0244768Y0092651D02*
X0266430Y0092651D01*
X0264631Y0095049D02*
X0244768Y0095049D01*
X0244768Y0097448D02*
X0262832Y0097448D01*
X0261033Y0099846D02*
X0244768Y0099846D01*
X0244768Y0102245D02*
X0259234Y0102245D01*
X0257415Y0104643D02*
X0244768Y0104643D01*
X0244768Y0107042D02*
X0257068Y0107042D01*
X0257068Y0109440D02*
X0244768Y0109440D01*
X0244768Y0111839D02*
X0257068Y0111839D01*
X0256051Y0114237D02*
X0244768Y0114237D01*
X0244768Y0116636D02*
X0254452Y0116636D01*
X0252853Y0119034D02*
X0244768Y0119034D01*
X0244768Y0121433D02*
X0251254Y0121433D01*
X0249655Y0123832D02*
X0244768Y0123832D01*
X0244347Y0126230D02*
X0243115Y0126230D01*
X0243568Y0128629D02*
X0240716Y0128629D01*
X0239549Y0131027D02*
X0238318Y0131027D01*
X0238568Y0133426D02*
X0235919Y0133426D01*
X0234752Y0135824D02*
X0233521Y0135824D01*
X0233568Y0138223D02*
X0231122Y0138223D01*
X0229955Y0140621D02*
X0228724Y0140621D01*
X0228568Y0143020D02*
X0226325Y0143020D01*
X0225201Y0145418D02*
X0223927Y0145418D01*
X0223568Y0147817D02*
X0221528Y0147817D01*
X0220691Y0150215D02*
X0219130Y0150215D01*
X0218638Y0152614D02*
X0216731Y0152614D01*
X0211776Y0150215D02*
X0208068Y0150215D01*
X0208068Y0147817D02*
X0214174Y0147817D01*
X0216573Y0145418D02*
X0208068Y0145418D01*
X0208068Y0143020D02*
X0218971Y0143020D01*
X0221370Y0140621D02*
X0208068Y0140621D01*
X0208068Y0138223D02*
X0223768Y0138223D01*
X0226167Y0135824D02*
X0208068Y0135824D01*
X0208068Y0133426D02*
X0228565Y0133426D01*
X0230964Y0131027D02*
X0208068Y0131027D01*
X0208068Y0128629D02*
X0233362Y0128629D01*
X0235761Y0126230D02*
X0208068Y0126230D01*
X0208068Y0123832D02*
X0238159Y0123832D01*
X0239568Y0121433D02*
X0208068Y0121433D01*
X0208068Y0119034D02*
X0239568Y0119034D01*
X0239568Y0116636D02*
X0208068Y0116636D01*
X0208068Y0114237D02*
X0239568Y0114237D01*
X0239568Y0111839D02*
X0208068Y0111839D01*
X0208068Y0109440D02*
X0239568Y0109440D01*
X0239568Y0107042D02*
X0208068Y0107042D01*
X0208068Y0104643D02*
X0239568Y0104643D01*
X0239568Y0102245D02*
X0208231Y0102245D01*
X0210630Y0099846D02*
X0239568Y0099846D01*
X0239568Y0097448D02*
X0213028Y0097448D01*
X0215427Y0095049D02*
X0239568Y0095049D01*
X0239568Y0092651D02*
X0218023Y0092651D01*
X0220947Y0090252D02*
X0238997Y0090252D01*
X0238568Y0087854D02*
X0221330Y0087854D01*
X0220009Y0085455D02*
X0240121Y0085455D01*
X0214326Y0085455D02*
X0149568Y0085455D01*
X0144768Y0085455D02*
X0137068Y0085455D01*
X0137068Y0087854D02*
X0144768Y0087854D01*
X0144768Y0090252D02*
X0137068Y0090252D01*
X0137068Y0092651D02*
X0144768Y0092651D01*
X0144768Y0095049D02*
X0137068Y0095049D01*
X0138129Y0097448D02*
X0144768Y0097448D01*
X0144768Y0099846D02*
X0138007Y0099846D01*
X0138791Y0102245D02*
X0130568Y0102245D01*
X0130568Y0104643D02*
X0138745Y0104643D01*
X0139768Y0107042D02*
X0130568Y0107042D01*
X0130568Y0109440D02*
X0139768Y0109440D01*
X0139768Y0111839D02*
X0130568Y0111839D01*
X0130568Y0114237D02*
X0139768Y0114237D01*
X0139768Y0116636D02*
X0135272Y0116636D01*
X0135749Y0119034D02*
X0139768Y0119034D01*
X0139768Y0121433D02*
X0134568Y0121433D01*
X0134568Y0123832D02*
X0139768Y0123832D01*
X0139768Y0126230D02*
X0134568Y0126230D01*
X0134568Y0128629D02*
X0139768Y0128629D01*
X0139768Y0131027D02*
X0134568Y0131027D01*
X0134568Y0133426D02*
X0139768Y0133426D01*
X0139768Y0135824D02*
X0134568Y0135824D01*
X0134568Y0138223D02*
X0134881Y0138223D01*
X0139455Y0138223D02*
X0139768Y0138223D01*
X0144568Y0138223D02*
X0152268Y0138223D01*
X0151087Y0140621D02*
X0144568Y0140621D01*
X0144568Y0143020D02*
X0151628Y0143020D01*
X0157707Y0143020D02*
X0159128Y0143020D01*
X0159132Y0143029D02*
X0158587Y0141712D01*
X0158587Y0140288D01*
X0159132Y0138971D01*
X0160139Y0137964D01*
X0161455Y0137419D01*
X0162880Y0137419D01*
X0164196Y0137964D01*
X0165204Y0138971D01*
X0165749Y0140288D01*
X0165749Y0141712D01*
X0165204Y0143029D01*
X0164568Y0143664D01*
X0164568Y0152854D01*
X0165468Y0153754D01*
X0165468Y0161246D01*
X0164568Y0162146D01*
X0164568Y0174854D01*
X0165468Y0175754D01*
X0165468Y0183246D01*
X0164489Y0184225D01*
X0164352Y0184497D01*
X0164202Y0184859D01*
X0164140Y0184922D01*
X0161852Y0189497D01*
X0161702Y0189859D01*
X0161640Y0189922D01*
X0161601Y0190000D01*
X0161305Y0190257D01*
X0161027Y0190535D01*
X0160946Y0190568D01*
X0160880Y0190626D01*
X0160507Y0190750D01*
X0160145Y0190900D01*
X0160057Y0190900D01*
X0159974Y0190928D01*
X0159582Y0190900D01*
X0157332Y0190900D01*
X0156696Y0191536D01*
X0155380Y0192081D01*
X0153955Y0192081D01*
X0152639Y0191536D01*
X0151632Y0190529D01*
X0151087Y0189212D01*
X0151087Y0187788D01*
X0151632Y0186471D01*
X0152639Y0185464D01*
X0153955Y0184919D01*
X0155380Y0184919D01*
X0156696Y0185464D01*
X0157332Y0186100D01*
X0158184Y0186100D01*
X0159364Y0183742D01*
X0158868Y0183246D01*
X0158868Y0175754D01*
X0159768Y0174854D01*
X0159768Y0162146D01*
X0158868Y0161246D01*
X0158868Y0153754D01*
X0159768Y0152854D01*
X0159768Y0143664D01*
X0159132Y0143029D01*
X0158587Y0140621D02*
X0158249Y0140621D01*
X0157068Y0138223D02*
X0159881Y0138223D01*
X0160378Y0137200D02*
X0159819Y0137050D01*
X0159317Y0136760D01*
X0158907Y0136351D01*
X0158618Y0135849D01*
X0158468Y0135290D01*
X0158468Y0132000D01*
X0158468Y0128710D01*
X0158618Y0128151D01*
X0158907Y0127649D01*
X0159317Y0127240D01*
X0159819Y0126950D01*
X0160378Y0126800D01*
X0162168Y0126800D01*
X0163957Y0126800D01*
X0164517Y0126950D01*
X0165019Y0127240D01*
X0165428Y0127649D01*
X0165718Y0128151D01*
X0165868Y0128710D01*
X0165868Y0132000D01*
X0165868Y0135290D01*
X0165718Y0135849D01*
X0165428Y0136351D01*
X0165019Y0136760D01*
X0164517Y0137050D01*
X0163957Y0137200D01*
X0162168Y0137200D01*
X0162168Y0132000D01*
X0165868Y0132000D01*
X0162168Y0132000D01*
X0162168Y0132000D01*
X0162168Y0126800D01*
X0162168Y0132000D01*
X0162168Y0132000D01*
X0162168Y0132000D01*
X0162168Y0137200D01*
X0160378Y0137200D01*
X0158611Y0135824D02*
X0157071Y0135824D01*
X0158468Y0133426D02*
X0155193Y0133426D01*
X0158468Y0132000D02*
X0162168Y0132000D01*
X0158468Y0132000D01*
X0158468Y0131027D02*
X0151408Y0131027D01*
X0150468Y0128629D02*
X0158490Y0128629D01*
X0162168Y0128629D02*
X0162168Y0128629D01*
X0162168Y0131027D02*
X0162168Y0131027D01*
X0162168Y0132000D02*
X0162168Y0132000D01*
X0162168Y0133426D02*
X0162168Y0133426D01*
X0162168Y0135824D02*
X0162168Y0135824D01*
X0164455Y0138223D02*
X0201268Y0138223D01*
X0201268Y0140621D02*
X0165749Y0140621D01*
X0165207Y0143020D02*
X0201268Y0143020D01*
X0201268Y0145418D02*
X0164568Y0145418D01*
X0164568Y0147817D02*
X0201268Y0147817D01*
X0201268Y0150215D02*
X0164568Y0150215D01*
X0164568Y0152614D02*
X0201268Y0152614D01*
X0208068Y0152614D02*
X0209721Y0152614D01*
X0209568Y0155012D02*
X0208068Y0155012D01*
X0208068Y0157411D02*
X0209568Y0157411D01*
X0209568Y0159809D02*
X0208068Y0159809D01*
X0208068Y0162208D02*
X0209568Y0162208D01*
X0209568Y0164606D02*
X0208068Y0164606D01*
X0208068Y0167005D02*
X0209763Y0167005D01*
X0210962Y0169403D02*
X0208068Y0169403D01*
X0208068Y0171802D02*
X0212162Y0171802D01*
X0208068Y0174200D02*
X0247754Y0174200D01*
X0249568Y0176599D02*
X0208068Y0176599D01*
X0201268Y0176599D02*
X0189468Y0176599D01*
X0189468Y0176512D02*
X0186656Y0173700D01*
X0182679Y0173700D01*
X0179868Y0176512D01*
X0179868Y0180488D01*
X0182679Y0183300D01*
X0186656Y0183300D01*
X0189468Y0180488D01*
X0189468Y0176512D01*
X0189468Y0178997D02*
X0200992Y0178997D01*
X0200506Y0181396D02*
X0188560Y0181396D01*
X0186656Y0183700D02*
X0182679Y0183700D01*
X0179868Y0186512D01*
X0179868Y0190488D01*
X0182679Y0193300D01*
X0186656Y0193300D01*
X0189468Y0190488D01*
X0189468Y0186512D01*
X0186656Y0183700D01*
X0186750Y0183794D02*
X0201576Y0183794D01*
X0207760Y0183794D02*
X0234871Y0183794D01*
X0239465Y0183794D02*
X0249568Y0183794D01*
X0249568Y0181396D02*
X0240768Y0181396D01*
X0240235Y0178997D02*
X0249568Y0178997D01*
X0254768Y0178997D02*
X0257068Y0178997D01*
X0257068Y0181009D02*
X0257068Y0168491D01*
X0256616Y0168039D01*
X0256068Y0166716D01*
X0256068Y0165284D01*
X0256616Y0163961D01*
X0257628Y0162948D01*
X0258952Y0162400D01*
X0260384Y0162400D01*
X0261707Y0162948D01*
X0262720Y0163961D01*
X0263268Y0165284D01*
X0263268Y0166716D01*
X0262784Y0167884D01*
X0263952Y0167400D01*
X0265384Y0167400D01*
X0266707Y0167948D01*
X0267720Y0168961D01*
X0268268Y0170284D01*
X0268268Y0171716D01*
X0267720Y0173039D01*
X0267268Y0173491D01*
X0267268Y0177713D01*
X0275396Y0189905D01*
X0276707Y0190448D01*
X0277720Y0191461D01*
X0278268Y0192784D01*
X0278268Y0194216D01*
X0277720Y0195539D01*
X0276707Y0196552D01*
X0275384Y0197100D01*
X0273952Y0197100D01*
X0272628Y0196552D01*
X0271616Y0195539D01*
X0271068Y0194216D01*
X0271068Y0192787D01*
X0262647Y0180156D01*
X0262464Y0179973D01*
X0262363Y0179730D01*
X0262268Y0179587D01*
X0262268Y0181009D01*
X0262720Y0181461D01*
X0263268Y0182784D01*
X0263268Y0184216D01*
X0262720Y0185539D01*
X0261707Y0186552D01*
X0260384Y0187100D01*
X0258952Y0187100D01*
X0257628Y0186552D01*
X0256616Y0185539D01*
X0256068Y0184216D01*
X0256068Y0182784D01*
X0256616Y0181461D01*
X0257068Y0181009D01*
X0256681Y0181396D02*
X0254768Y0181396D01*
X0254768Y0183794D02*
X0256068Y0183794D01*
X0257269Y0186193D02*
X0254768Y0186193D01*
X0249568Y0186193D02*
X0189149Y0186193D01*
X0182585Y0183794D02*
X0176750Y0183794D01*
X0176656Y0183700D02*
X0179468Y0186512D01*
X0179468Y0190488D01*
X0176656Y0193300D01*
X0172679Y0193300D01*
X0169868Y0190488D01*
X0169868Y0186512D01*
X0172679Y0183700D01*
X0176656Y0183700D01*
X0176656Y0183300D02*
X0172679Y0183300D01*
X0169868Y0180488D01*
X0169868Y0176512D01*
X0172679Y0173700D01*
X0176656Y0173700D01*
X0179468Y0176512D01*
X0179468Y0180488D01*
X0176656Y0183300D01*
X0178560Y0181396D02*
X0180775Y0181396D01*
X0179868Y0178997D02*
X0179468Y0178997D01*
X0179468Y0176599D02*
X0179868Y0176599D01*
X0182179Y0174200D02*
X0177156Y0174200D01*
X0172179Y0174200D02*
X0164568Y0174200D01*
X0164568Y0171802D02*
X0201268Y0171802D01*
X0201268Y0174200D02*
X0187156Y0174200D01*
X0201268Y0169403D02*
X0164568Y0169403D01*
X0164568Y0167005D02*
X0201268Y0167005D01*
X0201268Y0164606D02*
X0164568Y0164606D01*
X0164568Y0162208D02*
X0201268Y0162208D01*
X0201268Y0159809D02*
X0165468Y0159809D01*
X0165468Y0157411D02*
X0201268Y0157411D01*
X0201268Y0155012D02*
X0165468Y0155012D01*
X0158868Y0155012D02*
X0150468Y0155012D01*
X0150468Y0157411D02*
X0158868Y0157411D01*
X0158868Y0159809D02*
X0150468Y0159809D01*
X0149568Y0162208D02*
X0159768Y0162208D01*
X0159768Y0164606D02*
X0149568Y0164606D01*
X0149568Y0167005D02*
X0159768Y0167005D01*
X0159768Y0169403D02*
X0149568Y0169403D01*
X0149568Y0171802D02*
X0159768Y0171802D01*
X0159768Y0174200D02*
X0149568Y0174200D01*
X0150468Y0176599D02*
X0158868Y0176599D01*
X0158868Y0178997D02*
X0150468Y0178997D01*
X0152026Y0181396D02*
X0158868Y0181396D01*
X0159337Y0183794D02*
X0151549Y0183794D01*
X0151910Y0186193D02*
X0150626Y0186193D01*
X0150749Y0188591D02*
X0151087Y0188591D01*
X0152093Y0190990D02*
X0149742Y0190990D01*
X0147950Y0193388D02*
X0249568Y0193388D01*
X0249568Y0190990D02*
X0188966Y0190990D01*
X0189468Y0188591D02*
X0249568Y0188591D01*
X0254768Y0188591D02*
X0268270Y0188591D01*
X0269869Y0190990D02*
X0254768Y0190990D01*
X0257758Y0193388D02*
X0264688Y0193388D01*
X0269647Y0193388D02*
X0271068Y0193388D01*
X0270768Y0195787D02*
X0271863Y0195787D01*
X0270073Y0198185D02*
X0279468Y0198185D01*
X0279468Y0198500D02*
X0279468Y0195091D01*
X0279596Y0194282D01*
X0279849Y0193504D01*
X0280220Y0192775D01*
X0280701Y0192112D01*
X0281280Y0191534D01*
X0281942Y0191053D01*
X0282672Y0190681D01*
X0283450Y0190428D01*
X0284258Y0190300D01*
X0284668Y0190300D01*
X0284668Y0198500D01*
X0284668Y0198500D01*
X0284668Y0198500D01*
X0284668Y0206700D01*
X0284258Y0206700D01*
X0283450Y0206572D01*
X0282672Y0206319D01*
X0281942Y0205947D01*
X0281280Y0205466D01*
X0280701Y0204888D01*
X0280220Y0204225D01*
X0279849Y0203496D01*
X0279596Y0202718D01*
X0279468Y0201909D01*
X0279468Y0198500D01*
X0284668Y0198500D01*
X0284668Y0198500D01*
X0279468Y0198500D01*
X0279468Y0200584D02*
X0227675Y0200584D01*
X0228268Y0198185D02*
X0255676Y0198185D01*
X0250895Y0195787D02*
X0227046Y0195787D01*
X0222290Y0195787D02*
X0150349Y0195787D01*
X0145959Y0198185D02*
X0141531Y0198185D01*
X0141532Y0195787D02*
X0143560Y0195787D01*
X0141162Y0193388D02*
X0140552Y0193388D01*
X0135752Y0193388D02*
X0063196Y0193388D01*
X0062608Y0190990D02*
X0123771Y0190990D01*
X0123006Y0188591D02*
X0073971Y0188591D01*
X0073958Y0188641D02*
X0073668Y0189142D01*
X0073259Y0189552D01*
X0072757Y0189841D01*
X0072198Y0189991D01*
X0068838Y0189991D01*
X0068838Y0184721D01*
X0074108Y0184721D01*
X0074108Y0188081D01*
X0073958Y0188641D01*
X0068838Y0188591D02*
X0067498Y0188591D01*
X0067498Y0189991D02*
X0064138Y0189991D01*
X0063578Y0189841D01*
X0063077Y0189552D01*
X0062667Y0189142D01*
X0062377Y0188641D01*
X0062228Y0188081D01*
X0062228Y0184721D01*
X0067498Y0184721D01*
X0067498Y0189991D01*
X0062364Y0188591D02*
X0062060Y0188591D01*
X0062228Y0186193D02*
X0061886Y0186193D01*
X0061868Y0183794D02*
X0067498Y0183794D01*
X0067498Y0183381D02*
X0062228Y0183381D01*
X0062228Y0180021D01*
X0062377Y0179462D01*
X0062667Y0178960D01*
X0063077Y0178551D01*
X0063578Y0178261D01*
X0064138Y0178111D01*
X0067498Y0178111D01*
X0067498Y0183381D01*
X0068838Y0183381D01*
X0068838Y0184721D01*
X0067498Y0184721D01*
X0067498Y0183381D01*
X0068838Y0183381D02*
X0068838Y0178111D01*
X0072198Y0178111D01*
X0072757Y0178261D01*
X0073259Y0178551D01*
X0073668Y0178960D01*
X0073958Y0179462D01*
X0074108Y0180021D01*
X0074108Y0183381D01*
X0068838Y0183381D01*
X0068838Y0183794D02*
X0102368Y0183794D01*
X0102368Y0185488D02*
X0102368Y0181512D01*
X0105179Y0178700D01*
X0109156Y0178700D01*
X0111968Y0181512D01*
X0111968Y0185488D01*
X0109156Y0188300D01*
X0105179Y0188300D01*
X0102368Y0185488D01*
X0103072Y0186193D02*
X0074108Y0186193D01*
X0068838Y0186193D02*
X0067498Y0186193D01*
X0067498Y0181396D02*
X0068838Y0181396D01*
X0068838Y0178997D02*
X0067498Y0178997D01*
X0067868Y0177700D02*
X0065762Y0177700D01*
X0065163Y0177581D01*
X0064599Y0177347D01*
X0064092Y0177008D01*
X0063660Y0176576D01*
X0063321Y0176068D01*
X0063087Y0175504D01*
X0062968Y0174905D01*
X0062968Y0172800D01*
X0067868Y0172800D01*
X0067868Y0177700D01*
X0068468Y0177700D02*
X0068468Y0172800D01*
X0073368Y0172800D01*
X0073368Y0174905D01*
X0073249Y0175504D01*
X0073015Y0176068D01*
X0072676Y0176576D01*
X0072244Y0177008D01*
X0071736Y0177347D01*
X0071172Y0177581D01*
X0070573Y0177700D01*
X0068468Y0177700D01*
X0068468Y0176599D02*
X0067868Y0176599D01*
X0067868Y0174200D02*
X0068468Y0174200D01*
X0068468Y0172800D02*
X0067868Y0172800D01*
X0067868Y0172200D01*
X0068468Y0172200D01*
X0068468Y0172800D01*
X0068468Y0172200D02*
X0073368Y0172200D01*
X0073368Y0170095D01*
X0073249Y0169496D01*
X0073015Y0168932D01*
X0072727Y0168500D01*
X0073015Y0168068D01*
X0073249Y0167504D01*
X0073368Y0166905D01*
X0073368Y0164800D01*
X0068468Y0164800D01*
X0068468Y0164200D01*
X0073368Y0164200D01*
X0073368Y0162095D01*
X0073249Y0161496D01*
X0073015Y0160932D01*
X0072676Y0160424D01*
X0072244Y0159992D01*
X0071736Y0159653D01*
X0071172Y0159419D01*
X0070573Y0159300D01*
X0068468Y0159300D01*
X0068468Y0164200D01*
X0067868Y0164200D01*
X0067868Y0159300D01*
X0065762Y0159300D01*
X0065163Y0159419D01*
X0064599Y0159653D01*
X0064092Y0159992D01*
X0063660Y0160424D01*
X0063321Y0160932D01*
X0063087Y0161496D01*
X0062968Y0162095D01*
X0062968Y0164200D01*
X0067868Y0164200D01*
X0067868Y0164800D01*
X0067868Y0172200D01*
X0062968Y0172200D01*
X0062968Y0170095D01*
X0063087Y0169496D01*
X0063321Y0168932D01*
X0063609Y0168500D01*
X0063321Y0168068D01*
X0063087Y0167504D01*
X0062968Y0166905D01*
X0062968Y0164800D01*
X0067868Y0164800D01*
X0068468Y0164800D01*
X0068468Y0167300D01*
X0068468Y0172200D01*
X0068468Y0171802D02*
X0067868Y0171802D01*
X0067868Y0169403D02*
X0068468Y0169403D01*
X0068468Y0167005D02*
X0067868Y0167005D01*
X0067868Y0164606D02*
X0061868Y0164606D01*
X0061868Y0162208D02*
X0062968Y0162208D01*
X0061868Y0159809D02*
X0064365Y0159809D01*
X0064138Y0158889D02*
X0063578Y0158739D01*
X0063077Y0158449D01*
X0062667Y0158040D01*
X0062377Y0157538D01*
X0062228Y0156979D01*
X0062228Y0153619D01*
X0067498Y0153619D01*
X0067498Y0158889D01*
X0064138Y0158889D01*
X0062343Y0157411D02*
X0061868Y0157411D01*
X0061868Y0155012D02*
X0062228Y0155012D01*
X0067498Y0155012D02*
X0068838Y0155012D01*
X0068838Y0153619D02*
X0067498Y0153619D01*
X0067498Y0152279D01*
X0068838Y0152279D01*
X0068838Y0153619D01*
X0074108Y0153619D01*
X0074108Y0156979D01*
X0073958Y0157538D01*
X0073668Y0158040D01*
X0073259Y0158449D01*
X0072757Y0158739D01*
X0072198Y0158889D01*
X0068838Y0158889D01*
X0068838Y0153619D01*
X0068838Y0152614D02*
X0077068Y0152614D01*
X0077068Y0151257D02*
X0077017Y0151003D01*
X0077068Y0150745D01*
X0077068Y0150483D01*
X0077167Y0150243D01*
X0077218Y0149988D01*
X0077363Y0149770D01*
X0077464Y0149527D01*
X0077647Y0149344D01*
X0081087Y0144184D01*
X0081087Y0142788D01*
X0081632Y0141471D01*
X0082639Y0140464D01*
X0083955Y0139919D01*
X0085380Y0139919D01*
X0086696Y0140464D01*
X0087704Y0141471D01*
X0088249Y0142788D01*
X0088249Y0144212D01*
X0087704Y0145529D01*
X0086696Y0146536D01*
X0085415Y0147067D01*
X0082268Y0151787D01*
X0082268Y0160834D01*
X0083405Y0160834D01*
X0084460Y0161888D01*
X0084460Y0163541D01*
X0086233Y0163541D01*
X0089768Y0160006D01*
X0089768Y0138664D01*
X0089132Y0138029D01*
X0088587Y0136712D01*
X0088587Y0135288D01*
X0089132Y0133971D01*
X0090139Y0132964D01*
X0091455Y0132419D01*
X0092880Y0132419D01*
X0094196Y0132964D01*
X0094768Y0133536D01*
X0094768Y0131431D01*
X0086374Y0123037D01*
X0085804Y0123037D01*
X0085590Y0123552D01*
X0084245Y0124897D01*
X0084771Y0125279D01*
X0085428Y0125936D01*
X0085974Y0126687D01*
X0086395Y0127515D01*
X0086682Y0128398D01*
X0086828Y0129315D01*
X0086828Y0129779D01*
X0080928Y0129779D01*
X0080928Y0129780D01*
X0080927Y0129780D01*
X0080927Y0129779D01*
X0075028Y0129779D01*
X0075028Y0129315D01*
X0075173Y0128398D01*
X0075460Y0127515D01*
X0075881Y0126687D01*
X0076427Y0125936D01*
X0077084Y0125279D01*
X0077610Y0124897D01*
X0076265Y0123552D01*
X0075428Y0121531D01*
X0075428Y0119343D01*
X0076265Y0117322D01*
X0077586Y0116000D01*
X0076265Y0114678D01*
X0075428Y0112657D01*
X0075428Y0110469D01*
X0076265Y0108447D01*
X0077812Y0106900D01*
X0077833Y0106892D01*
X0077812Y0106883D01*
X0076265Y0105336D01*
X0075428Y0103314D01*
X0075428Y0101126D01*
X0075826Y0100165D01*
X0073096Y0101296D01*
X0069861Y0101296D01*
X0066873Y0100058D01*
X0064586Y0097771D01*
X0063348Y0094783D01*
X0063348Y0091548D01*
X0064586Y0088560D01*
X0066873Y0086272D01*
X0069861Y0085035D01*
X0073096Y0085035D01*
X0076084Y0086272D01*
X0078372Y0088560D01*
X0079609Y0091548D01*
X0079609Y0094783D01*
X0078594Y0097234D01*
X0079834Y0096720D01*
X0082022Y0096720D01*
X0084043Y0097558D01*
X0085590Y0099105D01*
X0086428Y0101126D01*
X0086428Y0103314D01*
X0085590Y0105336D01*
X0084043Y0106883D01*
X0084022Y0106892D01*
X0084043Y0106900D01*
X0085590Y0108447D01*
X0085756Y0108848D01*
X0103587Y0093185D01*
X0103587Y0092788D01*
X0104132Y0091471D01*
X0104568Y0091036D01*
X0104568Y0073767D01*
X0104116Y0073315D01*
X0103568Y0071992D01*
X0103568Y0070559D01*
X0104116Y0069236D01*
X0105128Y0068224D01*
X0106452Y0067676D01*
X0107884Y0067676D01*
X0109207Y0068224D01*
X0110220Y0069236D01*
X0110768Y0070559D01*
X0110768Y0071992D01*
X0110220Y0073315D01*
X0109768Y0073767D01*
X0109768Y0091036D01*
X0110204Y0091471D01*
X0110749Y0092788D01*
X0110749Y0094212D01*
X0110204Y0095529D01*
X0109196Y0096536D01*
X0107880Y0097081D01*
X0107031Y0097081D01*
X0088384Y0113461D01*
X0088077Y0113767D01*
X0087997Y0113800D01*
X0087932Y0113858D01*
X0087522Y0113997D01*
X0087122Y0114163D01*
X0087035Y0114163D01*
X0086953Y0114191D01*
X0086521Y0114163D01*
X0085804Y0114163D01*
X0085590Y0114678D01*
X0084269Y0116000D01*
X0085590Y0117322D01*
X0085804Y0117837D01*
X0086727Y0117837D01*
X0112068Y0094848D01*
X0112068Y0080991D01*
X0111616Y0080539D01*
X0111068Y0079216D01*
X0111068Y0077784D01*
X0111616Y0076461D01*
X0112628Y0075448D01*
X0113952Y0074900D01*
X0115384Y0074900D01*
X0116707Y0075448D01*
X0117720Y0076461D01*
X0118268Y0077784D01*
X0118268Y0079216D01*
X0117720Y0080539D01*
X0117268Y0080991D01*
X0117268Y0095548D01*
X0117290Y0095610D01*
X0117268Y0096063D01*
X0117268Y0096517D01*
X0117243Y0096578D01*
X0117239Y0096643D01*
X0117046Y0097053D01*
X0116872Y0097473D01*
X0116826Y0097519D01*
X0116798Y0097578D01*
X0116462Y0097883D01*
X0116140Y0098204D01*
X0116080Y0098229D01*
X0091056Y0120931D01*
X0099202Y0129078D01*
X0099568Y0129960D01*
X0099568Y0146036D01*
X0100139Y0145464D01*
X0101455Y0144919D01*
X0102880Y0144919D01*
X0104196Y0145464D01*
X0105204Y0146471D01*
X0105749Y0147788D01*
X0105749Y0148700D01*
X0109156Y0148700D01*
X0111968Y0151512D01*
X0111968Y0155488D01*
X0109156Y0158300D01*
X0105179Y0158300D01*
X0104768Y0157888D01*
X0104768Y0159112D01*
X0105179Y0158700D01*
X0109156Y0158700D01*
X0111968Y0161512D01*
X0111968Y0165488D01*
X0111556Y0165900D01*
X0112685Y0165900D01*
X0112846Y0165967D01*
X0112368Y0165488D01*
X0112368Y0161512D01*
X0115179Y0158700D01*
X0119156Y0158700D01*
X0121968Y0161512D01*
X0121968Y0165488D01*
X0119156Y0168300D01*
X0115645Y0168300D01*
X0116045Y0168700D01*
X0119156Y0168700D01*
X0121968Y0171512D01*
X0121968Y0175488D01*
X0119156Y0178300D01*
X0115179Y0178300D01*
X0112368Y0175488D01*
X0112368Y0172377D01*
X0111968Y0171977D01*
X0111968Y0175488D01*
X0109156Y0178300D01*
X0105179Y0178300D01*
X0102368Y0175488D01*
X0102368Y0171512D01*
X0103185Y0170694D01*
X0102464Y0169973D01*
X0099964Y0167473D01*
X0099568Y0166517D01*
X0099568Y0150964D01*
X0099568Y0161477D01*
X0099202Y0162359D01*
X0098527Y0163035D01*
X0091027Y0170535D01*
X0090145Y0170900D01*
X0084460Y0170900D01*
X0084460Y0171588D01*
X0084710Y0172021D01*
X0084860Y0172580D01*
X0084860Y0173618D01*
X0079668Y0173618D01*
X0079668Y0173618D01*
X0084860Y0173618D01*
X0084860Y0174656D01*
X0084710Y0175215D01*
X0084420Y0175717D01*
X0084011Y0176127D01*
X0083509Y0176416D01*
X0082949Y0176566D01*
X0079668Y0176566D01*
X0079668Y0173618D01*
X0079668Y0173618D01*
X0074476Y0173618D01*
X0074476Y0172580D01*
X0074626Y0172021D01*
X0074876Y0171588D01*
X0074876Y0161888D01*
X0075930Y0160834D01*
X0077068Y0160834D01*
X0077068Y0151257D01*
X0077173Y0150215D02*
X0074108Y0150215D01*
X0074108Y0148919D02*
X0074108Y0152279D01*
X0068838Y0152279D01*
X0068838Y0147009D01*
X0072198Y0147009D01*
X0072757Y0147159D01*
X0073259Y0147448D01*
X0073668Y0147858D01*
X0073958Y0148359D01*
X0074108Y0148919D01*
X0073627Y0147817D02*
X0078665Y0147817D01*
X0080264Y0145418D02*
X0076394Y0145418D01*
X0076084Y0145728D02*
X0073096Y0146965D01*
X0069861Y0146965D01*
X0066873Y0145728D01*
X0064586Y0143440D01*
X0063348Y0140452D01*
X0063348Y0137217D01*
X0064586Y0134229D01*
X0066873Y0131942D01*
X0069861Y0130704D01*
X0073096Y0130704D01*
X0075324Y0131627D01*
X0075173Y0131161D01*
X0075028Y0130244D01*
X0075028Y0129780D01*
X0080927Y0129780D01*
X0080927Y0135680D01*
X0080463Y0135680D01*
X0079546Y0135534D01*
X0078814Y0135296D01*
X0079609Y0137217D01*
X0079609Y0140452D01*
X0078372Y0143440D01*
X0076084Y0145728D01*
X0078546Y0143020D02*
X0081087Y0143020D01*
X0082482Y0140621D02*
X0079539Y0140621D01*
X0079609Y0138223D02*
X0089326Y0138223D01*
X0089768Y0140621D02*
X0086853Y0140621D01*
X0088249Y0143020D02*
X0089768Y0143020D01*
X0089768Y0145418D02*
X0087749Y0145418D01*
X0089768Y0147817D02*
X0084915Y0147817D01*
X0083316Y0150215D02*
X0089768Y0150215D01*
X0089768Y0152614D02*
X0082268Y0152614D01*
X0082268Y0155012D02*
X0089768Y0155012D01*
X0089768Y0157411D02*
X0082268Y0157411D01*
X0082268Y0159809D02*
X0089768Y0159809D01*
X0087566Y0162208D02*
X0084460Y0162208D01*
X0077068Y0159809D02*
X0071970Y0159809D01*
X0073368Y0162208D02*
X0074876Y0162208D01*
X0074876Y0164606D02*
X0068468Y0164606D01*
X0068468Y0162208D02*
X0067868Y0162208D01*
X0067868Y0159809D02*
X0068468Y0159809D01*
X0068838Y0157411D02*
X0067498Y0157411D01*
X0073992Y0157411D02*
X0077068Y0157411D01*
X0077068Y0155012D02*
X0074108Y0155012D01*
X0067498Y0152614D02*
X0061868Y0152614D01*
X0062228Y0152279D02*
X0062228Y0148919D01*
X0062377Y0148359D01*
X0062667Y0147858D01*
X0063077Y0147448D01*
X0063578Y0147159D01*
X0064138Y0147009D01*
X0067498Y0147009D01*
X0067498Y0152279D01*
X0062228Y0152279D01*
X0062228Y0150215D02*
X0061868Y0150215D01*
X0061868Y0147817D02*
X0062708Y0147817D01*
X0061868Y0145418D02*
X0066564Y0145418D01*
X0067498Y0147817D02*
X0068838Y0147817D01*
X0068838Y0150215D02*
X0067498Y0150215D01*
X0064412Y0143020D02*
X0061868Y0143020D01*
X0061868Y0140621D02*
X0063418Y0140621D01*
X0063348Y0138223D02*
X0061868Y0138223D01*
X0061868Y0135824D02*
X0063925Y0135824D01*
X0065389Y0133426D02*
X0061868Y0133426D01*
X0061868Y0131027D02*
X0069081Y0131027D01*
X0070217Y0129224D02*
X0068612Y0128559D01*
X0067384Y0127331D01*
X0066720Y0125727D01*
X0066720Y0123990D01*
X0067384Y0122385D01*
X0068612Y0121157D01*
X0070217Y0120493D01*
X0071953Y0120493D01*
X0073558Y0121157D01*
X0074786Y0122385D01*
X0075450Y0123990D01*
X0075450Y0125727D01*
X0074786Y0127331D01*
X0073558Y0128559D01*
X0071953Y0129224D01*
X0070217Y0129224D01*
X0068780Y0128629D02*
X0061868Y0128629D01*
X0061868Y0126230D02*
X0066928Y0126230D01*
X0066785Y0123832D02*
X0061868Y0123832D01*
X0061868Y0121433D02*
X0068337Y0121433D01*
X0073833Y0121433D02*
X0075428Y0121433D01*
X0075385Y0123832D02*
X0076544Y0123832D01*
X0076214Y0126230D02*
X0075242Y0126230D01*
X0075136Y0128629D02*
X0073390Y0128629D01*
X0073876Y0131027D02*
X0075152Y0131027D01*
X0080927Y0131027D02*
X0080928Y0131027D01*
X0080928Y0129780D02*
X0080928Y0135680D01*
X0081392Y0135680D01*
X0082309Y0135534D01*
X0083192Y0135247D01*
X0084020Y0134826D01*
X0084771Y0134280D01*
X0085428Y0133623D01*
X0085974Y0132872D01*
X0086395Y0132044D01*
X0086682Y0131161D01*
X0086828Y0130244D01*
X0086828Y0129780D01*
X0080928Y0129780D01*
X0085641Y0126230D02*
X0089567Y0126230D01*
X0091965Y0128629D02*
X0086719Y0128629D01*
X0086704Y0131027D02*
X0094364Y0131027D01*
X0094658Y0133426D02*
X0094768Y0133426D01*
X0099568Y0133426D02*
X0107768Y0133426D01*
X0107768Y0133875D02*
X0107768Y0132125D01*
X0108438Y0130508D01*
X0109675Y0129270D01*
X0111292Y0128600D01*
X0113043Y0128600D01*
X0114660Y0129270D01*
X0115898Y0130508D01*
X0116568Y0132125D01*
X0116568Y0133875D01*
X0115898Y0135492D01*
X0114660Y0136730D01*
X0113043Y0137400D01*
X0111292Y0137400D01*
X0109675Y0136730D01*
X0108438Y0135492D01*
X0107768Y0133875D01*
X0108769Y0135824D02*
X0099568Y0135824D01*
X0099568Y0138223D02*
X0123768Y0138223D01*
X0123768Y0140621D02*
X0099568Y0140621D01*
X0099568Y0143020D02*
X0123768Y0143020D01*
X0123768Y0145418D02*
X0104085Y0145418D01*
X0105749Y0147817D02*
X0123768Y0147817D01*
X0123768Y0150215D02*
X0120671Y0150215D01*
X0121968Y0151512D02*
X0119156Y0148700D01*
X0115179Y0148700D01*
X0112368Y0151512D01*
X0112368Y0155488D01*
X0115179Y0158300D01*
X0119156Y0158300D01*
X0121968Y0155488D01*
X0121968Y0151512D01*
X0121968Y0152614D02*
X0123768Y0152614D01*
X0123768Y0155012D02*
X0121968Y0155012D01*
X0123768Y0157411D02*
X0120045Y0157411D01*
X0120265Y0159809D02*
X0123768Y0159809D01*
X0123768Y0162208D02*
X0121968Y0162208D01*
X0121968Y0164606D02*
X0123768Y0164606D01*
X0123768Y0167005D02*
X0120451Y0167005D01*
X0119859Y0169403D02*
X0123768Y0169403D01*
X0123768Y0171802D02*
X0121968Y0171802D01*
X0121968Y0174200D02*
X0123768Y0174200D01*
X0123768Y0176599D02*
X0120857Y0176599D01*
X0119156Y0178700D02*
X0115179Y0178700D01*
X0112368Y0181512D01*
X0112368Y0185488D01*
X0115179Y0188300D01*
X0119156Y0188300D01*
X0121968Y0185488D01*
X0121968Y0181512D01*
X0119156Y0178700D01*
X0119453Y0178997D02*
X0123768Y0178997D01*
X0123768Y0181396D02*
X0121852Y0181396D01*
X0121968Y0183794D02*
X0123768Y0183794D01*
X0123618Y0186193D02*
X0121263Y0186193D01*
X0113072Y0186193D02*
X0111263Y0186193D01*
X0111968Y0183794D02*
X0112368Y0183794D01*
X0112484Y0181396D02*
X0111852Y0181396D01*
X0109453Y0178997D02*
X0114882Y0178997D01*
X0113478Y0176599D02*
X0110857Y0176599D01*
X0111968Y0174200D02*
X0112368Y0174200D01*
X0104882Y0178997D02*
X0073690Y0178997D01*
X0074108Y0181396D02*
X0102484Y0181396D01*
X0103478Y0176599D02*
X0072653Y0176599D01*
X0074626Y0175215D02*
X0074476Y0174656D01*
X0074476Y0173618D01*
X0079668Y0173618D01*
X0079668Y0173618D01*
X0079668Y0176566D01*
X0076386Y0176566D01*
X0075826Y0176416D01*
X0075325Y0176127D01*
X0074915Y0175717D01*
X0074626Y0175215D01*
X0074476Y0174200D02*
X0073368Y0174200D01*
X0073368Y0171802D02*
X0074752Y0171802D01*
X0074876Y0169403D02*
X0073210Y0169403D01*
X0073348Y0167005D02*
X0074876Y0167005D01*
X0084583Y0171802D02*
X0102368Y0171802D01*
X0102368Y0174200D02*
X0084860Y0174200D01*
X0079668Y0174200D02*
X0079668Y0174200D01*
X0092159Y0169403D02*
X0101894Y0169403D01*
X0099770Y0167005D02*
X0094557Y0167005D01*
X0096956Y0164606D02*
X0099568Y0164606D01*
X0099568Y0162208D02*
X0099265Y0162208D01*
X0099568Y0159809D02*
X0099568Y0159809D01*
X0099568Y0157411D02*
X0099568Y0157411D01*
X0099568Y0155012D02*
X0099568Y0155012D01*
X0099568Y0152614D02*
X0099568Y0152614D01*
X0099568Y0150964D02*
X0099568Y0150964D01*
X0110671Y0150215D02*
X0113664Y0150215D01*
X0112368Y0152614D02*
X0111968Y0152614D01*
X0111968Y0155012D02*
X0112368Y0155012D01*
X0114290Y0157411D02*
X0110045Y0157411D01*
X0110265Y0159809D02*
X0114070Y0159809D01*
X0112368Y0162208D02*
X0111968Y0162208D01*
X0111968Y0164606D02*
X0112368Y0164606D01*
X0130568Y0164606D02*
X0135752Y0164606D01*
X0135752Y0162208D02*
X0130568Y0162208D01*
X0130568Y0159809D02*
X0135752Y0159809D01*
X0135752Y0157411D02*
X0130568Y0157411D01*
X0130568Y0155012D02*
X0135752Y0155012D01*
X0135752Y0152614D02*
X0130568Y0152614D01*
X0130568Y0150215D02*
X0135752Y0150215D01*
X0135752Y0147817D02*
X0135291Y0147817D01*
X0135749Y0145418D02*
X0135752Y0145418D01*
X0144568Y0145418D02*
X0159768Y0145418D01*
X0159768Y0147817D02*
X0144568Y0147817D01*
X0144568Y0150215D02*
X0159768Y0150215D01*
X0159768Y0152614D02*
X0144568Y0152614D01*
X0135752Y0167005D02*
X0130568Y0167005D01*
X0130568Y0169403D02*
X0135752Y0169403D01*
X0135752Y0171802D02*
X0130568Y0171802D01*
X0130568Y0174200D02*
X0135752Y0174200D01*
X0135752Y0176599D02*
X0130568Y0176599D01*
X0130568Y0178997D02*
X0135752Y0178997D01*
X0135752Y0181396D02*
X0130568Y0181396D01*
X0130568Y0183794D02*
X0135752Y0183794D01*
X0135752Y0186193D02*
X0130717Y0186193D01*
X0131330Y0188591D02*
X0135752Y0188591D01*
X0135752Y0190990D02*
X0130564Y0190990D01*
X0134772Y0195787D02*
X0064351Y0195787D01*
X0065652Y0198185D02*
X0134773Y0198185D01*
X0148427Y0200584D02*
X0067565Y0200584D01*
X0070098Y0202982D02*
X0279682Y0202982D01*
X0281195Y0205381D02*
X0073637Y0205381D01*
X0080645Y0207779D02*
X0441284Y0207779D01*
X0439956Y0206266D02*
X0436471Y0207200D01*
X0432864Y0207200D01*
X0429380Y0206266D01*
X0426256Y0204463D01*
X0423705Y0201912D01*
X0421901Y0198788D01*
X0420968Y0195304D01*
X0420968Y0191696D01*
X0421901Y0188212D01*
X0423705Y0185088D01*
X0426256Y0182537D01*
X0429380Y0180734D01*
X0432864Y0179800D01*
X0436471Y0179800D01*
X0439956Y0180734D01*
X0443080Y0182537D01*
X0445630Y0185088D01*
X0447434Y0188212D01*
X0448368Y0191696D01*
X0448368Y0195304D01*
X0447434Y0198788D01*
X0445630Y0201912D01*
X0443080Y0204463D01*
X0439956Y0206266D01*
X0441489Y0205381D02*
X0446463Y0205381D01*
X0444560Y0202982D02*
X0448745Y0202982D01*
X0450130Y0200584D02*
X0446397Y0200584D01*
X0447596Y0198185D02*
X0450819Y0198185D01*
X0451159Y0195787D02*
X0448238Y0195787D01*
X0448368Y0193388D02*
X0451169Y0193388D01*
X0451169Y0190990D02*
X0448178Y0190990D01*
X0447536Y0188591D02*
X0451169Y0188591D01*
X0451169Y0186193D02*
X0446268Y0186193D01*
X0444337Y0183794D02*
X0451169Y0183794D01*
X0451169Y0181396D02*
X0441103Y0181396D01*
X0443937Y0175308D02*
X0436028Y0175308D01*
X0434264Y0174577D01*
X0432913Y0173227D01*
X0432183Y0171463D01*
X0432183Y0169553D01*
X0432913Y0167789D01*
X0434264Y0166439D01*
X0436028Y0165708D01*
X0443937Y0165708D01*
X0445702Y0166439D01*
X0447052Y0167789D01*
X0447783Y0169553D01*
X0447783Y0171463D01*
X0447052Y0173227D01*
X0445702Y0174577D01*
X0443937Y0175308D01*
X0446078Y0174200D02*
X0451169Y0174200D01*
X0451169Y0171802D02*
X0447642Y0171802D01*
X0447721Y0169403D02*
X0451169Y0169403D01*
X0451169Y0167005D02*
X0446268Y0167005D01*
X0445631Y0164606D02*
X0451169Y0164606D01*
X0451169Y0162208D02*
X0447474Y0162208D01*
X0447783Y0161463D02*
X0447052Y0163227D01*
X0445702Y0164577D01*
X0443937Y0165308D01*
X0436028Y0165308D01*
X0434264Y0164577D01*
X0432913Y0163227D01*
X0432183Y0161463D01*
X0432183Y0159553D01*
X0432913Y0157789D01*
X0434264Y0156439D01*
X0436028Y0155708D01*
X0443937Y0155708D01*
X0445702Y0156439D01*
X0447052Y0157789D01*
X0447783Y0159553D01*
X0447783Y0161463D01*
X0447783Y0159809D02*
X0451169Y0159809D01*
X0451169Y0157411D02*
X0446674Y0157411D01*
X0445702Y0154577D02*
X0443937Y0155308D01*
X0436028Y0155308D01*
X0434264Y0154577D01*
X0432913Y0153227D01*
X0432183Y0151463D01*
X0432183Y0149553D01*
X0432913Y0147789D01*
X0434264Y0146439D01*
X0436028Y0145708D01*
X0443937Y0145708D01*
X0445702Y0146439D01*
X0447052Y0147789D01*
X0447783Y0149553D01*
X0447783Y0151463D01*
X0447052Y0153227D01*
X0445702Y0154577D01*
X0444651Y0155012D02*
X0451169Y0155012D01*
X0451169Y0152614D02*
X0447306Y0152614D01*
X0447783Y0150215D02*
X0451169Y0150215D01*
X0451169Y0147817D02*
X0447063Y0147817D01*
X0435314Y0155012D02*
X0417068Y0155012D01*
X0417068Y0157411D02*
X0433292Y0157411D01*
X0432183Y0159809D02*
X0417068Y0159809D01*
X0417068Y0162208D02*
X0432491Y0162208D01*
X0434334Y0164606D02*
X0417987Y0164606D01*
X0418148Y0167005D02*
X0433698Y0167005D01*
X0432245Y0169403D02*
X0415859Y0169403D01*
X0413477Y0169403D02*
X0398190Y0169403D01*
X0397945Y0167005D02*
X0411187Y0167005D01*
X0411348Y0164606D02*
X0397068Y0164606D01*
X0397068Y0162208D02*
X0412268Y0162208D01*
X0412268Y0159809D02*
X0397068Y0159809D01*
X0397068Y0157411D02*
X0412268Y0157411D01*
X0412268Y0155012D02*
X0397068Y0155012D01*
X0392268Y0155012D02*
X0377068Y0155012D01*
X0377068Y0157411D02*
X0392268Y0157411D01*
X0392268Y0159809D02*
X0377068Y0159809D01*
X0377068Y0162208D02*
X0392268Y0162208D01*
X0392268Y0164606D02*
X0377068Y0164606D01*
X0377945Y0167005D02*
X0391390Y0167005D01*
X0391145Y0169403D02*
X0378190Y0169403D01*
X0376104Y0171802D02*
X0393232Y0171802D01*
X0396104Y0171802D02*
X0432323Y0171802D01*
X0433887Y0174200D02*
X0292268Y0174200D01*
X0292268Y0171802D02*
X0293232Y0171802D01*
X0296104Y0171802D02*
X0313232Y0171802D01*
X0316104Y0171802D02*
X0333232Y0171802D01*
X0336104Y0171802D02*
X0353232Y0171802D01*
X0356104Y0171802D02*
X0373232Y0171802D01*
X0371145Y0169403D02*
X0358190Y0169403D01*
X0357945Y0167005D02*
X0371390Y0167005D01*
X0372268Y0164606D02*
X0357068Y0164606D01*
X0357068Y0162208D02*
X0372268Y0162208D01*
X0372268Y0159809D02*
X0357068Y0159809D01*
X0357068Y0157411D02*
X0372268Y0157411D01*
X0372268Y0155012D02*
X0357068Y0155012D01*
X0352268Y0155012D02*
X0337068Y0155012D01*
X0337068Y0157411D02*
X0352268Y0157411D01*
X0352268Y0159809D02*
X0337068Y0159809D01*
X0337068Y0162208D02*
X0352268Y0162208D01*
X0352268Y0164606D02*
X0337068Y0164606D01*
X0337945Y0167005D02*
X0351390Y0167005D01*
X0351145Y0169403D02*
X0338190Y0169403D01*
X0331145Y0169403D02*
X0318190Y0169403D01*
X0317945Y0167005D02*
X0331390Y0167005D01*
X0332268Y0164606D02*
X0317068Y0164606D01*
X0317068Y0162208D02*
X0332268Y0162208D01*
X0332268Y0159809D02*
X0317068Y0159809D01*
X0317068Y0157411D02*
X0332268Y0157411D01*
X0332268Y0155012D02*
X0317068Y0155012D01*
X0312268Y0155012D02*
X0297068Y0155012D01*
X0297068Y0157411D02*
X0312268Y0157411D01*
X0312268Y0159809D02*
X0297068Y0159809D01*
X0297068Y0162208D02*
X0312268Y0162208D01*
X0312268Y0164606D02*
X0297068Y0164606D01*
X0297945Y0167005D02*
X0311390Y0167005D01*
X0311145Y0169403D02*
X0298190Y0169403D01*
X0292268Y0176599D02*
X0451169Y0176599D01*
X0451169Y0178997D02*
X0292268Y0178997D01*
X0292268Y0181396D02*
X0428233Y0181396D01*
X0424999Y0183794D02*
X0292268Y0183794D01*
X0292452Y0186193D02*
X0423067Y0186193D01*
X0421800Y0188591D02*
X0293268Y0188591D01*
X0294668Y0190990D02*
X0294668Y0190990D01*
X0294668Y0193388D02*
X0294668Y0193388D01*
X0294668Y0195787D02*
X0294668Y0195787D01*
X0294668Y0198185D02*
X0294668Y0198185D01*
X0294668Y0198500D02*
X0294668Y0198500D01*
X0294668Y0200584D02*
X0294668Y0200584D01*
X0294668Y0202982D02*
X0294668Y0202982D01*
X0294668Y0205381D02*
X0294668Y0205381D01*
X0298141Y0205381D02*
X0301195Y0205381D01*
X0299682Y0202982D02*
X0299654Y0202982D01*
X0304668Y0202982D02*
X0304668Y0202982D01*
X0304668Y0200584D02*
X0304668Y0200584D01*
X0304668Y0198500D02*
X0304668Y0198500D01*
X0304668Y0198185D02*
X0304668Y0198185D01*
X0304668Y0195787D02*
X0304668Y0195787D01*
X0304668Y0193388D02*
X0304668Y0193388D01*
X0304668Y0190990D02*
X0304668Y0190990D01*
X0307270Y0190990D02*
X0312065Y0190990D01*
X0314668Y0190990D02*
X0314668Y0190990D01*
X0314668Y0193388D02*
X0314668Y0193388D01*
X0314668Y0195787D02*
X0314668Y0195787D01*
X0314668Y0198185D02*
X0314668Y0198185D01*
X0314668Y0198500D02*
X0314668Y0198500D01*
X0314668Y0200584D02*
X0314668Y0200584D01*
X0314668Y0202982D02*
X0314668Y0202982D01*
X0314668Y0205381D02*
X0314668Y0205381D01*
X0318141Y0205381D02*
X0427846Y0205381D01*
X0424775Y0202982D02*
X0319654Y0202982D01*
X0319868Y0200584D02*
X0422938Y0200584D01*
X0421740Y0198185D02*
X0319868Y0198185D01*
X0319868Y0195787D02*
X0421097Y0195787D01*
X0420968Y0193388D02*
X0319428Y0193388D01*
X0317270Y0190990D02*
X0421157Y0190990D01*
X0417068Y0152614D02*
X0432659Y0152614D01*
X0432183Y0150215D02*
X0417068Y0150215D01*
X0417068Y0147817D02*
X0432902Y0147817D01*
X0392268Y0116636D02*
X0377068Y0116636D01*
X0377068Y0114237D02*
X0392268Y0114237D01*
X0392268Y0111839D02*
X0377068Y0111839D01*
X0378175Y0109440D02*
X0391161Y0109440D01*
X0391375Y0107042D02*
X0377960Y0107042D01*
X0377068Y0104643D02*
X0392268Y0104643D01*
X0392268Y0102245D02*
X0377068Y0102245D01*
X0377068Y0099846D02*
X0392268Y0099846D01*
X0392268Y0097448D02*
X0377068Y0097448D01*
X0377068Y0095049D02*
X0392268Y0095049D01*
X0392268Y0092651D02*
X0377068Y0092651D01*
X0377068Y0090252D02*
X0392268Y0090252D01*
X0392268Y0087854D02*
X0377068Y0087854D01*
X0377068Y0085455D02*
X0392268Y0085455D01*
X0392268Y0083057D02*
X0377068Y0083057D01*
X0377601Y0080658D02*
X0383149Y0080658D01*
X0380318Y0078260D02*
X0378268Y0078260D01*
X0377440Y0075861D02*
X0377120Y0075861D01*
X0374562Y0073463D02*
X0373307Y0073463D01*
X0371684Y0071064D02*
X0370581Y0071064D01*
X0368805Y0068666D02*
X0364570Y0068666D01*
X0362971Y0066267D02*
X0367068Y0066267D01*
X0367068Y0063869D02*
X0362268Y0063869D01*
X0362268Y0061470D02*
X0367068Y0061470D01*
X0366068Y0059072D02*
X0363268Y0059072D01*
X0362808Y0056673D02*
X0366528Y0056673D01*
X0372808Y0056673D02*
X0376528Y0056673D01*
X0376068Y0059072D02*
X0373268Y0059072D01*
X0372268Y0061470D02*
X0377068Y0061470D01*
X0377068Y0063869D02*
X0372268Y0063869D01*
X0374050Y0066267D02*
X0377068Y0066267D01*
X0376928Y0068666D02*
X0378657Y0068666D01*
X0379806Y0071064D02*
X0381055Y0071064D01*
X0382684Y0073463D02*
X0383819Y0073463D01*
X0385563Y0075861D02*
X0392215Y0075861D01*
X0397120Y0075861D02*
X0400852Y0075861D01*
X0403251Y0078260D02*
X0398268Y0078260D01*
X0397601Y0080658D02*
X0405649Y0080658D01*
X0412268Y0083057D02*
X0397068Y0083057D01*
X0408206Y0075861D02*
X0412215Y0075861D01*
X0417120Y0075861D02*
X0432183Y0075861D01*
X0432390Y0073463D02*
X0405807Y0073463D01*
X0403409Y0071064D02*
X0434048Y0071064D01*
X0433943Y0068666D02*
X0400826Y0068666D01*
X0383612Y0066267D02*
X0432346Y0066267D01*
X0432222Y0063869D02*
X0382268Y0063869D01*
X0382268Y0061470D02*
X0433642Y0061470D01*
X0434469Y0059072D02*
X0383268Y0059072D01*
X0382808Y0056673D02*
X0432515Y0056673D01*
X0432034Y0049478D02*
X0177084Y0049478D01*
X0179483Y0047079D02*
X0426457Y0047079D01*
X0423974Y0044681D02*
X0181776Y0044681D01*
X0182068Y0042282D02*
X0422475Y0042282D01*
X0421525Y0039884D02*
X0182068Y0039884D01*
X0182068Y0037485D02*
X0420968Y0037485D01*
X0420968Y0035087D02*
X0192869Y0035087D01*
X0192387Y0035569D02*
X0190622Y0036300D01*
X0188713Y0036300D01*
X0186949Y0035569D01*
X0185598Y0034219D01*
X0184868Y0032455D01*
X0184868Y0024545D01*
X0185598Y0022781D01*
X0186949Y0021431D01*
X0188713Y0020700D01*
X0190622Y0020700D01*
X0192387Y0021431D01*
X0193737Y0022781D01*
X0194468Y0024545D01*
X0194468Y0032455D01*
X0193737Y0034219D01*
X0192387Y0035569D01*
X0194371Y0032688D02*
X0421372Y0032688D01*
X0422145Y0030290D02*
X0194468Y0030290D01*
X0194468Y0027891D02*
X0423530Y0027891D01*
X0425800Y0025493D02*
X0194468Y0025493D01*
X0193867Y0023094D02*
X0429901Y0023094D01*
X0438154Y0018297D02*
X0069227Y0018297D01*
X0075394Y0015899D02*
X0430603Y0015899D01*
X0356528Y0056673D02*
X0352808Y0056673D01*
X0353268Y0059072D02*
X0356068Y0059072D01*
X0357068Y0061470D02*
X0352268Y0061470D01*
X0352268Y0063869D02*
X0357068Y0063869D01*
X0357068Y0066267D02*
X0353612Y0066267D01*
X0356010Y0068666D02*
X0358320Y0068666D01*
X0357268Y0071064D02*
X0359919Y0071064D01*
X0361518Y0073463D02*
X0357268Y0073463D01*
X0357268Y0075861D02*
X0363521Y0075861D01*
X0358268Y0078260D02*
X0370751Y0078260D01*
X0371735Y0080658D02*
X0357601Y0080658D01*
X0357068Y0083057D02*
X0372268Y0083057D01*
X0372268Y0085455D02*
X0357068Y0085455D01*
X0357068Y0087854D02*
X0372268Y0087854D01*
X0372268Y0090252D02*
X0357068Y0090252D01*
X0357068Y0092651D02*
X0372268Y0092651D01*
X0372268Y0095049D02*
X0357068Y0095049D01*
X0357068Y0097448D02*
X0372268Y0097448D01*
X0372268Y0099846D02*
X0357068Y0099846D01*
X0357068Y0102245D02*
X0372268Y0102245D01*
X0372268Y0104643D02*
X0357068Y0104643D01*
X0357960Y0107042D02*
X0371375Y0107042D01*
X0371161Y0109440D02*
X0358175Y0109440D01*
X0357068Y0111839D02*
X0372268Y0111839D01*
X0372268Y0114237D02*
X0357068Y0114237D01*
X0357068Y0116636D02*
X0372268Y0116636D01*
X0352268Y0116636D02*
X0337068Y0116636D01*
X0337068Y0114237D02*
X0352268Y0114237D01*
X0352268Y0111839D02*
X0337068Y0111839D01*
X0338175Y0109440D02*
X0351161Y0109440D01*
X0351375Y0107042D02*
X0337960Y0107042D01*
X0337068Y0104643D02*
X0352268Y0104643D01*
X0352268Y0102245D02*
X0337068Y0102245D01*
X0337068Y0099846D02*
X0352268Y0099846D01*
X0352268Y0097448D02*
X0337068Y0097448D01*
X0337068Y0095049D02*
X0352268Y0095049D01*
X0352268Y0092651D02*
X0337068Y0092651D01*
X0337068Y0090252D02*
X0352268Y0090252D01*
X0352268Y0087854D02*
X0337068Y0087854D01*
X0337068Y0085455D02*
X0352268Y0085455D01*
X0352268Y0083057D02*
X0337068Y0083057D01*
X0337601Y0080658D02*
X0351735Y0080658D01*
X0351068Y0078260D02*
X0338268Y0078260D01*
X0337268Y0075861D02*
X0352068Y0075861D01*
X0352068Y0073463D02*
X0337268Y0073463D01*
X0338280Y0071064D02*
X0351055Y0071064D01*
X0348657Y0068666D02*
X0340679Y0068666D01*
X0342268Y0066267D02*
X0347068Y0066267D01*
X0347068Y0063869D02*
X0342268Y0063869D01*
X0342268Y0061470D02*
X0347068Y0061470D01*
X0346068Y0059072D02*
X0343268Y0059072D01*
X0342808Y0056673D02*
X0346528Y0056673D01*
X0336528Y0056673D02*
X0332808Y0056673D01*
X0333268Y0059072D02*
X0336068Y0059072D01*
X0337068Y0061470D02*
X0331789Y0061470D01*
X0327976Y0063869D02*
X0337068Y0063869D01*
X0335724Y0066267D02*
X0327268Y0066267D01*
X0327268Y0068666D02*
X0333325Y0068666D01*
X0332068Y0071064D02*
X0325780Y0071064D01*
X0323382Y0073463D02*
X0332068Y0073463D01*
X0332068Y0075861D02*
X0320983Y0075861D01*
X0318585Y0078260D02*
X0331068Y0078260D01*
X0331735Y0080658D02*
X0317601Y0080658D01*
X0317068Y0083057D02*
X0332268Y0083057D01*
X0316028Y0073463D02*
X0297268Y0073463D01*
X0297268Y0075861D02*
X0312215Y0075861D01*
X0311068Y0078260D02*
X0298268Y0078260D01*
X0297601Y0080658D02*
X0311735Y0080658D01*
X0312268Y0083057D02*
X0297068Y0083057D01*
X0292268Y0083057D02*
X0277796Y0083057D01*
X0280101Y0080658D02*
X0291735Y0080658D01*
X0291068Y0078260D02*
X0280768Y0078260D01*
X0279620Y0075861D02*
X0292068Y0075861D01*
X0297268Y0071064D02*
X0318426Y0071064D01*
X0320825Y0068666D02*
X0297268Y0068666D01*
X0297268Y0066267D02*
X0322068Y0066267D01*
X0322068Y0063869D02*
X0298802Y0063869D01*
X0304289Y0061470D02*
X0323021Y0061470D01*
X0325419Y0059072D02*
X0305768Y0059072D01*
X0305308Y0056673D02*
X0326528Y0056673D01*
X0417601Y0080658D02*
X0434722Y0080658D01*
X0433537Y0078260D02*
X0418268Y0078260D01*
X0417068Y0083057D02*
X0432558Y0083057D01*
X0292068Y0121433D02*
X0280192Y0121433D01*
X0280768Y0123832D02*
X0292068Y0123832D01*
X0292068Y0126230D02*
X0279529Y0126230D01*
X0274807Y0126230D02*
X0271027Y0126230D01*
X0268568Y0131027D02*
X0268029Y0131027D01*
X0269502Y0133426D02*
X0266530Y0133426D01*
X0265031Y0135824D02*
X0274752Y0135824D01*
X0279583Y0135824D02*
X0284759Y0135824D01*
X0286358Y0138223D02*
X0280768Y0138223D01*
X0280138Y0140621D02*
X0287068Y0140621D01*
X0287068Y0143020D02*
X0267028Y0143020D01*
X0265229Y0145418D02*
X0287068Y0145418D01*
X0287068Y0147817D02*
X0271390Y0147817D01*
X0273239Y0150215D02*
X0287068Y0150215D01*
X0287068Y0152614D02*
X0278400Y0152614D01*
X0275936Y0152614D02*
X0272896Y0152614D01*
X0267946Y0147817D02*
X0263430Y0147817D01*
X0262327Y0140621D02*
X0262033Y0140621D01*
X0263532Y0138223D02*
X0264126Y0138223D01*
X0285799Y0128629D02*
X0292068Y0128629D01*
X0292068Y0131027D02*
X0287811Y0131027D01*
X0289410Y0133426D02*
X0292068Y0133426D01*
X0292068Y0135824D02*
X0291009Y0135824D01*
X0287068Y0155012D02*
X0280655Y0155012D01*
X0280480Y0157411D02*
X0287068Y0157411D01*
X0287068Y0159809D02*
X0266462Y0159809D01*
X0268806Y0162208D02*
X0214768Y0162208D01*
X0214768Y0164606D02*
X0256348Y0164606D01*
X0256187Y0167005D02*
X0215577Y0167005D01*
X0216181Y0155012D02*
X0214768Y0155012D01*
X0218155Y0155012D02*
X0218897Y0155012D01*
X0223645Y0150215D02*
X0223982Y0150215D01*
X0201268Y0135824D02*
X0165725Y0135824D01*
X0165868Y0133426D02*
X0201268Y0133426D01*
X0201268Y0131027D02*
X0165868Y0131027D01*
X0165846Y0128629D02*
X0201268Y0128629D01*
X0201268Y0126230D02*
X0149568Y0126230D01*
X0149568Y0123832D02*
X0201268Y0123832D01*
X0201268Y0121433D02*
X0149568Y0121433D01*
X0149568Y0119034D02*
X0201268Y0119034D01*
X0201268Y0116636D02*
X0149568Y0116636D01*
X0149976Y0114237D02*
X0158842Y0114237D01*
X0158907Y0114351D02*
X0158618Y0113849D01*
X0158468Y0113290D01*
X0158468Y0110000D01*
X0158468Y0106710D01*
X0158618Y0106151D01*
X0158907Y0105649D01*
X0159317Y0105240D01*
X0159819Y0104950D01*
X0160378Y0104800D01*
X0162168Y0104800D01*
X0163957Y0104800D01*
X0164517Y0104950D01*
X0165019Y0105240D01*
X0165428Y0105649D01*
X0165718Y0106151D01*
X0165868Y0106710D01*
X0165868Y0110000D01*
X0165868Y0113290D01*
X0165718Y0113849D01*
X0165428Y0114351D01*
X0165019Y0114760D01*
X0164517Y0115050D01*
X0163957Y0115200D01*
X0162168Y0115200D01*
X0162168Y0110000D01*
X0165868Y0110000D01*
X0162168Y0110000D01*
X0162168Y0110000D01*
X0162168Y0104800D01*
X0162168Y0110000D01*
X0162168Y0110000D01*
X0162168Y0110000D01*
X0162168Y0115200D01*
X0160378Y0115200D01*
X0159819Y0115050D01*
X0159317Y0114760D01*
X0158907Y0114351D01*
X0158468Y0111839D02*
X0150468Y0111839D01*
X0150468Y0109440D02*
X0158468Y0109440D01*
X0158468Y0110000D02*
X0162168Y0110000D01*
X0162168Y0110000D01*
X0158468Y0110000D01*
X0158468Y0107042D02*
X0150468Y0107042D01*
X0149568Y0104643D02*
X0201268Y0104643D01*
X0201268Y0102245D02*
X0149568Y0102245D01*
X0149568Y0099846D02*
X0201465Y0099846D01*
X0203411Y0097448D02*
X0149568Y0097448D01*
X0149568Y0095049D02*
X0205810Y0095049D01*
X0208209Y0092651D02*
X0149568Y0092651D01*
X0132268Y0092651D02*
X0130568Y0092651D01*
X0130568Y0095049D02*
X0132268Y0095049D01*
X0131207Y0097448D02*
X0130568Y0097448D01*
X0130568Y0099846D02*
X0131329Y0099846D01*
X0123768Y0099846D02*
X0114297Y0099846D01*
X0116882Y0097448D02*
X0123768Y0097448D01*
X0123768Y0095049D02*
X0117268Y0095049D01*
X0117268Y0092651D02*
X0123768Y0092651D01*
X0123388Y0090252D02*
X0117268Y0090252D01*
X0117268Y0087854D02*
X0123006Y0087854D01*
X0124326Y0085455D02*
X0117268Y0085455D01*
X0112068Y0085455D02*
X0109768Y0085455D01*
X0109768Y0087854D02*
X0112068Y0087854D01*
X0112068Y0090252D02*
X0109768Y0090252D01*
X0110692Y0092651D02*
X0112068Y0092651D01*
X0111846Y0095049D02*
X0110402Y0095049D01*
X0109202Y0097448D02*
X0106613Y0097448D01*
X0106558Y0099846D02*
X0103883Y0099846D01*
X0103914Y0102245D02*
X0101152Y0102245D01*
X0101270Y0104643D02*
X0098422Y0104643D01*
X0098627Y0107042D02*
X0095691Y0107042D01*
X0095983Y0109440D02*
X0092961Y0109440D01*
X0093339Y0111839D02*
X0090230Y0111839D01*
X0090695Y0114237D02*
X0085773Y0114237D01*
X0084905Y0116636D02*
X0088051Y0116636D01*
X0093146Y0119034D02*
X0123768Y0119034D01*
X0123768Y0121433D02*
X0091558Y0121433D01*
X0093956Y0123832D02*
X0123768Y0123832D01*
X0123768Y0126230D02*
X0096355Y0126230D01*
X0098753Y0128629D02*
X0111224Y0128629D01*
X0113112Y0128629D02*
X0123768Y0128629D01*
X0123768Y0131027D02*
X0116113Y0131027D01*
X0116568Y0133426D02*
X0123768Y0133426D01*
X0123768Y0135824D02*
X0115566Y0135824D01*
X0108222Y0131027D02*
X0099568Y0131027D01*
X0089678Y0133426D02*
X0085571Y0133426D01*
X0088587Y0135824D02*
X0079032Y0135824D01*
X0080927Y0133426D02*
X0080928Y0133426D01*
X0085311Y0123832D02*
X0087168Y0123832D01*
X0075555Y0119034D02*
X0061868Y0119034D01*
X0061868Y0116636D02*
X0076950Y0116636D01*
X0076082Y0114237D02*
X0061868Y0114237D01*
X0061868Y0111839D02*
X0075428Y0111839D01*
X0073558Y0110842D02*
X0074786Y0109615D01*
X0075450Y0108010D01*
X0075450Y0106273D01*
X0074786Y0104669D01*
X0073558Y0103441D01*
X0071953Y0102776D01*
X0070217Y0102776D01*
X0068612Y0103441D01*
X0067384Y0104669D01*
X0066720Y0106273D01*
X0066720Y0108010D01*
X0067384Y0109615D01*
X0068612Y0110842D01*
X0070217Y0111507D01*
X0071953Y0111507D01*
X0073558Y0110842D01*
X0074858Y0109440D02*
X0075854Y0109440D01*
X0075450Y0107042D02*
X0077670Y0107042D01*
X0075978Y0104643D02*
X0074760Y0104643D01*
X0075428Y0102245D02*
X0061868Y0102245D01*
X0061868Y0104643D02*
X0067410Y0104643D01*
X0066720Y0107042D02*
X0061868Y0107042D01*
X0061868Y0109440D02*
X0067312Y0109440D01*
X0066661Y0099846D02*
X0061868Y0099846D01*
X0061868Y0097448D02*
X0064452Y0097448D01*
X0063459Y0095049D02*
X0061868Y0095049D01*
X0061868Y0092651D02*
X0063348Y0092651D01*
X0063885Y0090252D02*
X0061868Y0090252D01*
X0061868Y0087854D02*
X0065292Y0087854D01*
X0061868Y0085455D02*
X0068846Y0085455D01*
X0074112Y0085455D02*
X0104568Y0085455D01*
X0104568Y0087854D02*
X0077666Y0087854D01*
X0079073Y0090252D02*
X0104568Y0090252D01*
X0103643Y0092651D02*
X0079609Y0092651D01*
X0079499Y0095049D02*
X0101464Y0095049D01*
X0098734Y0097448D02*
X0083778Y0097448D01*
X0085897Y0099846D02*
X0096003Y0099846D01*
X0093273Y0102245D02*
X0086428Y0102245D01*
X0085877Y0104643D02*
X0090542Y0104643D01*
X0087812Y0107042D02*
X0084185Y0107042D01*
X0098434Y0114237D02*
X0107768Y0114237D01*
X0107768Y0114875D02*
X0107768Y0113125D01*
X0108438Y0111508D01*
X0109675Y0110270D01*
X0111292Y0109600D01*
X0113043Y0109600D01*
X0114660Y0110270D01*
X0115898Y0111508D01*
X0116568Y0113125D01*
X0116568Y0114875D01*
X0115898Y0116492D01*
X0114660Y0117730D01*
X0113043Y0118400D01*
X0111292Y0118400D01*
X0109675Y0117730D01*
X0108438Y0116492D01*
X0107768Y0114875D01*
X0108581Y0116636D02*
X0095790Y0116636D01*
X0101078Y0111839D02*
X0108300Y0111839D01*
X0103722Y0109440D02*
X0123768Y0109440D01*
X0123768Y0107042D02*
X0106366Y0107042D01*
X0109010Y0104643D02*
X0123768Y0104643D01*
X0123768Y0102245D02*
X0111653Y0102245D01*
X0116035Y0111839D02*
X0123768Y0111839D01*
X0123768Y0114237D02*
X0116568Y0114237D01*
X0115754Y0116636D02*
X0123768Y0116636D01*
X0162168Y0114237D02*
X0162168Y0114237D01*
X0162168Y0111839D02*
X0162168Y0111839D01*
X0162168Y0109440D02*
X0162168Y0109440D01*
X0162168Y0107042D02*
X0162168Y0107042D01*
X0165868Y0107042D02*
X0201268Y0107042D01*
X0201268Y0109440D02*
X0165868Y0109440D01*
X0165868Y0111839D02*
X0201268Y0111839D01*
X0201268Y0114237D02*
X0165494Y0114237D01*
X0132268Y0090252D02*
X0130947Y0090252D01*
X0131330Y0087854D02*
X0132268Y0087854D01*
X0132268Y0085455D02*
X0130009Y0085455D01*
X0132268Y0083057D02*
X0117268Y0083057D01*
X0117601Y0080658D02*
X0132268Y0080658D01*
X0132268Y0078260D02*
X0118268Y0078260D01*
X0117120Y0075861D02*
X0132268Y0075861D01*
X0132268Y0073463D02*
X0110072Y0073463D01*
X0109768Y0075861D02*
X0112215Y0075861D01*
X0111068Y0078260D02*
X0109768Y0078260D01*
X0109768Y0080658D02*
X0111735Y0080658D01*
X0112068Y0083057D02*
X0109768Y0083057D01*
X0104568Y0083057D02*
X0061868Y0083057D01*
X0061868Y0080658D02*
X0104568Y0080658D01*
X0104568Y0078260D02*
X0061868Y0078260D01*
X0061868Y0075861D02*
X0104568Y0075861D01*
X0104264Y0073463D02*
X0061868Y0073463D01*
X0061868Y0071064D02*
X0103568Y0071064D01*
X0104686Y0068666D02*
X0061868Y0068666D01*
X0061868Y0066267D02*
X0133690Y0066267D01*
X0132254Y0068666D02*
X0109649Y0068666D01*
X0110768Y0071064D02*
X0132268Y0071064D01*
X0137068Y0071064D02*
X0142168Y0071064D01*
X0141087Y0068666D02*
X0138746Y0068666D01*
X0137068Y0073463D02*
X0143736Y0073463D01*
X0144768Y0075861D02*
X0137068Y0075861D01*
X0137068Y0078260D02*
X0144768Y0078260D01*
X0144768Y0080658D02*
X0137068Y0080658D01*
X0137068Y0083057D02*
X0144768Y0083057D01*
X0162068Y0047079D02*
X0165194Y0047079D01*
X0162068Y0044681D02*
X0175093Y0044681D01*
X0177268Y0042282D02*
X0162068Y0042282D01*
X0162068Y0039884D02*
X0177268Y0039884D01*
X0177268Y0037485D02*
X0162068Y0037485D01*
X0162869Y0035087D02*
X0165900Y0035087D01*
X0164591Y0032688D02*
X0164371Y0032688D01*
X0164468Y0030290D02*
X0164468Y0030290D01*
X0164468Y0028500D02*
X0169668Y0028500D01*
X0164468Y0028500D01*
X0164468Y0027891D02*
X0164468Y0027891D01*
X0164468Y0025493D02*
X0164468Y0025493D01*
X0165058Y0023094D02*
X0163867Y0023094D01*
X0169668Y0023094D02*
X0169668Y0023094D01*
X0169668Y0025493D02*
X0169668Y0025493D01*
X0169668Y0027891D02*
X0169668Y0027891D01*
X0169668Y0028500D02*
X0169668Y0028500D01*
X0169668Y0030290D02*
X0169668Y0030290D01*
X0169668Y0032688D02*
X0169668Y0032688D01*
X0169668Y0035087D02*
X0169668Y0035087D01*
X0173435Y0035087D02*
X0176466Y0035087D01*
X0174964Y0032688D02*
X0174744Y0032688D01*
X0174868Y0030290D02*
X0174868Y0030290D01*
X0174868Y0027891D02*
X0174868Y0027891D01*
X0174868Y0025493D02*
X0174868Y0025493D01*
X0174278Y0023094D02*
X0175469Y0023094D01*
X0183867Y0023094D02*
X0185469Y0023094D01*
X0184868Y0025493D02*
X0184468Y0025493D01*
X0184468Y0027891D02*
X0184868Y0027891D01*
X0184868Y0030290D02*
X0184468Y0030290D01*
X0184371Y0032688D02*
X0184964Y0032688D01*
X0186466Y0035087D02*
X0182869Y0035087D01*
X0147268Y0037485D02*
X0088803Y0037485D01*
X0089064Y0039884D02*
X0147268Y0039884D01*
X0147268Y0042282D02*
X0087608Y0042282D01*
X0086718Y0035087D02*
X0146466Y0035087D01*
X0100250Y0145418D02*
X0099568Y0145418D01*
X0062987Y0167005D02*
X0061868Y0167005D01*
X0061868Y0169403D02*
X0063125Y0169403D01*
X0062968Y0171802D02*
X0061868Y0171802D01*
X0061868Y0174200D02*
X0062968Y0174200D01*
X0063682Y0176599D02*
X0061868Y0176599D01*
X0061868Y0178997D02*
X0062646Y0178997D01*
X0062228Y0181396D02*
X0061868Y0181396D01*
X0157242Y0190990D02*
X0170369Y0190990D01*
X0169868Y0188591D02*
X0162305Y0188591D01*
X0163505Y0186193D02*
X0170187Y0186193D01*
X0172585Y0183794D02*
X0164919Y0183794D01*
X0165468Y0181396D02*
X0170775Y0181396D01*
X0169868Y0178997D02*
X0165468Y0178997D01*
X0165468Y0176599D02*
X0169868Y0176599D01*
X0179149Y0186193D02*
X0180187Y0186193D01*
X0179868Y0188591D02*
X0179468Y0188591D01*
X0178966Y0190990D02*
X0180369Y0190990D01*
X0249788Y0169403D02*
X0257068Y0169403D01*
X0257068Y0171802D02*
X0254146Y0171802D01*
X0254768Y0174200D02*
X0257068Y0174200D01*
X0257068Y0176599D02*
X0254768Y0176599D01*
X0262655Y0181396D02*
X0263473Y0181396D01*
X0263268Y0183794D02*
X0265072Y0183794D01*
X0266671Y0186193D02*
X0262066Y0186193D01*
X0269723Y0181396D02*
X0287068Y0181396D01*
X0287068Y0183794D02*
X0271322Y0183794D01*
X0272921Y0186193D02*
X0286884Y0186193D01*
X0286068Y0188591D02*
X0274520Y0188591D01*
X0277249Y0190990D02*
X0282065Y0190990D01*
X0284668Y0190990D02*
X0284668Y0190990D01*
X0284668Y0193388D02*
X0284668Y0193388D01*
X0284668Y0195787D02*
X0284668Y0195787D01*
X0284668Y0198185D02*
X0284668Y0198185D01*
X0284668Y0200584D02*
X0284668Y0200584D01*
X0284668Y0202982D02*
X0284668Y0202982D01*
X0284668Y0205381D02*
X0284668Y0205381D01*
X0288141Y0205381D02*
X0291195Y0205381D01*
X0289682Y0202982D02*
X0289654Y0202982D01*
X0279468Y0195787D02*
X0277472Y0195787D01*
X0278268Y0193388D02*
X0279908Y0193388D01*
X0297270Y0190990D02*
X0302065Y0190990D01*
X0299908Y0193388D02*
X0299428Y0193388D01*
X0309428Y0193388D02*
X0309908Y0193388D01*
X0309682Y0202982D02*
X0309654Y0202982D01*
X0308141Y0205381D02*
X0311195Y0205381D01*
X0304668Y0205381D02*
X0304668Y0205381D01*
X0287068Y0178997D02*
X0268124Y0178997D01*
X0267268Y0176599D02*
X0287068Y0176599D01*
X0287068Y0174200D02*
X0267268Y0174200D01*
X0268232Y0171802D02*
X0287068Y0171802D01*
X0287068Y0169403D02*
X0267903Y0169403D01*
X0271222Y0167005D02*
X0263148Y0167005D01*
X0262987Y0164606D02*
X0268729Y0164606D01*
X0273114Y0167005D02*
X0287068Y0167005D01*
D21*
X0232109Y0197752D03*
X0154668Y0188500D03*
X0147168Y0188500D03*
X0138152Y0196984D03*
X0102168Y0148500D03*
X0084668Y0143500D03*
X0092168Y0136000D03*
X0109274Y0124524D03*
X0132168Y0118500D03*
X0135258Y0115075D03*
X0135258Y0129248D03*
X0137168Y0141000D03*
X0132168Y0146000D03*
X0154668Y0141000D03*
X0162168Y0141000D03*
X0121085Y0098539D03*
X0107168Y0093500D03*
X0099825Y0077280D03*
X0128172Y0077280D03*
X0144668Y0068500D03*
X0144668Y0058500D03*
X0152168Y0058500D03*
X0157168Y0058500D03*
X0142345Y0093815D03*
X0232168Y0086000D03*
X0249668Y0118500D03*
X0399648Y0187260D03*
X0406597Y0046965D03*
D22*
X0217168Y0088500D03*
X0127168Y0088500D03*
X0204668Y0181000D03*
X0127168Y0188500D03*
D23*
X0117168Y0173500D02*
X0112168Y0168500D01*
X0104668Y0168500D01*
X0102168Y0166000D01*
X0102168Y0148500D01*
X0084668Y0143500D02*
X0079668Y0151000D01*
X0079668Y0163382D01*
X0080928Y0120437D02*
X0087168Y0120437D01*
X0087731Y0120437D01*
X0114668Y0096000D01*
X0114668Y0078500D01*
X0107168Y0071276D02*
X0107168Y0093500D01*
X0086605Y0111563D01*
X0080928Y0111563D01*
X0212168Y0153500D02*
X0242168Y0123500D01*
X0242168Y0088500D01*
X0259668Y0106000D02*
X0274668Y0086000D01*
X0274668Y0083500D01*
X0277168Y0078500D01*
X0294668Y0078500D02*
X0294668Y0063500D01*
X0302168Y0058500D01*
X0324668Y0063500D02*
X0324668Y0068500D01*
X0314668Y0078500D01*
X0334668Y0078500D02*
X0334668Y0071000D01*
X0339668Y0066000D01*
X0339668Y0058500D01*
X0329668Y0058500D02*
X0324668Y0063500D01*
X0349668Y0066000D02*
X0349668Y0058500D01*
X0359668Y0058500D02*
X0359668Y0066000D01*
X0364668Y0073500D01*
X0369668Y0073500D01*
X0374668Y0078500D01*
X0384668Y0078500D02*
X0369668Y0066000D01*
X0369668Y0058500D01*
X0379668Y0058500D02*
X0379668Y0066000D01*
X0384668Y0071000D01*
X0399668Y0071000D01*
X0407168Y0078500D01*
X0414668Y0078500D01*
X0394668Y0078500D02*
X0384668Y0078500D01*
X0354668Y0078500D02*
X0354668Y0071000D01*
X0349668Y0066000D01*
X0277168Y0093500D02*
X0264668Y0108500D01*
X0264668Y0113500D01*
X0252168Y0133500D01*
X0242168Y0133500D01*
X0247168Y0128500D02*
X0249668Y0128500D01*
X0259668Y0113500D01*
X0259668Y0106000D01*
X0272168Y0108500D02*
X0277168Y0108500D01*
X0272168Y0108500D02*
X0267168Y0118500D01*
X0254668Y0138500D01*
X0237168Y0138500D01*
X0232168Y0143500D02*
X0257168Y0143500D01*
X0269668Y0123500D01*
X0277168Y0123500D01*
X0272168Y0131000D02*
X0284668Y0131000D01*
X0289668Y0138500D01*
X0289668Y0163500D01*
X0272168Y0163500D01*
X0269668Y0156000D02*
X0262168Y0158500D01*
X0217168Y0158500D01*
X0222168Y0153500D02*
X0259668Y0153500D01*
X0264668Y0151000D01*
X0269668Y0151000D01*
X0269668Y0156000D02*
X0277168Y0156000D01*
X0289668Y0163500D02*
X0289668Y0188500D01*
X0274668Y0193500D02*
X0264668Y0178500D01*
X0264668Y0171000D01*
X0252168Y0173500D02*
X0247168Y0171000D01*
X0214668Y0171000D01*
X0212168Y0166000D01*
X0212168Y0153500D01*
X0227168Y0148500D02*
X0259668Y0148500D01*
X0267168Y0138500D01*
X0277168Y0138500D01*
X0294668Y0138500D02*
X0294668Y0108500D01*
X0217168Y0088500D02*
X0217168Y0071000D01*
X0222168Y0066000D01*
X0247168Y0066000D01*
X0259668Y0166000D02*
X0259668Y0183500D01*
X0252168Y0193500D02*
X0252168Y0173500D01*
X0237168Y0181000D02*
X0204668Y0181000D01*
X0252168Y0193500D02*
X0257168Y0196000D01*
X0267168Y0196000D01*
D24*
X0267168Y0196000D03*
X0274668Y0193500D03*
X0289668Y0188500D03*
X0259668Y0183500D03*
X0264668Y0171000D03*
X0259668Y0166000D03*
X0272168Y0163500D03*
X0277168Y0156000D03*
X0269668Y0151000D03*
X0277168Y0138500D03*
X0272168Y0131000D03*
X0277168Y0123500D03*
X0294668Y0138500D03*
X0314668Y0138500D03*
X0334668Y0138500D03*
X0354668Y0138500D03*
X0374668Y0138500D03*
X0394668Y0138500D03*
X0414668Y0138500D03*
X0414668Y0166000D03*
X0394668Y0168500D03*
X0374668Y0168500D03*
X0354668Y0168500D03*
X0334668Y0168500D03*
X0314668Y0168500D03*
X0294668Y0168500D03*
X0237168Y0181000D03*
X0224668Y0198500D03*
X0217168Y0158500D03*
X0222168Y0153500D03*
X0227168Y0148500D03*
X0232168Y0143500D03*
X0237168Y0138500D03*
X0242168Y0133500D03*
X0247168Y0128500D03*
X0277168Y0108500D03*
X0294668Y0108500D03*
X0314668Y0108500D03*
X0334668Y0108500D03*
X0354668Y0108500D03*
X0374668Y0108500D03*
X0394668Y0108500D03*
X0414668Y0108500D03*
X0414668Y0078500D03*
X0394668Y0078500D03*
X0374668Y0078500D03*
X0354668Y0078500D03*
X0334668Y0078500D03*
X0314668Y0078500D03*
X0294668Y0078500D03*
X0277168Y0078500D03*
X0247168Y0066000D03*
X0237168Y0061000D03*
X0242168Y0088500D03*
X0277168Y0093500D03*
X0302168Y0058500D03*
X0329668Y0058500D03*
X0339668Y0058500D03*
X0349668Y0058500D03*
X0359668Y0058500D03*
X0369668Y0058500D03*
X0379668Y0058500D03*
X0142168Y0103500D03*
X0134668Y0098500D03*
X0114668Y0078500D03*
X0107168Y0071276D03*
D25*
X0127168Y0088500D02*
X0127168Y0188500D01*
X0204668Y0181000D02*
X0204668Y0101000D01*
X0217168Y0088500D01*
D26*
X0237168Y0061000D02*
X0164668Y0061000D01*
X0159668Y0063500D01*
X0142168Y0063500D01*
X0134668Y0068500D01*
X0134668Y0098500D01*
X0142168Y0103500D02*
X0142168Y0191000D01*
X0149668Y0198500D01*
X0224668Y0198500D01*
X0162168Y0183500D02*
X0162168Y0179500D01*
X0162168Y0157500D01*
X0162168Y0141000D01*
X0154668Y0141000D02*
X0154668Y0136000D01*
X0151168Y0133500D01*
X0147168Y0132000D01*
X0147168Y0110000D01*
X0147168Y0073500D01*
X0144668Y0071000D01*
X0144668Y0068500D01*
X0144668Y0058500D02*
X0149668Y0053500D01*
X0149668Y0028500D01*
X0159668Y0028500D02*
X0159668Y0048500D01*
X0152168Y0056000D01*
X0152168Y0058500D01*
X0157168Y0058500D02*
X0167168Y0048500D01*
X0174668Y0048500D01*
X0179668Y0043500D01*
X0179668Y0028500D01*
X0294668Y0078500D02*
X0294668Y0108500D01*
X0314668Y0108500D02*
X0314668Y0138500D01*
X0314668Y0168500D01*
X0334668Y0168500D02*
X0334668Y0138500D01*
X0334668Y0108500D01*
X0334668Y0078500D01*
X0314668Y0078500D02*
X0314668Y0108500D01*
X0354668Y0108500D02*
X0354668Y0138500D01*
X0354668Y0168500D01*
X0374668Y0168500D02*
X0374668Y0138500D01*
X0374668Y0108500D01*
X0374668Y0078500D01*
X0394668Y0078500D02*
X0394668Y0108500D01*
X0394668Y0138500D01*
X0394668Y0168500D01*
X0414668Y0166000D02*
X0414668Y0138500D01*
X0414668Y0108500D01*
X0414668Y0078500D01*
X0354668Y0078500D02*
X0354668Y0108500D01*
X0294668Y0138500D02*
X0294668Y0168500D01*
X0162168Y0183500D02*
X0159668Y0188500D01*
X0154668Y0188500D01*
X0147168Y0188500D02*
X0149668Y0182000D01*
X0147168Y0179500D01*
X0147168Y0157500D01*
X0132168Y0146000D02*
X0132168Y0118500D01*
X0097168Y0130437D02*
X0087168Y0120437D01*
X0097168Y0130437D02*
X0097168Y0161000D01*
X0089668Y0168500D01*
X0079668Y0168500D01*
X0079668Y0165941D02*
X0087227Y0165941D01*
X0092168Y0161000D01*
X0092168Y0136000D01*
X0137168Y0141000D02*
X0138152Y0144484D01*
X0138152Y0196984D01*
M02*
