G75*
%MOIN*%
%OFA0B0*%
%FSLAX25Y25*%
%IPPOS*%
%LPD*%
%AMOC8*
5,1,8,0,0,1.08239X$1,22.5*
%
%ADD10C,0.00000*%
%ADD11C,0.16148*%
%ADD12C,0.05600*%
%ADD13C,0.07800*%
%ADD14C,0.13061*%
%ADD15C,0.04731*%
%ADD16R,0.03400X0.06400*%
%ADD17C,0.06400*%
%ADD18OC8,0.06400*%
%ADD19C,0.10243*%
%ADD20R,0.06384X0.01896*%
%ADD21C,0.01920*%
%ADD22R,0.07880X0.07880*%
D10*
X0059668Y0031528D02*
X0059668Y0185867D01*
X0059675Y0186459D01*
X0059697Y0187050D01*
X0059732Y0187640D01*
X0059782Y0188230D01*
X0059847Y0188818D01*
X0059925Y0189405D01*
X0060017Y0189989D01*
X0060124Y0190571D01*
X0060245Y0191150D01*
X0060379Y0191726D01*
X0060528Y0192299D01*
X0060690Y0192868D01*
X0060866Y0193433D01*
X0061056Y0193993D01*
X0061259Y0194549D01*
X0061475Y0195099D01*
X0061705Y0195645D01*
X0061948Y0196184D01*
X0062204Y0196718D01*
X0062472Y0197245D01*
X0062754Y0197765D01*
X0063047Y0198279D01*
X0063353Y0198785D01*
X0063672Y0199284D01*
X0064002Y0199775D01*
X0064344Y0200258D01*
X0064697Y0200732D01*
X0065062Y0201198D01*
X0065438Y0201655D01*
X0065825Y0202102D01*
X0066223Y0202540D01*
X0066631Y0202969D01*
X0067049Y0203387D01*
X0067478Y0203795D01*
X0067916Y0204193D01*
X0068363Y0204580D01*
X0068820Y0204956D01*
X0069286Y0205321D01*
X0069760Y0205674D01*
X0070243Y0206016D01*
X0070734Y0206346D01*
X0071233Y0206665D01*
X0071739Y0206971D01*
X0072253Y0207264D01*
X0072773Y0207546D01*
X0073300Y0207814D01*
X0073834Y0208070D01*
X0074373Y0208313D01*
X0074919Y0208543D01*
X0075469Y0208759D01*
X0076025Y0208962D01*
X0076585Y0209152D01*
X0077150Y0209328D01*
X0077719Y0209490D01*
X0078292Y0209639D01*
X0078868Y0209773D01*
X0079447Y0209894D01*
X0080029Y0210001D01*
X0080613Y0210093D01*
X0081200Y0210171D01*
X0081788Y0210236D01*
X0082378Y0210286D01*
X0082968Y0210321D01*
X0083559Y0210343D01*
X0084151Y0210350D01*
X0438667Y0210350D01*
X0438667Y0210351D02*
X0439022Y0210347D01*
X0439377Y0210334D01*
X0439732Y0210312D01*
X0440086Y0210282D01*
X0440439Y0210244D01*
X0440791Y0210197D01*
X0441142Y0210141D01*
X0441492Y0210077D01*
X0441839Y0210005D01*
X0442185Y0209924D01*
X0442529Y0209835D01*
X0442871Y0209737D01*
X0443210Y0209631D01*
X0443547Y0209518D01*
X0443880Y0209396D01*
X0444211Y0209266D01*
X0444538Y0209128D01*
X0444862Y0208982D01*
X0445183Y0208828D01*
X0445499Y0208667D01*
X0445812Y0208498D01*
X0446120Y0208322D01*
X0446424Y0208138D01*
X0446724Y0207947D01*
X0447019Y0207749D01*
X0447309Y0207543D01*
X0447594Y0207331D01*
X0447873Y0207112D01*
X0448147Y0206886D01*
X0448416Y0206654D01*
X0448679Y0206415D01*
X0448937Y0206170D01*
X0449188Y0205919D01*
X0449433Y0205661D01*
X0449672Y0205398D01*
X0449904Y0205129D01*
X0450130Y0204855D01*
X0450349Y0204576D01*
X0450561Y0204291D01*
X0450767Y0204001D01*
X0450965Y0203706D01*
X0451156Y0203406D01*
X0451340Y0203102D01*
X0451516Y0202794D01*
X0451685Y0202481D01*
X0451846Y0202165D01*
X0452000Y0201844D01*
X0452146Y0201520D01*
X0452284Y0201193D01*
X0452414Y0200862D01*
X0452536Y0200529D01*
X0452649Y0200192D01*
X0452755Y0199853D01*
X0452853Y0199511D01*
X0452942Y0199167D01*
X0453023Y0198821D01*
X0453095Y0198474D01*
X0453159Y0198124D01*
X0453215Y0197773D01*
X0453262Y0197421D01*
X0453300Y0197068D01*
X0453330Y0196714D01*
X0453352Y0196359D01*
X0453365Y0196004D01*
X0453369Y0195649D01*
X0453369Y0039112D01*
X0429747Y0036000D02*
X0429749Y0036140D01*
X0429755Y0036280D01*
X0429765Y0036419D01*
X0429779Y0036558D01*
X0429797Y0036697D01*
X0429818Y0036835D01*
X0429844Y0036973D01*
X0429874Y0037110D01*
X0429907Y0037245D01*
X0429945Y0037380D01*
X0429986Y0037514D01*
X0430031Y0037647D01*
X0430079Y0037778D01*
X0430132Y0037907D01*
X0430188Y0038036D01*
X0430247Y0038162D01*
X0430311Y0038287D01*
X0430377Y0038410D01*
X0430448Y0038531D01*
X0430521Y0038650D01*
X0430598Y0038767D01*
X0430679Y0038881D01*
X0430762Y0038993D01*
X0430849Y0039103D01*
X0430939Y0039211D01*
X0431031Y0039315D01*
X0431127Y0039417D01*
X0431226Y0039517D01*
X0431327Y0039613D01*
X0431431Y0039707D01*
X0431538Y0039797D01*
X0431647Y0039884D01*
X0431759Y0039969D01*
X0431873Y0040050D01*
X0431989Y0040128D01*
X0432107Y0040202D01*
X0432228Y0040273D01*
X0432350Y0040341D01*
X0432475Y0040405D01*
X0432601Y0040466D01*
X0432728Y0040523D01*
X0432858Y0040576D01*
X0432989Y0040626D01*
X0433121Y0040671D01*
X0433254Y0040714D01*
X0433389Y0040752D01*
X0433524Y0040786D01*
X0433661Y0040817D01*
X0433798Y0040844D01*
X0433936Y0040866D01*
X0434075Y0040885D01*
X0434214Y0040900D01*
X0434353Y0040911D01*
X0434493Y0040918D01*
X0434633Y0040921D01*
X0434773Y0040920D01*
X0434913Y0040915D01*
X0435052Y0040906D01*
X0435192Y0040893D01*
X0435331Y0040876D01*
X0435469Y0040855D01*
X0435607Y0040831D01*
X0435744Y0040802D01*
X0435880Y0040770D01*
X0436015Y0040733D01*
X0436149Y0040693D01*
X0436282Y0040649D01*
X0436413Y0040601D01*
X0436543Y0040550D01*
X0436672Y0040495D01*
X0436799Y0040436D01*
X0436924Y0040373D01*
X0437047Y0040308D01*
X0437169Y0040238D01*
X0437288Y0040165D01*
X0437406Y0040089D01*
X0437521Y0040010D01*
X0437634Y0039927D01*
X0437744Y0039841D01*
X0437852Y0039752D01*
X0437957Y0039660D01*
X0438060Y0039565D01*
X0438160Y0039467D01*
X0438257Y0039367D01*
X0438351Y0039263D01*
X0438443Y0039157D01*
X0438531Y0039049D01*
X0438616Y0038938D01*
X0438698Y0038824D01*
X0438777Y0038708D01*
X0438852Y0038591D01*
X0438924Y0038471D01*
X0438992Y0038349D01*
X0439057Y0038225D01*
X0439119Y0038099D01*
X0439177Y0037972D01*
X0439231Y0037843D01*
X0439282Y0037712D01*
X0439328Y0037580D01*
X0439371Y0037447D01*
X0439411Y0037313D01*
X0439446Y0037178D01*
X0439478Y0037041D01*
X0439505Y0036904D01*
X0439529Y0036766D01*
X0439549Y0036628D01*
X0439565Y0036489D01*
X0439577Y0036349D01*
X0439585Y0036210D01*
X0439589Y0036070D01*
X0439589Y0035930D01*
X0439585Y0035790D01*
X0439577Y0035651D01*
X0439565Y0035511D01*
X0439549Y0035372D01*
X0439529Y0035234D01*
X0439505Y0035096D01*
X0439478Y0034959D01*
X0439446Y0034822D01*
X0439411Y0034687D01*
X0439371Y0034553D01*
X0439328Y0034420D01*
X0439282Y0034288D01*
X0439231Y0034157D01*
X0439177Y0034028D01*
X0439119Y0033901D01*
X0439057Y0033775D01*
X0438992Y0033651D01*
X0438924Y0033529D01*
X0438852Y0033409D01*
X0438777Y0033292D01*
X0438698Y0033176D01*
X0438616Y0033062D01*
X0438531Y0032951D01*
X0438443Y0032843D01*
X0438351Y0032737D01*
X0438257Y0032633D01*
X0438160Y0032533D01*
X0438060Y0032435D01*
X0437957Y0032340D01*
X0437852Y0032248D01*
X0437744Y0032159D01*
X0437634Y0032073D01*
X0437521Y0031990D01*
X0437406Y0031911D01*
X0437288Y0031835D01*
X0437169Y0031762D01*
X0437047Y0031692D01*
X0436924Y0031627D01*
X0436799Y0031564D01*
X0436672Y0031505D01*
X0436543Y0031450D01*
X0436413Y0031399D01*
X0436282Y0031351D01*
X0436149Y0031307D01*
X0436015Y0031267D01*
X0435880Y0031230D01*
X0435744Y0031198D01*
X0435607Y0031169D01*
X0435469Y0031145D01*
X0435331Y0031124D01*
X0435192Y0031107D01*
X0435052Y0031094D01*
X0434913Y0031085D01*
X0434773Y0031080D01*
X0434633Y0031079D01*
X0434493Y0031082D01*
X0434353Y0031089D01*
X0434214Y0031100D01*
X0434075Y0031115D01*
X0433936Y0031134D01*
X0433798Y0031156D01*
X0433661Y0031183D01*
X0433524Y0031214D01*
X0433389Y0031248D01*
X0433254Y0031286D01*
X0433121Y0031329D01*
X0432989Y0031374D01*
X0432858Y0031424D01*
X0432728Y0031477D01*
X0432601Y0031534D01*
X0432475Y0031595D01*
X0432350Y0031659D01*
X0432228Y0031727D01*
X0432107Y0031798D01*
X0431989Y0031872D01*
X0431873Y0031950D01*
X0431759Y0032031D01*
X0431647Y0032116D01*
X0431538Y0032203D01*
X0431431Y0032293D01*
X0431327Y0032387D01*
X0431226Y0032483D01*
X0431127Y0032583D01*
X0431031Y0032685D01*
X0430939Y0032789D01*
X0430849Y0032897D01*
X0430762Y0033007D01*
X0430679Y0033119D01*
X0430598Y0033233D01*
X0430521Y0033350D01*
X0430448Y0033469D01*
X0430377Y0033590D01*
X0430311Y0033713D01*
X0430247Y0033838D01*
X0430188Y0033964D01*
X0430132Y0034093D01*
X0430079Y0034222D01*
X0430031Y0034353D01*
X0429986Y0034486D01*
X0429945Y0034620D01*
X0429907Y0034755D01*
X0429874Y0034890D01*
X0429844Y0035027D01*
X0429818Y0035165D01*
X0429797Y0035303D01*
X0429779Y0035442D01*
X0429765Y0035581D01*
X0429755Y0035720D01*
X0429749Y0035860D01*
X0429747Y0036000D01*
X0427757Y0013500D02*
X0428376Y0013507D01*
X0428994Y0013530D01*
X0429612Y0013567D01*
X0430229Y0013620D01*
X0430844Y0013687D01*
X0431458Y0013769D01*
X0432069Y0013866D01*
X0432678Y0013977D01*
X0433284Y0014103D01*
X0433886Y0014244D01*
X0434485Y0014400D01*
X0435081Y0014569D01*
X0435672Y0014754D01*
X0436258Y0014952D01*
X0436839Y0015164D01*
X0437415Y0015391D01*
X0437986Y0015631D01*
X0438550Y0015885D01*
X0439108Y0016153D01*
X0439659Y0016434D01*
X0440204Y0016728D01*
X0440741Y0017035D01*
X0441271Y0017355D01*
X0441793Y0017688D01*
X0442306Y0018034D01*
X0442811Y0018391D01*
X0443308Y0018761D01*
X0443795Y0019143D01*
X0444273Y0019536D01*
X0444741Y0019941D01*
X0445199Y0020357D01*
X0445647Y0020784D01*
X0446085Y0021222D01*
X0446512Y0021670D01*
X0446928Y0022128D01*
X0447333Y0022596D01*
X0447726Y0023074D01*
X0448108Y0023561D01*
X0448478Y0024058D01*
X0448835Y0024563D01*
X0449181Y0025076D01*
X0449514Y0025598D01*
X0449834Y0026128D01*
X0450141Y0026665D01*
X0450435Y0027210D01*
X0450716Y0027761D01*
X0450984Y0028319D01*
X0451238Y0028883D01*
X0451478Y0029454D01*
X0451705Y0030030D01*
X0451917Y0030611D01*
X0452115Y0031197D01*
X0452300Y0031788D01*
X0452469Y0032384D01*
X0452625Y0032983D01*
X0452766Y0033585D01*
X0452892Y0034191D01*
X0453003Y0034800D01*
X0453100Y0035411D01*
X0453182Y0036025D01*
X0453249Y0036640D01*
X0453302Y0037257D01*
X0453339Y0037875D01*
X0453362Y0038493D01*
X0453369Y0039112D01*
X0427757Y0013500D02*
X0077695Y0013500D01*
X0077259Y0013505D01*
X0076824Y0013521D01*
X0076389Y0013547D01*
X0075955Y0013584D01*
X0075522Y0013631D01*
X0075090Y0013689D01*
X0074660Y0013757D01*
X0074231Y0013836D01*
X0073805Y0013925D01*
X0073381Y0014024D01*
X0072959Y0014133D01*
X0072540Y0014253D01*
X0072124Y0014382D01*
X0071711Y0014522D01*
X0071302Y0014672D01*
X0070897Y0014831D01*
X0070495Y0015000D01*
X0070098Y0015179D01*
X0069705Y0015367D01*
X0069317Y0015565D01*
X0068934Y0015772D01*
X0068556Y0015988D01*
X0068183Y0016214D01*
X0067815Y0016448D01*
X0067454Y0016691D01*
X0067098Y0016943D01*
X0066749Y0017203D01*
X0066406Y0017472D01*
X0066070Y0017749D01*
X0065740Y0018034D01*
X0065418Y0018327D01*
X0065102Y0018627D01*
X0064794Y0018935D01*
X0064494Y0019251D01*
X0064201Y0019573D01*
X0063916Y0019903D01*
X0063639Y0020239D01*
X0063370Y0020582D01*
X0063110Y0020931D01*
X0062858Y0021287D01*
X0062615Y0021648D01*
X0062381Y0022016D01*
X0062155Y0022389D01*
X0061939Y0022767D01*
X0061732Y0023150D01*
X0061534Y0023538D01*
X0061346Y0023931D01*
X0061167Y0024328D01*
X0060998Y0024730D01*
X0060839Y0025135D01*
X0060689Y0025544D01*
X0060549Y0025957D01*
X0060420Y0026373D01*
X0060300Y0026792D01*
X0060191Y0027214D01*
X0060092Y0027638D01*
X0060003Y0028064D01*
X0059924Y0028493D01*
X0059856Y0028923D01*
X0059798Y0029355D01*
X0059751Y0029788D01*
X0059714Y0030222D01*
X0059688Y0030657D01*
X0059672Y0031092D01*
X0059667Y0031528D01*
X0068920Y0107142D02*
X0068922Y0107235D01*
X0068928Y0107327D01*
X0068938Y0107419D01*
X0068952Y0107510D01*
X0068969Y0107601D01*
X0068991Y0107691D01*
X0069016Y0107780D01*
X0069045Y0107868D01*
X0069078Y0107954D01*
X0069115Y0108039D01*
X0069155Y0108123D01*
X0069199Y0108204D01*
X0069246Y0108284D01*
X0069296Y0108362D01*
X0069350Y0108437D01*
X0069407Y0108510D01*
X0069467Y0108580D01*
X0069530Y0108648D01*
X0069596Y0108713D01*
X0069664Y0108775D01*
X0069735Y0108835D01*
X0069809Y0108891D01*
X0069885Y0108944D01*
X0069963Y0108993D01*
X0070043Y0109040D01*
X0070125Y0109082D01*
X0070209Y0109122D01*
X0070294Y0109157D01*
X0070381Y0109189D01*
X0070469Y0109218D01*
X0070558Y0109242D01*
X0070648Y0109263D01*
X0070739Y0109279D01*
X0070831Y0109292D01*
X0070923Y0109301D01*
X0071016Y0109306D01*
X0071108Y0109307D01*
X0071201Y0109304D01*
X0071293Y0109297D01*
X0071385Y0109286D01*
X0071476Y0109271D01*
X0071567Y0109253D01*
X0071657Y0109230D01*
X0071745Y0109204D01*
X0071833Y0109174D01*
X0071919Y0109140D01*
X0072003Y0109103D01*
X0072086Y0109061D01*
X0072167Y0109017D01*
X0072247Y0108969D01*
X0072324Y0108918D01*
X0072398Y0108863D01*
X0072471Y0108805D01*
X0072541Y0108745D01*
X0072608Y0108681D01*
X0072672Y0108615D01*
X0072734Y0108545D01*
X0072792Y0108474D01*
X0072847Y0108400D01*
X0072899Y0108323D01*
X0072948Y0108244D01*
X0072994Y0108164D01*
X0073036Y0108081D01*
X0073074Y0107997D01*
X0073109Y0107911D01*
X0073140Y0107824D01*
X0073167Y0107736D01*
X0073190Y0107646D01*
X0073210Y0107556D01*
X0073226Y0107465D01*
X0073238Y0107373D01*
X0073246Y0107281D01*
X0073250Y0107188D01*
X0073250Y0107096D01*
X0073246Y0107003D01*
X0073238Y0106911D01*
X0073226Y0106819D01*
X0073210Y0106728D01*
X0073190Y0106638D01*
X0073167Y0106548D01*
X0073140Y0106460D01*
X0073109Y0106373D01*
X0073074Y0106287D01*
X0073036Y0106203D01*
X0072994Y0106120D01*
X0072948Y0106040D01*
X0072899Y0105961D01*
X0072847Y0105884D01*
X0072792Y0105810D01*
X0072734Y0105739D01*
X0072672Y0105669D01*
X0072608Y0105603D01*
X0072541Y0105539D01*
X0072471Y0105479D01*
X0072398Y0105421D01*
X0072324Y0105366D01*
X0072247Y0105315D01*
X0072168Y0105267D01*
X0072086Y0105223D01*
X0072003Y0105181D01*
X0071919Y0105144D01*
X0071833Y0105110D01*
X0071745Y0105080D01*
X0071657Y0105054D01*
X0071567Y0105031D01*
X0071476Y0105013D01*
X0071385Y0104998D01*
X0071293Y0104987D01*
X0071201Y0104980D01*
X0071108Y0104977D01*
X0071016Y0104978D01*
X0070923Y0104983D01*
X0070831Y0104992D01*
X0070739Y0105005D01*
X0070648Y0105021D01*
X0070558Y0105042D01*
X0070469Y0105066D01*
X0070381Y0105095D01*
X0070294Y0105127D01*
X0070209Y0105162D01*
X0070125Y0105202D01*
X0070043Y0105244D01*
X0069963Y0105291D01*
X0069885Y0105340D01*
X0069809Y0105393D01*
X0069735Y0105449D01*
X0069664Y0105509D01*
X0069596Y0105571D01*
X0069530Y0105636D01*
X0069467Y0105704D01*
X0069407Y0105774D01*
X0069350Y0105847D01*
X0069296Y0105922D01*
X0069246Y0106000D01*
X0069199Y0106080D01*
X0069155Y0106161D01*
X0069115Y0106245D01*
X0069078Y0106330D01*
X0069045Y0106416D01*
X0069016Y0106504D01*
X0068991Y0106593D01*
X0068969Y0106683D01*
X0068952Y0106774D01*
X0068938Y0106865D01*
X0068928Y0106957D01*
X0068922Y0107049D01*
X0068920Y0107142D01*
X0068920Y0124858D02*
X0068922Y0124951D01*
X0068928Y0125043D01*
X0068938Y0125135D01*
X0068952Y0125226D01*
X0068969Y0125317D01*
X0068991Y0125407D01*
X0069016Y0125496D01*
X0069045Y0125584D01*
X0069078Y0125670D01*
X0069115Y0125755D01*
X0069155Y0125839D01*
X0069199Y0125920D01*
X0069246Y0126000D01*
X0069296Y0126078D01*
X0069350Y0126153D01*
X0069407Y0126226D01*
X0069467Y0126296D01*
X0069530Y0126364D01*
X0069596Y0126429D01*
X0069664Y0126491D01*
X0069735Y0126551D01*
X0069809Y0126607D01*
X0069885Y0126660D01*
X0069963Y0126709D01*
X0070043Y0126756D01*
X0070125Y0126798D01*
X0070209Y0126838D01*
X0070294Y0126873D01*
X0070381Y0126905D01*
X0070469Y0126934D01*
X0070558Y0126958D01*
X0070648Y0126979D01*
X0070739Y0126995D01*
X0070831Y0127008D01*
X0070923Y0127017D01*
X0071016Y0127022D01*
X0071108Y0127023D01*
X0071201Y0127020D01*
X0071293Y0127013D01*
X0071385Y0127002D01*
X0071476Y0126987D01*
X0071567Y0126969D01*
X0071657Y0126946D01*
X0071745Y0126920D01*
X0071833Y0126890D01*
X0071919Y0126856D01*
X0072003Y0126819D01*
X0072086Y0126777D01*
X0072167Y0126733D01*
X0072247Y0126685D01*
X0072324Y0126634D01*
X0072398Y0126579D01*
X0072471Y0126521D01*
X0072541Y0126461D01*
X0072608Y0126397D01*
X0072672Y0126331D01*
X0072734Y0126261D01*
X0072792Y0126190D01*
X0072847Y0126116D01*
X0072899Y0126039D01*
X0072948Y0125960D01*
X0072994Y0125880D01*
X0073036Y0125797D01*
X0073074Y0125713D01*
X0073109Y0125627D01*
X0073140Y0125540D01*
X0073167Y0125452D01*
X0073190Y0125362D01*
X0073210Y0125272D01*
X0073226Y0125181D01*
X0073238Y0125089D01*
X0073246Y0124997D01*
X0073250Y0124904D01*
X0073250Y0124812D01*
X0073246Y0124719D01*
X0073238Y0124627D01*
X0073226Y0124535D01*
X0073210Y0124444D01*
X0073190Y0124354D01*
X0073167Y0124264D01*
X0073140Y0124176D01*
X0073109Y0124089D01*
X0073074Y0124003D01*
X0073036Y0123919D01*
X0072994Y0123836D01*
X0072948Y0123756D01*
X0072899Y0123677D01*
X0072847Y0123600D01*
X0072792Y0123526D01*
X0072734Y0123455D01*
X0072672Y0123385D01*
X0072608Y0123319D01*
X0072541Y0123255D01*
X0072471Y0123195D01*
X0072398Y0123137D01*
X0072324Y0123082D01*
X0072247Y0123031D01*
X0072168Y0122983D01*
X0072086Y0122939D01*
X0072003Y0122897D01*
X0071919Y0122860D01*
X0071833Y0122826D01*
X0071745Y0122796D01*
X0071657Y0122770D01*
X0071567Y0122747D01*
X0071476Y0122729D01*
X0071385Y0122714D01*
X0071293Y0122703D01*
X0071201Y0122696D01*
X0071108Y0122693D01*
X0071016Y0122694D01*
X0070923Y0122699D01*
X0070831Y0122708D01*
X0070739Y0122721D01*
X0070648Y0122737D01*
X0070558Y0122758D01*
X0070469Y0122782D01*
X0070381Y0122811D01*
X0070294Y0122843D01*
X0070209Y0122878D01*
X0070125Y0122918D01*
X0070043Y0122960D01*
X0069963Y0123007D01*
X0069885Y0123056D01*
X0069809Y0123109D01*
X0069735Y0123165D01*
X0069664Y0123225D01*
X0069596Y0123287D01*
X0069530Y0123352D01*
X0069467Y0123420D01*
X0069407Y0123490D01*
X0069350Y0123563D01*
X0069296Y0123638D01*
X0069246Y0123716D01*
X0069199Y0123796D01*
X0069155Y0123877D01*
X0069115Y0123961D01*
X0069078Y0124046D01*
X0069045Y0124132D01*
X0069016Y0124220D01*
X0068991Y0124309D01*
X0068969Y0124399D01*
X0068952Y0124490D01*
X0068938Y0124581D01*
X0068928Y0124673D01*
X0068922Y0124765D01*
X0068920Y0124858D01*
X0429747Y0193500D02*
X0429749Y0193640D01*
X0429755Y0193780D01*
X0429765Y0193919D01*
X0429779Y0194058D01*
X0429797Y0194197D01*
X0429818Y0194335D01*
X0429844Y0194473D01*
X0429874Y0194610D01*
X0429907Y0194745D01*
X0429945Y0194880D01*
X0429986Y0195014D01*
X0430031Y0195147D01*
X0430079Y0195278D01*
X0430132Y0195407D01*
X0430188Y0195536D01*
X0430247Y0195662D01*
X0430311Y0195787D01*
X0430377Y0195910D01*
X0430448Y0196031D01*
X0430521Y0196150D01*
X0430598Y0196267D01*
X0430679Y0196381D01*
X0430762Y0196493D01*
X0430849Y0196603D01*
X0430939Y0196711D01*
X0431031Y0196815D01*
X0431127Y0196917D01*
X0431226Y0197017D01*
X0431327Y0197113D01*
X0431431Y0197207D01*
X0431538Y0197297D01*
X0431647Y0197384D01*
X0431759Y0197469D01*
X0431873Y0197550D01*
X0431989Y0197628D01*
X0432107Y0197702D01*
X0432228Y0197773D01*
X0432350Y0197841D01*
X0432475Y0197905D01*
X0432601Y0197966D01*
X0432728Y0198023D01*
X0432858Y0198076D01*
X0432989Y0198126D01*
X0433121Y0198171D01*
X0433254Y0198214D01*
X0433389Y0198252D01*
X0433524Y0198286D01*
X0433661Y0198317D01*
X0433798Y0198344D01*
X0433936Y0198366D01*
X0434075Y0198385D01*
X0434214Y0198400D01*
X0434353Y0198411D01*
X0434493Y0198418D01*
X0434633Y0198421D01*
X0434773Y0198420D01*
X0434913Y0198415D01*
X0435052Y0198406D01*
X0435192Y0198393D01*
X0435331Y0198376D01*
X0435469Y0198355D01*
X0435607Y0198331D01*
X0435744Y0198302D01*
X0435880Y0198270D01*
X0436015Y0198233D01*
X0436149Y0198193D01*
X0436282Y0198149D01*
X0436413Y0198101D01*
X0436543Y0198050D01*
X0436672Y0197995D01*
X0436799Y0197936D01*
X0436924Y0197873D01*
X0437047Y0197808D01*
X0437169Y0197738D01*
X0437288Y0197665D01*
X0437406Y0197589D01*
X0437521Y0197510D01*
X0437634Y0197427D01*
X0437744Y0197341D01*
X0437852Y0197252D01*
X0437957Y0197160D01*
X0438060Y0197065D01*
X0438160Y0196967D01*
X0438257Y0196867D01*
X0438351Y0196763D01*
X0438443Y0196657D01*
X0438531Y0196549D01*
X0438616Y0196438D01*
X0438698Y0196324D01*
X0438777Y0196208D01*
X0438852Y0196091D01*
X0438924Y0195971D01*
X0438992Y0195849D01*
X0439057Y0195725D01*
X0439119Y0195599D01*
X0439177Y0195472D01*
X0439231Y0195343D01*
X0439282Y0195212D01*
X0439328Y0195080D01*
X0439371Y0194947D01*
X0439411Y0194813D01*
X0439446Y0194678D01*
X0439478Y0194541D01*
X0439505Y0194404D01*
X0439529Y0194266D01*
X0439549Y0194128D01*
X0439565Y0193989D01*
X0439577Y0193849D01*
X0439585Y0193710D01*
X0439589Y0193570D01*
X0439589Y0193430D01*
X0439585Y0193290D01*
X0439577Y0193151D01*
X0439565Y0193011D01*
X0439549Y0192872D01*
X0439529Y0192734D01*
X0439505Y0192596D01*
X0439478Y0192459D01*
X0439446Y0192322D01*
X0439411Y0192187D01*
X0439371Y0192053D01*
X0439328Y0191920D01*
X0439282Y0191788D01*
X0439231Y0191657D01*
X0439177Y0191528D01*
X0439119Y0191401D01*
X0439057Y0191275D01*
X0438992Y0191151D01*
X0438924Y0191029D01*
X0438852Y0190909D01*
X0438777Y0190792D01*
X0438698Y0190676D01*
X0438616Y0190562D01*
X0438531Y0190451D01*
X0438443Y0190343D01*
X0438351Y0190237D01*
X0438257Y0190133D01*
X0438160Y0190033D01*
X0438060Y0189935D01*
X0437957Y0189840D01*
X0437852Y0189748D01*
X0437744Y0189659D01*
X0437634Y0189573D01*
X0437521Y0189490D01*
X0437406Y0189411D01*
X0437288Y0189335D01*
X0437169Y0189262D01*
X0437047Y0189192D01*
X0436924Y0189127D01*
X0436799Y0189064D01*
X0436672Y0189005D01*
X0436543Y0188950D01*
X0436413Y0188899D01*
X0436282Y0188851D01*
X0436149Y0188807D01*
X0436015Y0188767D01*
X0435880Y0188730D01*
X0435744Y0188698D01*
X0435607Y0188669D01*
X0435469Y0188645D01*
X0435331Y0188624D01*
X0435192Y0188607D01*
X0435052Y0188594D01*
X0434913Y0188585D01*
X0434773Y0188580D01*
X0434633Y0188579D01*
X0434493Y0188582D01*
X0434353Y0188589D01*
X0434214Y0188600D01*
X0434075Y0188615D01*
X0433936Y0188634D01*
X0433798Y0188656D01*
X0433661Y0188683D01*
X0433524Y0188714D01*
X0433389Y0188748D01*
X0433254Y0188786D01*
X0433121Y0188829D01*
X0432989Y0188874D01*
X0432858Y0188924D01*
X0432728Y0188977D01*
X0432601Y0189034D01*
X0432475Y0189095D01*
X0432350Y0189159D01*
X0432228Y0189227D01*
X0432107Y0189298D01*
X0431989Y0189372D01*
X0431873Y0189450D01*
X0431759Y0189531D01*
X0431647Y0189616D01*
X0431538Y0189703D01*
X0431431Y0189793D01*
X0431327Y0189887D01*
X0431226Y0189983D01*
X0431127Y0190083D01*
X0431031Y0190185D01*
X0430939Y0190289D01*
X0430849Y0190397D01*
X0430762Y0190507D01*
X0430679Y0190619D01*
X0430598Y0190733D01*
X0430521Y0190850D01*
X0430448Y0190969D01*
X0430377Y0191090D01*
X0430311Y0191213D01*
X0430247Y0191338D01*
X0430188Y0191464D01*
X0430132Y0191593D01*
X0430079Y0191722D01*
X0430031Y0191853D01*
X0429986Y0191986D01*
X0429945Y0192120D01*
X0429907Y0192255D01*
X0429874Y0192390D01*
X0429844Y0192527D01*
X0429818Y0192665D01*
X0429797Y0192803D01*
X0429779Y0192942D01*
X0429765Y0193081D01*
X0429755Y0193220D01*
X0429749Y0193360D01*
X0429747Y0193500D01*
X0431794Y0111925D02*
X0431796Y0112118D01*
X0431803Y0112311D01*
X0431815Y0112504D01*
X0431832Y0112697D01*
X0431853Y0112889D01*
X0431879Y0113080D01*
X0431910Y0113271D01*
X0431945Y0113461D01*
X0431985Y0113650D01*
X0432030Y0113838D01*
X0432079Y0114025D01*
X0432133Y0114211D01*
X0432191Y0114395D01*
X0432254Y0114578D01*
X0432322Y0114759D01*
X0432393Y0114938D01*
X0432470Y0115116D01*
X0432550Y0115292D01*
X0432635Y0115465D01*
X0432724Y0115637D01*
X0432817Y0115806D01*
X0432914Y0115973D01*
X0433016Y0116138D01*
X0433121Y0116300D01*
X0433230Y0116459D01*
X0433344Y0116616D01*
X0433461Y0116769D01*
X0433581Y0116920D01*
X0433706Y0117068D01*
X0433834Y0117213D01*
X0433965Y0117354D01*
X0434100Y0117493D01*
X0434239Y0117628D01*
X0434380Y0117759D01*
X0434525Y0117887D01*
X0434673Y0118012D01*
X0434824Y0118132D01*
X0434977Y0118249D01*
X0435134Y0118363D01*
X0435293Y0118472D01*
X0435455Y0118577D01*
X0435620Y0118679D01*
X0435787Y0118776D01*
X0435956Y0118869D01*
X0436128Y0118958D01*
X0436301Y0119043D01*
X0436477Y0119123D01*
X0436655Y0119200D01*
X0436834Y0119271D01*
X0437015Y0119339D01*
X0437198Y0119402D01*
X0437382Y0119460D01*
X0437568Y0119514D01*
X0437755Y0119563D01*
X0437943Y0119608D01*
X0438132Y0119648D01*
X0438322Y0119683D01*
X0438513Y0119714D01*
X0438704Y0119740D01*
X0438896Y0119761D01*
X0439089Y0119778D01*
X0439282Y0119790D01*
X0439475Y0119797D01*
X0439668Y0119799D01*
X0439861Y0119797D01*
X0440054Y0119790D01*
X0440247Y0119778D01*
X0440440Y0119761D01*
X0440632Y0119740D01*
X0440823Y0119714D01*
X0441014Y0119683D01*
X0441204Y0119648D01*
X0441393Y0119608D01*
X0441581Y0119563D01*
X0441768Y0119514D01*
X0441954Y0119460D01*
X0442138Y0119402D01*
X0442321Y0119339D01*
X0442502Y0119271D01*
X0442681Y0119200D01*
X0442859Y0119123D01*
X0443035Y0119043D01*
X0443208Y0118958D01*
X0443380Y0118869D01*
X0443549Y0118776D01*
X0443716Y0118679D01*
X0443881Y0118577D01*
X0444043Y0118472D01*
X0444202Y0118363D01*
X0444359Y0118249D01*
X0444512Y0118132D01*
X0444663Y0118012D01*
X0444811Y0117887D01*
X0444956Y0117759D01*
X0445097Y0117628D01*
X0445236Y0117493D01*
X0445371Y0117354D01*
X0445502Y0117213D01*
X0445630Y0117068D01*
X0445755Y0116920D01*
X0445875Y0116769D01*
X0445992Y0116616D01*
X0446106Y0116459D01*
X0446215Y0116300D01*
X0446320Y0116138D01*
X0446422Y0115973D01*
X0446519Y0115806D01*
X0446612Y0115637D01*
X0446701Y0115465D01*
X0446786Y0115292D01*
X0446866Y0115116D01*
X0446943Y0114938D01*
X0447014Y0114759D01*
X0447082Y0114578D01*
X0447145Y0114395D01*
X0447203Y0114211D01*
X0447257Y0114025D01*
X0447306Y0113838D01*
X0447351Y0113650D01*
X0447391Y0113461D01*
X0447426Y0113271D01*
X0447457Y0113080D01*
X0447483Y0112889D01*
X0447504Y0112697D01*
X0447521Y0112504D01*
X0447533Y0112311D01*
X0447540Y0112118D01*
X0447542Y0111925D01*
X0447540Y0111732D01*
X0447533Y0111539D01*
X0447521Y0111346D01*
X0447504Y0111153D01*
X0447483Y0110961D01*
X0447457Y0110770D01*
X0447426Y0110579D01*
X0447391Y0110389D01*
X0447351Y0110200D01*
X0447306Y0110012D01*
X0447257Y0109825D01*
X0447203Y0109639D01*
X0447145Y0109455D01*
X0447082Y0109272D01*
X0447014Y0109091D01*
X0446943Y0108912D01*
X0446866Y0108734D01*
X0446786Y0108558D01*
X0446701Y0108385D01*
X0446612Y0108213D01*
X0446519Y0108044D01*
X0446422Y0107877D01*
X0446320Y0107712D01*
X0446215Y0107550D01*
X0446106Y0107391D01*
X0445992Y0107234D01*
X0445875Y0107081D01*
X0445755Y0106930D01*
X0445630Y0106782D01*
X0445502Y0106637D01*
X0445371Y0106496D01*
X0445236Y0106357D01*
X0445097Y0106222D01*
X0444956Y0106091D01*
X0444811Y0105963D01*
X0444663Y0105838D01*
X0444512Y0105718D01*
X0444359Y0105601D01*
X0444202Y0105487D01*
X0444043Y0105378D01*
X0443881Y0105273D01*
X0443716Y0105171D01*
X0443549Y0105074D01*
X0443380Y0104981D01*
X0443208Y0104892D01*
X0443035Y0104807D01*
X0442859Y0104727D01*
X0442681Y0104650D01*
X0442502Y0104579D01*
X0442321Y0104511D01*
X0442138Y0104448D01*
X0441954Y0104390D01*
X0441768Y0104336D01*
X0441581Y0104287D01*
X0441393Y0104242D01*
X0441204Y0104202D01*
X0441014Y0104167D01*
X0440823Y0104136D01*
X0440632Y0104110D01*
X0440440Y0104089D01*
X0440247Y0104072D01*
X0440054Y0104060D01*
X0439861Y0104053D01*
X0439668Y0104051D01*
X0439475Y0104053D01*
X0439282Y0104060D01*
X0439089Y0104072D01*
X0438896Y0104089D01*
X0438704Y0104110D01*
X0438513Y0104136D01*
X0438322Y0104167D01*
X0438132Y0104202D01*
X0437943Y0104242D01*
X0437755Y0104287D01*
X0437568Y0104336D01*
X0437382Y0104390D01*
X0437198Y0104448D01*
X0437015Y0104511D01*
X0436834Y0104579D01*
X0436655Y0104650D01*
X0436477Y0104727D01*
X0436301Y0104807D01*
X0436128Y0104892D01*
X0435956Y0104981D01*
X0435787Y0105074D01*
X0435620Y0105171D01*
X0435455Y0105273D01*
X0435293Y0105378D01*
X0435134Y0105487D01*
X0434977Y0105601D01*
X0434824Y0105718D01*
X0434673Y0105838D01*
X0434525Y0105963D01*
X0434380Y0106091D01*
X0434239Y0106222D01*
X0434100Y0106357D01*
X0433965Y0106496D01*
X0433834Y0106637D01*
X0433706Y0106782D01*
X0433581Y0106930D01*
X0433461Y0107081D01*
X0433344Y0107234D01*
X0433230Y0107391D01*
X0433121Y0107550D01*
X0433016Y0107712D01*
X0432914Y0107877D01*
X0432817Y0108044D01*
X0432724Y0108213D01*
X0432635Y0108385D01*
X0432550Y0108558D01*
X0432470Y0108734D01*
X0432393Y0108912D01*
X0432322Y0109091D01*
X0432254Y0109272D01*
X0432191Y0109455D01*
X0432133Y0109639D01*
X0432079Y0109825D01*
X0432030Y0110012D01*
X0431985Y0110200D01*
X0431945Y0110389D01*
X0431910Y0110579D01*
X0431879Y0110770D01*
X0431853Y0110961D01*
X0431832Y0111153D01*
X0431815Y0111346D01*
X0431803Y0111539D01*
X0431796Y0111732D01*
X0431794Y0111925D01*
D11*
X0439668Y0111925D03*
D12*
X0112168Y0114000D03*
X0112168Y0133000D03*
X0084668Y0058000D03*
X0084668Y0039000D03*
D13*
X0080928Y0102220D03*
X0080928Y0111563D03*
X0080928Y0120437D03*
X0080928Y0129780D03*
D14*
X0071479Y0138835D03*
X0071479Y0093165D03*
D15*
X0071085Y0107142D03*
X0071085Y0124858D03*
D16*
X0147168Y0132000D03*
X0162168Y0132000D03*
X0162168Y0110000D03*
X0147168Y0110000D03*
X0147168Y0157500D03*
X0162168Y0157500D03*
X0162168Y0179500D03*
X0147168Y0179500D03*
D17*
X0284668Y0195500D02*
X0284668Y0201500D01*
X0294668Y0201500D02*
X0294668Y0195500D01*
X0304668Y0195500D02*
X0304668Y0201500D01*
X0314668Y0201500D02*
X0314668Y0195500D01*
X0436983Y0170508D02*
X0442983Y0170508D01*
X0442983Y0160508D02*
X0436983Y0160508D01*
X0436983Y0150508D02*
X0442983Y0150508D01*
X0442983Y0140508D02*
X0436983Y0140508D01*
X0436983Y0130508D02*
X0442983Y0130508D01*
X0442983Y0094917D02*
X0436983Y0094917D01*
X0436983Y0084917D02*
X0442983Y0084917D01*
X0442983Y0074917D02*
X0436983Y0074917D01*
X0436983Y0064917D02*
X0442983Y0064917D01*
X0442983Y0054917D02*
X0436983Y0054917D01*
X0189668Y0031500D02*
X0189668Y0025500D01*
X0179668Y0025500D02*
X0179668Y0031500D01*
X0169668Y0031500D02*
X0169668Y0025500D01*
X0159668Y0025500D02*
X0159668Y0031500D01*
X0149668Y0031500D02*
X0149668Y0025500D01*
D18*
X0117168Y0153500D03*
X0107168Y0153500D03*
X0107168Y0163500D03*
X0117168Y0163500D03*
X0117168Y0173500D03*
X0107168Y0173500D03*
X0107168Y0183500D03*
X0117168Y0183500D03*
X0174668Y0178500D03*
X0184668Y0178500D03*
X0184668Y0188500D03*
X0174668Y0188500D03*
D19*
X0434668Y0193500D03*
X0434668Y0036000D03*
D20*
X0079668Y0163382D03*
X0079668Y0165941D03*
X0079668Y0168500D03*
X0079668Y0171059D03*
X0079668Y0173618D03*
D21*
X0070408Y0174740D02*
X0070408Y0170260D01*
X0065928Y0170260D01*
X0065928Y0174740D01*
X0070408Y0174740D01*
X0070408Y0172179D02*
X0065928Y0172179D01*
X0065928Y0174098D02*
X0070408Y0174098D01*
X0070408Y0166740D02*
X0070408Y0162260D01*
X0065928Y0162260D01*
X0065928Y0166740D01*
X0070408Y0166740D01*
X0070408Y0164179D02*
X0065928Y0164179D01*
X0065928Y0166098D02*
X0070408Y0166098D01*
D22*
X0068168Y0152949D03*
X0068168Y0184051D03*
M02*
