G75*
%MOIN*%
%OFA0B0*%
%FSLAX25Y25*%
%IPPOS*%
%LPD*%
%AMOC8*
5,1,8,0,0,1.08239X$1,22.5*
%
%ADD10C,0.00000*%
%ADD11C,0.00600*%
%ADD12C,0.01181*%
%ADD13R,0.03937X0.04331*%
%ADD14C,0.05200*%
%ADD15R,0.02500X0.06000*%
%ADD16C,0.07400*%
%ADD17C,0.12661*%
%ADD18R,0.05900X0.07900*%
%ADD19R,0.15000X0.07900*%
%ADD20R,0.04724X0.03150*%
%ADD21R,0.01200X0.03900*%
%ADD22R,0.02362X0.04724*%
%ADD23R,0.03000X0.06000*%
%ADD24C,0.06000*%
%ADD25R,0.02165X0.04724*%
%ADD26OC8,0.06000*%
%ADD27R,0.04331X0.03937*%
%ADD28C,0.02400*%
%ADD29C,0.03562*%
%ADD30C,0.04724*%
%ADD31C,0.03600*%
%ADD32C,0.03200*%
%ADD33C,0.01600*%
%ADD34C,0.01200*%
D10*
X0059668Y0031528D02*
X0059668Y0185867D01*
X0059675Y0186459D01*
X0059697Y0187050D01*
X0059732Y0187640D01*
X0059782Y0188230D01*
X0059847Y0188818D01*
X0059925Y0189405D01*
X0060017Y0189989D01*
X0060124Y0190571D01*
X0060245Y0191150D01*
X0060379Y0191726D01*
X0060528Y0192299D01*
X0060690Y0192868D01*
X0060866Y0193433D01*
X0061056Y0193993D01*
X0061259Y0194549D01*
X0061475Y0195099D01*
X0061705Y0195645D01*
X0061948Y0196184D01*
X0062204Y0196718D01*
X0062472Y0197245D01*
X0062754Y0197765D01*
X0063047Y0198279D01*
X0063353Y0198785D01*
X0063672Y0199284D01*
X0064002Y0199775D01*
X0064344Y0200258D01*
X0064697Y0200732D01*
X0065062Y0201198D01*
X0065438Y0201655D01*
X0065825Y0202102D01*
X0066223Y0202540D01*
X0066631Y0202969D01*
X0067049Y0203387D01*
X0067478Y0203795D01*
X0067916Y0204193D01*
X0068363Y0204580D01*
X0068820Y0204956D01*
X0069286Y0205321D01*
X0069760Y0205674D01*
X0070243Y0206016D01*
X0070734Y0206346D01*
X0071233Y0206665D01*
X0071739Y0206971D01*
X0072253Y0207264D01*
X0072773Y0207546D01*
X0073300Y0207814D01*
X0073834Y0208070D01*
X0074373Y0208313D01*
X0074919Y0208543D01*
X0075469Y0208759D01*
X0076025Y0208962D01*
X0076585Y0209152D01*
X0077150Y0209328D01*
X0077719Y0209490D01*
X0078292Y0209639D01*
X0078868Y0209773D01*
X0079447Y0209894D01*
X0080029Y0210001D01*
X0080613Y0210093D01*
X0081200Y0210171D01*
X0081788Y0210236D01*
X0082378Y0210286D01*
X0082968Y0210321D01*
X0083559Y0210343D01*
X0084151Y0210350D01*
X0438667Y0210350D01*
X0438667Y0210351D02*
X0439022Y0210347D01*
X0439377Y0210334D01*
X0439732Y0210312D01*
X0440086Y0210282D01*
X0440439Y0210244D01*
X0440791Y0210197D01*
X0441142Y0210141D01*
X0441492Y0210077D01*
X0441839Y0210005D01*
X0442185Y0209924D01*
X0442529Y0209835D01*
X0442871Y0209737D01*
X0443210Y0209631D01*
X0443547Y0209518D01*
X0443880Y0209396D01*
X0444211Y0209266D01*
X0444538Y0209128D01*
X0444862Y0208982D01*
X0445183Y0208828D01*
X0445499Y0208667D01*
X0445812Y0208498D01*
X0446120Y0208322D01*
X0446424Y0208138D01*
X0446724Y0207947D01*
X0447019Y0207749D01*
X0447309Y0207543D01*
X0447594Y0207331D01*
X0447873Y0207112D01*
X0448147Y0206886D01*
X0448416Y0206654D01*
X0448679Y0206415D01*
X0448937Y0206170D01*
X0449188Y0205919D01*
X0449433Y0205661D01*
X0449672Y0205398D01*
X0449904Y0205129D01*
X0450130Y0204855D01*
X0450349Y0204576D01*
X0450561Y0204291D01*
X0450767Y0204001D01*
X0450965Y0203706D01*
X0451156Y0203406D01*
X0451340Y0203102D01*
X0451516Y0202794D01*
X0451685Y0202481D01*
X0451846Y0202165D01*
X0452000Y0201844D01*
X0452146Y0201520D01*
X0452284Y0201193D01*
X0452414Y0200862D01*
X0452536Y0200529D01*
X0452649Y0200192D01*
X0452755Y0199853D01*
X0452853Y0199511D01*
X0452942Y0199167D01*
X0453023Y0198821D01*
X0453095Y0198474D01*
X0453159Y0198124D01*
X0453215Y0197773D01*
X0453262Y0197421D01*
X0453300Y0197068D01*
X0453330Y0196714D01*
X0453352Y0196359D01*
X0453365Y0196004D01*
X0453369Y0195649D01*
X0453369Y0039112D01*
X0429747Y0036000D02*
X0429749Y0036140D01*
X0429755Y0036280D01*
X0429765Y0036419D01*
X0429779Y0036558D01*
X0429797Y0036697D01*
X0429818Y0036835D01*
X0429844Y0036973D01*
X0429874Y0037110D01*
X0429907Y0037245D01*
X0429945Y0037380D01*
X0429986Y0037514D01*
X0430031Y0037647D01*
X0430079Y0037778D01*
X0430132Y0037907D01*
X0430188Y0038036D01*
X0430247Y0038162D01*
X0430311Y0038287D01*
X0430377Y0038410D01*
X0430448Y0038531D01*
X0430521Y0038650D01*
X0430598Y0038767D01*
X0430679Y0038881D01*
X0430762Y0038993D01*
X0430849Y0039103D01*
X0430939Y0039211D01*
X0431031Y0039315D01*
X0431127Y0039417D01*
X0431226Y0039517D01*
X0431327Y0039613D01*
X0431431Y0039707D01*
X0431538Y0039797D01*
X0431647Y0039884D01*
X0431759Y0039969D01*
X0431873Y0040050D01*
X0431989Y0040128D01*
X0432107Y0040202D01*
X0432228Y0040273D01*
X0432350Y0040341D01*
X0432475Y0040405D01*
X0432601Y0040466D01*
X0432728Y0040523D01*
X0432858Y0040576D01*
X0432989Y0040626D01*
X0433121Y0040671D01*
X0433254Y0040714D01*
X0433389Y0040752D01*
X0433524Y0040786D01*
X0433661Y0040817D01*
X0433798Y0040844D01*
X0433936Y0040866D01*
X0434075Y0040885D01*
X0434214Y0040900D01*
X0434353Y0040911D01*
X0434493Y0040918D01*
X0434633Y0040921D01*
X0434773Y0040920D01*
X0434913Y0040915D01*
X0435052Y0040906D01*
X0435192Y0040893D01*
X0435331Y0040876D01*
X0435469Y0040855D01*
X0435607Y0040831D01*
X0435744Y0040802D01*
X0435880Y0040770D01*
X0436015Y0040733D01*
X0436149Y0040693D01*
X0436282Y0040649D01*
X0436413Y0040601D01*
X0436543Y0040550D01*
X0436672Y0040495D01*
X0436799Y0040436D01*
X0436924Y0040373D01*
X0437047Y0040308D01*
X0437169Y0040238D01*
X0437288Y0040165D01*
X0437406Y0040089D01*
X0437521Y0040010D01*
X0437634Y0039927D01*
X0437744Y0039841D01*
X0437852Y0039752D01*
X0437957Y0039660D01*
X0438060Y0039565D01*
X0438160Y0039467D01*
X0438257Y0039367D01*
X0438351Y0039263D01*
X0438443Y0039157D01*
X0438531Y0039049D01*
X0438616Y0038938D01*
X0438698Y0038824D01*
X0438777Y0038708D01*
X0438852Y0038591D01*
X0438924Y0038471D01*
X0438992Y0038349D01*
X0439057Y0038225D01*
X0439119Y0038099D01*
X0439177Y0037972D01*
X0439231Y0037843D01*
X0439282Y0037712D01*
X0439328Y0037580D01*
X0439371Y0037447D01*
X0439411Y0037313D01*
X0439446Y0037178D01*
X0439478Y0037041D01*
X0439505Y0036904D01*
X0439529Y0036766D01*
X0439549Y0036628D01*
X0439565Y0036489D01*
X0439577Y0036349D01*
X0439585Y0036210D01*
X0439589Y0036070D01*
X0439589Y0035930D01*
X0439585Y0035790D01*
X0439577Y0035651D01*
X0439565Y0035511D01*
X0439549Y0035372D01*
X0439529Y0035234D01*
X0439505Y0035096D01*
X0439478Y0034959D01*
X0439446Y0034822D01*
X0439411Y0034687D01*
X0439371Y0034553D01*
X0439328Y0034420D01*
X0439282Y0034288D01*
X0439231Y0034157D01*
X0439177Y0034028D01*
X0439119Y0033901D01*
X0439057Y0033775D01*
X0438992Y0033651D01*
X0438924Y0033529D01*
X0438852Y0033409D01*
X0438777Y0033292D01*
X0438698Y0033176D01*
X0438616Y0033062D01*
X0438531Y0032951D01*
X0438443Y0032843D01*
X0438351Y0032737D01*
X0438257Y0032633D01*
X0438160Y0032533D01*
X0438060Y0032435D01*
X0437957Y0032340D01*
X0437852Y0032248D01*
X0437744Y0032159D01*
X0437634Y0032073D01*
X0437521Y0031990D01*
X0437406Y0031911D01*
X0437288Y0031835D01*
X0437169Y0031762D01*
X0437047Y0031692D01*
X0436924Y0031627D01*
X0436799Y0031564D01*
X0436672Y0031505D01*
X0436543Y0031450D01*
X0436413Y0031399D01*
X0436282Y0031351D01*
X0436149Y0031307D01*
X0436015Y0031267D01*
X0435880Y0031230D01*
X0435744Y0031198D01*
X0435607Y0031169D01*
X0435469Y0031145D01*
X0435331Y0031124D01*
X0435192Y0031107D01*
X0435052Y0031094D01*
X0434913Y0031085D01*
X0434773Y0031080D01*
X0434633Y0031079D01*
X0434493Y0031082D01*
X0434353Y0031089D01*
X0434214Y0031100D01*
X0434075Y0031115D01*
X0433936Y0031134D01*
X0433798Y0031156D01*
X0433661Y0031183D01*
X0433524Y0031214D01*
X0433389Y0031248D01*
X0433254Y0031286D01*
X0433121Y0031329D01*
X0432989Y0031374D01*
X0432858Y0031424D01*
X0432728Y0031477D01*
X0432601Y0031534D01*
X0432475Y0031595D01*
X0432350Y0031659D01*
X0432228Y0031727D01*
X0432107Y0031798D01*
X0431989Y0031872D01*
X0431873Y0031950D01*
X0431759Y0032031D01*
X0431647Y0032116D01*
X0431538Y0032203D01*
X0431431Y0032293D01*
X0431327Y0032387D01*
X0431226Y0032483D01*
X0431127Y0032583D01*
X0431031Y0032685D01*
X0430939Y0032789D01*
X0430849Y0032897D01*
X0430762Y0033007D01*
X0430679Y0033119D01*
X0430598Y0033233D01*
X0430521Y0033350D01*
X0430448Y0033469D01*
X0430377Y0033590D01*
X0430311Y0033713D01*
X0430247Y0033838D01*
X0430188Y0033964D01*
X0430132Y0034093D01*
X0430079Y0034222D01*
X0430031Y0034353D01*
X0429986Y0034486D01*
X0429945Y0034620D01*
X0429907Y0034755D01*
X0429874Y0034890D01*
X0429844Y0035027D01*
X0429818Y0035165D01*
X0429797Y0035303D01*
X0429779Y0035442D01*
X0429765Y0035581D01*
X0429755Y0035720D01*
X0429749Y0035860D01*
X0429747Y0036000D01*
X0427757Y0013500D02*
X0428376Y0013507D01*
X0428994Y0013530D01*
X0429612Y0013567D01*
X0430229Y0013620D01*
X0430844Y0013687D01*
X0431458Y0013769D01*
X0432069Y0013866D01*
X0432678Y0013977D01*
X0433284Y0014103D01*
X0433886Y0014244D01*
X0434485Y0014400D01*
X0435081Y0014569D01*
X0435672Y0014754D01*
X0436258Y0014952D01*
X0436839Y0015164D01*
X0437415Y0015391D01*
X0437986Y0015631D01*
X0438550Y0015885D01*
X0439108Y0016153D01*
X0439659Y0016434D01*
X0440204Y0016728D01*
X0440741Y0017035D01*
X0441271Y0017355D01*
X0441793Y0017688D01*
X0442306Y0018034D01*
X0442811Y0018391D01*
X0443308Y0018761D01*
X0443795Y0019143D01*
X0444273Y0019536D01*
X0444741Y0019941D01*
X0445199Y0020357D01*
X0445647Y0020784D01*
X0446085Y0021222D01*
X0446512Y0021670D01*
X0446928Y0022128D01*
X0447333Y0022596D01*
X0447726Y0023074D01*
X0448108Y0023561D01*
X0448478Y0024058D01*
X0448835Y0024563D01*
X0449181Y0025076D01*
X0449514Y0025598D01*
X0449834Y0026128D01*
X0450141Y0026665D01*
X0450435Y0027210D01*
X0450716Y0027761D01*
X0450984Y0028319D01*
X0451238Y0028883D01*
X0451478Y0029454D01*
X0451705Y0030030D01*
X0451917Y0030611D01*
X0452115Y0031197D01*
X0452300Y0031788D01*
X0452469Y0032384D01*
X0452625Y0032983D01*
X0452766Y0033585D01*
X0452892Y0034191D01*
X0453003Y0034800D01*
X0453100Y0035411D01*
X0453182Y0036025D01*
X0453249Y0036640D01*
X0453302Y0037257D01*
X0453339Y0037875D01*
X0453362Y0038493D01*
X0453369Y0039112D01*
X0427757Y0013500D02*
X0077695Y0013500D01*
X0077259Y0013505D01*
X0076824Y0013521D01*
X0076389Y0013547D01*
X0075955Y0013584D01*
X0075522Y0013631D01*
X0075090Y0013689D01*
X0074660Y0013757D01*
X0074231Y0013836D01*
X0073805Y0013925D01*
X0073381Y0014024D01*
X0072959Y0014133D01*
X0072540Y0014253D01*
X0072124Y0014382D01*
X0071711Y0014522D01*
X0071302Y0014672D01*
X0070897Y0014831D01*
X0070495Y0015000D01*
X0070098Y0015179D01*
X0069705Y0015367D01*
X0069317Y0015565D01*
X0068934Y0015772D01*
X0068556Y0015988D01*
X0068183Y0016214D01*
X0067815Y0016448D01*
X0067454Y0016691D01*
X0067098Y0016943D01*
X0066749Y0017203D01*
X0066406Y0017472D01*
X0066070Y0017749D01*
X0065740Y0018034D01*
X0065418Y0018327D01*
X0065102Y0018627D01*
X0064794Y0018935D01*
X0064494Y0019251D01*
X0064201Y0019573D01*
X0063916Y0019903D01*
X0063639Y0020239D01*
X0063370Y0020582D01*
X0063110Y0020931D01*
X0062858Y0021287D01*
X0062615Y0021648D01*
X0062381Y0022016D01*
X0062155Y0022389D01*
X0061939Y0022767D01*
X0061732Y0023150D01*
X0061534Y0023538D01*
X0061346Y0023931D01*
X0061167Y0024328D01*
X0060998Y0024730D01*
X0060839Y0025135D01*
X0060689Y0025544D01*
X0060549Y0025957D01*
X0060420Y0026373D01*
X0060300Y0026792D01*
X0060191Y0027214D01*
X0060092Y0027638D01*
X0060003Y0028064D01*
X0059924Y0028493D01*
X0059856Y0028923D01*
X0059798Y0029355D01*
X0059751Y0029788D01*
X0059714Y0030222D01*
X0059688Y0030657D01*
X0059672Y0031092D01*
X0059667Y0031528D01*
X0068920Y0107142D02*
X0068922Y0107235D01*
X0068928Y0107327D01*
X0068938Y0107419D01*
X0068952Y0107510D01*
X0068969Y0107601D01*
X0068991Y0107691D01*
X0069016Y0107780D01*
X0069045Y0107868D01*
X0069078Y0107954D01*
X0069115Y0108039D01*
X0069155Y0108123D01*
X0069199Y0108204D01*
X0069246Y0108284D01*
X0069296Y0108362D01*
X0069350Y0108437D01*
X0069407Y0108510D01*
X0069467Y0108580D01*
X0069530Y0108648D01*
X0069596Y0108713D01*
X0069664Y0108775D01*
X0069735Y0108835D01*
X0069809Y0108891D01*
X0069885Y0108944D01*
X0069963Y0108993D01*
X0070043Y0109040D01*
X0070125Y0109082D01*
X0070209Y0109122D01*
X0070294Y0109157D01*
X0070381Y0109189D01*
X0070469Y0109218D01*
X0070558Y0109242D01*
X0070648Y0109263D01*
X0070739Y0109279D01*
X0070831Y0109292D01*
X0070923Y0109301D01*
X0071016Y0109306D01*
X0071108Y0109307D01*
X0071201Y0109304D01*
X0071293Y0109297D01*
X0071385Y0109286D01*
X0071476Y0109271D01*
X0071567Y0109253D01*
X0071657Y0109230D01*
X0071745Y0109204D01*
X0071833Y0109174D01*
X0071919Y0109140D01*
X0072003Y0109103D01*
X0072086Y0109061D01*
X0072167Y0109017D01*
X0072247Y0108969D01*
X0072324Y0108918D01*
X0072398Y0108863D01*
X0072471Y0108805D01*
X0072541Y0108745D01*
X0072608Y0108681D01*
X0072672Y0108615D01*
X0072734Y0108545D01*
X0072792Y0108474D01*
X0072847Y0108400D01*
X0072899Y0108323D01*
X0072948Y0108244D01*
X0072994Y0108164D01*
X0073036Y0108081D01*
X0073074Y0107997D01*
X0073109Y0107911D01*
X0073140Y0107824D01*
X0073167Y0107736D01*
X0073190Y0107646D01*
X0073210Y0107556D01*
X0073226Y0107465D01*
X0073238Y0107373D01*
X0073246Y0107281D01*
X0073250Y0107188D01*
X0073250Y0107096D01*
X0073246Y0107003D01*
X0073238Y0106911D01*
X0073226Y0106819D01*
X0073210Y0106728D01*
X0073190Y0106638D01*
X0073167Y0106548D01*
X0073140Y0106460D01*
X0073109Y0106373D01*
X0073074Y0106287D01*
X0073036Y0106203D01*
X0072994Y0106120D01*
X0072948Y0106040D01*
X0072899Y0105961D01*
X0072847Y0105884D01*
X0072792Y0105810D01*
X0072734Y0105739D01*
X0072672Y0105669D01*
X0072608Y0105603D01*
X0072541Y0105539D01*
X0072471Y0105479D01*
X0072398Y0105421D01*
X0072324Y0105366D01*
X0072247Y0105315D01*
X0072168Y0105267D01*
X0072086Y0105223D01*
X0072003Y0105181D01*
X0071919Y0105144D01*
X0071833Y0105110D01*
X0071745Y0105080D01*
X0071657Y0105054D01*
X0071567Y0105031D01*
X0071476Y0105013D01*
X0071385Y0104998D01*
X0071293Y0104987D01*
X0071201Y0104980D01*
X0071108Y0104977D01*
X0071016Y0104978D01*
X0070923Y0104983D01*
X0070831Y0104992D01*
X0070739Y0105005D01*
X0070648Y0105021D01*
X0070558Y0105042D01*
X0070469Y0105066D01*
X0070381Y0105095D01*
X0070294Y0105127D01*
X0070209Y0105162D01*
X0070125Y0105202D01*
X0070043Y0105244D01*
X0069963Y0105291D01*
X0069885Y0105340D01*
X0069809Y0105393D01*
X0069735Y0105449D01*
X0069664Y0105509D01*
X0069596Y0105571D01*
X0069530Y0105636D01*
X0069467Y0105704D01*
X0069407Y0105774D01*
X0069350Y0105847D01*
X0069296Y0105922D01*
X0069246Y0106000D01*
X0069199Y0106080D01*
X0069155Y0106161D01*
X0069115Y0106245D01*
X0069078Y0106330D01*
X0069045Y0106416D01*
X0069016Y0106504D01*
X0068991Y0106593D01*
X0068969Y0106683D01*
X0068952Y0106774D01*
X0068938Y0106865D01*
X0068928Y0106957D01*
X0068922Y0107049D01*
X0068920Y0107142D01*
X0068920Y0124858D02*
X0068922Y0124951D01*
X0068928Y0125043D01*
X0068938Y0125135D01*
X0068952Y0125226D01*
X0068969Y0125317D01*
X0068991Y0125407D01*
X0069016Y0125496D01*
X0069045Y0125584D01*
X0069078Y0125670D01*
X0069115Y0125755D01*
X0069155Y0125839D01*
X0069199Y0125920D01*
X0069246Y0126000D01*
X0069296Y0126078D01*
X0069350Y0126153D01*
X0069407Y0126226D01*
X0069467Y0126296D01*
X0069530Y0126364D01*
X0069596Y0126429D01*
X0069664Y0126491D01*
X0069735Y0126551D01*
X0069809Y0126607D01*
X0069885Y0126660D01*
X0069963Y0126709D01*
X0070043Y0126756D01*
X0070125Y0126798D01*
X0070209Y0126838D01*
X0070294Y0126873D01*
X0070381Y0126905D01*
X0070469Y0126934D01*
X0070558Y0126958D01*
X0070648Y0126979D01*
X0070739Y0126995D01*
X0070831Y0127008D01*
X0070923Y0127017D01*
X0071016Y0127022D01*
X0071108Y0127023D01*
X0071201Y0127020D01*
X0071293Y0127013D01*
X0071385Y0127002D01*
X0071476Y0126987D01*
X0071567Y0126969D01*
X0071657Y0126946D01*
X0071745Y0126920D01*
X0071833Y0126890D01*
X0071919Y0126856D01*
X0072003Y0126819D01*
X0072086Y0126777D01*
X0072167Y0126733D01*
X0072247Y0126685D01*
X0072324Y0126634D01*
X0072398Y0126579D01*
X0072471Y0126521D01*
X0072541Y0126461D01*
X0072608Y0126397D01*
X0072672Y0126331D01*
X0072734Y0126261D01*
X0072792Y0126190D01*
X0072847Y0126116D01*
X0072899Y0126039D01*
X0072948Y0125960D01*
X0072994Y0125880D01*
X0073036Y0125797D01*
X0073074Y0125713D01*
X0073109Y0125627D01*
X0073140Y0125540D01*
X0073167Y0125452D01*
X0073190Y0125362D01*
X0073210Y0125272D01*
X0073226Y0125181D01*
X0073238Y0125089D01*
X0073246Y0124997D01*
X0073250Y0124904D01*
X0073250Y0124812D01*
X0073246Y0124719D01*
X0073238Y0124627D01*
X0073226Y0124535D01*
X0073210Y0124444D01*
X0073190Y0124354D01*
X0073167Y0124264D01*
X0073140Y0124176D01*
X0073109Y0124089D01*
X0073074Y0124003D01*
X0073036Y0123919D01*
X0072994Y0123836D01*
X0072948Y0123756D01*
X0072899Y0123677D01*
X0072847Y0123600D01*
X0072792Y0123526D01*
X0072734Y0123455D01*
X0072672Y0123385D01*
X0072608Y0123319D01*
X0072541Y0123255D01*
X0072471Y0123195D01*
X0072398Y0123137D01*
X0072324Y0123082D01*
X0072247Y0123031D01*
X0072168Y0122983D01*
X0072086Y0122939D01*
X0072003Y0122897D01*
X0071919Y0122860D01*
X0071833Y0122826D01*
X0071745Y0122796D01*
X0071657Y0122770D01*
X0071567Y0122747D01*
X0071476Y0122729D01*
X0071385Y0122714D01*
X0071293Y0122703D01*
X0071201Y0122696D01*
X0071108Y0122693D01*
X0071016Y0122694D01*
X0070923Y0122699D01*
X0070831Y0122708D01*
X0070739Y0122721D01*
X0070648Y0122737D01*
X0070558Y0122758D01*
X0070469Y0122782D01*
X0070381Y0122811D01*
X0070294Y0122843D01*
X0070209Y0122878D01*
X0070125Y0122918D01*
X0070043Y0122960D01*
X0069963Y0123007D01*
X0069885Y0123056D01*
X0069809Y0123109D01*
X0069735Y0123165D01*
X0069664Y0123225D01*
X0069596Y0123287D01*
X0069530Y0123352D01*
X0069467Y0123420D01*
X0069407Y0123490D01*
X0069350Y0123563D01*
X0069296Y0123638D01*
X0069246Y0123716D01*
X0069199Y0123796D01*
X0069155Y0123877D01*
X0069115Y0123961D01*
X0069078Y0124046D01*
X0069045Y0124132D01*
X0069016Y0124220D01*
X0068991Y0124309D01*
X0068969Y0124399D01*
X0068952Y0124490D01*
X0068938Y0124581D01*
X0068928Y0124673D01*
X0068922Y0124765D01*
X0068920Y0124858D01*
X0429747Y0193500D02*
X0429749Y0193640D01*
X0429755Y0193780D01*
X0429765Y0193919D01*
X0429779Y0194058D01*
X0429797Y0194197D01*
X0429818Y0194335D01*
X0429844Y0194473D01*
X0429874Y0194610D01*
X0429907Y0194745D01*
X0429945Y0194880D01*
X0429986Y0195014D01*
X0430031Y0195147D01*
X0430079Y0195278D01*
X0430132Y0195407D01*
X0430188Y0195536D01*
X0430247Y0195662D01*
X0430311Y0195787D01*
X0430377Y0195910D01*
X0430448Y0196031D01*
X0430521Y0196150D01*
X0430598Y0196267D01*
X0430679Y0196381D01*
X0430762Y0196493D01*
X0430849Y0196603D01*
X0430939Y0196711D01*
X0431031Y0196815D01*
X0431127Y0196917D01*
X0431226Y0197017D01*
X0431327Y0197113D01*
X0431431Y0197207D01*
X0431538Y0197297D01*
X0431647Y0197384D01*
X0431759Y0197469D01*
X0431873Y0197550D01*
X0431989Y0197628D01*
X0432107Y0197702D01*
X0432228Y0197773D01*
X0432350Y0197841D01*
X0432475Y0197905D01*
X0432601Y0197966D01*
X0432728Y0198023D01*
X0432858Y0198076D01*
X0432989Y0198126D01*
X0433121Y0198171D01*
X0433254Y0198214D01*
X0433389Y0198252D01*
X0433524Y0198286D01*
X0433661Y0198317D01*
X0433798Y0198344D01*
X0433936Y0198366D01*
X0434075Y0198385D01*
X0434214Y0198400D01*
X0434353Y0198411D01*
X0434493Y0198418D01*
X0434633Y0198421D01*
X0434773Y0198420D01*
X0434913Y0198415D01*
X0435052Y0198406D01*
X0435192Y0198393D01*
X0435331Y0198376D01*
X0435469Y0198355D01*
X0435607Y0198331D01*
X0435744Y0198302D01*
X0435880Y0198270D01*
X0436015Y0198233D01*
X0436149Y0198193D01*
X0436282Y0198149D01*
X0436413Y0198101D01*
X0436543Y0198050D01*
X0436672Y0197995D01*
X0436799Y0197936D01*
X0436924Y0197873D01*
X0437047Y0197808D01*
X0437169Y0197738D01*
X0437288Y0197665D01*
X0437406Y0197589D01*
X0437521Y0197510D01*
X0437634Y0197427D01*
X0437744Y0197341D01*
X0437852Y0197252D01*
X0437957Y0197160D01*
X0438060Y0197065D01*
X0438160Y0196967D01*
X0438257Y0196867D01*
X0438351Y0196763D01*
X0438443Y0196657D01*
X0438531Y0196549D01*
X0438616Y0196438D01*
X0438698Y0196324D01*
X0438777Y0196208D01*
X0438852Y0196091D01*
X0438924Y0195971D01*
X0438992Y0195849D01*
X0439057Y0195725D01*
X0439119Y0195599D01*
X0439177Y0195472D01*
X0439231Y0195343D01*
X0439282Y0195212D01*
X0439328Y0195080D01*
X0439371Y0194947D01*
X0439411Y0194813D01*
X0439446Y0194678D01*
X0439478Y0194541D01*
X0439505Y0194404D01*
X0439529Y0194266D01*
X0439549Y0194128D01*
X0439565Y0193989D01*
X0439577Y0193849D01*
X0439585Y0193710D01*
X0439589Y0193570D01*
X0439589Y0193430D01*
X0439585Y0193290D01*
X0439577Y0193151D01*
X0439565Y0193011D01*
X0439549Y0192872D01*
X0439529Y0192734D01*
X0439505Y0192596D01*
X0439478Y0192459D01*
X0439446Y0192322D01*
X0439411Y0192187D01*
X0439371Y0192053D01*
X0439328Y0191920D01*
X0439282Y0191788D01*
X0439231Y0191657D01*
X0439177Y0191528D01*
X0439119Y0191401D01*
X0439057Y0191275D01*
X0438992Y0191151D01*
X0438924Y0191029D01*
X0438852Y0190909D01*
X0438777Y0190792D01*
X0438698Y0190676D01*
X0438616Y0190562D01*
X0438531Y0190451D01*
X0438443Y0190343D01*
X0438351Y0190237D01*
X0438257Y0190133D01*
X0438160Y0190033D01*
X0438060Y0189935D01*
X0437957Y0189840D01*
X0437852Y0189748D01*
X0437744Y0189659D01*
X0437634Y0189573D01*
X0437521Y0189490D01*
X0437406Y0189411D01*
X0437288Y0189335D01*
X0437169Y0189262D01*
X0437047Y0189192D01*
X0436924Y0189127D01*
X0436799Y0189064D01*
X0436672Y0189005D01*
X0436543Y0188950D01*
X0436413Y0188899D01*
X0436282Y0188851D01*
X0436149Y0188807D01*
X0436015Y0188767D01*
X0435880Y0188730D01*
X0435744Y0188698D01*
X0435607Y0188669D01*
X0435469Y0188645D01*
X0435331Y0188624D01*
X0435192Y0188607D01*
X0435052Y0188594D01*
X0434913Y0188585D01*
X0434773Y0188580D01*
X0434633Y0188579D01*
X0434493Y0188582D01*
X0434353Y0188589D01*
X0434214Y0188600D01*
X0434075Y0188615D01*
X0433936Y0188634D01*
X0433798Y0188656D01*
X0433661Y0188683D01*
X0433524Y0188714D01*
X0433389Y0188748D01*
X0433254Y0188786D01*
X0433121Y0188829D01*
X0432989Y0188874D01*
X0432858Y0188924D01*
X0432728Y0188977D01*
X0432601Y0189034D01*
X0432475Y0189095D01*
X0432350Y0189159D01*
X0432228Y0189227D01*
X0432107Y0189298D01*
X0431989Y0189372D01*
X0431873Y0189450D01*
X0431759Y0189531D01*
X0431647Y0189616D01*
X0431538Y0189703D01*
X0431431Y0189793D01*
X0431327Y0189887D01*
X0431226Y0189983D01*
X0431127Y0190083D01*
X0431031Y0190185D01*
X0430939Y0190289D01*
X0430849Y0190397D01*
X0430762Y0190507D01*
X0430679Y0190619D01*
X0430598Y0190733D01*
X0430521Y0190850D01*
X0430448Y0190969D01*
X0430377Y0191090D01*
X0430311Y0191213D01*
X0430247Y0191338D01*
X0430188Y0191464D01*
X0430132Y0191593D01*
X0430079Y0191722D01*
X0430031Y0191853D01*
X0429986Y0191986D01*
X0429945Y0192120D01*
X0429907Y0192255D01*
X0429874Y0192390D01*
X0429844Y0192527D01*
X0429818Y0192665D01*
X0429797Y0192803D01*
X0429779Y0192942D01*
X0429765Y0193081D01*
X0429755Y0193220D01*
X0429749Y0193360D01*
X0429747Y0193500D01*
X0431794Y0111925D02*
X0431796Y0112118D01*
X0431803Y0112311D01*
X0431815Y0112504D01*
X0431832Y0112697D01*
X0431853Y0112889D01*
X0431879Y0113080D01*
X0431910Y0113271D01*
X0431945Y0113461D01*
X0431985Y0113650D01*
X0432030Y0113838D01*
X0432079Y0114025D01*
X0432133Y0114211D01*
X0432191Y0114395D01*
X0432254Y0114578D01*
X0432322Y0114759D01*
X0432393Y0114938D01*
X0432470Y0115116D01*
X0432550Y0115292D01*
X0432635Y0115465D01*
X0432724Y0115637D01*
X0432817Y0115806D01*
X0432914Y0115973D01*
X0433016Y0116138D01*
X0433121Y0116300D01*
X0433230Y0116459D01*
X0433344Y0116616D01*
X0433461Y0116769D01*
X0433581Y0116920D01*
X0433706Y0117068D01*
X0433834Y0117213D01*
X0433965Y0117354D01*
X0434100Y0117493D01*
X0434239Y0117628D01*
X0434380Y0117759D01*
X0434525Y0117887D01*
X0434673Y0118012D01*
X0434824Y0118132D01*
X0434977Y0118249D01*
X0435134Y0118363D01*
X0435293Y0118472D01*
X0435455Y0118577D01*
X0435620Y0118679D01*
X0435787Y0118776D01*
X0435956Y0118869D01*
X0436128Y0118958D01*
X0436301Y0119043D01*
X0436477Y0119123D01*
X0436655Y0119200D01*
X0436834Y0119271D01*
X0437015Y0119339D01*
X0437198Y0119402D01*
X0437382Y0119460D01*
X0437568Y0119514D01*
X0437755Y0119563D01*
X0437943Y0119608D01*
X0438132Y0119648D01*
X0438322Y0119683D01*
X0438513Y0119714D01*
X0438704Y0119740D01*
X0438896Y0119761D01*
X0439089Y0119778D01*
X0439282Y0119790D01*
X0439475Y0119797D01*
X0439668Y0119799D01*
X0439861Y0119797D01*
X0440054Y0119790D01*
X0440247Y0119778D01*
X0440440Y0119761D01*
X0440632Y0119740D01*
X0440823Y0119714D01*
X0441014Y0119683D01*
X0441204Y0119648D01*
X0441393Y0119608D01*
X0441581Y0119563D01*
X0441768Y0119514D01*
X0441954Y0119460D01*
X0442138Y0119402D01*
X0442321Y0119339D01*
X0442502Y0119271D01*
X0442681Y0119200D01*
X0442859Y0119123D01*
X0443035Y0119043D01*
X0443208Y0118958D01*
X0443380Y0118869D01*
X0443549Y0118776D01*
X0443716Y0118679D01*
X0443881Y0118577D01*
X0444043Y0118472D01*
X0444202Y0118363D01*
X0444359Y0118249D01*
X0444512Y0118132D01*
X0444663Y0118012D01*
X0444811Y0117887D01*
X0444956Y0117759D01*
X0445097Y0117628D01*
X0445236Y0117493D01*
X0445371Y0117354D01*
X0445502Y0117213D01*
X0445630Y0117068D01*
X0445755Y0116920D01*
X0445875Y0116769D01*
X0445992Y0116616D01*
X0446106Y0116459D01*
X0446215Y0116300D01*
X0446320Y0116138D01*
X0446422Y0115973D01*
X0446519Y0115806D01*
X0446612Y0115637D01*
X0446701Y0115465D01*
X0446786Y0115292D01*
X0446866Y0115116D01*
X0446943Y0114938D01*
X0447014Y0114759D01*
X0447082Y0114578D01*
X0447145Y0114395D01*
X0447203Y0114211D01*
X0447257Y0114025D01*
X0447306Y0113838D01*
X0447351Y0113650D01*
X0447391Y0113461D01*
X0447426Y0113271D01*
X0447457Y0113080D01*
X0447483Y0112889D01*
X0447504Y0112697D01*
X0447521Y0112504D01*
X0447533Y0112311D01*
X0447540Y0112118D01*
X0447542Y0111925D01*
X0447540Y0111732D01*
X0447533Y0111539D01*
X0447521Y0111346D01*
X0447504Y0111153D01*
X0447483Y0110961D01*
X0447457Y0110770D01*
X0447426Y0110579D01*
X0447391Y0110389D01*
X0447351Y0110200D01*
X0447306Y0110012D01*
X0447257Y0109825D01*
X0447203Y0109639D01*
X0447145Y0109455D01*
X0447082Y0109272D01*
X0447014Y0109091D01*
X0446943Y0108912D01*
X0446866Y0108734D01*
X0446786Y0108558D01*
X0446701Y0108385D01*
X0446612Y0108213D01*
X0446519Y0108044D01*
X0446422Y0107877D01*
X0446320Y0107712D01*
X0446215Y0107550D01*
X0446106Y0107391D01*
X0445992Y0107234D01*
X0445875Y0107081D01*
X0445755Y0106930D01*
X0445630Y0106782D01*
X0445502Y0106637D01*
X0445371Y0106496D01*
X0445236Y0106357D01*
X0445097Y0106222D01*
X0444956Y0106091D01*
X0444811Y0105963D01*
X0444663Y0105838D01*
X0444512Y0105718D01*
X0444359Y0105601D01*
X0444202Y0105487D01*
X0444043Y0105378D01*
X0443881Y0105273D01*
X0443716Y0105171D01*
X0443549Y0105074D01*
X0443380Y0104981D01*
X0443208Y0104892D01*
X0443035Y0104807D01*
X0442859Y0104727D01*
X0442681Y0104650D01*
X0442502Y0104579D01*
X0442321Y0104511D01*
X0442138Y0104448D01*
X0441954Y0104390D01*
X0441768Y0104336D01*
X0441581Y0104287D01*
X0441393Y0104242D01*
X0441204Y0104202D01*
X0441014Y0104167D01*
X0440823Y0104136D01*
X0440632Y0104110D01*
X0440440Y0104089D01*
X0440247Y0104072D01*
X0440054Y0104060D01*
X0439861Y0104053D01*
X0439668Y0104051D01*
X0439475Y0104053D01*
X0439282Y0104060D01*
X0439089Y0104072D01*
X0438896Y0104089D01*
X0438704Y0104110D01*
X0438513Y0104136D01*
X0438322Y0104167D01*
X0438132Y0104202D01*
X0437943Y0104242D01*
X0437755Y0104287D01*
X0437568Y0104336D01*
X0437382Y0104390D01*
X0437198Y0104448D01*
X0437015Y0104511D01*
X0436834Y0104579D01*
X0436655Y0104650D01*
X0436477Y0104727D01*
X0436301Y0104807D01*
X0436128Y0104892D01*
X0435956Y0104981D01*
X0435787Y0105074D01*
X0435620Y0105171D01*
X0435455Y0105273D01*
X0435293Y0105378D01*
X0435134Y0105487D01*
X0434977Y0105601D01*
X0434824Y0105718D01*
X0434673Y0105838D01*
X0434525Y0105963D01*
X0434380Y0106091D01*
X0434239Y0106222D01*
X0434100Y0106357D01*
X0433965Y0106496D01*
X0433834Y0106637D01*
X0433706Y0106782D01*
X0433581Y0106930D01*
X0433461Y0107081D01*
X0433344Y0107234D01*
X0433230Y0107391D01*
X0433121Y0107550D01*
X0433016Y0107712D01*
X0432914Y0107877D01*
X0432817Y0108044D01*
X0432724Y0108213D01*
X0432635Y0108385D01*
X0432550Y0108558D01*
X0432470Y0108734D01*
X0432393Y0108912D01*
X0432322Y0109091D01*
X0432254Y0109272D01*
X0432191Y0109455D01*
X0432133Y0109639D01*
X0432079Y0109825D01*
X0432030Y0110012D01*
X0431985Y0110200D01*
X0431945Y0110389D01*
X0431910Y0110579D01*
X0431879Y0110770D01*
X0431853Y0110961D01*
X0431832Y0111153D01*
X0431815Y0111346D01*
X0431803Y0111539D01*
X0431796Y0111732D01*
X0431794Y0111925D01*
D11*
X0408973Y0191200D02*
X0410140Y0192368D01*
X0410140Y0193535D01*
X0408973Y0194703D01*
X0405470Y0194703D01*
X0405470Y0192368D01*
X0406637Y0191200D01*
X0408973Y0191200D01*
X0405470Y0194703D02*
X0407805Y0197038D01*
X0410140Y0198206D01*
X0400807Y0198206D02*
X0400807Y0191200D01*
X0398472Y0191200D02*
X0403142Y0191200D01*
X0396144Y0192368D02*
X0394977Y0191200D01*
X0392641Y0191200D01*
X0391474Y0192368D01*
X0396144Y0197038D01*
X0396144Y0192368D01*
X0391474Y0192368D02*
X0391474Y0197038D01*
X0392641Y0198206D01*
X0394977Y0198206D01*
X0396144Y0197038D01*
X0398472Y0195871D02*
X0400807Y0198206D01*
X0389146Y0197038D02*
X0387979Y0198206D01*
X0385643Y0198206D01*
X0384476Y0197038D01*
X0389146Y0197038D02*
X0389146Y0195871D01*
X0384476Y0191200D01*
X0389146Y0191200D01*
X0375150Y0192368D02*
X0373983Y0191200D01*
X0371647Y0191200D01*
X0370480Y0192368D01*
X0368152Y0191200D02*
X0363482Y0191200D01*
X0363482Y0198206D01*
X0368152Y0198206D01*
X0370480Y0197038D02*
X0371647Y0198206D01*
X0373983Y0198206D01*
X0375150Y0197038D01*
X0373983Y0194703D02*
X0371647Y0194703D01*
X0370480Y0195871D01*
X0370480Y0197038D01*
X0373983Y0194703D02*
X0375150Y0193535D01*
X0375150Y0192368D01*
X0365817Y0194703D02*
X0363482Y0194703D01*
X0361155Y0192368D02*
X0361155Y0197038D01*
X0359987Y0198206D01*
X0356484Y0198206D01*
X0356484Y0191200D01*
X0359987Y0191200D01*
X0361155Y0192368D01*
X0354154Y0191200D02*
X0351819Y0191200D01*
X0352986Y0191200D02*
X0352986Y0198206D01*
X0351819Y0198206D02*
X0354154Y0198206D01*
X0349491Y0197038D02*
X0348324Y0198206D01*
X0345988Y0198206D01*
X0344821Y0197038D01*
X0344821Y0195871D01*
X0345988Y0194703D01*
X0348324Y0194703D01*
X0349491Y0193535D01*
X0349491Y0192368D01*
X0348324Y0191200D01*
X0345988Y0191200D01*
X0344821Y0192368D01*
X0342493Y0192368D02*
X0342493Y0193535D01*
X0341326Y0194703D01*
X0337823Y0194703D01*
X0341326Y0194703D02*
X0342493Y0195871D01*
X0342493Y0197038D01*
X0341326Y0198206D01*
X0337823Y0198206D01*
X0337823Y0191200D01*
X0341326Y0191200D01*
X0342493Y0192368D01*
D12*
X0342593Y0177378D02*
X0342593Y0174622D01*
X0339837Y0174622D01*
X0339837Y0177378D01*
X0342593Y0177378D01*
X0342593Y0175802D02*
X0339837Y0175802D01*
X0339837Y0176982D02*
X0342593Y0176982D01*
X0349498Y0177378D02*
X0349498Y0174622D01*
X0346742Y0174622D01*
X0346742Y0177378D01*
X0349498Y0177378D01*
X0349498Y0175802D02*
X0346742Y0175802D01*
X0346742Y0176982D02*
X0349498Y0176982D01*
X0362593Y0177378D02*
X0362593Y0174622D01*
X0359837Y0174622D01*
X0359837Y0177378D01*
X0362593Y0177378D01*
X0362593Y0175802D02*
X0359837Y0175802D01*
X0359837Y0176982D02*
X0362593Y0176982D01*
X0369498Y0177378D02*
X0369498Y0174622D01*
X0366742Y0174622D01*
X0366742Y0177378D01*
X0369498Y0177378D01*
X0369498Y0175802D02*
X0366742Y0175802D01*
X0366742Y0176982D02*
X0369498Y0176982D01*
X0382593Y0177378D02*
X0382593Y0174622D01*
X0379837Y0174622D01*
X0379837Y0177378D01*
X0382593Y0177378D01*
X0382593Y0175802D02*
X0379837Y0175802D01*
X0379837Y0176982D02*
X0382593Y0176982D01*
X0389498Y0177378D02*
X0389498Y0174622D01*
X0386742Y0174622D01*
X0386742Y0177378D01*
X0389498Y0177378D01*
X0389498Y0175802D02*
X0386742Y0175802D01*
X0386742Y0176982D02*
X0389498Y0176982D01*
X0402593Y0177378D02*
X0402593Y0174622D01*
X0399837Y0174622D01*
X0399837Y0177378D01*
X0402593Y0177378D01*
X0402593Y0175802D02*
X0399837Y0175802D01*
X0399837Y0176982D02*
X0402593Y0176982D01*
X0409498Y0177378D02*
X0409498Y0174622D01*
X0406742Y0174622D01*
X0406742Y0177378D01*
X0409498Y0177378D01*
X0409498Y0175802D02*
X0406742Y0175802D01*
X0406742Y0176982D02*
X0409498Y0176982D01*
X0419837Y0177378D02*
X0419837Y0174622D01*
X0419837Y0177378D02*
X0422593Y0177378D01*
X0422593Y0174622D01*
X0419837Y0174622D01*
X0419837Y0175802D02*
X0422593Y0175802D01*
X0422593Y0176982D02*
X0419837Y0176982D01*
X0426742Y0177378D02*
X0426742Y0174622D01*
X0426742Y0177378D02*
X0429498Y0177378D01*
X0429498Y0174622D01*
X0426742Y0174622D01*
X0426742Y0175802D02*
X0429498Y0175802D01*
X0429498Y0176982D02*
X0426742Y0176982D01*
X0429498Y0162378D02*
X0429498Y0159622D01*
X0426742Y0159622D01*
X0426742Y0162378D01*
X0429498Y0162378D01*
X0429498Y0160802D02*
X0426742Y0160802D01*
X0426742Y0161982D02*
X0429498Y0161982D01*
X0422593Y0162378D02*
X0422593Y0159622D01*
X0419837Y0159622D01*
X0419837Y0162378D01*
X0422593Y0162378D01*
X0422593Y0160802D02*
X0419837Y0160802D01*
X0419837Y0161982D02*
X0422593Y0161982D01*
X0409498Y0162378D02*
X0409498Y0159622D01*
X0406742Y0159622D01*
X0406742Y0162378D01*
X0409498Y0162378D01*
X0409498Y0160802D02*
X0406742Y0160802D01*
X0406742Y0161982D02*
X0409498Y0161982D01*
X0402593Y0162378D02*
X0402593Y0159622D01*
X0399837Y0159622D01*
X0399837Y0162378D01*
X0402593Y0162378D01*
X0402593Y0160802D02*
X0399837Y0160802D01*
X0399837Y0161982D02*
X0402593Y0161982D01*
X0389498Y0162378D02*
X0389498Y0159622D01*
X0386742Y0159622D01*
X0386742Y0162378D01*
X0389498Y0162378D01*
X0389498Y0160802D02*
X0386742Y0160802D01*
X0386742Y0161982D02*
X0389498Y0161982D01*
X0382593Y0162378D02*
X0382593Y0159622D01*
X0379837Y0159622D01*
X0379837Y0162378D01*
X0382593Y0162378D01*
X0382593Y0160802D02*
X0379837Y0160802D01*
X0379837Y0161982D02*
X0382593Y0161982D01*
X0369498Y0162378D02*
X0369498Y0159622D01*
X0366742Y0159622D01*
X0366742Y0162378D01*
X0369498Y0162378D01*
X0369498Y0160802D02*
X0366742Y0160802D01*
X0366742Y0161982D02*
X0369498Y0161982D01*
X0362593Y0162378D02*
X0362593Y0159622D01*
X0359837Y0159622D01*
X0359837Y0162378D01*
X0362593Y0162378D01*
X0362593Y0160802D02*
X0359837Y0160802D01*
X0359837Y0161982D02*
X0362593Y0161982D01*
X0349498Y0162378D02*
X0349498Y0159622D01*
X0346742Y0159622D01*
X0346742Y0162378D01*
X0349498Y0162378D01*
X0349498Y0160802D02*
X0346742Y0160802D01*
X0346742Y0161982D02*
X0349498Y0161982D01*
X0342593Y0162378D02*
X0342593Y0159622D01*
X0339837Y0159622D01*
X0339837Y0162378D01*
X0342593Y0162378D01*
X0342593Y0160802D02*
X0339837Y0160802D01*
X0339837Y0161982D02*
X0342593Y0161982D01*
X0329498Y0162378D02*
X0329498Y0159622D01*
X0326742Y0159622D01*
X0326742Y0162378D01*
X0329498Y0162378D01*
X0329498Y0160802D02*
X0326742Y0160802D01*
X0326742Y0161982D02*
X0329498Y0161982D01*
X0322593Y0162378D02*
X0322593Y0159622D01*
X0319837Y0159622D01*
X0319837Y0162378D01*
X0322593Y0162378D01*
X0322593Y0160802D02*
X0319837Y0160802D01*
X0319837Y0161982D02*
X0322593Y0161982D01*
X0309498Y0162378D02*
X0309498Y0159622D01*
X0306742Y0159622D01*
X0306742Y0162378D01*
X0309498Y0162378D01*
X0309498Y0160802D02*
X0306742Y0160802D01*
X0306742Y0161982D02*
X0309498Y0161982D01*
X0302593Y0162378D02*
X0302593Y0159622D01*
X0299837Y0159622D01*
X0299837Y0162378D01*
X0302593Y0162378D01*
X0302593Y0160802D02*
X0299837Y0160802D01*
X0299837Y0161982D02*
X0302593Y0161982D01*
X0289498Y0162378D02*
X0289498Y0159622D01*
X0286742Y0159622D01*
X0286742Y0162378D01*
X0289498Y0162378D01*
X0289498Y0160802D02*
X0286742Y0160802D01*
X0286742Y0161982D02*
X0289498Y0161982D01*
X0282593Y0162378D02*
X0282593Y0159622D01*
X0279837Y0159622D01*
X0279837Y0162378D01*
X0282593Y0162378D01*
X0282593Y0160802D02*
X0279837Y0160802D01*
X0279837Y0161982D02*
X0282593Y0161982D01*
X0282593Y0174622D02*
X0282593Y0177378D01*
X0282593Y0174622D02*
X0279837Y0174622D01*
X0279837Y0177378D01*
X0282593Y0177378D01*
X0282593Y0175802D02*
X0279837Y0175802D01*
X0279837Y0176982D02*
X0282593Y0176982D01*
X0289498Y0177378D02*
X0289498Y0174622D01*
X0286742Y0174622D01*
X0286742Y0177378D01*
X0289498Y0177378D01*
X0289498Y0175802D02*
X0286742Y0175802D01*
X0286742Y0176982D02*
X0289498Y0176982D01*
X0302593Y0177378D02*
X0302593Y0174622D01*
X0299837Y0174622D01*
X0299837Y0177378D01*
X0302593Y0177378D01*
X0302593Y0175802D02*
X0299837Y0175802D01*
X0299837Y0176982D02*
X0302593Y0176982D01*
X0309498Y0177378D02*
X0309498Y0174622D01*
X0306742Y0174622D01*
X0306742Y0177378D01*
X0309498Y0177378D01*
X0309498Y0175802D02*
X0306742Y0175802D01*
X0306742Y0176982D02*
X0309498Y0176982D01*
X0322593Y0177378D02*
X0322593Y0174622D01*
X0319837Y0174622D01*
X0319837Y0177378D01*
X0322593Y0177378D01*
X0322593Y0175802D02*
X0319837Y0175802D01*
X0319837Y0176982D02*
X0322593Y0176982D01*
X0329498Y0177378D02*
X0329498Y0174622D01*
X0326742Y0174622D01*
X0326742Y0177378D01*
X0329498Y0177378D01*
X0329498Y0175802D02*
X0326742Y0175802D01*
X0326742Y0176982D02*
X0329498Y0176982D01*
X0329498Y0147378D02*
X0329498Y0144622D01*
X0326742Y0144622D01*
X0326742Y0147378D01*
X0329498Y0147378D01*
X0329498Y0145802D02*
X0326742Y0145802D01*
X0326742Y0146982D02*
X0329498Y0146982D01*
X0322593Y0147378D02*
X0322593Y0144622D01*
X0319837Y0144622D01*
X0319837Y0147378D01*
X0322593Y0147378D01*
X0322593Y0145802D02*
X0319837Y0145802D01*
X0319837Y0146982D02*
X0322593Y0146982D01*
X0309498Y0147378D02*
X0309498Y0144622D01*
X0306742Y0144622D01*
X0306742Y0147378D01*
X0309498Y0147378D01*
X0309498Y0145802D02*
X0306742Y0145802D01*
X0306742Y0146982D02*
X0309498Y0146982D01*
X0302593Y0147378D02*
X0302593Y0144622D01*
X0299837Y0144622D01*
X0299837Y0147378D01*
X0302593Y0147378D01*
X0302593Y0145802D02*
X0299837Y0145802D01*
X0299837Y0146982D02*
X0302593Y0146982D01*
X0289498Y0147378D02*
X0289498Y0144622D01*
X0286742Y0144622D01*
X0286742Y0147378D01*
X0289498Y0147378D01*
X0289498Y0145802D02*
X0286742Y0145802D01*
X0286742Y0146982D02*
X0289498Y0146982D01*
X0282593Y0147378D02*
X0282593Y0144622D01*
X0279837Y0144622D01*
X0279837Y0147378D01*
X0282593Y0147378D01*
X0282593Y0145802D02*
X0279837Y0145802D01*
X0279837Y0146982D02*
X0282593Y0146982D01*
X0282593Y0132378D02*
X0282593Y0129622D01*
X0279837Y0129622D01*
X0279837Y0132378D01*
X0282593Y0132378D01*
X0282593Y0130802D02*
X0279837Y0130802D01*
X0279837Y0131982D02*
X0282593Y0131982D01*
X0289498Y0132378D02*
X0289498Y0129622D01*
X0286742Y0129622D01*
X0286742Y0132378D01*
X0289498Y0132378D01*
X0289498Y0130802D02*
X0286742Y0130802D01*
X0286742Y0131982D02*
X0289498Y0131982D01*
X0302593Y0132378D02*
X0302593Y0129622D01*
X0299837Y0129622D01*
X0299837Y0132378D01*
X0302593Y0132378D01*
X0302593Y0130802D02*
X0299837Y0130802D01*
X0299837Y0131982D02*
X0302593Y0131982D01*
X0309498Y0132378D02*
X0309498Y0129622D01*
X0306742Y0129622D01*
X0306742Y0132378D01*
X0309498Y0132378D01*
X0309498Y0130802D02*
X0306742Y0130802D01*
X0306742Y0131982D02*
X0309498Y0131982D01*
X0322593Y0132378D02*
X0322593Y0129622D01*
X0319837Y0129622D01*
X0319837Y0132378D01*
X0322593Y0132378D01*
X0322593Y0130802D02*
X0319837Y0130802D01*
X0319837Y0131982D02*
X0322593Y0131982D01*
X0329498Y0132378D02*
X0329498Y0129622D01*
X0326742Y0129622D01*
X0326742Y0132378D01*
X0329498Y0132378D01*
X0329498Y0130802D02*
X0326742Y0130802D01*
X0326742Y0131982D02*
X0329498Y0131982D01*
X0342593Y0132378D02*
X0342593Y0129622D01*
X0339837Y0129622D01*
X0339837Y0132378D01*
X0342593Y0132378D01*
X0342593Y0130802D02*
X0339837Y0130802D01*
X0339837Y0131982D02*
X0342593Y0131982D01*
X0349498Y0132378D02*
X0349498Y0129622D01*
X0346742Y0129622D01*
X0346742Y0132378D01*
X0349498Y0132378D01*
X0349498Y0130802D02*
X0346742Y0130802D01*
X0346742Y0131982D02*
X0349498Y0131982D01*
X0362593Y0132378D02*
X0362593Y0129622D01*
X0359837Y0129622D01*
X0359837Y0132378D01*
X0362593Y0132378D01*
X0362593Y0130802D02*
X0359837Y0130802D01*
X0359837Y0131982D02*
X0362593Y0131982D01*
X0369498Y0132378D02*
X0369498Y0129622D01*
X0366742Y0129622D01*
X0366742Y0132378D01*
X0369498Y0132378D01*
X0369498Y0130802D02*
X0366742Y0130802D01*
X0366742Y0131982D02*
X0369498Y0131982D01*
X0382593Y0132378D02*
X0382593Y0129622D01*
X0379837Y0129622D01*
X0379837Y0132378D01*
X0382593Y0132378D01*
X0382593Y0130802D02*
X0379837Y0130802D01*
X0379837Y0131982D02*
X0382593Y0131982D01*
X0389498Y0132378D02*
X0389498Y0129622D01*
X0386742Y0129622D01*
X0386742Y0132378D01*
X0389498Y0132378D01*
X0389498Y0130802D02*
X0386742Y0130802D01*
X0386742Y0131982D02*
X0389498Y0131982D01*
X0402593Y0132378D02*
X0402593Y0129622D01*
X0399837Y0129622D01*
X0399837Y0132378D01*
X0402593Y0132378D01*
X0402593Y0130802D02*
X0399837Y0130802D01*
X0399837Y0131982D02*
X0402593Y0131982D01*
X0409498Y0132378D02*
X0409498Y0129622D01*
X0406742Y0129622D01*
X0406742Y0132378D01*
X0409498Y0132378D01*
X0409498Y0130802D02*
X0406742Y0130802D01*
X0406742Y0131982D02*
X0409498Y0131982D01*
X0422593Y0132378D02*
X0422593Y0129622D01*
X0419837Y0129622D01*
X0419837Y0132378D01*
X0422593Y0132378D01*
X0422593Y0130802D02*
X0419837Y0130802D01*
X0419837Y0131982D02*
X0422593Y0131982D01*
X0429498Y0132378D02*
X0429498Y0129622D01*
X0426742Y0129622D01*
X0426742Y0132378D01*
X0429498Y0132378D01*
X0429498Y0130802D02*
X0426742Y0130802D01*
X0426742Y0131982D02*
X0429498Y0131982D01*
X0429498Y0144622D02*
X0429498Y0147378D01*
X0429498Y0144622D02*
X0426742Y0144622D01*
X0426742Y0147378D01*
X0429498Y0147378D01*
X0429498Y0145802D02*
X0426742Y0145802D01*
X0426742Y0146982D02*
X0429498Y0146982D01*
X0422593Y0147378D02*
X0422593Y0144622D01*
X0419837Y0144622D01*
X0419837Y0147378D01*
X0422593Y0147378D01*
X0422593Y0145802D02*
X0419837Y0145802D01*
X0419837Y0146982D02*
X0422593Y0146982D01*
X0409498Y0147378D02*
X0409498Y0144622D01*
X0406742Y0144622D01*
X0406742Y0147378D01*
X0409498Y0147378D01*
X0409498Y0145802D02*
X0406742Y0145802D01*
X0406742Y0146982D02*
X0409498Y0146982D01*
X0402593Y0147378D02*
X0402593Y0144622D01*
X0399837Y0144622D01*
X0399837Y0147378D01*
X0402593Y0147378D01*
X0402593Y0145802D02*
X0399837Y0145802D01*
X0399837Y0146982D02*
X0402593Y0146982D01*
X0389498Y0147378D02*
X0389498Y0144622D01*
X0386742Y0144622D01*
X0386742Y0147378D01*
X0389498Y0147378D01*
X0389498Y0145802D02*
X0386742Y0145802D01*
X0386742Y0146982D02*
X0389498Y0146982D01*
X0382593Y0147378D02*
X0382593Y0144622D01*
X0379837Y0144622D01*
X0379837Y0147378D01*
X0382593Y0147378D01*
X0382593Y0145802D02*
X0379837Y0145802D01*
X0379837Y0146982D02*
X0382593Y0146982D01*
X0369498Y0147378D02*
X0369498Y0144622D01*
X0366742Y0144622D01*
X0366742Y0147378D01*
X0369498Y0147378D01*
X0369498Y0145802D02*
X0366742Y0145802D01*
X0366742Y0146982D02*
X0369498Y0146982D01*
X0362593Y0147378D02*
X0362593Y0144622D01*
X0359837Y0144622D01*
X0359837Y0147378D01*
X0362593Y0147378D01*
X0362593Y0145802D02*
X0359837Y0145802D01*
X0359837Y0146982D02*
X0362593Y0146982D01*
X0349498Y0147378D02*
X0349498Y0144622D01*
X0346742Y0144622D01*
X0346742Y0147378D01*
X0349498Y0147378D01*
X0349498Y0145802D02*
X0346742Y0145802D01*
X0346742Y0146982D02*
X0349498Y0146982D01*
X0342593Y0147378D02*
X0342593Y0144622D01*
X0339837Y0144622D01*
X0339837Y0147378D01*
X0342593Y0147378D01*
X0342593Y0145802D02*
X0339837Y0145802D01*
X0339837Y0146982D02*
X0342593Y0146982D01*
X0342593Y0117378D02*
X0342593Y0114622D01*
X0339837Y0114622D01*
X0339837Y0117378D01*
X0342593Y0117378D01*
X0342593Y0115802D02*
X0339837Y0115802D01*
X0339837Y0116982D02*
X0342593Y0116982D01*
X0349498Y0117378D02*
X0349498Y0114622D01*
X0346742Y0114622D01*
X0346742Y0117378D01*
X0349498Y0117378D01*
X0349498Y0115802D02*
X0346742Y0115802D01*
X0346742Y0116982D02*
X0349498Y0116982D01*
X0362593Y0117378D02*
X0362593Y0114622D01*
X0359837Y0114622D01*
X0359837Y0117378D01*
X0362593Y0117378D01*
X0362593Y0115802D02*
X0359837Y0115802D01*
X0359837Y0116982D02*
X0362593Y0116982D01*
X0369498Y0117378D02*
X0369498Y0114622D01*
X0366742Y0114622D01*
X0366742Y0117378D01*
X0369498Y0117378D01*
X0369498Y0115802D02*
X0366742Y0115802D01*
X0366742Y0116982D02*
X0369498Y0116982D01*
X0382593Y0117378D02*
X0382593Y0114622D01*
X0379837Y0114622D01*
X0379837Y0117378D01*
X0382593Y0117378D01*
X0382593Y0115802D02*
X0379837Y0115802D01*
X0379837Y0116982D02*
X0382593Y0116982D01*
X0389498Y0117378D02*
X0389498Y0114622D01*
X0386742Y0114622D01*
X0386742Y0117378D01*
X0389498Y0117378D01*
X0389498Y0115802D02*
X0386742Y0115802D01*
X0386742Y0116982D02*
X0389498Y0116982D01*
X0402593Y0117378D02*
X0402593Y0114622D01*
X0399837Y0114622D01*
X0399837Y0117378D01*
X0402593Y0117378D01*
X0402593Y0115802D02*
X0399837Y0115802D01*
X0399837Y0116982D02*
X0402593Y0116982D01*
X0409498Y0117378D02*
X0409498Y0114622D01*
X0406742Y0114622D01*
X0406742Y0117378D01*
X0409498Y0117378D01*
X0409498Y0115802D02*
X0406742Y0115802D01*
X0406742Y0116982D02*
X0409498Y0116982D01*
X0422593Y0117378D02*
X0422593Y0114622D01*
X0419837Y0114622D01*
X0419837Y0117378D01*
X0422593Y0117378D01*
X0422593Y0115802D02*
X0419837Y0115802D01*
X0419837Y0116982D02*
X0422593Y0116982D01*
X0429498Y0117378D02*
X0429498Y0114622D01*
X0426742Y0114622D01*
X0426742Y0117378D01*
X0429498Y0117378D01*
X0429498Y0115802D02*
X0426742Y0115802D01*
X0426742Y0116982D02*
X0429498Y0116982D01*
X0429498Y0102378D02*
X0429498Y0099622D01*
X0426742Y0099622D01*
X0426742Y0102378D01*
X0429498Y0102378D01*
X0429498Y0100802D02*
X0426742Y0100802D01*
X0426742Y0101982D02*
X0429498Y0101982D01*
X0422593Y0102378D02*
X0422593Y0099622D01*
X0419837Y0099622D01*
X0419837Y0102378D01*
X0422593Y0102378D01*
X0422593Y0100802D02*
X0419837Y0100802D01*
X0419837Y0101982D02*
X0422593Y0101982D01*
X0409498Y0102378D02*
X0409498Y0099622D01*
X0406742Y0099622D01*
X0406742Y0102378D01*
X0409498Y0102378D01*
X0409498Y0100802D02*
X0406742Y0100802D01*
X0406742Y0101982D02*
X0409498Y0101982D01*
X0402593Y0102378D02*
X0402593Y0099622D01*
X0399837Y0099622D01*
X0399837Y0102378D01*
X0402593Y0102378D01*
X0402593Y0100802D02*
X0399837Y0100802D01*
X0399837Y0101982D02*
X0402593Y0101982D01*
X0389498Y0102378D02*
X0389498Y0099622D01*
X0386742Y0099622D01*
X0386742Y0102378D01*
X0389498Y0102378D01*
X0389498Y0100802D02*
X0386742Y0100802D01*
X0386742Y0101982D02*
X0389498Y0101982D01*
X0382593Y0102378D02*
X0382593Y0099622D01*
X0379837Y0099622D01*
X0379837Y0102378D01*
X0382593Y0102378D01*
X0382593Y0100802D02*
X0379837Y0100802D01*
X0379837Y0101982D02*
X0382593Y0101982D01*
X0369498Y0102378D02*
X0369498Y0099622D01*
X0366742Y0099622D01*
X0366742Y0102378D01*
X0369498Y0102378D01*
X0369498Y0100802D02*
X0366742Y0100802D01*
X0366742Y0101982D02*
X0369498Y0101982D01*
X0362593Y0102378D02*
X0362593Y0099622D01*
X0359837Y0099622D01*
X0359837Y0102378D01*
X0362593Y0102378D01*
X0362593Y0100802D02*
X0359837Y0100802D01*
X0359837Y0101982D02*
X0362593Y0101982D01*
X0349498Y0102378D02*
X0349498Y0099622D01*
X0346742Y0099622D01*
X0346742Y0102378D01*
X0349498Y0102378D01*
X0349498Y0100802D02*
X0346742Y0100802D01*
X0346742Y0101982D02*
X0349498Y0101982D01*
X0342593Y0102378D02*
X0342593Y0099622D01*
X0339837Y0099622D01*
X0339837Y0102378D01*
X0342593Y0102378D01*
X0342593Y0100802D02*
X0339837Y0100802D01*
X0339837Y0101982D02*
X0342593Y0101982D01*
X0329498Y0102378D02*
X0329498Y0099622D01*
X0326742Y0099622D01*
X0326742Y0102378D01*
X0329498Y0102378D01*
X0329498Y0100802D02*
X0326742Y0100802D01*
X0326742Y0101982D02*
X0329498Y0101982D01*
X0322593Y0102378D02*
X0322593Y0099622D01*
X0319837Y0099622D01*
X0319837Y0102378D01*
X0322593Y0102378D01*
X0322593Y0100802D02*
X0319837Y0100802D01*
X0319837Y0101982D02*
X0322593Y0101982D01*
X0309498Y0102378D02*
X0309498Y0099622D01*
X0306742Y0099622D01*
X0306742Y0102378D01*
X0309498Y0102378D01*
X0309498Y0100802D02*
X0306742Y0100802D01*
X0306742Y0101982D02*
X0309498Y0101982D01*
X0302593Y0102378D02*
X0302593Y0099622D01*
X0299837Y0099622D01*
X0299837Y0102378D01*
X0302593Y0102378D01*
X0302593Y0100802D02*
X0299837Y0100802D01*
X0299837Y0101982D02*
X0302593Y0101982D01*
X0289498Y0102378D02*
X0289498Y0099622D01*
X0286742Y0099622D01*
X0286742Y0102378D01*
X0289498Y0102378D01*
X0289498Y0100802D02*
X0286742Y0100802D01*
X0286742Y0101982D02*
X0289498Y0101982D01*
X0282593Y0102378D02*
X0282593Y0099622D01*
X0279837Y0099622D01*
X0279837Y0102378D01*
X0282593Y0102378D01*
X0282593Y0100802D02*
X0279837Y0100802D01*
X0279837Y0101982D02*
X0282593Y0101982D01*
X0282593Y0114622D02*
X0282593Y0117378D01*
X0282593Y0114622D02*
X0279837Y0114622D01*
X0279837Y0117378D01*
X0282593Y0117378D01*
X0282593Y0115802D02*
X0279837Y0115802D01*
X0279837Y0116982D02*
X0282593Y0116982D01*
X0289498Y0117378D02*
X0289498Y0114622D01*
X0286742Y0114622D01*
X0286742Y0117378D01*
X0289498Y0117378D01*
X0289498Y0115802D02*
X0286742Y0115802D01*
X0286742Y0116982D02*
X0289498Y0116982D01*
X0302593Y0117378D02*
X0302593Y0114622D01*
X0299837Y0114622D01*
X0299837Y0117378D01*
X0302593Y0117378D01*
X0302593Y0115802D02*
X0299837Y0115802D01*
X0299837Y0116982D02*
X0302593Y0116982D01*
X0309498Y0117378D02*
X0309498Y0114622D01*
X0306742Y0114622D01*
X0306742Y0117378D01*
X0309498Y0117378D01*
X0309498Y0115802D02*
X0306742Y0115802D01*
X0306742Y0116982D02*
X0309498Y0116982D01*
X0322593Y0117378D02*
X0322593Y0114622D01*
X0319837Y0114622D01*
X0319837Y0117378D01*
X0322593Y0117378D01*
X0322593Y0115802D02*
X0319837Y0115802D01*
X0319837Y0116982D02*
X0322593Y0116982D01*
X0329498Y0117378D02*
X0329498Y0114622D01*
X0326742Y0114622D01*
X0326742Y0117378D01*
X0329498Y0117378D01*
X0329498Y0115802D02*
X0326742Y0115802D01*
X0326742Y0116982D02*
X0329498Y0116982D01*
X0329498Y0087378D02*
X0329498Y0084622D01*
X0326742Y0084622D01*
X0326742Y0087378D01*
X0329498Y0087378D01*
X0329498Y0085802D02*
X0326742Y0085802D01*
X0326742Y0086982D02*
X0329498Y0086982D01*
X0322593Y0087378D02*
X0322593Y0084622D01*
X0319837Y0084622D01*
X0319837Y0087378D01*
X0322593Y0087378D01*
X0322593Y0085802D02*
X0319837Y0085802D01*
X0319837Y0086982D02*
X0322593Y0086982D01*
X0309498Y0087378D02*
X0309498Y0084622D01*
X0306742Y0084622D01*
X0306742Y0087378D01*
X0309498Y0087378D01*
X0309498Y0085802D02*
X0306742Y0085802D01*
X0306742Y0086982D02*
X0309498Y0086982D01*
X0302593Y0087378D02*
X0302593Y0084622D01*
X0299837Y0084622D01*
X0299837Y0087378D01*
X0302593Y0087378D01*
X0302593Y0085802D02*
X0299837Y0085802D01*
X0299837Y0086982D02*
X0302593Y0086982D01*
X0289498Y0087378D02*
X0289498Y0084622D01*
X0286742Y0084622D01*
X0286742Y0087378D01*
X0289498Y0087378D01*
X0289498Y0085802D02*
X0286742Y0085802D01*
X0286742Y0086982D02*
X0289498Y0086982D01*
X0282593Y0087378D02*
X0282593Y0084622D01*
X0279837Y0084622D01*
X0279837Y0087378D01*
X0282593Y0087378D01*
X0282593Y0085802D02*
X0279837Y0085802D01*
X0279837Y0086982D02*
X0282593Y0086982D01*
X0282593Y0072378D02*
X0282593Y0069622D01*
X0279837Y0069622D01*
X0279837Y0072378D01*
X0282593Y0072378D01*
X0282593Y0070802D02*
X0279837Y0070802D01*
X0279837Y0071982D02*
X0282593Y0071982D01*
X0289498Y0072378D02*
X0289498Y0069622D01*
X0286742Y0069622D01*
X0286742Y0072378D01*
X0289498Y0072378D01*
X0289498Y0070802D02*
X0286742Y0070802D01*
X0286742Y0071982D02*
X0289498Y0071982D01*
X0302593Y0072378D02*
X0302593Y0069622D01*
X0299837Y0069622D01*
X0299837Y0072378D01*
X0302593Y0072378D01*
X0302593Y0070802D02*
X0299837Y0070802D01*
X0299837Y0071982D02*
X0302593Y0071982D01*
X0309498Y0072378D02*
X0309498Y0069622D01*
X0306742Y0069622D01*
X0306742Y0072378D01*
X0309498Y0072378D01*
X0309498Y0070802D02*
X0306742Y0070802D01*
X0306742Y0071982D02*
X0309498Y0071982D01*
X0322593Y0072378D02*
X0322593Y0069622D01*
X0319837Y0069622D01*
X0319837Y0072378D01*
X0322593Y0072378D01*
X0322593Y0070802D02*
X0319837Y0070802D01*
X0319837Y0071982D02*
X0322593Y0071982D01*
X0329498Y0072378D02*
X0329498Y0069622D01*
X0326742Y0069622D01*
X0326742Y0072378D01*
X0329498Y0072378D01*
X0329498Y0070802D02*
X0326742Y0070802D01*
X0326742Y0071982D02*
X0329498Y0071982D01*
X0342593Y0072378D02*
X0342593Y0069622D01*
X0339837Y0069622D01*
X0339837Y0072378D01*
X0342593Y0072378D01*
X0342593Y0070802D02*
X0339837Y0070802D01*
X0339837Y0071982D02*
X0342593Y0071982D01*
X0349498Y0072378D02*
X0349498Y0069622D01*
X0346742Y0069622D01*
X0346742Y0072378D01*
X0349498Y0072378D01*
X0349498Y0070802D02*
X0346742Y0070802D01*
X0346742Y0071982D02*
X0349498Y0071982D01*
X0362593Y0072378D02*
X0362593Y0069622D01*
X0359837Y0069622D01*
X0359837Y0072378D01*
X0362593Y0072378D01*
X0362593Y0070802D02*
X0359837Y0070802D01*
X0359837Y0071982D02*
X0362593Y0071982D01*
X0369498Y0072378D02*
X0369498Y0069622D01*
X0366742Y0069622D01*
X0366742Y0072378D01*
X0369498Y0072378D01*
X0369498Y0070802D02*
X0366742Y0070802D01*
X0366742Y0071982D02*
X0369498Y0071982D01*
X0382593Y0072378D02*
X0382593Y0069622D01*
X0379837Y0069622D01*
X0379837Y0072378D01*
X0382593Y0072378D01*
X0382593Y0070802D02*
X0379837Y0070802D01*
X0379837Y0071982D02*
X0382593Y0071982D01*
X0389498Y0072378D02*
X0389498Y0069622D01*
X0386742Y0069622D01*
X0386742Y0072378D01*
X0389498Y0072378D01*
X0389498Y0070802D02*
X0386742Y0070802D01*
X0386742Y0071982D02*
X0389498Y0071982D01*
X0402593Y0072378D02*
X0402593Y0069622D01*
X0399837Y0069622D01*
X0399837Y0072378D01*
X0402593Y0072378D01*
X0402593Y0070802D02*
X0399837Y0070802D01*
X0399837Y0071982D02*
X0402593Y0071982D01*
X0409498Y0072378D02*
X0409498Y0069622D01*
X0406742Y0069622D01*
X0406742Y0072378D01*
X0409498Y0072378D01*
X0409498Y0070802D02*
X0406742Y0070802D01*
X0406742Y0071982D02*
X0409498Y0071982D01*
X0422593Y0072378D02*
X0422593Y0069622D01*
X0419837Y0069622D01*
X0419837Y0072378D01*
X0422593Y0072378D01*
X0422593Y0070802D02*
X0419837Y0070802D01*
X0419837Y0071982D02*
X0422593Y0071982D01*
X0429498Y0072378D02*
X0429498Y0069622D01*
X0426742Y0069622D01*
X0426742Y0072378D01*
X0429498Y0072378D01*
X0429498Y0070802D02*
X0426742Y0070802D01*
X0426742Y0071982D02*
X0429498Y0071982D01*
X0429498Y0084622D02*
X0429498Y0087378D01*
X0429498Y0084622D02*
X0426742Y0084622D01*
X0426742Y0087378D01*
X0429498Y0087378D01*
X0429498Y0085802D02*
X0426742Y0085802D01*
X0426742Y0086982D02*
X0429498Y0086982D01*
X0422593Y0087378D02*
X0422593Y0084622D01*
X0419837Y0084622D01*
X0419837Y0087378D01*
X0422593Y0087378D01*
X0422593Y0085802D02*
X0419837Y0085802D01*
X0419837Y0086982D02*
X0422593Y0086982D01*
X0409498Y0087378D02*
X0409498Y0084622D01*
X0406742Y0084622D01*
X0406742Y0087378D01*
X0409498Y0087378D01*
X0409498Y0085802D02*
X0406742Y0085802D01*
X0406742Y0086982D02*
X0409498Y0086982D01*
X0402593Y0087378D02*
X0402593Y0084622D01*
X0399837Y0084622D01*
X0399837Y0087378D01*
X0402593Y0087378D01*
X0402593Y0085802D02*
X0399837Y0085802D01*
X0399837Y0086982D02*
X0402593Y0086982D01*
X0389498Y0087378D02*
X0389498Y0084622D01*
X0386742Y0084622D01*
X0386742Y0087378D01*
X0389498Y0087378D01*
X0389498Y0085802D02*
X0386742Y0085802D01*
X0386742Y0086982D02*
X0389498Y0086982D01*
X0382593Y0087378D02*
X0382593Y0084622D01*
X0379837Y0084622D01*
X0379837Y0087378D01*
X0382593Y0087378D01*
X0382593Y0085802D02*
X0379837Y0085802D01*
X0379837Y0086982D02*
X0382593Y0086982D01*
X0369498Y0087378D02*
X0369498Y0084622D01*
X0366742Y0084622D01*
X0366742Y0087378D01*
X0369498Y0087378D01*
X0369498Y0085802D02*
X0366742Y0085802D01*
X0366742Y0086982D02*
X0369498Y0086982D01*
X0362593Y0087378D02*
X0362593Y0084622D01*
X0359837Y0084622D01*
X0359837Y0087378D01*
X0362593Y0087378D01*
X0362593Y0085802D02*
X0359837Y0085802D01*
X0359837Y0086982D02*
X0362593Y0086982D01*
X0349498Y0087378D02*
X0349498Y0084622D01*
X0346742Y0084622D01*
X0346742Y0087378D01*
X0349498Y0087378D01*
X0349498Y0085802D02*
X0346742Y0085802D01*
X0346742Y0086982D02*
X0349498Y0086982D01*
X0342593Y0087378D02*
X0342593Y0084622D01*
X0339837Y0084622D01*
X0339837Y0087378D01*
X0342593Y0087378D01*
X0342593Y0085802D02*
X0339837Y0085802D01*
X0339837Y0086982D02*
X0342593Y0086982D01*
D13*
X0339668Y0051846D03*
X0329668Y0051846D03*
X0319668Y0051846D03*
X0309668Y0051846D03*
X0309668Y0045154D03*
X0319668Y0045154D03*
X0329668Y0045154D03*
X0339668Y0045154D03*
X0349668Y0045154D03*
X0359668Y0045154D03*
X0369668Y0045154D03*
X0379668Y0045154D03*
X0379668Y0051846D03*
X0369668Y0051846D03*
X0359668Y0051846D03*
X0349668Y0051846D03*
X0169668Y0130154D03*
X0169668Y0136846D03*
X0129668Y0139346D03*
X0129668Y0132654D03*
X0129038Y0110823D03*
X0129038Y0104130D03*
X0082168Y0084346D03*
X0082168Y0077654D03*
X0067168Y0061846D03*
X0067168Y0055154D03*
X0067168Y0044346D03*
X0067168Y0037654D03*
X0154668Y0165154D03*
X0154668Y0171846D03*
X0104668Y0195154D03*
X0104668Y0201846D03*
X0082168Y0201846D03*
X0082168Y0195154D03*
D14*
X0112168Y0133000D03*
X0112168Y0114000D03*
X0084668Y0058000D03*
X0084668Y0039000D03*
D15*
X0102168Y0035500D03*
X0107168Y0035500D03*
X0112168Y0035500D03*
X0117168Y0035500D03*
X0122168Y0035500D03*
X0127168Y0035500D03*
X0132168Y0035500D03*
X0137168Y0035500D03*
X0137168Y0056500D03*
X0132168Y0056500D03*
X0127168Y0056500D03*
X0122168Y0056500D03*
X0117168Y0056500D03*
X0112168Y0056500D03*
X0107168Y0056500D03*
X0102168Y0056500D03*
D16*
X0080928Y0102220D03*
X0080928Y0111563D03*
X0080928Y0120437D03*
X0080928Y0129780D03*
D17*
X0071479Y0138835D03*
X0071479Y0093165D03*
D18*
X0075568Y0178400D03*
X0084568Y0178400D03*
X0093568Y0178400D03*
D19*
X0084668Y0153600D03*
D20*
X0092168Y0194957D03*
X0092168Y0202043D03*
X0114668Y0202043D03*
X0114668Y0194957D03*
D21*
X0138152Y0134987D03*
X0140711Y0134987D03*
X0143270Y0134987D03*
X0145829Y0134987D03*
X0148388Y0134987D03*
X0150947Y0134987D03*
X0153506Y0134987D03*
X0156065Y0134987D03*
X0158624Y0134987D03*
X0161183Y0134987D03*
X0161183Y0112013D03*
X0158624Y0112013D03*
X0156065Y0112013D03*
X0153506Y0112013D03*
X0150947Y0112013D03*
X0148388Y0112013D03*
X0145829Y0112013D03*
X0143270Y0112013D03*
X0140711Y0112013D03*
X0138152Y0112013D03*
D22*
X0217168Y0074524D03*
X0222168Y0074524D03*
X0227168Y0074524D03*
X0232168Y0074524D03*
X0237168Y0074524D03*
X0242168Y0074524D03*
X0247168Y0074524D03*
X0252168Y0074524D03*
X0252168Y0052476D03*
X0247168Y0052476D03*
X0242168Y0052476D03*
X0237168Y0052476D03*
X0232168Y0052476D03*
X0227168Y0052476D03*
X0222168Y0052476D03*
X0217168Y0052476D03*
X0217168Y0167476D03*
X0222168Y0167476D03*
X0227168Y0167476D03*
X0232168Y0167476D03*
X0237168Y0167476D03*
X0242168Y0167476D03*
X0247168Y0167476D03*
X0252168Y0167476D03*
X0252168Y0189524D03*
X0247168Y0189524D03*
X0242168Y0189524D03*
X0237168Y0189524D03*
X0232168Y0189524D03*
X0227168Y0189524D03*
X0222168Y0189524D03*
X0217168Y0189524D03*
D23*
X0204668Y0164500D03*
X0189668Y0164500D03*
X0189668Y0142500D03*
X0204668Y0142500D03*
X0197168Y0129500D03*
X0182168Y0129500D03*
X0217168Y0129500D03*
X0232168Y0129500D03*
X0232168Y0107500D03*
X0217168Y0107500D03*
X0197168Y0107500D03*
X0182168Y0107500D03*
X0187010Y0092000D03*
X0202010Y0092000D03*
X0202010Y0070000D03*
X0187010Y0070000D03*
D24*
X0189668Y0031500D02*
X0189668Y0025500D01*
X0179668Y0025500D02*
X0179668Y0031500D01*
X0169668Y0031500D02*
X0169668Y0025500D01*
X0159668Y0025500D02*
X0159668Y0031500D01*
X0149668Y0031500D02*
X0149668Y0025500D01*
X0436983Y0054917D02*
X0442983Y0054917D01*
X0442983Y0064917D02*
X0436983Y0064917D01*
X0436983Y0074917D02*
X0442983Y0074917D01*
X0442983Y0084917D02*
X0436983Y0084917D01*
X0436983Y0094917D02*
X0442983Y0094917D01*
X0442983Y0130508D02*
X0436983Y0130508D01*
X0436983Y0140508D02*
X0442983Y0140508D01*
X0442983Y0150508D02*
X0436983Y0150508D01*
X0436983Y0160508D02*
X0442983Y0160508D01*
X0442983Y0170508D02*
X0436983Y0170508D01*
X0314668Y0195500D02*
X0314668Y0201500D01*
X0304668Y0201500D02*
X0304668Y0195500D01*
X0294668Y0195500D02*
X0294668Y0201500D01*
X0284668Y0201500D02*
X0284668Y0195500D01*
D25*
X0100908Y0093619D03*
X0097168Y0093619D03*
X0093428Y0093619D03*
X0093428Y0083381D03*
X0097168Y0083381D03*
X0100908Y0083381D03*
D26*
X0107168Y0153500D03*
X0117168Y0153500D03*
X0117168Y0163500D03*
X0107168Y0163500D03*
X0107168Y0173500D03*
X0117168Y0173500D03*
X0117168Y0183500D03*
X0107168Y0183500D03*
X0174668Y0178500D03*
X0184668Y0178500D03*
X0184668Y0188500D03*
X0174668Y0188500D03*
D27*
X0145514Y0083500D03*
X0138821Y0083500D03*
D28*
X0062003Y0029462D02*
X0063073Y0025471D01*
X0065138Y0021892D01*
X0068060Y0018971D01*
X0071638Y0016905D01*
X0075630Y0015835D01*
X0077695Y0015700D01*
X0427757Y0015700D01*
X0430378Y0015847D01*
X0435489Y0017014D01*
X0440212Y0019288D01*
X0444311Y0022557D01*
X0447580Y0026656D01*
X0449855Y0031379D01*
X0451021Y0036491D01*
X0451169Y0039112D01*
X0451169Y0195649D01*
X0451062Y0197281D01*
X0450217Y0200433D01*
X0448585Y0203259D01*
X0446277Y0205567D01*
X0443451Y0207199D01*
X0440299Y0208043D01*
X0438667Y0208150D01*
X0084151Y0208150D01*
X0081656Y0208010D01*
X0076791Y0206900D01*
X0072296Y0204735D01*
X0068394Y0201624D01*
X0065283Y0197722D01*
X0063118Y0193227D01*
X0062008Y0188362D01*
X0061868Y0185867D01*
X0061868Y0031528D01*
X0062003Y0029462D01*
X0061949Y0030290D02*
X0144868Y0030290D01*
X0144868Y0032455D02*
X0144868Y0024545D01*
X0145598Y0022781D01*
X0146949Y0021431D01*
X0148713Y0020700D01*
X0150622Y0020700D01*
X0152387Y0021431D01*
X0153737Y0022781D01*
X0154468Y0024545D01*
X0154468Y0032455D01*
X0153737Y0034219D01*
X0152387Y0035569D01*
X0150622Y0036300D01*
X0148713Y0036300D01*
X0146949Y0035569D01*
X0145598Y0034219D01*
X0144868Y0032455D01*
X0144964Y0032688D02*
X0140218Y0032688D01*
X0140218Y0031754D02*
X0140218Y0033979D01*
X0140568Y0034824D01*
X0140568Y0037600D01*
X0187844Y0037600D01*
X0189094Y0038118D01*
X0191268Y0040292D01*
X0191268Y0036033D01*
X0190622Y0036300D01*
X0188713Y0036300D01*
X0186949Y0035569D01*
X0185598Y0034219D01*
X0184868Y0032455D01*
X0184868Y0024545D01*
X0185598Y0022781D01*
X0186949Y0021431D01*
X0188713Y0020700D01*
X0190622Y0020700D01*
X0192387Y0021431D01*
X0193737Y0022781D01*
X0194468Y0024545D01*
X0194468Y0028492D01*
X0196594Y0030618D01*
X0197550Y0031574D01*
X0198068Y0032824D01*
X0198068Y0076290D01*
X0214568Y0083624D01*
X0214568Y0078013D01*
X0214187Y0077631D01*
X0214187Y0071416D01*
X0215241Y0070361D01*
X0219094Y0070361D01*
X0219568Y0070835D01*
X0219568Y0070107D01*
X0211087Y0065867D01*
X0210695Y0065704D01*
X0210628Y0065637D01*
X0210542Y0065594D01*
X0210264Y0065273D01*
X0209964Y0064973D01*
X0209927Y0064885D01*
X0209865Y0064813D01*
X0209730Y0064410D01*
X0209568Y0064017D01*
X0209568Y0063922D01*
X0209538Y0063832D01*
X0209568Y0063408D01*
X0209568Y0045483D01*
X0209964Y0044527D01*
X0210695Y0043796D01*
X0235695Y0018796D01*
X0236651Y0018400D01*
X0359581Y0018400D01*
X0360011Y0018371D01*
X0360095Y0018400D01*
X0360185Y0018400D01*
X0360583Y0018565D01*
X0360991Y0018703D01*
X0361058Y0018762D01*
X0361140Y0018796D01*
X0361445Y0019100D01*
X0381058Y0036262D01*
X0381140Y0036296D01*
X0381445Y0036600D01*
X0381769Y0036884D01*
X0381809Y0036964D01*
X0381872Y0037027D01*
X0382037Y0037425D01*
X0382228Y0037811D01*
X0382233Y0037900D01*
X0382268Y0037983D01*
X0382268Y0038413D01*
X0382296Y0038843D01*
X0382268Y0038928D01*
X0382268Y0041188D01*
X0382382Y0041188D01*
X0383436Y0042243D01*
X0383436Y0048064D01*
X0383001Y0048500D01*
X0383436Y0048936D01*
X0383436Y0054757D01*
X0382382Y0055812D01*
X0382268Y0055812D01*
X0382268Y0056009D01*
X0382720Y0056461D01*
X0383268Y0057784D01*
X0383268Y0059216D01*
X0382720Y0060539D01*
X0382159Y0061100D01*
X0425231Y0061100D01*
X0425314Y0061072D01*
X0425706Y0061100D01*
X0426098Y0061100D01*
X0426179Y0061134D01*
X0426267Y0061140D01*
X0426618Y0061315D01*
X0426980Y0061465D01*
X0427042Y0061528D01*
X0427121Y0061567D01*
X0427378Y0061863D01*
X0427655Y0062141D01*
X0427689Y0062222D01*
X0427746Y0062288D01*
X0427870Y0062660D01*
X0428020Y0063023D01*
X0428020Y0063111D01*
X0429394Y0067231D01*
X0429974Y0067231D01*
X0430853Y0067595D01*
X0431525Y0068268D01*
X0431889Y0069147D01*
X0431889Y0072853D01*
X0431525Y0073732D01*
X0430853Y0074405D01*
X0429974Y0074768D01*
X0426267Y0074768D01*
X0425388Y0074405D01*
X0424716Y0073732D01*
X0424668Y0073616D01*
X0424620Y0073732D01*
X0423947Y0074405D01*
X0423615Y0074542D01*
X0423615Y0082458D01*
X0423947Y0082595D01*
X0424620Y0083268D01*
X0424668Y0083384D01*
X0424716Y0083268D01*
X0425388Y0082595D01*
X0426267Y0082231D01*
X0429974Y0082231D01*
X0430853Y0082595D01*
X0431525Y0083268D01*
X0431889Y0084147D01*
X0431889Y0087853D01*
X0431525Y0088732D01*
X0430853Y0089405D01*
X0429974Y0089768D01*
X0428919Y0089768D01*
X0427805Y0091997D01*
X0427655Y0092359D01*
X0427593Y0092422D01*
X0427554Y0092500D01*
X0427257Y0092757D01*
X0426980Y0093035D01*
X0426899Y0093068D01*
X0426832Y0093126D01*
X0426460Y0093250D01*
X0426098Y0093400D01*
X0426010Y0093400D01*
X0425927Y0093428D01*
X0425535Y0093400D01*
X0288168Y0093400D01*
X0287685Y0093600D01*
X0283245Y0093600D01*
X0281140Y0095704D01*
X0280185Y0096100D01*
X0279659Y0096100D01*
X0279207Y0096552D01*
X0277884Y0097100D01*
X0276452Y0097100D01*
X0275128Y0096552D01*
X0274768Y0096191D01*
X0274768Y0099723D01*
X0275695Y0098796D01*
X0276651Y0098400D01*
X0277756Y0098400D01*
X0277810Y0098268D01*
X0278483Y0097595D01*
X0279361Y0097231D01*
X0283068Y0097231D01*
X0283947Y0097595D01*
X0284620Y0098268D01*
X0284668Y0098384D01*
X0284716Y0098268D01*
X0285388Y0097595D01*
X0286267Y0097231D01*
X0288869Y0097231D01*
X0289983Y0095003D01*
X0290133Y0094641D01*
X0290195Y0094578D01*
X0290235Y0094500D01*
X0290531Y0094243D01*
X0290808Y0093965D01*
X0290889Y0093932D01*
X0290956Y0093874D01*
X0291328Y0093750D01*
X0291690Y0093600D01*
X0291778Y0093600D01*
X0291862Y0093572D01*
X0292253Y0093600D01*
X0425535Y0093600D01*
X0425927Y0093572D01*
X0426010Y0093600D01*
X0426098Y0093600D01*
X0426460Y0093750D01*
X0426832Y0093874D01*
X0426899Y0093932D01*
X0426980Y0093965D01*
X0427257Y0094243D01*
X0427554Y0094500D01*
X0427593Y0094578D01*
X0427655Y0094641D01*
X0427805Y0095003D01*
X0428920Y0097231D01*
X0429974Y0097231D01*
X0430853Y0097595D01*
X0431525Y0098268D01*
X0431889Y0099147D01*
X0431889Y0102853D01*
X0431525Y0103732D01*
X0430853Y0104405D01*
X0429974Y0104768D01*
X0426267Y0104768D01*
X0425388Y0104405D01*
X0424716Y0103732D01*
X0424668Y0103616D01*
X0424620Y0103732D01*
X0423947Y0104405D01*
X0423615Y0104542D01*
X0423615Y0112458D01*
X0423947Y0112595D01*
X0424620Y0113268D01*
X0424668Y0113384D01*
X0424716Y0113268D01*
X0425388Y0112595D01*
X0426267Y0112231D01*
X0429594Y0112231D01*
X0429594Y0110599D01*
X0430280Y0108037D01*
X0431606Y0105740D01*
X0433482Y0103864D01*
X0435779Y0102538D01*
X0438341Y0101851D01*
X0440994Y0101851D01*
X0443556Y0102538D01*
X0445853Y0103864D01*
X0447729Y0105740D01*
X0449055Y0108037D01*
X0449742Y0110599D01*
X0449742Y0113251D01*
X0449055Y0115814D01*
X0447729Y0118111D01*
X0445853Y0119986D01*
X0443556Y0121313D01*
X0440994Y0121999D01*
X0438341Y0121999D01*
X0435779Y0121313D01*
X0433482Y0119986D01*
X0431731Y0118235D01*
X0431525Y0118732D01*
X0430853Y0119405D01*
X0429974Y0119768D01*
X0429240Y0119768D01*
X0429202Y0119859D01*
X0428527Y0120535D01*
X0426027Y0123035D01*
X0425145Y0123400D01*
X0413168Y0123400D01*
X0413168Y0123400D01*
X0423638Y0123400D01*
X0424593Y0123796D01*
X0428029Y0127231D01*
X0429974Y0127231D01*
X0430853Y0127595D01*
X0431525Y0128268D01*
X0431889Y0129147D01*
X0431889Y0129568D01*
X0432183Y0130278D01*
X0432183Y0129553D01*
X0432913Y0127789D01*
X0434264Y0126439D01*
X0436028Y0125708D01*
X0443937Y0125708D01*
X0445702Y0126439D01*
X0447052Y0127789D01*
X0447783Y0129553D01*
X0447783Y0131463D01*
X0447052Y0133227D01*
X0445702Y0134577D01*
X0443937Y0135308D01*
X0436028Y0135308D01*
X0434264Y0134577D01*
X0432913Y0133227D01*
X0432236Y0131593D01*
X0431889Y0132432D01*
X0431889Y0132853D01*
X0431525Y0133732D01*
X0430853Y0134405D01*
X0429974Y0134768D01*
X0426267Y0134768D01*
X0425388Y0134405D01*
X0424716Y0133732D01*
X0424668Y0133616D01*
X0424620Y0133732D01*
X0423947Y0134405D01*
X0423615Y0134542D01*
X0423615Y0142458D01*
X0423947Y0142595D01*
X0424620Y0143268D01*
X0424668Y0143384D01*
X0424716Y0143268D01*
X0425388Y0142595D01*
X0426267Y0142231D01*
X0429974Y0142231D01*
X0430853Y0142595D01*
X0431525Y0143268D01*
X0431889Y0144147D01*
X0431889Y0147853D01*
X0431525Y0148732D01*
X0430853Y0149405D01*
X0429974Y0149768D01*
X0428919Y0149768D01*
X0427805Y0151997D01*
X0427655Y0152359D01*
X0427593Y0152422D01*
X0427554Y0152500D01*
X0427257Y0152757D01*
X0426980Y0153035D01*
X0426899Y0153068D01*
X0426832Y0153126D01*
X0426460Y0153250D01*
X0426098Y0153400D01*
X0426010Y0153400D01*
X0425927Y0153428D01*
X0425535Y0153400D01*
X0279659Y0153400D01*
X0279859Y0153600D01*
X0425535Y0153600D01*
X0425927Y0153572D01*
X0426010Y0153600D01*
X0426098Y0153600D01*
X0426460Y0153750D01*
X0426832Y0153874D01*
X0426899Y0153932D01*
X0426980Y0153965D01*
X0427257Y0154243D01*
X0427554Y0154500D01*
X0427593Y0154578D01*
X0427655Y0154641D01*
X0427805Y0155003D01*
X0428919Y0157231D01*
X0429974Y0157231D01*
X0430853Y0157595D01*
X0431525Y0158268D01*
X0431889Y0159147D01*
X0431889Y0162853D01*
X0431525Y0163732D01*
X0430853Y0164405D01*
X0429974Y0164768D01*
X0426267Y0164768D01*
X0425388Y0164405D01*
X0424716Y0163732D01*
X0424668Y0163616D01*
X0424620Y0163732D01*
X0423947Y0164405D01*
X0423068Y0164768D01*
X0420062Y0164768D01*
X0418792Y0165553D01*
X0418445Y0165900D01*
X0425185Y0165900D01*
X0426140Y0166296D01*
X0426872Y0167027D01*
X0429372Y0169527D01*
X0429768Y0170483D01*
X0429768Y0172231D01*
X0429974Y0172231D01*
X0430853Y0172595D01*
X0431525Y0173268D01*
X0431889Y0174147D01*
X0431889Y0177853D01*
X0431525Y0178732D01*
X0430853Y0179405D01*
X0429974Y0179768D01*
X0426267Y0179768D01*
X0425388Y0179405D01*
X0424716Y0178732D01*
X0424668Y0178616D01*
X0424620Y0178732D01*
X0423947Y0179405D01*
X0423068Y0179768D01*
X0420841Y0179768D01*
X0417574Y0183035D01*
X0416692Y0183400D01*
X0410031Y0183400D01*
X0409921Y0183434D01*
X0409556Y0183400D01*
X0390031Y0183400D01*
X0389921Y0183434D01*
X0389556Y0183400D01*
X0370031Y0183400D01*
X0369921Y0183434D01*
X0369556Y0183400D01*
X0350031Y0183400D01*
X0349921Y0183434D01*
X0349556Y0183400D01*
X0330031Y0183400D01*
X0329921Y0183434D01*
X0329556Y0183400D01*
X0310031Y0183400D01*
X0309921Y0183434D01*
X0309556Y0183400D01*
X0294190Y0183400D01*
X0293308Y0183035D01*
X0292633Y0182359D01*
X0290022Y0179749D01*
X0289974Y0179768D01*
X0286267Y0179768D01*
X0285388Y0179405D01*
X0284716Y0178732D01*
X0284668Y0178616D01*
X0284620Y0178732D01*
X0283947Y0179405D01*
X0283815Y0179459D01*
X0283815Y0182017D01*
X0288797Y0184964D01*
X0288952Y0184900D01*
X0290384Y0184900D01*
X0291707Y0185448D01*
X0292720Y0186461D01*
X0293268Y0187784D01*
X0293268Y0189216D01*
X0292720Y0190539D01*
X0292481Y0190778D01*
X0292672Y0190681D01*
X0293450Y0190428D01*
X0294258Y0190300D01*
X0294668Y0190300D01*
X0295077Y0190300D01*
X0295885Y0190428D01*
X0296664Y0190681D01*
X0297393Y0191053D01*
X0298055Y0191534D01*
X0298634Y0192112D01*
X0299115Y0192775D01*
X0299487Y0193504D01*
X0299668Y0194061D01*
X0299849Y0193504D01*
X0300220Y0192775D01*
X0300701Y0192112D01*
X0301280Y0191534D01*
X0301942Y0191053D01*
X0302672Y0190681D01*
X0303450Y0190428D01*
X0304258Y0190300D01*
X0304668Y0190300D01*
X0305077Y0190300D01*
X0305885Y0190428D01*
X0306664Y0190681D01*
X0307393Y0191053D01*
X0308055Y0191534D01*
X0308634Y0192112D01*
X0309115Y0192775D01*
X0309487Y0193504D01*
X0309668Y0194061D01*
X0309849Y0193504D01*
X0310220Y0192775D01*
X0310701Y0192112D01*
X0311280Y0191534D01*
X0311942Y0191053D01*
X0312672Y0190681D01*
X0313450Y0190428D01*
X0314258Y0190300D01*
X0314668Y0190300D01*
X0315077Y0190300D01*
X0315885Y0190428D01*
X0316664Y0190681D01*
X0317393Y0191053D01*
X0318055Y0191534D01*
X0318634Y0192112D01*
X0319115Y0192775D01*
X0319487Y0193504D01*
X0319740Y0194282D01*
X0319868Y0195091D01*
X0319868Y0198500D01*
X0319868Y0201909D01*
X0319740Y0202718D01*
X0319487Y0203496D01*
X0319115Y0204225D01*
X0318634Y0204888D01*
X0318055Y0205466D01*
X0317393Y0205947D01*
X0316664Y0206319D01*
X0315885Y0206572D01*
X0315077Y0206700D01*
X0314668Y0206700D01*
X0314668Y0198500D01*
X0319868Y0198500D01*
X0314668Y0198500D01*
X0314668Y0198500D01*
X0314668Y0198500D01*
X0314668Y0190300D01*
X0314668Y0198500D01*
X0314668Y0198500D01*
X0314668Y0206700D01*
X0314258Y0206700D01*
X0313450Y0206572D01*
X0312672Y0206319D01*
X0311942Y0205947D01*
X0311280Y0205466D01*
X0310701Y0204888D01*
X0310220Y0204225D01*
X0309849Y0203496D01*
X0309668Y0202939D01*
X0309487Y0203496D01*
X0309115Y0204225D01*
X0308634Y0204888D01*
X0308055Y0205466D01*
X0307393Y0205947D01*
X0306664Y0206319D01*
X0305885Y0206572D01*
X0305077Y0206700D01*
X0304668Y0206700D01*
X0304668Y0198500D01*
X0309468Y0198500D01*
X0314668Y0198500D01*
X0304668Y0198500D01*
X0304668Y0198500D01*
X0304668Y0198500D01*
X0304668Y0190300D01*
X0304668Y0198500D01*
X0304668Y0198500D01*
X0304668Y0206700D01*
X0304258Y0206700D01*
X0303450Y0206572D01*
X0302672Y0206319D01*
X0301942Y0205947D01*
X0301280Y0205466D01*
X0300701Y0204888D01*
X0300220Y0204225D01*
X0299849Y0203496D01*
X0299668Y0202939D01*
X0299487Y0203496D01*
X0299115Y0204225D01*
X0298634Y0204888D01*
X0298055Y0205466D01*
X0297393Y0205947D01*
X0296664Y0206319D01*
X0295885Y0206572D01*
X0295077Y0206700D01*
X0294668Y0206700D01*
X0294668Y0198500D01*
X0299868Y0198500D01*
X0304668Y0198500D01*
X0294668Y0198500D01*
X0294668Y0198500D01*
X0294668Y0198500D01*
X0294668Y0190300D01*
X0294668Y0198500D01*
X0294668Y0198500D01*
X0294668Y0206700D01*
X0294258Y0206700D01*
X0293450Y0206572D01*
X0292672Y0206319D01*
X0291942Y0205947D01*
X0291280Y0205466D01*
X0290701Y0204888D01*
X0290220Y0204225D01*
X0289849Y0203496D01*
X0289668Y0202939D01*
X0289487Y0203496D01*
X0289115Y0204225D01*
X0288634Y0204888D01*
X0288055Y0205466D01*
X0287393Y0205947D01*
X0286664Y0206319D01*
X0285885Y0206572D01*
X0285077Y0206700D01*
X0284668Y0206700D01*
X0284668Y0198500D01*
X0289868Y0198500D01*
X0294668Y0198500D01*
X0284668Y0198500D01*
X0284668Y0198500D01*
X0284668Y0190300D01*
X0285077Y0190300D01*
X0285885Y0190428D01*
X0286664Y0190681D01*
X0286855Y0190778D01*
X0286616Y0190539D01*
X0286164Y0189448D01*
X0280050Y0185832D01*
X0279742Y0185704D01*
X0279609Y0185571D01*
X0279446Y0185474D01*
X0279246Y0185208D01*
X0279011Y0184973D01*
X0278939Y0184798D01*
X0278825Y0184647D01*
X0278742Y0184325D01*
X0278615Y0184017D01*
X0278615Y0183828D01*
X0278568Y0183645D01*
X0278615Y0183316D01*
X0278615Y0179459D01*
X0278483Y0179405D01*
X0277810Y0178732D01*
X0277446Y0177853D01*
X0277446Y0174147D01*
X0277810Y0173268D01*
X0278483Y0172595D01*
X0279361Y0172231D01*
X0283068Y0172231D01*
X0283947Y0172595D01*
X0284620Y0173268D01*
X0284668Y0173384D01*
X0284716Y0173268D01*
X0284915Y0173069D01*
X0284763Y0172273D01*
X0283591Y0171100D01*
X0278245Y0171100D01*
X0271140Y0178204D01*
X0270185Y0178600D01*
X0245690Y0178600D01*
X0245981Y0178697D01*
X0246053Y0178759D01*
X0246140Y0178796D01*
X0246441Y0179096D01*
X0246762Y0179375D01*
X0246805Y0179460D01*
X0246872Y0179527D01*
X0247034Y0179920D01*
X0249305Y0184460D01*
X0249372Y0184527D01*
X0249534Y0184920D01*
X0249724Y0185300D01*
X0249731Y0185395D01*
X0249768Y0185483D01*
X0249768Y0185835D01*
X0250241Y0185361D01*
X0254094Y0185361D01*
X0255149Y0186416D01*
X0255149Y0187065D01*
X0257068Y0186528D01*
X0257068Y0185991D01*
X0256616Y0185539D01*
X0256068Y0184216D01*
X0256068Y0182784D01*
X0256616Y0181461D01*
X0257628Y0180448D01*
X0258952Y0179900D01*
X0260384Y0179900D01*
X0261707Y0180448D01*
X0262720Y0181461D01*
X0263268Y0182784D01*
X0263268Y0184216D01*
X0262720Y0185539D01*
X0262268Y0185991D01*
X0262268Y0188143D01*
X0262311Y0188297D01*
X0262268Y0188656D01*
X0262268Y0189017D01*
X0262206Y0189165D01*
X0262187Y0189324D01*
X0262010Y0189639D01*
X0261872Y0189973D01*
X0261759Y0190086D01*
X0261680Y0190225D01*
X0261396Y0190449D01*
X0261140Y0190704D01*
X0260993Y0190765D01*
X0260867Y0190864D01*
X0260519Y0190962D01*
X0260185Y0191100D01*
X0260025Y0191100D01*
X0255149Y0192465D01*
X0255149Y0192631D01*
X0254094Y0193686D01*
X0250241Y0193686D01*
X0249668Y0193112D01*
X0249094Y0193686D01*
X0245241Y0193686D01*
X0244768Y0193212D01*
X0244768Y0194393D01*
X0247781Y0195900D01*
X0261554Y0195900D01*
X0263772Y0194791D01*
X0264116Y0193961D01*
X0265128Y0192948D01*
X0266452Y0192400D01*
X0267884Y0192400D01*
X0269207Y0192948D01*
X0270220Y0193961D01*
X0270768Y0195284D01*
X0270768Y0196716D01*
X0270220Y0198039D01*
X0269207Y0199052D01*
X0267884Y0199600D01*
X0266452Y0199600D01*
X0266085Y0199448D01*
X0263708Y0200637D01*
X0263640Y0200704D01*
X0263248Y0200867D01*
X0262868Y0201057D01*
X0262773Y0201064D01*
X0262685Y0201100D01*
X0262260Y0201100D01*
X0262260Y0201100D01*
X0268674Y0201100D01*
X0272268Y0197506D01*
X0272268Y0196191D01*
X0271616Y0195539D01*
X0271068Y0194216D01*
X0271068Y0192784D01*
X0271616Y0191461D01*
X0272628Y0190448D01*
X0273952Y0189900D01*
X0275384Y0189900D01*
X0276707Y0190448D01*
X0277720Y0191461D01*
X0278268Y0192784D01*
X0278268Y0194216D01*
X0277720Y0195539D01*
X0277068Y0196191D01*
X0277068Y0198977D01*
X0276702Y0199859D01*
X0276027Y0200535D01*
X0271027Y0205535D01*
X0270145Y0205900D01*
X0147360Y0205900D01*
X0147078Y0205945D01*
X0146887Y0205900D01*
X0146690Y0205900D01*
X0146427Y0205791D01*
X0146149Y0205725D01*
X0145990Y0205610D01*
X0145808Y0205535D01*
X0145606Y0205333D01*
X0138957Y0200527D01*
X0138864Y0200565D01*
X0137440Y0200565D01*
X0136123Y0200020D01*
X0135116Y0199013D01*
X0134571Y0197697D01*
X0134571Y0196272D01*
X0135116Y0194956D01*
X0136123Y0193948D01*
X0137440Y0193403D01*
X0138864Y0193403D01*
X0140180Y0193948D01*
X0141188Y0194956D01*
X0141733Y0196272D01*
X0141733Y0196611D01*
X0147944Y0201100D01*
X0222177Y0201100D01*
X0221616Y0200539D01*
X0221068Y0199216D01*
X0221068Y0197784D01*
X0221616Y0196461D01*
X0222628Y0195448D01*
X0223952Y0194900D01*
X0224768Y0194900D01*
X0224768Y0193213D01*
X0224668Y0193112D01*
X0224094Y0193686D01*
X0220241Y0193686D01*
X0219668Y0193112D01*
X0219094Y0193686D01*
X0217047Y0193686D01*
X0216288Y0194000D01*
X0209071Y0194000D01*
X0207968Y0193543D01*
X0207124Y0192699D01*
X0202124Y0187699D01*
X0201668Y0186597D01*
X0201668Y0183886D01*
X0201139Y0183358D01*
X0200506Y0181828D01*
X0200506Y0180172D01*
X0201139Y0178642D01*
X0202310Y0177471D01*
X0203840Y0176838D01*
X0205496Y0176838D01*
X0207025Y0177471D01*
X0208196Y0178642D01*
X0208830Y0180172D01*
X0208830Y0181828D01*
X0208196Y0183358D01*
X0207668Y0183886D01*
X0207668Y0184757D01*
X0210910Y0188000D01*
X0214187Y0188000D01*
X0214187Y0186416D01*
X0215241Y0185361D01*
X0219094Y0185361D01*
X0219568Y0185835D01*
X0219568Y0183828D01*
X0219521Y0183644D01*
X0219568Y0183315D01*
X0219568Y0182983D01*
X0219640Y0182808D01*
X0219667Y0182620D01*
X0219836Y0182334D01*
X0219964Y0182027D01*
X0220097Y0181893D01*
X0220194Y0181730D01*
X0220460Y0181531D01*
X0220695Y0181296D01*
X0220870Y0181223D01*
X0230460Y0174031D01*
X0230695Y0173796D01*
X0230870Y0173723D01*
X0231021Y0173610D01*
X0231343Y0173527D01*
X0231651Y0173400D01*
X0231840Y0173400D01*
X0232023Y0173353D01*
X0232352Y0173400D01*
X0261977Y0173400D01*
X0261616Y0173039D01*
X0261068Y0171716D01*
X0261068Y0170284D01*
X0261551Y0169116D01*
X0260384Y0169600D01*
X0258952Y0169600D01*
X0257628Y0169052D01*
X0256616Y0168039D01*
X0256068Y0166716D01*
X0256068Y0165284D01*
X0256616Y0163961D01*
X0257068Y0163509D01*
X0257068Y0119577D01*
X0248591Y0111100D01*
X0244151Y0111100D01*
X0243195Y0110704D01*
X0242464Y0109973D01*
X0224964Y0092473D01*
X0224568Y0091517D01*
X0224568Y0078212D01*
X0224094Y0078686D01*
X0220241Y0078686D01*
X0219768Y0078212D01*
X0219768Y0085214D01*
X0220696Y0086142D01*
X0221330Y0087672D01*
X0221330Y0089328D01*
X0220696Y0090858D01*
X0219525Y0092029D01*
X0217996Y0092662D01*
X0216340Y0092662D01*
X0214810Y0092029D01*
X0213639Y0090858D01*
X0213535Y0090606D01*
X0193327Y0081625D01*
X0192742Y0081382D01*
X0192710Y0081351D01*
X0192669Y0081332D01*
X0192233Y0080873D01*
X0191785Y0080426D01*
X0191768Y0080384D01*
X0191737Y0080352D01*
X0191510Y0079761D01*
X0191268Y0079176D01*
X0191268Y0079131D01*
X0191252Y0079089D01*
X0191268Y0078457D01*
X0191268Y0049908D01*
X0185759Y0044400D01*
X0139269Y0044400D01*
X0137763Y0047413D01*
X0137550Y0047926D01*
X0137462Y0048014D01*
X0137406Y0048125D01*
X0136986Y0048490D01*
X0136594Y0048882D01*
X0136479Y0048930D01*
X0136384Y0049012D01*
X0135857Y0049187D01*
X0135344Y0049400D01*
X0135219Y0049400D01*
X0135101Y0049439D01*
X0134547Y0049400D01*
X0126076Y0049400D01*
X0125568Y0049908D01*
X0125568Y0051700D01*
X0129163Y0051700D01*
X0129668Y0052204D01*
X0130172Y0051700D01*
X0134163Y0051700D01*
X0134385Y0051922D01*
X0134567Y0051740D01*
X0135069Y0051450D01*
X0135628Y0051300D01*
X0137168Y0051300D01*
X0138707Y0051300D01*
X0139267Y0051450D01*
X0139769Y0051740D01*
X0140178Y0052149D01*
X0140468Y0052651D01*
X0140618Y0053210D01*
X0140618Y0056500D01*
X0140618Y0059790D01*
X0140468Y0060349D01*
X0140178Y0060851D01*
X0139769Y0061260D01*
X0139267Y0061550D01*
X0138707Y0061700D01*
X0137168Y0061700D01*
X0137168Y0056500D01*
X0140618Y0056500D01*
X0137168Y0056500D01*
X0137168Y0056500D01*
X0137168Y0056500D01*
X0137168Y0051300D01*
X0137168Y0056500D01*
X0137168Y0056500D01*
X0137168Y0061700D01*
X0135628Y0061700D01*
X0135069Y0061550D01*
X0134568Y0061261D01*
X0134568Y0065273D01*
X0138452Y0071100D01*
X0142203Y0071100D01*
X0141632Y0070529D01*
X0141087Y0069212D01*
X0141087Y0067788D01*
X0141632Y0066471D01*
X0142268Y0065836D01*
X0142268Y0061164D01*
X0141632Y0060529D01*
X0141087Y0059212D01*
X0141087Y0057788D01*
X0141632Y0056471D01*
X0142639Y0055464D01*
X0143955Y0054919D01*
X0145380Y0054919D01*
X0146696Y0055464D01*
X0147704Y0056471D01*
X0148249Y0057788D01*
X0148249Y0059212D01*
X0147704Y0060529D01*
X0147068Y0061164D01*
X0147068Y0065836D01*
X0147704Y0066471D01*
X0148249Y0067788D01*
X0148249Y0069212D01*
X0147704Y0070529D01*
X0147132Y0071100D01*
X0150145Y0071100D01*
X0151027Y0071465D01*
X0156224Y0076663D01*
X0156224Y0075951D01*
X0150808Y0070535D01*
X0150133Y0069859D01*
X0149768Y0068977D01*
X0149768Y0061164D01*
X0149132Y0060529D01*
X0148587Y0059212D01*
X0148587Y0057788D01*
X0149132Y0056471D01*
X0150139Y0055464D01*
X0151455Y0054919D01*
X0152880Y0054919D01*
X0154196Y0055464D01*
X0154668Y0055936D01*
X0155139Y0055464D01*
X0156455Y0054919D01*
X0157880Y0054919D01*
X0159196Y0055464D01*
X0160204Y0056471D01*
X0160749Y0057788D01*
X0160749Y0059212D01*
X0160204Y0060529D01*
X0159568Y0061164D01*
X0159568Y0067506D01*
X0163218Y0071156D01*
X0163583Y0072038D01*
X0163583Y0114708D01*
X0162529Y0115763D01*
X0150270Y0115763D01*
X0149837Y0116013D01*
X0149278Y0116163D01*
X0148388Y0116163D01*
X0147499Y0116163D01*
X0146939Y0116013D01*
X0146506Y0115763D01*
X0143111Y0115763D01*
X0143111Y0117934D01*
X0142746Y0118816D01*
X0141702Y0119859D01*
X0141027Y0120535D01*
X0140145Y0120900D01*
X0134832Y0120900D01*
X0134632Y0121100D01*
X0155145Y0121100D01*
X0156027Y0121465D01*
X0156702Y0122141D01*
X0160659Y0126097D01*
X0161024Y0126979D01*
X0161024Y0131237D01*
X0162529Y0131237D01*
X0163583Y0132292D01*
X0163583Y0137183D01*
X0163752Y0137780D01*
X0164196Y0137964D01*
X0165204Y0138971D01*
X0165749Y0140288D01*
X0165749Y0141712D01*
X0165204Y0143029D01*
X0164849Y0143383D01*
X0167268Y0143383D01*
X0167268Y0140812D01*
X0166954Y0140812D01*
X0165899Y0139757D01*
X0165899Y0133936D01*
X0166052Y0133783D01*
X0165939Y0133670D01*
X0165649Y0133168D01*
X0165499Y0132609D01*
X0165499Y0130154D01*
X0169668Y0130154D01*
X0173836Y0130154D01*
X0173836Y0132609D01*
X0173686Y0133168D01*
X0173397Y0133670D01*
X0173284Y0133783D01*
X0173436Y0133936D01*
X0173436Y0139757D01*
X0172382Y0140812D01*
X0172068Y0140812D01*
X0172068Y0144922D01*
X0171702Y0145804D01*
X0170364Y0147143D01*
X0169689Y0147818D01*
X0168807Y0148183D01*
X0158974Y0148183D01*
X0158092Y0147818D01*
X0154855Y0144581D01*
X0153955Y0144581D01*
X0153347Y0144329D01*
X0153347Y0157698D01*
X0152982Y0158580D01*
X0146702Y0164859D01*
X0146027Y0165535D01*
X0145145Y0165900D01*
X0135662Y0165900D01*
X0127068Y0174494D01*
X0127068Y0176477D01*
X0126702Y0177359D01*
X0121968Y0182094D01*
X0121968Y0185488D01*
X0119156Y0188300D01*
X0115179Y0188300D01*
X0112368Y0185488D01*
X0112368Y0181512D01*
X0115179Y0178700D01*
X0118574Y0178700D01*
X0118974Y0178300D01*
X0115179Y0178300D01*
X0112368Y0175488D01*
X0112368Y0171694D01*
X0111968Y0172094D01*
X0111968Y0175488D01*
X0109156Y0178300D01*
X0105179Y0178300D01*
X0102368Y0175488D01*
X0102368Y0171512D01*
X0105179Y0168700D01*
X0108574Y0168700D01*
X0108974Y0168300D01*
X0105179Y0168300D01*
X0102368Y0165488D01*
X0102368Y0161512D01*
X0105179Y0158700D01*
X0108574Y0158700D01*
X0108974Y0158300D01*
X0105179Y0158300D01*
X0102368Y0155488D01*
X0102368Y0152081D01*
X0101455Y0152081D01*
X0100568Y0151713D01*
X0100568Y0157948D01*
X0100607Y0158066D01*
X0100568Y0158621D01*
X0100568Y0159176D01*
X0100520Y0159291D01*
X0100511Y0159416D01*
X0100263Y0159913D01*
X0100050Y0160426D01*
X0099962Y0160514D01*
X0097844Y0164750D01*
X0097738Y0165109D01*
X0097544Y0165349D01*
X0097406Y0165625D01*
X0097124Y0165871D01*
X0096889Y0166162D01*
X0096618Y0166309D01*
X0096384Y0166512D01*
X0096029Y0166630D01*
X0095701Y0166809D01*
X0095394Y0166842D01*
X0095101Y0166939D01*
X0094728Y0166913D01*
X0082257Y0168243D01*
X0080898Y0172650D01*
X0088263Y0172650D01*
X0088804Y0173191D01*
X0088857Y0173099D01*
X0089267Y0172690D01*
X0089769Y0172400D01*
X0090328Y0172250D01*
X0093293Y0172250D01*
X0093293Y0178125D01*
X0093843Y0178125D01*
X0093843Y0178675D01*
X0098718Y0178675D01*
X0098718Y0182142D01*
X0100242Y0180618D01*
X0101491Y0180100D01*
X0103780Y0180100D01*
X0105179Y0178700D01*
X0109156Y0178700D01*
X0111968Y0181512D01*
X0111968Y0185488D01*
X0109156Y0188300D01*
X0105179Y0188300D01*
X0103780Y0186900D01*
X0103576Y0186900D01*
X0102399Y0188077D01*
X0105511Y0191188D01*
X0107382Y0191188D01*
X0107947Y0191754D01*
X0111388Y0191754D01*
X0111560Y0191582D01*
X0113931Y0191582D01*
X0113991Y0191557D01*
X0120500Y0191557D01*
X0123006Y0188322D01*
X0123006Y0187672D01*
X0123639Y0186142D01*
X0124810Y0184971D01*
X0126340Y0184338D01*
X0127996Y0184338D01*
X0129525Y0184971D01*
X0130654Y0186100D01*
X0144503Y0186100D01*
X0145139Y0185464D01*
X0146455Y0184919D01*
X0147880Y0184919D01*
X0149196Y0185464D01*
X0150204Y0186471D01*
X0150749Y0187788D01*
X0150749Y0189212D01*
X0150204Y0190529D01*
X0149196Y0191536D01*
X0147880Y0192081D01*
X0146455Y0192081D01*
X0145139Y0191536D01*
X0144503Y0190900D01*
X0130654Y0190900D01*
X0129525Y0192029D01*
X0128362Y0192510D01*
X0125135Y0196678D01*
X0125050Y0196883D01*
X0124724Y0197209D01*
X0124442Y0197573D01*
X0124250Y0197683D01*
X0124094Y0197839D01*
X0123668Y0198016D01*
X0123267Y0198244D01*
X0123048Y0198272D01*
X0122844Y0198357D01*
X0122383Y0198357D01*
X0121926Y0198415D01*
X0121712Y0198357D01*
X0117649Y0198357D01*
X0117879Y0198418D01*
X0118381Y0198708D01*
X0118790Y0199118D01*
X0119080Y0199619D01*
X0119230Y0200179D01*
X0119230Y0202043D01*
X0114668Y0202043D01*
X0114668Y0202043D01*
X0119230Y0202043D01*
X0119230Y0203908D01*
X0119080Y0204467D01*
X0118790Y0204969D01*
X0118381Y0205379D01*
X0117879Y0205668D01*
X0117320Y0205818D01*
X0114668Y0205818D01*
X0114668Y0202043D01*
X0110106Y0202043D01*
X0110106Y0200179D01*
X0110255Y0199619D01*
X0110545Y0199118D01*
X0110955Y0198708D01*
X0111222Y0198554D01*
X0108526Y0198554D01*
X0108686Y0198832D01*
X0108836Y0199391D01*
X0108836Y0201846D01*
X0104668Y0201846D01*
X0104668Y0201847D01*
X0104668Y0201847D01*
X0104668Y0206212D01*
X0106926Y0206212D01*
X0107485Y0206062D01*
X0107987Y0205772D01*
X0108397Y0205363D01*
X0108686Y0204861D01*
X0108836Y0204301D01*
X0108836Y0201847D01*
X0104668Y0201847D01*
X0104668Y0206212D01*
X0102410Y0206212D01*
X0101850Y0206062D01*
X0101348Y0205772D01*
X0100939Y0205363D01*
X0100649Y0204861D01*
X0100499Y0204301D01*
X0100499Y0201847D01*
X0104668Y0201847D01*
X0104668Y0201846D01*
X0100499Y0201846D01*
X0100499Y0199391D01*
X0100649Y0198832D01*
X0100939Y0198330D01*
X0101052Y0198217D01*
X0100899Y0198064D01*
X0100899Y0196193D01*
X0096606Y0191900D01*
X0095594Y0191900D01*
X0096330Y0192636D01*
X0096330Y0197277D01*
X0095276Y0198331D01*
X0095055Y0198331D01*
X0095379Y0198418D01*
X0095881Y0198708D01*
X0096290Y0199118D01*
X0096580Y0199619D01*
X0096730Y0200179D01*
X0096730Y0202043D01*
X0092168Y0202043D01*
X0092168Y0202043D01*
X0096730Y0202043D01*
X0096730Y0203908D01*
X0096580Y0204467D01*
X0096290Y0204969D01*
X0095881Y0205379D01*
X0095379Y0205668D01*
X0094820Y0205818D01*
X0092168Y0205818D01*
X0092168Y0202043D01*
X0087606Y0202043D01*
X0087606Y0200179D01*
X0087755Y0199619D01*
X0088045Y0199118D01*
X0088455Y0198708D01*
X0088722Y0198554D01*
X0086026Y0198554D01*
X0086186Y0198832D01*
X0086336Y0199391D01*
X0086336Y0201846D01*
X0082168Y0201846D01*
X0082168Y0201847D01*
X0082168Y0201847D01*
X0082168Y0206212D01*
X0084426Y0206212D01*
X0084985Y0206062D01*
X0085487Y0205772D01*
X0085897Y0205363D01*
X0086186Y0204861D01*
X0086336Y0204301D01*
X0086336Y0201847D01*
X0082168Y0201847D01*
X0082168Y0206212D01*
X0079910Y0206212D01*
X0079350Y0206062D01*
X0078848Y0205772D01*
X0078439Y0205363D01*
X0078149Y0204861D01*
X0077999Y0204301D01*
X0077999Y0201847D01*
X0082168Y0201847D01*
X0082168Y0201846D01*
X0077999Y0201846D01*
X0077999Y0199391D01*
X0078149Y0198832D01*
X0078439Y0198330D01*
X0078552Y0198217D01*
X0078399Y0198064D01*
X0078399Y0196193D01*
X0072685Y0190479D01*
X0072168Y0189230D01*
X0072168Y0184150D01*
X0071872Y0184150D01*
X0070818Y0183096D01*
X0070818Y0173704D01*
X0071872Y0172650D01*
X0073782Y0172650D01*
X0076412Y0164119D01*
X0076597Y0163491D01*
X0076611Y0163473D01*
X0076618Y0163452D01*
X0077036Y0162948D01*
X0077447Y0162438D01*
X0077466Y0162428D01*
X0077481Y0162410D01*
X0078059Y0162104D01*
X0078635Y0161791D01*
X0078657Y0161789D01*
X0078676Y0161778D01*
X0079328Y0161717D01*
X0092458Y0160316D01*
X0092970Y0159294D01*
X0092913Y0159350D01*
X0076422Y0159350D01*
X0075368Y0158296D01*
X0075368Y0148904D01*
X0076422Y0147850D01*
X0092913Y0147850D01*
X0093768Y0148704D01*
X0093768Y0146900D01*
X0085817Y0146900D01*
X0085380Y0147081D01*
X0083955Y0147081D01*
X0082639Y0146536D01*
X0081632Y0145529D01*
X0081087Y0144212D01*
X0081087Y0142788D01*
X0081632Y0141471D01*
X0082639Y0140464D01*
X0083955Y0139919D01*
X0085380Y0139919D01*
X0085817Y0140100D01*
X0093768Y0140100D01*
X0093768Y0139213D01*
X0092880Y0139581D01*
X0091455Y0139581D01*
X0090139Y0139036D01*
X0089132Y0138029D01*
X0088587Y0136712D01*
X0088587Y0135288D01*
X0089132Y0133971D01*
X0089768Y0133336D01*
X0089768Y0116994D01*
X0088312Y0115538D01*
X0088304Y0115535D01*
X0086208Y0113439D01*
X0086104Y0113439D01*
X0085590Y0114678D01*
X0084269Y0116000D01*
X0085590Y0117322D01*
X0086428Y0119343D01*
X0086428Y0121531D01*
X0085590Y0123552D01*
X0084245Y0124897D01*
X0084771Y0125279D01*
X0085428Y0125936D01*
X0085974Y0126687D01*
X0086395Y0127515D01*
X0086682Y0128398D01*
X0086828Y0129315D01*
X0086828Y0129779D01*
X0080928Y0129779D01*
X0080928Y0129780D01*
X0080927Y0129780D01*
X0080927Y0129779D01*
X0075028Y0129779D01*
X0075028Y0129315D01*
X0075173Y0128398D01*
X0075460Y0127515D01*
X0075881Y0126687D01*
X0076427Y0125936D01*
X0077084Y0125279D01*
X0077610Y0124897D01*
X0076265Y0123552D01*
X0075428Y0121531D01*
X0075428Y0119343D01*
X0076265Y0117322D01*
X0077586Y0116000D01*
X0076265Y0114678D01*
X0075428Y0112657D01*
X0075428Y0110469D01*
X0076265Y0108447D01*
X0077812Y0106900D01*
X0077833Y0106892D01*
X0077812Y0106883D01*
X0076265Y0105336D01*
X0075428Y0103314D01*
X0075428Y0101126D01*
X0075826Y0100165D01*
X0073096Y0101296D01*
X0069861Y0101296D01*
X0066873Y0100058D01*
X0064586Y0097771D01*
X0063348Y0094783D01*
X0063348Y0091548D01*
X0064586Y0088560D01*
X0066873Y0086272D01*
X0069861Y0085035D01*
X0073096Y0085035D01*
X0076084Y0086272D01*
X0078372Y0088560D01*
X0079609Y0091548D01*
X0079609Y0094783D01*
X0078594Y0097234D01*
X0079834Y0096720D01*
X0082022Y0096720D01*
X0083278Y0097241D01*
X0083052Y0096694D01*
X0083052Y0094892D01*
X0081817Y0093657D01*
X0081086Y0092926D01*
X0080690Y0091970D01*
X0080690Y0088312D01*
X0079454Y0088312D01*
X0078399Y0087257D01*
X0078399Y0081436D01*
X0078552Y0081283D01*
X0078439Y0081170D01*
X0078149Y0080668D01*
X0077999Y0080109D01*
X0077999Y0077654D01*
X0082168Y0077654D01*
X0086336Y0077654D01*
X0086336Y0080109D01*
X0086186Y0080668D01*
X0085897Y0081170D01*
X0085784Y0081283D01*
X0085936Y0081436D01*
X0085936Y0087257D01*
X0085890Y0087304D01*
X0085890Y0090376D01*
X0087856Y0092342D01*
X0088252Y0093298D01*
X0088252Y0095100D01*
X0089091Y0095939D01*
X0090545Y0095939D01*
X0090545Y0090511D01*
X0091210Y0089845D01*
X0091393Y0089404D01*
X0093066Y0087731D01*
X0093254Y0087544D01*
X0091599Y0087544D01*
X0090545Y0086489D01*
X0090545Y0080274D01*
X0091028Y0079791D01*
X0091028Y0076113D01*
X0091393Y0075231D01*
X0096103Y0070520D01*
X0096986Y0070155D01*
X0103735Y0070155D01*
X0104116Y0069236D01*
X0105128Y0068224D01*
X0106452Y0067676D01*
X0106997Y0067676D01*
X0109568Y0064964D01*
X0109568Y0060896D01*
X0109163Y0061300D01*
X0105172Y0061300D01*
X0104668Y0060796D01*
X0104163Y0061300D01*
X0100172Y0061300D01*
X0099118Y0060246D01*
X0099118Y0054127D01*
X0098591Y0053600D01*
X0092745Y0053600D01*
X0089068Y0057277D01*
X0089068Y0058875D01*
X0088398Y0060492D01*
X0087160Y0061730D01*
X0085543Y0062400D01*
X0083792Y0062400D01*
X0082175Y0061730D01*
X0080938Y0060492D01*
X0080268Y0058875D01*
X0080268Y0058749D01*
X0076668Y0056995D01*
X0070936Y0057458D01*
X0070936Y0058064D01*
X0070784Y0058217D01*
X0070897Y0058330D01*
X0071186Y0058832D01*
X0071336Y0059391D01*
X0071336Y0061846D01*
X0067168Y0061846D01*
X0067168Y0061847D01*
X0067168Y0061847D01*
X0067168Y0066212D01*
X0069426Y0066212D01*
X0069985Y0066062D01*
X0070487Y0065772D01*
X0070897Y0065363D01*
X0071186Y0064861D01*
X0071336Y0064301D01*
X0071336Y0061847D01*
X0067168Y0061847D01*
X0067168Y0066212D01*
X0064910Y0066212D01*
X0064350Y0066062D01*
X0063848Y0065772D01*
X0063439Y0065363D01*
X0063149Y0064861D01*
X0062999Y0064301D01*
X0062999Y0061847D01*
X0067168Y0061847D01*
X0067168Y0061846D01*
X0062999Y0061846D01*
X0062999Y0059391D01*
X0063149Y0058832D01*
X0063439Y0058330D01*
X0063552Y0058217D01*
X0063399Y0058064D01*
X0063399Y0052243D01*
X0064454Y0051188D01*
X0069882Y0051188D01*
X0070935Y0052241D01*
X0076631Y0051781D01*
X0076809Y0051720D01*
X0077142Y0051740D01*
X0077474Y0051713D01*
X0077653Y0051771D01*
X0077841Y0051783D01*
X0078141Y0051929D01*
X0078458Y0052031D01*
X0078602Y0052153D01*
X0082593Y0054097D01*
X0083792Y0053600D01*
X0085391Y0053600D01*
X0090195Y0048796D01*
X0090909Y0048500D01*
X0090195Y0048204D01*
X0085391Y0043400D01*
X0083792Y0043400D01*
X0082175Y0042730D01*
X0080938Y0041492D01*
X0080303Y0039962D01*
X0078413Y0039153D01*
X0070936Y0039893D01*
X0070936Y0040564D01*
X0070784Y0040717D01*
X0070897Y0040830D01*
X0071186Y0041332D01*
X0071336Y0041891D01*
X0071336Y0044346D01*
X0067168Y0044346D01*
X0067168Y0044347D01*
X0067168Y0044347D01*
X0067168Y0048712D01*
X0069426Y0048712D01*
X0069985Y0048562D01*
X0070487Y0048272D01*
X0070897Y0047863D01*
X0071186Y0047361D01*
X0071336Y0046801D01*
X0071336Y0044347D01*
X0067168Y0044347D01*
X0067168Y0048712D01*
X0064910Y0048712D01*
X0064350Y0048562D01*
X0063848Y0048272D01*
X0063439Y0047863D01*
X0063149Y0047361D01*
X0062999Y0046801D01*
X0062999Y0044347D01*
X0067168Y0044347D01*
X0067168Y0044346D01*
X0062999Y0044346D01*
X0062999Y0041891D01*
X0063149Y0041332D01*
X0063439Y0040830D01*
X0063552Y0040717D01*
X0063399Y0040564D01*
X0063399Y0034743D01*
X0064454Y0033688D01*
X0069882Y0033688D01*
X0070868Y0034675D01*
X0078197Y0033949D01*
X0078334Y0033894D01*
X0078708Y0033899D01*
X0079080Y0033862D01*
X0079221Y0033904D01*
X0079368Y0033906D01*
X0079712Y0034053D01*
X0080070Y0034161D01*
X0080184Y0034255D01*
X0082369Y0035189D01*
X0083792Y0034600D01*
X0085543Y0034600D01*
X0087160Y0035270D01*
X0088398Y0036508D01*
X0089068Y0038125D01*
X0089068Y0039723D01*
X0092745Y0043400D01*
X0105185Y0043400D01*
X0106140Y0043796D01*
X0106872Y0044527D01*
X0109372Y0047027D01*
X0109768Y0047983D01*
X0109768Y0052104D01*
X0110172Y0051700D01*
X0114163Y0051700D01*
X0114668Y0052204D01*
X0115172Y0051700D01*
X0118768Y0051700D01*
X0118768Y0047824D01*
X0119285Y0046574D01*
X0121785Y0044074D01*
X0122742Y0043118D01*
X0123991Y0042600D01*
X0132566Y0042600D01*
X0133716Y0040300D01*
X0130172Y0040300D01*
X0129668Y0039796D01*
X0129163Y0040300D01*
X0125172Y0040300D01*
X0124668Y0039796D01*
X0124163Y0040300D01*
X0120172Y0040300D01*
X0119668Y0039796D01*
X0119163Y0040300D01*
X0115172Y0040300D01*
X0114668Y0039796D01*
X0114163Y0040300D01*
X0110172Y0040300D01*
X0109668Y0039796D01*
X0109163Y0040300D01*
X0105172Y0040300D01*
X0104668Y0039796D01*
X0104163Y0040300D01*
X0100172Y0040300D01*
X0099118Y0039246D01*
X0099118Y0031754D01*
X0100172Y0030700D01*
X0104163Y0030700D01*
X0104668Y0031204D01*
X0105172Y0030700D01*
X0109163Y0030700D01*
X0109668Y0031204D01*
X0110172Y0030700D01*
X0114163Y0030700D01*
X0114668Y0031204D01*
X0115172Y0030700D01*
X0119163Y0030700D01*
X0119668Y0031204D01*
X0120172Y0030700D01*
X0124163Y0030700D01*
X0124668Y0031204D01*
X0125172Y0030700D01*
X0129163Y0030700D01*
X0129668Y0031204D01*
X0130172Y0030700D01*
X0134163Y0030700D01*
X0134668Y0031204D01*
X0135172Y0030700D01*
X0139163Y0030700D01*
X0140218Y0031754D01*
X0140568Y0035087D02*
X0146466Y0035087D01*
X0140568Y0037485D02*
X0191268Y0037485D01*
X0191268Y0039884D02*
X0190860Y0039884D01*
X0186466Y0035087D02*
X0182869Y0035087D01*
X0182387Y0035569D02*
X0180622Y0036300D01*
X0178713Y0036300D01*
X0176949Y0035569D01*
X0175598Y0034219D01*
X0174868Y0032455D01*
X0174868Y0024545D01*
X0175598Y0022781D01*
X0176949Y0021431D01*
X0178713Y0020700D01*
X0180622Y0020700D01*
X0182387Y0021431D01*
X0183737Y0022781D01*
X0184468Y0024545D01*
X0184468Y0032455D01*
X0183737Y0034219D01*
X0182387Y0035569D01*
X0184371Y0032688D02*
X0184964Y0032688D01*
X0184868Y0030290D02*
X0184468Y0030290D01*
X0184468Y0027891D02*
X0184868Y0027891D01*
X0184868Y0025493D02*
X0184468Y0025493D01*
X0183867Y0023094D02*
X0185469Y0023094D01*
X0193867Y0023094D02*
X0231397Y0023094D01*
X0233795Y0020696D02*
X0171692Y0020696D01*
X0171664Y0020681D02*
X0172393Y0021053D01*
X0173055Y0021534D01*
X0173634Y0022112D01*
X0174115Y0022775D01*
X0174487Y0023504D01*
X0174740Y0024282D01*
X0174868Y0025091D01*
X0174868Y0028500D01*
X0169668Y0028500D01*
X0174868Y0028500D01*
X0174868Y0031909D01*
X0174740Y0032718D01*
X0174487Y0033496D01*
X0174115Y0034225D01*
X0173634Y0034888D01*
X0173055Y0035466D01*
X0172393Y0035947D01*
X0171664Y0036319D01*
X0170885Y0036572D01*
X0170077Y0036700D01*
X0169668Y0036700D01*
X0169668Y0028500D01*
X0169668Y0028500D01*
X0169668Y0028500D01*
X0169668Y0020300D01*
X0170077Y0020300D01*
X0170885Y0020428D01*
X0171664Y0020681D01*
X0169668Y0020696D02*
X0169668Y0020696D01*
X0169668Y0020300D02*
X0169668Y0028500D01*
X0169668Y0028500D01*
X0169668Y0036700D01*
X0169258Y0036700D01*
X0168450Y0036572D01*
X0167672Y0036319D01*
X0166942Y0035947D01*
X0166280Y0035466D01*
X0165701Y0034888D01*
X0165220Y0034225D01*
X0164849Y0033496D01*
X0164596Y0032718D01*
X0164468Y0031909D01*
X0164468Y0028500D01*
X0164468Y0025091D01*
X0164596Y0024282D01*
X0164849Y0023504D01*
X0165220Y0022775D01*
X0165701Y0022112D01*
X0166280Y0021534D01*
X0166942Y0021053D01*
X0167672Y0020681D01*
X0168450Y0020428D01*
X0169258Y0020300D01*
X0169668Y0020300D01*
X0167643Y0020696D02*
X0066335Y0020696D01*
X0064445Y0023094D02*
X0145469Y0023094D01*
X0144868Y0025493D02*
X0063067Y0025493D01*
X0062424Y0027891D02*
X0144868Y0027891D01*
X0154468Y0027891D02*
X0154868Y0027891D01*
X0154868Y0025493D02*
X0154468Y0025493D01*
X0154868Y0024545D02*
X0155598Y0022781D01*
X0156949Y0021431D01*
X0158713Y0020700D01*
X0160622Y0020700D01*
X0162387Y0021431D01*
X0163737Y0022781D01*
X0164468Y0024545D01*
X0164468Y0032455D01*
X0163737Y0034219D01*
X0162387Y0035569D01*
X0160622Y0036300D01*
X0158713Y0036300D01*
X0156949Y0035569D01*
X0155598Y0034219D01*
X0154868Y0032455D01*
X0154868Y0024545D01*
X0155469Y0023094D02*
X0153867Y0023094D01*
X0163867Y0023094D02*
X0165058Y0023094D01*
X0164468Y0025493D02*
X0164468Y0025493D01*
X0164468Y0027891D02*
X0164468Y0027891D01*
X0164468Y0028500D02*
X0169668Y0028500D01*
X0169668Y0028500D01*
X0164468Y0028500D01*
X0164468Y0030290D02*
X0164468Y0030290D01*
X0164371Y0032688D02*
X0164591Y0032688D01*
X0165900Y0035087D02*
X0162869Y0035087D01*
X0156466Y0035087D02*
X0152869Y0035087D01*
X0154371Y0032688D02*
X0154964Y0032688D01*
X0154868Y0030290D02*
X0154468Y0030290D01*
X0169668Y0030290D02*
X0169668Y0030290D01*
X0169668Y0032688D02*
X0169668Y0032688D01*
X0169668Y0035087D02*
X0169668Y0035087D01*
X0173435Y0035087D02*
X0176466Y0035087D01*
X0174964Y0032688D02*
X0174744Y0032688D01*
X0174868Y0030290D02*
X0174868Y0030290D01*
X0174868Y0027891D02*
X0174868Y0027891D01*
X0174868Y0025493D02*
X0174868Y0025493D01*
X0174278Y0023094D02*
X0175469Y0023094D01*
X0169668Y0023094D02*
X0169668Y0023094D01*
X0169668Y0025493D02*
X0169668Y0025493D01*
X0169668Y0027891D02*
X0169668Y0027891D01*
X0194468Y0027891D02*
X0226600Y0027891D01*
X0228998Y0025493D02*
X0194468Y0025493D01*
X0196266Y0030290D02*
X0224201Y0030290D01*
X0221803Y0032688D02*
X0198012Y0032688D01*
X0198068Y0035087D02*
X0219404Y0035087D01*
X0217006Y0037485D02*
X0198068Y0037485D01*
X0198068Y0039884D02*
X0214607Y0039884D01*
X0212209Y0042282D02*
X0198068Y0042282D01*
X0198068Y0044681D02*
X0209900Y0044681D01*
X0209568Y0047079D02*
X0198068Y0047079D01*
X0198068Y0049478D02*
X0209568Y0049478D01*
X0209568Y0051876D02*
X0198068Y0051876D01*
X0198068Y0054275D02*
X0209568Y0054275D01*
X0209568Y0056673D02*
X0198068Y0056673D01*
X0198068Y0059072D02*
X0209568Y0059072D01*
X0209568Y0061470D02*
X0198068Y0061470D01*
X0198068Y0063869D02*
X0209550Y0063869D01*
X0211888Y0066267D02*
X0205591Y0066267D01*
X0205560Y0066151D02*
X0205710Y0066710D01*
X0205710Y0070000D01*
X0205710Y0073290D01*
X0205560Y0073849D01*
X0205271Y0074351D01*
X0204861Y0074760D01*
X0204359Y0075050D01*
X0203800Y0075200D01*
X0202010Y0075200D01*
X0200221Y0075200D01*
X0199661Y0075050D01*
X0199159Y0074760D01*
X0198750Y0074351D01*
X0198460Y0073849D01*
X0198310Y0073290D01*
X0198310Y0070000D01*
X0198310Y0066710D01*
X0198460Y0066151D01*
X0198750Y0065649D01*
X0199159Y0065240D01*
X0199661Y0064950D01*
X0200221Y0064800D01*
X0202010Y0064800D01*
X0202010Y0070000D01*
X0202010Y0070000D01*
X0198310Y0070000D01*
X0202010Y0070000D01*
X0202010Y0075200D01*
X0202010Y0070000D01*
X0202010Y0070000D01*
X0202010Y0070000D01*
X0202010Y0064800D01*
X0203800Y0064800D01*
X0204359Y0064950D01*
X0204861Y0065240D01*
X0205271Y0065649D01*
X0205560Y0066151D01*
X0205710Y0068666D02*
X0216685Y0068666D01*
X0214538Y0071064D02*
X0205710Y0071064D01*
X0205710Y0070000D02*
X0202010Y0070000D01*
X0202010Y0070000D01*
X0205710Y0070000D01*
X0205664Y0073463D02*
X0214187Y0073463D01*
X0214187Y0075861D02*
X0198068Y0075861D01*
X0198068Y0073463D02*
X0198357Y0073463D01*
X0198310Y0071064D02*
X0198068Y0071064D01*
X0198068Y0068666D02*
X0198310Y0068666D01*
X0198429Y0066267D02*
X0198068Y0066267D01*
X0202010Y0066267D02*
X0202010Y0066267D01*
X0202010Y0068666D02*
X0202010Y0068666D01*
X0202010Y0071064D02*
X0202010Y0071064D01*
X0202010Y0073463D02*
X0202010Y0073463D01*
X0202499Y0078260D02*
X0214568Y0078260D01*
X0214568Y0080658D02*
X0207895Y0080658D01*
X0213292Y0083057D02*
X0214568Y0083057D01*
X0219768Y0083057D02*
X0224568Y0083057D01*
X0224568Y0080658D02*
X0219768Y0080658D01*
X0219768Y0078260D02*
X0219815Y0078260D01*
X0224520Y0078260D02*
X0224568Y0078260D01*
X0229768Y0078722D02*
X0229768Y0089923D01*
X0245745Y0105900D01*
X0250185Y0105900D01*
X0251140Y0106296D01*
X0261140Y0116296D01*
X0261872Y0117027D01*
X0262068Y0117500D01*
X0262068Y0114577D01*
X0251091Y0103600D01*
X0244151Y0103600D01*
X0243195Y0103204D01*
X0242464Y0102473D01*
X0234964Y0094973D01*
X0234568Y0094017D01*
X0234568Y0078722D01*
X0234198Y0078936D01*
X0233638Y0079086D01*
X0232168Y0079086D01*
X0232168Y0074524D01*
X0232168Y0074524D01*
X0232168Y0079086D01*
X0230697Y0079086D01*
X0230137Y0078936D01*
X0229768Y0078722D01*
X0229768Y0080658D02*
X0234568Y0080658D01*
X0234568Y0083057D02*
X0229768Y0083057D01*
X0229768Y0085455D02*
X0234568Y0085455D01*
X0234568Y0087854D02*
X0229768Y0087854D01*
X0230097Y0090252D02*
X0234568Y0090252D01*
X0234568Y0092651D02*
X0232496Y0092651D01*
X0234894Y0095049D02*
X0235040Y0095049D01*
X0237293Y0097448D02*
X0237439Y0097448D01*
X0239691Y0099846D02*
X0239837Y0099846D01*
X0242090Y0102245D02*
X0242236Y0102245D01*
X0244488Y0104643D02*
X0252134Y0104643D01*
X0251887Y0107042D02*
X0254533Y0107042D01*
X0254285Y0109440D02*
X0256931Y0109440D01*
X0256684Y0111839D02*
X0259330Y0111839D01*
X0259082Y0114237D02*
X0261728Y0114237D01*
X0261481Y0116636D02*
X0262068Y0116636D01*
X0267268Y0116636D02*
X0269568Y0116636D01*
X0269568Y0114237D02*
X0267268Y0114237D01*
X0267268Y0112983D02*
X0267268Y0148309D01*
X0267628Y0147948D01*
X0268952Y0147400D01*
X0270384Y0147400D01*
X0271707Y0147948D01*
X0272359Y0148600D01*
X0277756Y0148600D01*
X0277756Y0148600D01*
X0276651Y0148600D01*
X0275695Y0148204D01*
X0270695Y0143204D01*
X0269964Y0142473D01*
X0269568Y0141517D01*
X0269568Y0133491D01*
X0269116Y0133039D01*
X0268568Y0131716D01*
X0268568Y0130284D01*
X0269116Y0128961D01*
X0269568Y0128509D01*
X0269568Y0121422D01*
X0269538Y0121332D01*
X0269568Y0120908D01*
X0269568Y0076422D01*
X0269538Y0076332D01*
X0269568Y0075908D01*
X0269568Y0075483D01*
X0269604Y0075395D01*
X0269611Y0075300D01*
X0269801Y0074920D01*
X0269964Y0074527D01*
X0270031Y0074460D01*
X0272301Y0069920D01*
X0272464Y0069527D01*
X0272531Y0069460D01*
X0272573Y0069375D01*
X0272895Y0069096D01*
X0273195Y0068796D01*
X0273283Y0068759D01*
X0273355Y0068697D01*
X0273758Y0068563D01*
X0274151Y0068400D01*
X0274246Y0068400D01*
X0274336Y0068370D01*
X0274760Y0068400D01*
X0277756Y0068400D01*
X0277810Y0068268D01*
X0278483Y0067595D01*
X0278615Y0067541D01*
X0278615Y0061401D01*
X0278580Y0061290D01*
X0278615Y0060887D01*
X0278615Y0060483D01*
X0278659Y0060375D01*
X0278670Y0060259D01*
X0278856Y0059901D01*
X0279011Y0059527D01*
X0279093Y0059445D01*
X0279147Y0059342D01*
X0279456Y0059082D01*
X0279742Y0058796D01*
X0279850Y0058751D01*
X0285105Y0054337D01*
X0285109Y0054331D01*
X0285502Y0054004D01*
X0285891Y0053676D01*
X0285898Y0053674D01*
X0290414Y0049923D01*
X0290695Y0049642D01*
X0290809Y0049595D01*
X0290904Y0049516D01*
X0291284Y0049398D01*
X0291651Y0049246D01*
X0291774Y0049246D01*
X0291892Y0049210D01*
X0292288Y0049246D01*
X0305899Y0049246D01*
X0305899Y0048936D01*
X0306335Y0048500D01*
X0305899Y0048064D01*
X0305899Y0042243D01*
X0306046Y0042096D01*
X0304054Y0041100D01*
X0255745Y0041100D01*
X0249768Y0047077D01*
X0249768Y0048278D01*
X0250137Y0048064D01*
X0250697Y0047914D01*
X0252168Y0047914D01*
X0253638Y0047914D01*
X0254198Y0048064D01*
X0254700Y0048354D01*
X0255109Y0048763D01*
X0255399Y0049265D01*
X0255549Y0049825D01*
X0255549Y0052476D01*
X0252168Y0052476D01*
X0252168Y0047914D01*
X0252168Y0052476D01*
X0252168Y0052476D01*
X0252168Y0052476D01*
X0255549Y0052476D01*
X0255549Y0055128D01*
X0255399Y0055688D01*
X0255109Y0056189D01*
X0254700Y0056599D01*
X0254198Y0056889D01*
X0253638Y0057039D01*
X0252168Y0057039D01*
X0252168Y0052477D01*
X0252168Y0052477D01*
X0252168Y0057039D01*
X0250697Y0057039D01*
X0250137Y0056889D01*
X0249636Y0056599D01*
X0249385Y0056348D01*
X0249094Y0056639D01*
X0245241Y0056639D01*
X0244668Y0056065D01*
X0244094Y0056639D01*
X0240241Y0056639D01*
X0239668Y0056065D01*
X0239094Y0056639D01*
X0235241Y0056639D01*
X0234668Y0056065D01*
X0234094Y0056639D01*
X0230241Y0056639D01*
X0229668Y0056065D01*
X0229094Y0056639D01*
X0225241Y0056639D01*
X0224668Y0056065D01*
X0224094Y0056639D01*
X0220241Y0056639D01*
X0219668Y0056065D01*
X0219094Y0056639D01*
X0215241Y0056639D01*
X0214768Y0056165D01*
X0214768Y0061893D01*
X0223248Y0066133D01*
X0223640Y0066296D01*
X0223708Y0066363D01*
X0223793Y0066406D01*
X0224072Y0066727D01*
X0224372Y0067027D01*
X0224408Y0067115D01*
X0224471Y0067187D01*
X0224605Y0067590D01*
X0224768Y0067983D01*
X0224768Y0068078D01*
X0224798Y0068168D01*
X0224768Y0068592D01*
X0224768Y0070835D01*
X0225241Y0070361D01*
X0229094Y0070361D01*
X0229385Y0070652D01*
X0229636Y0070401D01*
X0230137Y0070111D01*
X0230697Y0069961D01*
X0232168Y0069961D01*
X0233638Y0069961D01*
X0234198Y0070111D01*
X0234700Y0070401D01*
X0234951Y0070652D01*
X0235241Y0070361D01*
X0239094Y0070361D01*
X0239668Y0070935D01*
X0239768Y0070835D01*
X0239768Y0066994D01*
X0237374Y0064600D01*
X0236452Y0064600D01*
X0235128Y0064052D01*
X0234116Y0063039D01*
X0233568Y0061716D01*
X0233568Y0060284D01*
X0234116Y0058961D01*
X0235128Y0057948D01*
X0236452Y0057400D01*
X0237884Y0057400D01*
X0239207Y0057948D01*
X0240220Y0058961D01*
X0240768Y0060284D01*
X0240768Y0061206D01*
X0243527Y0063965D01*
X0243942Y0064380D01*
X0244116Y0063961D01*
X0245128Y0062948D01*
X0246452Y0062400D01*
X0247884Y0062400D01*
X0249207Y0062948D01*
X0250220Y0063961D01*
X0250768Y0065284D01*
X0250768Y0066716D01*
X0250220Y0068039D01*
X0249768Y0068491D01*
X0249768Y0070835D01*
X0250241Y0070361D01*
X0254094Y0070361D01*
X0255149Y0071416D01*
X0255149Y0077631D01*
X0254094Y0078686D01*
X0250241Y0078686D01*
X0249668Y0078113D01*
X0249094Y0078686D01*
X0245241Y0078686D01*
X0244768Y0078212D01*
X0244768Y0086009D01*
X0245220Y0086461D01*
X0245768Y0087784D01*
X0245768Y0089216D01*
X0245220Y0090539D01*
X0244207Y0091552D01*
X0242884Y0092100D01*
X0241452Y0092100D01*
X0240128Y0091552D01*
X0239768Y0091191D01*
X0239768Y0092423D01*
X0245745Y0098400D01*
X0252685Y0098400D01*
X0253640Y0098796D01*
X0266140Y0111296D01*
X0266872Y0112027D01*
X0267268Y0112983D01*
X0266684Y0111839D02*
X0269568Y0111839D01*
X0269568Y0109440D02*
X0264285Y0109440D01*
X0261887Y0107042D02*
X0269568Y0107042D01*
X0269568Y0104643D02*
X0259488Y0104643D01*
X0257090Y0102245D02*
X0269568Y0102245D01*
X0269568Y0099846D02*
X0254691Y0099846D01*
X0244793Y0097448D02*
X0269568Y0097448D01*
X0269568Y0095049D02*
X0242394Y0095049D01*
X0239996Y0092651D02*
X0269568Y0092651D01*
X0269568Y0090252D02*
X0245338Y0090252D01*
X0245768Y0087854D02*
X0269568Y0087854D01*
X0269568Y0085455D02*
X0244768Y0085455D01*
X0244768Y0083057D02*
X0269568Y0083057D01*
X0269568Y0080658D02*
X0244768Y0080658D01*
X0244768Y0078260D02*
X0244815Y0078260D01*
X0249520Y0078260D02*
X0249815Y0078260D01*
X0254520Y0078260D02*
X0269568Y0078260D01*
X0269568Y0075861D02*
X0255149Y0075861D01*
X0255149Y0073463D02*
X0270529Y0073463D01*
X0271729Y0071064D02*
X0254797Y0071064D01*
X0249768Y0068666D02*
X0273448Y0068666D01*
X0278615Y0066267D02*
X0250768Y0066267D01*
X0250128Y0063869D02*
X0278615Y0063869D01*
X0278615Y0061470D02*
X0241032Y0061470D01*
X0240266Y0059072D02*
X0279466Y0059072D01*
X0282324Y0056673D02*
X0254571Y0056673D01*
X0252168Y0056673D02*
X0252168Y0056673D01*
X0252168Y0054275D02*
X0252168Y0054275D01*
X0252168Y0051876D02*
X0252168Y0051876D01*
X0252168Y0049478D02*
X0252168Y0049478D01*
X0255456Y0049478D02*
X0291028Y0049478D01*
X0288063Y0051876D02*
X0255549Y0051876D01*
X0255549Y0054275D02*
X0285176Y0054275D01*
X0305899Y0047079D02*
X0249768Y0047079D01*
X0252164Y0044681D02*
X0305899Y0044681D01*
X0305899Y0042282D02*
X0254563Y0042282D01*
X0249764Y0056673D02*
X0214768Y0056673D01*
X0214768Y0059072D02*
X0234070Y0059072D01*
X0233568Y0061470D02*
X0214768Y0061470D01*
X0218719Y0063869D02*
X0234945Y0063869D01*
X0239041Y0066267D02*
X0223571Y0066267D01*
X0224768Y0068666D02*
X0239768Y0068666D01*
X0243527Y0063965D02*
X0243527Y0063965D01*
X0243431Y0063869D02*
X0244208Y0063869D01*
X0232168Y0069961D02*
X0232168Y0074523D01*
X0232168Y0074523D01*
X0232168Y0069961D01*
X0232168Y0071064D02*
X0232168Y0071064D01*
X0232168Y0073463D02*
X0232168Y0073463D01*
X0232168Y0075861D02*
X0232168Y0075861D01*
X0232168Y0078260D02*
X0232168Y0078260D01*
X0224568Y0085455D02*
X0220009Y0085455D01*
X0221330Y0087854D02*
X0224568Y0087854D01*
X0224568Y0090252D02*
X0220947Y0090252D01*
X0218023Y0092651D02*
X0225142Y0092651D01*
X0227540Y0095049D02*
X0205710Y0095049D01*
X0205710Y0095290D02*
X0205560Y0095849D01*
X0205271Y0096351D01*
X0204861Y0096760D01*
X0204359Y0097050D01*
X0203800Y0097200D01*
X0202010Y0097200D01*
X0200221Y0097200D01*
X0199661Y0097050D01*
X0199159Y0096760D01*
X0198750Y0096351D01*
X0198460Y0095849D01*
X0198310Y0095290D01*
X0198310Y0092000D01*
X0198310Y0088710D01*
X0198460Y0088151D01*
X0198750Y0087649D01*
X0199159Y0087240D01*
X0199661Y0086950D01*
X0200221Y0086800D01*
X0202010Y0086800D01*
X0202010Y0092000D01*
X0202010Y0092000D01*
X0198310Y0092000D01*
X0202010Y0092000D01*
X0202010Y0097200D01*
X0202010Y0092000D01*
X0202010Y0092000D01*
X0202010Y0092000D01*
X0202010Y0086800D01*
X0203800Y0086800D01*
X0204359Y0086950D01*
X0204861Y0087240D01*
X0205271Y0087649D01*
X0205560Y0088151D01*
X0205710Y0088710D01*
X0205710Y0092000D01*
X0205710Y0095290D01*
X0205710Y0092651D02*
X0216312Y0092651D01*
X0212739Y0090252D02*
X0205710Y0090252D01*
X0205710Y0092000D02*
X0202010Y0092000D01*
X0205710Y0092000D01*
X0202010Y0092000D02*
X0202010Y0092000D01*
X0202010Y0092651D02*
X0202010Y0092651D01*
X0202010Y0095049D02*
X0202010Y0095049D01*
X0198310Y0095049D02*
X0190310Y0095049D01*
X0190310Y0095746D02*
X0189410Y0096646D01*
X0189410Y0099848D01*
X0191027Y0101465D01*
X0191702Y0102141D01*
X0192068Y0103023D01*
X0192068Y0136477D01*
X0191702Y0137359D01*
X0191362Y0137700D01*
X0191913Y0137700D01*
X0192968Y0138754D01*
X0192968Y0146246D01*
X0192068Y0147146D01*
X0192068Y0159854D01*
X0192968Y0160754D01*
X0192968Y0168246D01*
X0192068Y0169146D01*
X0192068Y0170006D01*
X0193527Y0171465D01*
X0194202Y0172141D01*
X0194568Y0173023D01*
X0194568Y0181477D01*
X0194202Y0182359D01*
X0189468Y0187094D01*
X0189468Y0190488D01*
X0188856Y0191100D01*
X0191174Y0191100D01*
X0194768Y0187506D01*
X0194768Y0160523D01*
X0195133Y0159641D01*
X0195808Y0158965D01*
X0207506Y0147268D01*
X0207017Y0147550D01*
X0206457Y0147700D01*
X0204668Y0147700D01*
X0204668Y0142500D01*
X0208368Y0142500D01*
X0208368Y0145790D01*
X0208218Y0146349D01*
X0207935Y0146838D01*
X0214768Y0140006D01*
X0214768Y0134146D01*
X0213868Y0133246D01*
X0213868Y0125754D01*
X0214768Y0124854D01*
X0214768Y0112146D01*
X0213868Y0111246D01*
X0213868Y0103754D01*
X0214922Y0102700D01*
X0219413Y0102700D01*
X0220468Y0103754D01*
X0220468Y0111246D01*
X0219568Y0112146D01*
X0219568Y0124854D01*
X0220468Y0125754D01*
X0220468Y0133246D01*
X0219568Y0134146D01*
X0219568Y0141477D01*
X0219202Y0142359D01*
X0201830Y0159732D01*
X0202319Y0159450D01*
X0202878Y0159300D01*
X0204668Y0159300D01*
X0206457Y0159300D01*
X0207017Y0159450D01*
X0207519Y0159740D01*
X0207928Y0160149D01*
X0208218Y0160651D01*
X0208368Y0161210D01*
X0208368Y0164500D01*
X0208368Y0167790D01*
X0208218Y0168349D01*
X0207928Y0168851D01*
X0207519Y0169260D01*
X0207017Y0169550D01*
X0206457Y0169700D01*
X0204668Y0169700D01*
X0204668Y0164500D01*
X0208368Y0164500D01*
X0204668Y0164500D01*
X0204668Y0164500D01*
X0204668Y0164500D01*
X0204668Y0159300D01*
X0204668Y0164500D01*
X0204668Y0164500D01*
X0204668Y0169700D01*
X0202878Y0169700D01*
X0202319Y0169550D01*
X0201817Y0169260D01*
X0201407Y0168851D01*
X0201118Y0168349D01*
X0200968Y0167790D01*
X0200968Y0164500D01*
X0200968Y0161210D01*
X0201118Y0160651D01*
X0201400Y0160162D01*
X0199568Y0161994D01*
X0199568Y0188977D01*
X0199202Y0189859D01*
X0194202Y0194859D01*
X0193527Y0195535D01*
X0192645Y0195900D01*
X0179190Y0195900D01*
X0178308Y0195535D01*
X0176074Y0193300D01*
X0172679Y0193300D01*
X0169868Y0190488D01*
X0169868Y0186512D01*
X0172679Y0183700D01*
X0176656Y0183700D01*
X0179468Y0186512D01*
X0179468Y0189906D01*
X0179868Y0190306D01*
X0179868Y0186512D01*
X0182679Y0183700D01*
X0186074Y0183700D01*
X0186474Y0183300D01*
X0182679Y0183300D01*
X0179868Y0180488D01*
X0179868Y0176694D01*
X0179468Y0177094D01*
X0179468Y0180488D01*
X0176656Y0183300D01*
X0172679Y0183300D01*
X0169868Y0180488D01*
X0169868Y0176512D01*
X0172679Y0173700D01*
X0176074Y0173700D01*
X0179768Y0170006D01*
X0179768Y0134146D01*
X0178868Y0133246D01*
X0178868Y0125754D01*
X0179768Y0124854D01*
X0179768Y0112146D01*
X0178868Y0111246D01*
X0178868Y0103754D01*
X0179922Y0102700D01*
X0184413Y0102700D01*
X0185468Y0103754D01*
X0185468Y0111246D01*
X0184568Y0112146D01*
X0184568Y0124854D01*
X0185468Y0125754D01*
X0185468Y0133246D01*
X0184568Y0134146D01*
X0184568Y0135206D01*
X0185808Y0133965D01*
X0186690Y0133600D01*
X0187268Y0133600D01*
X0187268Y0104494D01*
X0184976Y0102202D01*
X0184610Y0101320D01*
X0184610Y0096646D01*
X0183710Y0095746D01*
X0183710Y0088254D01*
X0184765Y0087200D01*
X0189256Y0087200D01*
X0190310Y0088254D01*
X0190310Y0095746D01*
X0189410Y0097448D02*
X0229939Y0097448D01*
X0232337Y0099846D02*
X0189410Y0099846D01*
X0191746Y0102245D02*
X0234736Y0102245D01*
X0234517Y0102450D02*
X0235019Y0102740D01*
X0235428Y0103149D01*
X0235718Y0103651D01*
X0235868Y0104210D01*
X0235868Y0107500D01*
X0235868Y0110790D01*
X0235718Y0111349D01*
X0235428Y0111851D01*
X0235019Y0112260D01*
X0234517Y0112550D01*
X0233957Y0112700D01*
X0232168Y0112700D01*
X0232168Y0107500D01*
X0235868Y0107500D01*
X0232168Y0107500D01*
X0232168Y0107500D01*
X0232168Y0107500D01*
X0232168Y0102300D01*
X0233957Y0102300D01*
X0234517Y0102450D01*
X0232168Y0102300D02*
X0230378Y0102300D01*
X0229819Y0102450D01*
X0229317Y0102740D01*
X0228907Y0103149D01*
X0228618Y0103651D01*
X0228468Y0104210D01*
X0228468Y0107500D01*
X0232168Y0107500D01*
X0232168Y0107500D01*
X0232168Y0112700D01*
X0230378Y0112700D01*
X0229819Y0112550D01*
X0229317Y0112260D01*
X0228907Y0111851D01*
X0228618Y0111349D01*
X0228468Y0110790D01*
X0228468Y0107500D01*
X0232168Y0107500D01*
X0232168Y0102300D01*
X0232168Y0104643D02*
X0232168Y0104643D01*
X0232168Y0107042D02*
X0232168Y0107042D01*
X0232168Y0107500D02*
X0232168Y0107500D01*
X0232168Y0109440D02*
X0232168Y0109440D01*
X0232168Y0111839D02*
X0232168Y0111839D01*
X0235435Y0111839D02*
X0249330Y0111839D01*
X0251728Y0114237D02*
X0219568Y0114237D01*
X0219568Y0116636D02*
X0254127Y0116636D01*
X0256525Y0119034D02*
X0219568Y0119034D01*
X0219568Y0121433D02*
X0257068Y0121433D01*
X0257068Y0123832D02*
X0219568Y0123832D01*
X0220468Y0126230D02*
X0228468Y0126230D01*
X0228468Y0126210D02*
X0228618Y0125651D01*
X0228907Y0125149D01*
X0229317Y0124740D01*
X0229819Y0124450D01*
X0230378Y0124300D01*
X0232168Y0124300D01*
X0233957Y0124300D01*
X0234517Y0124450D01*
X0235019Y0124740D01*
X0235428Y0125149D01*
X0235718Y0125651D01*
X0235868Y0126210D01*
X0235868Y0129500D01*
X0235868Y0132790D01*
X0235718Y0133349D01*
X0235428Y0133851D01*
X0235019Y0134260D01*
X0234517Y0134550D01*
X0233957Y0134700D01*
X0232168Y0134700D01*
X0232168Y0129500D01*
X0235868Y0129500D01*
X0232168Y0129500D01*
X0232168Y0129500D01*
X0232168Y0129500D01*
X0232168Y0124300D01*
X0232168Y0129500D01*
X0232168Y0129500D01*
X0232168Y0134700D01*
X0230378Y0134700D01*
X0229819Y0134550D01*
X0229317Y0134260D01*
X0228907Y0133851D01*
X0228618Y0133349D01*
X0228468Y0132790D01*
X0228468Y0129500D01*
X0228468Y0126210D01*
X0228468Y0128629D02*
X0220468Y0128629D01*
X0220468Y0131027D02*
X0228468Y0131027D01*
X0228468Y0129500D02*
X0232168Y0129500D01*
X0228468Y0129500D01*
X0232168Y0129500D02*
X0232168Y0129500D01*
X0232168Y0128629D02*
X0232168Y0128629D01*
X0232168Y0131027D02*
X0232168Y0131027D01*
X0232168Y0133426D02*
X0232168Y0133426D01*
X0235674Y0133426D02*
X0238568Y0133426D01*
X0238568Y0132784D02*
X0239116Y0131461D01*
X0240128Y0130448D01*
X0241452Y0129900D01*
X0242884Y0129900D01*
X0244051Y0130384D01*
X0243568Y0129216D01*
X0243568Y0127784D01*
X0244116Y0126461D01*
X0245128Y0125448D01*
X0246452Y0124900D01*
X0247884Y0124900D01*
X0249207Y0125448D01*
X0250220Y0126461D01*
X0250768Y0127784D01*
X0250768Y0129216D01*
X0250220Y0130539D01*
X0249768Y0130991D01*
X0249768Y0163278D01*
X0250137Y0163064D01*
X0250697Y0162914D01*
X0252168Y0162914D01*
X0253638Y0162914D01*
X0254198Y0163064D01*
X0254700Y0163354D01*
X0255109Y0163763D01*
X0255399Y0164265D01*
X0255549Y0164825D01*
X0255549Y0167476D01*
X0252168Y0167476D01*
X0252168Y0162914D01*
X0252168Y0167476D01*
X0252168Y0167476D01*
X0252168Y0167476D01*
X0255549Y0167476D01*
X0255549Y0170128D01*
X0255399Y0170688D01*
X0255109Y0171189D01*
X0254700Y0171599D01*
X0254198Y0171889D01*
X0253638Y0172039D01*
X0252168Y0172039D01*
X0252168Y0167477D01*
X0252168Y0167477D01*
X0252168Y0172039D01*
X0250697Y0172039D01*
X0250137Y0171889D01*
X0249636Y0171599D01*
X0249385Y0171348D01*
X0249094Y0171639D01*
X0245241Y0171639D01*
X0244668Y0171065D01*
X0244094Y0171639D01*
X0240241Y0171639D01*
X0239668Y0171065D01*
X0239094Y0171639D01*
X0235241Y0171639D01*
X0234668Y0171065D01*
X0234094Y0171639D01*
X0230241Y0171639D01*
X0229668Y0171065D01*
X0229094Y0171639D01*
X0225241Y0171639D01*
X0224668Y0171065D01*
X0224094Y0171639D01*
X0220241Y0171639D01*
X0219668Y0171065D01*
X0219094Y0171639D01*
X0215241Y0171639D01*
X0214187Y0170584D01*
X0214187Y0164369D01*
X0214568Y0163987D01*
X0214568Y0160991D01*
X0214116Y0160539D01*
X0213568Y0159216D01*
X0213568Y0157784D01*
X0214116Y0156461D01*
X0215128Y0155448D01*
X0216452Y0154900D01*
X0217884Y0154900D01*
X0219051Y0155384D01*
X0218568Y0154216D01*
X0218568Y0152784D01*
X0219116Y0151461D01*
X0220128Y0150448D01*
X0221452Y0149900D01*
X0222884Y0149900D01*
X0224051Y0150384D01*
X0223568Y0149216D01*
X0223568Y0147784D01*
X0224116Y0146461D01*
X0225128Y0145448D01*
X0226452Y0144900D01*
X0227884Y0144900D01*
X0229051Y0145384D01*
X0228568Y0144216D01*
X0228568Y0142784D01*
X0229116Y0141461D01*
X0230128Y0140448D01*
X0231452Y0139900D01*
X0232884Y0139900D01*
X0234051Y0140384D01*
X0233568Y0139216D01*
X0233568Y0137784D01*
X0234116Y0136461D01*
X0235128Y0135448D01*
X0236452Y0134900D01*
X0237884Y0134900D01*
X0239051Y0135384D01*
X0238568Y0134216D01*
X0238568Y0132784D01*
X0239549Y0131027D02*
X0235868Y0131027D01*
X0235868Y0128629D02*
X0243568Y0128629D01*
X0244347Y0126230D02*
X0235868Y0126230D01*
X0232168Y0126230D02*
X0232168Y0126230D01*
X0228662Y0133426D02*
X0220288Y0133426D01*
X0219568Y0135824D02*
X0234752Y0135824D01*
X0233568Y0138223D02*
X0219568Y0138223D01*
X0219568Y0140621D02*
X0229955Y0140621D01*
X0228568Y0143020D02*
X0218542Y0143020D01*
X0216144Y0145418D02*
X0225201Y0145418D01*
X0223568Y0147817D02*
X0213745Y0147817D01*
X0211347Y0150215D02*
X0220691Y0150215D01*
X0223645Y0150215D02*
X0223982Y0150215D01*
X0218638Y0152614D02*
X0208948Y0152614D01*
X0204558Y0150215D02*
X0192068Y0150215D01*
X0192068Y0147817D02*
X0206957Y0147817D01*
X0204668Y0147700D02*
X0202878Y0147700D01*
X0202319Y0147550D01*
X0201817Y0147260D01*
X0201407Y0146851D01*
X0201118Y0146349D01*
X0200968Y0145790D01*
X0200968Y0142500D01*
X0200968Y0139210D01*
X0201118Y0138651D01*
X0201407Y0138149D01*
X0201817Y0137740D01*
X0202319Y0137450D01*
X0202878Y0137300D01*
X0204668Y0137300D01*
X0206457Y0137300D01*
X0207017Y0137450D01*
X0207519Y0137740D01*
X0207928Y0138149D01*
X0208218Y0138651D01*
X0208368Y0139210D01*
X0208368Y0142500D01*
X0204668Y0142500D01*
X0204668Y0142500D01*
X0204668Y0137300D01*
X0204668Y0142500D01*
X0204668Y0142500D01*
X0204668Y0142500D01*
X0204668Y0147700D01*
X0204668Y0145418D02*
X0204668Y0145418D01*
X0204668Y0143020D02*
X0204668Y0143020D01*
X0204668Y0142500D02*
X0204668Y0142500D01*
X0200968Y0142500D01*
X0204668Y0142500D01*
X0204668Y0140621D02*
X0204668Y0140621D01*
X0204668Y0138223D02*
X0204668Y0138223D01*
X0207971Y0138223D02*
X0214768Y0138223D01*
X0214768Y0135824D02*
X0192068Y0135824D01*
X0192068Y0133426D02*
X0193662Y0133426D01*
X0193618Y0133349D02*
X0193468Y0132790D01*
X0193468Y0129500D01*
X0193468Y0126210D01*
X0193618Y0125651D01*
X0193907Y0125149D01*
X0194317Y0124740D01*
X0194819Y0124450D01*
X0195378Y0124300D01*
X0197168Y0124300D01*
X0198957Y0124300D01*
X0199517Y0124450D01*
X0200019Y0124740D01*
X0200428Y0125149D01*
X0200718Y0125651D01*
X0200868Y0126210D01*
X0200868Y0129500D01*
X0200868Y0132790D01*
X0200718Y0133349D01*
X0200428Y0133851D01*
X0200019Y0134260D01*
X0199517Y0134550D01*
X0198957Y0134700D01*
X0197168Y0134700D01*
X0197168Y0129500D01*
X0200868Y0129500D01*
X0197168Y0129500D01*
X0197168Y0129500D01*
X0197168Y0129500D01*
X0197168Y0124300D01*
X0197168Y0129500D01*
X0197168Y0129500D01*
X0197168Y0134700D01*
X0195378Y0134700D01*
X0194819Y0134550D01*
X0194317Y0134260D01*
X0193907Y0133851D01*
X0193618Y0133349D01*
X0193468Y0131027D02*
X0192068Y0131027D01*
X0193468Y0129500D02*
X0197168Y0129500D01*
X0193468Y0129500D01*
X0193468Y0128629D02*
X0192068Y0128629D01*
X0192068Y0126230D02*
X0193468Y0126230D01*
X0192068Y0123832D02*
X0214768Y0123832D01*
X0214768Y0121433D02*
X0192068Y0121433D01*
X0192068Y0119034D02*
X0214768Y0119034D01*
X0214768Y0116636D02*
X0192068Y0116636D01*
X0192068Y0114237D02*
X0214768Y0114237D01*
X0214461Y0111839D02*
X0200435Y0111839D01*
X0200428Y0111851D02*
X0200019Y0112260D01*
X0199517Y0112550D01*
X0198957Y0112700D01*
X0197168Y0112700D01*
X0197168Y0107500D01*
X0200868Y0107500D01*
X0200868Y0110790D01*
X0200718Y0111349D01*
X0200428Y0111851D01*
X0200868Y0109440D02*
X0213868Y0109440D01*
X0213868Y0107042D02*
X0200868Y0107042D01*
X0200868Y0107500D02*
X0197168Y0107500D01*
X0197168Y0107500D01*
X0197168Y0107500D01*
X0197168Y0102300D01*
X0198957Y0102300D01*
X0199517Y0102450D01*
X0200019Y0102740D01*
X0200428Y0103149D01*
X0200718Y0103651D01*
X0200868Y0104210D01*
X0200868Y0107500D01*
X0200868Y0104643D02*
X0213868Y0104643D01*
X0220468Y0104643D02*
X0228468Y0104643D01*
X0228468Y0107042D02*
X0220468Y0107042D01*
X0220468Y0109440D02*
X0228468Y0109440D01*
X0228900Y0111839D02*
X0219874Y0111839D01*
X0235868Y0109440D02*
X0241931Y0109440D01*
X0239533Y0107042D02*
X0235868Y0107042D01*
X0235868Y0104643D02*
X0237134Y0104643D01*
X0267268Y0119034D02*
X0269568Y0119034D01*
X0269568Y0121433D02*
X0267268Y0121433D01*
X0267268Y0123832D02*
X0269568Y0123832D01*
X0269568Y0126230D02*
X0267268Y0126230D01*
X0267268Y0128629D02*
X0269448Y0128629D01*
X0268568Y0131027D02*
X0267268Y0131027D01*
X0267268Y0133426D02*
X0269502Y0133426D01*
X0269568Y0135824D02*
X0267268Y0135824D01*
X0267268Y0138223D02*
X0269568Y0138223D01*
X0269568Y0140621D02*
X0267268Y0140621D01*
X0267268Y0143020D02*
X0270510Y0143020D01*
X0272909Y0145418D02*
X0267268Y0145418D01*
X0267268Y0147817D02*
X0267946Y0147817D01*
X0271390Y0147817D02*
X0275307Y0147817D01*
X0257068Y0147817D02*
X0249768Y0147817D01*
X0249768Y0150215D02*
X0257068Y0150215D01*
X0257068Y0152614D02*
X0249768Y0152614D01*
X0249768Y0155012D02*
X0257068Y0155012D01*
X0257068Y0157411D02*
X0249768Y0157411D01*
X0249768Y0159809D02*
X0257068Y0159809D01*
X0257068Y0162208D02*
X0249768Y0162208D01*
X0252168Y0164606D02*
X0252168Y0164606D01*
X0252168Y0167005D02*
X0252168Y0167005D01*
X0252168Y0167476D02*
X0250149Y0167476D01*
X0250149Y0167476D01*
X0252168Y0167476D01*
X0252168Y0167476D01*
X0252168Y0169403D02*
X0252168Y0169403D01*
X0252168Y0171802D02*
X0252168Y0171802D01*
X0254348Y0171802D02*
X0261103Y0171802D01*
X0260859Y0169403D02*
X0261433Y0169403D01*
X0258477Y0169403D02*
X0255549Y0169403D01*
X0255549Y0167005D02*
X0256187Y0167005D01*
X0256348Y0164606D02*
X0255490Y0164606D01*
X0249987Y0171802D02*
X0199568Y0171802D01*
X0199568Y0174200D02*
X0230234Y0174200D01*
X0227036Y0176599D02*
X0199568Y0176599D01*
X0199568Y0178997D02*
X0200992Y0178997D01*
X0200506Y0181396D02*
X0199568Y0181396D01*
X0199568Y0183794D02*
X0201576Y0183794D01*
X0201668Y0186193D02*
X0199568Y0186193D01*
X0194768Y0186193D02*
X0190369Y0186193D01*
X0192768Y0183794D02*
X0194768Y0183794D01*
X0194768Y0181396D02*
X0194568Y0181396D01*
X0194568Y0178997D02*
X0194768Y0178997D01*
X0194768Y0176599D02*
X0194568Y0176599D01*
X0194568Y0174200D02*
X0194768Y0174200D01*
X0194768Y0171802D02*
X0193864Y0171802D01*
X0194768Y0169403D02*
X0192068Y0169403D01*
X0192968Y0167005D02*
X0194768Y0167005D01*
X0194768Y0164606D02*
X0192968Y0164606D01*
X0192968Y0162208D02*
X0194768Y0162208D01*
X0195063Y0159809D02*
X0192068Y0159809D01*
X0192068Y0157411D02*
X0197363Y0157411D01*
X0199761Y0155012D02*
X0192068Y0155012D01*
X0192068Y0152614D02*
X0202160Y0152614D01*
X0206550Y0155012D02*
X0216181Y0155012D01*
X0218155Y0155012D02*
X0218897Y0155012D01*
X0213722Y0157411D02*
X0204151Y0157411D01*
X0204668Y0159809D02*
X0204668Y0159809D01*
X0204668Y0162208D02*
X0204668Y0162208D01*
X0204668Y0164500D02*
X0200968Y0164500D01*
X0204668Y0164500D01*
X0204668Y0164500D01*
X0204668Y0164606D02*
X0204668Y0164606D01*
X0204668Y0167005D02*
X0204668Y0167005D01*
X0204668Y0169403D02*
X0204668Y0169403D01*
X0207271Y0169403D02*
X0214187Y0169403D01*
X0214187Y0167005D02*
X0208368Y0167005D01*
X0208368Y0164606D02*
X0214187Y0164606D01*
X0214568Y0162208D02*
X0208368Y0162208D01*
X0207588Y0159809D02*
X0213813Y0159809D01*
X0200968Y0162208D02*
X0199568Y0162208D01*
X0199568Y0164606D02*
X0200968Y0164606D01*
X0200968Y0167005D02*
X0199568Y0167005D01*
X0199568Y0169403D02*
X0202064Y0169403D01*
X0208343Y0178997D02*
X0223838Y0178997D01*
X0220595Y0181396D02*
X0208830Y0181396D01*
X0207760Y0183794D02*
X0219559Y0183794D01*
X0224768Y0184800D02*
X0224768Y0185835D01*
X0225241Y0185361D01*
X0229094Y0185361D01*
X0229385Y0185652D01*
X0229636Y0185401D01*
X0230137Y0185111D01*
X0230697Y0184961D01*
X0232168Y0184961D01*
X0233638Y0184961D01*
X0234198Y0185111D01*
X0234700Y0185401D01*
X0234951Y0185652D01*
X0235241Y0185361D01*
X0239094Y0185361D01*
X0239668Y0185935D01*
X0240241Y0185361D01*
X0243942Y0185361D01*
X0243061Y0183600D01*
X0239659Y0183600D01*
X0239207Y0184052D01*
X0237884Y0184600D01*
X0236452Y0184600D01*
X0235128Y0184052D01*
X0234116Y0183039D01*
X0233568Y0181716D01*
X0233568Y0180284D01*
X0234116Y0178961D01*
X0234477Y0178600D01*
X0233034Y0178600D01*
X0224768Y0184800D01*
X0226109Y0183794D02*
X0234871Y0183794D01*
X0233568Y0181396D02*
X0229307Y0181396D01*
X0232505Y0178997D02*
X0234101Y0178997D01*
X0239465Y0183794D02*
X0243158Y0183794D01*
X0247772Y0181396D02*
X0256681Y0181396D01*
X0256068Y0183794D02*
X0248972Y0183794D01*
X0254926Y0186193D02*
X0257068Y0186193D01*
X0262268Y0186193D02*
X0280660Y0186193D01*
X0278606Y0183794D02*
X0263268Y0183794D01*
X0262655Y0181396D02*
X0278615Y0181396D01*
X0278076Y0178997D02*
X0246342Y0178997D01*
X0232168Y0184961D02*
X0232168Y0189523D01*
X0232168Y0189523D01*
X0232168Y0184961D01*
X0232168Y0186193D02*
X0232168Y0186193D01*
X0232168Y0188591D02*
X0232168Y0188591D01*
X0232168Y0189524D02*
X0232168Y0194086D01*
X0232168Y0189524D01*
X0232168Y0189524D01*
X0232168Y0190990D02*
X0232168Y0190990D01*
X0232168Y0193388D02*
X0232168Y0193388D01*
X0232168Y0194086D02*
X0230697Y0194086D01*
X0230137Y0193936D01*
X0229636Y0193646D01*
X0229568Y0193578D01*
X0229568Y0196477D01*
X0229202Y0197359D01*
X0228268Y0198294D01*
X0228268Y0199216D01*
X0227720Y0200539D01*
X0227159Y0201100D01*
X0236374Y0201100D01*
X0235133Y0199859D01*
X0234768Y0198977D01*
X0234768Y0193578D01*
X0234700Y0193646D01*
X0234198Y0193936D01*
X0233638Y0194086D01*
X0232168Y0194086D01*
X0229568Y0195787D02*
X0234768Y0195787D01*
X0234768Y0198185D02*
X0228376Y0198185D01*
X0227675Y0200584D02*
X0235858Y0200584D01*
X0244768Y0193388D02*
X0244944Y0193388D01*
X0247555Y0195787D02*
X0261780Y0195787D01*
X0264688Y0193388D02*
X0254392Y0193388D01*
X0249944Y0193388D02*
X0249392Y0193388D01*
X0260451Y0190990D02*
X0272087Y0190990D01*
X0271068Y0193388D02*
X0269647Y0193388D01*
X0270768Y0195787D02*
X0271863Y0195787D01*
X0271588Y0198185D02*
X0270073Y0198185D01*
X0269190Y0200584D02*
X0263814Y0200584D01*
X0271181Y0205381D02*
X0281195Y0205381D01*
X0281280Y0205466D02*
X0280701Y0204888D01*
X0280220Y0204225D01*
X0279849Y0203496D01*
X0279596Y0202718D01*
X0279468Y0201909D01*
X0279468Y0198500D01*
X0279468Y0195091D01*
X0279596Y0194282D01*
X0279849Y0193504D01*
X0280220Y0192775D01*
X0280701Y0192112D01*
X0281280Y0191534D01*
X0281942Y0191053D01*
X0282672Y0190681D01*
X0283450Y0190428D01*
X0284258Y0190300D01*
X0284668Y0190300D01*
X0284668Y0198500D01*
X0284668Y0198500D01*
X0284668Y0198500D01*
X0284668Y0206700D01*
X0284258Y0206700D01*
X0283450Y0206572D01*
X0282672Y0206319D01*
X0281942Y0205947D01*
X0281280Y0205466D01*
X0279682Y0202982D02*
X0273579Y0202982D01*
X0275978Y0200584D02*
X0279468Y0200584D01*
X0279468Y0198500D02*
X0284668Y0198500D01*
X0279468Y0198500D01*
X0279468Y0198185D02*
X0277068Y0198185D01*
X0277472Y0195787D02*
X0279468Y0195787D01*
X0279908Y0193388D02*
X0278268Y0193388D01*
X0277249Y0190990D02*
X0282065Y0190990D01*
X0284668Y0190990D02*
X0284668Y0190990D01*
X0284668Y0193388D02*
X0284668Y0193388D01*
X0284668Y0195787D02*
X0284668Y0195787D01*
X0284668Y0198185D02*
X0284668Y0198185D01*
X0284668Y0198500D02*
X0284668Y0198500D01*
X0284668Y0200584D02*
X0284668Y0200584D01*
X0284668Y0202982D02*
X0284668Y0202982D01*
X0284668Y0205381D02*
X0284668Y0205381D01*
X0288141Y0205381D02*
X0291195Y0205381D01*
X0289682Y0202982D02*
X0289654Y0202982D01*
X0294668Y0202982D02*
X0294668Y0202982D01*
X0294668Y0200584D02*
X0294668Y0200584D01*
X0294668Y0198500D02*
X0294668Y0198500D01*
X0294668Y0198185D02*
X0294668Y0198185D01*
X0294668Y0195787D02*
X0294668Y0195787D01*
X0294668Y0193388D02*
X0294668Y0193388D01*
X0294668Y0190990D02*
X0294668Y0190990D01*
X0297270Y0190990D02*
X0302065Y0190990D01*
X0304668Y0190990D02*
X0304668Y0190990D01*
X0304668Y0193388D02*
X0304668Y0193388D01*
X0304668Y0195787D02*
X0304668Y0195787D01*
X0304668Y0198185D02*
X0304668Y0198185D01*
X0304668Y0198500D02*
X0304668Y0198500D01*
X0304668Y0200584D02*
X0304668Y0200584D01*
X0304668Y0202982D02*
X0304668Y0202982D01*
X0304668Y0205381D02*
X0304668Y0205381D01*
X0308141Y0205381D02*
X0311195Y0205381D01*
X0309682Y0202982D02*
X0309654Y0202982D01*
X0314668Y0202982D02*
X0314668Y0202982D01*
X0314668Y0200584D02*
X0314668Y0200584D01*
X0314668Y0198500D02*
X0314668Y0198500D01*
X0314668Y0198185D02*
X0314668Y0198185D01*
X0314668Y0195787D02*
X0314668Y0195787D01*
X0314668Y0193388D02*
X0314668Y0193388D01*
X0314668Y0190990D02*
X0314668Y0190990D01*
X0317270Y0190990D02*
X0335723Y0190990D01*
X0335723Y0190330D02*
X0336953Y0189100D01*
X0342195Y0189100D01*
X0343006Y0189911D01*
X0343363Y0190268D01*
X0343657Y0190561D01*
X0345118Y0189100D01*
X0349193Y0189100D01*
X0350004Y0189911D01*
X0350071Y0189978D01*
X0350949Y0189100D01*
X0355024Y0189100D01*
X0355319Y0189395D01*
X0355614Y0189100D01*
X0360857Y0189100D01*
X0361644Y0189888D01*
X0361734Y0189978D01*
X0362612Y0189100D01*
X0369022Y0189100D01*
X0369900Y0189978D01*
X0370778Y0189100D01*
X0374853Y0189100D01*
X0375663Y0189911D01*
X0376020Y0190268D01*
X0376020Y0190268D01*
X0376440Y0190687D01*
X0377250Y0191498D01*
X0377250Y0194405D01*
X0376369Y0195287D01*
X0377250Y0196168D01*
X0377250Y0197908D01*
X0376083Y0199076D01*
X0374853Y0200306D01*
X0370778Y0200306D01*
X0369967Y0199495D01*
X0369900Y0199428D01*
X0369022Y0200306D01*
X0362612Y0200306D01*
X0361734Y0199428D01*
X0360857Y0200306D01*
X0355614Y0200306D01*
X0355319Y0200011D01*
X0355024Y0200306D01*
X0350949Y0200306D01*
X0350071Y0199428D01*
X0349193Y0200306D01*
X0345118Y0200306D01*
X0344307Y0199495D01*
X0343888Y0199076D01*
X0343657Y0198844D01*
X0343363Y0199138D01*
X0342195Y0200306D01*
X0336953Y0200306D01*
X0335723Y0199076D01*
X0335723Y0190330D01*
X0343363Y0190268D02*
X0343363Y0190268D01*
X0335723Y0193388D02*
X0319428Y0193388D01*
X0319868Y0195787D02*
X0335723Y0195787D01*
X0335723Y0198185D02*
X0319868Y0198185D01*
X0319868Y0200584D02*
X0422938Y0200584D01*
X0423705Y0201912D02*
X0421901Y0198788D01*
X0420968Y0195304D01*
X0420968Y0191696D01*
X0421901Y0188212D01*
X0423705Y0185088D01*
X0426256Y0182537D01*
X0429380Y0180734D01*
X0432864Y0179800D01*
X0436471Y0179800D01*
X0439956Y0180734D01*
X0443080Y0182537D01*
X0445630Y0185088D01*
X0447434Y0188212D01*
X0448368Y0191696D01*
X0448368Y0195304D01*
X0447434Y0198788D01*
X0445630Y0201912D01*
X0443080Y0204463D01*
X0439956Y0206266D01*
X0436471Y0207200D01*
X0432864Y0207200D01*
X0429380Y0206266D01*
X0426256Y0204463D01*
X0423705Y0201912D01*
X0424775Y0202982D02*
X0319654Y0202982D01*
X0318141Y0205381D02*
X0427846Y0205381D01*
X0421740Y0198185D02*
X0412347Y0198185D01*
X0412408Y0198367D02*
X0411630Y0199923D01*
X0409979Y0200473D01*
X0407309Y0199138D01*
X0406935Y0199138D01*
X0406561Y0198764D01*
X0406088Y0198528D01*
X0405970Y0198173D01*
X0404600Y0196803D01*
X0403370Y0195573D01*
X0403370Y0193300D01*
X0402907Y0193300D01*
X0402907Y0199076D01*
X0401677Y0200306D01*
X0399937Y0200306D01*
X0398707Y0199076D01*
X0397892Y0198261D01*
X0397014Y0199138D01*
X0395847Y0200306D01*
X0391771Y0200306D01*
X0390984Y0199518D01*
X0390541Y0199076D01*
X0390310Y0198844D01*
X0390079Y0199076D01*
X0388849Y0200306D01*
X0384774Y0200306D01*
X0383963Y0199495D01*
X0383543Y0199076D01*
X0382376Y0197908D01*
X0382376Y0196168D01*
X0383606Y0194938D01*
X0385244Y0194938D01*
X0382376Y0192070D01*
X0382376Y0190330D01*
X0383606Y0189100D01*
X0390016Y0189100D01*
X0390894Y0189978D01*
X0391771Y0189100D01*
X0395847Y0189100D01*
X0396657Y0189911D01*
X0396724Y0189978D01*
X0397602Y0189100D01*
X0404012Y0189100D01*
X0404890Y0189978D01*
X0405767Y0189100D01*
X0409842Y0189100D01*
X0410630Y0189888D01*
X0411010Y0190268D01*
X0411010Y0190268D01*
X0411453Y0190710D01*
X0412240Y0191498D01*
X0412240Y0194405D01*
X0411073Y0195573D01*
X0410572Y0196074D01*
X0411857Y0196717D01*
X0412408Y0198367D01*
X0410859Y0195787D02*
X0421097Y0195787D01*
X0420968Y0193388D02*
X0412240Y0193388D01*
X0411732Y0190990D02*
X0421157Y0190990D01*
X0421800Y0188591D02*
X0293268Y0188591D01*
X0284715Y0188591D02*
X0262275Y0188591D01*
X0283815Y0181396D02*
X0291669Y0181396D01*
X0286819Y0183794D02*
X0424999Y0183794D01*
X0423067Y0186193D02*
X0292452Y0186193D01*
X0284981Y0178997D02*
X0284354Y0178997D01*
X0277446Y0176599D02*
X0272746Y0176599D01*
X0275144Y0174200D02*
X0277446Y0174200D01*
X0277543Y0171802D02*
X0284293Y0171802D01*
X0307270Y0190990D02*
X0312065Y0190990D01*
X0309908Y0193388D02*
X0309428Y0193388D01*
X0299908Y0193388D02*
X0299428Y0193388D01*
X0299654Y0202982D02*
X0299682Y0202982D01*
X0301195Y0205381D02*
X0298141Y0205381D01*
X0294668Y0205381D02*
X0294668Y0205381D01*
X0314668Y0205381D02*
X0314668Y0205381D01*
X0343888Y0199076D02*
X0343888Y0199076D01*
X0376973Y0198185D02*
X0382653Y0198185D01*
X0383543Y0199076D02*
X0383543Y0199076D01*
X0382757Y0195787D02*
X0376869Y0195787D01*
X0377250Y0193388D02*
X0383694Y0193388D01*
X0382376Y0190990D02*
X0376742Y0190990D01*
X0390541Y0199076D02*
X0390541Y0199076D01*
X0402907Y0198185D02*
X0405974Y0198185D01*
X0403584Y0195787D02*
X0402907Y0195787D01*
X0402907Y0193388D02*
X0403370Y0193388D01*
X0419213Y0181396D02*
X0428233Y0181396D01*
X0431260Y0178997D02*
X0451169Y0178997D01*
X0451169Y0176599D02*
X0431889Y0176599D01*
X0431889Y0174200D02*
X0433887Y0174200D01*
X0434264Y0174577D02*
X0432913Y0173227D01*
X0432183Y0171463D01*
X0432183Y0169553D01*
X0432913Y0167789D01*
X0434264Y0166439D01*
X0436028Y0165708D01*
X0443937Y0165708D01*
X0445702Y0166439D01*
X0447052Y0167789D01*
X0447783Y0169553D01*
X0447783Y0171463D01*
X0447052Y0173227D01*
X0445702Y0174577D01*
X0443937Y0175308D01*
X0436028Y0175308D01*
X0434264Y0174577D01*
X0432323Y0171802D02*
X0429768Y0171802D01*
X0429248Y0169403D02*
X0432245Y0169403D01*
X0433698Y0167005D02*
X0426849Y0167005D01*
X0425875Y0164606D02*
X0423460Y0164606D01*
X0430366Y0164606D02*
X0434334Y0164606D01*
X0434264Y0164577D02*
X0432913Y0163227D01*
X0432183Y0161463D01*
X0432183Y0159553D01*
X0432913Y0157789D01*
X0434264Y0156439D01*
X0436028Y0155708D01*
X0443937Y0155708D01*
X0445702Y0156439D01*
X0447052Y0157789D01*
X0447783Y0159553D01*
X0447783Y0161463D01*
X0447052Y0163227D01*
X0445702Y0164577D01*
X0443937Y0165308D01*
X0436028Y0165308D01*
X0434264Y0164577D01*
X0432491Y0162208D02*
X0431889Y0162208D01*
X0431889Y0159809D02*
X0432183Y0159809D01*
X0433292Y0157411D02*
X0430407Y0157411D01*
X0427810Y0155012D02*
X0435314Y0155012D01*
X0436028Y0155308D02*
X0434264Y0154577D01*
X0432913Y0153227D01*
X0432183Y0151463D01*
X0432183Y0149553D01*
X0432913Y0147789D01*
X0434264Y0146439D01*
X0436028Y0145708D01*
X0443937Y0145708D01*
X0445702Y0146439D01*
X0447052Y0147789D01*
X0447783Y0149553D01*
X0447783Y0151463D01*
X0447052Y0153227D01*
X0445702Y0154577D01*
X0443937Y0155308D01*
X0436028Y0155308D01*
X0432659Y0152614D02*
X0427423Y0152614D01*
X0428696Y0150215D02*
X0432183Y0150215D01*
X0431889Y0147817D02*
X0432902Y0147817D01*
X0431889Y0145418D02*
X0451169Y0145418D01*
X0451169Y0143020D02*
X0447138Y0143020D01*
X0447052Y0143227D02*
X0445702Y0144577D01*
X0443937Y0145308D01*
X0436028Y0145308D01*
X0434264Y0144577D01*
X0432913Y0143227D01*
X0432183Y0141463D01*
X0432183Y0139553D01*
X0432913Y0137789D01*
X0434264Y0136439D01*
X0436028Y0135708D01*
X0443937Y0135708D01*
X0445702Y0136439D01*
X0447052Y0137789D01*
X0447783Y0139553D01*
X0447783Y0141463D01*
X0447052Y0143227D01*
X0447783Y0140621D02*
X0451169Y0140621D01*
X0451169Y0138223D02*
X0447232Y0138223D01*
X0444218Y0135824D02*
X0451169Y0135824D01*
X0451169Y0133426D02*
X0446853Y0133426D01*
X0447783Y0131027D02*
X0451169Y0131027D01*
X0451169Y0128629D02*
X0447400Y0128629D01*
X0445198Y0126230D02*
X0451169Y0126230D01*
X0451169Y0123832D02*
X0424629Y0123832D01*
X0427027Y0126230D02*
X0434767Y0126230D01*
X0432566Y0128629D02*
X0431674Y0128629D01*
X0431652Y0133426D02*
X0433112Y0133426D01*
X0435747Y0135824D02*
X0423615Y0135824D01*
X0423615Y0138223D02*
X0432734Y0138223D01*
X0432183Y0140621D02*
X0423615Y0140621D01*
X0424371Y0143020D02*
X0424964Y0143020D01*
X0431277Y0143020D02*
X0432828Y0143020D01*
X0447063Y0147817D02*
X0451169Y0147817D01*
X0451169Y0150215D02*
X0447783Y0150215D01*
X0447306Y0152614D02*
X0451169Y0152614D01*
X0451169Y0155012D02*
X0444651Y0155012D01*
X0446674Y0157411D02*
X0451169Y0157411D01*
X0451169Y0159809D02*
X0447783Y0159809D01*
X0447474Y0162208D02*
X0451169Y0162208D01*
X0451169Y0164606D02*
X0445631Y0164606D01*
X0446268Y0167005D02*
X0451169Y0167005D01*
X0451169Y0169403D02*
X0447721Y0169403D01*
X0447642Y0171802D02*
X0451169Y0171802D01*
X0451169Y0174200D02*
X0446078Y0174200D01*
X0441103Y0181396D02*
X0451169Y0181396D01*
X0451169Y0183794D02*
X0444337Y0183794D01*
X0446268Y0186193D02*
X0451169Y0186193D01*
X0451169Y0188591D02*
X0447536Y0188591D01*
X0448178Y0190990D02*
X0451169Y0190990D01*
X0451169Y0193388D02*
X0448368Y0193388D01*
X0448238Y0195787D02*
X0451159Y0195787D01*
X0450819Y0198185D02*
X0447596Y0198185D01*
X0446397Y0200584D02*
X0450130Y0200584D01*
X0448745Y0202982D02*
X0444560Y0202982D01*
X0446463Y0205381D02*
X0441489Y0205381D01*
X0441284Y0207779D02*
X0080645Y0207779D01*
X0082168Y0205381D02*
X0082168Y0205381D01*
X0082168Y0202982D02*
X0082168Y0202982D01*
X0086336Y0202982D02*
X0087606Y0202982D01*
X0087606Y0203908D02*
X0087605Y0202043D01*
X0092168Y0202043D01*
X0092168Y0202043D01*
X0092168Y0202043D01*
X0092168Y0205818D01*
X0089516Y0205818D01*
X0088956Y0205668D01*
X0088455Y0205379D01*
X0088045Y0204969D01*
X0087755Y0204467D01*
X0087606Y0203908D01*
X0088459Y0205381D02*
X0085878Y0205381D01*
X0092168Y0205381D02*
X0092168Y0205381D01*
X0092168Y0202982D02*
X0092168Y0202982D01*
X0095877Y0205381D02*
X0100957Y0205381D01*
X0100499Y0202982D02*
X0096730Y0202982D01*
X0096730Y0200584D02*
X0100499Y0200584D01*
X0101020Y0198185D02*
X0095422Y0198185D01*
X0096330Y0195787D02*
X0100493Y0195787D01*
X0098094Y0193388D02*
X0096330Y0193388D01*
X0102914Y0188591D02*
X0122797Y0188591D01*
X0120939Y0190990D02*
X0105312Y0190990D01*
X0111263Y0186193D02*
X0113072Y0186193D01*
X0112368Y0183794D02*
X0111968Y0183794D01*
X0111852Y0181396D02*
X0112484Y0181396D01*
X0114882Y0178997D02*
X0109453Y0178997D01*
X0110857Y0176599D02*
X0113478Y0176599D01*
X0112368Y0174200D02*
X0111968Y0174200D01*
X0112260Y0171802D02*
X0112368Y0171802D01*
X0104476Y0169403D02*
X0081899Y0169403D01*
X0081160Y0171802D02*
X0102368Y0171802D01*
X0102368Y0174200D02*
X0098718Y0174200D01*
X0098718Y0174160D02*
X0098718Y0178125D01*
X0093843Y0178125D01*
X0093843Y0172250D01*
X0096807Y0172250D01*
X0097367Y0172400D01*
X0097869Y0172690D01*
X0098278Y0173099D01*
X0098568Y0173601D01*
X0098718Y0174160D01*
X0098718Y0176599D02*
X0103478Y0176599D01*
X0104882Y0178997D02*
X0098718Y0178997D01*
X0098718Y0181396D02*
X0099464Y0181396D01*
X0093843Y0181396D02*
X0093293Y0181396D01*
X0093293Y0183794D02*
X0093843Y0183794D01*
X0093843Y0184550D02*
X0096309Y0184550D01*
X0095759Y0185100D01*
X0088576Y0185100D01*
X0087968Y0184492D01*
X0087968Y0184150D01*
X0088263Y0184150D01*
X0088804Y0183609D01*
X0088857Y0183701D01*
X0089267Y0184110D01*
X0089769Y0184400D01*
X0090328Y0184550D01*
X0093293Y0184550D01*
X0093293Y0178675D01*
X0093843Y0178675D01*
X0093843Y0184550D01*
X0088951Y0183794D02*
X0088619Y0183794D01*
X0089318Y0178675D02*
X0093293Y0178675D01*
X0093293Y0178125D01*
X0089318Y0178125D01*
X0089318Y0178675D01*
X0093293Y0178997D02*
X0093843Y0178997D01*
X0093843Y0176599D02*
X0093293Y0176599D01*
X0093293Y0174200D02*
X0093843Y0174200D01*
X0093867Y0167005D02*
X0103884Y0167005D01*
X0102368Y0164606D02*
X0097916Y0164606D01*
X0099115Y0162208D02*
X0102368Y0162208D01*
X0104070Y0159809D02*
X0100314Y0159809D01*
X0100568Y0157411D02*
X0104290Y0157411D01*
X0102368Y0155012D02*
X0100568Y0155012D01*
X0100568Y0152614D02*
X0102368Y0152614D01*
X0105379Y0146895D02*
X0105808Y0146465D01*
X0108308Y0143965D01*
X0109190Y0143600D01*
X0129503Y0143600D01*
X0129791Y0143312D01*
X0126954Y0143312D01*
X0125899Y0142257D01*
X0125899Y0140900D01*
X0119851Y0140900D01*
X0119561Y0140945D01*
X0119378Y0140900D01*
X0119190Y0140900D01*
X0118919Y0140788D01*
X0118633Y0140718D01*
X0118482Y0140607D01*
X0118308Y0140535D01*
X0118100Y0140327D01*
X0113724Y0137118D01*
X0113043Y0137400D01*
X0111292Y0137400D01*
X0109675Y0136730D01*
X0108438Y0135492D01*
X0107768Y0133875D01*
X0107768Y0132125D01*
X0108438Y0130508D01*
X0109675Y0129270D01*
X0111292Y0128600D01*
X0113043Y0128600D01*
X0113135Y0128638D01*
X0117808Y0123965D01*
X0118466Y0123693D01*
X0113135Y0118362D01*
X0113043Y0118400D01*
X0111292Y0118400D01*
X0109675Y0117730D01*
X0108438Y0116492D01*
X0107768Y0114875D01*
X0107768Y0113125D01*
X0108438Y0111508D01*
X0109675Y0110270D01*
X0111292Y0109600D01*
X0113043Y0109600D01*
X0113520Y0109797D01*
X0121413Y0101904D01*
X0122088Y0101229D01*
X0122970Y0100864D01*
X0125624Y0100864D01*
X0126324Y0100165D01*
X0131461Y0100165D01*
X0131068Y0099216D01*
X0131068Y0097784D01*
X0131616Y0096461D01*
X0132177Y0095900D01*
X0118162Y0095900D01*
X0104568Y0109494D01*
X0104568Y0145836D01*
X0105204Y0146471D01*
X0105379Y0146895D01*
X0104568Y0145418D02*
X0106855Y0145418D01*
X0104568Y0143020D02*
X0126661Y0143020D01*
X0133159Y0142534D02*
X0134086Y0142919D01*
X0133587Y0141712D01*
X0133587Y0140288D01*
X0134132Y0138971D01*
X0134768Y0138336D01*
X0134768Y0135494D01*
X0135133Y0134612D01*
X0135752Y0133993D01*
X0135752Y0132292D01*
X0136806Y0131237D01*
X0153652Y0131237D01*
X0148994Y0128400D01*
X0132343Y0128400D01*
X0132485Y0128438D01*
X0132987Y0128728D01*
X0133397Y0129137D01*
X0133686Y0129639D01*
X0133836Y0130199D01*
X0133836Y0132653D01*
X0129668Y0132653D01*
X0129668Y0132654D01*
X0133836Y0132654D01*
X0133836Y0135109D01*
X0133686Y0135668D01*
X0133397Y0136170D01*
X0133284Y0136283D01*
X0133436Y0136436D01*
X0133436Y0142257D01*
X0133159Y0142534D01*
X0133436Y0140621D02*
X0133587Y0140621D01*
X0133436Y0138223D02*
X0134768Y0138223D01*
X0134768Y0135824D02*
X0133596Y0135824D01*
X0133836Y0133426D02*
X0135752Y0133426D01*
X0133836Y0131027D02*
X0153306Y0131027D01*
X0149369Y0128629D02*
X0132815Y0128629D01*
X0126992Y0128400D02*
X0120162Y0128400D01*
X0116529Y0132032D01*
X0116568Y0132125D01*
X0116568Y0133250D01*
X0120453Y0136100D01*
X0125899Y0136100D01*
X0125649Y0135668D01*
X0125499Y0135109D01*
X0125499Y0132654D01*
X0129668Y0132654D01*
X0129668Y0132653D01*
X0125499Y0132653D01*
X0125499Y0130199D01*
X0125649Y0129639D01*
X0125939Y0129137D01*
X0126348Y0128728D01*
X0126850Y0128438D01*
X0126992Y0128400D01*
X0126520Y0128629D02*
X0119933Y0128629D01*
X0117535Y0131027D02*
X0125499Y0131027D01*
X0125499Y0133426D02*
X0116806Y0133426D01*
X0120077Y0135824D02*
X0125739Y0135824D01*
X0118502Y0140621D02*
X0104568Y0140621D01*
X0104568Y0138223D02*
X0115231Y0138223D01*
X0108769Y0135824D02*
X0104568Y0135824D01*
X0104568Y0133426D02*
X0107768Y0133426D01*
X0108222Y0131027D02*
X0104568Y0131027D01*
X0104568Y0128629D02*
X0111224Y0128629D01*
X0113112Y0128629D02*
X0113145Y0128629D01*
X0115544Y0126230D02*
X0104568Y0126230D01*
X0104568Y0123832D02*
X0118131Y0123832D01*
X0116207Y0121433D02*
X0104568Y0121433D01*
X0104568Y0119034D02*
X0113808Y0119034D01*
X0120596Y0119034D02*
X0128587Y0119034D01*
X0128587Y0119212D02*
X0128587Y0117788D01*
X0129132Y0116471D01*
X0130139Y0115464D01*
X0130805Y0115188D01*
X0129038Y0115188D01*
X0129038Y0110823D01*
X0133206Y0110823D01*
X0133206Y0113278D01*
X0133056Y0113837D01*
X0132767Y0114339D01*
X0132357Y0114749D01*
X0132062Y0114919D01*
X0132880Y0114919D01*
X0134196Y0115464D01*
X0134832Y0116100D01*
X0138311Y0116100D01*
X0138311Y0115763D01*
X0136806Y0115763D01*
X0135752Y0114708D01*
X0135752Y0102978D01*
X0134874Y0102100D01*
X0133952Y0102100D01*
X0132806Y0101626D01*
X0132806Y0107041D01*
X0132654Y0107194D01*
X0132767Y0107307D01*
X0133056Y0107808D01*
X0133206Y0108368D01*
X0133206Y0110823D01*
X0129038Y0110823D01*
X0129038Y0110823D01*
X0129038Y0110823D01*
X0129038Y0115188D01*
X0126780Y0115188D01*
X0126220Y0115038D01*
X0125718Y0114749D01*
X0125309Y0114339D01*
X0125019Y0113837D01*
X0124869Y0113278D01*
X0124869Y0110823D01*
X0129038Y0110823D01*
X0129038Y0110823D01*
X0124869Y0110823D01*
X0124869Y0108368D01*
X0125019Y0107808D01*
X0125309Y0107307D01*
X0125422Y0107194D01*
X0125269Y0107041D01*
X0125269Y0105664D01*
X0124441Y0105664D01*
X0116568Y0113537D01*
X0116568Y0114875D01*
X0116529Y0114968D01*
X0122662Y0121100D01*
X0129703Y0121100D01*
X0129132Y0120529D01*
X0128587Y0119212D01*
X0129064Y0116636D02*
X0118198Y0116636D01*
X0116568Y0114237D02*
X0125250Y0114237D01*
X0124869Y0111839D02*
X0118266Y0111839D01*
X0120665Y0109440D02*
X0124869Y0109440D01*
X0125270Y0107042D02*
X0123063Y0107042D01*
X0118673Y0104643D02*
X0109418Y0104643D01*
X0111817Y0102245D02*
X0121072Y0102245D01*
X0121413Y0101904D02*
X0121413Y0101904D01*
X0116614Y0097448D02*
X0131207Y0097448D01*
X0131329Y0099846D02*
X0114215Y0099846D01*
X0116275Y0107042D02*
X0107020Y0107042D01*
X0104621Y0109440D02*
X0113876Y0109440D01*
X0108300Y0111839D02*
X0104568Y0111839D01*
X0104568Y0114237D02*
X0107768Y0114237D01*
X0108581Y0116636D02*
X0104568Y0116636D01*
X0089768Y0119034D02*
X0086300Y0119034D01*
X0086428Y0121433D02*
X0089768Y0121433D01*
X0089768Y0123832D02*
X0085311Y0123832D01*
X0085641Y0126230D02*
X0089768Y0126230D01*
X0089768Y0128629D02*
X0086719Y0128629D01*
X0086828Y0129780D02*
X0086828Y0130244D01*
X0086682Y0131161D01*
X0086395Y0132044D01*
X0085974Y0132872D01*
X0085428Y0133623D01*
X0084771Y0134280D01*
X0084020Y0134826D01*
X0083192Y0135247D01*
X0082309Y0135534D01*
X0081392Y0135680D01*
X0080928Y0135680D01*
X0080928Y0129780D01*
X0086828Y0129780D01*
X0086704Y0131027D02*
X0089768Y0131027D01*
X0089678Y0133426D02*
X0085571Y0133426D01*
X0088587Y0135824D02*
X0079032Y0135824D01*
X0078814Y0135296D02*
X0079609Y0137217D01*
X0079609Y0140452D01*
X0078372Y0143440D01*
X0076084Y0145728D01*
X0073096Y0146965D01*
X0069861Y0146965D01*
X0066873Y0145728D01*
X0064586Y0143440D01*
X0063348Y0140452D01*
X0063348Y0137217D01*
X0064586Y0134229D01*
X0066873Y0131942D01*
X0069861Y0130704D01*
X0073096Y0130704D01*
X0075324Y0131627D01*
X0075173Y0131161D01*
X0075028Y0130244D01*
X0075028Y0129780D01*
X0080927Y0129780D01*
X0080927Y0135680D01*
X0080463Y0135680D01*
X0079546Y0135534D01*
X0078814Y0135296D01*
X0080927Y0133426D02*
X0080928Y0133426D01*
X0080927Y0131027D02*
X0080928Y0131027D01*
X0075152Y0131027D02*
X0073876Y0131027D01*
X0073390Y0128629D02*
X0075136Y0128629D01*
X0074786Y0127331D02*
X0073558Y0128559D01*
X0071953Y0129224D01*
X0070217Y0129224D01*
X0068612Y0128559D01*
X0067384Y0127331D01*
X0066720Y0125727D01*
X0066720Y0123990D01*
X0067384Y0122385D01*
X0068612Y0121157D01*
X0070217Y0120493D01*
X0071953Y0120493D01*
X0073558Y0121157D01*
X0074786Y0122385D01*
X0075450Y0123990D01*
X0075450Y0125727D01*
X0074786Y0127331D01*
X0075242Y0126230D02*
X0076214Y0126230D01*
X0076544Y0123832D02*
X0075385Y0123832D01*
X0075428Y0121433D02*
X0073833Y0121433D01*
X0075555Y0119034D02*
X0061868Y0119034D01*
X0061868Y0121433D02*
X0068337Y0121433D01*
X0066785Y0123832D02*
X0061868Y0123832D01*
X0061868Y0126230D02*
X0066928Y0126230D01*
X0068780Y0128629D02*
X0061868Y0128629D01*
X0061868Y0131027D02*
X0069081Y0131027D01*
X0065389Y0133426D02*
X0061868Y0133426D01*
X0061868Y0135824D02*
X0063925Y0135824D01*
X0063348Y0138223D02*
X0061868Y0138223D01*
X0061868Y0140621D02*
X0063418Y0140621D01*
X0064412Y0143020D02*
X0061868Y0143020D01*
X0061868Y0145418D02*
X0066564Y0145418D01*
X0061868Y0147817D02*
X0093768Y0147817D01*
X0081586Y0145418D02*
X0076394Y0145418D01*
X0078546Y0143020D02*
X0081087Y0143020D01*
X0082482Y0140621D02*
X0079539Y0140621D01*
X0079609Y0138223D02*
X0089326Y0138223D01*
X0075368Y0150215D02*
X0061868Y0150215D01*
X0061868Y0152614D02*
X0075368Y0152614D01*
X0075368Y0155012D02*
X0061868Y0155012D01*
X0061868Y0157411D02*
X0075368Y0157411D01*
X0077864Y0162208D02*
X0061868Y0162208D01*
X0061868Y0164606D02*
X0076262Y0164606D01*
X0075523Y0167005D02*
X0061868Y0167005D01*
X0061868Y0169403D02*
X0074783Y0169403D01*
X0074044Y0171802D02*
X0061868Y0171802D01*
X0061868Y0174200D02*
X0070818Y0174200D01*
X0070818Y0176599D02*
X0061868Y0176599D01*
X0061868Y0178997D02*
X0070818Y0178997D01*
X0070818Y0181396D02*
X0061868Y0181396D01*
X0061868Y0183794D02*
X0071516Y0183794D01*
X0072168Y0186193D02*
X0061886Y0186193D01*
X0062060Y0188591D02*
X0072168Y0188591D01*
X0073196Y0190990D02*
X0062608Y0190990D01*
X0063196Y0193388D02*
X0075594Y0193388D01*
X0077993Y0195787D02*
X0064351Y0195787D01*
X0065652Y0198185D02*
X0078520Y0198185D01*
X0077999Y0200584D02*
X0067565Y0200584D01*
X0070098Y0202982D02*
X0077999Y0202982D01*
X0078457Y0205381D02*
X0073637Y0205381D01*
X0086336Y0200584D02*
X0087606Y0200584D01*
X0104668Y0202982D02*
X0104668Y0202982D01*
X0104668Y0205381D02*
X0104668Y0205381D01*
X0108378Y0205381D02*
X0110959Y0205381D01*
X0110955Y0205379D02*
X0110545Y0204969D01*
X0110255Y0204467D01*
X0110106Y0203908D01*
X0110105Y0202043D01*
X0114668Y0202043D01*
X0114668Y0202043D01*
X0114668Y0202043D01*
X0114668Y0205818D01*
X0112016Y0205818D01*
X0111456Y0205668D01*
X0110955Y0205379D01*
X0110106Y0202982D02*
X0108836Y0202982D01*
X0108836Y0200584D02*
X0110106Y0200584D01*
X0114668Y0202982D02*
X0114668Y0202982D01*
X0114668Y0205381D02*
X0114668Y0205381D01*
X0118377Y0205381D02*
X0145655Y0205381D01*
X0142354Y0202982D02*
X0119230Y0202982D01*
X0119230Y0200584D02*
X0139035Y0200584D01*
X0134773Y0198185D02*
X0123370Y0198185D01*
X0125825Y0195787D02*
X0134772Y0195787D01*
X0127682Y0193388D02*
X0176162Y0193388D01*
X0178917Y0195787D02*
X0141532Y0195787D01*
X0143911Y0198185D02*
X0221068Y0198185D01*
X0221660Y0200584D02*
X0147230Y0200584D01*
X0149742Y0190990D02*
X0152093Y0190990D01*
X0151632Y0190529D02*
X0152639Y0191536D01*
X0153955Y0192081D01*
X0155380Y0192081D01*
X0156696Y0191536D01*
X0157704Y0190529D01*
X0158249Y0189212D01*
X0158249Y0187788D01*
X0157704Y0186471D01*
X0157068Y0185836D01*
X0157068Y0175812D01*
X0157382Y0175812D01*
X0158436Y0174757D01*
X0158436Y0168936D01*
X0158284Y0168783D01*
X0158397Y0168670D01*
X0158686Y0168168D01*
X0158836Y0167609D01*
X0158836Y0165154D01*
X0154668Y0165154D01*
X0154668Y0165153D01*
X0154668Y0160788D01*
X0156926Y0160788D01*
X0157485Y0160938D01*
X0157987Y0161228D01*
X0158397Y0161637D01*
X0158686Y0162139D01*
X0158836Y0162699D01*
X0158836Y0165153D01*
X0154668Y0165153D01*
X0154668Y0165153D01*
X0154668Y0160788D01*
X0152410Y0160788D01*
X0151850Y0160938D01*
X0151348Y0161228D01*
X0150939Y0161637D01*
X0150649Y0162139D01*
X0150499Y0162699D01*
X0150499Y0165153D01*
X0154668Y0165153D01*
X0154668Y0165154D01*
X0150499Y0165154D01*
X0150499Y0167609D01*
X0150649Y0168168D01*
X0150939Y0168670D01*
X0151052Y0168783D01*
X0150899Y0168936D01*
X0150899Y0174757D01*
X0151954Y0175812D01*
X0152268Y0175812D01*
X0152268Y0185836D01*
X0151632Y0186471D01*
X0151087Y0187788D01*
X0151087Y0189212D01*
X0151632Y0190529D01*
X0151087Y0188591D02*
X0150749Y0188591D01*
X0144593Y0190990D02*
X0130564Y0190990D01*
X0123618Y0186193D02*
X0121263Y0186193D01*
X0121968Y0183794D02*
X0152268Y0183794D01*
X0152268Y0181396D02*
X0122666Y0181396D01*
X0125065Y0178997D02*
X0152268Y0178997D01*
X0152268Y0176599D02*
X0127017Y0176599D01*
X0127362Y0174200D02*
X0150899Y0174200D01*
X0150899Y0171802D02*
X0129760Y0171802D01*
X0132159Y0169403D02*
X0150899Y0169403D01*
X0150499Y0167005D02*
X0134557Y0167005D01*
X0146956Y0164606D02*
X0150499Y0164606D01*
X0150631Y0162208D02*
X0149354Y0162208D01*
X0151753Y0159809D02*
X0179768Y0159809D01*
X0179768Y0157411D02*
X0153347Y0157411D01*
X0153347Y0155012D02*
X0179768Y0155012D01*
X0179768Y0152614D02*
X0153347Y0152614D01*
X0153347Y0150215D02*
X0179768Y0150215D01*
X0179768Y0147817D02*
X0169690Y0147817D01*
X0171862Y0145418D02*
X0179768Y0145418D01*
X0179768Y0143020D02*
X0172068Y0143020D01*
X0172573Y0140621D02*
X0179768Y0140621D01*
X0179768Y0138223D02*
X0173436Y0138223D01*
X0173436Y0135824D02*
X0179768Y0135824D01*
X0179048Y0133426D02*
X0173538Y0133426D01*
X0173836Y0131027D02*
X0178868Y0131027D01*
X0178868Y0128629D02*
X0173836Y0128629D01*
X0173836Y0127699D02*
X0173836Y0130153D01*
X0169668Y0130153D01*
X0169668Y0125788D01*
X0171926Y0125788D01*
X0172485Y0125938D01*
X0172987Y0126228D01*
X0173397Y0126637D01*
X0173686Y0127139D01*
X0173836Y0127699D01*
X0172989Y0126230D02*
X0178868Y0126230D01*
X0179768Y0123832D02*
X0158393Y0123832D01*
X0160714Y0126230D02*
X0166346Y0126230D01*
X0166348Y0126228D02*
X0166850Y0125938D01*
X0167410Y0125788D01*
X0169668Y0125788D01*
X0169668Y0130153D01*
X0169668Y0130153D01*
X0169668Y0130154D01*
X0169668Y0130153D01*
X0165499Y0130153D01*
X0165499Y0127699D01*
X0165649Y0127139D01*
X0165939Y0126637D01*
X0166348Y0126228D01*
X0165499Y0128629D02*
X0161024Y0128629D01*
X0161024Y0131027D02*
X0165499Y0131027D01*
X0165798Y0133426D02*
X0163583Y0133426D01*
X0163583Y0135824D02*
X0165899Y0135824D01*
X0165899Y0138223D02*
X0164455Y0138223D01*
X0165749Y0140621D02*
X0166763Y0140621D01*
X0167268Y0143020D02*
X0165207Y0143020D01*
X0158090Y0147817D02*
X0153347Y0147817D01*
X0153347Y0145418D02*
X0155692Y0145418D01*
X0185288Y0133426D02*
X0187268Y0133426D01*
X0187268Y0131027D02*
X0185468Y0131027D01*
X0185468Y0128629D02*
X0187268Y0128629D01*
X0187268Y0126230D02*
X0185468Y0126230D01*
X0184568Y0123832D02*
X0187268Y0123832D01*
X0187268Y0121433D02*
X0184568Y0121433D01*
X0184568Y0119034D02*
X0187268Y0119034D01*
X0187268Y0116636D02*
X0184568Y0116636D01*
X0184568Y0114237D02*
X0187268Y0114237D01*
X0187268Y0111839D02*
X0184874Y0111839D01*
X0185468Y0109440D02*
X0187268Y0109440D01*
X0187268Y0107042D02*
X0185468Y0107042D01*
X0185468Y0104643D02*
X0187268Y0104643D01*
X0185019Y0102245D02*
X0163583Y0102245D01*
X0163583Y0104643D02*
X0178868Y0104643D01*
X0178868Y0107042D02*
X0163583Y0107042D01*
X0163583Y0109440D02*
X0178868Y0109440D01*
X0179461Y0111839D02*
X0163583Y0111839D01*
X0163583Y0114237D02*
X0179768Y0114237D01*
X0179768Y0116636D02*
X0143111Y0116636D01*
X0148388Y0116163D02*
X0148388Y0112013D01*
X0148388Y0112013D01*
X0148388Y0116163D01*
X0148388Y0114237D02*
X0148388Y0114237D01*
X0148388Y0112012D02*
X0148388Y0107863D01*
X0148388Y0112012D01*
X0148388Y0112012D01*
X0148388Y0111839D02*
X0148388Y0111839D01*
X0148388Y0109440D02*
X0148388Y0109440D01*
X0148388Y0107863D02*
X0148547Y0107863D01*
X0148547Y0093274D01*
X0146174Y0090900D01*
X0130654Y0090900D01*
X0130454Y0091100D01*
X0137645Y0091100D01*
X0138527Y0091465D01*
X0139202Y0092141D01*
X0147189Y0100127D01*
X0147864Y0100802D01*
X0148229Y0101684D01*
X0148229Y0107863D01*
X0148388Y0107863D01*
X0148229Y0107042D02*
X0148547Y0107042D01*
X0148547Y0104643D02*
X0148229Y0104643D01*
X0148229Y0102245D02*
X0148547Y0102245D01*
X0148547Y0099846D02*
X0146908Y0099846D01*
X0147189Y0100127D02*
X0147189Y0100127D01*
X0148547Y0097448D02*
X0144510Y0097448D01*
X0142111Y0095049D02*
X0148547Y0095049D01*
X0147924Y0092651D02*
X0139713Y0092651D01*
X0139202Y0092141D02*
X0139202Y0092141D01*
X0149161Y0087099D02*
X0149202Y0087141D01*
X0151106Y0089044D01*
X0151106Y0083333D01*
X0149880Y0082106D01*
X0149880Y0083500D01*
X0149880Y0085758D01*
X0149730Y0086318D01*
X0149440Y0086819D01*
X0149161Y0087099D01*
X0149916Y0087854D02*
X0151106Y0087854D01*
X0151106Y0085455D02*
X0149880Y0085455D01*
X0149880Y0083500D02*
X0145514Y0083500D01*
X0145514Y0083500D01*
X0145514Y0079331D01*
X0143059Y0079331D01*
X0142500Y0079481D01*
X0141998Y0079771D01*
X0141885Y0079884D01*
X0141732Y0079731D01*
X0135910Y0079731D01*
X0134856Y0080786D01*
X0134856Y0081100D01*
X0131690Y0081100D01*
X0130808Y0081465D01*
X0128262Y0084012D01*
X0126592Y0081507D01*
X0126592Y0081507D01*
X0125568Y0079971D01*
X0125568Y0067867D01*
X0132566Y0077198D01*
X0132633Y0077359D01*
X0132850Y0077576D01*
X0133034Y0077822D01*
X0133185Y0077911D01*
X0133308Y0078035D01*
X0133592Y0078152D01*
X0133856Y0078308D01*
X0134029Y0078333D01*
X0134190Y0078400D01*
X0134497Y0078400D01*
X0134801Y0078443D01*
X0134970Y0078400D01*
X0146174Y0078400D01*
X0147105Y0079331D01*
X0145514Y0079331D01*
X0145514Y0083500D01*
X0145514Y0083500D01*
X0149880Y0083500D01*
X0149880Y0083057D02*
X0150830Y0083057D01*
X0145514Y0083057D02*
X0145514Y0083057D01*
X0145514Y0080658D02*
X0145514Y0080658D01*
X0155423Y0075861D02*
X0156135Y0075861D01*
X0153736Y0073463D02*
X0153025Y0073463D01*
X0151338Y0071064D02*
X0147168Y0071064D01*
X0148249Y0068666D02*
X0149768Y0068666D01*
X0149768Y0066267D02*
X0147499Y0066267D01*
X0147068Y0063869D02*
X0149768Y0063869D01*
X0149768Y0061470D02*
X0147068Y0061470D01*
X0148249Y0059072D02*
X0148587Y0059072D01*
X0149048Y0056673D02*
X0147787Y0056673D01*
X0141548Y0056673D02*
X0140618Y0056673D01*
X0140618Y0054275D02*
X0191268Y0054275D01*
X0191268Y0056673D02*
X0160287Y0056673D01*
X0160749Y0059072D02*
X0191268Y0059072D01*
X0191268Y0061470D02*
X0159568Y0061470D01*
X0159568Y0063869D02*
X0191268Y0063869D01*
X0191268Y0066267D02*
X0190310Y0066267D01*
X0190310Y0066254D02*
X0190310Y0073746D01*
X0189256Y0074800D01*
X0184765Y0074800D01*
X0183710Y0073746D01*
X0183710Y0066254D01*
X0184765Y0065200D01*
X0189256Y0065200D01*
X0190310Y0066254D01*
X0190310Y0068666D02*
X0191268Y0068666D01*
X0191268Y0071064D02*
X0190310Y0071064D01*
X0190310Y0073463D02*
X0191268Y0073463D01*
X0191268Y0075861D02*
X0163583Y0075861D01*
X0163583Y0073463D02*
X0183710Y0073463D01*
X0183710Y0071064D02*
X0163126Y0071064D01*
X0160728Y0068666D02*
X0183710Y0068666D01*
X0183710Y0066267D02*
X0159568Y0066267D01*
X0142268Y0063869D02*
X0134568Y0063869D01*
X0134568Y0061470D02*
X0134930Y0061470D01*
X0137168Y0061470D02*
X0137168Y0061470D01*
X0139405Y0061470D02*
X0142268Y0061470D01*
X0141087Y0059072D02*
X0140618Y0059072D01*
X0137168Y0059072D02*
X0137168Y0059072D01*
X0137168Y0056673D02*
X0137168Y0056673D01*
X0137168Y0054275D02*
X0137168Y0054275D01*
X0137168Y0051876D02*
X0137168Y0051876D01*
X0139905Y0051876D02*
X0191268Y0051876D01*
X0190837Y0049478D02*
X0125998Y0049478D01*
X0129339Y0051876D02*
X0129996Y0051876D01*
X0134339Y0051876D02*
X0134430Y0051876D01*
X0137929Y0047079D02*
X0188439Y0047079D01*
X0186040Y0044681D02*
X0139129Y0044681D01*
X0132725Y0042282D02*
X0091627Y0042282D01*
X0089228Y0039884D02*
X0099756Y0039884D01*
X0099118Y0037485D02*
X0088803Y0037485D01*
X0086718Y0035087D02*
X0099118Y0035087D01*
X0099118Y0032688D02*
X0061868Y0032688D01*
X0061868Y0035087D02*
X0063399Y0035087D01*
X0063399Y0037485D02*
X0061868Y0037485D01*
X0061868Y0039884D02*
X0063399Y0039884D01*
X0062999Y0042282D02*
X0061868Y0042282D01*
X0061868Y0044681D02*
X0062999Y0044681D01*
X0063074Y0047079D02*
X0061868Y0047079D01*
X0067168Y0047079D02*
X0067168Y0047079D01*
X0067168Y0044681D02*
X0067168Y0044681D01*
X0071336Y0044681D02*
X0086671Y0044681D01*
X0089070Y0047079D02*
X0071262Y0047079D01*
X0071336Y0042282D02*
X0081727Y0042282D01*
X0080121Y0039884D02*
X0071033Y0039884D01*
X0082129Y0035087D02*
X0082618Y0035087D01*
X0104580Y0039884D02*
X0104756Y0039884D01*
X0109580Y0039884D02*
X0109756Y0039884D01*
X0114580Y0039884D02*
X0114756Y0039884D01*
X0119580Y0039884D02*
X0119756Y0039884D01*
X0124580Y0039884D02*
X0124756Y0039884D01*
X0129580Y0039884D02*
X0129756Y0039884D01*
X0121179Y0044681D02*
X0107025Y0044681D01*
X0109393Y0047079D02*
X0119076Y0047079D01*
X0118768Y0049478D02*
X0109768Y0049478D01*
X0109768Y0051876D02*
X0109996Y0051876D01*
X0114339Y0051876D02*
X0114996Y0051876D01*
X0099118Y0054275D02*
X0092070Y0054275D01*
X0089671Y0056673D02*
X0099118Y0056673D01*
X0099118Y0059072D02*
X0088986Y0059072D01*
X0087420Y0061470D02*
X0109568Y0061470D01*
X0109568Y0063869D02*
X0071336Y0063869D01*
X0071336Y0061470D02*
X0081915Y0061470D01*
X0080349Y0059072D02*
X0071251Y0059072D01*
X0067168Y0063869D02*
X0067168Y0063869D01*
X0062999Y0063869D02*
X0061868Y0063869D01*
X0061868Y0066267D02*
X0108332Y0066267D01*
X0104686Y0068666D02*
X0061868Y0068666D01*
X0061868Y0071064D02*
X0095560Y0071064D01*
X0093161Y0073463D02*
X0085028Y0073463D01*
X0084985Y0073438D02*
X0085487Y0073728D01*
X0085897Y0074137D01*
X0086186Y0074639D01*
X0086336Y0075199D01*
X0086336Y0077653D01*
X0082168Y0077653D01*
X0082168Y0073288D01*
X0084426Y0073288D01*
X0084985Y0073438D01*
X0086336Y0075861D02*
X0091132Y0075861D01*
X0091028Y0078260D02*
X0086336Y0078260D01*
X0086189Y0080658D02*
X0090545Y0080658D01*
X0090545Y0083057D02*
X0085936Y0083057D01*
X0085936Y0085455D02*
X0090545Y0085455D01*
X0092943Y0087854D02*
X0085890Y0087854D01*
X0085890Y0090252D02*
X0090803Y0090252D01*
X0090545Y0092651D02*
X0087984Y0092651D01*
X0088252Y0095049D02*
X0090545Y0095049D01*
X0083052Y0095049D02*
X0079499Y0095049D01*
X0079609Y0092651D02*
X0080972Y0092651D01*
X0080690Y0090252D02*
X0079073Y0090252D01*
X0078996Y0087854D02*
X0077666Y0087854D01*
X0078399Y0085455D02*
X0074112Y0085455D01*
X0068846Y0085455D02*
X0061868Y0085455D01*
X0061868Y0087854D02*
X0065292Y0087854D01*
X0063885Y0090252D02*
X0061868Y0090252D01*
X0061868Y0092651D02*
X0063348Y0092651D01*
X0063459Y0095049D02*
X0061868Y0095049D01*
X0061868Y0097448D02*
X0064452Y0097448D01*
X0066661Y0099846D02*
X0061868Y0099846D01*
X0061868Y0102245D02*
X0075428Y0102245D01*
X0073558Y0103441D02*
X0074786Y0104669D01*
X0075450Y0106273D01*
X0075450Y0108010D01*
X0074786Y0109615D01*
X0073558Y0110842D01*
X0071953Y0111507D01*
X0070217Y0111507D01*
X0068612Y0110842D01*
X0067384Y0109615D01*
X0066720Y0108010D01*
X0066720Y0106273D01*
X0067384Y0104669D01*
X0068612Y0103441D01*
X0070217Y0102776D01*
X0071953Y0102776D01*
X0073558Y0103441D01*
X0074760Y0104643D02*
X0075978Y0104643D01*
X0075450Y0107042D02*
X0077670Y0107042D01*
X0075854Y0109440D02*
X0074858Y0109440D01*
X0075428Y0111839D02*
X0061868Y0111839D01*
X0061868Y0114237D02*
X0076082Y0114237D01*
X0076950Y0116636D02*
X0061868Y0116636D01*
X0061868Y0109440D02*
X0067312Y0109440D01*
X0066720Y0107042D02*
X0061868Y0107042D01*
X0061868Y0104643D02*
X0067410Y0104643D01*
X0085773Y0114237D02*
X0087006Y0114237D01*
X0084905Y0116636D02*
X0089410Y0116636D01*
X0129038Y0114237D02*
X0129038Y0114237D01*
X0129038Y0111839D02*
X0129038Y0111839D01*
X0133206Y0111839D02*
X0135752Y0111839D01*
X0135752Y0114237D02*
X0132825Y0114237D01*
X0133206Y0109440D02*
X0135752Y0109440D01*
X0135752Y0107042D02*
X0132805Y0107042D01*
X0132806Y0104643D02*
X0135752Y0104643D01*
X0135019Y0102245D02*
X0132806Y0102245D01*
X0163583Y0099846D02*
X0184610Y0099846D01*
X0184610Y0097448D02*
X0163583Y0097448D01*
X0163583Y0095049D02*
X0183710Y0095049D01*
X0183710Y0092651D02*
X0163583Y0092651D01*
X0163583Y0090252D02*
X0183710Y0090252D01*
X0184111Y0087854D02*
X0163583Y0087854D01*
X0163583Y0085455D02*
X0201946Y0085455D01*
X0202010Y0087854D02*
X0202010Y0087854D01*
X0202010Y0090252D02*
X0202010Y0090252D01*
X0198310Y0090252D02*
X0190310Y0090252D01*
X0190310Y0092651D02*
X0198310Y0092651D01*
X0198632Y0087854D02*
X0189910Y0087854D01*
X0196549Y0083057D02*
X0163583Y0083057D01*
X0163583Y0080658D02*
X0192018Y0080658D01*
X0191268Y0078260D02*
X0163583Y0078260D01*
X0142168Y0071064D02*
X0138428Y0071064D01*
X0136829Y0068666D02*
X0141087Y0068666D01*
X0141836Y0066267D02*
X0135230Y0066267D01*
X0127966Y0071064D02*
X0125568Y0071064D01*
X0125568Y0068666D02*
X0126167Y0068666D01*
X0125568Y0073463D02*
X0129765Y0073463D01*
X0131564Y0075861D02*
X0125568Y0075861D01*
X0125568Y0078260D02*
X0133774Y0078260D01*
X0134983Y0080658D02*
X0126026Y0080658D01*
X0127625Y0083057D02*
X0129217Y0083057D01*
X0112068Y0076009D02*
X0112068Y0071092D01*
X0112038Y0070668D01*
X0112068Y0070578D01*
X0112068Y0070483D01*
X0112230Y0070090D01*
X0112424Y0069509D01*
X0110768Y0071257D01*
X0110768Y0071992D01*
X0110220Y0073315D01*
X0109207Y0074328D01*
X0107884Y0074876D01*
X0106558Y0074876D01*
X0106366Y0074955D01*
X0098457Y0074955D01*
X0095828Y0077585D01*
X0095828Y0078819D01*
X0097168Y0078819D01*
X0098540Y0078819D01*
X0099100Y0078969D01*
X0099533Y0079219D01*
X0102736Y0079219D01*
X0103791Y0080274D01*
X0103791Y0080981D01*
X0108792Y0080981D01*
X0111068Y0078706D01*
X0111068Y0077784D01*
X0111616Y0076461D01*
X0112068Y0076009D01*
X0112068Y0075861D02*
X0097551Y0075861D01*
X0095828Y0078260D02*
X0111068Y0078260D01*
X0109115Y0080658D02*
X0103791Y0080658D01*
X0097168Y0080658D02*
X0097168Y0080658D01*
X0097168Y0078819D02*
X0097168Y0083381D01*
X0097168Y0083381D01*
X0097168Y0078819D01*
X0097168Y0083057D02*
X0097168Y0083057D01*
X0082168Y0077653D02*
X0082168Y0077654D01*
X0082168Y0077653D01*
X0082168Y0077653D01*
X0082168Y0073288D01*
X0079910Y0073288D01*
X0079350Y0073438D01*
X0078848Y0073728D01*
X0078439Y0074137D01*
X0078149Y0074639D01*
X0077999Y0075199D01*
X0077999Y0077653D01*
X0082168Y0077653D01*
X0082168Y0075861D02*
X0082168Y0075861D01*
X0082168Y0073463D02*
X0082168Y0073463D01*
X0079307Y0073463D02*
X0061868Y0073463D01*
X0061868Y0075861D02*
X0077999Y0075861D01*
X0077999Y0078260D02*
X0061868Y0078260D01*
X0061868Y0080658D02*
X0078147Y0080658D01*
X0078399Y0083057D02*
X0061868Y0083057D01*
X0061868Y0061470D02*
X0062999Y0061470D01*
X0063085Y0059072D02*
X0061868Y0059072D01*
X0061868Y0056673D02*
X0063399Y0056673D01*
X0063399Y0054275D02*
X0061868Y0054275D01*
X0061868Y0051876D02*
X0063766Y0051876D01*
X0061868Y0049478D02*
X0089513Y0049478D01*
X0087115Y0051876D02*
X0078034Y0051876D01*
X0075456Y0051876D02*
X0070570Y0051876D01*
X0110950Y0071064D02*
X0112066Y0071064D01*
X0112068Y0073463D02*
X0110072Y0073463D01*
X0192068Y0104643D02*
X0193468Y0104643D01*
X0193468Y0104210D02*
X0193618Y0103651D01*
X0193907Y0103149D01*
X0194317Y0102740D01*
X0194819Y0102450D01*
X0195378Y0102300D01*
X0197168Y0102300D01*
X0197168Y0107500D01*
X0197168Y0107500D01*
X0197168Y0112700D01*
X0195378Y0112700D01*
X0194819Y0112550D01*
X0194317Y0112260D01*
X0193907Y0111851D01*
X0193618Y0111349D01*
X0193468Y0110790D01*
X0193468Y0107500D01*
X0193468Y0104210D01*
X0193468Y0107042D02*
X0192068Y0107042D01*
X0193468Y0107500D02*
X0197168Y0107500D01*
X0197168Y0107500D01*
X0193468Y0107500D01*
X0193468Y0109440D02*
X0192068Y0109440D01*
X0192068Y0111839D02*
X0193900Y0111839D01*
X0197168Y0111839D02*
X0197168Y0111839D01*
X0197168Y0109440D02*
X0197168Y0109440D01*
X0197168Y0107042D02*
X0197168Y0107042D01*
X0197168Y0104643D02*
X0197168Y0104643D01*
X0205389Y0087854D02*
X0207342Y0087854D01*
X0179768Y0119034D02*
X0142527Y0119034D01*
X0155949Y0121433D02*
X0179768Y0121433D01*
X0169668Y0126230D02*
X0169668Y0126230D01*
X0169668Y0128629D02*
X0169668Y0128629D01*
X0192436Y0138223D02*
X0201365Y0138223D01*
X0200968Y0140621D02*
X0192968Y0140621D01*
X0192968Y0143020D02*
X0200968Y0143020D01*
X0200968Y0145418D02*
X0192968Y0145418D01*
X0208368Y0145418D02*
X0209355Y0145418D01*
X0208368Y0143020D02*
X0211754Y0143020D01*
X0214152Y0140621D02*
X0208368Y0140621D01*
X0214048Y0133426D02*
X0200674Y0133426D01*
X0200868Y0131027D02*
X0213868Y0131027D01*
X0213868Y0128629D02*
X0200868Y0128629D01*
X0200868Y0126230D02*
X0213868Y0126230D01*
X0197168Y0126230D02*
X0197168Y0126230D01*
X0197168Y0128629D02*
X0197168Y0128629D01*
X0197168Y0129500D02*
X0197168Y0129500D01*
X0197168Y0131027D02*
X0197168Y0131027D01*
X0197168Y0133426D02*
X0197168Y0133426D01*
X0249768Y0133426D02*
X0257068Y0133426D01*
X0257068Y0135824D02*
X0249768Y0135824D01*
X0249768Y0138223D02*
X0257068Y0138223D01*
X0257068Y0140621D02*
X0249768Y0140621D01*
X0249768Y0143020D02*
X0257068Y0143020D01*
X0257068Y0145418D02*
X0249768Y0145418D01*
X0249768Y0131027D02*
X0257068Y0131027D01*
X0257068Y0128629D02*
X0250768Y0128629D01*
X0249989Y0126230D02*
X0257068Y0126230D01*
X0274768Y0097448D02*
X0278839Y0097448D01*
X0281795Y0095049D02*
X0289960Y0095049D01*
X0285745Y0097448D02*
X0283591Y0097448D01*
X0383268Y0059072D02*
X0434469Y0059072D01*
X0434264Y0058987D02*
X0432913Y0057636D01*
X0432183Y0055872D01*
X0432183Y0053963D01*
X0432913Y0052198D01*
X0434264Y0050848D01*
X0436028Y0050117D01*
X0443937Y0050117D01*
X0445702Y0050848D01*
X0447052Y0052198D01*
X0447783Y0053963D01*
X0447783Y0055872D01*
X0447052Y0057636D01*
X0445702Y0058987D01*
X0443937Y0059717D01*
X0436028Y0059717D01*
X0434264Y0058987D01*
X0434264Y0060848D02*
X0436028Y0060117D01*
X0443937Y0060117D01*
X0445702Y0060848D01*
X0447052Y0062198D01*
X0447783Y0063963D01*
X0447783Y0065872D01*
X0447052Y0067636D01*
X0445702Y0068987D01*
X0443937Y0069717D01*
X0436028Y0069717D01*
X0434264Y0068987D01*
X0432913Y0067636D01*
X0432183Y0065872D01*
X0432183Y0063963D01*
X0432913Y0062198D01*
X0434264Y0060848D01*
X0433642Y0061470D02*
X0426985Y0061470D01*
X0428273Y0063869D02*
X0432222Y0063869D01*
X0432346Y0066267D02*
X0429073Y0066267D01*
X0431690Y0068666D02*
X0433943Y0068666D01*
X0434264Y0070848D02*
X0436028Y0070117D01*
X0443937Y0070117D01*
X0445702Y0070848D01*
X0447052Y0072198D01*
X0447783Y0073963D01*
X0447783Y0075872D01*
X0447052Y0077636D01*
X0445702Y0078987D01*
X0443937Y0079717D01*
X0436028Y0079717D01*
X0434264Y0078987D01*
X0432913Y0077636D01*
X0432183Y0075872D01*
X0432183Y0073963D01*
X0432913Y0072198D01*
X0434264Y0070848D01*
X0434048Y0071064D02*
X0431889Y0071064D01*
X0431637Y0073463D02*
X0432390Y0073463D01*
X0432183Y0075861D02*
X0423615Y0075861D01*
X0423615Y0078260D02*
X0433537Y0078260D01*
X0434722Y0080658D02*
X0423615Y0080658D01*
X0424408Y0083057D02*
X0424927Y0083057D01*
X0431314Y0083057D02*
X0432558Y0083057D01*
X0432913Y0082198D02*
X0434264Y0080848D01*
X0436028Y0080117D01*
X0443937Y0080117D01*
X0445702Y0080848D01*
X0447052Y0082198D01*
X0447783Y0083963D01*
X0447783Y0085872D01*
X0447052Y0087636D01*
X0445702Y0088987D01*
X0443937Y0089717D01*
X0436028Y0089717D01*
X0434264Y0088987D01*
X0432913Y0087636D01*
X0432183Y0085872D01*
X0432183Y0083963D01*
X0432913Y0082198D01*
X0432183Y0085455D02*
X0431889Y0085455D01*
X0431889Y0087854D02*
X0433131Y0087854D01*
X0434264Y0090848D02*
X0436028Y0090117D01*
X0443937Y0090117D01*
X0445702Y0090848D01*
X0447052Y0092198D01*
X0447783Y0093963D01*
X0447783Y0095872D01*
X0447052Y0097636D01*
X0445702Y0098987D01*
X0443937Y0099717D01*
X0436028Y0099717D01*
X0434264Y0098987D01*
X0432913Y0097636D01*
X0432183Y0095872D01*
X0432183Y0093963D01*
X0432913Y0092198D01*
X0434264Y0090848D01*
X0435702Y0090252D02*
X0428678Y0090252D01*
X0427380Y0092651D02*
X0432726Y0092651D01*
X0432183Y0095049D02*
X0427828Y0095049D01*
X0430496Y0097448D02*
X0432835Y0097448D01*
X0431889Y0099846D02*
X0451169Y0099846D01*
X0451169Y0097448D02*
X0447130Y0097448D01*
X0447783Y0095049D02*
X0451169Y0095049D01*
X0451169Y0092651D02*
X0447239Y0092651D01*
X0444263Y0090252D02*
X0451169Y0090252D01*
X0451169Y0087854D02*
X0446834Y0087854D01*
X0447783Y0085455D02*
X0451169Y0085455D01*
X0451169Y0083057D02*
X0447408Y0083057D01*
X0445244Y0080658D02*
X0451169Y0080658D01*
X0451169Y0078260D02*
X0446428Y0078260D01*
X0447783Y0075861D02*
X0451169Y0075861D01*
X0451169Y0073463D02*
X0447576Y0073463D01*
X0445918Y0071064D02*
X0451169Y0071064D01*
X0451169Y0068666D02*
X0446022Y0068666D01*
X0447619Y0066267D02*
X0451169Y0066267D01*
X0451169Y0063869D02*
X0447744Y0063869D01*
X0446324Y0061470D02*
X0451169Y0061470D01*
X0451169Y0059072D02*
X0445496Y0059072D01*
X0447451Y0056673D02*
X0451169Y0056673D01*
X0451169Y0054275D02*
X0447783Y0054275D01*
X0446730Y0051876D02*
X0451169Y0051876D01*
X0451169Y0049478D02*
X0437301Y0049478D01*
X0436471Y0049700D02*
X0432864Y0049700D01*
X0429380Y0048766D01*
X0426256Y0046963D01*
X0423705Y0044412D01*
X0421901Y0041288D01*
X0420968Y0037804D01*
X0420968Y0034196D01*
X0421901Y0030712D01*
X0423705Y0027588D01*
X0426256Y0025037D01*
X0429380Y0023234D01*
X0432864Y0022300D01*
X0436471Y0022300D01*
X0439956Y0023234D01*
X0443080Y0025037D01*
X0445630Y0027588D01*
X0447434Y0030712D01*
X0448368Y0034196D01*
X0448368Y0037804D01*
X0447434Y0041288D01*
X0445630Y0044412D01*
X0443080Y0046963D01*
X0439956Y0048766D01*
X0436471Y0049700D01*
X0433236Y0051876D02*
X0383436Y0051876D01*
X0383436Y0049478D02*
X0432034Y0049478D01*
X0432183Y0054275D02*
X0383436Y0054275D01*
X0382808Y0056673D02*
X0432515Y0056673D01*
X0426457Y0047079D02*
X0383436Y0047079D01*
X0383436Y0044681D02*
X0423974Y0044681D01*
X0422475Y0042282D02*
X0383436Y0042282D01*
X0382268Y0039884D02*
X0421525Y0039884D01*
X0420968Y0037485D02*
X0382066Y0037485D01*
X0379715Y0035087D02*
X0420968Y0035087D01*
X0421372Y0032688D02*
X0376974Y0032688D01*
X0374233Y0030290D02*
X0422145Y0030290D01*
X0423530Y0027891D02*
X0371492Y0027891D01*
X0368750Y0025493D02*
X0425800Y0025493D01*
X0429901Y0023094D02*
X0366009Y0023094D01*
X0363268Y0020696D02*
X0441977Y0020696D01*
X0439435Y0023094D02*
X0444739Y0023094D01*
X0443535Y0025493D02*
X0446652Y0025493D01*
X0445805Y0027891D02*
X0448175Y0027891D01*
X0447190Y0030290D02*
X0449330Y0030290D01*
X0450153Y0032688D02*
X0447964Y0032688D01*
X0448368Y0035087D02*
X0450701Y0035087D01*
X0451077Y0037485D02*
X0448368Y0037485D01*
X0447810Y0039884D02*
X0451169Y0039884D01*
X0451169Y0042282D02*
X0446860Y0042282D01*
X0445362Y0044681D02*
X0451169Y0044681D01*
X0451169Y0047079D02*
X0442878Y0047079D01*
X0438154Y0018297D02*
X0069227Y0018297D01*
X0075394Y0015899D02*
X0430603Y0015899D01*
X0431889Y0102245D02*
X0436872Y0102245D01*
X0432703Y0104643D02*
X0430276Y0104643D01*
X0430855Y0107042D02*
X0423615Y0107042D01*
X0423615Y0109440D02*
X0429904Y0109440D01*
X0429594Y0111839D02*
X0423615Y0111839D01*
X0423615Y0104643D02*
X0425965Y0104643D01*
X0442463Y0102245D02*
X0451169Y0102245D01*
X0451169Y0104643D02*
X0446633Y0104643D01*
X0448481Y0107042D02*
X0451169Y0107042D01*
X0451169Y0109440D02*
X0449431Y0109440D01*
X0449742Y0111839D02*
X0451169Y0111839D01*
X0451169Y0114237D02*
X0449478Y0114237D01*
X0448580Y0116636D02*
X0451169Y0116636D01*
X0451169Y0119034D02*
X0446805Y0119034D01*
X0443107Y0121433D02*
X0451169Y0121433D01*
X0436228Y0121433D02*
X0427629Y0121433D01*
X0431223Y0119034D02*
X0432530Y0119034D01*
X0424981Y0178997D02*
X0424354Y0178997D01*
X0224768Y0193388D02*
X0224392Y0193388D01*
X0222290Y0195787D02*
X0192918Y0195787D01*
X0195673Y0193388D02*
X0207813Y0193388D01*
X0209668Y0191000D02*
X0215691Y0191000D01*
X0217168Y0189524D01*
X0209668Y0191000D02*
X0204668Y0186000D01*
X0204668Y0181000D01*
X0209103Y0186193D02*
X0214410Y0186193D01*
X0205415Y0190990D02*
X0198072Y0190990D01*
X0199568Y0188591D02*
X0203016Y0188591D01*
X0193682Y0188591D02*
X0189468Y0188591D01*
X0188966Y0190990D02*
X0191284Y0190990D01*
X0179868Y0188591D02*
X0179468Y0188591D01*
X0179149Y0186193D02*
X0180187Y0186193D01*
X0182585Y0183794D02*
X0176750Y0183794D01*
X0178560Y0181396D02*
X0180775Y0181396D01*
X0179868Y0178997D02*
X0179468Y0178997D01*
X0172585Y0183794D02*
X0157068Y0183794D01*
X0157068Y0181396D02*
X0170775Y0181396D01*
X0169868Y0178997D02*
X0157068Y0178997D01*
X0157068Y0176599D02*
X0169868Y0176599D01*
X0172179Y0174200D02*
X0158436Y0174200D01*
X0158436Y0171802D02*
X0177972Y0171802D01*
X0179768Y0169403D02*
X0158436Y0169403D01*
X0158836Y0167005D02*
X0179768Y0167005D01*
X0179768Y0164606D02*
X0158836Y0164606D01*
X0158705Y0162208D02*
X0179768Y0162208D01*
X0154668Y0162208D02*
X0154668Y0162208D01*
X0154668Y0164606D02*
X0154668Y0164606D01*
X0157425Y0186193D02*
X0170187Y0186193D01*
X0169868Y0188591D02*
X0158249Y0188591D01*
X0157242Y0190990D02*
X0170369Y0190990D01*
X0151910Y0186193D02*
X0149925Y0186193D01*
X0092712Y0159809D02*
X0061868Y0159809D01*
X0219392Y0193388D02*
X0219944Y0193388D01*
D29*
X0232109Y0197752D03*
X0154668Y0188500D03*
X0147168Y0188500D03*
X0138152Y0196984D03*
X0102168Y0148500D03*
X0084668Y0143500D03*
X0092168Y0136000D03*
X0109274Y0124524D03*
X0132168Y0118500D03*
X0135258Y0115075D03*
X0135258Y0129248D03*
X0137168Y0141000D03*
X0132168Y0146000D03*
X0154668Y0141000D03*
X0162168Y0141000D03*
X0121085Y0098539D03*
X0107168Y0093500D03*
X0099825Y0077280D03*
X0128172Y0077280D03*
X0144668Y0068500D03*
X0144668Y0058500D03*
X0152168Y0058500D03*
X0157168Y0058500D03*
X0142345Y0093815D03*
X0232168Y0086000D03*
X0249668Y0118500D03*
X0399648Y0187260D03*
X0406597Y0046965D03*
D30*
X0217168Y0088500D03*
X0127168Y0088500D03*
X0204668Y0181000D03*
X0127168Y0188500D03*
D31*
X0217168Y0158500D03*
X0222168Y0153500D03*
X0227168Y0148500D03*
X0232168Y0143500D03*
X0237168Y0138500D03*
X0242168Y0133500D03*
X0247168Y0128500D03*
X0272168Y0131000D03*
X0277168Y0123500D03*
X0277168Y0138500D03*
X0294668Y0138500D03*
X0314668Y0138500D03*
X0334668Y0138500D03*
X0354668Y0138500D03*
X0374668Y0138500D03*
X0394668Y0138500D03*
X0414668Y0138500D03*
X0414668Y0166000D03*
X0394668Y0168500D03*
X0374668Y0168500D03*
X0354668Y0168500D03*
X0334668Y0168500D03*
X0314668Y0168500D03*
X0294668Y0168500D03*
X0272168Y0163500D03*
X0277168Y0156000D03*
X0269668Y0151000D03*
X0259668Y0166000D03*
X0264668Y0171000D03*
X0259668Y0183500D03*
X0274668Y0193500D03*
X0267168Y0196000D03*
X0289668Y0188500D03*
X0237168Y0181000D03*
X0224668Y0198500D03*
X0277168Y0108500D03*
X0294668Y0108500D03*
X0314668Y0108500D03*
X0334668Y0108500D03*
X0354668Y0108500D03*
X0374668Y0108500D03*
X0394668Y0108500D03*
X0414668Y0108500D03*
X0414668Y0078500D03*
X0394668Y0078500D03*
X0374668Y0078500D03*
X0354668Y0078500D03*
X0334668Y0078500D03*
X0314668Y0078500D03*
X0294668Y0078500D03*
X0277168Y0078500D03*
X0247168Y0066000D03*
X0237168Y0061000D03*
X0242168Y0088500D03*
X0277168Y0093500D03*
X0302168Y0058500D03*
X0329668Y0058500D03*
X0339668Y0058500D03*
X0349668Y0058500D03*
X0359668Y0058500D03*
X0369668Y0058500D03*
X0379668Y0058500D03*
X0142168Y0103500D03*
X0134668Y0098500D03*
X0114668Y0078500D03*
X0107168Y0071276D03*
D32*
X0122168Y0081000D02*
X0123388Y0082831D01*
X0127168Y0088500D01*
X0122168Y0081000D02*
X0122168Y0056500D01*
X0122168Y0048500D01*
X0124668Y0046000D01*
X0134668Y0046000D01*
X0137168Y0041000D01*
X0187168Y0041000D01*
X0194668Y0048500D01*
X0194668Y0033500D01*
X0189668Y0028500D01*
X0194668Y0048500D02*
X0194668Y0078500D01*
X0217168Y0088500D01*
X0137168Y0041000D02*
X0137168Y0035500D01*
X0096617Y0108500D02*
X0080928Y0102220D01*
X0096617Y0108500D02*
X0097168Y0126000D01*
X0097168Y0143500D01*
X0084668Y0143500D01*
X0097168Y0143500D02*
X0097168Y0158500D01*
X0094668Y0163500D01*
X0079668Y0165100D01*
X0075568Y0178400D01*
X0075568Y0188554D01*
X0082168Y0195154D01*
X0091971Y0195154D01*
X0092168Y0194957D01*
X0087168Y0188500D02*
X0097168Y0188500D01*
X0102168Y0183500D01*
X0107168Y0183500D01*
X0098014Y0188500D02*
X0104668Y0195154D01*
X0114471Y0195154D01*
X0114668Y0194957D01*
X0122168Y0194957D01*
X0127168Y0188500D01*
X0098014Y0188500D02*
X0097168Y0188500D01*
X0087168Y0188500D02*
X0084568Y0185900D01*
X0084568Y0178400D01*
D33*
X0217168Y0167476D02*
X0217168Y0158500D01*
X0222168Y0153500D02*
X0222168Y0167476D01*
X0227168Y0167476D02*
X0227168Y0148500D01*
X0232168Y0143500D02*
X0232168Y0167476D01*
X0237168Y0167476D02*
X0237168Y0138500D01*
X0242168Y0133500D02*
X0242168Y0167476D01*
X0247168Y0167476D02*
X0247168Y0128500D01*
X0259668Y0118500D02*
X0259668Y0166000D01*
X0264668Y0171000D02*
X0264668Y0113500D01*
X0252168Y0101000D01*
X0244668Y0101000D01*
X0237168Y0093500D01*
X0237168Y0074524D01*
X0242168Y0074524D02*
X0242168Y0076000D01*
X0242168Y0088500D01*
X0227168Y0091000D02*
X0244668Y0108500D01*
X0249668Y0108500D01*
X0259668Y0118500D01*
X0272168Y0121000D02*
X0274668Y0116000D01*
X0281215Y0116000D01*
X0288120Y0116000D02*
X0292168Y0116000D01*
X0294668Y0121000D01*
X0312168Y0121000D01*
X0332168Y0121000D01*
X0352168Y0121000D01*
X0372168Y0121000D01*
X0392168Y0121000D01*
X0412168Y0121000D01*
X0412168Y0126000D02*
X0423120Y0126000D01*
X0428120Y0131000D01*
X0429668Y0131000D01*
X0412168Y0126000D02*
X0392168Y0126000D01*
X0372168Y0126000D01*
X0352168Y0126000D01*
X0332168Y0126000D01*
X0312168Y0126000D01*
X0294668Y0126000D01*
X0288120Y0131000D01*
X0287168Y0136000D01*
X0282168Y0138500D01*
X0277168Y0138500D01*
X0272168Y0141000D02*
X0272168Y0131000D01*
X0272168Y0121000D01*
X0272168Y0106000D01*
X0272168Y0091000D01*
X0272168Y0076000D01*
X0274668Y0071000D01*
X0281215Y0071000D01*
X0281215Y0061000D01*
X0287168Y0056000D01*
X0292168Y0051846D01*
X0309668Y0051846D01*
X0319668Y0051846D02*
X0317168Y0058500D01*
X0302168Y0058500D01*
X0288120Y0071000D02*
X0287168Y0071000D01*
X0281215Y0086000D02*
X0277168Y0086000D01*
X0272168Y0091000D01*
X0277168Y0093500D02*
X0279668Y0093500D01*
X0282168Y0091000D01*
X0287168Y0091000D01*
X0281215Y0101000D02*
X0277168Y0101000D01*
X0272168Y0106000D01*
X0227168Y0091000D02*
X0227168Y0074524D01*
X0222168Y0074524D02*
X0222168Y0068500D01*
X0212168Y0063500D01*
X0212168Y0046000D01*
X0237168Y0021000D01*
X0359668Y0021000D01*
X0379668Y0038500D01*
X0379668Y0045154D01*
X0369668Y0045154D02*
X0369668Y0038500D01*
X0352168Y0023500D01*
X0239668Y0023500D01*
X0217168Y0046000D01*
X0217168Y0052476D01*
X0222168Y0052476D02*
X0222168Y0046000D01*
X0242168Y0026000D01*
X0347168Y0026000D01*
X0359668Y0038500D01*
X0359668Y0045154D01*
X0349668Y0045154D02*
X0349668Y0038500D01*
X0339668Y0028500D01*
X0244668Y0028500D01*
X0227168Y0046000D01*
X0227168Y0052476D01*
X0232168Y0052476D02*
X0232168Y0046000D01*
X0247168Y0031000D01*
X0332168Y0031000D01*
X0339668Y0038500D01*
X0339668Y0045154D01*
X0329668Y0045154D02*
X0329668Y0038500D01*
X0324668Y0033500D01*
X0249668Y0033500D01*
X0237168Y0046000D01*
X0237168Y0052476D01*
X0242168Y0052476D02*
X0242168Y0046000D01*
X0252168Y0036000D01*
X0314668Y0036000D01*
X0319668Y0041000D01*
X0319668Y0045154D01*
X0309668Y0045154D02*
X0309668Y0041000D01*
X0304668Y0038500D01*
X0254668Y0038500D01*
X0247168Y0046000D01*
X0247168Y0052476D01*
X0247168Y0066000D02*
X0247168Y0074524D01*
X0217168Y0074524D02*
X0217168Y0088500D01*
X0272168Y0131000D02*
X0281215Y0131000D01*
X0272168Y0141000D02*
X0277168Y0146000D01*
X0281215Y0146000D01*
X0281215Y0161000D02*
X0274668Y0161000D01*
X0272168Y0163500D01*
X0277168Y0168500D02*
X0284668Y0168500D01*
X0287168Y0171000D01*
X0288120Y0176000D01*
X0281215Y0176000D02*
X0281215Y0183500D01*
X0289668Y0188500D01*
X0269668Y0176000D02*
X0277168Y0168500D01*
X0269668Y0176000D02*
X0232168Y0176000D01*
X0222168Y0183500D01*
X0222168Y0189524D01*
X0237168Y0181000D02*
X0244668Y0181000D01*
X0247168Y0186000D01*
X0247168Y0189524D01*
X0252168Y0189524D02*
X0252168Y0190600D01*
X0259668Y0188500D01*
X0259668Y0183500D01*
X0242168Y0189524D02*
X0242168Y0196000D01*
X0247168Y0198500D01*
X0262168Y0198500D01*
X0267168Y0196000D01*
X0414668Y0166000D02*
X0417168Y0163500D01*
X0421215Y0161000D01*
X0414668Y0166000D02*
X0417168Y0168500D01*
X0424668Y0168500D01*
X0427168Y0171000D01*
X0427168Y0176000D01*
X0428120Y0176000D01*
X0428120Y0116000D02*
X0429668Y0116000D01*
X0379668Y0058500D02*
X0379668Y0051846D01*
X0369668Y0051846D02*
X0369668Y0058500D01*
X0359668Y0058500D02*
X0359668Y0051846D01*
X0349668Y0051846D02*
X0349668Y0058500D01*
X0339668Y0058500D02*
X0339668Y0051846D01*
X0329668Y0051846D02*
X0329668Y0058500D01*
X0123388Y0082831D02*
X0105317Y0100902D01*
X0099825Y0100902D01*
X0097463Y0098539D01*
X0097463Y0096177D01*
X0097463Y0093914D01*
X0097168Y0093619D01*
X0097463Y0096177D02*
X0095101Y0098539D01*
X0088014Y0098539D01*
X0085652Y0096177D01*
X0085652Y0093815D01*
X0083290Y0091453D01*
X0083290Y0085469D01*
X0082168Y0084346D01*
X0100908Y0093619D02*
X0101026Y0093500D01*
X0107168Y0093500D01*
X0114668Y0078500D02*
X0114668Y0071000D01*
X0117168Y0063500D01*
X0117168Y0056500D01*
X0112168Y0056500D02*
X0112168Y0066000D01*
X0107168Y0071276D01*
X0107168Y0056500D02*
X0107168Y0048500D01*
X0104668Y0046000D01*
X0091668Y0046000D01*
X0084668Y0039000D01*
X0078821Y0036500D01*
X0067168Y0037654D01*
X0084668Y0058000D02*
X0091668Y0051000D01*
X0099668Y0051000D01*
X0102168Y0053500D01*
X0102168Y0056500D01*
X0084668Y0058000D02*
X0077168Y0054346D01*
X0067168Y0055154D01*
D34*
X0093428Y0076591D02*
X0097463Y0072555D01*
X0105888Y0072555D01*
X0107168Y0071276D01*
X0114668Y0078500D02*
X0109786Y0083381D01*
X0100908Y0083381D01*
X0102187Y0084661D01*
X0102187Y0086728D01*
X0099825Y0089091D01*
X0095101Y0089091D01*
X0093428Y0090764D01*
X0093428Y0093619D01*
X0093428Y0083381D02*
X0093428Y0076591D01*
X0083014Y0084346D02*
X0082168Y0084346D01*
X0102168Y0108500D02*
X0117168Y0093500D01*
X0137168Y0093500D01*
X0145829Y0102161D01*
X0145829Y0112013D01*
X0143270Y0112013D02*
X0143270Y0107102D01*
X0142168Y0103500D01*
X0138152Y0101984D02*
X0134668Y0098500D01*
X0138152Y0101984D02*
X0138152Y0112013D01*
X0140711Y0112013D02*
X0140711Y0117457D01*
X0139668Y0118500D01*
X0132168Y0118500D01*
X0121668Y0123500D02*
X0112168Y0114000D01*
X0112711Y0114000D01*
X0123447Y0103264D01*
X0128172Y0103264D01*
X0129038Y0104130D01*
X0150947Y0112013D02*
X0150947Y0092280D01*
X0147168Y0088500D01*
X0127168Y0088500D01*
X0132168Y0083500D01*
X0138821Y0083500D01*
X0147168Y0076000D02*
X0153506Y0082339D01*
X0153506Y0112013D01*
X0156065Y0112013D02*
X0156065Y0079898D01*
X0149668Y0073500D01*
X0137168Y0073500D01*
X0132168Y0066000D01*
X0132168Y0056500D01*
X0127168Y0056500D02*
X0127168Y0066000D01*
X0134668Y0076000D01*
X0147168Y0076000D01*
X0144668Y0068500D02*
X0144668Y0058500D01*
X0152168Y0058500D02*
X0152168Y0068500D01*
X0158624Y0074957D01*
X0158624Y0112013D01*
X0161183Y0112013D02*
X0161183Y0072516D01*
X0157168Y0068500D01*
X0157168Y0058500D01*
X0187010Y0092000D02*
X0187010Y0100843D01*
X0189668Y0103500D01*
X0189668Y0136000D01*
X0187168Y0136000D01*
X0184668Y0138500D01*
X0184668Y0178500D01*
X0192168Y0181000D02*
X0192168Y0173500D01*
X0189668Y0171000D01*
X0189668Y0164500D01*
X0189668Y0142500D01*
X0169668Y0144445D02*
X0169668Y0136846D01*
X0161183Y0137516D02*
X0162168Y0141000D01*
X0161183Y0137516D02*
X0161183Y0134987D01*
X0158624Y0134987D02*
X0158624Y0127457D01*
X0154668Y0123500D01*
X0121668Y0123500D01*
X0119168Y0126000D02*
X0112168Y0133000D01*
X0119668Y0138500D01*
X0128821Y0138500D01*
X0129668Y0139346D01*
X0137168Y0141000D02*
X0137168Y0135972D01*
X0138152Y0134987D01*
X0140711Y0134987D02*
X0140711Y0147457D01*
X0137168Y0151000D01*
X0119668Y0151000D01*
X0117168Y0153500D01*
X0122168Y0158500D02*
X0112168Y0158500D01*
X0107168Y0163500D01*
X0117168Y0163500D02*
X0122168Y0163500D01*
X0129668Y0156000D01*
X0142168Y0156000D01*
X0145829Y0152339D01*
X0145829Y0134987D01*
X0143270Y0134987D02*
X0143270Y0149898D01*
X0139668Y0153500D01*
X0127168Y0153500D01*
X0122168Y0158500D01*
X0132168Y0158500D02*
X0122168Y0168500D01*
X0112168Y0168500D01*
X0107168Y0173500D01*
X0117168Y0183500D02*
X0124668Y0176000D01*
X0124668Y0173500D01*
X0134668Y0163500D01*
X0144668Y0163500D01*
X0150947Y0157220D01*
X0150947Y0134987D01*
X0148388Y0134987D02*
X0148388Y0154780D01*
X0144668Y0158500D01*
X0132168Y0158500D01*
X0132168Y0146000D02*
X0109668Y0146000D01*
X0107168Y0148500D01*
X0107168Y0153500D01*
X0102168Y0148500D02*
X0102168Y0108500D01*
X0092168Y0116000D02*
X0089668Y0113500D01*
X0089663Y0113500D01*
X0087202Y0111039D01*
X0082141Y0111039D01*
X0080928Y0111563D01*
X0092168Y0116000D02*
X0092168Y0136000D01*
X0119168Y0126000D02*
X0149668Y0126000D01*
X0156065Y0129898D01*
X0156065Y0134987D01*
X0153506Y0134987D02*
X0153506Y0137339D01*
X0154668Y0141000D01*
X0159451Y0145783D01*
X0168329Y0145783D01*
X0169668Y0144445D01*
X0182168Y0129500D02*
X0182168Y0107500D01*
X0217168Y0107500D02*
X0217168Y0129500D01*
X0217168Y0141000D01*
X0197168Y0161000D01*
X0197168Y0188500D01*
X0192168Y0193500D01*
X0179668Y0193500D01*
X0174668Y0188500D01*
X0184668Y0188500D02*
X0192168Y0181000D01*
X0182168Y0171000D02*
X0174668Y0178500D01*
X0182168Y0171000D02*
X0182168Y0129500D01*
X0269668Y0151000D02*
X0289668Y0151000D01*
X0292168Y0151000D01*
X0288120Y0146953D01*
X0288120Y0146000D01*
X0292168Y0151000D02*
X0312168Y0151000D01*
X0308120Y0146953D01*
X0308120Y0146000D01*
X0312168Y0151000D02*
X0332168Y0151000D01*
X0328120Y0146953D01*
X0328120Y0146000D01*
X0332168Y0151000D02*
X0352168Y0151000D01*
X0348120Y0146953D01*
X0348120Y0146000D01*
X0341215Y0146000D02*
X0341215Y0131000D01*
X0334668Y0137547D01*
X0334668Y0138500D01*
X0329668Y0131000D02*
X0328120Y0131000D01*
X0328120Y0130047D01*
X0332168Y0126000D01*
X0332168Y0121000D02*
X0328120Y0116953D01*
X0328120Y0116000D01*
X0321215Y0116000D02*
X0314668Y0109453D01*
X0314668Y0108500D01*
X0321215Y0116000D02*
X0321215Y0101000D01*
X0328120Y0101000D02*
X0328120Y0100047D01*
X0332168Y0096000D01*
X0352168Y0096000D01*
X0348120Y0100047D01*
X0348120Y0101000D01*
X0341215Y0101000D02*
X0341215Y0116000D01*
X0334668Y0109453D01*
X0334668Y0108500D01*
X0348120Y0116000D02*
X0348120Y0116953D01*
X0352168Y0121000D01*
X0361215Y0116000D02*
X0354668Y0109453D01*
X0354668Y0108500D01*
X0361215Y0101000D02*
X0361215Y0116000D01*
X0368120Y0116000D02*
X0368120Y0116953D01*
X0372168Y0121000D01*
X0381215Y0116000D02*
X0374668Y0109453D01*
X0374668Y0108500D01*
X0381215Y0116000D02*
X0381215Y0101000D01*
X0388120Y0101000D02*
X0388120Y0100047D01*
X0392168Y0096000D01*
X0412168Y0096000D01*
X0408120Y0100047D01*
X0408120Y0101000D01*
X0401215Y0101000D02*
X0401215Y0116000D01*
X0394668Y0109453D01*
X0394668Y0108500D01*
X0388120Y0116000D02*
X0388120Y0116953D01*
X0392168Y0121000D01*
X0392168Y0126000D02*
X0388120Y0130047D01*
X0388120Y0131000D01*
X0381215Y0131000D02*
X0374668Y0137547D01*
X0374668Y0138500D01*
X0381215Y0146000D02*
X0381215Y0131000D01*
X0372168Y0126000D02*
X0368120Y0130047D01*
X0368120Y0131000D01*
X0361215Y0131000D02*
X0354668Y0137547D01*
X0354668Y0138500D01*
X0361215Y0146000D02*
X0361215Y0131000D01*
X0352168Y0126000D02*
X0348120Y0130047D01*
X0348120Y0131000D01*
X0321215Y0131000D02*
X0319668Y0131000D01*
X0314668Y0136000D01*
X0314668Y0138500D01*
X0309668Y0131000D02*
X0309668Y0128500D01*
X0312168Y0126000D01*
X0309668Y0131000D02*
X0308120Y0131000D01*
X0301215Y0131000D02*
X0294668Y0137547D01*
X0294668Y0138500D01*
X0301215Y0131000D02*
X0301215Y0146000D01*
X0294668Y0156000D02*
X0289668Y0156000D01*
X0277168Y0156000D01*
X0288120Y0161000D02*
X0289668Y0161000D01*
X0294668Y0156000D01*
X0314668Y0156000D01*
X0309668Y0161000D01*
X0308120Y0161000D01*
X0301215Y0161000D02*
X0301215Y0176000D01*
X0294668Y0169453D01*
X0294668Y0168500D01*
X0289668Y0176000D02*
X0288120Y0176000D01*
X0289668Y0176000D02*
X0294668Y0181000D01*
X0309668Y0181000D01*
X0308120Y0176000D01*
X0309668Y0181000D02*
X0329668Y0181000D01*
X0328120Y0176000D01*
X0329668Y0181000D02*
X0349668Y0181000D01*
X0348120Y0176000D01*
X0341215Y0176000D02*
X0334668Y0169453D01*
X0334668Y0168500D01*
X0341215Y0176000D02*
X0341215Y0161000D01*
X0348120Y0161000D02*
X0349668Y0161000D01*
X0354668Y0156000D01*
X0374668Y0156000D01*
X0369668Y0161000D01*
X0368120Y0161000D01*
X0361215Y0161000D02*
X0361215Y0176000D01*
X0354668Y0169453D01*
X0354668Y0168500D01*
X0368120Y0176000D02*
X0369668Y0181000D01*
X0389668Y0181000D01*
X0388120Y0176000D01*
X0389668Y0181000D02*
X0409668Y0181000D01*
X0408120Y0176000D01*
X0401215Y0176000D02*
X0394668Y0169453D01*
X0394668Y0168500D01*
X0401215Y0176000D02*
X0401215Y0161000D01*
X0408120Y0161000D02*
X0409668Y0161000D01*
X0414668Y0156000D01*
X0425620Y0156000D01*
X0428120Y0161000D01*
X0414668Y0156000D02*
X0394668Y0156000D01*
X0389668Y0161000D01*
X0388120Y0161000D01*
X0381215Y0161000D02*
X0381215Y0176000D01*
X0374668Y0169453D01*
X0374668Y0168500D01*
X0369668Y0181000D02*
X0349668Y0181000D01*
X0321215Y0176000D02*
X0314668Y0169453D01*
X0314668Y0168500D01*
X0321215Y0176000D02*
X0321215Y0161000D01*
X0328120Y0161000D02*
X0329668Y0161000D01*
X0334668Y0156000D01*
X0354668Y0156000D01*
X0352168Y0151000D02*
X0372168Y0151000D01*
X0368120Y0146953D01*
X0368120Y0146000D01*
X0372168Y0151000D02*
X0392168Y0151000D01*
X0388120Y0146953D01*
X0388120Y0146000D01*
X0392168Y0151000D02*
X0412168Y0151000D01*
X0408120Y0146953D01*
X0408120Y0146000D01*
X0401215Y0146000D02*
X0401215Y0131000D01*
X0394668Y0137547D01*
X0394668Y0138500D01*
X0408120Y0131000D02*
X0408120Y0130047D01*
X0412168Y0126000D01*
X0421215Y0131000D02*
X0414668Y0137547D01*
X0414668Y0138500D01*
X0421215Y0131000D02*
X0421215Y0146000D01*
X0425620Y0151000D02*
X0428120Y0146000D01*
X0425620Y0151000D02*
X0412168Y0151000D01*
X0394668Y0156000D02*
X0374668Y0156000D01*
X0334668Y0156000D02*
X0314668Y0156000D01*
X0321215Y0146000D02*
X0321215Y0131000D01*
X0312168Y0121000D02*
X0308120Y0116953D01*
X0308120Y0116000D01*
X0301215Y0116000D02*
X0294668Y0109453D01*
X0294668Y0108500D01*
X0287168Y0106000D02*
X0287168Y0101953D01*
X0288120Y0101000D01*
X0289668Y0101000D01*
X0292168Y0096000D01*
X0312168Y0096000D01*
X0308120Y0100047D01*
X0308120Y0101000D01*
X0312168Y0096000D02*
X0332168Y0096000D01*
X0332168Y0091000D02*
X0328120Y0086953D01*
X0328120Y0086000D01*
X0332168Y0091000D02*
X0352168Y0091000D01*
X0348120Y0086953D01*
X0348120Y0086000D01*
X0341215Y0086000D02*
X0341215Y0071000D01*
X0334668Y0077547D01*
X0334668Y0078500D01*
X0328120Y0071000D02*
X0328120Y0070047D01*
X0334668Y0063500D01*
X0354668Y0063500D01*
X0348120Y0070047D01*
X0348120Y0071000D01*
X0354668Y0077547D02*
X0361215Y0071000D01*
X0361215Y0086000D01*
X0368120Y0086000D02*
X0368120Y0086953D01*
X0372168Y0091000D01*
X0392168Y0091000D01*
X0388120Y0086953D01*
X0388120Y0086000D01*
X0392168Y0091000D02*
X0412168Y0091000D01*
X0408120Y0086953D01*
X0408120Y0086000D01*
X0401215Y0086000D02*
X0401215Y0071000D01*
X0394668Y0077547D01*
X0394668Y0078500D01*
X0388120Y0071000D02*
X0388120Y0070047D01*
X0394668Y0063500D01*
X0414668Y0063500D01*
X0408120Y0070047D01*
X0408120Y0071000D01*
X0414668Y0077547D02*
X0421215Y0071000D01*
X0421215Y0086000D01*
X0425620Y0091000D02*
X0428120Y0086000D01*
X0425620Y0091000D02*
X0412168Y0091000D01*
X0412168Y0096000D02*
X0425620Y0096000D01*
X0428120Y0101000D01*
X0421215Y0101000D02*
X0421215Y0116000D01*
X0414668Y0109453D01*
X0414668Y0108500D01*
X0408120Y0116000D02*
X0408120Y0116953D01*
X0412168Y0121000D01*
X0424668Y0121000D01*
X0427168Y0118500D01*
X0427168Y0116953D01*
X0428120Y0116000D01*
X0392168Y0096000D02*
X0372168Y0096000D01*
X0368120Y0100047D01*
X0368120Y0101000D01*
X0372168Y0096000D02*
X0352168Y0096000D01*
X0352168Y0091000D02*
X0372168Y0091000D01*
X0381215Y0086000D02*
X0381215Y0071000D01*
X0374668Y0077547D01*
X0374668Y0078500D01*
X0368120Y0071000D02*
X0368120Y0070047D01*
X0374668Y0063500D01*
X0394668Y0063500D01*
X0374668Y0063500D02*
X0354668Y0063500D01*
X0334668Y0063500D02*
X0314668Y0063500D01*
X0294668Y0063500D01*
X0287168Y0071000D01*
X0287168Y0076000D01*
X0284668Y0078500D01*
X0277168Y0078500D01*
X0288120Y0086000D02*
X0287168Y0091000D01*
X0312168Y0091000D01*
X0308120Y0086953D01*
X0308120Y0086000D01*
X0312168Y0091000D02*
X0332168Y0091000D01*
X0321215Y0086000D02*
X0321215Y0071000D01*
X0314668Y0077547D01*
X0314668Y0078500D01*
X0308120Y0071000D02*
X0308120Y0070047D01*
X0314668Y0063500D01*
X0301215Y0071000D02*
X0294668Y0077547D01*
X0294668Y0078500D01*
X0301215Y0071000D02*
X0301215Y0086000D01*
X0301215Y0101000D02*
X0301215Y0116000D01*
X0288120Y0116000D02*
X0287168Y0116953D01*
X0287168Y0121000D01*
X0284668Y0123500D01*
X0277168Y0123500D01*
X0277168Y0108500D02*
X0284668Y0108500D01*
X0287168Y0106000D01*
X0242168Y0076000D02*
X0242168Y0066000D01*
X0237168Y0061000D01*
X0354668Y0077547D02*
X0354668Y0078500D01*
X0414668Y0078500D02*
X0414668Y0077547D01*
X0428120Y0071000D02*
X0425620Y0063500D01*
X0414668Y0063500D01*
X0421215Y0176000D02*
X0416215Y0181000D01*
X0409668Y0181000D01*
X0274668Y0193500D02*
X0274668Y0198500D01*
X0269668Y0203500D01*
X0242168Y0203500D01*
X0237168Y0198500D01*
X0237168Y0189524D01*
X0227168Y0189524D02*
X0227168Y0196000D01*
X0224668Y0198500D01*
X0242168Y0203500D02*
X0147168Y0203500D01*
X0138152Y0196984D01*
X0147168Y0188500D02*
X0127168Y0188500D01*
X0154668Y0188500D02*
X0154668Y0171846D01*
M02*
