G75*
%MOIN*%
%OFA0B0*%
%FSLAX25Y25*%
%IPPOS*%
%LPD*%
%AMOC8*
5,1,8,0,0,1.08239X$1,22.5*
%
%ADD10C,0.00000*%
%ADD11R,0.03000X0.06000*%
%ADD12R,0.05906X0.02756*%
%ADD13R,0.02362X0.03937*%
%ADD14R,0.03150X0.03937*%
%ADD15R,0.05315X0.01575*%
%ADD16R,0.07874X0.03937*%
%ADD17R,0.09843X0.09843*%
%ADD18C,0.00500*%
D10*
X0059668Y0020048D02*
X0059668Y0185402D01*
X0059673Y0185783D01*
X0059686Y0186163D01*
X0059709Y0186543D01*
X0059742Y0186922D01*
X0059783Y0187300D01*
X0059833Y0187677D01*
X0059893Y0188053D01*
X0059961Y0188428D01*
X0060039Y0188800D01*
X0060126Y0189171D01*
X0060221Y0189539D01*
X0060326Y0189905D01*
X0060439Y0190268D01*
X0060561Y0190629D01*
X0060691Y0190986D01*
X0060831Y0191340D01*
X0060978Y0191691D01*
X0061135Y0192038D01*
X0061299Y0192381D01*
X0061472Y0192720D01*
X0061653Y0193055D01*
X0061842Y0193386D01*
X0062039Y0193711D01*
X0062243Y0194032D01*
X0062456Y0194348D01*
X0062676Y0194658D01*
X0062903Y0194964D01*
X0063138Y0195263D01*
X0063380Y0195557D01*
X0063628Y0195845D01*
X0063884Y0196127D01*
X0064147Y0196402D01*
X0064416Y0196671D01*
X0064691Y0196934D01*
X0064973Y0197190D01*
X0065261Y0197438D01*
X0065555Y0197680D01*
X0065854Y0197915D01*
X0066160Y0198142D01*
X0066470Y0198362D01*
X0066786Y0198575D01*
X0067107Y0198779D01*
X0067432Y0198976D01*
X0067763Y0199165D01*
X0068098Y0199346D01*
X0068437Y0199519D01*
X0068780Y0199683D01*
X0069127Y0199840D01*
X0069478Y0199987D01*
X0069832Y0200127D01*
X0070189Y0200257D01*
X0070550Y0200379D01*
X0070913Y0200492D01*
X0071279Y0200597D01*
X0071647Y0200692D01*
X0072018Y0200779D01*
X0072390Y0200857D01*
X0072765Y0200925D01*
X0073141Y0200985D01*
X0073518Y0201035D01*
X0073896Y0201076D01*
X0074275Y0201109D01*
X0074655Y0201132D01*
X0075035Y0201145D01*
X0075416Y0201150D01*
X0437620Y0201150D01*
X0438001Y0201145D01*
X0438381Y0201132D01*
X0438761Y0201109D01*
X0439140Y0201076D01*
X0439518Y0201035D01*
X0439895Y0200985D01*
X0440271Y0200925D01*
X0440646Y0200857D01*
X0441018Y0200779D01*
X0441389Y0200692D01*
X0441757Y0200597D01*
X0442123Y0200492D01*
X0442486Y0200379D01*
X0442847Y0200257D01*
X0443204Y0200127D01*
X0443558Y0199987D01*
X0443909Y0199840D01*
X0444256Y0199683D01*
X0444599Y0199519D01*
X0444938Y0199346D01*
X0445273Y0199165D01*
X0445604Y0198976D01*
X0445929Y0198779D01*
X0446250Y0198575D01*
X0446566Y0198362D01*
X0446876Y0198142D01*
X0447182Y0197915D01*
X0447481Y0197680D01*
X0447775Y0197438D01*
X0448063Y0197190D01*
X0448345Y0196934D01*
X0448620Y0196671D01*
X0448889Y0196402D01*
X0449152Y0196127D01*
X0449408Y0195845D01*
X0449656Y0195557D01*
X0449898Y0195263D01*
X0450133Y0194964D01*
X0450360Y0194658D01*
X0450580Y0194348D01*
X0450793Y0194032D01*
X0450997Y0193711D01*
X0451194Y0193386D01*
X0451383Y0193055D01*
X0451564Y0192720D01*
X0451737Y0192381D01*
X0451901Y0192038D01*
X0452058Y0191691D01*
X0452205Y0191340D01*
X0452345Y0190986D01*
X0452475Y0190629D01*
X0452597Y0190268D01*
X0452710Y0189905D01*
X0452815Y0189539D01*
X0452910Y0189171D01*
X0452997Y0188800D01*
X0453075Y0188428D01*
X0453143Y0188053D01*
X0453203Y0187677D01*
X0453253Y0187300D01*
X0453294Y0186922D01*
X0453327Y0186543D01*
X0453350Y0186163D01*
X0453363Y0185783D01*
X0453368Y0185402D01*
X0453369Y0185402D02*
X0453369Y0020048D01*
X0453368Y0020048D02*
X0453363Y0019667D01*
X0453350Y0019287D01*
X0453327Y0018907D01*
X0453294Y0018528D01*
X0453253Y0018150D01*
X0453203Y0017773D01*
X0453143Y0017397D01*
X0453075Y0017022D01*
X0452997Y0016650D01*
X0452910Y0016279D01*
X0452815Y0015911D01*
X0452710Y0015545D01*
X0452597Y0015182D01*
X0452475Y0014821D01*
X0452345Y0014464D01*
X0452205Y0014110D01*
X0452058Y0013759D01*
X0451901Y0013412D01*
X0451737Y0013069D01*
X0451564Y0012730D01*
X0451383Y0012395D01*
X0451194Y0012064D01*
X0450997Y0011739D01*
X0450793Y0011418D01*
X0450580Y0011102D01*
X0450360Y0010792D01*
X0450133Y0010486D01*
X0449898Y0010187D01*
X0449656Y0009893D01*
X0449408Y0009605D01*
X0449152Y0009323D01*
X0448889Y0009048D01*
X0448620Y0008779D01*
X0448345Y0008516D01*
X0448063Y0008260D01*
X0447775Y0008012D01*
X0447481Y0007770D01*
X0447182Y0007535D01*
X0446876Y0007308D01*
X0446566Y0007088D01*
X0446250Y0006875D01*
X0445929Y0006671D01*
X0445604Y0006474D01*
X0445273Y0006285D01*
X0444938Y0006104D01*
X0444599Y0005931D01*
X0444256Y0005767D01*
X0443909Y0005610D01*
X0443558Y0005463D01*
X0443204Y0005323D01*
X0442847Y0005193D01*
X0442486Y0005071D01*
X0442123Y0004958D01*
X0441757Y0004853D01*
X0441389Y0004758D01*
X0441018Y0004671D01*
X0440646Y0004593D01*
X0440271Y0004525D01*
X0439895Y0004465D01*
X0439518Y0004415D01*
X0439140Y0004374D01*
X0438761Y0004341D01*
X0438381Y0004318D01*
X0438001Y0004305D01*
X0437620Y0004300D01*
X0075416Y0004300D01*
X0075035Y0004305D01*
X0074655Y0004318D01*
X0074275Y0004341D01*
X0073896Y0004374D01*
X0073518Y0004415D01*
X0073141Y0004465D01*
X0072765Y0004525D01*
X0072390Y0004593D01*
X0072018Y0004671D01*
X0071647Y0004758D01*
X0071279Y0004853D01*
X0070913Y0004958D01*
X0070550Y0005071D01*
X0070189Y0005193D01*
X0069832Y0005323D01*
X0069478Y0005463D01*
X0069127Y0005610D01*
X0068780Y0005767D01*
X0068437Y0005931D01*
X0068098Y0006104D01*
X0067763Y0006285D01*
X0067432Y0006474D01*
X0067107Y0006671D01*
X0066786Y0006875D01*
X0066470Y0007088D01*
X0066160Y0007308D01*
X0065854Y0007535D01*
X0065555Y0007770D01*
X0065261Y0008012D01*
X0064973Y0008260D01*
X0064691Y0008516D01*
X0064416Y0008779D01*
X0064147Y0009048D01*
X0063884Y0009323D01*
X0063628Y0009605D01*
X0063380Y0009893D01*
X0063138Y0010187D01*
X0062903Y0010486D01*
X0062676Y0010792D01*
X0062456Y0011102D01*
X0062243Y0011418D01*
X0062039Y0011739D01*
X0061842Y0012064D01*
X0061653Y0012395D01*
X0061472Y0012730D01*
X0061299Y0013069D01*
X0061135Y0013412D01*
X0060978Y0013759D01*
X0060831Y0014110D01*
X0060691Y0014464D01*
X0060561Y0014821D01*
X0060439Y0015182D01*
X0060326Y0015545D01*
X0060221Y0015911D01*
X0060126Y0016279D01*
X0060039Y0016650D01*
X0059961Y0017022D01*
X0059893Y0017397D01*
X0059833Y0017773D01*
X0059783Y0018150D01*
X0059742Y0018528D01*
X0059709Y0018907D01*
X0059686Y0019287D01*
X0059673Y0019667D01*
X0059668Y0020048D01*
X0068920Y0097942D02*
X0068922Y0098035D01*
X0068928Y0098127D01*
X0068938Y0098219D01*
X0068952Y0098310D01*
X0068969Y0098401D01*
X0068991Y0098491D01*
X0069016Y0098580D01*
X0069045Y0098668D01*
X0069078Y0098754D01*
X0069115Y0098839D01*
X0069155Y0098923D01*
X0069199Y0099004D01*
X0069246Y0099084D01*
X0069296Y0099162D01*
X0069350Y0099237D01*
X0069407Y0099310D01*
X0069467Y0099380D01*
X0069530Y0099448D01*
X0069596Y0099513D01*
X0069664Y0099575D01*
X0069735Y0099635D01*
X0069809Y0099691D01*
X0069885Y0099744D01*
X0069963Y0099793D01*
X0070043Y0099840D01*
X0070125Y0099882D01*
X0070209Y0099922D01*
X0070294Y0099957D01*
X0070381Y0099989D01*
X0070469Y0100018D01*
X0070558Y0100042D01*
X0070648Y0100063D01*
X0070739Y0100079D01*
X0070831Y0100092D01*
X0070923Y0100101D01*
X0071016Y0100106D01*
X0071108Y0100107D01*
X0071201Y0100104D01*
X0071293Y0100097D01*
X0071385Y0100086D01*
X0071476Y0100071D01*
X0071567Y0100053D01*
X0071657Y0100030D01*
X0071745Y0100004D01*
X0071833Y0099974D01*
X0071919Y0099940D01*
X0072003Y0099903D01*
X0072086Y0099861D01*
X0072167Y0099817D01*
X0072247Y0099769D01*
X0072324Y0099718D01*
X0072398Y0099663D01*
X0072471Y0099605D01*
X0072541Y0099545D01*
X0072608Y0099481D01*
X0072672Y0099415D01*
X0072734Y0099345D01*
X0072792Y0099274D01*
X0072847Y0099200D01*
X0072899Y0099123D01*
X0072948Y0099044D01*
X0072994Y0098964D01*
X0073036Y0098881D01*
X0073074Y0098797D01*
X0073109Y0098711D01*
X0073140Y0098624D01*
X0073167Y0098536D01*
X0073190Y0098446D01*
X0073210Y0098356D01*
X0073226Y0098265D01*
X0073238Y0098173D01*
X0073246Y0098081D01*
X0073250Y0097988D01*
X0073250Y0097896D01*
X0073246Y0097803D01*
X0073238Y0097711D01*
X0073226Y0097619D01*
X0073210Y0097528D01*
X0073190Y0097438D01*
X0073167Y0097348D01*
X0073140Y0097260D01*
X0073109Y0097173D01*
X0073074Y0097087D01*
X0073036Y0097003D01*
X0072994Y0096920D01*
X0072948Y0096840D01*
X0072899Y0096761D01*
X0072847Y0096684D01*
X0072792Y0096610D01*
X0072734Y0096539D01*
X0072672Y0096469D01*
X0072608Y0096403D01*
X0072541Y0096339D01*
X0072471Y0096279D01*
X0072398Y0096221D01*
X0072324Y0096166D01*
X0072247Y0096115D01*
X0072168Y0096067D01*
X0072086Y0096023D01*
X0072003Y0095981D01*
X0071919Y0095944D01*
X0071833Y0095910D01*
X0071745Y0095880D01*
X0071657Y0095854D01*
X0071567Y0095831D01*
X0071476Y0095813D01*
X0071385Y0095798D01*
X0071293Y0095787D01*
X0071201Y0095780D01*
X0071108Y0095777D01*
X0071016Y0095778D01*
X0070923Y0095783D01*
X0070831Y0095792D01*
X0070739Y0095805D01*
X0070648Y0095821D01*
X0070558Y0095842D01*
X0070469Y0095866D01*
X0070381Y0095895D01*
X0070294Y0095927D01*
X0070209Y0095962D01*
X0070125Y0096002D01*
X0070043Y0096044D01*
X0069963Y0096091D01*
X0069885Y0096140D01*
X0069809Y0096193D01*
X0069735Y0096249D01*
X0069664Y0096309D01*
X0069596Y0096371D01*
X0069530Y0096436D01*
X0069467Y0096504D01*
X0069407Y0096574D01*
X0069350Y0096647D01*
X0069296Y0096722D01*
X0069246Y0096800D01*
X0069199Y0096880D01*
X0069155Y0096961D01*
X0069115Y0097045D01*
X0069078Y0097130D01*
X0069045Y0097216D01*
X0069016Y0097304D01*
X0068991Y0097393D01*
X0068969Y0097483D01*
X0068952Y0097574D01*
X0068938Y0097665D01*
X0068928Y0097757D01*
X0068922Y0097849D01*
X0068920Y0097942D01*
X0068920Y0115658D02*
X0068922Y0115751D01*
X0068928Y0115843D01*
X0068938Y0115935D01*
X0068952Y0116026D01*
X0068969Y0116117D01*
X0068991Y0116207D01*
X0069016Y0116296D01*
X0069045Y0116384D01*
X0069078Y0116470D01*
X0069115Y0116555D01*
X0069155Y0116639D01*
X0069199Y0116720D01*
X0069246Y0116800D01*
X0069296Y0116878D01*
X0069350Y0116953D01*
X0069407Y0117026D01*
X0069467Y0117096D01*
X0069530Y0117164D01*
X0069596Y0117229D01*
X0069664Y0117291D01*
X0069735Y0117351D01*
X0069809Y0117407D01*
X0069885Y0117460D01*
X0069963Y0117509D01*
X0070043Y0117556D01*
X0070125Y0117598D01*
X0070209Y0117638D01*
X0070294Y0117673D01*
X0070381Y0117705D01*
X0070469Y0117734D01*
X0070558Y0117758D01*
X0070648Y0117779D01*
X0070739Y0117795D01*
X0070831Y0117808D01*
X0070923Y0117817D01*
X0071016Y0117822D01*
X0071108Y0117823D01*
X0071201Y0117820D01*
X0071293Y0117813D01*
X0071385Y0117802D01*
X0071476Y0117787D01*
X0071567Y0117769D01*
X0071657Y0117746D01*
X0071745Y0117720D01*
X0071833Y0117690D01*
X0071919Y0117656D01*
X0072003Y0117619D01*
X0072086Y0117577D01*
X0072167Y0117533D01*
X0072247Y0117485D01*
X0072324Y0117434D01*
X0072398Y0117379D01*
X0072471Y0117321D01*
X0072541Y0117261D01*
X0072608Y0117197D01*
X0072672Y0117131D01*
X0072734Y0117061D01*
X0072792Y0116990D01*
X0072847Y0116916D01*
X0072899Y0116839D01*
X0072948Y0116760D01*
X0072994Y0116680D01*
X0073036Y0116597D01*
X0073074Y0116513D01*
X0073109Y0116427D01*
X0073140Y0116340D01*
X0073167Y0116252D01*
X0073190Y0116162D01*
X0073210Y0116072D01*
X0073226Y0115981D01*
X0073238Y0115889D01*
X0073246Y0115797D01*
X0073250Y0115704D01*
X0073250Y0115612D01*
X0073246Y0115519D01*
X0073238Y0115427D01*
X0073226Y0115335D01*
X0073210Y0115244D01*
X0073190Y0115154D01*
X0073167Y0115064D01*
X0073140Y0114976D01*
X0073109Y0114889D01*
X0073074Y0114803D01*
X0073036Y0114719D01*
X0072994Y0114636D01*
X0072948Y0114556D01*
X0072899Y0114477D01*
X0072847Y0114400D01*
X0072792Y0114326D01*
X0072734Y0114255D01*
X0072672Y0114185D01*
X0072608Y0114119D01*
X0072541Y0114055D01*
X0072471Y0113995D01*
X0072398Y0113937D01*
X0072324Y0113882D01*
X0072247Y0113831D01*
X0072168Y0113783D01*
X0072086Y0113739D01*
X0072003Y0113697D01*
X0071919Y0113660D01*
X0071833Y0113626D01*
X0071745Y0113596D01*
X0071657Y0113570D01*
X0071567Y0113547D01*
X0071476Y0113529D01*
X0071385Y0113514D01*
X0071293Y0113503D01*
X0071201Y0113496D01*
X0071108Y0113493D01*
X0071016Y0113494D01*
X0070923Y0113499D01*
X0070831Y0113508D01*
X0070739Y0113521D01*
X0070648Y0113537D01*
X0070558Y0113558D01*
X0070469Y0113582D01*
X0070381Y0113611D01*
X0070294Y0113643D01*
X0070209Y0113678D01*
X0070125Y0113718D01*
X0070043Y0113760D01*
X0069963Y0113807D01*
X0069885Y0113856D01*
X0069809Y0113909D01*
X0069735Y0113965D01*
X0069664Y0114025D01*
X0069596Y0114087D01*
X0069530Y0114152D01*
X0069467Y0114220D01*
X0069407Y0114290D01*
X0069350Y0114363D01*
X0069296Y0114438D01*
X0069246Y0114516D01*
X0069199Y0114596D01*
X0069155Y0114677D01*
X0069115Y0114761D01*
X0069078Y0114846D01*
X0069045Y0114932D01*
X0069016Y0115020D01*
X0068991Y0115109D01*
X0068969Y0115199D01*
X0068952Y0115290D01*
X0068938Y0115381D01*
X0068928Y0115473D01*
X0068922Y0115565D01*
X0068920Y0115658D01*
X0067935Y0144457D02*
X0070298Y0144457D01*
X0070297Y0144457D02*
X0070360Y0144465D01*
X0070422Y0144476D01*
X0070484Y0144491D01*
X0070544Y0144509D01*
X0070604Y0144531D01*
X0070662Y0144556D01*
X0070718Y0144585D01*
X0070773Y0144617D01*
X0070825Y0144652D01*
X0070876Y0144690D01*
X0070924Y0144730D01*
X0070970Y0144774D01*
X0071013Y0144820D01*
X0071054Y0144869D01*
X0071092Y0144920D01*
X0071126Y0144972D01*
X0071158Y0145027D01*
X0071186Y0145084D01*
X0071211Y0145142D01*
X0071232Y0145202D01*
X0071250Y0145262D01*
X0071264Y0145324D01*
X0071275Y0145386D01*
X0071282Y0145449D01*
X0071286Y0145512D01*
X0071285Y0145575D01*
X0071282Y0145638D01*
X0071282Y0145639D02*
X0071285Y0145702D01*
X0071286Y0145765D01*
X0071282Y0145828D01*
X0071275Y0145891D01*
X0071264Y0145953D01*
X0071250Y0146015D01*
X0071232Y0146075D01*
X0071211Y0146135D01*
X0071186Y0146193D01*
X0071158Y0146250D01*
X0071126Y0146305D01*
X0071092Y0146357D01*
X0071054Y0146408D01*
X0071013Y0146457D01*
X0070970Y0146503D01*
X0070924Y0146547D01*
X0070876Y0146587D01*
X0070825Y0146625D01*
X0070773Y0146660D01*
X0070718Y0146692D01*
X0070662Y0146721D01*
X0070604Y0146746D01*
X0070544Y0146768D01*
X0070484Y0146786D01*
X0070422Y0146801D01*
X0070360Y0146812D01*
X0070297Y0146820D01*
X0070298Y0146820D02*
X0067935Y0146820D01*
X0067936Y0146820D02*
X0067870Y0146812D01*
X0067806Y0146800D01*
X0067742Y0146784D01*
X0067679Y0146765D01*
X0067618Y0146741D01*
X0067558Y0146714D01*
X0067500Y0146684D01*
X0067444Y0146650D01*
X0067390Y0146613D01*
X0067338Y0146572D01*
X0067289Y0146528D01*
X0067242Y0146482D01*
X0067199Y0146433D01*
X0067158Y0146381D01*
X0067121Y0146327D01*
X0067087Y0146271D01*
X0067057Y0146213D01*
X0067030Y0146153D01*
X0067006Y0146092D01*
X0066987Y0146029D01*
X0066971Y0145965D01*
X0066959Y0145901D01*
X0066951Y0145835D01*
X0066947Y0145770D01*
X0066947Y0145704D01*
X0066951Y0145639D01*
X0066951Y0145638D02*
X0066947Y0145573D01*
X0066947Y0145507D01*
X0066951Y0145442D01*
X0066959Y0145376D01*
X0066971Y0145312D01*
X0066987Y0145248D01*
X0067006Y0145185D01*
X0067030Y0145124D01*
X0067057Y0145064D01*
X0067087Y0145006D01*
X0067121Y0144950D01*
X0067158Y0144896D01*
X0067199Y0144844D01*
X0067242Y0144795D01*
X0067289Y0144749D01*
X0067338Y0144705D01*
X0067390Y0144664D01*
X0067444Y0144627D01*
X0067500Y0144593D01*
X0067558Y0144563D01*
X0067618Y0144536D01*
X0067679Y0144512D01*
X0067742Y0144493D01*
X0067806Y0144477D01*
X0067870Y0144465D01*
X0067936Y0144457D01*
X0075219Y0152135D02*
X0075221Y0152209D01*
X0075227Y0152283D01*
X0075237Y0152356D01*
X0075251Y0152429D01*
X0075268Y0152501D01*
X0075290Y0152571D01*
X0075315Y0152641D01*
X0075344Y0152709D01*
X0075377Y0152775D01*
X0075413Y0152840D01*
X0075453Y0152902D01*
X0075495Y0152963D01*
X0075541Y0153021D01*
X0075590Y0153076D01*
X0075642Y0153129D01*
X0075697Y0153179D01*
X0075754Y0153225D01*
X0075814Y0153269D01*
X0075876Y0153309D01*
X0075940Y0153346D01*
X0076006Y0153380D01*
X0076074Y0153410D01*
X0076143Y0153436D01*
X0076214Y0153459D01*
X0076285Y0153477D01*
X0076358Y0153492D01*
X0076431Y0153503D01*
X0076505Y0153510D01*
X0076579Y0153513D01*
X0076652Y0153512D01*
X0076726Y0153507D01*
X0076800Y0153498D01*
X0076873Y0153485D01*
X0076945Y0153468D01*
X0077016Y0153448D01*
X0077086Y0153423D01*
X0077154Y0153395D01*
X0077221Y0153364D01*
X0077286Y0153328D01*
X0077349Y0153290D01*
X0077410Y0153248D01*
X0077469Y0153202D01*
X0077525Y0153154D01*
X0077578Y0153103D01*
X0077628Y0153049D01*
X0077676Y0152992D01*
X0077720Y0152933D01*
X0077762Y0152871D01*
X0077800Y0152808D01*
X0077834Y0152742D01*
X0077865Y0152675D01*
X0077892Y0152606D01*
X0077915Y0152536D01*
X0077935Y0152465D01*
X0077951Y0152392D01*
X0077963Y0152319D01*
X0077971Y0152246D01*
X0077975Y0152172D01*
X0077975Y0152098D01*
X0077971Y0152024D01*
X0077963Y0151951D01*
X0077951Y0151878D01*
X0077935Y0151805D01*
X0077915Y0151734D01*
X0077892Y0151664D01*
X0077865Y0151595D01*
X0077834Y0151528D01*
X0077800Y0151462D01*
X0077762Y0151399D01*
X0077720Y0151337D01*
X0077676Y0151278D01*
X0077628Y0151221D01*
X0077578Y0151167D01*
X0077525Y0151116D01*
X0077469Y0151068D01*
X0077410Y0151022D01*
X0077349Y0150980D01*
X0077286Y0150942D01*
X0077221Y0150906D01*
X0077154Y0150875D01*
X0077086Y0150847D01*
X0077016Y0150822D01*
X0076945Y0150802D01*
X0076873Y0150785D01*
X0076800Y0150772D01*
X0076726Y0150763D01*
X0076652Y0150758D01*
X0076579Y0150757D01*
X0076505Y0150760D01*
X0076431Y0150767D01*
X0076358Y0150778D01*
X0076285Y0150793D01*
X0076214Y0150811D01*
X0076143Y0150834D01*
X0076074Y0150860D01*
X0076006Y0150890D01*
X0075940Y0150924D01*
X0075876Y0150961D01*
X0075814Y0151001D01*
X0075754Y0151045D01*
X0075697Y0151091D01*
X0075642Y0151141D01*
X0075590Y0151194D01*
X0075541Y0151249D01*
X0075495Y0151307D01*
X0075453Y0151368D01*
X0075413Y0151430D01*
X0075377Y0151495D01*
X0075344Y0151561D01*
X0075315Y0151629D01*
X0075290Y0151699D01*
X0075268Y0151769D01*
X0075251Y0151841D01*
X0075237Y0151914D01*
X0075227Y0151987D01*
X0075221Y0152061D01*
X0075219Y0152135D01*
X0075219Y0167489D02*
X0075221Y0167563D01*
X0075227Y0167637D01*
X0075237Y0167710D01*
X0075251Y0167783D01*
X0075268Y0167855D01*
X0075290Y0167925D01*
X0075315Y0167995D01*
X0075344Y0168063D01*
X0075377Y0168129D01*
X0075413Y0168194D01*
X0075453Y0168256D01*
X0075495Y0168317D01*
X0075541Y0168375D01*
X0075590Y0168430D01*
X0075642Y0168483D01*
X0075697Y0168533D01*
X0075754Y0168579D01*
X0075814Y0168623D01*
X0075876Y0168663D01*
X0075940Y0168700D01*
X0076006Y0168734D01*
X0076074Y0168764D01*
X0076143Y0168790D01*
X0076214Y0168813D01*
X0076285Y0168831D01*
X0076358Y0168846D01*
X0076431Y0168857D01*
X0076505Y0168864D01*
X0076579Y0168867D01*
X0076652Y0168866D01*
X0076726Y0168861D01*
X0076800Y0168852D01*
X0076873Y0168839D01*
X0076945Y0168822D01*
X0077016Y0168802D01*
X0077086Y0168777D01*
X0077154Y0168749D01*
X0077221Y0168718D01*
X0077286Y0168682D01*
X0077349Y0168644D01*
X0077410Y0168602D01*
X0077469Y0168556D01*
X0077525Y0168508D01*
X0077578Y0168457D01*
X0077628Y0168403D01*
X0077676Y0168346D01*
X0077720Y0168287D01*
X0077762Y0168225D01*
X0077800Y0168162D01*
X0077834Y0168096D01*
X0077865Y0168029D01*
X0077892Y0167960D01*
X0077915Y0167890D01*
X0077935Y0167819D01*
X0077951Y0167746D01*
X0077963Y0167673D01*
X0077971Y0167600D01*
X0077975Y0167526D01*
X0077975Y0167452D01*
X0077971Y0167378D01*
X0077963Y0167305D01*
X0077951Y0167232D01*
X0077935Y0167159D01*
X0077915Y0167088D01*
X0077892Y0167018D01*
X0077865Y0166949D01*
X0077834Y0166882D01*
X0077800Y0166816D01*
X0077762Y0166753D01*
X0077720Y0166691D01*
X0077676Y0166632D01*
X0077628Y0166575D01*
X0077578Y0166521D01*
X0077525Y0166470D01*
X0077469Y0166422D01*
X0077410Y0166376D01*
X0077349Y0166334D01*
X0077286Y0166296D01*
X0077221Y0166260D01*
X0077154Y0166229D01*
X0077086Y0166201D01*
X0077016Y0166176D01*
X0076945Y0166156D01*
X0076873Y0166139D01*
X0076800Y0166126D01*
X0076726Y0166117D01*
X0076652Y0166112D01*
X0076579Y0166111D01*
X0076505Y0166114D01*
X0076431Y0166121D01*
X0076358Y0166132D01*
X0076285Y0166147D01*
X0076214Y0166165D01*
X0076143Y0166188D01*
X0076074Y0166214D01*
X0076006Y0166244D01*
X0075940Y0166278D01*
X0075876Y0166315D01*
X0075814Y0166355D01*
X0075754Y0166399D01*
X0075697Y0166445D01*
X0075642Y0166495D01*
X0075590Y0166548D01*
X0075541Y0166603D01*
X0075495Y0166661D01*
X0075453Y0166722D01*
X0075413Y0166784D01*
X0075377Y0166849D01*
X0075344Y0166915D01*
X0075315Y0166983D01*
X0075290Y0167053D01*
X0075268Y0167123D01*
X0075251Y0167195D01*
X0075237Y0167268D01*
X0075227Y0167341D01*
X0075221Y0167415D01*
X0075219Y0167489D01*
X0070298Y0172804D02*
X0067935Y0172804D01*
X0067936Y0172804D02*
X0067870Y0172812D01*
X0067806Y0172824D01*
X0067742Y0172840D01*
X0067679Y0172859D01*
X0067618Y0172883D01*
X0067558Y0172910D01*
X0067500Y0172940D01*
X0067444Y0172974D01*
X0067390Y0173011D01*
X0067338Y0173052D01*
X0067289Y0173096D01*
X0067242Y0173142D01*
X0067199Y0173191D01*
X0067158Y0173243D01*
X0067121Y0173297D01*
X0067087Y0173353D01*
X0067057Y0173411D01*
X0067030Y0173471D01*
X0067006Y0173532D01*
X0066987Y0173595D01*
X0066971Y0173659D01*
X0066959Y0173723D01*
X0066951Y0173789D01*
X0066947Y0173854D01*
X0066947Y0173920D01*
X0066951Y0173985D01*
X0066947Y0174050D01*
X0066947Y0174116D01*
X0066951Y0174181D01*
X0066959Y0174247D01*
X0066971Y0174311D01*
X0066987Y0174375D01*
X0067006Y0174438D01*
X0067030Y0174499D01*
X0067057Y0174559D01*
X0067087Y0174617D01*
X0067121Y0174673D01*
X0067158Y0174727D01*
X0067199Y0174779D01*
X0067242Y0174828D01*
X0067289Y0174874D01*
X0067338Y0174918D01*
X0067390Y0174959D01*
X0067444Y0174996D01*
X0067500Y0175030D01*
X0067558Y0175060D01*
X0067618Y0175087D01*
X0067679Y0175111D01*
X0067742Y0175130D01*
X0067806Y0175146D01*
X0067870Y0175158D01*
X0067936Y0175166D01*
X0067935Y0175166D02*
X0070298Y0175166D01*
X0070297Y0175166D02*
X0070360Y0175158D01*
X0070422Y0175147D01*
X0070484Y0175132D01*
X0070544Y0175114D01*
X0070604Y0175092D01*
X0070662Y0175067D01*
X0070718Y0175038D01*
X0070773Y0175006D01*
X0070825Y0174971D01*
X0070876Y0174933D01*
X0070924Y0174893D01*
X0070970Y0174849D01*
X0071013Y0174803D01*
X0071054Y0174754D01*
X0071092Y0174703D01*
X0071126Y0174651D01*
X0071158Y0174596D01*
X0071186Y0174539D01*
X0071211Y0174481D01*
X0071232Y0174421D01*
X0071250Y0174361D01*
X0071264Y0174299D01*
X0071275Y0174237D01*
X0071282Y0174174D01*
X0071286Y0174111D01*
X0071285Y0174048D01*
X0071282Y0173985D01*
X0071285Y0173922D01*
X0071286Y0173859D01*
X0071282Y0173796D01*
X0071275Y0173733D01*
X0071264Y0173671D01*
X0071250Y0173609D01*
X0071232Y0173549D01*
X0071211Y0173489D01*
X0071186Y0173431D01*
X0071158Y0173374D01*
X0071126Y0173319D01*
X0071092Y0173267D01*
X0071054Y0173216D01*
X0071013Y0173167D01*
X0070970Y0173121D01*
X0070924Y0173077D01*
X0070876Y0173037D01*
X0070825Y0172999D01*
X0070773Y0172964D01*
X0070718Y0172932D01*
X0070662Y0172903D01*
X0070604Y0172878D01*
X0070544Y0172856D01*
X0070484Y0172838D01*
X0070422Y0172823D01*
X0070360Y0172812D01*
X0070297Y0172804D01*
X0181911Y0157843D02*
X0181913Y0157927D01*
X0181919Y0158010D01*
X0181929Y0158093D01*
X0181943Y0158176D01*
X0181960Y0158258D01*
X0181982Y0158339D01*
X0182007Y0158418D01*
X0182036Y0158497D01*
X0182069Y0158574D01*
X0182105Y0158649D01*
X0182145Y0158723D01*
X0182188Y0158795D01*
X0182235Y0158864D01*
X0182285Y0158931D01*
X0182338Y0158996D01*
X0182394Y0159058D01*
X0182452Y0159118D01*
X0182514Y0159175D01*
X0182578Y0159228D01*
X0182645Y0159279D01*
X0182714Y0159326D01*
X0182785Y0159371D01*
X0182858Y0159411D01*
X0182933Y0159448D01*
X0183010Y0159482D01*
X0183088Y0159512D01*
X0183167Y0159538D01*
X0183248Y0159561D01*
X0183330Y0159579D01*
X0183412Y0159594D01*
X0183495Y0159605D01*
X0183578Y0159612D01*
X0183662Y0159615D01*
X0183746Y0159614D01*
X0183829Y0159609D01*
X0183913Y0159600D01*
X0183995Y0159587D01*
X0184077Y0159571D01*
X0184158Y0159550D01*
X0184239Y0159526D01*
X0184317Y0159498D01*
X0184395Y0159466D01*
X0184471Y0159430D01*
X0184545Y0159391D01*
X0184617Y0159349D01*
X0184687Y0159303D01*
X0184755Y0159254D01*
X0184820Y0159202D01*
X0184883Y0159147D01*
X0184943Y0159089D01*
X0185001Y0159028D01*
X0185055Y0158964D01*
X0185107Y0158898D01*
X0185155Y0158830D01*
X0185200Y0158759D01*
X0185241Y0158686D01*
X0185280Y0158612D01*
X0185314Y0158536D01*
X0185345Y0158458D01*
X0185372Y0158379D01*
X0185396Y0158298D01*
X0185415Y0158217D01*
X0185431Y0158135D01*
X0185443Y0158052D01*
X0185451Y0157968D01*
X0185455Y0157885D01*
X0185455Y0157801D01*
X0185451Y0157718D01*
X0185443Y0157634D01*
X0185431Y0157551D01*
X0185415Y0157469D01*
X0185396Y0157388D01*
X0185372Y0157307D01*
X0185345Y0157228D01*
X0185314Y0157150D01*
X0185280Y0157074D01*
X0185241Y0157000D01*
X0185200Y0156927D01*
X0185155Y0156856D01*
X0185107Y0156788D01*
X0185055Y0156722D01*
X0185001Y0156658D01*
X0184943Y0156597D01*
X0184883Y0156539D01*
X0184820Y0156484D01*
X0184755Y0156432D01*
X0184687Y0156383D01*
X0184617Y0156337D01*
X0184545Y0156295D01*
X0184471Y0156256D01*
X0184395Y0156220D01*
X0184317Y0156188D01*
X0184239Y0156160D01*
X0184158Y0156136D01*
X0184077Y0156115D01*
X0183995Y0156099D01*
X0183913Y0156086D01*
X0183829Y0156077D01*
X0183746Y0156072D01*
X0183662Y0156071D01*
X0183578Y0156074D01*
X0183495Y0156081D01*
X0183412Y0156092D01*
X0183330Y0156107D01*
X0183248Y0156125D01*
X0183167Y0156148D01*
X0183088Y0156174D01*
X0183010Y0156204D01*
X0182933Y0156238D01*
X0182858Y0156275D01*
X0182785Y0156315D01*
X0182714Y0156360D01*
X0182645Y0156407D01*
X0182578Y0156458D01*
X0182514Y0156511D01*
X0182452Y0156568D01*
X0182394Y0156628D01*
X0182338Y0156690D01*
X0182285Y0156755D01*
X0182235Y0156822D01*
X0182188Y0156891D01*
X0182145Y0156963D01*
X0182105Y0157037D01*
X0182069Y0157112D01*
X0182036Y0157189D01*
X0182007Y0157268D01*
X0181982Y0157347D01*
X0181960Y0157428D01*
X0181943Y0157510D01*
X0181929Y0157593D01*
X0181919Y0157676D01*
X0181913Y0157759D01*
X0181911Y0157843D01*
X0181911Y0146032D02*
X0181913Y0146116D01*
X0181919Y0146199D01*
X0181929Y0146282D01*
X0181943Y0146365D01*
X0181960Y0146447D01*
X0181982Y0146528D01*
X0182007Y0146607D01*
X0182036Y0146686D01*
X0182069Y0146763D01*
X0182105Y0146838D01*
X0182145Y0146912D01*
X0182188Y0146984D01*
X0182235Y0147053D01*
X0182285Y0147120D01*
X0182338Y0147185D01*
X0182394Y0147247D01*
X0182452Y0147307D01*
X0182514Y0147364D01*
X0182578Y0147417D01*
X0182645Y0147468D01*
X0182714Y0147515D01*
X0182785Y0147560D01*
X0182858Y0147600D01*
X0182933Y0147637D01*
X0183010Y0147671D01*
X0183088Y0147701D01*
X0183167Y0147727D01*
X0183248Y0147750D01*
X0183330Y0147768D01*
X0183412Y0147783D01*
X0183495Y0147794D01*
X0183578Y0147801D01*
X0183662Y0147804D01*
X0183746Y0147803D01*
X0183829Y0147798D01*
X0183913Y0147789D01*
X0183995Y0147776D01*
X0184077Y0147760D01*
X0184158Y0147739D01*
X0184239Y0147715D01*
X0184317Y0147687D01*
X0184395Y0147655D01*
X0184471Y0147619D01*
X0184545Y0147580D01*
X0184617Y0147538D01*
X0184687Y0147492D01*
X0184755Y0147443D01*
X0184820Y0147391D01*
X0184883Y0147336D01*
X0184943Y0147278D01*
X0185001Y0147217D01*
X0185055Y0147153D01*
X0185107Y0147087D01*
X0185155Y0147019D01*
X0185200Y0146948D01*
X0185241Y0146875D01*
X0185280Y0146801D01*
X0185314Y0146725D01*
X0185345Y0146647D01*
X0185372Y0146568D01*
X0185396Y0146487D01*
X0185415Y0146406D01*
X0185431Y0146324D01*
X0185443Y0146241D01*
X0185451Y0146157D01*
X0185455Y0146074D01*
X0185455Y0145990D01*
X0185451Y0145907D01*
X0185443Y0145823D01*
X0185431Y0145740D01*
X0185415Y0145658D01*
X0185396Y0145577D01*
X0185372Y0145496D01*
X0185345Y0145417D01*
X0185314Y0145339D01*
X0185280Y0145263D01*
X0185241Y0145189D01*
X0185200Y0145116D01*
X0185155Y0145045D01*
X0185107Y0144977D01*
X0185055Y0144911D01*
X0185001Y0144847D01*
X0184943Y0144786D01*
X0184883Y0144728D01*
X0184820Y0144673D01*
X0184755Y0144621D01*
X0184687Y0144572D01*
X0184617Y0144526D01*
X0184545Y0144484D01*
X0184471Y0144445D01*
X0184395Y0144409D01*
X0184317Y0144377D01*
X0184239Y0144349D01*
X0184158Y0144325D01*
X0184077Y0144304D01*
X0183995Y0144288D01*
X0183913Y0144275D01*
X0183829Y0144266D01*
X0183746Y0144261D01*
X0183662Y0144260D01*
X0183578Y0144263D01*
X0183495Y0144270D01*
X0183412Y0144281D01*
X0183330Y0144296D01*
X0183248Y0144314D01*
X0183167Y0144337D01*
X0183088Y0144363D01*
X0183010Y0144393D01*
X0182933Y0144427D01*
X0182858Y0144464D01*
X0182785Y0144504D01*
X0182714Y0144549D01*
X0182645Y0144596D01*
X0182578Y0144647D01*
X0182514Y0144700D01*
X0182452Y0144757D01*
X0182394Y0144817D01*
X0182338Y0144879D01*
X0182285Y0144944D01*
X0182235Y0145011D01*
X0182188Y0145080D01*
X0182145Y0145152D01*
X0182105Y0145226D01*
X0182069Y0145301D01*
X0182036Y0145378D01*
X0182007Y0145457D01*
X0181982Y0145536D01*
X0181960Y0145617D01*
X0181943Y0145699D01*
X0181929Y0145782D01*
X0181919Y0145865D01*
X0181913Y0145948D01*
X0181911Y0146032D01*
X0430731Y0183434D02*
X0430733Y0183574D01*
X0430739Y0183714D01*
X0430749Y0183853D01*
X0430763Y0183992D01*
X0430781Y0184131D01*
X0430802Y0184269D01*
X0430828Y0184407D01*
X0430858Y0184544D01*
X0430891Y0184679D01*
X0430929Y0184814D01*
X0430970Y0184948D01*
X0431015Y0185081D01*
X0431063Y0185212D01*
X0431116Y0185341D01*
X0431172Y0185470D01*
X0431231Y0185596D01*
X0431295Y0185721D01*
X0431361Y0185844D01*
X0431432Y0185965D01*
X0431505Y0186084D01*
X0431582Y0186201D01*
X0431663Y0186315D01*
X0431746Y0186427D01*
X0431833Y0186537D01*
X0431923Y0186645D01*
X0432015Y0186749D01*
X0432111Y0186851D01*
X0432210Y0186951D01*
X0432311Y0187047D01*
X0432415Y0187141D01*
X0432522Y0187231D01*
X0432631Y0187318D01*
X0432743Y0187403D01*
X0432857Y0187484D01*
X0432973Y0187562D01*
X0433091Y0187636D01*
X0433212Y0187707D01*
X0433334Y0187775D01*
X0433459Y0187839D01*
X0433585Y0187900D01*
X0433712Y0187957D01*
X0433842Y0188010D01*
X0433973Y0188060D01*
X0434105Y0188105D01*
X0434238Y0188148D01*
X0434373Y0188186D01*
X0434508Y0188220D01*
X0434645Y0188251D01*
X0434782Y0188278D01*
X0434920Y0188300D01*
X0435059Y0188319D01*
X0435198Y0188334D01*
X0435337Y0188345D01*
X0435477Y0188352D01*
X0435617Y0188355D01*
X0435757Y0188354D01*
X0435897Y0188349D01*
X0436036Y0188340D01*
X0436176Y0188327D01*
X0436315Y0188310D01*
X0436453Y0188289D01*
X0436591Y0188265D01*
X0436728Y0188236D01*
X0436864Y0188204D01*
X0436999Y0188167D01*
X0437133Y0188127D01*
X0437266Y0188083D01*
X0437397Y0188035D01*
X0437527Y0187984D01*
X0437656Y0187929D01*
X0437783Y0187870D01*
X0437908Y0187807D01*
X0438031Y0187742D01*
X0438153Y0187672D01*
X0438272Y0187599D01*
X0438390Y0187523D01*
X0438505Y0187444D01*
X0438618Y0187361D01*
X0438728Y0187275D01*
X0438836Y0187186D01*
X0438941Y0187094D01*
X0439044Y0186999D01*
X0439144Y0186901D01*
X0439241Y0186801D01*
X0439335Y0186697D01*
X0439427Y0186591D01*
X0439515Y0186483D01*
X0439600Y0186372D01*
X0439682Y0186258D01*
X0439761Y0186142D01*
X0439836Y0186025D01*
X0439908Y0185905D01*
X0439976Y0185783D01*
X0440041Y0185659D01*
X0440103Y0185533D01*
X0440161Y0185406D01*
X0440215Y0185277D01*
X0440266Y0185146D01*
X0440312Y0185014D01*
X0440355Y0184881D01*
X0440395Y0184747D01*
X0440430Y0184612D01*
X0440462Y0184475D01*
X0440489Y0184338D01*
X0440513Y0184200D01*
X0440533Y0184062D01*
X0440549Y0183923D01*
X0440561Y0183783D01*
X0440569Y0183644D01*
X0440573Y0183504D01*
X0440573Y0183364D01*
X0440569Y0183224D01*
X0440561Y0183085D01*
X0440549Y0182945D01*
X0440533Y0182806D01*
X0440513Y0182668D01*
X0440489Y0182530D01*
X0440462Y0182393D01*
X0440430Y0182256D01*
X0440395Y0182121D01*
X0440355Y0181987D01*
X0440312Y0181854D01*
X0440266Y0181722D01*
X0440215Y0181591D01*
X0440161Y0181462D01*
X0440103Y0181335D01*
X0440041Y0181209D01*
X0439976Y0181085D01*
X0439908Y0180963D01*
X0439836Y0180843D01*
X0439761Y0180726D01*
X0439682Y0180610D01*
X0439600Y0180496D01*
X0439515Y0180385D01*
X0439427Y0180277D01*
X0439335Y0180171D01*
X0439241Y0180067D01*
X0439144Y0179967D01*
X0439044Y0179869D01*
X0438941Y0179774D01*
X0438836Y0179682D01*
X0438728Y0179593D01*
X0438618Y0179507D01*
X0438505Y0179424D01*
X0438390Y0179345D01*
X0438272Y0179269D01*
X0438153Y0179196D01*
X0438031Y0179126D01*
X0437908Y0179061D01*
X0437783Y0178998D01*
X0437656Y0178939D01*
X0437527Y0178884D01*
X0437397Y0178833D01*
X0437266Y0178785D01*
X0437133Y0178741D01*
X0436999Y0178701D01*
X0436864Y0178664D01*
X0436728Y0178632D01*
X0436591Y0178603D01*
X0436453Y0178579D01*
X0436315Y0178558D01*
X0436176Y0178541D01*
X0436036Y0178528D01*
X0435897Y0178519D01*
X0435757Y0178514D01*
X0435617Y0178513D01*
X0435477Y0178516D01*
X0435337Y0178523D01*
X0435198Y0178534D01*
X0435059Y0178549D01*
X0434920Y0178568D01*
X0434782Y0178590D01*
X0434645Y0178617D01*
X0434508Y0178648D01*
X0434373Y0178682D01*
X0434238Y0178720D01*
X0434105Y0178763D01*
X0433973Y0178808D01*
X0433842Y0178858D01*
X0433712Y0178911D01*
X0433585Y0178968D01*
X0433459Y0179029D01*
X0433334Y0179093D01*
X0433212Y0179161D01*
X0433091Y0179232D01*
X0432973Y0179306D01*
X0432857Y0179384D01*
X0432743Y0179465D01*
X0432631Y0179550D01*
X0432522Y0179637D01*
X0432415Y0179727D01*
X0432311Y0179821D01*
X0432210Y0179917D01*
X0432111Y0180017D01*
X0432015Y0180119D01*
X0431923Y0180223D01*
X0431833Y0180331D01*
X0431746Y0180441D01*
X0431663Y0180553D01*
X0431582Y0180667D01*
X0431505Y0180784D01*
X0431432Y0180903D01*
X0431361Y0181024D01*
X0431295Y0181147D01*
X0431231Y0181272D01*
X0431172Y0181398D01*
X0431116Y0181527D01*
X0431063Y0181656D01*
X0431015Y0181787D01*
X0430970Y0181920D01*
X0430929Y0182054D01*
X0430891Y0182189D01*
X0430858Y0182324D01*
X0430828Y0182461D01*
X0430802Y0182599D01*
X0430781Y0182737D01*
X0430763Y0182876D01*
X0430749Y0183015D01*
X0430739Y0183154D01*
X0430733Y0183294D01*
X0430731Y0183434D01*
X0431794Y0102725D02*
X0431796Y0102918D01*
X0431803Y0103111D01*
X0431815Y0103304D01*
X0431832Y0103497D01*
X0431853Y0103689D01*
X0431879Y0103880D01*
X0431910Y0104071D01*
X0431945Y0104261D01*
X0431985Y0104450D01*
X0432030Y0104638D01*
X0432079Y0104825D01*
X0432133Y0105011D01*
X0432191Y0105195D01*
X0432254Y0105378D01*
X0432322Y0105559D01*
X0432393Y0105738D01*
X0432470Y0105916D01*
X0432550Y0106092D01*
X0432635Y0106265D01*
X0432724Y0106437D01*
X0432817Y0106606D01*
X0432914Y0106773D01*
X0433016Y0106938D01*
X0433121Y0107100D01*
X0433230Y0107259D01*
X0433344Y0107416D01*
X0433461Y0107569D01*
X0433581Y0107720D01*
X0433706Y0107868D01*
X0433834Y0108013D01*
X0433965Y0108154D01*
X0434100Y0108293D01*
X0434239Y0108428D01*
X0434380Y0108559D01*
X0434525Y0108687D01*
X0434673Y0108812D01*
X0434824Y0108932D01*
X0434977Y0109049D01*
X0435134Y0109163D01*
X0435293Y0109272D01*
X0435455Y0109377D01*
X0435620Y0109479D01*
X0435787Y0109576D01*
X0435956Y0109669D01*
X0436128Y0109758D01*
X0436301Y0109843D01*
X0436477Y0109923D01*
X0436655Y0110000D01*
X0436834Y0110071D01*
X0437015Y0110139D01*
X0437198Y0110202D01*
X0437382Y0110260D01*
X0437568Y0110314D01*
X0437755Y0110363D01*
X0437943Y0110408D01*
X0438132Y0110448D01*
X0438322Y0110483D01*
X0438513Y0110514D01*
X0438704Y0110540D01*
X0438896Y0110561D01*
X0439089Y0110578D01*
X0439282Y0110590D01*
X0439475Y0110597D01*
X0439668Y0110599D01*
X0439861Y0110597D01*
X0440054Y0110590D01*
X0440247Y0110578D01*
X0440440Y0110561D01*
X0440632Y0110540D01*
X0440823Y0110514D01*
X0441014Y0110483D01*
X0441204Y0110448D01*
X0441393Y0110408D01*
X0441581Y0110363D01*
X0441768Y0110314D01*
X0441954Y0110260D01*
X0442138Y0110202D01*
X0442321Y0110139D01*
X0442502Y0110071D01*
X0442681Y0110000D01*
X0442859Y0109923D01*
X0443035Y0109843D01*
X0443208Y0109758D01*
X0443380Y0109669D01*
X0443549Y0109576D01*
X0443716Y0109479D01*
X0443881Y0109377D01*
X0444043Y0109272D01*
X0444202Y0109163D01*
X0444359Y0109049D01*
X0444512Y0108932D01*
X0444663Y0108812D01*
X0444811Y0108687D01*
X0444956Y0108559D01*
X0445097Y0108428D01*
X0445236Y0108293D01*
X0445371Y0108154D01*
X0445502Y0108013D01*
X0445630Y0107868D01*
X0445755Y0107720D01*
X0445875Y0107569D01*
X0445992Y0107416D01*
X0446106Y0107259D01*
X0446215Y0107100D01*
X0446320Y0106938D01*
X0446422Y0106773D01*
X0446519Y0106606D01*
X0446612Y0106437D01*
X0446701Y0106265D01*
X0446786Y0106092D01*
X0446866Y0105916D01*
X0446943Y0105738D01*
X0447014Y0105559D01*
X0447082Y0105378D01*
X0447145Y0105195D01*
X0447203Y0105011D01*
X0447257Y0104825D01*
X0447306Y0104638D01*
X0447351Y0104450D01*
X0447391Y0104261D01*
X0447426Y0104071D01*
X0447457Y0103880D01*
X0447483Y0103689D01*
X0447504Y0103497D01*
X0447521Y0103304D01*
X0447533Y0103111D01*
X0447540Y0102918D01*
X0447542Y0102725D01*
X0447540Y0102532D01*
X0447533Y0102339D01*
X0447521Y0102146D01*
X0447504Y0101953D01*
X0447483Y0101761D01*
X0447457Y0101570D01*
X0447426Y0101379D01*
X0447391Y0101189D01*
X0447351Y0101000D01*
X0447306Y0100812D01*
X0447257Y0100625D01*
X0447203Y0100439D01*
X0447145Y0100255D01*
X0447082Y0100072D01*
X0447014Y0099891D01*
X0446943Y0099712D01*
X0446866Y0099534D01*
X0446786Y0099358D01*
X0446701Y0099185D01*
X0446612Y0099013D01*
X0446519Y0098844D01*
X0446422Y0098677D01*
X0446320Y0098512D01*
X0446215Y0098350D01*
X0446106Y0098191D01*
X0445992Y0098034D01*
X0445875Y0097881D01*
X0445755Y0097730D01*
X0445630Y0097582D01*
X0445502Y0097437D01*
X0445371Y0097296D01*
X0445236Y0097157D01*
X0445097Y0097022D01*
X0444956Y0096891D01*
X0444811Y0096763D01*
X0444663Y0096638D01*
X0444512Y0096518D01*
X0444359Y0096401D01*
X0444202Y0096287D01*
X0444043Y0096178D01*
X0443881Y0096073D01*
X0443716Y0095971D01*
X0443549Y0095874D01*
X0443380Y0095781D01*
X0443208Y0095692D01*
X0443035Y0095607D01*
X0442859Y0095527D01*
X0442681Y0095450D01*
X0442502Y0095379D01*
X0442321Y0095311D01*
X0442138Y0095248D01*
X0441954Y0095190D01*
X0441768Y0095136D01*
X0441581Y0095087D01*
X0441393Y0095042D01*
X0441204Y0095002D01*
X0441014Y0094967D01*
X0440823Y0094936D01*
X0440632Y0094910D01*
X0440440Y0094889D01*
X0440247Y0094872D01*
X0440054Y0094860D01*
X0439861Y0094853D01*
X0439668Y0094851D01*
X0439475Y0094853D01*
X0439282Y0094860D01*
X0439089Y0094872D01*
X0438896Y0094889D01*
X0438704Y0094910D01*
X0438513Y0094936D01*
X0438322Y0094967D01*
X0438132Y0095002D01*
X0437943Y0095042D01*
X0437755Y0095087D01*
X0437568Y0095136D01*
X0437382Y0095190D01*
X0437198Y0095248D01*
X0437015Y0095311D01*
X0436834Y0095379D01*
X0436655Y0095450D01*
X0436477Y0095527D01*
X0436301Y0095607D01*
X0436128Y0095692D01*
X0435956Y0095781D01*
X0435787Y0095874D01*
X0435620Y0095971D01*
X0435455Y0096073D01*
X0435293Y0096178D01*
X0435134Y0096287D01*
X0434977Y0096401D01*
X0434824Y0096518D01*
X0434673Y0096638D01*
X0434525Y0096763D01*
X0434380Y0096891D01*
X0434239Y0097022D01*
X0434100Y0097157D01*
X0433965Y0097296D01*
X0433834Y0097437D01*
X0433706Y0097582D01*
X0433581Y0097730D01*
X0433461Y0097881D01*
X0433344Y0098034D01*
X0433230Y0098191D01*
X0433121Y0098350D01*
X0433016Y0098512D01*
X0432914Y0098677D01*
X0432817Y0098844D01*
X0432724Y0099013D01*
X0432635Y0099185D01*
X0432550Y0099358D01*
X0432470Y0099534D01*
X0432393Y0099712D01*
X0432322Y0099891D01*
X0432254Y0100072D01*
X0432191Y0100255D01*
X0432133Y0100439D01*
X0432079Y0100625D01*
X0432030Y0100812D01*
X0431985Y0101000D01*
X0431945Y0101189D01*
X0431910Y0101379D01*
X0431879Y0101570D01*
X0431853Y0101761D01*
X0431832Y0101953D01*
X0431815Y0102146D01*
X0431803Y0102339D01*
X0431796Y0102532D01*
X0431794Y0102725D01*
X0430731Y0022017D02*
X0430733Y0022157D01*
X0430739Y0022297D01*
X0430749Y0022436D01*
X0430763Y0022575D01*
X0430781Y0022714D01*
X0430802Y0022852D01*
X0430828Y0022990D01*
X0430858Y0023127D01*
X0430891Y0023262D01*
X0430929Y0023397D01*
X0430970Y0023531D01*
X0431015Y0023664D01*
X0431063Y0023795D01*
X0431116Y0023924D01*
X0431172Y0024053D01*
X0431231Y0024179D01*
X0431295Y0024304D01*
X0431361Y0024427D01*
X0431432Y0024548D01*
X0431505Y0024667D01*
X0431582Y0024784D01*
X0431663Y0024898D01*
X0431746Y0025010D01*
X0431833Y0025120D01*
X0431923Y0025228D01*
X0432015Y0025332D01*
X0432111Y0025434D01*
X0432210Y0025534D01*
X0432311Y0025630D01*
X0432415Y0025724D01*
X0432522Y0025814D01*
X0432631Y0025901D01*
X0432743Y0025986D01*
X0432857Y0026067D01*
X0432973Y0026145D01*
X0433091Y0026219D01*
X0433212Y0026290D01*
X0433334Y0026358D01*
X0433459Y0026422D01*
X0433585Y0026483D01*
X0433712Y0026540D01*
X0433842Y0026593D01*
X0433973Y0026643D01*
X0434105Y0026688D01*
X0434238Y0026731D01*
X0434373Y0026769D01*
X0434508Y0026803D01*
X0434645Y0026834D01*
X0434782Y0026861D01*
X0434920Y0026883D01*
X0435059Y0026902D01*
X0435198Y0026917D01*
X0435337Y0026928D01*
X0435477Y0026935D01*
X0435617Y0026938D01*
X0435757Y0026937D01*
X0435897Y0026932D01*
X0436036Y0026923D01*
X0436176Y0026910D01*
X0436315Y0026893D01*
X0436453Y0026872D01*
X0436591Y0026848D01*
X0436728Y0026819D01*
X0436864Y0026787D01*
X0436999Y0026750D01*
X0437133Y0026710D01*
X0437266Y0026666D01*
X0437397Y0026618D01*
X0437527Y0026567D01*
X0437656Y0026512D01*
X0437783Y0026453D01*
X0437908Y0026390D01*
X0438031Y0026325D01*
X0438153Y0026255D01*
X0438272Y0026182D01*
X0438390Y0026106D01*
X0438505Y0026027D01*
X0438618Y0025944D01*
X0438728Y0025858D01*
X0438836Y0025769D01*
X0438941Y0025677D01*
X0439044Y0025582D01*
X0439144Y0025484D01*
X0439241Y0025384D01*
X0439335Y0025280D01*
X0439427Y0025174D01*
X0439515Y0025066D01*
X0439600Y0024955D01*
X0439682Y0024841D01*
X0439761Y0024725D01*
X0439836Y0024608D01*
X0439908Y0024488D01*
X0439976Y0024366D01*
X0440041Y0024242D01*
X0440103Y0024116D01*
X0440161Y0023989D01*
X0440215Y0023860D01*
X0440266Y0023729D01*
X0440312Y0023597D01*
X0440355Y0023464D01*
X0440395Y0023330D01*
X0440430Y0023195D01*
X0440462Y0023058D01*
X0440489Y0022921D01*
X0440513Y0022783D01*
X0440533Y0022645D01*
X0440549Y0022506D01*
X0440561Y0022366D01*
X0440569Y0022227D01*
X0440573Y0022087D01*
X0440573Y0021947D01*
X0440569Y0021807D01*
X0440561Y0021668D01*
X0440549Y0021528D01*
X0440533Y0021389D01*
X0440513Y0021251D01*
X0440489Y0021113D01*
X0440462Y0020976D01*
X0440430Y0020839D01*
X0440395Y0020704D01*
X0440355Y0020570D01*
X0440312Y0020437D01*
X0440266Y0020305D01*
X0440215Y0020174D01*
X0440161Y0020045D01*
X0440103Y0019918D01*
X0440041Y0019792D01*
X0439976Y0019668D01*
X0439908Y0019546D01*
X0439836Y0019426D01*
X0439761Y0019309D01*
X0439682Y0019193D01*
X0439600Y0019079D01*
X0439515Y0018968D01*
X0439427Y0018860D01*
X0439335Y0018754D01*
X0439241Y0018650D01*
X0439144Y0018550D01*
X0439044Y0018452D01*
X0438941Y0018357D01*
X0438836Y0018265D01*
X0438728Y0018176D01*
X0438618Y0018090D01*
X0438505Y0018007D01*
X0438390Y0017928D01*
X0438272Y0017852D01*
X0438153Y0017779D01*
X0438031Y0017709D01*
X0437908Y0017644D01*
X0437783Y0017581D01*
X0437656Y0017522D01*
X0437527Y0017467D01*
X0437397Y0017416D01*
X0437266Y0017368D01*
X0437133Y0017324D01*
X0436999Y0017284D01*
X0436864Y0017247D01*
X0436728Y0017215D01*
X0436591Y0017186D01*
X0436453Y0017162D01*
X0436315Y0017141D01*
X0436176Y0017124D01*
X0436036Y0017111D01*
X0435897Y0017102D01*
X0435757Y0017097D01*
X0435617Y0017096D01*
X0435477Y0017099D01*
X0435337Y0017106D01*
X0435198Y0017117D01*
X0435059Y0017132D01*
X0434920Y0017151D01*
X0434782Y0017173D01*
X0434645Y0017200D01*
X0434508Y0017231D01*
X0434373Y0017265D01*
X0434238Y0017303D01*
X0434105Y0017346D01*
X0433973Y0017391D01*
X0433842Y0017441D01*
X0433712Y0017494D01*
X0433585Y0017551D01*
X0433459Y0017612D01*
X0433334Y0017676D01*
X0433212Y0017744D01*
X0433091Y0017815D01*
X0432973Y0017889D01*
X0432857Y0017967D01*
X0432743Y0018048D01*
X0432631Y0018133D01*
X0432522Y0018220D01*
X0432415Y0018310D01*
X0432311Y0018404D01*
X0432210Y0018500D01*
X0432111Y0018600D01*
X0432015Y0018702D01*
X0431923Y0018806D01*
X0431833Y0018914D01*
X0431746Y0019024D01*
X0431663Y0019136D01*
X0431582Y0019250D01*
X0431505Y0019367D01*
X0431432Y0019486D01*
X0431361Y0019607D01*
X0431295Y0019730D01*
X0431231Y0019855D01*
X0431172Y0019981D01*
X0431116Y0020110D01*
X0431063Y0020239D01*
X0431015Y0020370D01*
X0430970Y0020503D01*
X0430929Y0020637D01*
X0430891Y0020772D01*
X0430858Y0020907D01*
X0430828Y0021044D01*
X0430802Y0021182D01*
X0430781Y0021320D01*
X0430763Y0021459D01*
X0430749Y0021598D01*
X0430739Y0021737D01*
X0430733Y0021877D01*
X0430731Y0022017D01*
D11*
X0162168Y0100800D03*
X0147168Y0100800D03*
X0147168Y0122800D03*
X0162168Y0122800D03*
X0162168Y0148300D03*
X0147168Y0148300D03*
X0147168Y0170300D03*
X0162168Y0170300D03*
D12*
X0176794Y0160796D03*
X0176794Y0148985D03*
X0176794Y0143080D03*
D13*
X0187620Y0137568D03*
X0187620Y0166308D03*
D14*
X0179353Y0166308D03*
X0179353Y0137568D03*
D15*
X0079648Y0154694D03*
X0079648Y0157253D03*
X0079648Y0159812D03*
X0079648Y0162371D03*
X0079648Y0164930D03*
D16*
X0068723Y0162765D03*
X0068723Y0156859D03*
D17*
X0069117Y0145639D03*
X0069117Y0173985D03*
D18*
X0077975Y0173794D02*
X0082306Y0173794D01*
X0082306Y0174292D02*
X0077975Y0174292D01*
X0077975Y0174791D02*
X0082306Y0174791D01*
X0082306Y0175289D02*
X0077975Y0175289D01*
X0077975Y0175788D02*
X0082306Y0175788D01*
X0082306Y0176286D02*
X0077975Y0176286D01*
X0077975Y0176785D02*
X0082306Y0176785D01*
X0082306Y0177283D02*
X0077975Y0177283D01*
X0077975Y0177331D02*
X0077999Y0177775D01*
X0078109Y0178205D01*
X0078302Y0178606D01*
X0078568Y0178961D01*
X0078899Y0179258D01*
X0079281Y0179484D01*
X0079700Y0179631D01*
X0080140Y0179694D01*
X0080641Y0179615D01*
X0081113Y0179427D01*
X0081530Y0179138D01*
X0081873Y0178764D01*
X0082124Y0178323D01*
X0082271Y0177838D01*
X0082306Y0177331D01*
X0082306Y0173001D01*
X0082281Y0172557D01*
X0082171Y0172127D01*
X0081979Y0171727D01*
X0081712Y0171371D01*
X0081381Y0171075D01*
X0080999Y0170849D01*
X0080580Y0170701D01*
X0080140Y0170639D01*
X0079700Y0170701D01*
X0079281Y0170849D01*
X0078899Y0171075D01*
X0078568Y0171371D01*
X0078302Y0171727D01*
X0078109Y0172127D01*
X0077999Y0172557D01*
X0077975Y0173001D01*
X0077975Y0177331D01*
X0078001Y0177782D02*
X0082274Y0177782D01*
X0082137Y0178280D02*
X0078146Y0178280D01*
X0078432Y0178779D02*
X0081860Y0178779D01*
X0081329Y0179277D02*
X0078933Y0179277D01*
X0077975Y0173295D02*
X0082306Y0173295D01*
X0082294Y0172797D02*
X0077986Y0172797D01*
X0078066Y0172298D02*
X0082215Y0172298D01*
X0082014Y0171800D02*
X0078266Y0171800D01*
X0078646Y0171301D02*
X0081634Y0171301D01*
X0080869Y0170803D02*
X0079412Y0170803D01*
X0080140Y0148985D02*
X0080641Y0148906D01*
X0081113Y0148718D01*
X0081530Y0148430D01*
X0081873Y0148056D01*
X0082124Y0147615D01*
X0082271Y0147129D01*
X0082306Y0146623D01*
X0082306Y0142292D01*
X0082281Y0141849D01*
X0082171Y0141418D01*
X0081979Y0141018D01*
X0081712Y0140663D01*
X0081381Y0140366D01*
X0080999Y0140140D01*
X0080580Y0139993D01*
X0080140Y0139930D01*
X0079700Y0139993D01*
X0079281Y0140140D01*
X0078899Y0140366D01*
X0078568Y0140663D01*
X0078302Y0141018D01*
X0078109Y0141418D01*
X0077999Y0141849D01*
X0077975Y0142292D01*
X0077975Y0146623D01*
X0077999Y0147066D01*
X0078109Y0147497D01*
X0078302Y0147897D01*
X0078568Y0148252D01*
X0078899Y0148549D01*
X0079281Y0148775D01*
X0079700Y0148922D01*
X0080140Y0148985D01*
X0079547Y0148868D02*
X0080737Y0148868D01*
X0081585Y0148370D02*
X0078699Y0148370D01*
X0078289Y0147871D02*
X0081978Y0147871D01*
X0082197Y0147373D02*
X0078078Y0147373D01*
X0077989Y0146874D02*
X0082288Y0146874D01*
X0082306Y0146376D02*
X0077975Y0146376D01*
X0077975Y0145877D02*
X0082306Y0145877D01*
X0082306Y0145379D02*
X0077975Y0145379D01*
X0077975Y0144880D02*
X0082306Y0144880D01*
X0082306Y0144382D02*
X0077975Y0144382D01*
X0077975Y0143883D02*
X0082306Y0143883D01*
X0082306Y0143385D02*
X0077975Y0143385D01*
X0077975Y0142886D02*
X0082306Y0142886D01*
X0082306Y0142388D02*
X0077975Y0142388D01*
X0077997Y0141889D02*
X0082283Y0141889D01*
X0082158Y0141391D02*
X0078123Y0141391D01*
X0078396Y0140892D02*
X0081884Y0140892D01*
X0081412Y0140394D02*
X0078868Y0140394D01*
M02*
