G75*
%MOIN*%
%OFA0B0*%
%FSLAX25Y25*%
%IPPOS*%
%LPD*%
%AMOC8*
5,1,8,0,0,1.08239X$1,22.5*
%
%ADD10C,0.00000*%
%ADD11C,0.06600*%
%ADD12C,0.00600*%
%ADD13C,0.00700*%
%ADD14C,0.01600*%
%ADD15C,0.00800*%
%ADD16C,0.00400*%
%ADD17R,0.00200X0.00400*%
%ADD18R,0.00200X0.01800*%
%ADD19R,0.00200X0.02200*%
%ADD20R,0.00200X0.02800*%
%ADD21R,0.00200X0.03000*%
%ADD22R,0.00200X0.03200*%
%ADD23R,0.00200X0.03600*%
%ADD24R,0.00200X0.04200*%
%ADD25R,0.00200X0.04400*%
%ADD26R,0.00200X0.04600*%
%ADD27R,0.00200X0.04800*%
%ADD28R,0.00200X0.05000*%
%ADD29R,0.00200X0.05200*%
%ADD30R,0.00200X0.05400*%
%ADD31R,0.00200X0.05600*%
%ADD32R,0.00200X0.05800*%
%ADD33R,0.00200X0.06000*%
%ADD34R,0.00200X0.06200*%
%ADD35R,0.00200X0.06400*%
%ADD36R,0.00200X0.06600*%
%ADD37R,0.00200X0.01200*%
%ADD38R,0.00200X0.01400*%
%ADD39R,0.00200X0.02400*%
%ADD40R,0.00200X0.06800*%
%ADD41R,0.00200X0.03400*%
%ADD42R,0.00200X0.04000*%
%ADD43R,0.00200X0.02000*%
%ADD44R,0.00200X0.07000*%
%ADD45R,0.00200X0.07200*%
%ADD46R,0.00200X0.07400*%
%ADD47R,0.00200X0.07600*%
%ADD48R,0.00200X0.07800*%
%ADD49R,0.00200X0.08000*%
%ADD50R,0.00200X0.08200*%
%ADD51R,0.00200X0.08600*%
%ADD52R,0.00200X0.08400*%
%ADD53R,0.00200X0.08800*%
%ADD54R,0.00200X0.09000*%
%ADD55R,0.00200X0.09200*%
%ADD56R,0.00200X0.09400*%
%ADD57R,0.00200X0.09600*%
%ADD58R,0.00200X0.10000*%
%ADD59R,0.00200X0.09800*%
%ADD60R,0.00200X0.10200*%
%ADD61R,0.00200X0.10400*%
%ADD62R,0.00200X0.10600*%
%ADD63R,0.00200X0.10800*%
%ADD64R,0.00200X0.11000*%
%ADD65R,0.00200X0.11400*%
%ADD66R,0.00200X0.22200*%
%ADD67R,0.00200X0.21800*%
%ADD68R,0.00200X0.00600*%
%ADD69R,0.00200X0.21600*%
%ADD70R,0.00200X0.21400*%
%ADD71R,0.00200X0.25800*%
%ADD72R,0.00200X0.26200*%
%ADD73R,0.00200X0.26400*%
%ADD74R,0.00200X0.26800*%
%ADD75R,0.00200X0.27200*%
%ADD76R,0.00200X0.27400*%
%ADD77R,0.00200X0.27600*%
%ADD78R,0.00200X0.28000*%
%ADD79R,0.00200X0.28200*%
%ADD80R,0.00200X0.28600*%
%ADD81R,0.00200X0.29200*%
%ADD82R,0.00200X0.29800*%
%ADD83R,0.00200X0.18600*%
%ADD84R,0.00200X0.11600*%
%ADD85R,0.00200X0.32000*%
%ADD86R,0.00200X0.44200*%
%ADD87R,0.00200X0.30400*%
%ADD88R,0.00200X0.13400*%
%ADD89R,0.00200X0.44400*%
%ADD90R,0.00200X0.45400*%
%ADD91R,0.00200X0.45600*%
%ADD92R,0.00200X0.46000*%
%ADD93R,0.00200X0.46200*%
%ADD94R,0.00200X0.46400*%
%ADD95R,0.00200X0.46600*%
%ADD96R,0.00200X0.46800*%
%ADD97R,0.00200X0.47000*%
%ADD98R,0.00200X0.47200*%
%ADD99R,0.00200X0.47400*%
%ADD100R,0.00200X0.47600*%
%ADD101R,0.00200X0.36400*%
%ADD102R,0.00200X0.36000*%
%ADD103R,0.00200X0.35800*%
%ADD104R,0.00200X0.35600*%
%ADD105R,0.00200X0.35200*%
%ADD106R,0.00200X0.19200*%
%ADD107R,0.00200X0.17800*%
%ADD108R,0.00200X0.17600*%
%ADD109R,0.00200X0.16600*%
%ADD110R,0.00200X0.16200*%
%ADD111R,0.00200X0.16000*%
%ADD112R,0.00200X0.15400*%
%ADD113R,0.00200X0.15000*%
%ADD114R,0.00200X0.14600*%
%ADD115R,0.00200X0.14400*%
%ADD116R,0.00200X0.14200*%
%ADD117R,0.00200X0.11800*%
%ADD118R,0.00200X0.14000*%
%ADD119R,0.00200X0.12800*%
%ADD120R,0.00200X0.13600*%
%ADD121R,0.00200X0.14800*%
%ADD122R,0.00200X0.00200*%
%ADD123R,0.00200X0.13200*%
%ADD124R,0.00200X0.16400*%
%ADD125R,0.00200X0.17200*%
%ADD126R,0.00200X0.12600*%
%ADD127R,0.00200X0.19400*%
%ADD128R,0.00200X0.12200*%
%ADD129R,0.00200X0.20200*%
%ADD130R,0.00200X0.20400*%
%ADD131R,0.00200X0.12000*%
%ADD132R,0.00200X0.21000*%
%ADD133R,0.00200X0.22600*%
%ADD134R,0.00200X0.11200*%
%ADD135R,0.00200X0.23000*%
%ADD136R,0.00200X0.00800*%
%ADD137R,0.00200X0.24000*%
%ADD138R,0.00200X0.03800*%
%ADD139R,0.00200X0.25000*%
%ADD140R,0.00200X0.26000*%
%ADD141R,0.00200X0.27800*%
%ADD142R,0.00200X0.29000*%
%ADD143R,0.00200X0.01600*%
%ADD144R,0.00200X0.29600*%
%ADD145R,0.00200X0.31200*%
%ADD146R,0.00200X0.32400*%
%ADD147R,0.00200X0.32800*%
%ADD148R,0.00200X0.33400*%
%ADD149R,0.00200X0.33800*%
%ADD150R,0.00200X0.34200*%
%ADD151R,0.00200X0.34600*%
%ADD152R,0.00200X0.34800*%
%ADD153R,0.00200X0.35000*%
%ADD154R,0.00200X0.35400*%
%ADD155R,0.00200X0.01000*%
%ADD156R,0.00200X0.33600*%
%ADD157R,0.00200X0.33200*%
%ADD158R,0.00200X0.12400*%
%ADD159R,0.00200X0.33000*%
%ADD160R,0.00200X0.32200*%
%ADD161R,0.00200X0.30800*%
%ADD162R,0.00200X0.29400*%
%ADD163R,0.00200X0.28800*%
%ADD164R,0.00200X0.13000*%
%ADD165R,0.00200X0.26600*%
%ADD166R,0.00200X0.25600*%
%ADD167R,0.00200X0.25200*%
%ADD168R,0.00200X0.24800*%
%ADD169R,0.00200X0.24200*%
%ADD170R,0.00200X0.23600*%
%ADD171R,0.00200X0.13800*%
%ADD172R,0.00200X0.22400*%
%ADD173R,0.00200X0.21200*%
%ADD174R,0.00200X0.15200*%
%ADD175R,0.00200X0.02600*%
%ADD176R,0.00200X0.15600*%
%ADD177R,0.00200X0.16800*%
%ADD178R,0.00200X0.17000*%
%ADD179R,0.00200X0.17400*%
%ADD180R,0.00200X0.18000*%
%ADD181R,0.00200X0.15800*%
%ADD182R,0.00200X0.30600*%
%ADD183R,0.00200X0.38000*%
%ADD184R,0.00200X0.37800*%
%ADD185R,0.00200X0.37600*%
%ADD186R,0.00200X0.37400*%
%ADD187R,0.00200X0.37200*%
%ADD188R,0.00200X0.37000*%
%ADD189R,0.00200X0.22800*%
%ADD190R,0.00200X0.20800*%
%ADD191R,0.00200X0.19800*%
%ADD192R,0.00200X0.18800*%
%ADD193R,0.00200X0.22000*%
%ADD194R,0.00200X0.34400*%
%ADD195R,0.00200X0.42200*%
%ADD196R,0.00200X0.41800*%
%ADD197R,0.00200X0.41400*%
%ADD198R,0.00200X0.41200*%
%ADD199R,0.00200X0.40400*%
%ADD200R,0.00200X0.40000*%
%ADD201R,0.00200X0.39600*%
%ADD202R,0.00200X0.40200*%
%ADD203R,0.00200X0.42400*%
%ADD204R,0.00200X0.43800*%
%ADD205R,0.00200X0.44600*%
%ADD206R,0.00200X0.45200*%
%ADD207R,0.00200X0.48400*%
%ADD208R,0.00200X0.48800*%
%ADD209R,0.00200X0.49200*%
%ADD210R,0.00200X0.49800*%
%ADD211R,0.00200X0.50000*%
%ADD212R,0.00200X0.50800*%
%ADD213R,0.00200X0.51000*%
%ADD214R,0.00200X0.51200*%
%ADD215R,0.00200X0.51800*%
%ADD216R,0.00200X0.52400*%
%ADD217R,0.00200X0.52600*%
%ADD218R,0.00200X0.53000*%
%ADD219R,0.00200X0.53600*%
%ADD220R,0.00200X0.53800*%
%ADD221R,0.00200X0.54600*%
%ADD222R,0.00200X0.55000*%
%ADD223R,0.00200X0.55600*%
%ADD224R,0.00200X0.56400*%
%ADD225R,0.00200X0.56600*%
%ADD226R,0.00200X0.56800*%
%ADD227R,0.00200X0.57200*%
%ADD228R,0.00200X0.57400*%
%ADD229R,0.00200X0.57800*%
%ADD230R,0.00200X0.58000*%
%ADD231R,0.00200X0.58600*%
%ADD232R,0.00200X0.41600*%
%ADD233R,0.00200X0.41000*%
%ADD234R,0.00200X0.40800*%
%ADD235R,0.00200X0.40600*%
%ADD236R,0.00200X0.27000*%
%ADD237R,0.00200X0.25400*%
%ADD238R,0.00200X0.24600*%
%ADD239R,0.00200X0.24400*%
%ADD240R,0.00200X0.18200*%
%ADD241R,0.00200X0.18400*%
%ADD242R,0.00200X0.20000*%
%ADD243R,0.00200X0.20600*%
%ADD244R,0.00200X0.23200*%
%ADD245R,0.00200X0.23400*%
%ADD246R,0.00200X0.67600*%
%ADD247R,0.00200X0.67000*%
%ADD248R,0.00200X0.66600*%
%ADD249R,0.00200X0.65800*%
%ADD250R,0.00200X0.65600*%
%ADD251R,0.00200X0.64800*%
%ADD252R,0.00200X0.64200*%
%ADD253R,0.00200X0.63600*%
%ADD254R,0.00200X0.63200*%
%ADD255R,0.00200X0.62600*%
%ADD256R,0.00200X0.62000*%
%ADD257R,0.00200X0.61400*%
%ADD258R,0.00200X0.61200*%
%ADD259R,0.00200X0.60200*%
%ADD260R,0.00200X0.60000*%
%ADD261R,0.00200X0.59600*%
%ADD262R,0.00200X0.58200*%
%ADD263R,0.00200X0.57600*%
%ADD264R,0.00200X0.56000*%
%ADD265R,0.00200X0.54800*%
%ADD266R,0.00200X0.54000*%
%ADD267R,0.00200X0.51400*%
%ADD268R,0.00200X0.50400*%
%ADD269R,0.00200X0.49600*%
%ADD270R,0.00200X0.48600*%
%ADD271R,0.00200X0.48200*%
%ADD272R,0.00200X0.47800*%
%ADD273R,0.00200X0.45000*%
%ADD274R,0.00200X0.43200*%
%ADD275R,0.00200X0.42800*%
%ADD276R,0.00200X0.38800*%
%ADD277R,0.00200X0.38200*%
%ADD278R,0.00200X0.36800*%
%ADD279R,0.00200X0.28400*%
%ADD280C,0.00200*%
%ADD281C,0.00500*%
D10*
X0020048Y0004300D02*
X0382253Y0004300D01*
X0382634Y0004305D01*
X0383014Y0004318D01*
X0383394Y0004341D01*
X0383773Y0004374D01*
X0384151Y0004415D01*
X0384528Y0004465D01*
X0384904Y0004525D01*
X0385279Y0004593D01*
X0385651Y0004671D01*
X0386022Y0004758D01*
X0386390Y0004853D01*
X0386756Y0004958D01*
X0387119Y0005071D01*
X0387480Y0005193D01*
X0387837Y0005323D01*
X0388191Y0005463D01*
X0388542Y0005610D01*
X0388889Y0005767D01*
X0389232Y0005931D01*
X0389571Y0006104D01*
X0389906Y0006285D01*
X0390237Y0006474D01*
X0390562Y0006671D01*
X0390883Y0006875D01*
X0391199Y0007088D01*
X0391509Y0007308D01*
X0391815Y0007535D01*
X0392114Y0007770D01*
X0392408Y0008012D01*
X0392696Y0008260D01*
X0392978Y0008516D01*
X0393253Y0008779D01*
X0393522Y0009048D01*
X0393785Y0009323D01*
X0394041Y0009605D01*
X0394289Y0009893D01*
X0394531Y0010187D01*
X0394766Y0010486D01*
X0394993Y0010792D01*
X0395213Y0011102D01*
X0395426Y0011418D01*
X0395630Y0011739D01*
X0395827Y0012064D01*
X0396016Y0012395D01*
X0396197Y0012730D01*
X0396370Y0013069D01*
X0396534Y0013412D01*
X0396691Y0013759D01*
X0396838Y0014110D01*
X0396978Y0014464D01*
X0397108Y0014821D01*
X0397230Y0015182D01*
X0397343Y0015545D01*
X0397448Y0015911D01*
X0397543Y0016279D01*
X0397630Y0016650D01*
X0397708Y0017022D01*
X0397776Y0017397D01*
X0397836Y0017773D01*
X0397886Y0018150D01*
X0397927Y0018528D01*
X0397960Y0018907D01*
X0397983Y0019287D01*
X0397996Y0019667D01*
X0398001Y0020048D01*
X0398001Y0185402D01*
X0397996Y0185783D01*
X0397983Y0186163D01*
X0397960Y0186543D01*
X0397927Y0186922D01*
X0397886Y0187300D01*
X0397836Y0187677D01*
X0397776Y0188053D01*
X0397708Y0188428D01*
X0397630Y0188800D01*
X0397543Y0189171D01*
X0397448Y0189539D01*
X0397343Y0189905D01*
X0397230Y0190268D01*
X0397108Y0190629D01*
X0396978Y0190986D01*
X0396838Y0191340D01*
X0396691Y0191691D01*
X0396534Y0192038D01*
X0396370Y0192381D01*
X0396197Y0192720D01*
X0396016Y0193055D01*
X0395827Y0193386D01*
X0395630Y0193711D01*
X0395426Y0194032D01*
X0395213Y0194348D01*
X0394993Y0194658D01*
X0394766Y0194964D01*
X0394531Y0195263D01*
X0394289Y0195557D01*
X0394041Y0195845D01*
X0393785Y0196127D01*
X0393522Y0196402D01*
X0393253Y0196671D01*
X0392978Y0196934D01*
X0392696Y0197190D01*
X0392408Y0197438D01*
X0392114Y0197680D01*
X0391815Y0197915D01*
X0391509Y0198142D01*
X0391199Y0198362D01*
X0390883Y0198575D01*
X0390562Y0198779D01*
X0390237Y0198976D01*
X0389906Y0199165D01*
X0389571Y0199346D01*
X0389232Y0199519D01*
X0388889Y0199683D01*
X0388542Y0199840D01*
X0388191Y0199987D01*
X0387837Y0200127D01*
X0387480Y0200257D01*
X0387119Y0200379D01*
X0386756Y0200492D01*
X0386390Y0200597D01*
X0386022Y0200692D01*
X0385651Y0200779D01*
X0385279Y0200857D01*
X0384904Y0200925D01*
X0384528Y0200985D01*
X0384151Y0201035D01*
X0383773Y0201076D01*
X0383394Y0201109D01*
X0383014Y0201132D01*
X0382634Y0201145D01*
X0382253Y0201150D01*
X0020048Y0201150D01*
X0019667Y0201145D01*
X0019287Y0201132D01*
X0018907Y0201109D01*
X0018528Y0201076D01*
X0018150Y0201035D01*
X0017773Y0200985D01*
X0017397Y0200925D01*
X0017022Y0200857D01*
X0016650Y0200779D01*
X0016279Y0200692D01*
X0015911Y0200597D01*
X0015545Y0200492D01*
X0015182Y0200379D01*
X0014821Y0200257D01*
X0014464Y0200127D01*
X0014110Y0199987D01*
X0013759Y0199840D01*
X0013412Y0199683D01*
X0013069Y0199519D01*
X0012730Y0199346D01*
X0012395Y0199165D01*
X0012064Y0198976D01*
X0011739Y0198779D01*
X0011418Y0198575D01*
X0011102Y0198362D01*
X0010792Y0198142D01*
X0010486Y0197915D01*
X0010187Y0197680D01*
X0009893Y0197438D01*
X0009605Y0197190D01*
X0009323Y0196934D01*
X0009048Y0196671D01*
X0008779Y0196402D01*
X0008516Y0196127D01*
X0008260Y0195845D01*
X0008012Y0195557D01*
X0007770Y0195263D01*
X0007535Y0194964D01*
X0007308Y0194658D01*
X0007088Y0194348D01*
X0006875Y0194032D01*
X0006671Y0193711D01*
X0006474Y0193386D01*
X0006285Y0193055D01*
X0006104Y0192720D01*
X0005931Y0192381D01*
X0005767Y0192038D01*
X0005610Y0191691D01*
X0005463Y0191340D01*
X0005323Y0190986D01*
X0005193Y0190629D01*
X0005071Y0190268D01*
X0004958Y0189905D01*
X0004853Y0189539D01*
X0004758Y0189171D01*
X0004671Y0188800D01*
X0004593Y0188428D01*
X0004525Y0188053D01*
X0004465Y0187677D01*
X0004415Y0187300D01*
X0004374Y0186922D01*
X0004341Y0186543D01*
X0004318Y0186163D01*
X0004305Y0185783D01*
X0004300Y0185402D01*
X0004300Y0020048D01*
X0004305Y0019667D01*
X0004318Y0019287D01*
X0004341Y0018907D01*
X0004374Y0018528D01*
X0004415Y0018150D01*
X0004465Y0017773D01*
X0004525Y0017397D01*
X0004593Y0017022D01*
X0004671Y0016650D01*
X0004758Y0016279D01*
X0004853Y0015911D01*
X0004958Y0015545D01*
X0005071Y0015182D01*
X0005193Y0014821D01*
X0005323Y0014464D01*
X0005463Y0014110D01*
X0005610Y0013759D01*
X0005767Y0013412D01*
X0005931Y0013069D01*
X0006104Y0012730D01*
X0006285Y0012395D01*
X0006474Y0012064D01*
X0006671Y0011739D01*
X0006875Y0011418D01*
X0007088Y0011102D01*
X0007308Y0010792D01*
X0007535Y0010486D01*
X0007770Y0010187D01*
X0008012Y0009893D01*
X0008260Y0009605D01*
X0008516Y0009323D01*
X0008779Y0009048D01*
X0009048Y0008779D01*
X0009323Y0008516D01*
X0009605Y0008260D01*
X0009893Y0008012D01*
X0010187Y0007770D01*
X0010486Y0007535D01*
X0010792Y0007308D01*
X0011102Y0007088D01*
X0011418Y0006875D01*
X0011739Y0006671D01*
X0012064Y0006474D01*
X0012395Y0006285D01*
X0012730Y0006104D01*
X0013069Y0005931D01*
X0013412Y0005767D01*
X0013759Y0005610D01*
X0014110Y0005463D01*
X0014464Y0005323D01*
X0014821Y0005193D01*
X0015182Y0005071D01*
X0015545Y0004958D01*
X0015911Y0004853D01*
X0016279Y0004758D01*
X0016650Y0004671D01*
X0017022Y0004593D01*
X0017397Y0004525D01*
X0017773Y0004465D01*
X0018150Y0004415D01*
X0018528Y0004374D01*
X0018907Y0004341D01*
X0019287Y0004318D01*
X0019667Y0004305D01*
X0020048Y0004300D01*
X0014930Y0144457D02*
X0012568Y0144457D01*
X0012502Y0144465D01*
X0012438Y0144477D01*
X0012374Y0144493D01*
X0012311Y0144512D01*
X0012250Y0144536D01*
X0012190Y0144563D01*
X0012132Y0144593D01*
X0012076Y0144627D01*
X0012022Y0144664D01*
X0011970Y0144705D01*
X0011921Y0144749D01*
X0011874Y0144795D01*
X0011831Y0144844D01*
X0011790Y0144896D01*
X0011753Y0144950D01*
X0011719Y0145006D01*
X0011689Y0145064D01*
X0011662Y0145124D01*
X0011638Y0145185D01*
X0011619Y0145248D01*
X0011603Y0145312D01*
X0011591Y0145376D01*
X0011583Y0145442D01*
X0011579Y0145507D01*
X0011579Y0145573D01*
X0011583Y0145638D01*
X0011583Y0145639D02*
X0011579Y0145704D01*
X0011579Y0145770D01*
X0011583Y0145835D01*
X0011591Y0145901D01*
X0011603Y0145965D01*
X0011619Y0146029D01*
X0011638Y0146092D01*
X0011662Y0146153D01*
X0011689Y0146213D01*
X0011719Y0146271D01*
X0011753Y0146327D01*
X0011790Y0146381D01*
X0011831Y0146433D01*
X0011874Y0146482D01*
X0011921Y0146528D01*
X0011970Y0146572D01*
X0012022Y0146613D01*
X0012076Y0146650D01*
X0012132Y0146684D01*
X0012190Y0146714D01*
X0012250Y0146741D01*
X0012311Y0146765D01*
X0012374Y0146784D01*
X0012438Y0146800D01*
X0012502Y0146812D01*
X0012568Y0146820D01*
X0014930Y0146820D01*
X0014929Y0146820D02*
X0014992Y0146812D01*
X0015054Y0146801D01*
X0015116Y0146786D01*
X0015176Y0146768D01*
X0015236Y0146746D01*
X0015294Y0146721D01*
X0015350Y0146692D01*
X0015405Y0146660D01*
X0015457Y0146625D01*
X0015508Y0146587D01*
X0015556Y0146547D01*
X0015602Y0146503D01*
X0015645Y0146457D01*
X0015686Y0146408D01*
X0015724Y0146357D01*
X0015758Y0146305D01*
X0015790Y0146250D01*
X0015818Y0146193D01*
X0015843Y0146135D01*
X0015864Y0146075D01*
X0015882Y0146015D01*
X0015896Y0145953D01*
X0015907Y0145891D01*
X0015914Y0145828D01*
X0015918Y0145765D01*
X0015917Y0145702D01*
X0015914Y0145639D01*
X0015914Y0145638D02*
X0015917Y0145575D01*
X0015918Y0145512D01*
X0015914Y0145449D01*
X0015907Y0145386D01*
X0015896Y0145324D01*
X0015882Y0145262D01*
X0015864Y0145202D01*
X0015843Y0145142D01*
X0015818Y0145084D01*
X0015790Y0145027D01*
X0015758Y0144972D01*
X0015724Y0144920D01*
X0015686Y0144869D01*
X0015645Y0144820D01*
X0015602Y0144774D01*
X0015556Y0144730D01*
X0015508Y0144690D01*
X0015457Y0144652D01*
X0015405Y0144617D01*
X0015350Y0144585D01*
X0015294Y0144556D01*
X0015236Y0144531D01*
X0015176Y0144509D01*
X0015116Y0144491D01*
X0015054Y0144476D01*
X0014992Y0144465D01*
X0014929Y0144457D01*
X0019851Y0152135D02*
X0019853Y0152209D01*
X0019859Y0152283D01*
X0019869Y0152356D01*
X0019883Y0152429D01*
X0019900Y0152501D01*
X0019922Y0152571D01*
X0019947Y0152641D01*
X0019976Y0152709D01*
X0020009Y0152775D01*
X0020045Y0152840D01*
X0020085Y0152902D01*
X0020127Y0152963D01*
X0020173Y0153021D01*
X0020222Y0153076D01*
X0020274Y0153129D01*
X0020329Y0153179D01*
X0020386Y0153225D01*
X0020446Y0153269D01*
X0020508Y0153309D01*
X0020572Y0153346D01*
X0020638Y0153380D01*
X0020706Y0153410D01*
X0020775Y0153436D01*
X0020846Y0153459D01*
X0020917Y0153477D01*
X0020990Y0153492D01*
X0021063Y0153503D01*
X0021137Y0153510D01*
X0021211Y0153513D01*
X0021284Y0153512D01*
X0021358Y0153507D01*
X0021432Y0153498D01*
X0021505Y0153485D01*
X0021577Y0153468D01*
X0021648Y0153448D01*
X0021718Y0153423D01*
X0021786Y0153395D01*
X0021853Y0153364D01*
X0021918Y0153328D01*
X0021981Y0153290D01*
X0022042Y0153248D01*
X0022101Y0153202D01*
X0022157Y0153154D01*
X0022210Y0153103D01*
X0022260Y0153049D01*
X0022308Y0152992D01*
X0022352Y0152933D01*
X0022394Y0152871D01*
X0022432Y0152808D01*
X0022466Y0152742D01*
X0022497Y0152675D01*
X0022524Y0152606D01*
X0022547Y0152536D01*
X0022567Y0152465D01*
X0022583Y0152392D01*
X0022595Y0152319D01*
X0022603Y0152246D01*
X0022607Y0152172D01*
X0022607Y0152098D01*
X0022603Y0152024D01*
X0022595Y0151951D01*
X0022583Y0151878D01*
X0022567Y0151805D01*
X0022547Y0151734D01*
X0022524Y0151664D01*
X0022497Y0151595D01*
X0022466Y0151528D01*
X0022432Y0151462D01*
X0022394Y0151399D01*
X0022352Y0151337D01*
X0022308Y0151278D01*
X0022260Y0151221D01*
X0022210Y0151167D01*
X0022157Y0151116D01*
X0022101Y0151068D01*
X0022042Y0151022D01*
X0021981Y0150980D01*
X0021918Y0150942D01*
X0021853Y0150906D01*
X0021786Y0150875D01*
X0021718Y0150847D01*
X0021648Y0150822D01*
X0021577Y0150802D01*
X0021505Y0150785D01*
X0021432Y0150772D01*
X0021358Y0150763D01*
X0021284Y0150758D01*
X0021211Y0150757D01*
X0021137Y0150760D01*
X0021063Y0150767D01*
X0020990Y0150778D01*
X0020917Y0150793D01*
X0020846Y0150811D01*
X0020775Y0150834D01*
X0020706Y0150860D01*
X0020638Y0150890D01*
X0020572Y0150924D01*
X0020508Y0150961D01*
X0020446Y0151001D01*
X0020386Y0151045D01*
X0020329Y0151091D01*
X0020274Y0151141D01*
X0020222Y0151194D01*
X0020173Y0151249D01*
X0020127Y0151307D01*
X0020085Y0151368D01*
X0020045Y0151430D01*
X0020009Y0151495D01*
X0019976Y0151561D01*
X0019947Y0151629D01*
X0019922Y0151699D01*
X0019900Y0151769D01*
X0019883Y0151841D01*
X0019869Y0151914D01*
X0019859Y0151987D01*
X0019853Y0152061D01*
X0019851Y0152135D01*
X0019851Y0167489D02*
X0019853Y0167563D01*
X0019859Y0167637D01*
X0019869Y0167710D01*
X0019883Y0167783D01*
X0019900Y0167855D01*
X0019922Y0167925D01*
X0019947Y0167995D01*
X0019976Y0168063D01*
X0020009Y0168129D01*
X0020045Y0168194D01*
X0020085Y0168256D01*
X0020127Y0168317D01*
X0020173Y0168375D01*
X0020222Y0168430D01*
X0020274Y0168483D01*
X0020329Y0168533D01*
X0020386Y0168579D01*
X0020446Y0168623D01*
X0020508Y0168663D01*
X0020572Y0168700D01*
X0020638Y0168734D01*
X0020706Y0168764D01*
X0020775Y0168790D01*
X0020846Y0168813D01*
X0020917Y0168831D01*
X0020990Y0168846D01*
X0021063Y0168857D01*
X0021137Y0168864D01*
X0021211Y0168867D01*
X0021284Y0168866D01*
X0021358Y0168861D01*
X0021432Y0168852D01*
X0021505Y0168839D01*
X0021577Y0168822D01*
X0021648Y0168802D01*
X0021718Y0168777D01*
X0021786Y0168749D01*
X0021853Y0168718D01*
X0021918Y0168682D01*
X0021981Y0168644D01*
X0022042Y0168602D01*
X0022101Y0168556D01*
X0022157Y0168508D01*
X0022210Y0168457D01*
X0022260Y0168403D01*
X0022308Y0168346D01*
X0022352Y0168287D01*
X0022394Y0168225D01*
X0022432Y0168162D01*
X0022466Y0168096D01*
X0022497Y0168029D01*
X0022524Y0167960D01*
X0022547Y0167890D01*
X0022567Y0167819D01*
X0022583Y0167746D01*
X0022595Y0167673D01*
X0022603Y0167600D01*
X0022607Y0167526D01*
X0022607Y0167452D01*
X0022603Y0167378D01*
X0022595Y0167305D01*
X0022583Y0167232D01*
X0022567Y0167159D01*
X0022547Y0167088D01*
X0022524Y0167018D01*
X0022497Y0166949D01*
X0022466Y0166882D01*
X0022432Y0166816D01*
X0022394Y0166753D01*
X0022352Y0166691D01*
X0022308Y0166632D01*
X0022260Y0166575D01*
X0022210Y0166521D01*
X0022157Y0166470D01*
X0022101Y0166422D01*
X0022042Y0166376D01*
X0021981Y0166334D01*
X0021918Y0166296D01*
X0021853Y0166260D01*
X0021786Y0166229D01*
X0021718Y0166201D01*
X0021648Y0166176D01*
X0021577Y0166156D01*
X0021505Y0166139D01*
X0021432Y0166126D01*
X0021358Y0166117D01*
X0021284Y0166112D01*
X0021211Y0166111D01*
X0021137Y0166114D01*
X0021063Y0166121D01*
X0020990Y0166132D01*
X0020917Y0166147D01*
X0020846Y0166165D01*
X0020775Y0166188D01*
X0020706Y0166214D01*
X0020638Y0166244D01*
X0020572Y0166278D01*
X0020508Y0166315D01*
X0020446Y0166355D01*
X0020386Y0166399D01*
X0020329Y0166445D01*
X0020274Y0166495D01*
X0020222Y0166548D01*
X0020173Y0166603D01*
X0020127Y0166661D01*
X0020085Y0166722D01*
X0020045Y0166784D01*
X0020009Y0166849D01*
X0019976Y0166915D01*
X0019947Y0166983D01*
X0019922Y0167053D01*
X0019900Y0167123D01*
X0019883Y0167195D01*
X0019869Y0167268D01*
X0019859Y0167341D01*
X0019853Y0167415D01*
X0019851Y0167489D01*
X0014930Y0172804D02*
X0012568Y0172804D01*
X0012502Y0172812D01*
X0012438Y0172824D01*
X0012374Y0172840D01*
X0012311Y0172859D01*
X0012250Y0172883D01*
X0012190Y0172910D01*
X0012132Y0172940D01*
X0012076Y0172974D01*
X0012022Y0173011D01*
X0011970Y0173052D01*
X0011921Y0173096D01*
X0011874Y0173142D01*
X0011831Y0173191D01*
X0011790Y0173243D01*
X0011753Y0173297D01*
X0011719Y0173353D01*
X0011689Y0173411D01*
X0011662Y0173471D01*
X0011638Y0173532D01*
X0011619Y0173595D01*
X0011603Y0173659D01*
X0011591Y0173723D01*
X0011583Y0173789D01*
X0011579Y0173854D01*
X0011579Y0173920D01*
X0011583Y0173985D01*
X0011579Y0174050D01*
X0011579Y0174116D01*
X0011583Y0174181D01*
X0011591Y0174247D01*
X0011603Y0174311D01*
X0011619Y0174375D01*
X0011638Y0174438D01*
X0011662Y0174499D01*
X0011689Y0174559D01*
X0011719Y0174617D01*
X0011753Y0174673D01*
X0011790Y0174727D01*
X0011831Y0174779D01*
X0011874Y0174828D01*
X0011921Y0174874D01*
X0011970Y0174918D01*
X0012022Y0174959D01*
X0012076Y0174996D01*
X0012132Y0175030D01*
X0012190Y0175060D01*
X0012250Y0175087D01*
X0012311Y0175111D01*
X0012374Y0175130D01*
X0012438Y0175146D01*
X0012502Y0175158D01*
X0012568Y0175166D01*
X0014930Y0175166D01*
X0014929Y0175166D02*
X0014992Y0175158D01*
X0015054Y0175147D01*
X0015116Y0175132D01*
X0015176Y0175114D01*
X0015236Y0175092D01*
X0015294Y0175067D01*
X0015350Y0175038D01*
X0015405Y0175006D01*
X0015457Y0174971D01*
X0015508Y0174933D01*
X0015556Y0174893D01*
X0015602Y0174849D01*
X0015645Y0174803D01*
X0015686Y0174754D01*
X0015724Y0174703D01*
X0015758Y0174651D01*
X0015790Y0174596D01*
X0015818Y0174539D01*
X0015843Y0174481D01*
X0015864Y0174421D01*
X0015882Y0174361D01*
X0015896Y0174299D01*
X0015907Y0174237D01*
X0015914Y0174174D01*
X0015918Y0174111D01*
X0015917Y0174048D01*
X0015914Y0173985D01*
X0015917Y0173922D01*
X0015918Y0173859D01*
X0015914Y0173796D01*
X0015907Y0173733D01*
X0015896Y0173671D01*
X0015882Y0173609D01*
X0015864Y0173549D01*
X0015843Y0173489D01*
X0015818Y0173431D01*
X0015790Y0173374D01*
X0015758Y0173319D01*
X0015724Y0173267D01*
X0015686Y0173216D01*
X0015645Y0173167D01*
X0015602Y0173121D01*
X0015556Y0173077D01*
X0015508Y0173037D01*
X0015457Y0172999D01*
X0015405Y0172964D01*
X0015350Y0172932D01*
X0015294Y0172903D01*
X0015236Y0172878D01*
X0015176Y0172856D01*
X0015116Y0172838D01*
X0015054Y0172823D01*
X0014992Y0172812D01*
X0014929Y0172804D01*
X0126544Y0157843D02*
X0126546Y0157927D01*
X0126552Y0158010D01*
X0126562Y0158093D01*
X0126576Y0158176D01*
X0126593Y0158258D01*
X0126615Y0158339D01*
X0126640Y0158418D01*
X0126669Y0158497D01*
X0126702Y0158574D01*
X0126738Y0158649D01*
X0126778Y0158723D01*
X0126821Y0158795D01*
X0126868Y0158864D01*
X0126918Y0158931D01*
X0126971Y0158996D01*
X0127027Y0159058D01*
X0127085Y0159118D01*
X0127147Y0159175D01*
X0127211Y0159228D01*
X0127278Y0159279D01*
X0127347Y0159326D01*
X0127418Y0159371D01*
X0127491Y0159411D01*
X0127566Y0159448D01*
X0127643Y0159482D01*
X0127721Y0159512D01*
X0127800Y0159538D01*
X0127881Y0159561D01*
X0127963Y0159579D01*
X0128045Y0159594D01*
X0128128Y0159605D01*
X0128211Y0159612D01*
X0128295Y0159615D01*
X0128379Y0159614D01*
X0128462Y0159609D01*
X0128546Y0159600D01*
X0128628Y0159587D01*
X0128710Y0159571D01*
X0128791Y0159550D01*
X0128872Y0159526D01*
X0128950Y0159498D01*
X0129028Y0159466D01*
X0129104Y0159430D01*
X0129178Y0159391D01*
X0129250Y0159349D01*
X0129320Y0159303D01*
X0129388Y0159254D01*
X0129453Y0159202D01*
X0129516Y0159147D01*
X0129576Y0159089D01*
X0129634Y0159028D01*
X0129688Y0158964D01*
X0129740Y0158898D01*
X0129788Y0158830D01*
X0129833Y0158759D01*
X0129874Y0158686D01*
X0129913Y0158612D01*
X0129947Y0158536D01*
X0129978Y0158458D01*
X0130005Y0158379D01*
X0130029Y0158298D01*
X0130048Y0158217D01*
X0130064Y0158135D01*
X0130076Y0158052D01*
X0130084Y0157968D01*
X0130088Y0157885D01*
X0130088Y0157801D01*
X0130084Y0157718D01*
X0130076Y0157634D01*
X0130064Y0157551D01*
X0130048Y0157469D01*
X0130029Y0157388D01*
X0130005Y0157307D01*
X0129978Y0157228D01*
X0129947Y0157150D01*
X0129913Y0157074D01*
X0129874Y0157000D01*
X0129833Y0156927D01*
X0129788Y0156856D01*
X0129740Y0156788D01*
X0129688Y0156722D01*
X0129634Y0156658D01*
X0129576Y0156597D01*
X0129516Y0156539D01*
X0129453Y0156484D01*
X0129388Y0156432D01*
X0129320Y0156383D01*
X0129250Y0156337D01*
X0129178Y0156295D01*
X0129104Y0156256D01*
X0129028Y0156220D01*
X0128950Y0156188D01*
X0128872Y0156160D01*
X0128791Y0156136D01*
X0128710Y0156115D01*
X0128628Y0156099D01*
X0128546Y0156086D01*
X0128462Y0156077D01*
X0128379Y0156072D01*
X0128295Y0156071D01*
X0128211Y0156074D01*
X0128128Y0156081D01*
X0128045Y0156092D01*
X0127963Y0156107D01*
X0127881Y0156125D01*
X0127800Y0156148D01*
X0127721Y0156174D01*
X0127643Y0156204D01*
X0127566Y0156238D01*
X0127491Y0156275D01*
X0127418Y0156315D01*
X0127347Y0156360D01*
X0127278Y0156407D01*
X0127211Y0156458D01*
X0127147Y0156511D01*
X0127085Y0156568D01*
X0127027Y0156628D01*
X0126971Y0156690D01*
X0126918Y0156755D01*
X0126868Y0156822D01*
X0126821Y0156891D01*
X0126778Y0156963D01*
X0126738Y0157037D01*
X0126702Y0157112D01*
X0126669Y0157189D01*
X0126640Y0157268D01*
X0126615Y0157347D01*
X0126593Y0157428D01*
X0126576Y0157510D01*
X0126562Y0157593D01*
X0126552Y0157676D01*
X0126546Y0157759D01*
X0126544Y0157843D01*
X0126544Y0146032D02*
X0126546Y0146116D01*
X0126552Y0146199D01*
X0126562Y0146282D01*
X0126576Y0146365D01*
X0126593Y0146447D01*
X0126615Y0146528D01*
X0126640Y0146607D01*
X0126669Y0146686D01*
X0126702Y0146763D01*
X0126738Y0146838D01*
X0126778Y0146912D01*
X0126821Y0146984D01*
X0126868Y0147053D01*
X0126918Y0147120D01*
X0126971Y0147185D01*
X0127027Y0147247D01*
X0127085Y0147307D01*
X0127147Y0147364D01*
X0127211Y0147417D01*
X0127278Y0147468D01*
X0127347Y0147515D01*
X0127418Y0147560D01*
X0127491Y0147600D01*
X0127566Y0147637D01*
X0127643Y0147671D01*
X0127721Y0147701D01*
X0127800Y0147727D01*
X0127881Y0147750D01*
X0127963Y0147768D01*
X0128045Y0147783D01*
X0128128Y0147794D01*
X0128211Y0147801D01*
X0128295Y0147804D01*
X0128379Y0147803D01*
X0128462Y0147798D01*
X0128546Y0147789D01*
X0128628Y0147776D01*
X0128710Y0147760D01*
X0128791Y0147739D01*
X0128872Y0147715D01*
X0128950Y0147687D01*
X0129028Y0147655D01*
X0129104Y0147619D01*
X0129178Y0147580D01*
X0129250Y0147538D01*
X0129320Y0147492D01*
X0129388Y0147443D01*
X0129453Y0147391D01*
X0129516Y0147336D01*
X0129576Y0147278D01*
X0129634Y0147217D01*
X0129688Y0147153D01*
X0129740Y0147087D01*
X0129788Y0147019D01*
X0129833Y0146948D01*
X0129874Y0146875D01*
X0129913Y0146801D01*
X0129947Y0146725D01*
X0129978Y0146647D01*
X0130005Y0146568D01*
X0130029Y0146487D01*
X0130048Y0146406D01*
X0130064Y0146324D01*
X0130076Y0146241D01*
X0130084Y0146157D01*
X0130088Y0146074D01*
X0130088Y0145990D01*
X0130084Y0145907D01*
X0130076Y0145823D01*
X0130064Y0145740D01*
X0130048Y0145658D01*
X0130029Y0145577D01*
X0130005Y0145496D01*
X0129978Y0145417D01*
X0129947Y0145339D01*
X0129913Y0145263D01*
X0129874Y0145189D01*
X0129833Y0145116D01*
X0129788Y0145045D01*
X0129740Y0144977D01*
X0129688Y0144911D01*
X0129634Y0144847D01*
X0129576Y0144786D01*
X0129516Y0144728D01*
X0129453Y0144673D01*
X0129388Y0144621D01*
X0129320Y0144572D01*
X0129250Y0144526D01*
X0129178Y0144484D01*
X0129104Y0144445D01*
X0129028Y0144409D01*
X0128950Y0144377D01*
X0128872Y0144349D01*
X0128791Y0144325D01*
X0128710Y0144304D01*
X0128628Y0144288D01*
X0128546Y0144275D01*
X0128462Y0144266D01*
X0128379Y0144261D01*
X0128295Y0144260D01*
X0128211Y0144263D01*
X0128128Y0144270D01*
X0128045Y0144281D01*
X0127963Y0144296D01*
X0127881Y0144314D01*
X0127800Y0144337D01*
X0127721Y0144363D01*
X0127643Y0144393D01*
X0127566Y0144427D01*
X0127491Y0144464D01*
X0127418Y0144504D01*
X0127347Y0144549D01*
X0127278Y0144596D01*
X0127211Y0144647D01*
X0127147Y0144700D01*
X0127085Y0144757D01*
X0127027Y0144817D01*
X0126971Y0144879D01*
X0126918Y0144944D01*
X0126868Y0145011D01*
X0126821Y0145080D01*
X0126778Y0145152D01*
X0126738Y0145226D01*
X0126702Y0145301D01*
X0126669Y0145378D01*
X0126640Y0145457D01*
X0126615Y0145536D01*
X0126593Y0145617D01*
X0126576Y0145699D01*
X0126562Y0145782D01*
X0126552Y0145865D01*
X0126546Y0145948D01*
X0126544Y0146032D01*
X0375363Y0183434D02*
X0375365Y0183574D01*
X0375371Y0183714D01*
X0375381Y0183853D01*
X0375395Y0183992D01*
X0375413Y0184131D01*
X0375434Y0184269D01*
X0375460Y0184407D01*
X0375490Y0184544D01*
X0375523Y0184679D01*
X0375561Y0184814D01*
X0375602Y0184948D01*
X0375647Y0185081D01*
X0375695Y0185212D01*
X0375748Y0185341D01*
X0375804Y0185470D01*
X0375863Y0185596D01*
X0375927Y0185721D01*
X0375993Y0185844D01*
X0376064Y0185965D01*
X0376137Y0186084D01*
X0376214Y0186201D01*
X0376295Y0186315D01*
X0376378Y0186427D01*
X0376465Y0186537D01*
X0376555Y0186645D01*
X0376647Y0186749D01*
X0376743Y0186851D01*
X0376842Y0186951D01*
X0376943Y0187047D01*
X0377047Y0187141D01*
X0377154Y0187231D01*
X0377263Y0187318D01*
X0377375Y0187403D01*
X0377489Y0187484D01*
X0377605Y0187562D01*
X0377723Y0187636D01*
X0377844Y0187707D01*
X0377966Y0187775D01*
X0378091Y0187839D01*
X0378217Y0187900D01*
X0378344Y0187957D01*
X0378474Y0188010D01*
X0378605Y0188060D01*
X0378737Y0188105D01*
X0378870Y0188148D01*
X0379005Y0188186D01*
X0379140Y0188220D01*
X0379277Y0188251D01*
X0379414Y0188278D01*
X0379552Y0188300D01*
X0379691Y0188319D01*
X0379830Y0188334D01*
X0379969Y0188345D01*
X0380109Y0188352D01*
X0380249Y0188355D01*
X0380389Y0188354D01*
X0380529Y0188349D01*
X0380668Y0188340D01*
X0380808Y0188327D01*
X0380947Y0188310D01*
X0381085Y0188289D01*
X0381223Y0188265D01*
X0381360Y0188236D01*
X0381496Y0188204D01*
X0381631Y0188167D01*
X0381765Y0188127D01*
X0381898Y0188083D01*
X0382029Y0188035D01*
X0382159Y0187984D01*
X0382288Y0187929D01*
X0382415Y0187870D01*
X0382540Y0187807D01*
X0382663Y0187742D01*
X0382785Y0187672D01*
X0382904Y0187599D01*
X0383022Y0187523D01*
X0383137Y0187444D01*
X0383250Y0187361D01*
X0383360Y0187275D01*
X0383468Y0187186D01*
X0383573Y0187094D01*
X0383676Y0186999D01*
X0383776Y0186901D01*
X0383873Y0186801D01*
X0383967Y0186697D01*
X0384059Y0186591D01*
X0384147Y0186483D01*
X0384232Y0186372D01*
X0384314Y0186258D01*
X0384393Y0186142D01*
X0384468Y0186025D01*
X0384540Y0185905D01*
X0384608Y0185783D01*
X0384673Y0185659D01*
X0384735Y0185533D01*
X0384793Y0185406D01*
X0384847Y0185277D01*
X0384898Y0185146D01*
X0384944Y0185014D01*
X0384987Y0184881D01*
X0385027Y0184747D01*
X0385062Y0184612D01*
X0385094Y0184475D01*
X0385121Y0184338D01*
X0385145Y0184200D01*
X0385165Y0184062D01*
X0385181Y0183923D01*
X0385193Y0183783D01*
X0385201Y0183644D01*
X0385205Y0183504D01*
X0385205Y0183364D01*
X0385201Y0183224D01*
X0385193Y0183085D01*
X0385181Y0182945D01*
X0385165Y0182806D01*
X0385145Y0182668D01*
X0385121Y0182530D01*
X0385094Y0182393D01*
X0385062Y0182256D01*
X0385027Y0182121D01*
X0384987Y0181987D01*
X0384944Y0181854D01*
X0384898Y0181722D01*
X0384847Y0181591D01*
X0384793Y0181462D01*
X0384735Y0181335D01*
X0384673Y0181209D01*
X0384608Y0181085D01*
X0384540Y0180963D01*
X0384468Y0180843D01*
X0384393Y0180726D01*
X0384314Y0180610D01*
X0384232Y0180496D01*
X0384147Y0180385D01*
X0384059Y0180277D01*
X0383967Y0180171D01*
X0383873Y0180067D01*
X0383776Y0179967D01*
X0383676Y0179869D01*
X0383573Y0179774D01*
X0383468Y0179682D01*
X0383360Y0179593D01*
X0383250Y0179507D01*
X0383137Y0179424D01*
X0383022Y0179345D01*
X0382904Y0179269D01*
X0382785Y0179196D01*
X0382663Y0179126D01*
X0382540Y0179061D01*
X0382415Y0178998D01*
X0382288Y0178939D01*
X0382159Y0178884D01*
X0382029Y0178833D01*
X0381898Y0178785D01*
X0381765Y0178741D01*
X0381631Y0178701D01*
X0381496Y0178664D01*
X0381360Y0178632D01*
X0381223Y0178603D01*
X0381085Y0178579D01*
X0380947Y0178558D01*
X0380808Y0178541D01*
X0380668Y0178528D01*
X0380529Y0178519D01*
X0380389Y0178514D01*
X0380249Y0178513D01*
X0380109Y0178516D01*
X0379969Y0178523D01*
X0379830Y0178534D01*
X0379691Y0178549D01*
X0379552Y0178568D01*
X0379414Y0178590D01*
X0379277Y0178617D01*
X0379140Y0178648D01*
X0379005Y0178682D01*
X0378870Y0178720D01*
X0378737Y0178763D01*
X0378605Y0178808D01*
X0378474Y0178858D01*
X0378344Y0178911D01*
X0378217Y0178968D01*
X0378091Y0179029D01*
X0377966Y0179093D01*
X0377844Y0179161D01*
X0377723Y0179232D01*
X0377605Y0179306D01*
X0377489Y0179384D01*
X0377375Y0179465D01*
X0377263Y0179550D01*
X0377154Y0179637D01*
X0377047Y0179727D01*
X0376943Y0179821D01*
X0376842Y0179917D01*
X0376743Y0180017D01*
X0376647Y0180119D01*
X0376555Y0180223D01*
X0376465Y0180331D01*
X0376378Y0180441D01*
X0376295Y0180553D01*
X0376214Y0180667D01*
X0376137Y0180784D01*
X0376064Y0180903D01*
X0375993Y0181024D01*
X0375927Y0181147D01*
X0375863Y0181272D01*
X0375804Y0181398D01*
X0375748Y0181527D01*
X0375695Y0181656D01*
X0375647Y0181787D01*
X0375602Y0181920D01*
X0375561Y0182054D01*
X0375523Y0182189D01*
X0375490Y0182324D01*
X0375460Y0182461D01*
X0375434Y0182599D01*
X0375413Y0182737D01*
X0375395Y0182876D01*
X0375381Y0183015D01*
X0375371Y0183154D01*
X0375365Y0183294D01*
X0375363Y0183434D01*
X0376426Y0102725D02*
X0376428Y0102918D01*
X0376435Y0103111D01*
X0376447Y0103304D01*
X0376464Y0103497D01*
X0376485Y0103689D01*
X0376511Y0103880D01*
X0376542Y0104071D01*
X0376577Y0104261D01*
X0376617Y0104450D01*
X0376662Y0104638D01*
X0376711Y0104825D01*
X0376765Y0105011D01*
X0376823Y0105195D01*
X0376886Y0105378D01*
X0376954Y0105559D01*
X0377025Y0105738D01*
X0377102Y0105916D01*
X0377182Y0106092D01*
X0377267Y0106265D01*
X0377356Y0106437D01*
X0377449Y0106606D01*
X0377546Y0106773D01*
X0377648Y0106938D01*
X0377753Y0107100D01*
X0377862Y0107259D01*
X0377976Y0107416D01*
X0378093Y0107569D01*
X0378213Y0107720D01*
X0378338Y0107868D01*
X0378466Y0108013D01*
X0378597Y0108154D01*
X0378732Y0108293D01*
X0378871Y0108428D01*
X0379012Y0108559D01*
X0379157Y0108687D01*
X0379305Y0108812D01*
X0379456Y0108932D01*
X0379609Y0109049D01*
X0379766Y0109163D01*
X0379925Y0109272D01*
X0380087Y0109377D01*
X0380252Y0109479D01*
X0380419Y0109576D01*
X0380588Y0109669D01*
X0380760Y0109758D01*
X0380933Y0109843D01*
X0381109Y0109923D01*
X0381287Y0110000D01*
X0381466Y0110071D01*
X0381647Y0110139D01*
X0381830Y0110202D01*
X0382014Y0110260D01*
X0382200Y0110314D01*
X0382387Y0110363D01*
X0382575Y0110408D01*
X0382764Y0110448D01*
X0382954Y0110483D01*
X0383145Y0110514D01*
X0383336Y0110540D01*
X0383528Y0110561D01*
X0383721Y0110578D01*
X0383914Y0110590D01*
X0384107Y0110597D01*
X0384300Y0110599D01*
X0384493Y0110597D01*
X0384686Y0110590D01*
X0384879Y0110578D01*
X0385072Y0110561D01*
X0385264Y0110540D01*
X0385455Y0110514D01*
X0385646Y0110483D01*
X0385836Y0110448D01*
X0386025Y0110408D01*
X0386213Y0110363D01*
X0386400Y0110314D01*
X0386586Y0110260D01*
X0386770Y0110202D01*
X0386953Y0110139D01*
X0387134Y0110071D01*
X0387313Y0110000D01*
X0387491Y0109923D01*
X0387667Y0109843D01*
X0387840Y0109758D01*
X0388012Y0109669D01*
X0388181Y0109576D01*
X0388348Y0109479D01*
X0388513Y0109377D01*
X0388675Y0109272D01*
X0388834Y0109163D01*
X0388991Y0109049D01*
X0389144Y0108932D01*
X0389295Y0108812D01*
X0389443Y0108687D01*
X0389588Y0108559D01*
X0389729Y0108428D01*
X0389868Y0108293D01*
X0390003Y0108154D01*
X0390134Y0108013D01*
X0390262Y0107868D01*
X0390387Y0107720D01*
X0390507Y0107569D01*
X0390624Y0107416D01*
X0390738Y0107259D01*
X0390847Y0107100D01*
X0390952Y0106938D01*
X0391054Y0106773D01*
X0391151Y0106606D01*
X0391244Y0106437D01*
X0391333Y0106265D01*
X0391418Y0106092D01*
X0391498Y0105916D01*
X0391575Y0105738D01*
X0391646Y0105559D01*
X0391714Y0105378D01*
X0391777Y0105195D01*
X0391835Y0105011D01*
X0391889Y0104825D01*
X0391938Y0104638D01*
X0391983Y0104450D01*
X0392023Y0104261D01*
X0392058Y0104071D01*
X0392089Y0103880D01*
X0392115Y0103689D01*
X0392136Y0103497D01*
X0392153Y0103304D01*
X0392165Y0103111D01*
X0392172Y0102918D01*
X0392174Y0102725D01*
X0392172Y0102532D01*
X0392165Y0102339D01*
X0392153Y0102146D01*
X0392136Y0101953D01*
X0392115Y0101761D01*
X0392089Y0101570D01*
X0392058Y0101379D01*
X0392023Y0101189D01*
X0391983Y0101000D01*
X0391938Y0100812D01*
X0391889Y0100625D01*
X0391835Y0100439D01*
X0391777Y0100255D01*
X0391714Y0100072D01*
X0391646Y0099891D01*
X0391575Y0099712D01*
X0391498Y0099534D01*
X0391418Y0099358D01*
X0391333Y0099185D01*
X0391244Y0099013D01*
X0391151Y0098844D01*
X0391054Y0098677D01*
X0390952Y0098512D01*
X0390847Y0098350D01*
X0390738Y0098191D01*
X0390624Y0098034D01*
X0390507Y0097881D01*
X0390387Y0097730D01*
X0390262Y0097582D01*
X0390134Y0097437D01*
X0390003Y0097296D01*
X0389868Y0097157D01*
X0389729Y0097022D01*
X0389588Y0096891D01*
X0389443Y0096763D01*
X0389295Y0096638D01*
X0389144Y0096518D01*
X0388991Y0096401D01*
X0388834Y0096287D01*
X0388675Y0096178D01*
X0388513Y0096073D01*
X0388348Y0095971D01*
X0388181Y0095874D01*
X0388012Y0095781D01*
X0387840Y0095692D01*
X0387667Y0095607D01*
X0387491Y0095527D01*
X0387313Y0095450D01*
X0387134Y0095379D01*
X0386953Y0095311D01*
X0386770Y0095248D01*
X0386586Y0095190D01*
X0386400Y0095136D01*
X0386213Y0095087D01*
X0386025Y0095042D01*
X0385836Y0095002D01*
X0385646Y0094967D01*
X0385455Y0094936D01*
X0385264Y0094910D01*
X0385072Y0094889D01*
X0384879Y0094872D01*
X0384686Y0094860D01*
X0384493Y0094853D01*
X0384300Y0094851D01*
X0384107Y0094853D01*
X0383914Y0094860D01*
X0383721Y0094872D01*
X0383528Y0094889D01*
X0383336Y0094910D01*
X0383145Y0094936D01*
X0382954Y0094967D01*
X0382764Y0095002D01*
X0382575Y0095042D01*
X0382387Y0095087D01*
X0382200Y0095136D01*
X0382014Y0095190D01*
X0381830Y0095248D01*
X0381647Y0095311D01*
X0381466Y0095379D01*
X0381287Y0095450D01*
X0381109Y0095527D01*
X0380933Y0095607D01*
X0380760Y0095692D01*
X0380588Y0095781D01*
X0380419Y0095874D01*
X0380252Y0095971D01*
X0380087Y0096073D01*
X0379925Y0096178D01*
X0379766Y0096287D01*
X0379609Y0096401D01*
X0379456Y0096518D01*
X0379305Y0096638D01*
X0379157Y0096763D01*
X0379012Y0096891D01*
X0378871Y0097022D01*
X0378732Y0097157D01*
X0378597Y0097296D01*
X0378466Y0097437D01*
X0378338Y0097582D01*
X0378213Y0097730D01*
X0378093Y0097881D01*
X0377976Y0098034D01*
X0377862Y0098191D01*
X0377753Y0098350D01*
X0377648Y0098512D01*
X0377546Y0098677D01*
X0377449Y0098844D01*
X0377356Y0099013D01*
X0377267Y0099185D01*
X0377182Y0099358D01*
X0377102Y0099534D01*
X0377025Y0099712D01*
X0376954Y0099891D01*
X0376886Y0100072D01*
X0376823Y0100255D01*
X0376765Y0100439D01*
X0376711Y0100625D01*
X0376662Y0100812D01*
X0376617Y0101000D01*
X0376577Y0101189D01*
X0376542Y0101379D01*
X0376511Y0101570D01*
X0376485Y0101761D01*
X0376464Y0101953D01*
X0376447Y0102146D01*
X0376435Y0102339D01*
X0376428Y0102532D01*
X0376426Y0102725D01*
X0375363Y0022017D02*
X0375365Y0022157D01*
X0375371Y0022297D01*
X0375381Y0022436D01*
X0375395Y0022575D01*
X0375413Y0022714D01*
X0375434Y0022852D01*
X0375460Y0022990D01*
X0375490Y0023127D01*
X0375523Y0023262D01*
X0375561Y0023397D01*
X0375602Y0023531D01*
X0375647Y0023664D01*
X0375695Y0023795D01*
X0375748Y0023924D01*
X0375804Y0024053D01*
X0375863Y0024179D01*
X0375927Y0024304D01*
X0375993Y0024427D01*
X0376064Y0024548D01*
X0376137Y0024667D01*
X0376214Y0024784D01*
X0376295Y0024898D01*
X0376378Y0025010D01*
X0376465Y0025120D01*
X0376555Y0025228D01*
X0376647Y0025332D01*
X0376743Y0025434D01*
X0376842Y0025534D01*
X0376943Y0025630D01*
X0377047Y0025724D01*
X0377154Y0025814D01*
X0377263Y0025901D01*
X0377375Y0025986D01*
X0377489Y0026067D01*
X0377605Y0026145D01*
X0377723Y0026219D01*
X0377844Y0026290D01*
X0377966Y0026358D01*
X0378091Y0026422D01*
X0378217Y0026483D01*
X0378344Y0026540D01*
X0378474Y0026593D01*
X0378605Y0026643D01*
X0378737Y0026688D01*
X0378870Y0026731D01*
X0379005Y0026769D01*
X0379140Y0026803D01*
X0379277Y0026834D01*
X0379414Y0026861D01*
X0379552Y0026883D01*
X0379691Y0026902D01*
X0379830Y0026917D01*
X0379969Y0026928D01*
X0380109Y0026935D01*
X0380249Y0026938D01*
X0380389Y0026937D01*
X0380529Y0026932D01*
X0380668Y0026923D01*
X0380808Y0026910D01*
X0380947Y0026893D01*
X0381085Y0026872D01*
X0381223Y0026848D01*
X0381360Y0026819D01*
X0381496Y0026787D01*
X0381631Y0026750D01*
X0381765Y0026710D01*
X0381898Y0026666D01*
X0382029Y0026618D01*
X0382159Y0026567D01*
X0382288Y0026512D01*
X0382415Y0026453D01*
X0382540Y0026390D01*
X0382663Y0026325D01*
X0382785Y0026255D01*
X0382904Y0026182D01*
X0383022Y0026106D01*
X0383137Y0026027D01*
X0383250Y0025944D01*
X0383360Y0025858D01*
X0383468Y0025769D01*
X0383573Y0025677D01*
X0383676Y0025582D01*
X0383776Y0025484D01*
X0383873Y0025384D01*
X0383967Y0025280D01*
X0384059Y0025174D01*
X0384147Y0025066D01*
X0384232Y0024955D01*
X0384314Y0024841D01*
X0384393Y0024725D01*
X0384468Y0024608D01*
X0384540Y0024488D01*
X0384608Y0024366D01*
X0384673Y0024242D01*
X0384735Y0024116D01*
X0384793Y0023989D01*
X0384847Y0023860D01*
X0384898Y0023729D01*
X0384944Y0023597D01*
X0384987Y0023464D01*
X0385027Y0023330D01*
X0385062Y0023195D01*
X0385094Y0023058D01*
X0385121Y0022921D01*
X0385145Y0022783D01*
X0385165Y0022645D01*
X0385181Y0022506D01*
X0385193Y0022366D01*
X0385201Y0022227D01*
X0385205Y0022087D01*
X0385205Y0021947D01*
X0385201Y0021807D01*
X0385193Y0021668D01*
X0385181Y0021528D01*
X0385165Y0021389D01*
X0385145Y0021251D01*
X0385121Y0021113D01*
X0385094Y0020976D01*
X0385062Y0020839D01*
X0385027Y0020704D01*
X0384987Y0020570D01*
X0384944Y0020437D01*
X0384898Y0020305D01*
X0384847Y0020174D01*
X0384793Y0020045D01*
X0384735Y0019918D01*
X0384673Y0019792D01*
X0384608Y0019668D01*
X0384540Y0019546D01*
X0384468Y0019426D01*
X0384393Y0019309D01*
X0384314Y0019193D01*
X0384232Y0019079D01*
X0384147Y0018968D01*
X0384059Y0018860D01*
X0383967Y0018754D01*
X0383873Y0018650D01*
X0383776Y0018550D01*
X0383676Y0018452D01*
X0383573Y0018357D01*
X0383468Y0018265D01*
X0383360Y0018176D01*
X0383250Y0018090D01*
X0383137Y0018007D01*
X0383022Y0017928D01*
X0382904Y0017852D01*
X0382785Y0017779D01*
X0382663Y0017709D01*
X0382540Y0017644D01*
X0382415Y0017581D01*
X0382288Y0017522D01*
X0382159Y0017467D01*
X0382029Y0017416D01*
X0381898Y0017368D01*
X0381765Y0017324D01*
X0381631Y0017284D01*
X0381496Y0017247D01*
X0381360Y0017215D01*
X0381223Y0017186D01*
X0381085Y0017162D01*
X0380947Y0017141D01*
X0380808Y0017124D01*
X0380668Y0017111D01*
X0380529Y0017102D01*
X0380389Y0017097D01*
X0380249Y0017096D01*
X0380109Y0017099D01*
X0379969Y0017106D01*
X0379830Y0017117D01*
X0379691Y0017132D01*
X0379552Y0017151D01*
X0379414Y0017173D01*
X0379277Y0017200D01*
X0379140Y0017231D01*
X0379005Y0017265D01*
X0378870Y0017303D01*
X0378737Y0017346D01*
X0378605Y0017391D01*
X0378474Y0017441D01*
X0378344Y0017494D01*
X0378217Y0017551D01*
X0378091Y0017612D01*
X0377966Y0017676D01*
X0377844Y0017744D01*
X0377723Y0017815D01*
X0377605Y0017889D01*
X0377489Y0017967D01*
X0377375Y0018048D01*
X0377263Y0018133D01*
X0377154Y0018220D01*
X0377047Y0018310D01*
X0376943Y0018404D01*
X0376842Y0018500D01*
X0376743Y0018600D01*
X0376647Y0018702D01*
X0376555Y0018806D01*
X0376465Y0018914D01*
X0376378Y0019024D01*
X0376295Y0019136D01*
X0376214Y0019250D01*
X0376137Y0019367D01*
X0376064Y0019486D01*
X0375993Y0019607D01*
X0375927Y0019730D01*
X0375863Y0019855D01*
X0375804Y0019981D01*
X0375748Y0020110D01*
X0375695Y0020239D01*
X0375647Y0020370D01*
X0375602Y0020503D01*
X0375561Y0020637D01*
X0375523Y0020772D01*
X0375490Y0020907D01*
X0375460Y0021044D01*
X0375434Y0021182D01*
X0375413Y0021320D01*
X0375395Y0021459D01*
X0375381Y0021598D01*
X0375371Y0021737D01*
X0375365Y0021877D01*
X0375363Y0022017D01*
D11*
X0381845Y0004300D02*
X0382235Y0004305D01*
X0382626Y0004319D01*
X0383015Y0004342D01*
X0383404Y0004375D01*
X0383792Y0004418D01*
X0384179Y0004470D01*
X0384565Y0004531D01*
X0384949Y0004601D01*
X0385331Y0004681D01*
X0385711Y0004769D01*
X0386089Y0004867D01*
X0386465Y0004975D01*
X0386837Y0005091D01*
X0387207Y0005216D01*
X0387574Y0005350D01*
X0387937Y0005493D01*
X0388297Y0005644D01*
X0388653Y0005805D01*
X0389005Y0005973D01*
X0389353Y0006151D01*
X0389697Y0006336D01*
X0390035Y0006530D01*
X0390370Y0006732D01*
X0390699Y0006942D01*
X0391023Y0007160D01*
X0391341Y0007386D01*
X0391654Y0007619D01*
X0391962Y0007860D01*
X0392263Y0008108D01*
X0392558Y0008363D01*
X0392847Y0008625D01*
X0393130Y0008895D01*
X0393406Y0009171D01*
X0393676Y0009454D01*
X0393938Y0009743D01*
X0394193Y0010038D01*
X0394441Y0010339D01*
X0394682Y0010647D01*
X0394915Y0010960D01*
X0395141Y0011278D01*
X0395359Y0011602D01*
X0395569Y0011931D01*
X0395771Y0012266D01*
X0395965Y0012604D01*
X0396150Y0012948D01*
X0396328Y0013296D01*
X0396496Y0013648D01*
X0396657Y0014004D01*
X0396808Y0014364D01*
X0396951Y0014727D01*
X0397085Y0015094D01*
X0397210Y0015464D01*
X0397326Y0015836D01*
X0397434Y0016212D01*
X0397532Y0016590D01*
X0397620Y0016970D01*
X0397700Y0017352D01*
X0397770Y0017736D01*
X0397831Y0018122D01*
X0397883Y0018509D01*
X0397926Y0018897D01*
X0397959Y0019286D01*
X0397982Y0019675D01*
X0397996Y0020066D01*
X0398001Y0020456D01*
X0398001Y0184918D01*
X0397996Y0185310D01*
X0397982Y0185702D01*
X0397958Y0186094D01*
X0397925Y0186485D01*
X0397883Y0186875D01*
X0397831Y0187263D01*
X0397769Y0187651D01*
X0397699Y0188037D01*
X0397619Y0188421D01*
X0397529Y0188803D01*
X0397431Y0189183D01*
X0397323Y0189560D01*
X0397207Y0189934D01*
X0397081Y0190306D01*
X0396946Y0190674D01*
X0396803Y0191039D01*
X0396650Y0191401D01*
X0396489Y0191759D01*
X0396320Y0192112D01*
X0396142Y0192462D01*
X0395955Y0192807D01*
X0395760Y0193147D01*
X0395557Y0193483D01*
X0395346Y0193814D01*
X0395127Y0194139D01*
X0394901Y0194460D01*
X0394666Y0194774D01*
X0394424Y0195083D01*
X0394175Y0195386D01*
X0393919Y0195682D01*
X0393655Y0195973D01*
X0393384Y0196257D01*
X0393107Y0196534D01*
X0392823Y0196805D01*
X0392532Y0197069D01*
X0392236Y0197325D01*
X0391933Y0197574D01*
X0391624Y0197816D01*
X0391310Y0198051D01*
X0390989Y0198277D01*
X0390664Y0198496D01*
X0390333Y0198707D01*
X0389997Y0198910D01*
X0389657Y0199105D01*
X0389312Y0199292D01*
X0388962Y0199470D01*
X0388609Y0199639D01*
X0388251Y0199800D01*
X0387889Y0199953D01*
X0387524Y0200096D01*
X0387156Y0200231D01*
X0386784Y0200357D01*
X0386410Y0200473D01*
X0386033Y0200581D01*
X0385653Y0200679D01*
X0385271Y0200769D01*
X0384887Y0200849D01*
X0384501Y0200919D01*
X0384113Y0200981D01*
X0383725Y0201033D01*
X0383335Y0201075D01*
X0382944Y0201108D01*
X0382552Y0201132D01*
X0382160Y0201146D01*
X0381768Y0201151D01*
X0381768Y0201150D02*
X0021569Y0201150D01*
X0021152Y0201145D01*
X0020735Y0201130D01*
X0020318Y0201105D01*
X0019902Y0201069D01*
X0019487Y0201024D01*
X0019074Y0200969D01*
X0018662Y0200904D01*
X0018251Y0200828D01*
X0017843Y0200743D01*
X0017436Y0200648D01*
X0017032Y0200543D01*
X0016631Y0200429D01*
X0016233Y0200305D01*
X0015837Y0200171D01*
X0015445Y0200028D01*
X0015057Y0199875D01*
X0014672Y0199713D01*
X0014292Y0199542D01*
X0013916Y0199361D01*
X0013544Y0199172D01*
X0013177Y0198974D01*
X0012814Y0198766D01*
X0012457Y0198550D01*
X0012105Y0198326D01*
X0011759Y0198093D01*
X0011419Y0197852D01*
X0011084Y0197603D01*
X0010755Y0197345D01*
X0010433Y0197080D01*
X0010118Y0196807D01*
X0009809Y0196527D01*
X0009506Y0196239D01*
X0009211Y0195944D01*
X0008923Y0195641D01*
X0008643Y0195332D01*
X0008370Y0195017D01*
X0008105Y0194695D01*
X0007847Y0194366D01*
X0007598Y0194031D01*
X0007357Y0193691D01*
X0007124Y0193345D01*
X0006900Y0192993D01*
X0006684Y0192636D01*
X0006476Y0192273D01*
X0006278Y0191906D01*
X0006089Y0191534D01*
X0005908Y0191158D01*
X0005737Y0190778D01*
X0005575Y0190393D01*
X0005422Y0190005D01*
X0005279Y0189613D01*
X0005145Y0189217D01*
X0005021Y0188819D01*
X0004907Y0188418D01*
X0004802Y0188014D01*
X0004707Y0187607D01*
X0004622Y0187199D01*
X0004546Y0186788D01*
X0004481Y0186376D01*
X0004426Y0185963D01*
X0004381Y0185548D01*
X0004345Y0185132D01*
X0004320Y0184715D01*
X0004305Y0184298D01*
X0004300Y0183881D01*
X0004300Y0020146D01*
X0004305Y0019763D01*
X0004319Y0019380D01*
X0004342Y0018998D01*
X0004374Y0018617D01*
X0004416Y0018236D01*
X0004466Y0017856D01*
X0004526Y0017478D01*
X0004595Y0017102D01*
X0004673Y0016727D01*
X0004760Y0016354D01*
X0004857Y0015983D01*
X0004962Y0015615D01*
X0005076Y0015249D01*
X0005198Y0014887D01*
X0005330Y0014527D01*
X0005470Y0014171D01*
X0005619Y0013818D01*
X0005776Y0013468D01*
X0005941Y0013123D01*
X0006115Y0012782D01*
X0006297Y0012445D01*
X0006487Y0012113D01*
X0006685Y0011785D01*
X0006891Y0011462D01*
X0007105Y0011144D01*
X0007326Y0010832D01*
X0007555Y0010525D01*
X0007791Y0010223D01*
X0008035Y0009928D01*
X0008285Y0009638D01*
X0008542Y0009355D01*
X0008807Y0009077D01*
X0009077Y0008807D01*
X0009355Y0008542D01*
X0009638Y0008285D01*
X0009928Y0008035D01*
X0010223Y0007791D01*
X0010525Y0007555D01*
X0010832Y0007326D01*
X0011144Y0007105D01*
X0011462Y0006891D01*
X0011785Y0006685D01*
X0012113Y0006487D01*
X0012445Y0006297D01*
X0012782Y0006115D01*
X0013123Y0005941D01*
X0013468Y0005776D01*
X0013818Y0005619D01*
X0014171Y0005470D01*
X0014527Y0005330D01*
X0014887Y0005198D01*
X0015249Y0005076D01*
X0015615Y0004962D01*
X0015983Y0004857D01*
X0016354Y0004760D01*
X0016727Y0004673D01*
X0017102Y0004595D01*
X0017478Y0004526D01*
X0017856Y0004466D01*
X0018236Y0004416D01*
X0018617Y0004374D01*
X0018998Y0004342D01*
X0019380Y0004319D01*
X0019763Y0004305D01*
X0020146Y0004300D01*
X0381845Y0004300D01*
D12*
X0159163Y0130557D02*
X0158096Y0129490D01*
X0155961Y0129490D01*
X0154893Y0130557D01*
X0154893Y0134828D01*
X0155961Y0135895D01*
X0158096Y0135895D01*
X0159163Y0134828D01*
X0159163Y0130557D01*
X0152718Y0129490D02*
X0152718Y0135895D01*
X0148447Y0135895D01*
X0146272Y0135895D02*
X0142002Y0135895D01*
X0144137Y0132692D02*
X0146272Y0132692D01*
X0146272Y0129490D02*
X0146272Y0135895D01*
X0150583Y0132692D02*
X0152718Y0132692D01*
X0153415Y0166017D02*
X0149145Y0166017D01*
X0146969Y0166017D02*
X0146969Y0172423D01*
X0143767Y0172423D01*
X0142699Y0171355D01*
X0142699Y0169220D01*
X0143767Y0168152D01*
X0146969Y0168152D01*
X0144834Y0168152D02*
X0142699Y0166017D01*
X0138389Y0166017D02*
X0138389Y0169220D01*
X0136254Y0171355D01*
X0136254Y0172423D01*
X0138389Y0169220D02*
X0140524Y0171355D01*
X0140524Y0172423D01*
X0149145Y0172423D02*
X0153415Y0172423D01*
X0153415Y0166017D01*
X0153415Y0169220D02*
X0151280Y0169220D01*
X0155590Y0172423D02*
X0159860Y0172423D01*
X0157725Y0172423D02*
X0157725Y0166017D01*
X0164171Y0166017D02*
X0164171Y0172423D01*
X0166306Y0172423D02*
X0162036Y0172423D01*
X0168481Y0170288D02*
X0168481Y0166017D01*
X0168481Y0169220D02*
X0172751Y0169220D01*
X0172751Y0170288D02*
X0172751Y0166017D01*
X0174927Y0167085D02*
X0174927Y0168152D01*
X0175994Y0169220D01*
X0179197Y0169220D01*
X0179197Y0166017D02*
X0175994Y0166017D01*
X0174927Y0167085D01*
X0175994Y0169220D02*
X0174927Y0170288D01*
X0174927Y0171355D01*
X0175994Y0172423D01*
X0179197Y0172423D01*
X0179197Y0166017D01*
X0172751Y0170288D02*
X0170616Y0172423D01*
X0168481Y0170288D01*
X0124517Y0095368D02*
X0121315Y0095368D01*
X0120247Y0094301D01*
X0120247Y0093233D01*
X0121315Y0092165D01*
X0124517Y0092165D01*
X0121315Y0092165D02*
X0120247Y0091098D01*
X0120247Y0090030D01*
X0121315Y0088963D01*
X0124517Y0088963D01*
X0124517Y0095368D01*
X0118072Y0092165D02*
X0113802Y0092165D01*
X0115937Y0090030D02*
X0115937Y0094301D01*
X0114005Y0087135D02*
X0111505Y0084635D01*
X0111505Y0079635D01*
X0114005Y0077135D01*
X0111505Y0074635D01*
X0111505Y0069635D01*
X0114005Y0067135D01*
X0119005Y0067135D01*
X0121505Y0069635D01*
X0121505Y0074635D01*
X0119005Y0077135D01*
X0121505Y0079635D01*
X0121505Y0084635D01*
X0119005Y0087135D01*
X0114005Y0087135D01*
X0114005Y0077135D02*
X0119005Y0077135D01*
X0126033Y0071417D02*
X0130303Y0071417D01*
X0132478Y0070350D02*
X0132478Y0069282D01*
X0133546Y0068215D01*
X0136749Y0068215D01*
X0136749Y0074620D01*
X0133546Y0074620D01*
X0132478Y0073553D01*
X0132478Y0072485D01*
X0133546Y0071417D01*
X0136749Y0071417D01*
X0133546Y0071417D02*
X0132478Y0070350D01*
D13*
X0132641Y0067005D02*
X0128687Y0067005D01*
X0127370Y0065687D01*
X0127370Y0063051D01*
X0128687Y0061734D01*
X0132641Y0061734D01*
X0132641Y0059098D02*
X0132641Y0067005D01*
X0124722Y0065687D02*
X0124722Y0060416D01*
X0123404Y0059098D01*
X0120769Y0059098D01*
X0119451Y0060416D01*
X0119451Y0065687D02*
X0120769Y0067005D01*
X0123404Y0067005D01*
X0124722Y0065687D01*
X0143207Y0063051D02*
X0143207Y0060416D01*
X0144525Y0059098D01*
X0147161Y0059098D01*
X0148478Y0060416D01*
X0148478Y0063051D01*
X0147161Y0064369D01*
X0144525Y0064369D01*
X0143207Y0063051D01*
X0151122Y0064369D02*
X0153758Y0064369D01*
X0152440Y0065687D02*
X0152440Y0060416D01*
X0151122Y0059098D01*
X0152438Y0054105D02*
X0152438Y0046198D01*
X0147167Y0046198D02*
X0147167Y0054105D01*
X0147167Y0050151D02*
X0152438Y0050151D01*
X0144519Y0050151D02*
X0144519Y0047516D01*
X0143201Y0046198D01*
X0140566Y0046198D01*
X0139248Y0047516D01*
X0139248Y0050151D01*
X0140566Y0051469D01*
X0143201Y0051469D01*
X0144519Y0050151D01*
X0136600Y0046198D02*
X0133965Y0046198D01*
X0135282Y0046198D02*
X0135282Y0054105D01*
X0136600Y0054105D01*
X0131321Y0050151D02*
X0130003Y0051469D01*
X0126050Y0051469D01*
X0131321Y0050151D02*
X0131321Y0047516D01*
X0130003Y0046198D01*
X0126050Y0046198D01*
X0126050Y0054105D01*
X0115484Y0054105D02*
X0111530Y0054105D01*
X0110212Y0052787D01*
X0110212Y0050151D01*
X0111530Y0048834D01*
X0115484Y0048834D01*
X0115484Y0046198D02*
X0115484Y0054105D01*
X0107565Y0051469D02*
X0107565Y0046198D01*
X0107565Y0048834D02*
X0104929Y0051469D01*
X0103611Y0051469D01*
X0100966Y0050151D02*
X0100966Y0047516D01*
X0099648Y0046198D01*
X0097012Y0046198D01*
X0095695Y0047516D01*
X0095695Y0050151D01*
X0097012Y0051469D01*
X0099648Y0051469D01*
X0100966Y0050151D01*
X0093047Y0050151D02*
X0093047Y0047516D01*
X0091729Y0046198D01*
X0087776Y0046198D01*
X0087776Y0044880D02*
X0087776Y0051469D01*
X0091729Y0051469D01*
X0093047Y0050151D01*
X0090411Y0043562D02*
X0089094Y0043562D01*
X0087776Y0044880D01*
X0087774Y0041205D02*
X0086456Y0039887D01*
X0086456Y0037251D01*
X0087774Y0035934D01*
X0091727Y0035934D01*
X0089092Y0035934D02*
X0086456Y0033298D01*
X0083808Y0034616D02*
X0083808Y0037251D01*
X0082491Y0038569D01*
X0079855Y0038569D01*
X0078537Y0037251D01*
X0078537Y0035934D01*
X0083808Y0035934D01*
X0083808Y0034616D02*
X0082491Y0033298D01*
X0079855Y0033298D01*
X0075890Y0033298D02*
X0071936Y0033298D01*
X0070619Y0034616D01*
X0071936Y0035934D01*
X0074572Y0035934D01*
X0075890Y0037251D01*
X0074572Y0038569D01*
X0070619Y0038569D01*
X0067971Y0037251D02*
X0066653Y0038569D01*
X0064018Y0038569D01*
X0062700Y0037251D01*
X0062700Y0035934D01*
X0067971Y0035934D01*
X0067971Y0037251D02*
X0067971Y0034616D01*
X0066653Y0033298D01*
X0064018Y0033298D01*
X0058734Y0034616D02*
X0057417Y0033298D01*
X0058734Y0034616D02*
X0058734Y0039887D01*
X0060052Y0038569D02*
X0057417Y0038569D01*
X0087774Y0041205D02*
X0091727Y0041205D01*
X0091727Y0033298D01*
X0102294Y0035934D02*
X0107565Y0035934D01*
X0107565Y0037251D02*
X0107565Y0034616D01*
X0106247Y0033298D01*
X0103611Y0033298D01*
X0102294Y0035934D02*
X0102294Y0037251D01*
X0103611Y0038569D01*
X0106247Y0038569D01*
X0107565Y0037251D01*
X0110212Y0038569D02*
X0114166Y0038569D01*
X0115484Y0037251D01*
X0114166Y0035934D01*
X0111530Y0035934D01*
X0110212Y0034616D01*
X0111530Y0033298D01*
X0115484Y0033298D01*
X0118131Y0033298D02*
X0122085Y0033298D01*
X0123402Y0034616D01*
X0122085Y0035934D01*
X0118131Y0035934D01*
X0118131Y0037251D02*
X0118131Y0033298D01*
X0118131Y0037251D02*
X0119449Y0038569D01*
X0122085Y0038569D01*
X0126050Y0037251D02*
X0126050Y0035934D01*
X0131321Y0035934D01*
X0131321Y0037251D02*
X0131321Y0034616D01*
X0130003Y0033298D01*
X0127368Y0033298D01*
X0126050Y0037251D02*
X0127368Y0038569D01*
X0130003Y0038569D01*
X0131321Y0037251D01*
X0135282Y0041205D02*
X0135282Y0033298D01*
X0133965Y0033298D02*
X0136600Y0033298D01*
X0139248Y0035934D02*
X0144519Y0035934D01*
X0144519Y0037251D02*
X0144519Y0034616D01*
X0143201Y0033298D01*
X0140566Y0033298D01*
X0139248Y0035934D02*
X0139248Y0037251D01*
X0140566Y0038569D01*
X0143201Y0038569D01*
X0144519Y0037251D01*
X0147167Y0037251D02*
X0148484Y0035934D01*
X0152438Y0035934D01*
X0149802Y0035934D02*
X0147167Y0033298D01*
X0152438Y0033298D02*
X0152438Y0041205D01*
X0148484Y0041205D01*
X0147167Y0039887D01*
X0147167Y0037251D01*
X0136600Y0041205D02*
X0135282Y0041205D01*
X0148486Y0026987D02*
X0148486Y0024351D01*
X0149804Y0023034D01*
X0153758Y0023034D01*
X0151122Y0023034D02*
X0148486Y0020398D01*
X0145839Y0021716D02*
X0145839Y0024351D01*
X0144521Y0025669D01*
X0141885Y0025669D01*
X0140568Y0024351D01*
X0140568Y0023034D01*
X0145839Y0023034D01*
X0145839Y0021716D02*
X0144521Y0020398D01*
X0141885Y0020398D01*
X0137920Y0020398D02*
X0133967Y0020398D01*
X0132649Y0021716D01*
X0133967Y0023034D01*
X0136602Y0023034D01*
X0137920Y0024351D01*
X0136602Y0025669D01*
X0132649Y0025669D01*
X0130001Y0024351D02*
X0128683Y0025669D01*
X0126048Y0025669D01*
X0124730Y0024351D01*
X0124730Y0023034D01*
X0130001Y0023034D01*
X0130001Y0024351D02*
X0130001Y0021716D01*
X0128683Y0020398D01*
X0126048Y0020398D01*
X0120765Y0021716D02*
X0119447Y0020398D01*
X0120765Y0021716D02*
X0120765Y0026987D01*
X0122083Y0025669D02*
X0119447Y0025669D01*
X0148486Y0026987D02*
X0149804Y0028305D01*
X0153758Y0028305D01*
X0153758Y0020398D01*
X0164324Y0023034D02*
X0169595Y0023034D01*
X0169595Y0024351D02*
X0168277Y0025669D01*
X0165642Y0025669D01*
X0164324Y0024351D01*
X0164324Y0023034D01*
X0165642Y0020398D02*
X0168277Y0020398D01*
X0169595Y0021716D01*
X0169595Y0024351D01*
X0172243Y0025669D02*
X0176196Y0025669D01*
X0177514Y0024351D01*
X0176196Y0023034D01*
X0173560Y0023034D01*
X0172243Y0021716D01*
X0173560Y0020398D01*
X0177514Y0020398D01*
X0180161Y0020398D02*
X0184115Y0020398D01*
X0185433Y0021716D01*
X0184115Y0023034D01*
X0180161Y0023034D01*
X0180161Y0024351D02*
X0180161Y0020398D01*
X0180161Y0024351D02*
X0181479Y0025669D01*
X0184115Y0025669D01*
X0188080Y0024351D02*
X0188080Y0023034D01*
X0193351Y0023034D01*
X0193351Y0024351D02*
X0192034Y0025669D01*
X0189398Y0025669D01*
X0188080Y0024351D01*
X0189398Y0020398D02*
X0192034Y0020398D01*
X0193351Y0021716D01*
X0193351Y0024351D01*
X0195995Y0020398D02*
X0198631Y0020398D01*
X0197313Y0020398D02*
X0197313Y0028305D01*
X0198631Y0028305D01*
X0201278Y0024351D02*
X0202596Y0025669D01*
X0205232Y0025669D01*
X0206549Y0024351D01*
X0206549Y0021716D01*
X0205232Y0020398D01*
X0202596Y0020398D01*
X0201278Y0023034D02*
X0206549Y0023034D01*
X0209197Y0024351D02*
X0210515Y0023034D01*
X0214468Y0023034D01*
X0211832Y0023034D02*
X0209197Y0020398D01*
X0214468Y0020398D02*
X0214468Y0028305D01*
X0210515Y0028305D01*
X0209197Y0026987D01*
X0209197Y0024351D01*
X0201278Y0024351D02*
X0201278Y0023034D01*
X0198633Y0033298D02*
X0195997Y0033298D01*
X0198633Y0033298D02*
X0199950Y0034616D01*
X0199950Y0037251D01*
X0198633Y0038569D01*
X0195997Y0038569D01*
X0194679Y0037251D01*
X0194679Y0035934D01*
X0199950Y0035934D01*
X0202596Y0038569D02*
X0203914Y0038569D01*
X0206549Y0035934D01*
X0206549Y0038569D02*
X0206549Y0033298D01*
X0209197Y0037251D02*
X0210515Y0035934D01*
X0214468Y0035934D01*
X0214468Y0033298D02*
X0214468Y0041205D01*
X0210515Y0041205D01*
X0209197Y0039887D01*
X0209197Y0037251D01*
X0225028Y0034616D02*
X0225028Y0033298D01*
X0226346Y0033298D01*
X0226346Y0034616D01*
X0225028Y0034616D01*
X0228994Y0034616D02*
X0228994Y0035934D01*
X0230312Y0037251D01*
X0231629Y0037251D01*
X0230312Y0037251D02*
X0228994Y0038569D01*
X0228994Y0039887D01*
X0230312Y0041205D01*
X0232947Y0041205D01*
X0234265Y0039887D01*
X0234265Y0034616D02*
X0232947Y0033298D01*
X0230312Y0033298D01*
X0228994Y0034616D01*
X0230312Y0028305D02*
X0234265Y0024351D01*
X0228994Y0024351D01*
X0226346Y0021716D02*
X0225028Y0021716D01*
X0225028Y0020398D01*
X0226346Y0020398D01*
X0226346Y0021716D01*
X0230312Y0020398D02*
X0230312Y0028305D01*
X0228994Y0046198D02*
X0234265Y0046198D01*
X0228994Y0051469D01*
X0228994Y0052787D01*
X0230312Y0054105D01*
X0232947Y0054105D01*
X0234265Y0052787D01*
X0226346Y0047516D02*
X0225028Y0047516D01*
X0225028Y0046198D01*
X0226346Y0046198D01*
X0226346Y0047516D01*
X0214468Y0048834D02*
X0210515Y0048834D01*
X0209197Y0050151D01*
X0209197Y0052787D01*
X0210515Y0054105D01*
X0214468Y0054105D01*
X0214468Y0046198D01*
X0206549Y0046198D02*
X0206549Y0051469D01*
X0206549Y0048834D02*
X0203914Y0051469D01*
X0202596Y0051469D01*
X0199950Y0050151D02*
X0199950Y0047516D01*
X0198633Y0046198D01*
X0195997Y0046198D01*
X0194679Y0048834D02*
X0199950Y0048834D01*
X0199950Y0050151D02*
X0198633Y0051469D01*
X0195997Y0051469D01*
X0194679Y0050151D01*
X0194679Y0048834D01*
X0192032Y0050151D02*
X0190714Y0051469D01*
X0186760Y0051469D01*
X0188078Y0048834D02*
X0190714Y0048834D01*
X0192032Y0050151D01*
X0188078Y0048834D02*
X0186760Y0047516D01*
X0188078Y0046198D01*
X0192032Y0046198D01*
X0184113Y0046198D02*
X0180159Y0046198D01*
X0178842Y0047516D01*
X0180159Y0048834D01*
X0182795Y0048834D01*
X0184113Y0050151D01*
X0182795Y0051469D01*
X0178842Y0051469D01*
X0168275Y0051469D02*
X0163004Y0046198D01*
X0163004Y0048834D02*
X0165640Y0046198D01*
X0166957Y0046198D01*
X0168275Y0047516D01*
X0168275Y0048834D01*
X0165640Y0051469D01*
X0165640Y0052787D01*
X0166957Y0054105D01*
X0168275Y0052787D01*
X0168275Y0051469D01*
X0169603Y0059098D02*
X0173556Y0059098D01*
X0174874Y0060416D01*
X0174874Y0063051D01*
X0173556Y0064369D01*
X0169603Y0064369D01*
X0166955Y0064369D02*
X0164320Y0064369D01*
X0165638Y0065687D02*
X0165638Y0060416D01*
X0164320Y0059098D01*
X0177522Y0061734D02*
X0182793Y0061734D01*
X0182793Y0063051D02*
X0182793Y0060416D01*
X0181475Y0059098D01*
X0178840Y0059098D01*
X0177522Y0061734D02*
X0177522Y0063051D01*
X0178840Y0064369D01*
X0181475Y0064369D01*
X0182793Y0063051D01*
X0185441Y0063051D02*
X0186758Y0064369D01*
X0190712Y0064369D01*
X0190712Y0059098D01*
X0193359Y0059098D02*
X0193359Y0063051D01*
X0194677Y0064369D01*
X0198631Y0064369D01*
X0198631Y0059098D01*
X0201278Y0060416D02*
X0201278Y0063051D01*
X0202596Y0064369D01*
X0205232Y0064369D01*
X0206549Y0063051D01*
X0206549Y0060416D01*
X0205232Y0059098D01*
X0202596Y0059098D01*
X0201278Y0060416D01*
X0209197Y0060416D02*
X0210515Y0059098D01*
X0213150Y0059098D01*
X0214468Y0060416D01*
X0214468Y0065687D01*
X0213150Y0067005D01*
X0210515Y0067005D01*
X0209197Y0065687D01*
X0210509Y0071998D02*
X0210509Y0079905D01*
X0206555Y0079905D01*
X0205238Y0078587D01*
X0205238Y0075951D01*
X0206555Y0074634D01*
X0210509Y0074634D01*
X0202590Y0074634D02*
X0199954Y0077269D01*
X0198637Y0077269D01*
X0195991Y0075951D02*
X0195991Y0073316D01*
X0194673Y0071998D01*
X0192038Y0071998D01*
X0190720Y0073316D01*
X0190720Y0075951D01*
X0192038Y0077269D01*
X0194673Y0077269D01*
X0195991Y0075951D01*
X0202590Y0077269D02*
X0202590Y0071998D01*
X0188072Y0073316D02*
X0186754Y0071998D01*
X0182801Y0071998D01*
X0182801Y0070680D02*
X0182801Y0077269D01*
X0186754Y0077269D01*
X0188072Y0075951D01*
X0188072Y0073316D01*
X0184119Y0069362D02*
X0182801Y0070680D01*
X0184119Y0069362D02*
X0185437Y0069362D01*
X0180153Y0071998D02*
X0180153Y0077269D01*
X0177518Y0077269D02*
X0176200Y0077269D01*
X0177518Y0077269D02*
X0180153Y0074634D01*
X0173554Y0073316D02*
X0172237Y0074634D01*
X0168283Y0074634D01*
X0168283Y0075951D02*
X0168283Y0071998D01*
X0172237Y0071998D01*
X0173554Y0073316D01*
X0172237Y0077269D02*
X0169601Y0077269D01*
X0168283Y0075951D01*
X0165636Y0077269D02*
X0164318Y0077269D01*
X0163000Y0075951D01*
X0161682Y0077269D01*
X0160365Y0075951D01*
X0160365Y0071998D01*
X0163000Y0071998D02*
X0163000Y0075951D01*
X0165636Y0077269D02*
X0165636Y0071998D01*
X0157717Y0071998D02*
X0157717Y0073316D01*
X0156399Y0073316D01*
X0156399Y0071998D01*
X0157717Y0071998D01*
X0157717Y0075951D02*
X0156399Y0075951D01*
X0156399Y0077269D01*
X0157717Y0077269D01*
X0157717Y0075951D01*
X0185441Y0063051D02*
X0185441Y0059098D01*
X0221075Y0073316D02*
X0221075Y0075951D01*
X0222393Y0077269D01*
X0225028Y0077269D01*
X0226346Y0075951D01*
X0226346Y0073316D01*
X0225028Y0071998D01*
X0222393Y0071998D01*
X0221075Y0073316D01*
X0228994Y0079905D02*
X0234265Y0079905D01*
X0231629Y0079905D02*
X0231629Y0071998D01*
X0231629Y0067005D02*
X0231629Y0059098D01*
X0228994Y0059098D02*
X0234265Y0059098D01*
X0226346Y0059098D02*
X0225028Y0059098D01*
X0225028Y0060416D01*
X0226346Y0060416D01*
X0226346Y0059098D01*
X0231629Y0067005D02*
X0234265Y0064369D01*
X0192032Y0037251D02*
X0190714Y0038569D01*
X0186760Y0038569D01*
X0188078Y0035934D02*
X0190714Y0035934D01*
X0192032Y0037251D01*
X0188078Y0035934D02*
X0186760Y0034616D01*
X0188078Y0033298D01*
X0192032Y0033298D01*
X0184113Y0033298D02*
X0180159Y0033298D01*
X0178842Y0034616D01*
X0180159Y0035934D01*
X0182795Y0035934D01*
X0184113Y0037251D01*
X0182795Y0038569D01*
X0178842Y0038569D01*
X0168275Y0038569D02*
X0163004Y0033298D01*
X0163004Y0035934D02*
X0165640Y0033298D01*
X0166957Y0033298D01*
X0168275Y0034616D01*
X0168275Y0035934D01*
X0165640Y0038569D01*
X0165640Y0039887D01*
X0166957Y0041205D01*
X0168275Y0039887D01*
X0168275Y0038569D01*
X0085029Y0094870D02*
X0077122Y0094870D01*
X0079758Y0094870D02*
X0079758Y0098824D01*
X0081076Y0100142D01*
X0083711Y0100142D01*
X0085029Y0098824D01*
X0085029Y0094870D01*
X0079758Y0097506D02*
X0077122Y0100142D01*
X0077122Y0102789D02*
X0077122Y0108060D01*
X0078440Y0110708D02*
X0077122Y0112026D01*
X0077122Y0114661D01*
X0078440Y0115979D01*
X0079758Y0115979D01*
X0081076Y0114661D01*
X0081076Y0112026D01*
X0082394Y0110708D01*
X0083711Y0110708D01*
X0085029Y0112026D01*
X0085029Y0114661D01*
X0083711Y0115979D01*
X0085029Y0118627D02*
X0077122Y0118627D01*
X0077122Y0123898D01*
X0081076Y0121262D02*
X0081076Y0118627D01*
X0085029Y0118627D02*
X0085029Y0123898D01*
X0085029Y0126546D02*
X0085029Y0131817D01*
X0085029Y0129181D02*
X0077122Y0129181D01*
X0078144Y0149236D02*
X0086051Y0149236D01*
X0086051Y0153190D01*
X0084733Y0154507D01*
X0082098Y0154507D01*
X0080780Y0153190D01*
X0080780Y0149236D01*
X0080780Y0157155D02*
X0080780Y0161108D01*
X0082098Y0162426D01*
X0084733Y0162426D01*
X0086051Y0161108D01*
X0086051Y0157155D01*
X0078144Y0157155D01*
X0080780Y0159791D02*
X0078144Y0162426D01*
X0079462Y0165074D02*
X0078144Y0166392D01*
X0078144Y0169027D01*
X0079462Y0170345D01*
X0082098Y0170345D01*
X0082098Y0167709D01*
X0084733Y0165074D02*
X0086051Y0166392D01*
X0086051Y0169027D01*
X0084733Y0170345D01*
X0084733Y0165074D02*
X0079462Y0165074D01*
X0085029Y0108060D02*
X0085029Y0102789D01*
X0077122Y0102789D01*
X0081076Y0102789D02*
X0081076Y0105425D01*
D14*
X0132668Y0126347D02*
X0177902Y0126347D01*
X0177902Y0126348D02*
X0178273Y0126352D01*
X0178645Y0126366D01*
X0179016Y0126388D01*
X0179386Y0126420D01*
X0179755Y0126460D01*
X0180123Y0126509D01*
X0180490Y0126567D01*
X0180856Y0126634D01*
X0181219Y0126710D01*
X0181581Y0126795D01*
X0181941Y0126888D01*
X0182298Y0126990D01*
X0182653Y0127100D01*
X0183005Y0127220D01*
X0183354Y0127347D01*
X0183699Y0127483D01*
X0184042Y0127627D01*
X0184381Y0127780D01*
X0184716Y0127940D01*
X0185047Y0128109D01*
X0185374Y0128286D01*
X0185696Y0128470D01*
X0186014Y0128662D01*
X0186327Y0128862D01*
X0186635Y0129069D01*
X0186939Y0129284D01*
X0187237Y0129506D01*
X0187529Y0129735D01*
X0187816Y0129971D01*
X0188097Y0130214D01*
X0188372Y0130464D01*
X0188641Y0130720D01*
X0188904Y0130983D01*
X0189160Y0131252D01*
X0189410Y0131527D01*
X0189653Y0131808D01*
X0189889Y0132095D01*
X0190118Y0132387D01*
X0190340Y0132685D01*
X0190555Y0132989D01*
X0190762Y0133297D01*
X0190962Y0133610D01*
X0191154Y0133928D01*
X0191338Y0134250D01*
X0191515Y0134577D01*
X0191684Y0134908D01*
X0191844Y0135243D01*
X0191997Y0135582D01*
X0192141Y0135925D01*
X0192277Y0136270D01*
X0192404Y0136619D01*
X0192524Y0136971D01*
X0192634Y0137326D01*
X0192736Y0137683D01*
X0192829Y0138043D01*
X0192914Y0138405D01*
X0192990Y0138768D01*
X0193057Y0139134D01*
X0193115Y0139501D01*
X0193164Y0139869D01*
X0193204Y0140238D01*
X0193236Y0140608D01*
X0193258Y0140979D01*
X0193272Y0141351D01*
X0193276Y0141722D01*
X0193276Y0162154D01*
X0193272Y0162525D01*
X0193258Y0162897D01*
X0193236Y0163268D01*
X0193204Y0163638D01*
X0193164Y0164007D01*
X0193115Y0164375D01*
X0193057Y0164742D01*
X0192990Y0165108D01*
X0192914Y0165471D01*
X0192829Y0165833D01*
X0192736Y0166193D01*
X0192634Y0166550D01*
X0192524Y0166905D01*
X0192404Y0167257D01*
X0192277Y0167606D01*
X0192141Y0167951D01*
X0191997Y0168294D01*
X0191844Y0168633D01*
X0191684Y0168968D01*
X0191515Y0169299D01*
X0191338Y0169626D01*
X0191154Y0169948D01*
X0190962Y0170266D01*
X0190762Y0170579D01*
X0190555Y0170887D01*
X0190340Y0171191D01*
X0190118Y0171489D01*
X0189889Y0171781D01*
X0189653Y0172068D01*
X0189410Y0172349D01*
X0189160Y0172624D01*
X0188904Y0172893D01*
X0188641Y0173156D01*
X0188372Y0173412D01*
X0188097Y0173662D01*
X0187816Y0173905D01*
X0187529Y0174141D01*
X0187237Y0174370D01*
X0186939Y0174592D01*
X0186635Y0174807D01*
X0186327Y0175014D01*
X0186014Y0175214D01*
X0185696Y0175406D01*
X0185374Y0175590D01*
X0185047Y0175767D01*
X0184716Y0175936D01*
X0184381Y0176096D01*
X0184042Y0176249D01*
X0183699Y0176393D01*
X0183354Y0176529D01*
X0183005Y0176656D01*
X0182653Y0176776D01*
X0182298Y0176886D01*
X0181941Y0176988D01*
X0181581Y0177081D01*
X0181219Y0177166D01*
X0180856Y0177242D01*
X0180490Y0177309D01*
X0180123Y0177367D01*
X0179755Y0177416D01*
X0179386Y0177456D01*
X0179016Y0177488D01*
X0178645Y0177510D01*
X0178273Y0177524D01*
X0177902Y0177528D01*
X0131078Y0177528D01*
X0131078Y0177529D02*
X0130773Y0177525D01*
X0130469Y0177514D01*
X0130165Y0177496D01*
X0129861Y0177470D01*
X0129559Y0177437D01*
X0129257Y0177397D01*
X0128956Y0177349D01*
X0128656Y0177294D01*
X0128358Y0177232D01*
X0128061Y0177163D01*
X0127767Y0177086D01*
X0127474Y0177003D01*
X0127183Y0176912D01*
X0126894Y0176814D01*
X0126608Y0176710D01*
X0126325Y0176598D01*
X0126044Y0176480D01*
X0125766Y0176355D01*
X0125492Y0176223D01*
X0125220Y0176085D01*
X0124952Y0175940D01*
X0124688Y0175789D01*
X0124427Y0175632D01*
X0124170Y0175468D01*
X0123918Y0175298D01*
X0123669Y0175122D01*
X0123425Y0174940D01*
X0123185Y0174752D01*
X0122950Y0174558D01*
X0122719Y0174359D01*
X0122494Y0174154D01*
X0122273Y0173944D01*
X0122058Y0173729D01*
X0121848Y0173508D01*
X0121643Y0173283D01*
X0121444Y0173052D01*
X0121250Y0172817D01*
X0121062Y0172577D01*
X0120880Y0172333D01*
X0120704Y0172084D01*
X0120534Y0171832D01*
X0120370Y0171575D01*
X0120213Y0171314D01*
X0120062Y0171050D01*
X0119917Y0170782D01*
X0119779Y0170510D01*
X0119647Y0170236D01*
X0119522Y0169958D01*
X0119404Y0169677D01*
X0119292Y0169394D01*
X0119188Y0169108D01*
X0119090Y0168819D01*
X0118999Y0168528D01*
X0118916Y0168235D01*
X0118839Y0167941D01*
X0118770Y0167644D01*
X0118708Y0167346D01*
X0118653Y0167046D01*
X0118605Y0166745D01*
X0118565Y0166443D01*
X0118532Y0166141D01*
X0118506Y0165837D01*
X0118488Y0165533D01*
X0118477Y0165229D01*
X0118473Y0164924D01*
X0118473Y0140542D01*
X0118477Y0140199D01*
X0118490Y0139856D01*
X0118510Y0139514D01*
X0118539Y0139172D01*
X0118576Y0138831D01*
X0118622Y0138491D01*
X0118676Y0138152D01*
X0118737Y0137815D01*
X0118807Y0137479D01*
X0118885Y0137145D01*
X0118972Y0136813D01*
X0119066Y0136483D01*
X0119168Y0136156D01*
X0119278Y0135831D01*
X0119395Y0135508D01*
X0119521Y0135189D01*
X0119654Y0134873D01*
X0119795Y0134560D01*
X0119943Y0134251D01*
X0120099Y0133945D01*
X0120262Y0133643D01*
X0120432Y0133346D01*
X0120610Y0133052D01*
X0120794Y0132763D01*
X0120986Y0132478D01*
X0121184Y0132198D01*
X0121389Y0131923D01*
X0121601Y0131653D01*
X0121819Y0131388D01*
X0122043Y0131129D01*
X0122273Y0130875D01*
X0122510Y0130627D01*
X0122753Y0130384D01*
X0123001Y0130147D01*
X0123255Y0129917D01*
X0123514Y0129693D01*
X0123779Y0129475D01*
X0124049Y0129263D01*
X0124324Y0129058D01*
X0124604Y0128860D01*
X0124889Y0128668D01*
X0125178Y0128484D01*
X0125472Y0128306D01*
X0125769Y0128136D01*
X0126071Y0127973D01*
X0126377Y0127817D01*
X0126686Y0127669D01*
X0126999Y0127528D01*
X0127315Y0127395D01*
X0127634Y0127269D01*
X0127957Y0127152D01*
X0128282Y0127042D01*
X0128609Y0126940D01*
X0128939Y0126846D01*
X0129271Y0126759D01*
X0129605Y0126681D01*
X0129941Y0126611D01*
X0130278Y0126550D01*
X0130617Y0126496D01*
X0130957Y0126450D01*
X0131298Y0126413D01*
X0131640Y0126384D01*
X0131982Y0126364D01*
X0132325Y0126351D01*
X0132668Y0126347D01*
D15*
X0109300Y0117863D02*
X0109300Y0105737D01*
X0104300Y0101800D02*
X0094418Y0101800D01*
X0089300Y0105737D02*
X0089300Y0117863D01*
X0094418Y0121800D02*
X0104182Y0121800D01*
X0094300Y0111800D02*
X0094302Y0111941D01*
X0094308Y0112082D01*
X0094318Y0112222D01*
X0094332Y0112362D01*
X0094350Y0112502D01*
X0094371Y0112641D01*
X0094397Y0112780D01*
X0094426Y0112918D01*
X0094460Y0113054D01*
X0094497Y0113190D01*
X0094538Y0113325D01*
X0094583Y0113459D01*
X0094632Y0113591D01*
X0094684Y0113722D01*
X0094740Y0113851D01*
X0094800Y0113978D01*
X0094863Y0114104D01*
X0094929Y0114228D01*
X0095000Y0114351D01*
X0095073Y0114471D01*
X0095150Y0114589D01*
X0095230Y0114705D01*
X0095314Y0114818D01*
X0095400Y0114929D01*
X0095490Y0115038D01*
X0095583Y0115144D01*
X0095678Y0115247D01*
X0095777Y0115348D01*
X0095878Y0115446D01*
X0095982Y0115541D01*
X0096089Y0115633D01*
X0096198Y0115722D01*
X0096310Y0115807D01*
X0096424Y0115890D01*
X0096540Y0115970D01*
X0096659Y0116046D01*
X0096780Y0116118D01*
X0096902Y0116188D01*
X0097027Y0116253D01*
X0097153Y0116316D01*
X0097281Y0116374D01*
X0097411Y0116429D01*
X0097542Y0116481D01*
X0097675Y0116528D01*
X0097809Y0116572D01*
X0097944Y0116613D01*
X0098080Y0116649D01*
X0098217Y0116681D01*
X0098355Y0116710D01*
X0098493Y0116735D01*
X0098633Y0116755D01*
X0098773Y0116772D01*
X0098913Y0116785D01*
X0099054Y0116794D01*
X0099194Y0116799D01*
X0099335Y0116800D01*
X0099476Y0116797D01*
X0099617Y0116790D01*
X0099757Y0116779D01*
X0099897Y0116764D01*
X0100037Y0116745D01*
X0100176Y0116723D01*
X0100314Y0116696D01*
X0100452Y0116666D01*
X0100588Y0116631D01*
X0100724Y0116593D01*
X0100858Y0116551D01*
X0100992Y0116505D01*
X0101124Y0116456D01*
X0101254Y0116402D01*
X0101383Y0116345D01*
X0101510Y0116285D01*
X0101636Y0116221D01*
X0101759Y0116153D01*
X0101881Y0116082D01*
X0102001Y0116008D01*
X0102118Y0115930D01*
X0102233Y0115849D01*
X0102346Y0115765D01*
X0102457Y0115678D01*
X0102565Y0115587D01*
X0102670Y0115494D01*
X0102773Y0115397D01*
X0102873Y0115298D01*
X0102970Y0115196D01*
X0103064Y0115091D01*
X0103155Y0114984D01*
X0103243Y0114874D01*
X0103328Y0114762D01*
X0103410Y0114647D01*
X0103489Y0114530D01*
X0103564Y0114411D01*
X0103636Y0114290D01*
X0103704Y0114167D01*
X0103769Y0114042D01*
X0103831Y0113915D01*
X0103888Y0113786D01*
X0103943Y0113656D01*
X0103993Y0113525D01*
X0104040Y0113392D01*
X0104083Y0113258D01*
X0104122Y0113122D01*
X0104157Y0112986D01*
X0104189Y0112849D01*
X0104216Y0112711D01*
X0104240Y0112572D01*
X0104260Y0112432D01*
X0104276Y0112292D01*
X0104288Y0112152D01*
X0104296Y0112011D01*
X0104300Y0111870D01*
X0104300Y0111730D01*
X0104296Y0111589D01*
X0104288Y0111448D01*
X0104276Y0111308D01*
X0104260Y0111168D01*
X0104240Y0111028D01*
X0104216Y0110889D01*
X0104189Y0110751D01*
X0104157Y0110614D01*
X0104122Y0110478D01*
X0104083Y0110342D01*
X0104040Y0110208D01*
X0103993Y0110075D01*
X0103943Y0109944D01*
X0103888Y0109814D01*
X0103831Y0109685D01*
X0103769Y0109558D01*
X0103704Y0109433D01*
X0103636Y0109310D01*
X0103564Y0109189D01*
X0103489Y0109070D01*
X0103410Y0108953D01*
X0103328Y0108838D01*
X0103243Y0108726D01*
X0103155Y0108616D01*
X0103064Y0108509D01*
X0102970Y0108404D01*
X0102873Y0108302D01*
X0102773Y0108203D01*
X0102670Y0108106D01*
X0102565Y0108013D01*
X0102457Y0107922D01*
X0102346Y0107835D01*
X0102233Y0107751D01*
X0102118Y0107670D01*
X0102001Y0107592D01*
X0101881Y0107518D01*
X0101759Y0107447D01*
X0101636Y0107379D01*
X0101510Y0107315D01*
X0101383Y0107255D01*
X0101254Y0107198D01*
X0101124Y0107144D01*
X0100992Y0107095D01*
X0100858Y0107049D01*
X0100724Y0107007D01*
X0100588Y0106969D01*
X0100452Y0106934D01*
X0100314Y0106904D01*
X0100176Y0106877D01*
X0100037Y0106855D01*
X0099897Y0106836D01*
X0099757Y0106821D01*
X0099617Y0106810D01*
X0099476Y0106803D01*
X0099335Y0106800D01*
X0099194Y0106801D01*
X0099054Y0106806D01*
X0098913Y0106815D01*
X0098773Y0106828D01*
X0098633Y0106845D01*
X0098493Y0106865D01*
X0098355Y0106890D01*
X0098217Y0106919D01*
X0098080Y0106951D01*
X0097944Y0106987D01*
X0097809Y0107028D01*
X0097675Y0107072D01*
X0097542Y0107119D01*
X0097411Y0107171D01*
X0097281Y0107226D01*
X0097153Y0107284D01*
X0097027Y0107347D01*
X0096902Y0107412D01*
X0096780Y0107482D01*
X0096659Y0107554D01*
X0096540Y0107630D01*
X0096424Y0107710D01*
X0096310Y0107793D01*
X0096198Y0107878D01*
X0096089Y0107967D01*
X0095982Y0108059D01*
X0095878Y0108154D01*
X0095777Y0108252D01*
X0095678Y0108353D01*
X0095583Y0108456D01*
X0095490Y0108562D01*
X0095400Y0108671D01*
X0095314Y0108782D01*
X0095230Y0108895D01*
X0095150Y0109011D01*
X0095073Y0109129D01*
X0095000Y0109249D01*
X0094929Y0109372D01*
X0094863Y0109496D01*
X0094800Y0109622D01*
X0094740Y0109749D01*
X0094684Y0109878D01*
X0094632Y0110009D01*
X0094583Y0110141D01*
X0094538Y0110275D01*
X0094497Y0110410D01*
X0094460Y0110546D01*
X0094426Y0110682D01*
X0094397Y0110820D01*
X0094371Y0110959D01*
X0094350Y0111098D01*
X0094332Y0111238D01*
X0094318Y0111378D01*
X0094308Y0111518D01*
X0094302Y0111659D01*
X0094300Y0111800D01*
X0127135Y0138749D02*
X0129497Y0138749D01*
X0133434Y0141308D02*
X0133434Y0162568D01*
X0129497Y0165127D02*
X0127135Y0165127D01*
X0123198Y0157843D02*
X0123198Y0151938D01*
X0109300Y0153237D02*
X0109300Y0165363D01*
X0104182Y0169300D02*
X0094300Y0169300D01*
X0089300Y0165363D02*
X0089300Y0153237D01*
X0094418Y0149300D02*
X0104182Y0149300D01*
X0094300Y0159300D02*
X0094302Y0159441D01*
X0094308Y0159582D01*
X0094318Y0159722D01*
X0094332Y0159862D01*
X0094350Y0160002D01*
X0094371Y0160141D01*
X0094397Y0160280D01*
X0094426Y0160418D01*
X0094460Y0160554D01*
X0094497Y0160690D01*
X0094538Y0160825D01*
X0094583Y0160959D01*
X0094632Y0161091D01*
X0094684Y0161222D01*
X0094740Y0161351D01*
X0094800Y0161478D01*
X0094863Y0161604D01*
X0094929Y0161728D01*
X0095000Y0161851D01*
X0095073Y0161971D01*
X0095150Y0162089D01*
X0095230Y0162205D01*
X0095314Y0162318D01*
X0095400Y0162429D01*
X0095490Y0162538D01*
X0095583Y0162644D01*
X0095678Y0162747D01*
X0095777Y0162848D01*
X0095878Y0162946D01*
X0095982Y0163041D01*
X0096089Y0163133D01*
X0096198Y0163222D01*
X0096310Y0163307D01*
X0096424Y0163390D01*
X0096540Y0163470D01*
X0096659Y0163546D01*
X0096780Y0163618D01*
X0096902Y0163688D01*
X0097027Y0163753D01*
X0097153Y0163816D01*
X0097281Y0163874D01*
X0097411Y0163929D01*
X0097542Y0163981D01*
X0097675Y0164028D01*
X0097809Y0164072D01*
X0097944Y0164113D01*
X0098080Y0164149D01*
X0098217Y0164181D01*
X0098355Y0164210D01*
X0098493Y0164235D01*
X0098633Y0164255D01*
X0098773Y0164272D01*
X0098913Y0164285D01*
X0099054Y0164294D01*
X0099194Y0164299D01*
X0099335Y0164300D01*
X0099476Y0164297D01*
X0099617Y0164290D01*
X0099757Y0164279D01*
X0099897Y0164264D01*
X0100037Y0164245D01*
X0100176Y0164223D01*
X0100314Y0164196D01*
X0100452Y0164166D01*
X0100588Y0164131D01*
X0100724Y0164093D01*
X0100858Y0164051D01*
X0100992Y0164005D01*
X0101124Y0163956D01*
X0101254Y0163902D01*
X0101383Y0163845D01*
X0101510Y0163785D01*
X0101636Y0163721D01*
X0101759Y0163653D01*
X0101881Y0163582D01*
X0102001Y0163508D01*
X0102118Y0163430D01*
X0102233Y0163349D01*
X0102346Y0163265D01*
X0102457Y0163178D01*
X0102565Y0163087D01*
X0102670Y0162994D01*
X0102773Y0162897D01*
X0102873Y0162798D01*
X0102970Y0162696D01*
X0103064Y0162591D01*
X0103155Y0162484D01*
X0103243Y0162374D01*
X0103328Y0162262D01*
X0103410Y0162147D01*
X0103489Y0162030D01*
X0103564Y0161911D01*
X0103636Y0161790D01*
X0103704Y0161667D01*
X0103769Y0161542D01*
X0103831Y0161415D01*
X0103888Y0161286D01*
X0103943Y0161156D01*
X0103993Y0161025D01*
X0104040Y0160892D01*
X0104083Y0160758D01*
X0104122Y0160622D01*
X0104157Y0160486D01*
X0104189Y0160349D01*
X0104216Y0160211D01*
X0104240Y0160072D01*
X0104260Y0159932D01*
X0104276Y0159792D01*
X0104288Y0159652D01*
X0104296Y0159511D01*
X0104300Y0159370D01*
X0104300Y0159230D01*
X0104296Y0159089D01*
X0104288Y0158948D01*
X0104276Y0158808D01*
X0104260Y0158668D01*
X0104240Y0158528D01*
X0104216Y0158389D01*
X0104189Y0158251D01*
X0104157Y0158114D01*
X0104122Y0157978D01*
X0104083Y0157842D01*
X0104040Y0157708D01*
X0103993Y0157575D01*
X0103943Y0157444D01*
X0103888Y0157314D01*
X0103831Y0157185D01*
X0103769Y0157058D01*
X0103704Y0156933D01*
X0103636Y0156810D01*
X0103564Y0156689D01*
X0103489Y0156570D01*
X0103410Y0156453D01*
X0103328Y0156338D01*
X0103243Y0156226D01*
X0103155Y0156116D01*
X0103064Y0156009D01*
X0102970Y0155904D01*
X0102873Y0155802D01*
X0102773Y0155703D01*
X0102670Y0155606D01*
X0102565Y0155513D01*
X0102457Y0155422D01*
X0102346Y0155335D01*
X0102233Y0155251D01*
X0102118Y0155170D01*
X0102001Y0155092D01*
X0101881Y0155018D01*
X0101759Y0154947D01*
X0101636Y0154879D01*
X0101510Y0154815D01*
X0101383Y0154755D01*
X0101254Y0154698D01*
X0101124Y0154644D01*
X0100992Y0154595D01*
X0100858Y0154549D01*
X0100724Y0154507D01*
X0100588Y0154469D01*
X0100452Y0154434D01*
X0100314Y0154404D01*
X0100176Y0154377D01*
X0100037Y0154355D01*
X0099897Y0154336D01*
X0099757Y0154321D01*
X0099617Y0154310D01*
X0099476Y0154303D01*
X0099335Y0154300D01*
X0099194Y0154301D01*
X0099054Y0154306D01*
X0098913Y0154315D01*
X0098773Y0154328D01*
X0098633Y0154345D01*
X0098493Y0154365D01*
X0098355Y0154390D01*
X0098217Y0154419D01*
X0098080Y0154451D01*
X0097944Y0154487D01*
X0097809Y0154528D01*
X0097675Y0154572D01*
X0097542Y0154619D01*
X0097411Y0154671D01*
X0097281Y0154726D01*
X0097153Y0154784D01*
X0097027Y0154847D01*
X0096902Y0154912D01*
X0096780Y0154982D01*
X0096659Y0155054D01*
X0096540Y0155130D01*
X0096424Y0155210D01*
X0096310Y0155293D01*
X0096198Y0155378D01*
X0096089Y0155467D01*
X0095982Y0155559D01*
X0095878Y0155654D01*
X0095777Y0155752D01*
X0095678Y0155853D01*
X0095583Y0155956D01*
X0095490Y0156062D01*
X0095400Y0156171D01*
X0095314Y0156282D01*
X0095230Y0156395D01*
X0095150Y0156511D01*
X0095073Y0156629D01*
X0095000Y0156749D01*
X0094929Y0156872D01*
X0094863Y0156996D01*
X0094800Y0157122D01*
X0094740Y0157249D01*
X0094684Y0157378D01*
X0094632Y0157509D01*
X0094583Y0157641D01*
X0094538Y0157775D01*
X0094497Y0157910D01*
X0094460Y0158046D01*
X0094426Y0158182D01*
X0094397Y0158320D01*
X0094371Y0158459D01*
X0094350Y0158598D01*
X0094332Y0158738D01*
X0094318Y0158878D01*
X0094308Y0159018D01*
X0094302Y0159159D01*
X0094300Y0159300D01*
X0324228Y0027096D02*
X0324228Y0025561D01*
X0328832Y0024027D02*
X0330367Y0025561D01*
X0333436Y0025561D01*
X0334971Y0024027D01*
X0334971Y0022492D01*
X0333436Y0020957D01*
X0330367Y0020957D01*
X0328832Y0019423D01*
X0328832Y0017888D01*
X0330367Y0016354D01*
X0333436Y0016354D01*
X0334971Y0017888D01*
X0338040Y0017888D02*
X0339575Y0016354D01*
X0344179Y0016354D01*
X0344179Y0025561D01*
X0339575Y0025561D01*
X0338040Y0024027D01*
X0338040Y0022492D01*
X0339575Y0020957D01*
X0344179Y0020957D01*
X0347248Y0020957D02*
X0348783Y0019423D01*
X0348783Y0022492D01*
X0351852Y0022492D01*
X0351852Y0019423D01*
X0348783Y0019423D01*
X0347248Y0020957D02*
X0347248Y0024027D01*
X0348783Y0025561D01*
X0351852Y0025561D01*
X0353387Y0024027D01*
X0353387Y0017888D01*
X0351852Y0016354D01*
X0348783Y0016354D01*
X0347248Y0017888D01*
X0339575Y0020957D02*
X0338040Y0019423D01*
X0338040Y0017888D01*
X0325763Y0016354D02*
X0322694Y0016354D01*
X0324228Y0016354D02*
X0324228Y0022492D01*
X0325763Y0022492D01*
X0319624Y0020957D02*
X0318090Y0022492D01*
X0313486Y0022492D01*
X0310417Y0020957D02*
X0308882Y0022492D01*
X0305813Y0022492D01*
X0304278Y0020957D01*
X0304278Y0019423D01*
X0310417Y0019423D01*
X0310417Y0020957D02*
X0310417Y0017888D01*
X0308882Y0016354D01*
X0305813Y0016354D01*
X0313486Y0016354D02*
X0318090Y0016354D01*
X0319624Y0017888D01*
X0319624Y0020957D01*
X0313486Y0025561D02*
X0313486Y0016354D01*
X0301209Y0016354D02*
X0296605Y0016354D01*
X0295070Y0017888D01*
X0296605Y0019423D01*
X0299674Y0019423D01*
X0301209Y0020957D01*
X0299674Y0022492D01*
X0295070Y0022492D01*
X0292001Y0019423D02*
X0287397Y0019423D01*
X0285862Y0020957D01*
X0285862Y0024027D01*
X0287397Y0025561D01*
X0292001Y0025561D01*
X0292001Y0016354D01*
X0282793Y0016354D02*
X0282793Y0025561D01*
X0278189Y0025561D01*
X0276654Y0024027D01*
X0276654Y0020957D01*
X0278189Y0019423D01*
X0282793Y0019423D01*
X0279724Y0019423D02*
X0276654Y0016354D01*
D16*
X0065082Y0056748D02*
X0059878Y0056748D01*
X0061613Y0058483D01*
X0059878Y0060218D01*
X0065082Y0060218D01*
X0063348Y0061904D02*
X0065082Y0063639D01*
X0063348Y0065374D01*
X0059878Y0065374D01*
X0059878Y0067061D02*
X0065082Y0067061D01*
X0065082Y0069663D01*
X0064215Y0070530D01*
X0062480Y0070530D01*
X0061613Y0069663D01*
X0061613Y0067061D01*
X0061613Y0068796D02*
X0059878Y0070530D01*
X0059878Y0072217D02*
X0065082Y0072217D01*
X0059878Y0075687D01*
X0065082Y0075687D01*
X0065082Y0077374D02*
X0065082Y0079108D01*
X0065082Y0078241D02*
X0059878Y0078241D01*
X0059878Y0077374D02*
X0059878Y0079108D01*
X0059878Y0080811D02*
X0065082Y0080811D01*
X0059878Y0084281D01*
X0065082Y0084281D01*
X0064215Y0085968D02*
X0060745Y0085968D01*
X0059878Y0086835D01*
X0059878Y0088570D01*
X0060745Y0089437D01*
X0062480Y0089437D01*
X0062480Y0087702D01*
X0064215Y0085968D02*
X0065082Y0086835D01*
X0065082Y0088570D01*
X0064215Y0089437D01*
X0063348Y0091124D02*
X0062480Y0091124D01*
X0062480Y0091991D01*
X0063348Y0091991D01*
X0063348Y0091124D01*
X0060745Y0091124D02*
X0059878Y0091124D01*
X0059878Y0091991D01*
X0060745Y0091991D01*
X0060745Y0091124D01*
X0055815Y0093710D02*
X0052345Y0093710D01*
X0051478Y0094578D01*
X0054948Y0094578D02*
X0054948Y0092843D01*
X0054080Y0091156D02*
X0054948Y0090289D01*
X0054948Y0088554D01*
X0054080Y0087686D01*
X0052345Y0087686D01*
X0051478Y0088554D01*
X0051478Y0090289D01*
X0052345Y0091156D01*
X0054080Y0091156D01*
X0046548Y0091140D02*
X0044813Y0089405D01*
X0044813Y0087718D02*
X0044813Y0084249D01*
X0045680Y0084249D02*
X0046548Y0085116D01*
X0046548Y0086851D01*
X0045680Y0087718D01*
X0044813Y0087718D01*
X0043078Y0086851D02*
X0043078Y0085116D01*
X0043945Y0084249D01*
X0045680Y0084249D01*
X0046548Y0082546D02*
X0046548Y0080811D01*
X0047415Y0081679D02*
X0043945Y0081679D01*
X0043078Y0082546D01*
X0043078Y0079108D02*
X0043945Y0078241D01*
X0047415Y0078241D01*
X0046548Y0077374D02*
X0046548Y0079108D01*
X0051478Y0082530D02*
X0054948Y0082530D01*
X0054948Y0085132D01*
X0054080Y0086000D01*
X0051478Y0086000D01*
X0046548Y0089405D02*
X0043078Y0089405D01*
X0046548Y0091140D02*
X0046548Y0092007D01*
X0046548Y0093702D02*
X0043945Y0093702D01*
X0043078Y0094570D01*
X0043078Y0097172D01*
X0042211Y0097172D02*
X0041343Y0096304D01*
X0041343Y0095437D01*
X0042211Y0097172D02*
X0046548Y0097172D01*
X0051478Y0102304D02*
X0052345Y0101437D01*
X0054080Y0101437D01*
X0054948Y0102304D01*
X0054948Y0104039D01*
X0054080Y0104906D01*
X0053213Y0104906D01*
X0053213Y0101437D01*
X0051478Y0102304D02*
X0051478Y0104039D01*
X0051478Y0106593D02*
X0054948Y0110063D01*
X0054080Y0111750D02*
X0052345Y0111750D01*
X0051478Y0112617D01*
X0051478Y0115219D01*
X0052345Y0116906D02*
X0054080Y0116906D01*
X0054948Y0117773D01*
X0054948Y0119508D01*
X0054080Y0120376D01*
X0053213Y0120376D01*
X0053213Y0116906D01*
X0052345Y0116906D02*
X0051478Y0117773D01*
X0051478Y0119508D01*
X0048282Y0117797D02*
X0048282Y0114328D01*
X0043078Y0114328D01*
X0045680Y0114328D02*
X0045680Y0116063D01*
X0048282Y0112641D02*
X0048282Y0109171D01*
X0043078Y0109171D01*
X0043945Y0107485D02*
X0047415Y0107485D01*
X0048282Y0106617D01*
X0048282Y0104882D01*
X0047415Y0104015D01*
X0043945Y0104015D01*
X0043078Y0104882D01*
X0043078Y0106617D01*
X0043945Y0107485D01*
X0045680Y0109171D02*
X0045680Y0110906D01*
X0051478Y0110063D02*
X0054948Y0106593D01*
X0054080Y0111750D02*
X0054948Y0112617D01*
X0054948Y0115219D01*
X0054080Y0122062D02*
X0054948Y0122930D01*
X0054948Y0124665D01*
X0054080Y0125532D01*
X0053213Y0125532D01*
X0053213Y0122062D01*
X0054080Y0122062D02*
X0052345Y0122062D01*
X0051478Y0122930D01*
X0051478Y0124665D01*
X0052345Y0127219D02*
X0054080Y0127219D01*
X0054948Y0128086D01*
X0054948Y0130688D01*
X0056682Y0130688D02*
X0051478Y0130688D01*
X0051478Y0128086D01*
X0052345Y0127219D01*
X0048282Y0124641D02*
X0043078Y0124641D01*
X0043078Y0127243D01*
X0043945Y0128110D01*
X0045680Y0128110D01*
X0046548Y0127243D01*
X0046548Y0124641D01*
X0045680Y0129797D02*
X0043945Y0129797D01*
X0043078Y0130664D01*
X0043078Y0132399D01*
X0044813Y0133267D02*
X0044813Y0129797D01*
X0045680Y0129797D02*
X0046548Y0130664D01*
X0046548Y0132399D01*
X0045680Y0133267D01*
X0044813Y0133267D01*
X0045680Y0134953D02*
X0045680Y0136688D01*
X0045680Y0138391D02*
X0043945Y0138391D01*
X0043078Y0139258D01*
X0043078Y0140993D01*
X0043945Y0141861D01*
X0045680Y0141861D01*
X0046548Y0140993D01*
X0046548Y0139258D01*
X0045680Y0138391D01*
X0047415Y0135821D02*
X0048282Y0136688D01*
X0047415Y0135821D02*
X0043078Y0135821D01*
X0051478Y0138399D02*
X0052345Y0137532D01*
X0051478Y0138399D02*
X0051478Y0140134D01*
X0052345Y0141001D01*
X0054080Y0141001D01*
X0054948Y0140134D01*
X0054948Y0139266D01*
X0054080Y0137532D01*
X0056682Y0137532D01*
X0056682Y0141001D01*
X0056682Y0142688D02*
X0053213Y0142688D01*
X0051478Y0144423D01*
X0053213Y0146158D01*
X0056682Y0146158D01*
X0056682Y0147844D02*
X0056682Y0150447D01*
X0055815Y0151314D01*
X0052345Y0151314D01*
X0051478Y0150447D01*
X0051478Y0147844D01*
X0056682Y0147844D01*
X0055815Y0153001D02*
X0052345Y0153001D01*
X0051478Y0153868D01*
X0051478Y0155603D01*
X0052345Y0156470D01*
X0055815Y0156470D02*
X0056682Y0155603D01*
X0056682Y0153868D01*
X0055815Y0153001D01*
X0046548Y0150447D02*
X0045680Y0151314D01*
X0044813Y0151314D01*
X0044813Y0147844D01*
X0045680Y0147844D02*
X0046548Y0148712D01*
X0046548Y0150447D01*
X0045680Y0147844D02*
X0043945Y0147844D01*
X0043078Y0148712D01*
X0043078Y0150447D01*
X0046548Y0146150D02*
X0046548Y0145282D01*
X0044813Y0143547D01*
X0043078Y0143547D02*
X0046548Y0143547D01*
X0051478Y0163314D02*
X0051478Y0165916D01*
X0052345Y0166783D01*
X0054080Y0166783D01*
X0054948Y0165916D01*
X0054948Y0163314D01*
X0056682Y0163314D02*
X0051478Y0163314D01*
X0052345Y0168470D02*
X0053213Y0169337D01*
X0053213Y0171940D01*
X0054080Y0171940D02*
X0051478Y0171940D01*
X0051478Y0169337D01*
X0052345Y0168470D01*
X0054948Y0169337D02*
X0054948Y0171072D01*
X0054080Y0171940D01*
X0054948Y0173626D02*
X0054948Y0175361D01*
X0055815Y0174494D02*
X0052345Y0174494D01*
X0051478Y0175361D01*
X0054948Y0177064D02*
X0054948Y0178799D01*
X0055815Y0177931D02*
X0052345Y0177931D01*
X0051478Y0178799D01*
X0052345Y0180502D02*
X0051478Y0181369D01*
X0051478Y0183104D01*
X0053213Y0183971D02*
X0053213Y0180502D01*
X0054080Y0180502D02*
X0054948Y0181369D01*
X0054948Y0183104D01*
X0054080Y0183971D01*
X0053213Y0183971D01*
X0053213Y0185658D02*
X0054948Y0187393D01*
X0054948Y0188260D01*
X0054948Y0189955D02*
X0052345Y0189955D01*
X0051478Y0190822D01*
X0051478Y0193425D01*
X0050611Y0193425D02*
X0049743Y0192557D01*
X0049743Y0191690D01*
X0050611Y0193425D02*
X0054948Y0193425D01*
X0054948Y0185658D02*
X0051478Y0185658D01*
X0052345Y0180502D02*
X0054080Y0180502D01*
X0039015Y0115219D02*
X0039882Y0114352D01*
X0039882Y0112617D01*
X0039015Y0111750D01*
X0035545Y0111750D01*
X0034678Y0112617D01*
X0034678Y0114352D01*
X0035545Y0115219D01*
X0037280Y0110063D02*
X0036413Y0109195D01*
X0036413Y0106593D01*
X0034678Y0106593D02*
X0039882Y0106593D01*
X0039882Y0109195D01*
X0039015Y0110063D01*
X0037280Y0110063D01*
X0038148Y0099734D02*
X0038148Y0097999D01*
X0039015Y0098867D02*
X0035545Y0098867D01*
X0034678Y0099734D01*
X0034678Y0096312D02*
X0034678Y0093710D01*
X0035545Y0092843D01*
X0037280Y0092843D01*
X0038148Y0093710D01*
X0038148Y0096312D01*
X0037280Y0091156D02*
X0036413Y0091156D01*
X0036413Y0087686D01*
X0037280Y0087686D02*
X0038148Y0088554D01*
X0038148Y0090289D01*
X0037280Y0091156D01*
X0034678Y0090289D02*
X0034678Y0088554D01*
X0035545Y0087686D01*
X0037280Y0087686D01*
X0037280Y0086000D02*
X0034678Y0086000D01*
X0037280Y0086000D02*
X0038148Y0085132D01*
X0038148Y0082530D01*
X0034678Y0082530D01*
X0034678Y0080843D02*
X0037280Y0080843D01*
X0038148Y0079976D01*
X0038148Y0077374D01*
X0034678Y0077374D01*
X0035545Y0075687D02*
X0037280Y0075687D01*
X0038148Y0074819D01*
X0038148Y0073085D01*
X0037280Y0072217D01*
X0035545Y0072217D01*
X0034678Y0073085D01*
X0034678Y0074819D01*
X0035545Y0075687D01*
X0034678Y0070530D02*
X0034678Y0067928D01*
X0035545Y0067061D01*
X0037280Y0067061D01*
X0038148Y0067928D01*
X0038148Y0070530D01*
X0043078Y0069663D02*
X0043078Y0067061D01*
X0048282Y0067061D01*
X0048282Y0069663D01*
X0047415Y0070530D01*
X0046548Y0070530D01*
X0045680Y0069663D01*
X0045680Y0067061D01*
X0045680Y0069663D02*
X0044813Y0070530D01*
X0043945Y0070530D01*
X0043078Y0069663D01*
X0043945Y0072217D02*
X0044813Y0073085D01*
X0044813Y0075687D01*
X0045680Y0075687D02*
X0043078Y0075687D01*
X0043078Y0073085D01*
X0043945Y0072217D01*
X0046548Y0073085D02*
X0046548Y0074819D01*
X0045680Y0075687D01*
X0051478Y0074819D02*
X0051478Y0073085D01*
X0052345Y0072217D01*
X0054080Y0072217D01*
X0054948Y0073085D01*
X0054948Y0074819D01*
X0054080Y0075687D01*
X0052345Y0075687D01*
X0051478Y0074819D01*
X0052345Y0070530D02*
X0055815Y0070530D01*
X0056682Y0069663D01*
X0056682Y0067061D01*
X0051478Y0067061D01*
X0051478Y0069663D01*
X0052345Y0070530D01*
X0062480Y0065374D02*
X0062480Y0061904D01*
X0063348Y0061904D02*
X0059878Y0061904D01*
X0054080Y0060218D02*
X0054080Y0056748D01*
X0045680Y0056748D02*
X0045680Y0060218D01*
D17*
X0207450Y0151717D03*
X0274050Y0134517D03*
X0281850Y0068717D03*
X0313850Y0065717D03*
X0311250Y0034917D03*
D18*
X0274850Y0037217D03*
X0257650Y0059417D03*
X0273450Y0067617D03*
X0273850Y0067417D03*
X0274050Y0067417D03*
X0279650Y0068617D03*
X0279850Y0068617D03*
X0283250Y0079217D03*
X0314650Y0065417D03*
X0287250Y0103017D03*
X0262050Y0112617D03*
X0275050Y0136017D03*
X0275250Y0136417D03*
X0275450Y0136617D03*
X0276050Y0137617D03*
X0276450Y0138417D03*
X0276650Y0138417D03*
X0277850Y0140217D03*
X0255050Y0144617D03*
X0254650Y0145017D03*
X0254450Y0145217D03*
X0254250Y0145217D03*
X0253850Y0145417D03*
X0253650Y0145617D03*
X0253450Y0145617D03*
X0276050Y0157017D03*
X0207650Y0151617D03*
D19*
X0207850Y0151617D03*
X0217450Y0169817D03*
X0255250Y0144417D03*
X0278050Y0140417D03*
X0278250Y0140817D03*
X0278850Y0141417D03*
X0279050Y0141617D03*
X0279650Y0142417D03*
X0279850Y0142617D03*
X0280650Y0143617D03*
X0280850Y0143617D03*
X0281050Y0144017D03*
X0288050Y0119017D03*
X0287850Y0118617D03*
X0262650Y0113217D03*
X0262250Y0112817D03*
X0287650Y0102417D03*
X0287450Y0081817D03*
X0266850Y0070217D03*
X0266650Y0070217D03*
X0266250Y0070417D03*
X0265850Y0070617D03*
X0265650Y0070617D03*
X0264850Y0071017D03*
X0264650Y0071017D03*
X0264450Y0071017D03*
X0264250Y0071017D03*
X0264050Y0071217D03*
X0263650Y0071417D03*
X0263450Y0071617D03*
X0260250Y0073417D03*
X0267650Y0069817D03*
X0268050Y0069617D03*
X0268250Y0069617D03*
X0268650Y0069417D03*
X0269050Y0069217D03*
X0269250Y0069217D03*
X0270050Y0068817D03*
X0270250Y0068817D03*
X0270450Y0068817D03*
X0270650Y0068617D03*
X0271050Y0068417D03*
X0271250Y0068417D03*
X0271450Y0068417D03*
X0271850Y0068217D03*
X0272050Y0068017D03*
X0272250Y0068017D03*
X0272650Y0067817D03*
X0248250Y0079617D03*
X0215850Y0120417D03*
X0232450Y0126017D03*
X0311050Y0034617D03*
D20*
X0258250Y0059317D03*
X0283650Y0078917D03*
X0287650Y0081717D03*
X0315450Y0064917D03*
X0288250Y0101317D03*
X0288050Y0101717D03*
X0263050Y0113917D03*
X0288250Y0119317D03*
X0255650Y0143717D03*
X0284450Y0147117D03*
X0284850Y0147517D03*
X0285250Y0147917D03*
X0286250Y0148717D03*
X0208050Y0151517D03*
D21*
X0208250Y0151617D03*
X0217650Y0169817D03*
X0241850Y0138617D03*
X0243650Y0126817D03*
X0263250Y0114217D03*
X0246650Y0109617D03*
X0216250Y0120617D03*
X0285050Y0147817D03*
X0285450Y0148017D03*
X0285650Y0148217D03*
X0285850Y0148417D03*
X0286050Y0148617D03*
X0286450Y0149017D03*
X0286650Y0149017D03*
X0286850Y0149217D03*
X0287250Y0149417D03*
X0287450Y0149617D03*
X0288050Y0150017D03*
X0288850Y0120217D03*
X0288650Y0120017D03*
X0288450Y0101017D03*
X0303650Y0098417D03*
D22*
X0288650Y0100517D03*
X0264450Y0117317D03*
X0289050Y0120517D03*
X0287050Y0149317D03*
X0287650Y0149717D03*
X0287850Y0149917D03*
X0288250Y0150317D03*
X0288450Y0150317D03*
X0289050Y0150717D03*
X0289250Y0150917D03*
X0208450Y0151517D03*
X0315650Y0064717D03*
X0326650Y0047917D03*
X0310850Y0034717D03*
X0275050Y0037317D03*
X0258650Y0059317D03*
X0258450Y0059317D03*
D23*
X0315850Y0064517D03*
X0326450Y0048117D03*
X0288850Y0100317D03*
X0289450Y0121317D03*
X0232650Y0126117D03*
X0216850Y0120717D03*
X0216650Y0120717D03*
X0208850Y0151517D03*
X0208650Y0151517D03*
X0290250Y0151517D03*
X0291050Y0151917D03*
X0291450Y0152317D03*
X0291850Y0152517D03*
X0292050Y0152517D03*
X0292650Y0152917D03*
X0293250Y0153317D03*
D24*
X0294650Y0154017D03*
X0295050Y0154217D03*
X0295450Y0154417D03*
X0295650Y0154417D03*
X0296250Y0154817D03*
X0296850Y0155017D03*
X0297050Y0155017D03*
X0297250Y0155217D03*
X0297650Y0155417D03*
X0297850Y0155417D03*
X0298850Y0155817D03*
X0256050Y0142817D03*
X0243250Y0127417D03*
X0209250Y0151417D03*
X0209050Y0151417D03*
X0218250Y0169817D03*
X0290050Y0122617D03*
X0289450Y0099217D03*
X0288050Y0081417D03*
X0247250Y0083017D03*
X0259850Y0059417D03*
X0260050Y0059417D03*
X0260250Y0059417D03*
D25*
X0276650Y0061917D03*
X0275250Y0037317D03*
X0289850Y0098517D03*
X0303450Y0097717D03*
X0290250Y0122917D03*
X0290450Y0123117D03*
X0256250Y0142517D03*
X0298050Y0155517D03*
X0298250Y0155517D03*
X0298450Y0155717D03*
X0298650Y0155717D03*
X0299050Y0155917D03*
X0299650Y0156117D03*
X0299850Y0156117D03*
X0300050Y0156317D03*
X0300250Y0156317D03*
X0300650Y0156517D03*
X0300850Y0156517D03*
X0217250Y0120717D03*
X0209450Y0151517D03*
D26*
X0209650Y0151417D03*
X0218450Y0169617D03*
X0256450Y0142417D03*
X0217450Y0120817D03*
X0261850Y0113817D03*
X0299250Y0156017D03*
X0299450Y0156017D03*
X0300450Y0156417D03*
X0301050Y0156617D03*
X0301250Y0156617D03*
X0301650Y0156817D03*
X0301850Y0156817D03*
X0302050Y0156817D03*
X0302250Y0157017D03*
X0302450Y0157017D03*
X0316450Y0064017D03*
X0316650Y0064017D03*
X0326050Y0048217D03*
X0260850Y0059417D03*
X0260650Y0059417D03*
X0260450Y0059417D03*
D27*
X0261050Y0059317D03*
X0261250Y0059317D03*
X0261450Y0059317D03*
X0310650Y0035117D03*
X0290250Y0097517D03*
X0290050Y0097917D03*
X0246450Y0109517D03*
X0217650Y0120917D03*
X0243050Y0127717D03*
X0209850Y0151317D03*
X0218650Y0169517D03*
X0301450Y0156717D03*
X0302650Y0157117D03*
X0303250Y0157317D03*
X0303450Y0157317D03*
X0303650Y0157317D03*
X0304050Y0157517D03*
X0304250Y0157517D03*
D28*
X0304450Y0157617D03*
X0304650Y0157617D03*
X0304850Y0157617D03*
X0305450Y0157817D03*
X0306250Y0158017D03*
X0306450Y0158017D03*
X0306650Y0158017D03*
X0303850Y0157417D03*
X0303050Y0157217D03*
X0302850Y0157217D03*
X0290850Y0124017D03*
X0290650Y0123617D03*
X0290450Y0097417D03*
X0288250Y0081417D03*
X0282850Y0074617D03*
X0266050Y0058017D03*
X0265850Y0058017D03*
X0265050Y0058417D03*
X0263850Y0058817D03*
X0263650Y0058817D03*
X0262250Y0059217D03*
X0262050Y0059217D03*
X0261850Y0059217D03*
X0261650Y0059217D03*
X0266850Y0057417D03*
X0267450Y0057017D03*
X0268050Y0056617D03*
X0268250Y0056617D03*
X0316850Y0063817D03*
X0317050Y0063817D03*
X0325850Y0048417D03*
X0217850Y0121017D03*
X0210250Y0151217D03*
X0210050Y0151217D03*
X0218850Y0169417D03*
D29*
X0210650Y0151117D03*
X0210450Y0151117D03*
X0242050Y0138517D03*
X0261650Y0125317D03*
X0262850Y0121317D03*
X0246250Y0109517D03*
X0218050Y0121117D03*
X0275450Y0156917D03*
X0305050Y0157717D03*
X0305250Y0157717D03*
X0305650Y0157917D03*
X0305850Y0157917D03*
X0306050Y0157917D03*
X0306850Y0158117D03*
X0307050Y0158117D03*
X0307250Y0158117D03*
X0291050Y0124517D03*
X0265450Y0058317D03*
X0265250Y0058317D03*
X0265650Y0058117D03*
X0266250Y0057917D03*
X0266450Y0057717D03*
X0266650Y0057517D03*
X0267050Y0057317D03*
X0267650Y0056917D03*
X0267850Y0056717D03*
X0268450Y0056517D03*
X0268650Y0056517D03*
X0264850Y0058517D03*
X0264650Y0058517D03*
X0264250Y0058717D03*
X0264050Y0058717D03*
X0263450Y0058917D03*
X0263250Y0058917D03*
X0262850Y0059117D03*
X0262650Y0059117D03*
X0262450Y0059117D03*
D30*
X0263050Y0059017D03*
X0264450Y0058617D03*
X0267250Y0057217D03*
X0268850Y0056417D03*
X0269050Y0056417D03*
X0269250Y0056417D03*
X0276850Y0062017D03*
X0317250Y0063617D03*
X0317450Y0063617D03*
X0325650Y0048417D03*
X0310450Y0035217D03*
X0275450Y0037417D03*
X0290650Y0096617D03*
X0263050Y0120817D03*
X0262650Y0122217D03*
X0262450Y0122617D03*
X0262250Y0123617D03*
X0261850Y0124817D03*
X0291250Y0124817D03*
X0256650Y0141617D03*
X0275250Y0157017D03*
X0307450Y0158217D03*
X0307650Y0158217D03*
X0307850Y0158217D03*
X0308050Y0158217D03*
X0219050Y0169417D03*
X0211050Y0151017D03*
X0210850Y0151017D03*
X0218250Y0121217D03*
D31*
X0218450Y0121317D03*
X0242250Y0138517D03*
X0262050Y0123917D03*
X0263250Y0120517D03*
X0261650Y0114317D03*
X0290850Y0096317D03*
X0291050Y0095917D03*
X0291250Y0095717D03*
X0288450Y0081317D03*
X0317650Y0063517D03*
X0273250Y0055517D03*
X0270450Y0056317D03*
X0270250Y0056317D03*
X0270050Y0056317D03*
X0269850Y0056317D03*
X0269650Y0056317D03*
X0269450Y0056317D03*
X0211450Y0150917D03*
X0211250Y0150917D03*
X0219250Y0169317D03*
X0308250Y0158317D03*
X0308450Y0158317D03*
X0308650Y0158317D03*
X0308850Y0158317D03*
X0309050Y0158317D03*
X0309650Y0158517D03*
X0309850Y0158517D03*
D32*
X0310050Y0158617D03*
X0310250Y0158617D03*
X0310450Y0158617D03*
X0310650Y0158617D03*
X0310850Y0158617D03*
X0311050Y0158617D03*
X0311250Y0158617D03*
X0309450Y0158417D03*
X0309250Y0158417D03*
X0256850Y0141217D03*
X0291450Y0125417D03*
X0303250Y0097217D03*
X0317850Y0063417D03*
X0318050Y0063417D03*
X0325450Y0048417D03*
X0273850Y0055217D03*
X0273650Y0055417D03*
X0273450Y0055417D03*
X0273050Y0055617D03*
X0272850Y0055617D03*
X0272450Y0055817D03*
X0271050Y0056217D03*
X0270850Y0056217D03*
X0270650Y0056217D03*
X0212050Y0150817D03*
X0211850Y0150817D03*
X0211650Y0150817D03*
X0219450Y0169217D03*
D33*
X0219650Y0169117D03*
X0212450Y0150717D03*
X0212250Y0150717D03*
X0257050Y0140717D03*
X0219050Y0121517D03*
X0218850Y0121317D03*
X0218650Y0121317D03*
X0311450Y0158717D03*
X0311650Y0158717D03*
X0311850Y0158717D03*
X0312050Y0158717D03*
X0271850Y0056117D03*
X0271650Y0056117D03*
X0271450Y0056117D03*
X0271250Y0056117D03*
X0272250Y0055917D03*
X0272650Y0055717D03*
X0274050Y0055317D03*
X0274250Y0055317D03*
X0274450Y0055317D03*
D34*
X0272050Y0056017D03*
X0248250Y0084217D03*
X0264050Y0117417D03*
X0291650Y0125817D03*
X0257250Y0140617D03*
X0242450Y0138417D03*
X0219050Y0149217D03*
X0218450Y0149417D03*
X0218250Y0149617D03*
X0218050Y0149617D03*
X0213450Y0150617D03*
X0213250Y0150617D03*
X0213050Y0150617D03*
X0212850Y0150617D03*
X0212650Y0150617D03*
X0219850Y0169017D03*
X0220050Y0169017D03*
X0275050Y0156817D03*
X0312250Y0158817D03*
X0312450Y0158817D03*
X0312650Y0158817D03*
X0312850Y0158817D03*
X0313050Y0158817D03*
X0313250Y0158817D03*
X0313450Y0158817D03*
X0313650Y0158817D03*
X0313850Y0158817D03*
X0314050Y0158817D03*
X0314250Y0158817D03*
X0314450Y0158817D03*
X0314650Y0158817D03*
X0314850Y0158817D03*
X0315050Y0158817D03*
X0315250Y0158817D03*
X0315450Y0158817D03*
X0315650Y0158817D03*
X0219250Y0121617D03*
D35*
X0219450Y0121717D03*
X0242650Y0128317D03*
X0242850Y0128317D03*
X0263850Y0117517D03*
X0246050Y0109517D03*
X0291450Y0094917D03*
X0248450Y0084317D03*
X0274650Y0055317D03*
X0274850Y0055317D03*
X0275050Y0055317D03*
X0275650Y0054917D03*
X0275850Y0054917D03*
X0318250Y0063317D03*
X0325050Y0048717D03*
X0325250Y0048717D03*
X0291850Y0126317D03*
X0296650Y0138117D03*
X0315850Y0158717D03*
X0220450Y0168717D03*
X0220250Y0168917D03*
X0217850Y0149717D03*
X0217650Y0149717D03*
X0217450Y0149717D03*
X0217250Y0149717D03*
X0218650Y0149317D03*
X0218850Y0149317D03*
X0219250Y0149117D03*
X0215650Y0150117D03*
X0215450Y0150117D03*
X0214250Y0150317D03*
X0214050Y0150317D03*
X0213850Y0150317D03*
X0213650Y0150517D03*
D36*
X0214450Y0150217D03*
X0214650Y0150217D03*
X0214850Y0150217D03*
X0215050Y0150217D03*
X0215250Y0150217D03*
X0215850Y0150017D03*
X0216050Y0150017D03*
X0216650Y0149817D03*
X0216850Y0149817D03*
X0217050Y0149817D03*
X0219450Y0149017D03*
X0219650Y0149017D03*
X0219850Y0149017D03*
X0220650Y0148817D03*
X0220650Y0168617D03*
X0292050Y0126617D03*
X0316050Y0158817D03*
X0316250Y0158817D03*
X0316450Y0158817D03*
X0316650Y0158817D03*
X0316850Y0158817D03*
X0317050Y0158817D03*
X0317250Y0158817D03*
X0317450Y0158817D03*
X0317650Y0158817D03*
X0317850Y0158817D03*
X0318050Y0158817D03*
X0318250Y0158817D03*
X0318450Y0158817D03*
X0318650Y0158817D03*
X0318850Y0158817D03*
X0219650Y0121817D03*
X0248650Y0084417D03*
X0247450Y0082817D03*
X0282650Y0074617D03*
X0288650Y0081217D03*
X0291650Y0094617D03*
X0318450Y0063217D03*
X0318650Y0063217D03*
X0318850Y0063217D03*
X0276050Y0054817D03*
X0275450Y0055217D03*
X0275250Y0055217D03*
X0275650Y0037617D03*
D37*
X0314250Y0065517D03*
X0283050Y0079317D03*
X0278650Y0067917D03*
X0278450Y0067917D03*
X0278250Y0067917D03*
X0278050Y0067717D03*
X0277850Y0067517D03*
X0258850Y0073517D03*
X0258650Y0073717D03*
X0258250Y0073917D03*
X0258050Y0073917D03*
X0257850Y0074117D03*
X0257650Y0074117D03*
X0257050Y0074317D03*
X0256850Y0074517D03*
X0256650Y0074517D03*
X0256450Y0074717D03*
X0256250Y0074717D03*
X0256050Y0074717D03*
X0255850Y0074717D03*
X0255650Y0074917D03*
X0255450Y0075117D03*
X0255250Y0075117D03*
X0254650Y0075317D03*
X0254250Y0075517D03*
X0253650Y0075717D03*
X0253250Y0075917D03*
X0253050Y0075917D03*
X0252650Y0076117D03*
X0252450Y0076117D03*
X0252050Y0076317D03*
X0251850Y0076517D03*
X0251650Y0076517D03*
X0251250Y0076717D03*
X0251050Y0076917D03*
X0250850Y0076917D03*
X0250450Y0077117D03*
X0250250Y0077317D03*
X0249850Y0077517D03*
X0249650Y0077717D03*
X0249050Y0078317D03*
X0215450Y0120517D03*
X0232250Y0125917D03*
X0244050Y0125917D03*
X0274250Y0134917D03*
D38*
X0274450Y0135017D03*
X0274850Y0135817D03*
X0253250Y0145817D03*
X0253050Y0145817D03*
X0252650Y0146017D03*
X0252250Y0146217D03*
X0252050Y0146217D03*
X0215650Y0120417D03*
X0246850Y0109617D03*
X0287050Y0103217D03*
X0287450Y0118217D03*
X0248650Y0078817D03*
X0249250Y0078017D03*
X0249450Y0077817D03*
X0250050Y0077417D03*
X0250650Y0077017D03*
X0252850Y0076017D03*
X0253450Y0075817D03*
X0253850Y0075617D03*
X0254050Y0075617D03*
X0254850Y0075217D03*
X0255050Y0075217D03*
X0257250Y0074217D03*
X0257450Y0074217D03*
X0258450Y0073817D03*
X0259050Y0073417D03*
X0259250Y0073417D03*
X0259450Y0073417D03*
X0259650Y0073417D03*
X0259850Y0073417D03*
X0275250Y0067217D03*
X0275450Y0067217D03*
X0275650Y0067217D03*
X0275850Y0067217D03*
X0276050Y0067217D03*
X0276250Y0067217D03*
X0276450Y0067217D03*
X0276650Y0067217D03*
X0276850Y0067217D03*
X0277450Y0067417D03*
X0277650Y0067417D03*
X0278850Y0068217D03*
X0279050Y0068217D03*
X0279250Y0068417D03*
X0279450Y0068417D03*
X0276250Y0061617D03*
X0257450Y0059417D03*
D39*
X0272450Y0067917D03*
X0267850Y0069717D03*
X0283450Y0079117D03*
X0315050Y0065117D03*
X0262850Y0113717D03*
X0277650Y0139917D03*
X0279450Y0142117D03*
X0280050Y0142917D03*
X0280250Y0143117D03*
X0281250Y0144117D03*
X0281450Y0144317D03*
X0281650Y0144517D03*
X0281850Y0144717D03*
X0282050Y0144917D03*
X0282450Y0145317D03*
X0282650Y0145517D03*
X0282850Y0145717D03*
X0283050Y0145917D03*
X0255450Y0144117D03*
X0216050Y0120517D03*
D40*
X0219850Y0121917D03*
X0245850Y0109517D03*
X0292250Y0126917D03*
X0274850Y0156717D03*
X0319050Y0158717D03*
X0319250Y0158717D03*
X0319450Y0158717D03*
X0221050Y0168517D03*
X0220850Y0168517D03*
X0216450Y0149917D03*
X0216250Y0149917D03*
X0220050Y0148917D03*
X0220250Y0148917D03*
X0220450Y0148917D03*
X0220850Y0148717D03*
X0221050Y0148717D03*
X0288850Y0081117D03*
X0276450Y0054717D03*
X0276250Y0054717D03*
X0310250Y0035717D03*
X0324850Y0048917D03*
D41*
X0259050Y0059417D03*
X0258850Y0059417D03*
X0289050Y0100217D03*
X0289250Y0121017D03*
X0255850Y0143417D03*
X0275850Y0157017D03*
X0289450Y0151017D03*
X0289650Y0151217D03*
X0289850Y0151217D03*
X0290050Y0151417D03*
X0290450Y0151617D03*
X0290650Y0151817D03*
X0290850Y0151817D03*
X0291250Y0152017D03*
X0288850Y0150617D03*
X0288650Y0150417D03*
X0243450Y0127017D03*
X0216450Y0120617D03*
X0217850Y0169817D03*
D42*
X0218050Y0169717D03*
X0293650Y0153517D03*
X0293850Y0153517D03*
X0294450Y0153917D03*
X0294850Y0154117D03*
X0295250Y0154317D03*
X0295850Y0154517D03*
X0296050Y0154717D03*
X0296450Y0154917D03*
X0296650Y0154917D03*
X0297450Y0155317D03*
X0258850Y0128717D03*
X0264250Y0117317D03*
X0289650Y0121717D03*
X0289850Y0121917D03*
X0289250Y0099517D03*
X0289650Y0098717D03*
X0316250Y0064317D03*
X0326250Y0048117D03*
X0259650Y0059317D03*
X0217050Y0120717D03*
D43*
X0243850Y0126317D03*
X0262450Y0113117D03*
X0287450Y0102517D03*
X0303850Y0098517D03*
X0266450Y0070317D03*
X0266050Y0070517D03*
X0265450Y0070717D03*
X0265250Y0070717D03*
X0265050Y0070917D03*
X0263850Y0071317D03*
X0267050Y0070117D03*
X0267250Y0070117D03*
X0267450Y0069917D03*
X0268450Y0069517D03*
X0268850Y0069317D03*
X0269450Y0069117D03*
X0269650Y0068917D03*
X0269850Y0068917D03*
X0270850Y0068517D03*
X0271650Y0068317D03*
X0272850Y0067717D03*
X0273050Y0067717D03*
X0273250Y0067717D03*
X0273650Y0067517D03*
X0257850Y0059317D03*
X0314850Y0065317D03*
X0326850Y0047917D03*
X0275650Y0137117D03*
X0275850Y0137317D03*
X0276250Y0137917D03*
X0276850Y0138717D03*
X0277050Y0139117D03*
X0277250Y0139317D03*
X0277450Y0139717D03*
X0278450Y0140917D03*
X0278650Y0141117D03*
X0279250Y0141917D03*
X0254850Y0144717D03*
X0217250Y0169917D03*
D44*
X0221250Y0168417D03*
X0221450Y0168217D03*
X0221650Y0168217D03*
X0221850Y0168017D03*
X0222050Y0168017D03*
X0221850Y0148617D03*
X0221650Y0148617D03*
X0221450Y0148617D03*
X0221250Y0148617D03*
X0242450Y0128617D03*
X0260650Y0129817D03*
X0261450Y0127417D03*
X0292450Y0127617D03*
X0319650Y0158617D03*
X0319850Y0158617D03*
X0320050Y0158617D03*
X0320250Y0158617D03*
X0320450Y0158617D03*
X0320650Y0158617D03*
X0320850Y0158617D03*
X0321050Y0158617D03*
X0220450Y0122217D03*
X0220050Y0122017D03*
X0291850Y0094017D03*
X0282450Y0074617D03*
X0319050Y0063217D03*
X0319250Y0063217D03*
X0319450Y0063217D03*
X0319650Y0063217D03*
X0319850Y0063217D03*
X0320050Y0063217D03*
X0320250Y0063217D03*
X0320450Y0063217D03*
X0324650Y0049017D03*
X0276650Y0054817D03*
X0275850Y0037617D03*
D45*
X0310050Y0035917D03*
X0324450Y0049117D03*
X0321250Y0063317D03*
X0321050Y0063317D03*
X0320850Y0063317D03*
X0320650Y0063317D03*
X0321450Y0063517D03*
X0321650Y0063517D03*
X0321850Y0063517D03*
X0322050Y0063517D03*
X0289050Y0081117D03*
X0248850Y0084517D03*
X0245650Y0109717D03*
X0220850Y0122517D03*
X0220650Y0122317D03*
X0220250Y0122117D03*
X0257450Y0139717D03*
X0260850Y0129317D03*
X0261050Y0128317D03*
X0261250Y0127917D03*
X0292650Y0127917D03*
X0274650Y0156717D03*
X0321250Y0158517D03*
X0321450Y0158517D03*
X0321650Y0158517D03*
X0321850Y0158517D03*
X0322250Y0158317D03*
X0322450Y0158317D03*
X0322650Y0158317D03*
X0322850Y0158317D03*
X0323050Y0158317D03*
X0223250Y0167317D03*
X0223050Y0167317D03*
X0222850Y0167517D03*
X0222450Y0148717D03*
X0222250Y0148717D03*
X0222050Y0148717D03*
D46*
X0222650Y0148617D03*
X0222850Y0148617D03*
X0224450Y0166617D03*
X0224050Y0166817D03*
X0223850Y0167017D03*
X0223450Y0167217D03*
X0222650Y0167617D03*
X0222450Y0167817D03*
X0222250Y0167817D03*
X0257650Y0139417D03*
X0221050Y0122617D03*
X0261450Y0114817D03*
X0263650Y0117417D03*
X0292050Y0093617D03*
X0290250Y0071017D03*
X0290050Y0071017D03*
X0276850Y0055017D03*
X0322250Y0063617D03*
X0322450Y0063617D03*
X0322650Y0063617D03*
X0322850Y0063617D03*
X0323050Y0063617D03*
X0323850Y0049617D03*
X0324050Y0049417D03*
X0324250Y0049217D03*
X0249050Y0084617D03*
X0247650Y0083017D03*
X0322050Y0158417D03*
X0323250Y0158217D03*
X0323450Y0158217D03*
D47*
X0323650Y0158117D03*
X0323850Y0158117D03*
X0324050Y0158117D03*
X0324250Y0158117D03*
X0324450Y0158117D03*
X0324650Y0158117D03*
X0296450Y0138117D03*
X0274450Y0156717D03*
X0274250Y0156717D03*
X0257850Y0139117D03*
X0258050Y0138117D03*
X0258250Y0137717D03*
X0260250Y0130917D03*
X0260450Y0130717D03*
X0242650Y0138517D03*
X0225450Y0148117D03*
X0225250Y0148117D03*
X0224650Y0148317D03*
X0224450Y0148317D03*
X0224050Y0148517D03*
X0223850Y0148517D03*
X0223650Y0148517D03*
X0223450Y0148517D03*
X0223250Y0148517D03*
X0223050Y0148517D03*
X0233450Y0160317D03*
X0234250Y0159917D03*
X0224250Y0166717D03*
X0223650Y0167117D03*
X0221450Y0122917D03*
X0221250Y0122717D03*
X0292250Y0093317D03*
X0289850Y0071117D03*
X0323250Y0063717D03*
X0323450Y0063717D03*
X0323650Y0049717D03*
D48*
X0323450Y0049817D03*
X0323650Y0063817D03*
X0323850Y0063817D03*
X0324050Y0063817D03*
X0324250Y0063817D03*
X0324450Y0063817D03*
X0324650Y0063817D03*
X0325050Y0064017D03*
X0325850Y0064217D03*
X0326050Y0064217D03*
X0326650Y0064417D03*
X0289650Y0071217D03*
X0282250Y0074617D03*
X0289250Y0081017D03*
X0261250Y0115017D03*
X0221850Y0123217D03*
X0221650Y0123217D03*
X0258850Y0135617D03*
X0225650Y0148017D03*
X0225050Y0148217D03*
X0224850Y0148217D03*
X0224250Y0148417D03*
X0233850Y0160017D03*
X0234050Y0160017D03*
X0233650Y0160217D03*
X0232850Y0160817D03*
X0224650Y0166417D03*
X0324850Y0158017D03*
X0325050Y0158017D03*
X0325250Y0158017D03*
D49*
X0325450Y0157917D03*
X0325650Y0157917D03*
X0325850Y0157717D03*
X0326050Y0157717D03*
X0326250Y0157717D03*
X0326850Y0157517D03*
X0293050Y0129117D03*
X0292850Y0128717D03*
X0245450Y0109917D03*
X0245250Y0109917D03*
X0222250Y0123517D03*
X0222050Y0123317D03*
X0242250Y0129117D03*
X0229650Y0146517D03*
X0229450Y0146517D03*
X0229250Y0146517D03*
X0228850Y0146717D03*
X0228650Y0146917D03*
X0228450Y0146917D03*
X0227850Y0147117D03*
X0226850Y0147517D03*
X0226650Y0147517D03*
X0226450Y0147717D03*
X0226250Y0147717D03*
X0226050Y0147917D03*
X0225850Y0147917D03*
X0234450Y0159717D03*
X0234850Y0159517D03*
X0235050Y0159317D03*
X0233250Y0160517D03*
X0233050Y0160717D03*
X0232650Y0160917D03*
X0232450Y0161117D03*
X0232250Y0161117D03*
X0232050Y0161317D03*
X0224850Y0166117D03*
X0292450Y0092717D03*
X0292650Y0092317D03*
X0289450Y0071317D03*
X0324850Y0063917D03*
X0325250Y0064117D03*
X0325450Y0064117D03*
X0325650Y0064117D03*
X0326250Y0064317D03*
X0326450Y0064317D03*
X0326850Y0064517D03*
X0327050Y0064517D03*
X0327250Y0064517D03*
X0322850Y0050317D03*
X0323050Y0050117D03*
X0323250Y0049917D03*
X0309850Y0036117D03*
X0276050Y0037717D03*
X0247850Y0082917D03*
X0249250Y0084517D03*
D50*
X0249450Y0084417D03*
X0289250Y0071417D03*
X0321850Y0051017D03*
X0322450Y0050617D03*
X0322650Y0050417D03*
X0327450Y0064617D03*
X0327650Y0064617D03*
X0276250Y0037817D03*
X0245050Y0110217D03*
X0222650Y0123817D03*
X0222450Y0123617D03*
X0258450Y0137017D03*
X0230250Y0146217D03*
X0230050Y0146417D03*
X0229850Y0146417D03*
X0229050Y0146617D03*
X0228250Y0147017D03*
X0228050Y0147017D03*
X0227650Y0147217D03*
X0227450Y0147417D03*
X0227250Y0147417D03*
X0227050Y0147417D03*
X0234650Y0159617D03*
X0231850Y0161417D03*
X0231650Y0161417D03*
X0231450Y0161617D03*
X0231050Y0161817D03*
X0230850Y0162017D03*
X0225650Y0165617D03*
X0225450Y0165617D03*
X0225250Y0165817D03*
X0225050Y0166017D03*
X0274050Y0156617D03*
X0326450Y0157617D03*
X0326650Y0157617D03*
X0327050Y0157417D03*
X0327250Y0157417D03*
X0327450Y0157417D03*
X0327650Y0157417D03*
D51*
X0328850Y0157017D03*
X0329050Y0156817D03*
X0329250Y0156817D03*
X0330050Y0156617D03*
X0293450Y0130017D03*
X0242850Y0138417D03*
X0231050Y0145817D03*
X0230850Y0145817D03*
X0235450Y0159017D03*
X0230450Y0162217D03*
X0229850Y0162617D03*
X0229650Y0162617D03*
X0229450Y0162817D03*
X0229250Y0163017D03*
X0229050Y0163017D03*
X0228850Y0163217D03*
X0228650Y0163217D03*
X0228450Y0163417D03*
X0228250Y0163417D03*
X0228050Y0163617D03*
X0227650Y0164017D03*
X0227450Y0164017D03*
X0227250Y0164217D03*
X0227050Y0164417D03*
X0226450Y0164817D03*
X0226050Y0165217D03*
X0271250Y0155417D03*
X0271650Y0155617D03*
X0271850Y0155617D03*
X0272050Y0155817D03*
X0272250Y0155817D03*
X0272650Y0156017D03*
X0272850Y0156217D03*
X0273050Y0156217D03*
X0273250Y0156217D03*
X0242050Y0129417D03*
X0223250Y0124417D03*
X0222850Y0124017D03*
X0242650Y0112817D03*
X0244850Y0110417D03*
X0289450Y0081017D03*
X0289050Y0071617D03*
X0288850Y0071617D03*
X0288650Y0071617D03*
X0316650Y0055617D03*
X0316850Y0055617D03*
X0317250Y0055217D03*
X0317450Y0055217D03*
X0317650Y0054817D03*
X0317850Y0054817D03*
X0318850Y0053817D03*
X0319450Y0053017D03*
X0319650Y0053017D03*
X0320250Y0052417D03*
X0320450Y0052217D03*
X0320650Y0052017D03*
X0320850Y0051817D03*
X0321050Y0051617D03*
X0321250Y0051617D03*
X0321650Y0051217D03*
X0328450Y0064817D03*
X0329050Y0065017D03*
X0329250Y0065217D03*
X0329450Y0065217D03*
X0329650Y0065217D03*
X0329850Y0065217D03*
X0330050Y0065217D03*
X0303050Y0095817D03*
D52*
X0261050Y0115117D03*
X0242850Y0112517D03*
X0223050Y0124317D03*
X0258650Y0136517D03*
X0260050Y0131517D03*
X0230650Y0146117D03*
X0230450Y0146117D03*
X0235250Y0159117D03*
X0231250Y0161717D03*
X0230650Y0162117D03*
X0230250Y0162317D03*
X0230050Y0162517D03*
X0227850Y0163917D03*
X0226850Y0164517D03*
X0226650Y0164717D03*
X0226250Y0164917D03*
X0225850Y0165317D03*
X0273450Y0156317D03*
X0273650Y0156517D03*
X0273850Y0156517D03*
X0293250Y0129717D03*
X0327850Y0157317D03*
X0328050Y0157317D03*
X0328250Y0157117D03*
X0328450Y0157117D03*
X0328650Y0157117D03*
X0369850Y0111117D03*
X0328850Y0064917D03*
X0328650Y0064917D03*
X0328250Y0064717D03*
X0328050Y0064717D03*
X0327850Y0064717D03*
X0321450Y0051317D03*
X0322050Y0050917D03*
X0322250Y0050717D03*
X0309650Y0036317D03*
X0249650Y0084517D03*
X0248050Y0082917D03*
D53*
X0282050Y0074717D03*
X0289650Y0080917D03*
X0330250Y0065317D03*
X0330450Y0065517D03*
X0330650Y0065517D03*
X0331050Y0065717D03*
X0318450Y0054317D03*
X0318250Y0054317D03*
X0318050Y0054717D03*
X0318650Y0053917D03*
X0319050Y0053517D03*
X0319250Y0053317D03*
X0319850Y0052917D03*
X0320050Y0052517D03*
X0317050Y0055517D03*
X0316450Y0055717D03*
X0244650Y0110517D03*
X0244050Y0111117D03*
X0243050Y0112117D03*
X0263450Y0117717D03*
X0259850Y0131717D03*
X0223850Y0124917D03*
X0223450Y0124717D03*
X0269650Y0154717D03*
X0269850Y0154717D03*
X0270050Y0154717D03*
X0270250Y0154917D03*
X0270450Y0154917D03*
X0270650Y0155117D03*
X0271050Y0155317D03*
X0271450Y0155517D03*
X0272450Y0155917D03*
X0235650Y0158917D03*
X0329450Y0156717D03*
X0329650Y0156717D03*
X0329850Y0156717D03*
X0330250Y0156517D03*
X0330850Y0156317D03*
X0331050Y0156317D03*
D54*
X0331250Y0156217D03*
X0331650Y0156017D03*
X0331850Y0156017D03*
X0330650Y0156417D03*
X0330450Y0156417D03*
X0293650Y0131017D03*
X0269450Y0154617D03*
X0269250Y0154617D03*
X0269050Y0154417D03*
X0268850Y0154417D03*
X0268650Y0154217D03*
X0268450Y0154217D03*
X0268250Y0154217D03*
X0268050Y0154017D03*
X0267850Y0154017D03*
X0267650Y0153817D03*
X0267450Y0153817D03*
X0267250Y0153817D03*
X0270850Y0155217D03*
X0231450Y0145617D03*
X0231250Y0145617D03*
X0224450Y0125617D03*
X0224250Y0125417D03*
X0224050Y0125217D03*
X0223650Y0124817D03*
X0243250Y0112017D03*
X0243450Y0111617D03*
X0243650Y0111617D03*
X0243850Y0111217D03*
X0244250Y0111017D03*
X0249850Y0084417D03*
X0315850Y0056217D03*
X0316250Y0056017D03*
X0330850Y0065617D03*
X0331250Y0065817D03*
X0331450Y0065817D03*
X0331650Y0065817D03*
X0331850Y0065817D03*
D55*
X0332050Y0065917D03*
X0332250Y0066117D03*
X0332650Y0066317D03*
X0332850Y0066317D03*
X0316050Y0056117D03*
X0315650Y0056517D03*
X0288450Y0071717D03*
X0281850Y0074717D03*
X0289850Y0080917D03*
X0250050Y0084517D03*
X0244450Y0110717D03*
X0224650Y0125717D03*
X0266050Y0153317D03*
X0266250Y0153317D03*
X0266450Y0153317D03*
X0266650Y0153517D03*
X0266850Y0153517D03*
X0267050Y0153717D03*
X0331450Y0156117D03*
X0332050Y0155917D03*
X0332250Y0155917D03*
X0332650Y0155717D03*
X0276450Y0037917D03*
X0309450Y0036717D03*
D56*
X0309250Y0036817D03*
X0276650Y0038017D03*
X0315450Y0056617D03*
X0332450Y0066217D03*
X0333050Y0066417D03*
X0333250Y0066417D03*
X0333650Y0066617D03*
X0288250Y0071817D03*
X0224850Y0126217D03*
X0241850Y0129817D03*
X0265850Y0153217D03*
X0235850Y0158617D03*
X0293850Y0131217D03*
X0294050Y0131617D03*
X0332450Y0155817D03*
X0332850Y0155617D03*
X0333050Y0155417D03*
X0333250Y0155417D03*
D57*
X0333450Y0155317D03*
X0333650Y0155317D03*
X0333850Y0155317D03*
X0334050Y0155117D03*
X0334450Y0154917D03*
X0265650Y0153117D03*
X0231650Y0145317D03*
X0227650Y0129517D03*
X0227250Y0129117D03*
X0226850Y0128717D03*
X0226450Y0128117D03*
X0225450Y0126917D03*
X0225250Y0126717D03*
X0225050Y0126317D03*
X0240850Y0116717D03*
X0281450Y0074717D03*
X0281650Y0074717D03*
X0315050Y0057117D03*
X0315250Y0056917D03*
X0333450Y0066517D03*
X0333850Y0066717D03*
X0334250Y0066917D03*
X0334650Y0067117D03*
D58*
X0335650Y0067517D03*
X0335850Y0067717D03*
X0336050Y0067717D03*
X0290250Y0080917D03*
X0288050Y0072117D03*
X0250650Y0084517D03*
X0250450Y0084517D03*
X0242450Y0114117D03*
X0241850Y0115317D03*
X0241250Y0116117D03*
X0226250Y0127917D03*
X0225650Y0127117D03*
X0227850Y0129717D03*
X0228250Y0129917D03*
X0228450Y0130117D03*
X0260850Y0115717D03*
X0294250Y0132517D03*
X0294450Y0132917D03*
X0296250Y0137917D03*
X0265450Y0152717D03*
X0334850Y0154717D03*
X0335050Y0154717D03*
X0335250Y0154717D03*
X0335450Y0154517D03*
X0335650Y0154517D03*
X0335850Y0154317D03*
X0336050Y0154117D03*
X0308850Y0037317D03*
D59*
X0309050Y0037017D03*
X0276850Y0038217D03*
X0334050Y0066817D03*
X0334450Y0067017D03*
X0334850Y0067217D03*
X0335050Y0067217D03*
X0335250Y0067217D03*
X0335450Y0067417D03*
X0290050Y0080817D03*
X0302850Y0095417D03*
X0250250Y0084417D03*
X0241050Y0116617D03*
X0240650Y0117017D03*
X0226050Y0127617D03*
X0225850Y0127417D03*
X0226650Y0128417D03*
X0227050Y0128817D03*
X0227450Y0129217D03*
X0228050Y0129817D03*
X0241650Y0130017D03*
X0334250Y0155017D03*
X0334650Y0154817D03*
D60*
X0336250Y0154017D03*
X0260650Y0115817D03*
X0242250Y0114417D03*
X0242050Y0114817D03*
X0241450Y0116017D03*
X0241450Y0130417D03*
X0228850Y0130217D03*
X0228650Y0130217D03*
X0250850Y0084617D03*
X0287850Y0072217D03*
X0290450Y0081017D03*
X0314650Y0057617D03*
X0314850Y0057417D03*
X0308650Y0037417D03*
X0277050Y0038217D03*
D61*
X0314050Y0058117D03*
X0314250Y0057917D03*
X0314450Y0057917D03*
X0309850Y0062717D03*
X0309650Y0062917D03*
X0309250Y0063317D03*
X0336250Y0067917D03*
X0336450Y0067917D03*
X0336650Y0067917D03*
X0336850Y0068117D03*
X0337250Y0068317D03*
X0281250Y0074717D03*
X0251050Y0084517D03*
X0241650Y0115517D03*
X0230050Y0131117D03*
X0229650Y0130917D03*
X0229450Y0130717D03*
X0229250Y0130517D03*
X0229050Y0130517D03*
X0265250Y0152517D03*
X0336450Y0153917D03*
X0336650Y0153917D03*
X0336850Y0153917D03*
X0337050Y0153717D03*
X0337250Y0153517D03*
X0337450Y0153517D03*
D62*
X0337650Y0153417D03*
X0337850Y0153217D03*
X0338050Y0153217D03*
X0338250Y0153017D03*
X0338450Y0153017D03*
X0259650Y0132617D03*
X0243050Y0137817D03*
X0241250Y0130617D03*
X0230650Y0131617D03*
X0230250Y0131417D03*
X0229850Y0131017D03*
X0248850Y0153217D03*
X0249050Y0153217D03*
X0249250Y0153217D03*
X0249450Y0153217D03*
X0249650Y0153217D03*
X0249850Y0153217D03*
X0250050Y0153217D03*
X0250250Y0153217D03*
X0250450Y0153217D03*
X0250650Y0153217D03*
X0250850Y0153217D03*
X0251050Y0153217D03*
X0251250Y0153217D03*
X0251450Y0153217D03*
X0251650Y0153217D03*
X0251850Y0153217D03*
X0337050Y0068217D03*
X0337450Y0068417D03*
X0338050Y0068817D03*
X0313850Y0058417D03*
X0310450Y0062017D03*
X0310050Y0062417D03*
X0309450Y0063217D03*
X0309050Y0063617D03*
X0308450Y0037617D03*
X0277250Y0038217D03*
D63*
X0308250Y0037917D03*
X0313650Y0058517D03*
X0313450Y0058917D03*
X0313250Y0059117D03*
X0313050Y0059317D03*
X0312850Y0059517D03*
X0311050Y0061317D03*
X0310850Y0061517D03*
X0310250Y0062317D03*
X0308850Y0064117D03*
X0287650Y0072517D03*
X0290650Y0080917D03*
X0251250Y0084517D03*
X0260450Y0115917D03*
X0240050Y0118717D03*
X0239850Y0118917D03*
X0230450Y0131517D03*
X0230850Y0131917D03*
X0231050Y0132117D03*
X0231250Y0132517D03*
X0259450Y0132717D03*
X0296050Y0137517D03*
X0338650Y0152917D03*
X0252850Y0153117D03*
X0252650Y0153117D03*
X0252450Y0153117D03*
X0252250Y0153117D03*
X0252050Y0153117D03*
X0248650Y0153117D03*
X0248450Y0153117D03*
X0248250Y0153117D03*
X0337650Y0068517D03*
X0337850Y0068717D03*
X0338250Y0068917D03*
X0338850Y0069117D03*
D64*
X0338650Y0069017D03*
X0338450Y0069017D03*
X0339050Y0069417D03*
X0339250Y0069417D03*
X0339450Y0069617D03*
X0312250Y0060017D03*
X0312050Y0060417D03*
X0311850Y0060417D03*
X0311650Y0060817D03*
X0311450Y0061017D03*
X0311250Y0061217D03*
X0310650Y0061817D03*
X0287450Y0072617D03*
X0281050Y0074817D03*
X0290850Y0080817D03*
X0251650Y0084417D03*
X0251450Y0084417D03*
X0240450Y0118217D03*
X0240250Y0118417D03*
X0231450Y0132817D03*
X0243250Y0137817D03*
X0265050Y0152017D03*
X0248050Y0153017D03*
X0247850Y0153017D03*
X0247650Y0153017D03*
X0247450Y0153017D03*
X0247250Y0153017D03*
X0247050Y0153017D03*
X0294650Y0133817D03*
X0338850Y0152817D03*
X0339050Y0152617D03*
X0339250Y0152417D03*
X0308050Y0038217D03*
X0277650Y0038617D03*
D65*
X0277850Y0038817D03*
X0278450Y0039417D03*
X0307850Y0038417D03*
X0308450Y0064817D03*
X0287250Y0073017D03*
X0252050Y0084417D03*
X0340250Y0070017D03*
X0340450Y0070217D03*
X0340650Y0070217D03*
X0231650Y0133217D03*
X0264850Y0151817D03*
X0253650Y0153017D03*
X0253450Y0153017D03*
X0246650Y0152817D03*
X0295850Y0137417D03*
X0339650Y0152217D03*
X0340050Y0152017D03*
X0340650Y0151617D03*
D66*
X0355050Y0136017D03*
X0355050Y0085817D03*
X0354850Y0085617D03*
X0290850Y0063217D03*
X0285850Y0055817D03*
X0231850Y0139017D03*
D67*
X0232050Y0139217D03*
X0246250Y0135217D03*
X0246450Y0135217D03*
X0291250Y0063217D03*
D68*
X0327050Y0048017D03*
X0232050Y0126017D03*
X0261650Y0129817D03*
D69*
X0257450Y0120317D03*
X0232450Y0139117D03*
X0232250Y0139117D03*
X0354650Y0085117D03*
X0286050Y0055917D03*
D70*
X0286250Y0056017D03*
X0291450Y0063417D03*
X0306050Y0071217D03*
X0246050Y0135217D03*
X0232650Y0139217D03*
X0354650Y0136817D03*
D71*
X0356250Y0088817D03*
X0247450Y0133817D03*
X0232850Y0137017D03*
D72*
X0233050Y0136817D03*
X0356450Y0089217D03*
D73*
X0303450Y0073117D03*
X0303250Y0073117D03*
X0233250Y0136517D03*
D74*
X0233450Y0136317D03*
X0233650Y0136317D03*
X0247850Y0133517D03*
X0255650Y0123117D03*
D75*
X0233850Y0136117D03*
X0302850Y0073517D03*
D76*
X0234050Y0136017D03*
D77*
X0234250Y0135917D03*
X0356650Y0131717D03*
X0368250Y0110917D03*
X0356650Y0090117D03*
D78*
X0356850Y0090517D03*
X0234450Y0135717D03*
D79*
X0234650Y0135617D03*
X0248250Y0132817D03*
X0255250Y0123817D03*
X0356850Y0131217D03*
D80*
X0234850Y0135417D03*
D81*
X0235050Y0135317D03*
X0282450Y0055117D03*
D82*
X0357050Y0130217D03*
X0235450Y0135217D03*
X0235250Y0135217D03*
D83*
X0235650Y0141017D03*
X0241450Y0150817D03*
X0288450Y0057417D03*
D84*
X0287050Y0073117D03*
X0286450Y0073117D03*
X0279850Y0075717D03*
X0291050Y0080917D03*
X0252250Y0084517D03*
X0235650Y0125717D03*
X0259250Y0132917D03*
X0264650Y0151717D03*
X0254050Y0152917D03*
X0253850Y0152917D03*
X0340850Y0151517D03*
X0341850Y0071117D03*
X0341650Y0070917D03*
X0341250Y0070717D03*
X0341050Y0070517D03*
X0340850Y0070317D03*
X0278850Y0039917D03*
X0278650Y0039517D03*
X0278250Y0039317D03*
D85*
X0249250Y0131117D03*
X0235850Y0135317D03*
D86*
X0236050Y0141217D03*
D87*
X0236250Y0147917D03*
X0248850Y0131717D03*
X0254650Y0125117D03*
X0357050Y0091917D03*
D88*
X0345450Y0074017D03*
X0345050Y0073617D03*
X0344850Y0073417D03*
X0307650Y0066417D03*
X0280050Y0074617D03*
X0277850Y0075817D03*
X0277650Y0075817D03*
X0266050Y0080017D03*
X0263450Y0080417D03*
X0260250Y0082017D03*
X0260050Y0082217D03*
X0259050Y0082617D03*
X0258850Y0082617D03*
X0258650Y0082817D03*
X0258450Y0082817D03*
X0257850Y0083217D03*
X0257650Y0083217D03*
X0257450Y0083217D03*
X0257050Y0083417D03*
X0256850Y0083417D03*
X0236250Y0125417D03*
X0263650Y0150417D03*
X0256650Y0152217D03*
X0244250Y0152217D03*
X0244050Y0152217D03*
X0345050Y0148417D03*
X0345250Y0148217D03*
X0345450Y0148017D03*
X0307050Y0040217D03*
D89*
X0236450Y0140717D03*
D90*
X0236650Y0140217D03*
D91*
X0236850Y0140117D03*
D92*
X0237050Y0139717D03*
X0296050Y0074517D03*
D93*
X0364650Y0110817D03*
X0237450Y0139417D03*
X0237250Y0139617D03*
D94*
X0237650Y0139117D03*
D95*
X0237850Y0139017D03*
X0296250Y0074617D03*
X0364450Y0111017D03*
D96*
X0238250Y0138717D03*
X0238050Y0138717D03*
D97*
X0238450Y0138417D03*
D98*
X0238650Y0138317D03*
X0238850Y0138117D03*
X0239250Y0137917D03*
D99*
X0239050Y0138017D03*
X0239650Y0137617D03*
X0296450Y0074617D03*
D100*
X0296650Y0074717D03*
X0239450Y0137717D03*
D101*
X0239850Y0142917D03*
D102*
X0240050Y0142917D03*
X0366850Y0110917D03*
D103*
X0240250Y0143017D03*
D104*
X0240450Y0142917D03*
X0251850Y0129117D03*
D105*
X0251250Y0129517D03*
X0241050Y0142917D03*
X0240850Y0142917D03*
X0240650Y0142917D03*
D106*
X0241250Y0150717D03*
X0244850Y0135517D03*
X0353050Y0082517D03*
X0288050Y0057117D03*
D107*
X0288850Y0057817D03*
X0351850Y0080617D03*
X0351850Y0141217D03*
X0260050Y0149217D03*
X0241650Y0150817D03*
D108*
X0241850Y0150917D03*
X0260250Y0149117D03*
X0260450Y0149117D03*
X0351650Y0141517D03*
X0351650Y0080517D03*
X0289050Y0057917D03*
D109*
X0350250Y0078617D03*
X0350650Y0079017D03*
X0258850Y0118217D03*
X0261050Y0149017D03*
X0261250Y0149017D03*
X0261450Y0149017D03*
X0242050Y0151417D03*
X0350250Y0143217D03*
X0350450Y0143017D03*
X0350650Y0142817D03*
D110*
X0242250Y0151417D03*
X0260450Y0080417D03*
X0280050Y0059017D03*
X0281050Y0059817D03*
X0289850Y0058817D03*
X0349850Y0078217D03*
X0350050Y0078417D03*
D111*
X0306850Y0068117D03*
X0290050Y0059117D03*
X0281850Y0059917D03*
X0281650Y0059917D03*
X0281450Y0059917D03*
X0281250Y0059917D03*
X0280650Y0059317D03*
X0280250Y0059117D03*
X0279850Y0058917D03*
X0279650Y0058917D03*
X0279450Y0058717D03*
X0279250Y0058717D03*
X0279050Y0058717D03*
X0304650Y0044317D03*
X0305050Y0043717D03*
X0275850Y0111117D03*
X0275650Y0111117D03*
X0275450Y0111117D03*
X0349850Y0143717D03*
X0350050Y0143517D03*
X0261850Y0149117D03*
X0261650Y0149117D03*
X0242450Y0151517D03*
D112*
X0242650Y0151417D03*
X0258450Y0151017D03*
X0262050Y0149217D03*
X0244250Y0136817D03*
X0259250Y0117617D03*
X0274650Y0111217D03*
X0276450Y0111217D03*
X0276650Y0111217D03*
X0349050Y0144617D03*
X0302450Y0049017D03*
X0302850Y0047817D03*
X0303250Y0046817D03*
X0306050Y0042217D03*
X0306250Y0042017D03*
D113*
X0306450Y0041617D03*
X0306650Y0041417D03*
X0277850Y0058417D03*
X0348250Y0076417D03*
X0348850Y0077017D03*
X0369450Y0111017D03*
X0348850Y0145017D03*
X0348450Y0145217D03*
X0242850Y0151617D03*
D114*
X0243050Y0151817D03*
X0257650Y0151617D03*
X0257850Y0151617D03*
X0347650Y0146017D03*
X0348050Y0145617D03*
X0347650Y0075817D03*
X0307250Y0067217D03*
X0277650Y0058217D03*
X0277450Y0058217D03*
X0277250Y0058217D03*
D115*
X0277050Y0058317D03*
X0276050Y0076517D03*
X0275850Y0076717D03*
X0275650Y0076717D03*
X0347250Y0075517D03*
X0243850Y0137117D03*
X0262650Y0149717D03*
X0257450Y0151717D03*
X0243250Y0151917D03*
X0347450Y0146317D03*
D116*
X0347250Y0146417D03*
X0347050Y0146617D03*
X0346850Y0146817D03*
X0346650Y0147017D03*
X0346450Y0147217D03*
X0262850Y0149817D03*
X0243450Y0152017D03*
X0259650Y0117217D03*
X0271250Y0078217D03*
X0273050Y0077417D03*
X0273250Y0077417D03*
X0275250Y0076617D03*
X0275450Y0076617D03*
X0276250Y0076417D03*
X0347050Y0075217D03*
X0347450Y0075617D03*
D117*
X0342050Y0071217D03*
X0341450Y0070817D03*
X0308250Y0065017D03*
X0286850Y0073217D03*
X0286650Y0073217D03*
X0286250Y0073217D03*
X0279650Y0075817D03*
X0291250Y0080817D03*
X0252850Y0084417D03*
X0252650Y0084417D03*
X0252450Y0084417D03*
X0260250Y0116217D03*
X0243450Y0137817D03*
X0246050Y0152817D03*
X0246250Y0152817D03*
X0246450Y0152817D03*
X0254250Y0152817D03*
X0254450Y0152817D03*
X0254650Y0152817D03*
X0295650Y0137017D03*
X0341050Y0151417D03*
X0341250Y0151217D03*
X0341450Y0151017D03*
X0279050Y0040217D03*
X0307650Y0038817D03*
D118*
X0306850Y0040717D03*
X0285650Y0074317D03*
X0285450Y0074317D03*
X0276650Y0076117D03*
X0275050Y0076717D03*
X0274850Y0076717D03*
X0274450Y0076917D03*
X0273850Y0077117D03*
X0273650Y0077317D03*
X0273450Y0077317D03*
X0272850Y0077517D03*
X0272650Y0077717D03*
X0272450Y0077717D03*
X0272250Y0077917D03*
X0272050Y0077917D03*
X0271850Y0077917D03*
X0271650Y0077917D03*
X0271450Y0078117D03*
X0271050Y0078317D03*
X0270850Y0078317D03*
X0270650Y0078317D03*
X0270450Y0078517D03*
X0270250Y0078517D03*
X0270050Y0078717D03*
X0269850Y0078717D03*
X0269650Y0078717D03*
X0269450Y0078717D03*
X0268850Y0079117D03*
X0268650Y0079317D03*
X0268450Y0079317D03*
X0268250Y0079317D03*
X0268050Y0079517D03*
X0267850Y0079517D03*
X0267650Y0079717D03*
X0267450Y0079717D03*
X0274450Y0111317D03*
X0346250Y0147317D03*
X0263050Y0149917D03*
X0257250Y0151917D03*
X0243650Y0152117D03*
X0346450Y0074717D03*
X0346650Y0074917D03*
X0346850Y0075117D03*
D119*
X0344450Y0073117D03*
X0344050Y0072717D03*
X0343850Y0072517D03*
X0307850Y0065917D03*
X0280250Y0074717D03*
X0278250Y0075717D03*
X0291850Y0080717D03*
X0255050Y0084117D03*
X0254850Y0084117D03*
X0254650Y0084117D03*
X0254450Y0084117D03*
X0243650Y0137517D03*
X0263850Y0150717D03*
X0264050Y0150917D03*
X0255850Y0152517D03*
X0255650Y0152517D03*
X0244650Y0152317D03*
X0295250Y0136317D03*
X0344250Y0149117D03*
X0344450Y0148917D03*
D120*
X0345650Y0147917D03*
X0345850Y0147717D03*
X0346050Y0147517D03*
X0256850Y0152117D03*
X0243850Y0152117D03*
X0266250Y0079917D03*
X0266450Y0079917D03*
X0266650Y0079917D03*
X0266850Y0079917D03*
X0277050Y0075917D03*
X0277250Y0075917D03*
X0277450Y0075917D03*
X0345650Y0074117D03*
X0345850Y0074317D03*
D121*
X0347850Y0075917D03*
X0348050Y0076317D03*
X0276850Y0111117D03*
X0259450Y0117517D03*
X0244050Y0136917D03*
X0262450Y0149517D03*
X0347850Y0145917D03*
X0348250Y0145517D03*
D122*
X0287250Y0117817D03*
X0244250Y0125417D03*
D123*
X0259850Y0116717D03*
X0255650Y0083917D03*
X0255850Y0083717D03*
X0256050Y0083717D03*
X0256250Y0083717D03*
X0256450Y0083717D03*
X0256650Y0083517D03*
X0257250Y0083317D03*
X0258050Y0082917D03*
X0258250Y0082917D03*
X0259250Y0082517D03*
X0259450Y0082517D03*
X0259650Y0082317D03*
X0259850Y0082317D03*
X0263650Y0080517D03*
X0264850Y0080317D03*
X0265250Y0080117D03*
X0265450Y0080117D03*
X0265650Y0080117D03*
X0265850Y0080117D03*
X0280450Y0043317D03*
X0279650Y0042117D03*
X0345250Y0073717D03*
X0344850Y0148517D03*
X0256450Y0152317D03*
X0256250Y0152317D03*
X0244450Y0152317D03*
D124*
X0244450Y0136517D03*
X0259050Y0118117D03*
X0260650Y0080317D03*
X0289650Y0058717D03*
X0350450Y0078917D03*
D125*
X0351050Y0079517D03*
X0351250Y0079917D03*
X0289250Y0058117D03*
X0244650Y0136317D03*
X0259450Y0149717D03*
X0351250Y0141917D03*
D126*
X0344050Y0149217D03*
X0343850Y0149417D03*
X0343650Y0149617D03*
X0343450Y0149817D03*
X0260050Y0116617D03*
X0254250Y0084217D03*
X0254050Y0084217D03*
X0278450Y0075817D03*
X0278650Y0075817D03*
X0291650Y0080817D03*
X0343450Y0072217D03*
X0343650Y0072417D03*
X0281250Y0044617D03*
X0281050Y0044417D03*
X0280850Y0044017D03*
X0280650Y0043817D03*
X0279450Y0041417D03*
X0255450Y0152617D03*
X0245050Y0152417D03*
X0244850Y0152417D03*
D127*
X0245050Y0135417D03*
X0353050Y0139417D03*
X0353250Y0139217D03*
X0353250Y0082817D03*
X0287850Y0057017D03*
D128*
X0281450Y0044817D03*
X0280650Y0074617D03*
X0279250Y0075617D03*
X0279050Y0075617D03*
X0253250Y0084417D03*
X0253050Y0084417D03*
X0342650Y0071617D03*
X0343050Y0072017D03*
X0259050Y0133217D03*
X0264250Y0151217D03*
X0264450Y0151217D03*
X0255050Y0152617D03*
X0245450Y0152617D03*
X0245250Y0152617D03*
X0295050Y0135817D03*
X0295450Y0136817D03*
X0342450Y0150417D03*
D129*
X0353850Y0138417D03*
X0258250Y0120017D03*
X0245250Y0135417D03*
X0306250Y0070617D03*
D130*
X0287250Y0056517D03*
X0287050Y0056517D03*
X0258650Y0120117D03*
X0258450Y0120117D03*
X0258050Y0120117D03*
X0245450Y0135317D03*
D131*
X0245650Y0152717D03*
X0245850Y0152717D03*
X0254850Y0152717D03*
X0341650Y0150917D03*
X0341850Y0150917D03*
X0342050Y0150717D03*
X0342250Y0150517D03*
X0279450Y0075717D03*
X0280850Y0074517D03*
X0342250Y0071317D03*
X0342450Y0071517D03*
X0307450Y0039117D03*
D132*
X0286650Y0056217D03*
X0257850Y0120017D03*
X0245850Y0135217D03*
X0245650Y0135217D03*
D133*
X0246650Y0135017D03*
X0257050Y0120817D03*
X0290650Y0063217D03*
X0285650Y0055817D03*
D134*
X0308650Y0064317D03*
X0312450Y0059917D03*
X0312650Y0059717D03*
X0339650Y0069717D03*
X0339850Y0069717D03*
X0340050Y0069917D03*
X0278050Y0038917D03*
X0277450Y0038517D03*
X0251850Y0084517D03*
X0294850Y0134317D03*
X0253250Y0153117D03*
X0253050Y0153117D03*
X0246850Y0152917D03*
X0339450Y0152317D03*
X0339850Y0152117D03*
X0340250Y0151917D03*
X0340450Y0151717D03*
D135*
X0355250Y0135417D03*
X0355250Y0086417D03*
X0305450Y0072017D03*
X0290450Y0063017D03*
X0246850Y0134817D03*
D136*
X0296850Y0137917D03*
X0246850Y0082917D03*
X0257250Y0059517D03*
X0314050Y0065717D03*
D137*
X0305050Y0072517D03*
X0368650Y0110917D03*
X0247050Y0134517D03*
D138*
X0275650Y0157017D03*
X0291650Y0152417D03*
X0292250Y0152617D03*
X0292450Y0152817D03*
X0292850Y0153017D03*
X0293050Y0153217D03*
X0293450Y0153417D03*
X0294050Y0153617D03*
X0294250Y0153817D03*
X0247050Y0083017D03*
X0283050Y0074817D03*
X0283850Y0078617D03*
X0287850Y0081617D03*
X0316050Y0064417D03*
X0276450Y0061817D03*
X0259450Y0059417D03*
X0259250Y0059417D03*
D139*
X0247250Y0134017D03*
D140*
X0247650Y0133717D03*
X0356450Y0132717D03*
D141*
X0255450Y0123617D03*
X0248050Y0133017D03*
D142*
X0248450Y0132417D03*
X0283250Y0056417D03*
X0283450Y0056417D03*
X0283050Y0055817D03*
D143*
X0277250Y0067317D03*
X0277050Y0067317D03*
X0275050Y0067317D03*
X0274850Y0067317D03*
X0274650Y0067317D03*
X0274450Y0067317D03*
X0274250Y0067317D03*
X0260050Y0073317D03*
X0248850Y0078517D03*
X0248450Y0078917D03*
X0314450Y0065517D03*
X0287650Y0118317D03*
X0274650Y0135517D03*
X0254050Y0145317D03*
X0252850Y0145917D03*
X0252450Y0146117D03*
D144*
X0248650Y0132117D03*
X0283650Y0056917D03*
X0282250Y0054717D03*
X0282050Y0054517D03*
D145*
X0367650Y0110917D03*
X0254250Y0125517D03*
X0249050Y0131317D03*
D146*
X0249450Y0130917D03*
D147*
X0249650Y0130717D03*
X0253850Y0126517D03*
X0357250Y0128517D03*
D148*
X0249850Y0130417D03*
D149*
X0250050Y0130417D03*
X0252050Y0128017D03*
X0252250Y0127817D03*
X0252450Y0127617D03*
X0252850Y0127217D03*
X0367250Y0111017D03*
D150*
X0250450Y0130017D03*
X0250250Y0130017D03*
D151*
X0250650Y0129817D03*
X0292650Y0070617D03*
D152*
X0250850Y0129717D03*
D153*
X0251050Y0129617D03*
D154*
X0251450Y0129417D03*
X0251650Y0129217D03*
D155*
X0286850Y0103417D03*
X0251450Y0076617D03*
X0252250Y0076217D03*
X0254450Y0075417D03*
D156*
X0253250Y0126917D03*
X0253050Y0126917D03*
X0252650Y0127517D03*
D157*
X0253450Y0126717D03*
X0357250Y0093517D03*
D158*
X0343250Y0072117D03*
X0342850Y0071717D03*
X0308050Y0065717D03*
X0286050Y0073517D03*
X0280450Y0074717D03*
X0278850Y0075717D03*
X0291450Y0080917D03*
X0253850Y0084317D03*
X0253650Y0084317D03*
X0253450Y0084317D03*
X0281850Y0045317D03*
X0281650Y0045117D03*
X0279250Y0040917D03*
X0307250Y0039517D03*
X0343050Y0149917D03*
X0343250Y0149917D03*
X0342850Y0150117D03*
X0342650Y0150317D03*
X0255250Y0152717D03*
D159*
X0253650Y0126617D03*
X0367450Y0111017D03*
D160*
X0254050Y0126017D03*
D161*
X0254450Y0125317D03*
D162*
X0254850Y0124617D03*
X0282850Y0055617D03*
X0282650Y0055217D03*
D163*
X0255050Y0124317D03*
D164*
X0256050Y0152417D03*
X0344650Y0148817D03*
X0255450Y0084017D03*
X0255250Y0084017D03*
X0263850Y0080617D03*
X0264050Y0080617D03*
X0264250Y0080617D03*
X0264450Y0080617D03*
X0264650Y0080417D03*
X0265050Y0080217D03*
X0278050Y0075817D03*
X0292050Y0080817D03*
X0344250Y0072817D03*
X0344650Y0073217D03*
X0280250Y0043017D03*
X0280050Y0042817D03*
X0279850Y0042417D03*
D165*
X0255850Y0122817D03*
D166*
X0256050Y0122317D03*
D167*
X0256250Y0122117D03*
X0356250Y0133317D03*
X0368450Y0110917D03*
D168*
X0356050Y0088117D03*
X0304250Y0072917D03*
X0304050Y0072917D03*
X0256450Y0121917D03*
D169*
X0256650Y0121617D03*
X0304850Y0072617D03*
D170*
X0305250Y0072317D03*
X0256850Y0121317D03*
D171*
X0263250Y0150017D03*
X0263450Y0150217D03*
X0257050Y0152017D03*
X0369650Y0111017D03*
X0346250Y0074617D03*
X0346050Y0074417D03*
X0307450Y0066817D03*
X0285850Y0074217D03*
X0276850Y0076017D03*
X0276450Y0076217D03*
X0274650Y0076817D03*
X0274250Y0077017D03*
X0274050Y0077017D03*
X0269250Y0078817D03*
X0269050Y0079017D03*
X0267250Y0079817D03*
X0267050Y0079817D03*
D172*
X0305850Y0071717D03*
X0257250Y0120717D03*
D173*
X0257650Y0120117D03*
X0354450Y0137117D03*
X0354450Y0084717D03*
X0291650Y0063317D03*
X0286450Y0056117D03*
D174*
X0278050Y0058517D03*
X0302650Y0048517D03*
X0303050Y0047517D03*
X0307050Y0067717D03*
X0348450Y0076717D03*
X0348650Y0076917D03*
X0348650Y0145117D03*
X0262250Y0149317D03*
X0258250Y0151317D03*
X0258050Y0151317D03*
D175*
X0280450Y0143217D03*
X0282250Y0145017D03*
X0283250Y0146217D03*
X0283450Y0146217D03*
X0283650Y0146417D03*
X0283850Y0146617D03*
X0284050Y0146817D03*
X0284250Y0147017D03*
X0284650Y0147417D03*
X0288450Y0119417D03*
X0287850Y0102017D03*
X0315250Y0065017D03*
X0258050Y0059417D03*
D176*
X0278250Y0058517D03*
X0278450Y0058517D03*
X0278650Y0058517D03*
X0302250Y0049317D03*
X0303450Y0046517D03*
X0303650Y0045917D03*
X0304050Y0045117D03*
X0304250Y0044917D03*
X0305850Y0042717D03*
X0349050Y0077317D03*
X0349250Y0077517D03*
X0276250Y0111117D03*
X0275050Y0111117D03*
X0274850Y0111117D03*
X0349250Y0144317D03*
X0349450Y0144117D03*
X0258650Y0150917D03*
D177*
X0258850Y0150317D03*
X0260850Y0080117D03*
X0261650Y0079717D03*
X0262450Y0079317D03*
X0262650Y0079317D03*
X0289450Y0058317D03*
X0350850Y0079317D03*
D178*
X0263250Y0079017D03*
X0263050Y0079217D03*
X0262850Y0079217D03*
X0262250Y0079417D03*
X0262050Y0079417D03*
X0261850Y0079617D03*
X0261450Y0079817D03*
X0261250Y0079817D03*
X0261050Y0079817D03*
X0351050Y0142417D03*
X0350850Y0142617D03*
X0260850Y0149017D03*
X0259050Y0150217D03*
D179*
X0259250Y0149817D03*
X0260650Y0149017D03*
X0351450Y0141817D03*
X0351450Y0080017D03*
X0306650Y0069217D03*
D180*
X0288650Y0057717D03*
X0352250Y0140917D03*
X0352050Y0141117D03*
X0259850Y0149317D03*
X0259650Y0149317D03*
D181*
X0275250Y0111017D03*
X0276050Y0111017D03*
X0349450Y0077817D03*
X0349650Y0077817D03*
X0302050Y0049817D03*
X0303850Y0045617D03*
X0304450Y0044817D03*
X0304850Y0044017D03*
X0305250Y0043417D03*
X0305450Y0043017D03*
X0305650Y0043017D03*
X0290250Y0059217D03*
X0280850Y0059417D03*
X0280450Y0059217D03*
X0278850Y0058617D03*
X0349650Y0144017D03*
D182*
X0367850Y0111017D03*
X0283850Y0057817D03*
D183*
X0284050Y0061717D03*
D184*
X0284250Y0062017D03*
D185*
X0284450Y0062117D03*
D186*
X0284650Y0062217D03*
D187*
X0284850Y0062317D03*
X0285250Y0062717D03*
D188*
X0285050Y0062617D03*
D189*
X0285450Y0055717D03*
X0305650Y0071917D03*
D190*
X0292050Y0063517D03*
X0291850Y0063517D03*
X0286850Y0056317D03*
X0354250Y0084317D03*
D191*
X0287650Y0056817D03*
X0287450Y0056817D03*
X0353450Y0138817D03*
D192*
X0352850Y0139917D03*
X0352650Y0140117D03*
X0369250Y0111117D03*
X0352850Y0082117D03*
X0352650Y0081917D03*
X0288250Y0057317D03*
D193*
X0291050Y0063317D03*
X0368850Y0111117D03*
X0354850Y0136317D03*
D194*
X0367050Y0110917D03*
X0292450Y0070517D03*
X0292250Y0070317D03*
D195*
X0292850Y0074617D03*
D196*
X0293050Y0074417D03*
X0295050Y0073617D03*
D197*
X0293250Y0074217D03*
X0365650Y0111017D03*
D198*
X0293450Y0074117D03*
D199*
X0293650Y0073717D03*
D200*
X0293850Y0073517D03*
X0294050Y0073317D03*
X0366050Y0110917D03*
D201*
X0294650Y0072917D03*
X0294450Y0072917D03*
X0294250Y0073117D03*
D202*
X0294850Y0073017D03*
D203*
X0295250Y0073717D03*
D204*
X0295450Y0074217D03*
D205*
X0295650Y0074417D03*
X0365050Y0111017D03*
D206*
X0295850Y0074517D03*
D207*
X0296850Y0074717D03*
D208*
X0297050Y0074517D03*
D209*
X0297250Y0074517D03*
D210*
X0297450Y0074417D03*
D211*
X0297650Y0074317D03*
D212*
X0297850Y0074317D03*
D213*
X0298050Y0074217D03*
D214*
X0298250Y0074317D03*
X0363250Y0110917D03*
D215*
X0298450Y0074217D03*
D216*
X0298650Y0074117D03*
D217*
X0298850Y0074017D03*
D218*
X0299050Y0073817D03*
X0362650Y0111017D03*
X0362850Y0111017D03*
D219*
X0299250Y0073717D03*
D220*
X0299450Y0073617D03*
D221*
X0299650Y0073417D03*
X0362250Y0111017D03*
D222*
X0299850Y0073217D03*
D223*
X0300050Y0072917D03*
X0300250Y0072917D03*
X0361850Y0110917D03*
D224*
X0300450Y0072517D03*
D225*
X0300650Y0072417D03*
D226*
X0300850Y0072317D03*
D227*
X0301050Y0072117D03*
X0361450Y0110917D03*
D228*
X0301250Y0072017D03*
D229*
X0301450Y0071817D03*
D230*
X0301650Y0071717D03*
D231*
X0301850Y0071417D03*
X0360850Y0111017D03*
D232*
X0302050Y0079917D03*
D233*
X0302250Y0080017D03*
D234*
X0302450Y0079917D03*
D235*
X0302650Y0080017D03*
X0365850Y0111017D03*
D236*
X0303050Y0073417D03*
D237*
X0303650Y0073017D03*
X0303850Y0073017D03*
D238*
X0304450Y0072817D03*
X0356050Y0133817D03*
D239*
X0355850Y0134317D03*
X0355850Y0087717D03*
X0304650Y0072717D03*
D240*
X0306450Y0069617D03*
X0352050Y0080817D03*
X0352250Y0081217D03*
X0352450Y0140617D03*
D241*
X0352450Y0081317D03*
D242*
X0353450Y0083117D03*
X0353650Y0083317D03*
X0353850Y0083517D03*
X0353650Y0138717D03*
D243*
X0354050Y0137817D03*
X0354250Y0137617D03*
X0369050Y0111017D03*
X0354050Y0084017D03*
D244*
X0355450Y0135117D03*
D245*
X0355650Y0134817D03*
X0355650Y0087017D03*
X0355450Y0086817D03*
D246*
X0357450Y0110917D03*
D247*
X0357650Y0111017D03*
D248*
X0357850Y0111017D03*
D249*
X0358050Y0111017D03*
D250*
X0358250Y0110917D03*
D251*
X0358450Y0110917D03*
X0358650Y0110917D03*
D252*
X0358850Y0111017D03*
D253*
X0359050Y0110917D03*
D254*
X0359250Y0110917D03*
D255*
X0359450Y0111017D03*
D256*
X0359650Y0110917D03*
D257*
X0359850Y0111017D03*
D258*
X0360050Y0110917D03*
D259*
X0360250Y0111017D03*
D260*
X0360450Y0110917D03*
D261*
X0360650Y0110917D03*
D262*
X0361050Y0111017D03*
D263*
X0361250Y0110917D03*
D264*
X0361650Y0110917D03*
D265*
X0362050Y0110917D03*
D266*
X0362450Y0110917D03*
D267*
X0363050Y0111017D03*
D268*
X0363450Y0110917D03*
D269*
X0363650Y0110917D03*
D270*
X0363850Y0111017D03*
D271*
X0364050Y0111017D03*
D272*
X0364250Y0111017D03*
D273*
X0364850Y0111017D03*
D274*
X0365250Y0110917D03*
D275*
X0365450Y0110917D03*
D276*
X0366250Y0110917D03*
D277*
X0366450Y0110817D03*
D278*
X0366650Y0110917D03*
D279*
X0368050Y0110917D03*
D280*
X0133118Y0147405D02*
X0132751Y0147038D01*
X0132384Y0147038D01*
X0132017Y0147405D01*
X0132017Y0148139D01*
X0131650Y0148506D01*
X0131283Y0148506D01*
X0130916Y0148139D01*
X0130916Y0147405D01*
X0131283Y0147038D01*
X0133118Y0147405D02*
X0133118Y0148139D01*
X0132751Y0148506D01*
X0132384Y0149248D02*
X0133118Y0149982D01*
X0130916Y0149982D01*
X0130916Y0149248D02*
X0130916Y0150716D01*
D281*
X0025560Y0149969D02*
X0025560Y0153119D01*
X0007843Y0144851D02*
X0004300Y0144851D01*
X0004300Y0174772D01*
X0007843Y0174772D01*
X0025560Y0169654D02*
X0025560Y0166505D01*
X0106807Y0084582D02*
X0108308Y0086083D01*
X0109059Y0086083D01*
X0106807Y0084582D02*
X0104555Y0084582D01*
X0106807Y0084582D02*
X0108308Y0083081D01*
X0109059Y0083081D01*
X0108308Y0081479D02*
X0106807Y0081479D01*
X0106056Y0080729D01*
X0106056Y0078477D01*
X0106056Y0079978D02*
X0104555Y0081479D01*
X0104555Y0078477D02*
X0109059Y0078477D01*
X0109059Y0080729D01*
X0108308Y0081479D01*
X0109059Y0076875D02*
X0109059Y0073873D01*
X0104555Y0073873D01*
X0104555Y0076875D01*
X0106807Y0075374D02*
X0106807Y0073873D01*
X0109059Y0072271D02*
X0109059Y0069269D01*
X0109059Y0070770D02*
X0104555Y0070770D01*
X0104555Y0066166D02*
X0109059Y0066166D01*
X0109059Y0064665D02*
X0109059Y0067668D01*
X0107557Y0063064D02*
X0104555Y0063064D01*
X0106807Y0063064D02*
X0106807Y0060061D01*
X0107557Y0060061D02*
X0109059Y0061562D01*
X0107557Y0063064D01*
X0107557Y0060061D02*
X0104555Y0060061D01*
X0105305Y0058460D02*
X0104555Y0057709D01*
X0104555Y0055457D01*
X0109059Y0055457D01*
X0109059Y0057709D01*
X0108308Y0058460D01*
X0107557Y0058460D01*
X0106807Y0057709D01*
X0106807Y0055457D01*
X0106807Y0057709D02*
X0106056Y0058460D01*
X0105305Y0058460D01*
M02*
