%
M48
M72
T01C0.02362
T02C0.02400
T03C0.02756
T04C0.03150
T05C0.03200
T06C0.03543
T07C0.04000
T08C0.09843
T09C0.15748
%
T01
X89300Y49300
X96800Y49300
X101800Y49300
X89300Y59300
X72804Y68080
X44457Y68080
X51800Y84300
X65717Y89339
X86977Y84615
X128316Y88946
X176800Y76800
X194300Y109300
X128316Y136190
X140127Y167686
X155875Y163749
X176741Y188552
X110599Y189339
X91406Y179300
X99300Y173394
X80422Y190146
X35796Y171623
X13749Y173985
X13749Y145639
X29300Y134300
X53906Y115324
X76800Y109300
X79891Y105875
X79891Y120048
X81800Y131800
X76800Y137194
X99300Y131800
X106800Y131800
X122410Y124379
X344280Y178060
X351229Y37765
T02
X324300Y49300
X314300Y49300
X304300Y49300
X294300Y49300
X284300Y49300
X274300Y49300
X246800Y49300
X239300Y69300
X221800Y69300
X221800Y84300
X221800Y99300
X239300Y99300
X259300Y99300
X279300Y99300
X299300Y99300
X319300Y99300
X339300Y99300
X359300Y99300
X359300Y129300
X339300Y129300
X319300Y129300
X299300Y129300
X279300Y129300
X259300Y129300
X239300Y129300
X221800Y129300
X216800Y121800
X221800Y114300
X191800Y119300
X186800Y124300
X181800Y129300
X176800Y134300
X171800Y139300
X166800Y144300
X161800Y149300
X181800Y171800
X204300Y174300
X219300Y184300
X211800Y186800
X234300Y179300
X209300Y161800
X204300Y156800
X216800Y154300
X221800Y146800
X214300Y141800
X239300Y159300
X259300Y159300
X279300Y159300
X299300Y159300
X319300Y159300
X339300Y159300
X359300Y159300
X186800Y79300
X191800Y56800
X181800Y51800
X259300Y69300
X279300Y69300
X299300Y69300
X319300Y69300
X339300Y69300
X359300Y69300
X169300Y189300
X86800Y94300
X79300Y89300
X59300Y69300
X51800Y62076
T03
X24772Y146820
X21229Y152135
X21229Y167489
X24772Y172804
T04
X161800Y79300
X71800Y79300
X71800Y179300
X149300Y171800
T05
X29300Y29800
X29300Y48800
X56800Y104800
X56800Y123800
T06
X128316Y157843
X128316Y146032
T07
X94300Y19300
X104300Y19300
X114300Y19300
X124300Y19300
X134300Y19300
X116505Y72135
X116505Y82135
X229300Y189300
X239300Y189300
X249300Y189300
X259300Y189300
X384615Y161308
X384615Y151308
X384615Y141308
X384615Y131308
X384615Y121308
X384615Y85717
X384615Y75717
X384615Y65717
X384615Y55717
X384615Y45717
T08
X380284Y22017
X380284Y183434
T09
X384300Y102725
M30
