G75*
%MOIN*%
%OFA0B0*%
%FSLAX24Y24*%
%IPPOS*%
%LPD*%
%AMOC8*
5,1,8,0,0,1.08239X$1,22.5*
%
%ADD10C,0.0000*%
%ADD11C,0.0520*%
%ADD12OC8,0.0660*%
%ADD13C,0.0660*%
%ADD14C,0.0650*%
%ADD15R,0.0650X0.0650*%
%ADD16C,0.0740*%
%ADD17C,0.1266*%
%ADD18C,0.0600*%
%ADD19OC8,0.0850*%
%ADD20C,0.0120*%
%ADD21C,0.0160*%
%ADD22C,0.0356*%
D10*
X005967Y000887D02*
X005967Y013875D01*
X008416Y016680D02*
X008418Y016727D01*
X008424Y016773D01*
X008434Y016819D01*
X008447Y016864D01*
X008465Y016907D01*
X008486Y016949D01*
X008510Y016989D01*
X008538Y017026D01*
X008569Y017061D01*
X008603Y017094D01*
X008639Y017123D01*
X008678Y017149D01*
X008719Y017172D01*
X008762Y017191D01*
X008806Y017207D01*
X008851Y017219D01*
X008897Y017227D01*
X008944Y017231D01*
X008990Y017231D01*
X009037Y017227D01*
X009083Y017219D01*
X009128Y017207D01*
X009172Y017191D01*
X009215Y017172D01*
X009256Y017149D01*
X009295Y017123D01*
X009331Y017094D01*
X009365Y017061D01*
X009396Y017026D01*
X009424Y016989D01*
X009448Y016949D01*
X009469Y016907D01*
X009487Y016864D01*
X009500Y016819D01*
X009510Y016773D01*
X009516Y016727D01*
X009518Y016680D01*
X009516Y016633D01*
X009510Y016587D01*
X009500Y016541D01*
X009487Y016496D01*
X009469Y016453D01*
X009448Y016411D01*
X009424Y016371D01*
X009396Y016334D01*
X009365Y016299D01*
X009331Y016266D01*
X009295Y016237D01*
X009256Y016211D01*
X009215Y016188D01*
X009172Y016169D01*
X009128Y016153D01*
X009083Y016141D01*
X009037Y016133D01*
X008990Y016129D01*
X008944Y016129D01*
X008897Y016133D01*
X008851Y016141D01*
X008806Y016153D01*
X008762Y016169D01*
X008719Y016188D01*
X008678Y016211D01*
X008639Y016237D01*
X008603Y016266D01*
X008569Y016299D01*
X008538Y016334D01*
X008510Y016371D01*
X008486Y016411D01*
X008465Y016453D01*
X008447Y016496D01*
X008434Y016541D01*
X008424Y016587D01*
X008418Y016633D01*
X008416Y016680D01*
X005967Y013875D02*
X005969Y014027D01*
X005975Y014178D01*
X005984Y014330D01*
X005998Y014481D01*
X006015Y014632D01*
X006036Y014782D01*
X006061Y014932D01*
X006090Y015081D01*
X006122Y015229D01*
X006158Y015376D01*
X006198Y015523D01*
X006242Y015668D01*
X006289Y015812D01*
X006340Y015955D01*
X006394Y016097D01*
X006452Y016237D01*
X006514Y016376D01*
X006579Y016513D01*
X006648Y016648D01*
X006720Y016782D01*
X006795Y016914D01*
X006874Y017043D01*
X006956Y017171D01*
X007041Y017297D01*
X007129Y017420D01*
X007220Y017542D01*
X007315Y017660D01*
X007412Y017777D01*
X007512Y017891D01*
X007615Y018002D01*
X007721Y018111D01*
X007830Y018217D01*
X007941Y018320D01*
X008055Y018420D01*
X008172Y018517D01*
X008290Y018612D01*
X008412Y018703D01*
X008535Y018791D01*
X008661Y018876D01*
X008789Y018958D01*
X008918Y019037D01*
X009050Y019112D01*
X009184Y019184D01*
X009319Y019253D01*
X009456Y019318D01*
X009595Y019380D01*
X009735Y019438D01*
X009877Y019492D01*
X010020Y019543D01*
X010164Y019590D01*
X010309Y019634D01*
X010456Y019674D01*
X010603Y019710D01*
X010751Y019742D01*
X010900Y019771D01*
X011050Y019796D01*
X011200Y019817D01*
X011351Y019834D01*
X011502Y019848D01*
X011654Y019857D01*
X011805Y019863D01*
X011957Y019865D01*
X021855Y019865D01*
X021977Y019863D01*
X022098Y019857D01*
X022220Y019847D01*
X022341Y019834D01*
X022461Y019816D01*
X022581Y019795D01*
X022700Y019770D01*
X022818Y019741D01*
X022935Y019708D01*
X023051Y019672D01*
X023166Y019631D01*
X023280Y019588D01*
X023392Y019540D01*
X023502Y019489D01*
X023611Y019434D01*
X023718Y019376D01*
X023823Y019315D01*
X023926Y019250D01*
X024027Y019182D01*
X024126Y019111D01*
X024222Y019037D01*
X024316Y018959D01*
X024408Y018879D01*
X024497Y018796D01*
X024583Y018710D01*
X024666Y018621D01*
X024746Y018529D01*
X024824Y018435D01*
X024898Y018339D01*
X024969Y018240D01*
X025037Y018139D01*
X025102Y018036D01*
X025163Y017931D01*
X025221Y017824D01*
X025276Y017715D01*
X025327Y017605D01*
X025375Y017493D01*
X025418Y017379D01*
X025459Y017264D01*
X025495Y017148D01*
X025528Y017031D01*
X025557Y016913D01*
X025582Y016794D01*
X025603Y016674D01*
X025621Y016554D01*
X025634Y016433D01*
X025644Y016311D01*
X025650Y016190D01*
X025652Y016068D01*
X025652Y003142D01*
X022916Y002680D02*
X022918Y002727D01*
X022924Y002773D01*
X022934Y002819D01*
X022947Y002864D01*
X022965Y002907D01*
X022986Y002949D01*
X023010Y002989D01*
X023038Y003026D01*
X023069Y003061D01*
X023103Y003094D01*
X023139Y003123D01*
X023178Y003149D01*
X023219Y003172D01*
X023262Y003191D01*
X023306Y003207D01*
X023351Y003219D01*
X023397Y003227D01*
X023444Y003231D01*
X023490Y003231D01*
X023537Y003227D01*
X023583Y003219D01*
X023628Y003207D01*
X023672Y003191D01*
X023715Y003172D01*
X023756Y003149D01*
X023795Y003123D01*
X023831Y003094D01*
X023865Y003061D01*
X023896Y003026D01*
X023924Y002989D01*
X023948Y002949D01*
X023969Y002907D01*
X023987Y002864D01*
X024000Y002819D01*
X024010Y002773D01*
X024016Y002727D01*
X024018Y002680D01*
X024016Y002633D01*
X024010Y002587D01*
X024000Y002541D01*
X023987Y002496D01*
X023969Y002453D01*
X023948Y002411D01*
X023924Y002371D01*
X023896Y002334D01*
X023865Y002299D01*
X023831Y002266D01*
X023795Y002237D01*
X023756Y002211D01*
X023715Y002188D01*
X023672Y002169D01*
X023628Y002153D01*
X023583Y002141D01*
X023537Y002133D01*
X023490Y002129D01*
X023444Y002129D01*
X023397Y002133D01*
X023351Y002141D01*
X023306Y002153D01*
X023262Y002169D01*
X023219Y002188D01*
X023178Y002211D01*
X023139Y002237D01*
X023103Y002266D01*
X023069Y002299D01*
X023038Y002334D01*
X023010Y002371D01*
X022986Y002411D01*
X022965Y002453D01*
X022947Y002496D01*
X022934Y002541D01*
X022924Y002587D01*
X022918Y002633D01*
X022916Y002680D01*
X022690Y000180D02*
X022798Y000182D01*
X022906Y000188D01*
X023014Y000198D01*
X023121Y000212D01*
X023228Y000229D01*
X023334Y000251D01*
X023439Y000276D01*
X023543Y000306D01*
X023646Y000339D01*
X023748Y000375D01*
X023848Y000416D01*
X023947Y000460D01*
X024044Y000508D01*
X024140Y000559D01*
X024233Y000614D01*
X024324Y000672D01*
X024413Y000733D01*
X024500Y000798D01*
X024585Y000865D01*
X024667Y000936D01*
X024746Y001010D01*
X024822Y001086D01*
X024896Y001165D01*
X024967Y001247D01*
X025034Y001332D01*
X025099Y001419D01*
X025160Y001508D01*
X025218Y001599D01*
X025273Y001692D01*
X025324Y001788D01*
X025372Y001885D01*
X025416Y001984D01*
X025457Y002084D01*
X025493Y002186D01*
X025526Y002289D01*
X025556Y002393D01*
X025581Y002498D01*
X025603Y002604D01*
X025620Y002711D01*
X025634Y002818D01*
X025644Y002926D01*
X025650Y003034D01*
X025652Y003142D01*
X022690Y000180D02*
X006674Y000180D01*
X006624Y000182D01*
X006573Y000187D01*
X006524Y000196D01*
X006475Y000209D01*
X006427Y000225D01*
X006380Y000244D01*
X006335Y000266D01*
X006292Y000292D01*
X006250Y000321D01*
X006211Y000353D01*
X006174Y000387D01*
X006140Y000424D01*
X006108Y000463D01*
X006079Y000505D01*
X006053Y000548D01*
X006031Y000593D01*
X006012Y000640D01*
X005996Y000688D01*
X005983Y000737D01*
X005974Y000786D01*
X005969Y000837D01*
X005967Y000887D01*
X006892Y002794D02*
X006894Y002823D01*
X006900Y002851D01*
X006909Y002879D01*
X006922Y002905D01*
X006939Y002928D01*
X006958Y002950D01*
X006980Y002969D01*
X007005Y002984D01*
X007031Y002997D01*
X007059Y003005D01*
X007087Y003010D01*
X007116Y003011D01*
X007145Y003008D01*
X007173Y003001D01*
X007200Y002991D01*
X007226Y002977D01*
X007249Y002960D01*
X007270Y002940D01*
X007288Y002917D01*
X007303Y002892D01*
X007314Y002865D01*
X007322Y002837D01*
X007326Y002808D01*
X007326Y002780D01*
X007322Y002751D01*
X007314Y002723D01*
X007303Y002696D01*
X007288Y002671D01*
X007270Y002648D01*
X007249Y002628D01*
X007226Y002611D01*
X007200Y002597D01*
X007173Y002587D01*
X007145Y002580D01*
X007116Y002577D01*
X007087Y002578D01*
X007059Y002583D01*
X007031Y002591D01*
X007005Y002604D01*
X006980Y002619D01*
X006958Y002638D01*
X006939Y002660D01*
X006922Y002683D01*
X006909Y002709D01*
X006900Y002737D01*
X006894Y002765D01*
X006892Y002794D01*
X006892Y004566D02*
X006894Y004595D01*
X006900Y004623D01*
X006909Y004651D01*
X006922Y004677D01*
X006939Y004700D01*
X006958Y004722D01*
X006980Y004741D01*
X007005Y004756D01*
X007031Y004769D01*
X007059Y004777D01*
X007087Y004782D01*
X007116Y004783D01*
X007145Y004780D01*
X007173Y004773D01*
X007200Y004763D01*
X007226Y004749D01*
X007249Y004732D01*
X007270Y004712D01*
X007288Y004689D01*
X007303Y004664D01*
X007314Y004637D01*
X007322Y004609D01*
X007326Y004580D01*
X007326Y004552D01*
X007322Y004523D01*
X007314Y004495D01*
X007303Y004468D01*
X007288Y004443D01*
X007270Y004420D01*
X007249Y004400D01*
X007226Y004383D01*
X007200Y004369D01*
X007173Y004359D01*
X007145Y004352D01*
X007116Y004349D01*
X007087Y004350D01*
X007059Y004355D01*
X007031Y004363D01*
X007005Y004376D01*
X006980Y004391D01*
X006958Y004410D01*
X006939Y004432D01*
X006922Y004455D01*
X006909Y004481D01*
X006900Y004509D01*
X006894Y004537D01*
X006892Y004566D01*
D11*
X017967Y004440D02*
X017967Y003920D01*
X018967Y003920D02*
X018967Y004440D01*
X019967Y004440D02*
X019967Y003920D01*
X020967Y003920D02*
X020967Y004440D01*
X020967Y006920D02*
X020967Y007440D01*
X019967Y007440D02*
X019967Y006920D01*
X018967Y006920D02*
X018967Y007440D01*
X017967Y007440D02*
X017967Y006920D01*
D12*
X015267Y008680D03*
X015267Y010180D03*
X011667Y010180D03*
X011667Y008680D03*
X011667Y003180D03*
X011667Y001680D03*
X015267Y001680D03*
X015267Y003180D03*
X019967Y013380D03*
X017467Y014680D03*
X017467Y015680D03*
X019967Y016980D03*
D13*
X015467Y006680D03*
X015467Y004680D03*
X011467Y004680D03*
X011467Y006680D03*
D14*
X019967Y011180D03*
X023467Y011180D03*
D15*
X023467Y010180D03*
X019967Y010180D03*
D16*
X022077Y013400D03*
X023857Y013400D03*
X023857Y015960D03*
X022077Y015960D03*
X008093Y005058D03*
X008093Y004124D03*
X008093Y003236D03*
X008093Y002302D03*
D17*
X007148Y001397D03*
X007148Y005963D03*
D18*
X012467Y012380D02*
X012467Y012980D01*
X013467Y012980D02*
X013467Y012380D01*
X014467Y012380D02*
X014467Y012980D01*
X015467Y012980D02*
X015467Y012380D01*
X023667Y008180D02*
X024267Y008180D01*
X024267Y007180D02*
X023667Y007180D01*
X023667Y006180D02*
X024267Y006180D01*
X024267Y005180D02*
X023667Y005180D01*
X020967Y001480D02*
X020967Y000880D01*
X019967Y000880D02*
X019967Y001480D01*
X018967Y001480D02*
X018967Y000880D01*
X017967Y000880D02*
X017967Y001480D01*
D19*
X009467Y008180D03*
X007967Y008180D03*
X007967Y009680D03*
X009467Y009680D03*
X009467Y011180D03*
X007967Y011180D03*
X007967Y012680D03*
X009467Y012680D03*
X009467Y014180D03*
X007967Y014180D03*
D20*
X011667Y008680D02*
X012967Y007380D01*
X012967Y004680D01*
X011667Y003380D01*
X011667Y003180D01*
X012967Y003180D01*
X014467Y004680D01*
X015467Y004680D01*
X017967Y004180D02*
X017967Y001180D01*
X018967Y001180D02*
X018967Y004180D01*
X019967Y004180D02*
X019967Y001180D01*
X020967Y001180D02*
X020967Y004180D01*
X019467Y005180D02*
X023967Y005180D01*
X023967Y006180D02*
X022467Y006180D01*
X021967Y005680D01*
X019967Y005680D01*
X018967Y006680D01*
X018967Y007180D01*
X019967Y007180D02*
X019967Y006680D01*
X020467Y006180D01*
X021467Y006180D01*
X022467Y007180D01*
X023967Y007180D01*
X023967Y008180D02*
X023967Y008680D01*
X024967Y009680D01*
X024967Y011790D01*
X023857Y013400D01*
X023857Y015960D01*
X019967Y016980D02*
X019767Y017180D01*
X018467Y017180D01*
X017467Y016180D01*
X017467Y015680D01*
X017467Y014680D02*
X017467Y010680D01*
X019967Y008180D01*
X019967Y007180D01*
X020967Y007180D02*
X021967Y008180D01*
X023967Y008180D01*
X023467Y010180D02*
X019967Y010180D01*
X017467Y009680D02*
X016467Y008680D01*
X015267Y008680D01*
X017967Y007180D02*
X017967Y006680D01*
X019467Y005180D01*
D21*
X019740Y004779D02*
X019887Y004840D01*
X020046Y004840D01*
X020193Y004779D01*
X020306Y004667D01*
X020367Y004520D01*
X020367Y003840D01*
X020306Y003693D01*
X020193Y003581D01*
X020167Y003570D01*
X020167Y001873D01*
X020216Y001853D01*
X020340Y001729D01*
X020407Y001568D01*
X020407Y000792D01*
X020340Y000631D01*
X020216Y000507D01*
X020054Y000440D01*
X019879Y000440D01*
X019718Y000507D01*
X019594Y000631D01*
X019527Y000792D01*
X019527Y001568D01*
X019594Y001729D01*
X019718Y001853D01*
X019767Y001873D01*
X019767Y003570D01*
X019740Y003581D01*
X019628Y003693D01*
X019567Y003840D01*
X019567Y004520D01*
X019628Y004667D01*
X019740Y004779D01*
X019738Y004777D02*
X019196Y004777D01*
X019193Y004779D02*
X019046Y004840D01*
X018887Y004840D01*
X018740Y004779D01*
X018628Y004667D01*
X018567Y004520D01*
X018567Y003840D01*
X018628Y003693D01*
X018740Y003581D01*
X018767Y003570D01*
X018767Y001873D01*
X018718Y001853D01*
X018594Y001729D01*
X018527Y001568D01*
X018527Y000792D01*
X018594Y000631D01*
X018718Y000507D01*
X018879Y000440D01*
X019054Y000440D01*
X019216Y000507D01*
X019340Y000631D01*
X019407Y000792D01*
X019407Y001568D01*
X019340Y001729D01*
X019216Y001853D01*
X019167Y001873D01*
X019167Y003570D01*
X019193Y003581D01*
X019306Y003693D01*
X019367Y003840D01*
X019367Y004520D01*
X019306Y004667D01*
X019193Y004779D01*
X019326Y004618D02*
X019608Y004618D01*
X019567Y004460D02*
X019367Y004460D01*
X019367Y004301D02*
X019567Y004301D01*
X019567Y004143D02*
X019367Y004143D01*
X019367Y003984D02*
X019567Y003984D01*
X019573Y003826D02*
X019361Y003826D01*
X019279Y003667D02*
X019654Y003667D01*
X019767Y003509D02*
X019167Y003509D01*
X019167Y003350D02*
X019767Y003350D01*
X019767Y003192D02*
X019167Y003192D01*
X019167Y003033D02*
X019767Y003033D01*
X019767Y002875D02*
X019167Y002875D01*
X019167Y002716D02*
X019767Y002716D01*
X019767Y002558D02*
X019167Y002558D01*
X019167Y002399D02*
X019767Y002399D01*
X019767Y002241D02*
X019167Y002241D01*
X019167Y002082D02*
X019767Y002082D01*
X019767Y001924D02*
X019167Y001924D01*
X019304Y001765D02*
X019630Y001765D01*
X019543Y001607D02*
X019391Y001607D01*
X019407Y001448D02*
X019527Y001448D01*
X019527Y001290D02*
X019407Y001290D01*
X019407Y001131D02*
X019527Y001131D01*
X019527Y000973D02*
X019407Y000973D01*
X019407Y000814D02*
X019527Y000814D01*
X019584Y000656D02*
X019350Y000656D01*
X019192Y000497D02*
X019742Y000497D01*
X020192Y000497D02*
X020742Y000497D01*
X020718Y000507D02*
X020879Y000440D01*
X021054Y000440D01*
X021216Y000507D01*
X021340Y000631D01*
X021407Y000792D01*
X021407Y001568D01*
X021340Y001729D01*
X021216Y001853D01*
X021167Y001873D01*
X021167Y003570D01*
X021193Y003581D01*
X021306Y003693D01*
X021367Y003840D01*
X021367Y004520D01*
X021306Y004667D01*
X021193Y004779D01*
X021046Y004840D01*
X020887Y004840D01*
X020740Y004779D01*
X020628Y004667D01*
X020567Y004520D01*
X020567Y003840D01*
X020628Y003693D01*
X020740Y003581D01*
X020767Y003570D01*
X020767Y001873D01*
X020718Y001853D01*
X020594Y001729D01*
X020527Y001568D01*
X020527Y000792D01*
X020594Y000631D01*
X020718Y000507D01*
X020584Y000656D02*
X020350Y000656D01*
X020407Y000814D02*
X020527Y000814D01*
X020527Y000973D02*
X020407Y000973D01*
X020407Y001131D02*
X020527Y001131D01*
X020527Y001290D02*
X020407Y001290D01*
X020407Y001448D02*
X020527Y001448D01*
X020543Y001607D02*
X020391Y001607D01*
X020304Y001765D02*
X020630Y001765D01*
X020767Y001924D02*
X020167Y001924D01*
X020167Y002082D02*
X020767Y002082D01*
X020767Y002241D02*
X020167Y002241D01*
X020167Y002399D02*
X020767Y002399D01*
X020767Y002558D02*
X020167Y002558D01*
X020167Y002716D02*
X020767Y002716D01*
X020767Y002875D02*
X020167Y002875D01*
X020167Y003033D02*
X020767Y003033D01*
X020767Y003192D02*
X020167Y003192D01*
X020167Y003350D02*
X020767Y003350D01*
X020767Y003509D02*
X020167Y003509D01*
X020279Y003667D02*
X020654Y003667D01*
X020573Y003826D02*
X020361Y003826D01*
X020367Y003984D02*
X020567Y003984D01*
X020567Y004143D02*
X020367Y004143D01*
X020367Y004301D02*
X020567Y004301D01*
X020567Y004460D02*
X020367Y004460D01*
X020326Y004618D02*
X020608Y004618D01*
X020738Y004777D02*
X020196Y004777D01*
X019884Y005480D02*
X022050Y005480D01*
X022550Y005980D01*
X023273Y005980D01*
X023294Y005931D01*
X023418Y005807D01*
X023579Y005740D01*
X024354Y005740D01*
X024516Y005807D01*
X024640Y005931D01*
X024707Y006092D01*
X024707Y006268D01*
X024640Y006429D01*
X024516Y006553D01*
X024354Y006620D01*
X023579Y006620D01*
X023418Y006553D01*
X023294Y006429D01*
X023273Y006380D01*
X022384Y006380D01*
X022267Y006263D01*
X021884Y005880D01*
X020050Y005880D01*
X019271Y006659D01*
X019306Y006693D01*
X019367Y006840D01*
X019367Y007520D01*
X019306Y007667D01*
X019193Y007779D01*
X019046Y007840D01*
X018887Y007840D01*
X018740Y007779D01*
X018628Y007667D01*
X018567Y007520D01*
X018567Y006840D01*
X018628Y006693D01*
X018740Y006581D01*
X018813Y006551D01*
X019767Y005597D01*
X019884Y005480D01*
X019795Y005569D02*
X013167Y005569D01*
X013167Y005411D02*
X023246Y005411D01*
X023256Y005432D02*
X023222Y005364D01*
X023199Y005292D01*
X023187Y005218D01*
X023187Y005200D01*
X023947Y005200D01*
X023947Y005660D01*
X023629Y005660D01*
X023554Y005648D01*
X023483Y005625D01*
X023415Y005591D01*
X023354Y005546D01*
X023301Y005493D01*
X023256Y005432D01*
X023386Y005569D02*
X022139Y005569D01*
X022297Y005728D02*
X025472Y005728D01*
X025472Y005886D02*
X024595Y005886D01*
X024687Y006045D02*
X025472Y006045D01*
X025472Y006203D02*
X024707Y006203D01*
X024668Y006362D02*
X025472Y006362D01*
X025472Y006520D02*
X024549Y006520D01*
X024516Y006807D02*
X024640Y006931D01*
X024707Y007092D01*
X024707Y007268D01*
X024640Y007429D01*
X024516Y007553D01*
X024354Y007620D01*
X023579Y007620D01*
X023418Y007553D01*
X023294Y007429D01*
X023273Y007380D01*
X022384Y007380D01*
X022267Y007263D01*
X021384Y006380D01*
X020550Y006380D01*
X020271Y006659D01*
X020306Y006693D01*
X020367Y006840D01*
X020367Y007520D01*
X020306Y007667D01*
X020193Y007779D01*
X020167Y007790D01*
X020167Y008263D01*
X017667Y010763D01*
X017667Y014215D01*
X017937Y014485D01*
X017937Y014875D01*
X017661Y015150D01*
X017272Y015150D01*
X016997Y014875D01*
X016997Y014485D01*
X017267Y014215D01*
X017267Y010597D01*
X017384Y010480D01*
X019767Y008097D01*
X019767Y007790D01*
X019740Y007779D01*
X019628Y007667D01*
X019567Y007520D01*
X019567Y006840D01*
X019628Y006693D01*
X019740Y006581D01*
X019813Y006551D01*
X020267Y006097D01*
X020384Y005980D01*
X021550Y005980D01*
X021667Y006097D01*
X022550Y006980D01*
X023273Y006980D01*
X023294Y006931D01*
X023418Y006807D01*
X023579Y006740D01*
X024354Y006740D01*
X024516Y006807D01*
X024546Y006837D02*
X025472Y006837D01*
X025472Y006679D02*
X022248Y006679D01*
X022407Y006837D02*
X023388Y006837D01*
X023385Y006520D02*
X022090Y006520D01*
X021931Y006362D02*
X022365Y006362D01*
X022207Y006203D02*
X021773Y006203D01*
X021614Y006045D02*
X022048Y006045D01*
X021890Y005886D02*
X020044Y005886D01*
X019885Y006045D02*
X020319Y006045D01*
X020161Y006203D02*
X019727Y006203D01*
X019568Y006362D02*
X020002Y006362D01*
X019844Y006520D02*
X019410Y006520D01*
X019291Y006679D02*
X019643Y006679D01*
X019568Y006837D02*
X019365Y006837D01*
X019367Y006996D02*
X019567Y006996D01*
X019567Y007154D02*
X019367Y007154D01*
X019367Y007313D02*
X019567Y007313D01*
X019567Y007471D02*
X019367Y007471D01*
X019321Y007630D02*
X019612Y007630D01*
X019762Y007788D02*
X019172Y007788D01*
X018762Y007788D02*
X018236Y007788D01*
X018253Y007776D02*
X018197Y007816D01*
X018136Y007848D01*
X018070Y007869D01*
X018001Y007880D01*
X017967Y007880D01*
X017967Y007180D01*
X018407Y007180D01*
X018407Y007475D01*
X018396Y007543D01*
X018375Y007609D01*
X018343Y007671D01*
X018302Y007727D01*
X018253Y007776D01*
X018364Y007630D02*
X018612Y007630D01*
X018567Y007471D02*
X018407Y007471D01*
X018407Y007313D02*
X018567Y007313D01*
X018567Y007154D02*
X018407Y007154D01*
X018407Y007180D02*
X017967Y007180D01*
X017967Y007180D01*
X017967Y007180D01*
X017967Y006480D01*
X018001Y006480D01*
X018070Y006491D01*
X018136Y006512D01*
X018197Y006544D01*
X018253Y006584D01*
X018302Y006633D01*
X018343Y006689D01*
X018375Y006751D01*
X018396Y006817D01*
X018407Y006885D01*
X018407Y007180D01*
X018407Y006996D02*
X018567Y006996D01*
X018568Y006837D02*
X018399Y006837D01*
X018335Y006679D02*
X018643Y006679D01*
X018844Y006520D02*
X018151Y006520D01*
X017967Y006520D02*
X017967Y006520D01*
X017967Y006480D02*
X017967Y007180D01*
X017967Y007180D01*
X017967Y007880D01*
X017932Y007880D01*
X017864Y007869D01*
X017798Y007848D01*
X017736Y007816D01*
X017680Y007776D01*
X017631Y007727D01*
X017590Y007671D01*
X017559Y007609D01*
X017538Y007543D01*
X017527Y007475D01*
X017527Y007180D01*
X017527Y006885D01*
X017538Y006817D01*
X017559Y006751D01*
X017590Y006689D01*
X017631Y006633D01*
X017680Y006584D01*
X017736Y006544D01*
X017798Y006512D01*
X017864Y006491D01*
X017932Y006480D01*
X017967Y006480D01*
X017783Y006520D02*
X015951Y006520D01*
X015939Y006484D02*
X015964Y006561D01*
X015977Y006640D01*
X015977Y006650D01*
X015497Y006650D01*
X015497Y006710D01*
X015977Y006710D01*
X015977Y006720D01*
X015964Y006799D01*
X015939Y006876D01*
X015903Y006947D01*
X015856Y007012D01*
X015799Y007069D01*
X015734Y007116D01*
X015663Y007153D01*
X015586Y007177D01*
X015507Y007190D01*
X015497Y007190D01*
X015497Y006710D01*
X015437Y006710D01*
X015437Y007190D01*
X015427Y007190D01*
X015347Y007177D01*
X015271Y007153D01*
X015199Y007116D01*
X015135Y007069D01*
X015078Y007012D01*
X015031Y006947D01*
X014994Y006876D01*
X014969Y006799D01*
X014957Y006720D01*
X014957Y006710D01*
X015437Y006710D01*
X015437Y006650D01*
X015497Y006650D01*
X015497Y006170D01*
X015507Y006170D01*
X015586Y006183D01*
X015663Y006207D01*
X015734Y006244D01*
X015799Y006291D01*
X015856Y006348D01*
X015903Y006413D01*
X015939Y006484D01*
X015866Y006362D02*
X019002Y006362D01*
X019161Y006203D02*
X015649Y006203D01*
X015497Y006203D02*
X015437Y006203D01*
X015437Y006170D02*
X015437Y006650D01*
X014957Y006650D01*
X014957Y006640D01*
X014969Y006561D01*
X014994Y006484D01*
X015031Y006413D01*
X015078Y006348D01*
X015135Y006291D01*
X015199Y006244D01*
X015271Y006207D01*
X015347Y006183D01*
X015427Y006170D01*
X015437Y006170D01*
X015284Y006203D02*
X013167Y006203D01*
X013167Y006045D02*
X019319Y006045D01*
X019478Y005886D02*
X013167Y005886D01*
X013167Y005728D02*
X019636Y005728D01*
X020410Y006520D02*
X020887Y006520D01*
X021046Y006520D01*
X021193Y006581D01*
X021306Y006693D01*
X021367Y006840D01*
X021367Y007297D01*
X022050Y007980D01*
X023273Y007980D01*
X023294Y007931D01*
X023418Y007807D01*
X023579Y007740D01*
X024354Y007740D01*
X024516Y007807D01*
X024640Y007931D01*
X024707Y008092D01*
X024707Y008268D01*
X024640Y008429D01*
X024516Y008553D01*
X024354Y008620D01*
X024190Y008620D01*
X025050Y009480D01*
X025167Y009597D01*
X025167Y011772D01*
X025178Y011835D01*
X025167Y011852D01*
X025167Y011873D01*
X025121Y011919D01*
X024293Y013120D01*
X024367Y013299D01*
X024367Y013501D01*
X024289Y013689D01*
X024146Y013832D01*
X024057Y013869D01*
X024057Y015491D01*
X024146Y015528D01*
X024289Y015671D01*
X024367Y015859D01*
X024367Y016061D01*
X024289Y016249D01*
X024146Y016392D01*
X023958Y016470D01*
X023755Y016470D01*
X023568Y016392D01*
X023424Y016249D01*
X023347Y016061D01*
X023347Y015859D01*
X023424Y015671D01*
X023568Y015528D01*
X023657Y015491D01*
X023657Y013869D01*
X023568Y013832D01*
X023424Y013689D01*
X023347Y013501D01*
X023347Y013299D01*
X023424Y013111D01*
X023568Y012968D01*
X023755Y012890D01*
X023958Y012890D01*
X023964Y012892D01*
X024767Y011728D01*
X024767Y009763D01*
X023767Y008763D01*
X023767Y008620D01*
X023579Y008620D01*
X023418Y008553D01*
X023294Y008429D01*
X023273Y008380D01*
X021884Y008380D01*
X021767Y008263D01*
X021238Y007734D01*
X021193Y007779D01*
X021046Y007840D01*
X020887Y007840D01*
X020740Y007779D01*
X020628Y007667D01*
X020567Y007520D01*
X020567Y006840D01*
X020628Y006693D01*
X020740Y006581D01*
X020887Y006520D01*
X021046Y006520D02*
X021524Y006520D01*
X021682Y006679D02*
X021291Y006679D01*
X021365Y006837D02*
X021841Y006837D01*
X021999Y006996D02*
X021367Y006996D01*
X021367Y007154D02*
X022158Y007154D01*
X022316Y007313D02*
X021382Y007313D01*
X021541Y007471D02*
X023336Y007471D01*
X023463Y007788D02*
X021858Y007788D01*
X022016Y007947D02*
X023287Y007947D01*
X023291Y008422D02*
X020008Y008422D01*
X020166Y008264D02*
X021767Y008264D01*
X021609Y008105D02*
X020167Y008105D01*
X020167Y007947D02*
X021450Y007947D01*
X021292Y007788D02*
X021172Y007788D01*
X020762Y007788D02*
X020172Y007788D01*
X020321Y007630D02*
X020612Y007630D01*
X020567Y007471D02*
X020367Y007471D01*
X020367Y007313D02*
X020567Y007313D01*
X020567Y007154D02*
X020367Y007154D01*
X020367Y006996D02*
X020567Y006996D01*
X020568Y006837D02*
X020365Y006837D01*
X020291Y006679D02*
X020643Y006679D01*
X021699Y007630D02*
X025472Y007630D01*
X025472Y007788D02*
X024470Y007788D01*
X024646Y007947D02*
X025472Y007947D01*
X025472Y008105D02*
X024707Y008105D01*
X024707Y008264D02*
X025472Y008264D01*
X025472Y008422D02*
X024643Y008422D01*
X024450Y008581D02*
X025472Y008581D01*
X025472Y008739D02*
X024309Y008739D01*
X024467Y008898D02*
X025472Y008898D01*
X025472Y009056D02*
X024626Y009056D01*
X024784Y009215D02*
X025472Y009215D01*
X025472Y009373D02*
X024943Y009373D01*
X025101Y009532D02*
X025472Y009532D01*
X025472Y009690D02*
X025167Y009690D01*
X025167Y009849D02*
X025472Y009849D01*
X025472Y010007D02*
X025167Y010007D01*
X025167Y010166D02*
X025472Y010166D01*
X025472Y010324D02*
X025167Y010324D01*
X025167Y010483D02*
X025472Y010483D01*
X025472Y010641D02*
X025167Y010641D01*
X025167Y010800D02*
X025472Y010800D01*
X025472Y010958D02*
X025167Y010958D01*
X025167Y011117D02*
X025472Y011117D01*
X025472Y011275D02*
X025167Y011275D01*
X025167Y011434D02*
X025472Y011434D01*
X025472Y011592D02*
X025167Y011592D01*
X025167Y011751D02*
X025472Y011751D01*
X025472Y011909D02*
X025131Y011909D01*
X025018Y012068D02*
X025472Y012068D01*
X025472Y012226D02*
X024909Y012226D01*
X024800Y012385D02*
X025472Y012385D01*
X025472Y012543D02*
X024691Y012543D01*
X024581Y012702D02*
X025472Y012702D01*
X025472Y012860D02*
X024472Y012860D01*
X024363Y013019D02*
X025472Y013019D01*
X025472Y013177D02*
X024316Y013177D01*
X024367Y013336D02*
X025472Y013336D01*
X025472Y013494D02*
X024367Y013494D01*
X024304Y013653D02*
X025472Y013653D01*
X025472Y013811D02*
X024167Y013811D01*
X024057Y013970D02*
X025472Y013970D01*
X025472Y014128D02*
X024057Y014128D01*
X024057Y014287D02*
X025472Y014287D01*
X025472Y014445D02*
X024057Y014445D01*
X024057Y014604D02*
X025472Y014604D01*
X025472Y014762D02*
X024057Y014762D01*
X024057Y014921D02*
X025472Y014921D01*
X025472Y015079D02*
X024057Y015079D01*
X024057Y015238D02*
X025472Y015238D01*
X025472Y015396D02*
X024057Y015396D01*
X024173Y015555D02*
X025472Y015555D01*
X025472Y015713D02*
X024306Y015713D01*
X024367Y015872D02*
X025472Y015872D01*
X025472Y016030D02*
X024367Y016030D01*
X024314Y016189D02*
X025467Y016189D01*
X025472Y016068D02*
X025472Y003142D01*
X025458Y002869D01*
X025352Y002335D01*
X025143Y001831D01*
X024840Y001377D01*
X024455Y000992D01*
X024001Y000689D01*
X023497Y000480D01*
X022962Y000373D01*
X022690Y000360D01*
X006674Y000360D01*
X006591Y000366D01*
X006435Y000417D01*
X006301Y000514D01*
X006204Y000648D01*
X006153Y000805D01*
X006147Y000887D01*
X006147Y013875D01*
X006162Y014289D01*
X006280Y015110D01*
X006513Y015905D01*
X006858Y016659D01*
X007306Y017357D01*
X007849Y017983D01*
X008475Y018526D01*
X009173Y018974D01*
X009927Y019319D01*
X010722Y019552D01*
X011543Y019670D01*
X011957Y019685D01*
X021855Y019685D01*
X022170Y019671D01*
X022791Y019562D01*
X023383Y019346D01*
X023929Y019031D01*
X024412Y018626D01*
X024818Y018143D01*
X025133Y017597D01*
X025349Y017004D01*
X025458Y016383D01*
X025472Y016068D01*
X025460Y016347D02*
X024191Y016347D01*
X023523Y016347D02*
X022468Y016347D01*
X022496Y016318D02*
X022435Y016380D01*
X022365Y016430D01*
X022288Y016470D01*
X022206Y016496D01*
X022120Y016510D01*
X022097Y016510D01*
X022097Y015980D01*
X022627Y015980D01*
X022627Y016003D01*
X022613Y016089D01*
X022586Y016171D01*
X022547Y016248D01*
X022496Y016318D01*
X022578Y016189D02*
X023399Y016189D01*
X023347Y016030D02*
X022623Y016030D01*
X022627Y015940D02*
X022097Y015940D01*
X022097Y015980D01*
X022057Y015980D01*
X022057Y016510D01*
X022033Y016510D01*
X021948Y016496D01*
X021866Y016470D01*
X021789Y016430D01*
X021718Y016380D01*
X021657Y016318D01*
X021606Y016248D01*
X021567Y016171D01*
X021540Y016089D01*
X021527Y016003D01*
X021527Y015980D01*
X022057Y015980D01*
X022057Y015940D01*
X022097Y015940D01*
X022097Y015410D01*
X022120Y015410D01*
X022206Y015424D01*
X022288Y015450D01*
X022365Y015490D01*
X022435Y015540D01*
X022496Y015602D01*
X022547Y015672D01*
X022586Y015749D01*
X022613Y015831D01*
X022627Y015917D01*
X022627Y015940D01*
X022620Y015872D02*
X023347Y015872D01*
X023407Y015713D02*
X022568Y015713D01*
X022449Y015555D02*
X023541Y015555D01*
X023657Y015396D02*
X017847Y015396D01*
X017937Y015485D02*
X017661Y015210D01*
X017272Y015210D01*
X016997Y015485D01*
X016997Y015875D01*
X017267Y016145D01*
X017267Y016263D01*
X018267Y017263D01*
X018384Y017380D01*
X019702Y017380D01*
X019772Y017450D01*
X020161Y017450D01*
X020437Y017175D01*
X020437Y016785D01*
X020161Y016510D01*
X019772Y016510D01*
X019497Y016785D01*
X019497Y016980D01*
X018550Y016980D01*
X017691Y016121D01*
X017937Y015875D01*
X017937Y015485D01*
X017937Y015555D02*
X021704Y015555D01*
X021718Y015540D02*
X021789Y015490D01*
X021866Y015450D01*
X021948Y015424D01*
X022033Y015410D01*
X022057Y015410D01*
X022057Y015940D01*
X021527Y015940D01*
X021527Y015917D01*
X021540Y015831D01*
X021567Y015749D01*
X021606Y015672D01*
X021657Y015602D01*
X021718Y015540D01*
X021585Y015713D02*
X017937Y015713D01*
X017937Y015872D02*
X021534Y015872D01*
X021531Y016030D02*
X017781Y016030D01*
X017758Y016189D02*
X021576Y016189D01*
X021686Y016347D02*
X017917Y016347D01*
X018075Y016506D02*
X022005Y016506D01*
X022057Y016506D02*
X022097Y016506D01*
X022148Y016506D02*
X025436Y016506D01*
X025409Y016664D02*
X020315Y016664D01*
X020437Y016823D02*
X025381Y016823D01*
X025353Y016981D02*
X020437Y016981D01*
X020437Y017140D02*
X025299Y017140D01*
X025242Y017298D02*
X020313Y017298D01*
X019618Y016664D02*
X018234Y016664D01*
X018392Y016823D02*
X019497Y016823D01*
X018302Y017298D02*
X010292Y017298D01*
X010212Y017457D02*
X025184Y017457D01*
X025122Y017615D02*
X010099Y017615D01*
X010164Y017550D02*
X009837Y017877D01*
X009837Y017877D01*
X009424Y018088D01*
X008967Y018160D01*
X008967Y018160D01*
X008509Y018088D01*
X008097Y017877D01*
X007769Y017550D01*
X007769Y017550D01*
X007559Y017137D01*
X007487Y016680D01*
X007559Y016223D01*
X007769Y015810D01*
X008097Y015483D01*
X008509Y015272D01*
X008967Y015200D01*
X009424Y015272D01*
X009837Y015483D01*
X010164Y015810D01*
X010374Y016223D01*
X010374Y016223D01*
X010447Y016680D01*
X010374Y017137D01*
X010374Y017137D01*
X010164Y017550D01*
X010164Y017550D01*
X009941Y017774D02*
X025031Y017774D01*
X024939Y017932D02*
X009729Y017932D01*
X009424Y018088D02*
X009424Y018088D01*
X009405Y018091D02*
X024848Y018091D01*
X024728Y018249D02*
X008155Y018249D01*
X007972Y018091D02*
X008528Y018091D01*
X008509Y018088D02*
X008509Y018088D01*
X008204Y017932D02*
X007804Y017932D01*
X007667Y017774D02*
X007993Y017774D01*
X008097Y017877D02*
X008097Y017877D01*
X007835Y017615D02*
X007530Y017615D01*
X007392Y017457D02*
X007722Y017457D01*
X007641Y017298D02*
X007268Y017298D01*
X007166Y017140D02*
X007560Y017140D01*
X007559Y017137D02*
X007559Y017137D01*
X007534Y016981D02*
X007064Y016981D01*
X006962Y016823D02*
X007509Y016823D01*
X007487Y016680D02*
X007487Y016680D01*
X007489Y016664D02*
X006861Y016664D01*
X006787Y016506D02*
X007514Y016506D01*
X007540Y016347D02*
X006715Y016347D01*
X006643Y016189D02*
X007577Y016189D01*
X007559Y016223D02*
X007559Y016223D01*
X007657Y016030D02*
X006570Y016030D01*
X006503Y015872D02*
X007738Y015872D01*
X007769Y015810D02*
X007769Y015810D01*
X007866Y015713D02*
X006457Y015713D01*
X006410Y015555D02*
X008025Y015555D01*
X008097Y015483D02*
X008097Y015483D01*
X008267Y015396D02*
X006364Y015396D01*
X006317Y015238D02*
X008730Y015238D01*
X008509Y015272D02*
X008509Y015272D01*
X008967Y015200D02*
X008967Y015200D01*
X009204Y015238D02*
X017245Y015238D01*
X017201Y015079D02*
X006275Y015079D01*
X006252Y014921D02*
X017043Y014921D01*
X016997Y014762D02*
X006230Y014762D01*
X006207Y014604D02*
X007591Y014604D01*
X007733Y014745D02*
X007402Y014414D01*
X007402Y013946D01*
X007733Y013615D01*
X008201Y013615D01*
X008532Y013946D01*
X008532Y014414D01*
X008201Y014745D01*
X007733Y014745D01*
X007433Y014445D02*
X006184Y014445D01*
X006161Y014287D02*
X007402Y014287D01*
X007402Y014128D02*
X006156Y014128D01*
X006150Y013970D02*
X007402Y013970D01*
X007537Y013811D02*
X006147Y013811D01*
X006147Y013653D02*
X007695Y013653D01*
X007733Y013245D02*
X007402Y012914D01*
X007402Y012446D01*
X007733Y012115D01*
X008201Y012115D01*
X008532Y012446D01*
X008532Y012914D01*
X008201Y013245D01*
X007733Y013245D01*
X007665Y013177D02*
X006147Y013177D01*
X006147Y013019D02*
X007506Y013019D01*
X007402Y012860D02*
X006147Y012860D01*
X006147Y012702D02*
X007402Y012702D01*
X007402Y012543D02*
X006147Y012543D01*
X006147Y012385D02*
X007463Y012385D01*
X007622Y012226D02*
X006147Y012226D01*
X006147Y012068D02*
X012157Y012068D01*
X012218Y012007D02*
X012247Y011995D01*
X012247Y011071D01*
X011826Y010650D01*
X011472Y010650D01*
X011197Y010375D01*
X011197Y009985D01*
X011472Y009710D01*
X011861Y009710D01*
X012137Y009985D01*
X012137Y010339D01*
X012687Y010889D01*
X012687Y011995D01*
X012716Y012007D01*
X012840Y012131D01*
X012907Y012292D01*
X012907Y012460D01*
X013027Y012460D01*
X013027Y012292D01*
X013094Y012131D01*
X013218Y012007D01*
X013379Y011940D01*
X013554Y011940D01*
X013716Y012007D01*
X013840Y012131D01*
X013907Y012292D01*
X013907Y013068D01*
X013840Y013229D01*
X013716Y013353D01*
X013554Y013420D01*
X013379Y013420D01*
X013218Y013353D01*
X013094Y013229D01*
X013027Y013068D01*
X013027Y012900D01*
X012907Y012900D01*
X012907Y013068D01*
X012840Y013229D01*
X012716Y013353D01*
X012554Y013420D01*
X012379Y013420D01*
X012218Y013353D01*
X012094Y013229D01*
X012027Y013068D01*
X012027Y012292D01*
X012094Y012131D01*
X012218Y012007D01*
X012247Y011909D02*
X006147Y011909D01*
X006147Y011751D02*
X012247Y011751D01*
X012247Y011592D02*
X009854Y011592D01*
X009701Y011745D02*
X009233Y011745D01*
X008902Y011414D01*
X008902Y010946D01*
X009233Y010615D01*
X009701Y010615D01*
X010032Y010946D01*
X010032Y011414D01*
X009701Y011745D01*
X010012Y011434D02*
X012247Y011434D01*
X012247Y011275D02*
X010032Y011275D01*
X010032Y011117D02*
X012247Y011117D01*
X012134Y010958D02*
X010032Y010958D01*
X009885Y010800D02*
X011975Y010800D01*
X012280Y010483D02*
X014905Y010483D01*
X014797Y010375D02*
X014797Y009985D01*
X015072Y009710D01*
X015461Y009710D01*
X015737Y009985D01*
X015737Y010375D01*
X015461Y010650D01*
X015072Y010650D01*
X014797Y010375D01*
X014797Y010324D02*
X012137Y010324D01*
X012137Y010166D02*
X014797Y010166D01*
X014797Y010007D02*
X012137Y010007D01*
X012000Y009849D02*
X014934Y009849D01*
X015600Y009849D02*
X017192Y009849D01*
X017197Y009860D02*
X017149Y009743D01*
X017149Y009645D01*
X016384Y008880D01*
X015731Y008880D01*
X015461Y009150D01*
X015072Y009150D01*
X014797Y008875D01*
X014797Y008485D01*
X015072Y008210D01*
X015461Y008210D01*
X015731Y008480D01*
X016550Y008480D01*
X017432Y009362D01*
X017530Y009362D01*
X017647Y009410D01*
X017736Y009500D01*
X017785Y009617D01*
X017785Y009743D01*
X017736Y009860D01*
X017647Y009950D01*
X017530Y009998D01*
X017403Y009998D01*
X017287Y009950D01*
X017197Y009860D01*
X017149Y009690D02*
X010032Y009690D01*
X010032Y009532D02*
X017035Y009532D01*
X016877Y009373D02*
X009959Y009373D01*
X010032Y009446D02*
X009701Y009115D01*
X009233Y009115D01*
X008902Y009446D01*
X008902Y009914D01*
X009233Y010245D01*
X009701Y010245D01*
X010032Y009914D01*
X010032Y009446D01*
X009800Y009215D02*
X016718Y009215D01*
X016560Y009056D02*
X015555Y009056D01*
X015714Y008898D02*
X016401Y008898D01*
X016650Y008581D02*
X019283Y008581D01*
X019125Y008739D02*
X016809Y008739D01*
X016967Y008898D02*
X018966Y008898D01*
X018808Y009056D02*
X017126Y009056D01*
X017284Y009215D02*
X018649Y009215D01*
X018491Y009373D02*
X017557Y009373D01*
X017750Y009532D02*
X018332Y009532D01*
X018174Y009690D02*
X017785Y009690D01*
X017741Y009849D02*
X018015Y009849D01*
X017857Y010007D02*
X015737Y010007D01*
X015737Y010166D02*
X017698Y010166D01*
X017540Y010324D02*
X015737Y010324D01*
X015629Y010483D02*
X017381Y010483D01*
X017267Y010641D02*
X015470Y010641D01*
X015063Y010641D02*
X012439Y010641D01*
X012597Y010800D02*
X017267Y010800D01*
X017267Y010958D02*
X012687Y010958D01*
X012687Y011117D02*
X017267Y011117D01*
X017267Y011275D02*
X012687Y011275D01*
X012687Y011434D02*
X017267Y011434D01*
X017267Y011592D02*
X012687Y011592D01*
X012687Y011751D02*
X017267Y011751D01*
X017267Y011909D02*
X015561Y011909D01*
X015579Y011912D02*
X015651Y011935D01*
X015718Y011969D01*
X015779Y012014D01*
X015833Y012067D01*
X015877Y012128D01*
X015912Y012196D01*
X015935Y012268D01*
X015947Y012342D01*
X015947Y012660D01*
X015487Y012660D01*
X015487Y012700D01*
X015947Y012700D01*
X015947Y013018D01*
X015935Y013092D01*
X015912Y013164D01*
X015877Y013232D01*
X015833Y013293D01*
X015779Y013346D01*
X015718Y013391D01*
X015651Y013425D01*
X015579Y013448D01*
X015505Y013460D01*
X015487Y013460D01*
X015487Y012700D01*
X015447Y012700D01*
X015447Y013460D01*
X015429Y013460D01*
X015354Y013448D01*
X015283Y013425D01*
X015215Y013391D01*
X015154Y013346D01*
X015101Y013293D01*
X015056Y013232D01*
X015022Y013164D01*
X014999Y013092D01*
X014987Y013018D01*
X014987Y012700D01*
X015447Y012700D01*
X015447Y012660D01*
X015487Y012660D01*
X015487Y011900D01*
X015505Y011900D01*
X015579Y011912D01*
X015487Y011909D02*
X015447Y011909D01*
X015447Y011900D02*
X015447Y012660D01*
X014987Y012660D01*
X014987Y012342D01*
X014999Y012268D01*
X015022Y012196D01*
X015056Y012128D01*
X015101Y012067D01*
X015154Y012014D01*
X015215Y011969D01*
X015283Y011935D01*
X015354Y011912D01*
X015429Y011900D01*
X015447Y011900D01*
X015372Y011909D02*
X014561Y011909D01*
X014579Y011912D02*
X014651Y011935D01*
X014718Y011969D01*
X014779Y012014D01*
X014833Y012067D01*
X014877Y012128D01*
X014912Y012196D01*
X014935Y012268D01*
X014947Y012342D01*
X014947Y012660D01*
X014487Y012660D01*
X014487Y012700D01*
X014947Y012700D01*
X014947Y013018D01*
X014935Y013092D01*
X014912Y013164D01*
X014877Y013232D01*
X014833Y013293D01*
X014779Y013346D01*
X014718Y013391D01*
X014651Y013425D01*
X014579Y013448D01*
X014505Y013460D01*
X014487Y013460D01*
X014487Y012700D01*
X014447Y012700D01*
X014447Y013460D01*
X014429Y013460D01*
X014354Y013448D01*
X014283Y013425D01*
X014215Y013391D01*
X014154Y013346D01*
X014101Y013293D01*
X014056Y013232D01*
X014022Y013164D01*
X013999Y013092D01*
X013987Y013018D01*
X013987Y012700D01*
X014447Y012700D01*
X014447Y012660D01*
X014487Y012660D01*
X014487Y011900D01*
X014505Y011900D01*
X014579Y011912D01*
X014487Y011909D02*
X014447Y011909D01*
X014447Y011900D02*
X014447Y012660D01*
X013987Y012660D01*
X013987Y012342D01*
X013999Y012268D01*
X014022Y012196D01*
X014056Y012128D01*
X014101Y012067D01*
X014154Y012014D01*
X014215Y011969D01*
X014283Y011935D01*
X014354Y011912D01*
X014429Y011900D01*
X014447Y011900D01*
X014372Y011909D02*
X012687Y011909D01*
X012777Y012068D02*
X013157Y012068D01*
X013054Y012226D02*
X012879Y012226D01*
X012907Y012385D02*
X013027Y012385D01*
X013467Y012680D02*
X012467Y012680D01*
X012467Y010980D01*
X011667Y010180D01*
X011334Y009849D02*
X010032Y009849D01*
X009939Y010007D02*
X011197Y010007D01*
X011197Y010166D02*
X009780Y010166D01*
X009153Y010166D02*
X008280Y010166D01*
X008201Y010245D02*
X007733Y010245D01*
X007402Y009914D01*
X007402Y009446D01*
X007733Y009115D01*
X008201Y009115D01*
X008532Y009446D01*
X008532Y009914D01*
X008201Y010245D01*
X008201Y010615D02*
X008532Y010946D01*
X008532Y011414D01*
X008201Y011745D01*
X007733Y011745D01*
X007402Y011414D01*
X007402Y010946D01*
X007733Y010615D01*
X008201Y010615D01*
X008227Y010641D02*
X009207Y010641D01*
X009048Y010800D02*
X008385Y010800D01*
X008532Y010958D02*
X008902Y010958D01*
X008902Y011117D02*
X008532Y011117D01*
X008532Y011275D02*
X008902Y011275D01*
X008921Y011434D02*
X008512Y011434D01*
X008354Y011592D02*
X009080Y011592D01*
X009233Y012115D02*
X009701Y012115D01*
X010032Y012446D01*
X010032Y012914D01*
X009701Y013245D01*
X009233Y013245D01*
X008902Y012914D01*
X008902Y012446D01*
X009233Y012115D01*
X009122Y012226D02*
X008312Y012226D01*
X008470Y012385D02*
X008963Y012385D01*
X008902Y012543D02*
X008532Y012543D01*
X008532Y012702D02*
X008902Y012702D01*
X008902Y012860D02*
X008532Y012860D01*
X008427Y013019D02*
X009006Y013019D01*
X009165Y013177D02*
X008269Y013177D01*
X008238Y013653D02*
X009195Y013653D01*
X009233Y013615D02*
X008902Y013946D01*
X008902Y014414D01*
X009233Y014745D01*
X009701Y014745D01*
X010032Y014414D01*
X010032Y013946D01*
X009701Y013615D01*
X009233Y013615D01*
X009037Y013811D02*
X008397Y013811D01*
X008532Y013970D02*
X008902Y013970D01*
X008902Y014128D02*
X008532Y014128D01*
X008532Y014287D02*
X008902Y014287D01*
X008933Y014445D02*
X008501Y014445D01*
X008342Y014604D02*
X009091Y014604D01*
X009842Y014604D02*
X016997Y014604D01*
X017037Y014445D02*
X010001Y014445D01*
X010032Y014287D02*
X017196Y014287D01*
X017267Y014128D02*
X010032Y014128D01*
X010032Y013970D02*
X017267Y013970D01*
X017267Y013811D02*
X009897Y013811D01*
X009738Y013653D02*
X017267Y013653D01*
X017267Y013494D02*
X006147Y013494D01*
X006147Y013336D02*
X012200Y013336D01*
X012072Y013177D02*
X009769Y013177D01*
X009927Y013019D02*
X012027Y013019D01*
X012027Y012860D02*
X010032Y012860D01*
X010032Y012702D02*
X012027Y012702D01*
X012027Y012543D02*
X010032Y012543D01*
X009970Y012385D02*
X012027Y012385D01*
X012054Y012226D02*
X009812Y012226D01*
X009727Y010641D02*
X011463Y010641D01*
X011305Y010483D02*
X006147Y010483D01*
X006147Y010641D02*
X007707Y010641D01*
X007548Y010800D02*
X006147Y010800D01*
X006147Y010958D02*
X007402Y010958D01*
X007402Y011117D02*
X006147Y011117D01*
X006147Y011275D02*
X007402Y011275D01*
X007421Y011434D02*
X006147Y011434D01*
X006147Y011592D02*
X007580Y011592D01*
X006147Y010324D02*
X011197Y010324D01*
X011472Y009150D02*
X011197Y008875D01*
X011197Y008485D01*
X011472Y008210D01*
X011854Y008210D01*
X012767Y007297D01*
X012767Y004763D01*
X011654Y003650D01*
X011472Y003650D01*
X011278Y003456D01*
X008554Y003456D01*
X008525Y003525D01*
X008382Y003669D01*
X008354Y003680D01*
X008382Y003691D01*
X008525Y003835D01*
X008603Y004022D01*
X008603Y004225D01*
X008525Y004413D01*
X008382Y004556D01*
X008347Y004570D01*
X008381Y004588D01*
X008451Y004638D01*
X008512Y004700D01*
X008563Y004770D01*
X008602Y004847D01*
X008629Y004929D01*
X008643Y005015D01*
X008643Y005048D01*
X008103Y005048D01*
X008103Y005068D01*
X008643Y005068D01*
X008643Y005101D01*
X008629Y005187D01*
X008602Y005269D01*
X008563Y005346D01*
X008512Y005416D01*
X008451Y005477D01*
X008381Y005528D01*
X008304Y005568D01*
X008222Y005594D01*
X008136Y005608D01*
X008103Y005608D01*
X008103Y005068D01*
X008083Y005068D01*
X008083Y005608D01*
X008049Y005608D01*
X007964Y005594D01*
X007882Y005568D01*
X007804Y005528D01*
X007921Y005810D01*
X007921Y006117D01*
X007803Y006401D01*
X007586Y006619D01*
X007302Y006737D01*
X006994Y006737D01*
X006710Y006619D01*
X006492Y006401D01*
X006375Y006117D01*
X006375Y005810D01*
X006492Y005526D01*
X006710Y005308D01*
X006994Y005190D01*
X007302Y005190D01*
X007586Y005308D01*
X007621Y005343D01*
X007583Y005269D01*
X007556Y005187D01*
X007543Y005101D01*
X007543Y005068D01*
X008083Y005068D01*
X008083Y005048D01*
X007543Y005048D01*
X007543Y005015D01*
X007556Y004929D01*
X007583Y004847D01*
X007622Y004770D01*
X007673Y004700D01*
X007734Y004638D01*
X007804Y004588D01*
X007838Y004570D01*
X007804Y004556D01*
X007660Y004413D01*
X007583Y004225D01*
X007583Y004022D01*
X007660Y003835D01*
X007804Y003691D01*
X007831Y003680D01*
X007804Y003669D01*
X007660Y003525D01*
X007583Y003338D01*
X007583Y003135D01*
X007660Y002947D01*
X007804Y002804D01*
X007888Y002769D01*
X007804Y002734D01*
X007660Y002591D01*
X007583Y002403D01*
X007583Y002201D01*
X007660Y002013D01*
X007804Y001870D01*
X007991Y001792D01*
X008194Y001792D01*
X008382Y001870D01*
X008525Y002013D01*
X008603Y002201D01*
X008603Y002403D01*
X008525Y002591D01*
X008382Y002734D01*
X008298Y002769D01*
X008382Y002804D01*
X008525Y002947D01*
X008554Y003016D01*
X011197Y003016D01*
X011197Y002985D01*
X011472Y002710D01*
X011861Y002710D01*
X012131Y002980D01*
X013050Y002980D01*
X014550Y004480D01*
X015041Y004480D01*
X015068Y004414D01*
X015201Y004282D01*
X015373Y004210D01*
X015560Y004210D01*
X015733Y004282D01*
X015865Y004414D01*
X015937Y004587D01*
X015937Y004773D01*
X015865Y004946D01*
X015733Y005078D01*
X015560Y005150D01*
X015373Y005150D01*
X015201Y005078D01*
X015068Y004946D01*
X015041Y004880D01*
X014384Y004880D01*
X014267Y004763D01*
X012884Y003380D01*
X012131Y003380D01*
X012041Y003471D01*
X013050Y004480D01*
X013167Y004597D01*
X013167Y007463D01*
X012137Y008493D01*
X012137Y008875D01*
X011861Y009150D01*
X011472Y009150D01*
X011378Y009056D02*
X006147Y009056D01*
X006147Y008898D02*
X011220Y008898D01*
X011197Y008739D02*
X009707Y008739D01*
X009701Y008745D02*
X009233Y008745D01*
X008902Y008414D01*
X008902Y007946D01*
X009233Y007615D01*
X009701Y007615D01*
X010032Y007946D01*
X010032Y008414D01*
X009701Y008745D01*
X009865Y008581D02*
X011197Y008581D01*
X011260Y008422D02*
X010024Y008422D01*
X010032Y008264D02*
X011419Y008264D01*
X011959Y008105D02*
X010032Y008105D01*
X010032Y007947D02*
X012117Y007947D01*
X012276Y007788D02*
X009874Y007788D01*
X009715Y007630D02*
X012434Y007630D01*
X012593Y007471D02*
X006147Y007471D01*
X006147Y007313D02*
X012751Y007313D01*
X012767Y007154D02*
X006147Y007154D01*
X006147Y006996D02*
X011118Y006996D01*
X011068Y006946D02*
X010997Y006773D01*
X010997Y006587D01*
X011068Y006414D01*
X011201Y006282D01*
X011373Y006210D01*
X011560Y006210D01*
X011733Y006282D01*
X011865Y006414D01*
X011937Y006587D01*
X011937Y006773D01*
X011865Y006946D01*
X011733Y007078D01*
X011560Y007150D01*
X011373Y007150D01*
X011201Y007078D01*
X011068Y006946D01*
X011023Y006837D02*
X006147Y006837D01*
X006147Y006679D02*
X006854Y006679D01*
X006611Y006520D02*
X006147Y006520D01*
X006147Y006362D02*
X006476Y006362D01*
X006410Y006203D02*
X006147Y006203D01*
X006147Y006045D02*
X006375Y006045D01*
X006375Y005886D02*
X006147Y005886D01*
X006147Y005728D02*
X006409Y005728D01*
X006474Y005569D02*
X006147Y005569D01*
X006147Y005411D02*
X006608Y005411D01*
X006845Y005252D02*
X006147Y005252D01*
X006147Y005094D02*
X007543Y005094D01*
X007555Y004935D02*
X007253Y004935D01*
X007187Y004962D02*
X007333Y004902D01*
X007445Y004790D01*
X007505Y004645D01*
X007505Y004487D01*
X007445Y004341D01*
X007333Y004230D01*
X007187Y004169D01*
X007030Y004169D01*
X006884Y004230D01*
X006772Y004341D01*
X006712Y004487D01*
X006712Y004645D01*
X006772Y004790D01*
X006884Y004902D01*
X007030Y004962D01*
X007187Y004962D01*
X006964Y004935D02*
X006147Y004935D01*
X006147Y004777D02*
X006767Y004777D01*
X006712Y004618D02*
X006147Y004618D01*
X006147Y004460D02*
X006723Y004460D01*
X006813Y004301D02*
X006147Y004301D01*
X006147Y004143D02*
X007583Y004143D01*
X007599Y003984D02*
X006147Y003984D01*
X006147Y003826D02*
X007670Y003826D01*
X007802Y003667D02*
X006147Y003667D01*
X006147Y003509D02*
X007653Y003509D01*
X007588Y003350D02*
X006147Y003350D01*
X006147Y003192D02*
X007583Y003192D01*
X007625Y003033D02*
X007430Y003033D01*
X007445Y003019D02*
X007333Y003130D01*
X007187Y003191D01*
X007030Y003191D01*
X006884Y003130D01*
X006772Y003019D01*
X006712Y002873D01*
X006712Y002715D01*
X006772Y002570D01*
X006884Y002458D01*
X007030Y002398D01*
X007187Y002398D01*
X007333Y002458D01*
X007445Y002570D01*
X007505Y002715D01*
X007505Y002873D01*
X007445Y003019D01*
X007504Y002875D02*
X007733Y002875D01*
X007785Y002716D02*
X007505Y002716D01*
X007433Y002558D02*
X007647Y002558D01*
X007583Y002399D02*
X007191Y002399D01*
X007026Y002399D02*
X006147Y002399D01*
X006147Y002241D02*
X007583Y002241D01*
X007632Y002082D02*
X007513Y002082D01*
X007586Y002052D02*
X007302Y002170D01*
X006994Y002170D01*
X006710Y002052D01*
X006492Y001834D01*
X006375Y001550D01*
X006375Y001243D01*
X006492Y000959D01*
X006710Y000741D01*
X006994Y000623D01*
X007302Y000623D01*
X007586Y000741D01*
X007803Y000959D01*
X007921Y001243D01*
X007921Y001550D01*
X007803Y001834D01*
X007586Y002052D01*
X007714Y001924D02*
X007750Y001924D01*
X007832Y001765D02*
X011197Y001765D01*
X011197Y001875D02*
X011197Y001485D01*
X011472Y001210D01*
X011861Y001210D01*
X012137Y001485D01*
X012137Y001875D01*
X011861Y002150D01*
X011472Y002150D01*
X011197Y001875D01*
X011246Y001924D02*
X008435Y001924D01*
X008554Y002082D02*
X011404Y002082D01*
X011197Y001607D02*
X007898Y001607D01*
X007921Y001448D02*
X011234Y001448D01*
X011393Y001290D02*
X007921Y001290D01*
X007875Y001131D02*
X017527Y001131D01*
X017527Y000973D02*
X007809Y000973D01*
X007659Y000814D02*
X017527Y000814D01*
X017527Y000792D02*
X017594Y000631D01*
X017718Y000507D01*
X017879Y000440D01*
X018054Y000440D01*
X018216Y000507D01*
X018340Y000631D01*
X018407Y000792D01*
X018407Y001568D01*
X018340Y001729D01*
X018216Y001853D01*
X018167Y001873D01*
X018167Y003570D01*
X018193Y003581D01*
X018306Y003693D01*
X018367Y003840D01*
X018367Y004520D01*
X018306Y004667D01*
X018193Y004779D01*
X018046Y004840D01*
X017887Y004840D01*
X017740Y004779D01*
X017628Y004667D01*
X017567Y004520D01*
X017567Y003840D01*
X017628Y003693D01*
X017740Y003581D01*
X017767Y003570D01*
X017767Y001873D01*
X017718Y001853D01*
X017594Y001729D01*
X017527Y001568D01*
X017527Y000792D01*
X017584Y000656D02*
X007379Y000656D01*
X006917Y000656D02*
X006202Y000656D01*
X006153Y000814D02*
X006637Y000814D01*
X006487Y000973D02*
X006147Y000973D01*
X006147Y001131D02*
X006421Y001131D01*
X006375Y001290D02*
X006147Y001290D01*
X006147Y001448D02*
X006375Y001448D01*
X006398Y001607D02*
X006147Y001607D01*
X006147Y001765D02*
X006464Y001765D01*
X006582Y001924D02*
X006147Y001924D01*
X006147Y002082D02*
X006783Y002082D01*
X006784Y002558D02*
X006147Y002558D01*
X006147Y002716D02*
X006712Y002716D01*
X006713Y002875D02*
X006147Y002875D01*
X006147Y003033D02*
X006787Y003033D01*
X008093Y003236D02*
X011610Y003236D01*
X011667Y003180D01*
X012026Y002875D02*
X014908Y002875D01*
X014797Y002985D02*
X015072Y002710D01*
X015461Y002710D01*
X015737Y002985D01*
X015737Y003375D01*
X015461Y003650D01*
X015072Y003650D01*
X014797Y003375D01*
X014797Y002985D01*
X014797Y003033D02*
X013103Y003033D01*
X013261Y003192D02*
X014797Y003192D01*
X014797Y003350D02*
X013420Y003350D01*
X013578Y003509D02*
X014931Y003509D01*
X015603Y003509D02*
X017767Y003509D01*
X017767Y003350D02*
X015737Y003350D01*
X015737Y003192D02*
X017767Y003192D01*
X017767Y003033D02*
X015737Y003033D01*
X015626Y002875D02*
X017767Y002875D01*
X017767Y002716D02*
X015467Y002716D01*
X015066Y002716D02*
X011867Y002716D01*
X011466Y002716D02*
X008400Y002716D01*
X008452Y002875D02*
X011308Y002875D01*
X011331Y003509D02*
X008532Y003509D01*
X008383Y003667D02*
X011671Y003667D01*
X011829Y003826D02*
X008516Y003826D01*
X008587Y003984D02*
X011988Y003984D01*
X012146Y004143D02*
X008603Y004143D01*
X008571Y004301D02*
X011125Y004301D01*
X011135Y004291D02*
X011199Y004244D01*
X011271Y004207D01*
X011347Y004183D01*
X011427Y004170D01*
X011437Y004170D01*
X011437Y004650D01*
X011497Y004650D01*
X011497Y004710D01*
X011977Y004710D01*
X011977Y004720D01*
X011964Y004799D01*
X011939Y004876D01*
X011903Y004947D01*
X011856Y005012D01*
X011799Y005069D01*
X011734Y005116D01*
X011663Y005153D01*
X011586Y005177D01*
X011507Y005190D01*
X011497Y005190D01*
X011497Y004710D01*
X011437Y004710D01*
X011437Y005190D01*
X011427Y005190D01*
X011347Y005177D01*
X011271Y005153D01*
X011199Y005116D01*
X011135Y005069D01*
X011078Y005012D01*
X011031Y004947D01*
X010994Y004876D01*
X010969Y004799D01*
X010957Y004720D01*
X010957Y004710D01*
X011437Y004710D01*
X011437Y004650D01*
X010957Y004650D01*
X010957Y004640D01*
X010969Y004561D01*
X010994Y004484D01*
X011031Y004413D01*
X011078Y004348D01*
X011135Y004291D01*
X011007Y004460D02*
X008478Y004460D01*
X008423Y004618D02*
X010960Y004618D01*
X010966Y004777D02*
X008567Y004777D01*
X008630Y004935D02*
X011024Y004935D01*
X011168Y005094D02*
X008643Y005094D01*
X008608Y005252D02*
X012767Y005252D01*
X012767Y005094D02*
X011765Y005094D01*
X011909Y004935D02*
X012767Y004935D01*
X012767Y004777D02*
X011968Y004777D01*
X011977Y004650D02*
X011497Y004650D01*
X011497Y004170D01*
X011507Y004170D01*
X011586Y004183D01*
X011663Y004207D01*
X011734Y004244D01*
X011799Y004291D01*
X011856Y004348D01*
X011903Y004413D01*
X011939Y004484D01*
X011964Y004561D01*
X011977Y004640D01*
X011977Y004650D01*
X011973Y004618D02*
X012622Y004618D01*
X012463Y004460D02*
X011927Y004460D01*
X011809Y004301D02*
X012305Y004301D01*
X012554Y003984D02*
X013488Y003984D01*
X013646Y004143D02*
X012712Y004143D01*
X012871Y004301D02*
X013805Y004301D01*
X013963Y004460D02*
X013029Y004460D01*
X013167Y004618D02*
X014122Y004618D01*
X014280Y004777D02*
X013167Y004777D01*
X013167Y004935D02*
X015064Y004935D01*
X015237Y005094D02*
X013167Y005094D01*
X013167Y005252D02*
X023192Y005252D01*
X023187Y005160D02*
X023187Y005142D01*
X023199Y005068D01*
X023222Y004996D01*
X023256Y004928D01*
X023301Y004867D01*
X023354Y004814D01*
X023415Y004769D01*
X023483Y004735D01*
X023554Y004712D01*
X023629Y004700D01*
X023947Y004700D01*
X023947Y005160D01*
X023987Y005160D01*
X023987Y005200D01*
X024747Y005200D01*
X024747Y005218D01*
X024735Y005292D01*
X024712Y005364D01*
X024677Y005432D01*
X024633Y005493D01*
X024579Y005546D01*
X024518Y005591D01*
X024451Y005625D01*
X024379Y005648D01*
X024305Y005660D01*
X023987Y005660D01*
X023987Y005200D01*
X023947Y005200D01*
X023947Y005160D01*
X023187Y005160D01*
X023194Y005094D02*
X015697Y005094D01*
X015870Y004935D02*
X023253Y004935D01*
X023406Y004777D02*
X021196Y004777D01*
X021326Y004618D02*
X025472Y004618D01*
X025472Y004460D02*
X021367Y004460D01*
X021367Y004301D02*
X025472Y004301D01*
X025472Y004143D02*
X023577Y004143D01*
X023467Y004160D02*
X023467Y004160D01*
X023924Y004088D01*
X023924Y004088D01*
X024337Y003877D01*
X024337Y003877D01*
X024664Y003550D01*
X024664Y003550D01*
X024874Y003137D01*
X024874Y003137D01*
X024947Y002680D01*
X024874Y002223D01*
X024874Y002223D01*
X024664Y001810D01*
X024664Y001810D01*
X024337Y001483D01*
X024337Y001483D01*
X023924Y001272D01*
X023924Y001272D01*
X023467Y001200D01*
X023467Y001200D01*
X023009Y001272D01*
X023009Y001272D01*
X022597Y001483D01*
X022597Y001483D01*
X022269Y001810D01*
X022269Y001810D01*
X022059Y002223D01*
X022059Y002223D01*
X021987Y002680D01*
X021987Y002680D01*
X022059Y003137D01*
X022059Y003137D01*
X022269Y003550D01*
X022269Y003550D01*
X022597Y003877D01*
X022597Y003877D01*
X023009Y004088D01*
X023009Y004088D01*
X023467Y004160D01*
X023356Y004143D02*
X021367Y004143D01*
X021367Y003984D02*
X022806Y003984D01*
X022545Y003826D02*
X021361Y003826D01*
X021279Y003667D02*
X022387Y003667D01*
X022248Y003509D02*
X021167Y003509D01*
X021167Y003350D02*
X022168Y003350D01*
X022087Y003192D02*
X021167Y003192D01*
X021167Y003033D02*
X022043Y003033D01*
X022018Y002875D02*
X021167Y002875D01*
X021167Y002716D02*
X021992Y002716D01*
X022006Y002558D02*
X021167Y002558D01*
X021167Y002399D02*
X022031Y002399D01*
X022056Y002241D02*
X021167Y002241D01*
X021167Y002082D02*
X022131Y002082D01*
X022212Y001924D02*
X021167Y001924D01*
X021304Y001765D02*
X022315Y001765D01*
X022473Y001607D02*
X021391Y001607D01*
X021407Y001448D02*
X022665Y001448D01*
X022976Y001290D02*
X021407Y001290D01*
X021407Y001131D02*
X024594Y001131D01*
X024753Y001290D02*
X023958Y001290D01*
X024269Y001448D02*
X024888Y001448D01*
X024994Y001607D02*
X024461Y001607D01*
X024619Y001765D02*
X025099Y001765D01*
X025182Y001924D02*
X024722Y001924D01*
X024803Y002082D02*
X025247Y002082D01*
X025313Y002241D02*
X024877Y002241D01*
X024902Y002399D02*
X025365Y002399D01*
X025396Y002558D02*
X024927Y002558D01*
X024941Y002716D02*
X025428Y002716D01*
X025459Y002875D02*
X024916Y002875D01*
X024891Y003033D02*
X025466Y003033D01*
X025472Y003192D02*
X024847Y003192D01*
X024766Y003350D02*
X025472Y003350D01*
X025472Y003509D02*
X024685Y003509D01*
X024547Y003667D02*
X025472Y003667D01*
X025472Y003826D02*
X024389Y003826D01*
X024127Y003984D02*
X025472Y003984D01*
X025472Y004777D02*
X024528Y004777D01*
X024518Y004769D02*
X024579Y004814D01*
X024633Y004867D01*
X024677Y004928D01*
X024712Y004996D01*
X024735Y005068D01*
X024747Y005142D01*
X024747Y005160D01*
X023987Y005160D01*
X023987Y004700D01*
X024305Y004700D01*
X024379Y004712D01*
X024451Y004735D01*
X024518Y004769D01*
X024681Y004935D02*
X025472Y004935D01*
X025472Y005094D02*
X024739Y005094D01*
X024741Y005252D02*
X025472Y005252D01*
X025472Y005411D02*
X024688Y005411D01*
X024548Y005569D02*
X025472Y005569D01*
X023987Y005569D02*
X023947Y005569D01*
X023947Y005411D02*
X023987Y005411D01*
X023987Y005252D02*
X023947Y005252D01*
X023947Y005094D02*
X023987Y005094D01*
X023987Y004935D02*
X023947Y004935D01*
X023947Y004777D02*
X023987Y004777D01*
X023339Y005886D02*
X022456Y005886D01*
X024667Y006996D02*
X025472Y006996D01*
X025472Y007154D02*
X024707Y007154D01*
X024688Y007313D02*
X025472Y007313D01*
X025472Y007471D02*
X024598Y007471D01*
X023484Y008581D02*
X019849Y008581D01*
X019691Y008739D02*
X023767Y008739D01*
X023901Y008898D02*
X019532Y008898D01*
X019374Y009056D02*
X024060Y009056D01*
X024218Y009215D02*
X019215Y009215D01*
X019057Y009373D02*
X024377Y009373D01*
X024535Y009532D02*
X018898Y009532D01*
X018740Y009690D02*
X024694Y009690D01*
X024767Y009849D02*
X023932Y009849D01*
X023932Y009797D02*
X023932Y010563D01*
X023850Y010645D01*
X023084Y010645D01*
X023002Y010563D01*
X023002Y010380D01*
X020432Y010380D01*
X020432Y010563D01*
X020350Y010645D01*
X019584Y010645D01*
X019502Y010563D01*
X019502Y009797D01*
X019584Y009715D01*
X020350Y009715D01*
X020432Y009797D01*
X020432Y009980D01*
X023002Y009980D01*
X023002Y009797D01*
X023084Y009715D01*
X023850Y009715D01*
X023932Y009797D01*
X023932Y010007D02*
X024767Y010007D01*
X024767Y010166D02*
X023932Y010166D01*
X023932Y010324D02*
X024767Y010324D01*
X024767Y010483D02*
X023932Y010483D01*
X023854Y010641D02*
X024767Y010641D01*
X024767Y010800D02*
X023800Y010800D01*
X023796Y010795D02*
X023852Y010851D01*
X023899Y010915D01*
X023935Y010986D01*
X023959Y011062D01*
X023972Y011140D01*
X023972Y011180D01*
X023972Y011220D01*
X023959Y011298D01*
X023935Y011374D01*
X023899Y011445D01*
X023852Y011509D01*
X023796Y011565D01*
X023731Y011612D01*
X023661Y011648D01*
X023585Y011673D01*
X023507Y011685D01*
X023467Y011685D01*
X023467Y011180D01*
X023972Y011180D01*
X023467Y011180D01*
X023467Y011180D01*
X023467Y011180D01*
X023467Y010675D01*
X023507Y010675D01*
X023585Y010687D01*
X023661Y010712D01*
X023731Y010748D01*
X023796Y010795D01*
X023920Y010958D02*
X024767Y010958D01*
X024767Y011117D02*
X023968Y011117D01*
X023963Y011275D02*
X024767Y011275D01*
X024767Y011434D02*
X023904Y011434D01*
X023759Y011592D02*
X024767Y011592D01*
X024751Y011751D02*
X017667Y011751D01*
X017667Y011909D02*
X024642Y011909D01*
X024533Y012068D02*
X017667Y012068D01*
X017667Y012226D02*
X024423Y012226D01*
X024314Y012385D02*
X017667Y012385D01*
X017667Y012543D02*
X024205Y012543D01*
X024095Y012702D02*
X017667Y012702D01*
X017667Y012860D02*
X021970Y012860D01*
X021948Y012864D02*
X022033Y012850D01*
X022057Y012850D01*
X022057Y013380D01*
X022097Y013380D01*
X022097Y013420D01*
X022627Y013420D01*
X022627Y013443D01*
X022613Y013529D01*
X022586Y013611D01*
X022547Y013688D01*
X022496Y013758D01*
X022435Y013820D01*
X022365Y013870D01*
X022288Y013910D01*
X022206Y013936D01*
X022120Y013950D01*
X022097Y013950D01*
X022097Y013420D01*
X022057Y013420D01*
X022057Y013950D01*
X022033Y013950D01*
X021948Y013936D01*
X021866Y013910D01*
X021789Y013870D01*
X021718Y013820D01*
X021657Y013758D01*
X021606Y013688D01*
X021567Y013611D01*
X021540Y013529D01*
X021527Y013443D01*
X021527Y013420D01*
X022057Y013420D01*
X022057Y013380D01*
X021527Y013380D01*
X021527Y013357D01*
X021540Y013271D01*
X021567Y013189D01*
X021606Y013112D01*
X021657Y013042D01*
X021718Y012980D01*
X021789Y012930D01*
X021866Y012890D01*
X021948Y012864D01*
X022057Y012860D02*
X022097Y012860D01*
X022097Y012850D02*
X022120Y012850D01*
X022206Y012864D01*
X022288Y012890D01*
X022365Y012930D01*
X022435Y012980D01*
X022496Y013042D01*
X022547Y013112D01*
X022586Y013189D01*
X022613Y013271D01*
X022627Y013357D01*
X022627Y013380D01*
X022097Y013380D01*
X022097Y012850D01*
X022183Y012860D02*
X023986Y012860D01*
X023517Y013019D02*
X022473Y013019D01*
X022580Y013177D02*
X023397Y013177D01*
X023347Y013336D02*
X022623Y013336D01*
X022619Y013494D02*
X023347Y013494D01*
X023409Y013653D02*
X022565Y013653D01*
X022444Y013811D02*
X023547Y013811D01*
X023657Y013970D02*
X017667Y013970D01*
X017667Y014128D02*
X023657Y014128D01*
X023657Y014287D02*
X017738Y014287D01*
X017896Y014445D02*
X023657Y014445D01*
X023657Y014604D02*
X017937Y014604D01*
X017937Y014762D02*
X023657Y014762D01*
X023657Y014921D02*
X017891Y014921D01*
X017732Y015079D02*
X023657Y015079D01*
X023657Y015238D02*
X017689Y015238D01*
X017086Y015396D02*
X009667Y015396D01*
X009837Y015483D02*
X009837Y015483D01*
X009909Y015555D02*
X016997Y015555D01*
X016997Y015713D02*
X010067Y015713D01*
X010195Y015872D02*
X016997Y015872D01*
X017152Y016030D02*
X010276Y016030D01*
X010357Y016189D02*
X017267Y016189D01*
X017351Y016347D02*
X010394Y016347D01*
X010419Y016506D02*
X017509Y016506D01*
X017668Y016664D02*
X010444Y016664D01*
X010424Y016823D02*
X017826Y016823D01*
X017985Y016981D02*
X010399Y016981D01*
X010373Y017140D02*
X018143Y017140D01*
X022057Y016347D02*
X022097Y016347D01*
X022097Y016189D02*
X022057Y016189D01*
X022057Y016030D02*
X022097Y016030D01*
X022097Y015872D02*
X022057Y015872D01*
X022057Y015713D02*
X022097Y015713D01*
X022097Y015555D02*
X022057Y015555D01*
X020178Y013890D02*
X019967Y013890D01*
X019967Y013380D01*
X020477Y013380D01*
X019967Y013380D01*
X019967Y013380D01*
X019967Y013380D01*
X019967Y012870D01*
X020178Y012870D01*
X020477Y013169D01*
X020477Y013380D01*
X020477Y013591D01*
X020178Y013890D01*
X020257Y013811D02*
X021710Y013811D01*
X021588Y013653D02*
X020415Y013653D01*
X020477Y013494D02*
X021535Y013494D01*
X021530Y013336D02*
X020477Y013336D01*
X020477Y013177D02*
X021573Y013177D01*
X021680Y013019D02*
X020327Y013019D01*
X019967Y013019D02*
X019967Y013019D01*
X019967Y012870D02*
X019967Y013380D01*
X019967Y013380D01*
X019967Y013890D01*
X019756Y013890D01*
X019457Y013591D01*
X019457Y013380D01*
X019457Y013169D01*
X019756Y012870D01*
X019967Y012870D01*
X019967Y013177D02*
X019967Y013177D01*
X019967Y013336D02*
X019967Y013336D01*
X019967Y013380D02*
X019457Y013380D01*
X019967Y013380D01*
X019967Y013380D01*
X019967Y013494D02*
X019967Y013494D01*
X019967Y013653D02*
X019967Y013653D01*
X019967Y013811D02*
X019967Y013811D01*
X019677Y013811D02*
X017667Y013811D01*
X017667Y013653D02*
X019518Y013653D01*
X019457Y013494D02*
X017667Y013494D01*
X017667Y013336D02*
X019457Y013336D01*
X019457Y013177D02*
X017667Y013177D01*
X017667Y013019D02*
X019607Y013019D01*
X019849Y011673D02*
X019773Y011648D01*
X019702Y011612D01*
X019638Y011565D01*
X019582Y011509D01*
X019535Y011445D01*
X019499Y011374D01*
X019474Y011298D01*
X019462Y011220D01*
X019462Y011180D01*
X019462Y011140D01*
X019474Y011062D01*
X019499Y010986D01*
X019535Y010915D01*
X019582Y010851D01*
X019638Y010795D01*
X019702Y010748D01*
X019773Y010712D01*
X019849Y010687D01*
X019927Y010675D01*
X019967Y010675D01*
X020007Y010675D01*
X020085Y010687D01*
X020161Y010712D01*
X020231Y010748D01*
X020296Y010795D01*
X020352Y010851D01*
X020399Y010915D01*
X020435Y010986D01*
X020459Y011062D01*
X020472Y011140D01*
X020472Y011180D01*
X020472Y011220D01*
X020459Y011298D01*
X020435Y011374D01*
X020399Y011445D01*
X020352Y011509D01*
X020296Y011565D01*
X020231Y011612D01*
X020161Y011648D01*
X020085Y011673D01*
X020007Y011685D01*
X019967Y011685D01*
X019967Y011180D01*
X020472Y011180D01*
X019967Y011180D01*
X019967Y011180D01*
X019967Y011180D01*
X019967Y010675D01*
X019967Y011180D01*
X019967Y011180D01*
X019967Y011685D01*
X019927Y011685D01*
X019849Y011673D01*
X019967Y011592D02*
X019967Y011592D01*
X019967Y011434D02*
X019967Y011434D01*
X019967Y011275D02*
X019967Y011275D01*
X019967Y011180D02*
X019967Y011180D01*
X019462Y011180D01*
X019967Y011180D01*
X019967Y011117D02*
X019967Y011117D01*
X019967Y010958D02*
X019967Y010958D01*
X019967Y010800D02*
X019967Y010800D01*
X020300Y010800D02*
X023133Y010800D01*
X023138Y010795D02*
X023202Y010748D01*
X023273Y010712D01*
X023349Y010687D01*
X023427Y010675D01*
X023467Y010675D01*
X023467Y011180D01*
X023467Y011180D01*
X023467Y011685D01*
X023427Y011685D01*
X023349Y011673D01*
X023273Y011648D01*
X023202Y011612D01*
X023138Y011565D01*
X023082Y011509D01*
X023035Y011445D01*
X022999Y011374D01*
X022974Y011298D01*
X022962Y011220D01*
X022962Y011180D01*
X022962Y011140D01*
X022974Y011062D01*
X022999Y010986D01*
X023035Y010915D01*
X023082Y010851D01*
X023138Y010795D01*
X023080Y010641D02*
X020354Y010641D01*
X020432Y010483D02*
X023002Y010483D01*
X023467Y010800D02*
X023467Y010800D01*
X023467Y010958D02*
X023467Y010958D01*
X023467Y011117D02*
X023467Y011117D01*
X023467Y011180D02*
X022962Y011180D01*
X023467Y011180D01*
X023467Y011180D01*
X023467Y011275D02*
X023467Y011275D01*
X023467Y011434D02*
X023467Y011434D01*
X023467Y011592D02*
X023467Y011592D01*
X023175Y011592D02*
X020259Y011592D01*
X020404Y011434D02*
X023029Y011434D01*
X022971Y011275D02*
X020463Y011275D01*
X020468Y011117D02*
X022966Y011117D01*
X023013Y010958D02*
X020420Y010958D01*
X019633Y010800D02*
X017667Y010800D01*
X017667Y010958D02*
X019513Y010958D01*
X019466Y011117D02*
X017667Y011117D01*
X017667Y011275D02*
X019471Y011275D01*
X019529Y011434D02*
X017667Y011434D01*
X017667Y011592D02*
X019675Y011592D01*
X019580Y010641D02*
X017789Y010641D01*
X017947Y010483D02*
X019502Y010483D01*
X019502Y010324D02*
X018106Y010324D01*
X018264Y010166D02*
X019502Y010166D01*
X019502Y010007D02*
X018423Y010007D01*
X018581Y009849D02*
X019502Y009849D01*
X020432Y009849D02*
X023002Y009849D01*
X019759Y008105D02*
X012525Y008105D01*
X012683Y007947D02*
X019767Y007947D01*
X019600Y008264D02*
X015515Y008264D01*
X015673Y008422D02*
X019442Y008422D01*
X017967Y007788D02*
X017967Y007788D01*
X017967Y007630D02*
X017967Y007630D01*
X017967Y007471D02*
X017967Y007471D01*
X017967Y007313D02*
X017967Y007313D01*
X017967Y007180D02*
X017967Y007180D01*
X017527Y007180D01*
X017967Y007180D01*
X017967Y007154D02*
X017967Y007154D01*
X017967Y006996D02*
X017967Y006996D01*
X017967Y006837D02*
X017967Y006837D01*
X017967Y006679D02*
X017967Y006679D01*
X017598Y006679D02*
X015497Y006679D01*
X015437Y006679D02*
X013167Y006679D01*
X013167Y006837D02*
X014982Y006837D01*
X015066Y006996D02*
X013167Y006996D01*
X013167Y007154D02*
X015275Y007154D01*
X015437Y007154D02*
X015497Y007154D01*
X015497Y006996D02*
X015437Y006996D01*
X015437Y006837D02*
X015497Y006837D01*
X015658Y007154D02*
X017527Y007154D01*
X017527Y006996D02*
X015868Y006996D01*
X015952Y006837D02*
X017534Y006837D01*
X017527Y007313D02*
X013167Y007313D01*
X013159Y007471D02*
X017527Y007471D01*
X017570Y007630D02*
X013000Y007630D01*
X012842Y007788D02*
X017697Y007788D01*
X015497Y006520D02*
X015437Y006520D01*
X015437Y006362D02*
X015497Y006362D01*
X015068Y006362D02*
X013167Y006362D01*
X013167Y006520D02*
X014983Y006520D01*
X015019Y008264D02*
X012366Y008264D01*
X012208Y008422D02*
X014860Y008422D01*
X014797Y008581D02*
X012137Y008581D01*
X012137Y008739D02*
X014797Y008739D01*
X014820Y008898D02*
X012114Y008898D01*
X011955Y009056D02*
X014978Y009056D01*
X012767Y006996D02*
X011816Y006996D01*
X011910Y006837D02*
X012767Y006837D01*
X012767Y006679D02*
X011937Y006679D01*
X011909Y006520D02*
X012767Y006520D01*
X012767Y006362D02*
X011813Y006362D01*
X011121Y006362D02*
X007820Y006362D01*
X007885Y006203D02*
X012767Y006203D01*
X012767Y006045D02*
X007921Y006045D01*
X007921Y005886D02*
X012767Y005886D01*
X012767Y005728D02*
X007887Y005728D01*
X007886Y005569D02*
X007821Y005569D01*
X007804Y005528D02*
X007804Y005528D01*
X008083Y005569D02*
X008103Y005569D01*
X008103Y005411D02*
X008083Y005411D01*
X008083Y005252D02*
X008103Y005252D01*
X008103Y005094D02*
X008083Y005094D01*
X008516Y005411D02*
X012767Y005411D01*
X012767Y005569D02*
X008300Y005569D01*
X007578Y005252D02*
X007450Y005252D01*
X007450Y004777D02*
X007619Y004777D01*
X007505Y004618D02*
X007763Y004618D01*
X007707Y004460D02*
X007494Y004460D01*
X007404Y004301D02*
X007614Y004301D01*
X008539Y002558D02*
X017767Y002558D01*
X017767Y002399D02*
X008603Y002399D01*
X008603Y002241D02*
X017767Y002241D01*
X017767Y002082D02*
X015529Y002082D01*
X015461Y002150D02*
X015737Y001875D01*
X015737Y001485D01*
X015461Y001210D01*
X015072Y001210D01*
X014797Y001485D01*
X014797Y001875D01*
X015072Y002150D01*
X015461Y002150D01*
X015688Y001924D02*
X017767Y001924D01*
X017630Y001765D02*
X015737Y001765D01*
X015737Y001607D02*
X017543Y001607D01*
X017527Y001448D02*
X015699Y001448D01*
X015541Y001290D02*
X017527Y001290D01*
X018167Y001924D02*
X018767Y001924D01*
X018767Y002082D02*
X018167Y002082D01*
X018167Y002241D02*
X018767Y002241D01*
X018767Y002399D02*
X018167Y002399D01*
X018167Y002558D02*
X018767Y002558D01*
X018767Y002716D02*
X018167Y002716D01*
X018167Y002875D02*
X018767Y002875D01*
X018767Y003033D02*
X018167Y003033D01*
X018167Y003192D02*
X018767Y003192D01*
X018767Y003350D02*
X018167Y003350D01*
X018167Y003509D02*
X018767Y003509D01*
X018654Y003667D02*
X018279Y003667D01*
X018361Y003826D02*
X018573Y003826D01*
X018567Y003984D02*
X018367Y003984D01*
X018367Y004143D02*
X018567Y004143D01*
X018567Y004301D02*
X018367Y004301D01*
X018367Y004460D02*
X018567Y004460D01*
X018608Y004618D02*
X018326Y004618D01*
X018196Y004777D02*
X018738Y004777D01*
X017738Y004777D02*
X015936Y004777D01*
X015937Y004618D02*
X017608Y004618D01*
X017567Y004460D02*
X015884Y004460D01*
X015752Y004301D02*
X017567Y004301D01*
X017567Y004143D02*
X014212Y004143D01*
X014371Y004301D02*
X015181Y004301D01*
X015049Y004460D02*
X014529Y004460D01*
X014054Y003984D02*
X017567Y003984D01*
X017573Y003826D02*
X013895Y003826D01*
X013737Y003667D02*
X017654Y003667D01*
X018304Y001765D02*
X018630Y001765D01*
X018543Y001607D02*
X018391Y001607D01*
X018407Y001448D02*
X018527Y001448D01*
X018527Y001290D02*
X018407Y001290D01*
X018407Y001131D02*
X018527Y001131D01*
X018527Y000973D02*
X018407Y000973D01*
X018407Y000814D02*
X018527Y000814D01*
X018584Y000656D02*
X018350Y000656D01*
X018192Y000497D02*
X018742Y000497D01*
X017742Y000497D02*
X006325Y000497D01*
X011437Y004301D02*
X011497Y004301D01*
X011497Y004460D02*
X011437Y004460D01*
X011437Y004618D02*
X011497Y004618D01*
X011497Y004777D02*
X011437Y004777D01*
X011437Y004935D02*
X011497Y004935D01*
X011497Y005094D02*
X011437Y005094D01*
X012395Y003826D02*
X013329Y003826D01*
X013171Y003667D02*
X012237Y003667D01*
X012078Y003509D02*
X013012Y003509D01*
X011929Y002082D02*
X015004Y002082D01*
X014846Y001924D02*
X012088Y001924D01*
X012137Y001765D02*
X014797Y001765D01*
X014797Y001607D02*
X012137Y001607D01*
X012099Y001448D02*
X014834Y001448D01*
X014993Y001290D02*
X011941Y001290D01*
X011024Y006520D02*
X007685Y006520D01*
X007442Y006679D02*
X010997Y006679D01*
X009218Y007630D02*
X008215Y007630D01*
X008201Y007615D02*
X008532Y007946D01*
X008532Y008414D01*
X008201Y008745D01*
X007733Y008745D01*
X007402Y008414D01*
X007402Y007946D01*
X007733Y007615D01*
X008201Y007615D01*
X008374Y007788D02*
X009060Y007788D01*
X008902Y007947D02*
X008532Y007947D01*
X008532Y008105D02*
X008902Y008105D01*
X008902Y008264D02*
X008532Y008264D01*
X008524Y008422D02*
X008910Y008422D01*
X009068Y008581D02*
X008365Y008581D01*
X008207Y008739D02*
X009227Y008739D01*
X009133Y009215D02*
X008300Y009215D01*
X008459Y009373D02*
X008975Y009373D01*
X008902Y009532D02*
X008532Y009532D01*
X008532Y009690D02*
X008902Y009690D01*
X008902Y009849D02*
X008532Y009849D01*
X008439Y010007D02*
X008995Y010007D01*
X007653Y010166D02*
X006147Y010166D01*
X006147Y010007D02*
X007495Y010007D01*
X007402Y009849D02*
X006147Y009849D01*
X006147Y009690D02*
X007402Y009690D01*
X007402Y009532D02*
X006147Y009532D01*
X006147Y009373D02*
X007475Y009373D01*
X007633Y009215D02*
X006147Y009215D01*
X006147Y008739D02*
X007727Y008739D01*
X007568Y008581D02*
X006147Y008581D01*
X006147Y008422D02*
X007410Y008422D01*
X007402Y008264D02*
X006147Y008264D01*
X006147Y008105D02*
X007402Y008105D01*
X007402Y007947D02*
X006147Y007947D01*
X006147Y007788D02*
X007560Y007788D01*
X007718Y007630D02*
X006147Y007630D01*
X012907Y013019D02*
X013027Y013019D01*
X013072Y013177D02*
X012861Y013177D01*
X012734Y013336D02*
X013200Y013336D01*
X013734Y013336D02*
X014143Y013336D01*
X014028Y013177D02*
X013861Y013177D01*
X013907Y013019D02*
X013987Y013019D01*
X013987Y012860D02*
X013907Y012860D01*
X013907Y012702D02*
X013987Y012702D01*
X013987Y012543D02*
X013907Y012543D01*
X013907Y012385D02*
X013987Y012385D01*
X014012Y012226D02*
X013879Y012226D01*
X013777Y012068D02*
X014100Y012068D01*
X014447Y012068D02*
X014487Y012068D01*
X014487Y012226D02*
X014447Y012226D01*
X014447Y012385D02*
X014487Y012385D01*
X014487Y012543D02*
X014447Y012543D01*
X014447Y012702D02*
X014487Y012702D01*
X014487Y012860D02*
X014447Y012860D01*
X014447Y013019D02*
X014487Y013019D01*
X014487Y013177D02*
X014447Y013177D01*
X014447Y013336D02*
X014487Y013336D01*
X014790Y013336D02*
X015143Y013336D01*
X015028Y013177D02*
X014905Y013177D01*
X014947Y013019D02*
X014987Y013019D01*
X014987Y012860D02*
X014947Y012860D01*
X014947Y012702D02*
X014987Y012702D01*
X014987Y012543D02*
X014947Y012543D01*
X014947Y012385D02*
X014987Y012385D01*
X015012Y012226D02*
X014921Y012226D01*
X014833Y012068D02*
X015100Y012068D01*
X015447Y012068D02*
X015487Y012068D01*
X015487Y012226D02*
X015447Y012226D01*
X015447Y012385D02*
X015487Y012385D01*
X015487Y012543D02*
X015447Y012543D01*
X015447Y012702D02*
X015487Y012702D01*
X015487Y012860D02*
X015447Y012860D01*
X015447Y013019D02*
X015487Y013019D01*
X015487Y013177D02*
X015447Y013177D01*
X015447Y013336D02*
X015487Y013336D01*
X015790Y013336D02*
X017267Y013336D01*
X017267Y013177D02*
X015905Y013177D01*
X015947Y013019D02*
X017267Y013019D01*
X017267Y012860D02*
X015947Y012860D01*
X015947Y012702D02*
X017267Y012702D01*
X017267Y012543D02*
X015947Y012543D01*
X015947Y012385D02*
X017267Y012385D01*
X017267Y012226D02*
X015921Y012226D01*
X015833Y012068D02*
X017267Y012068D01*
X022057Y013019D02*
X022097Y013019D01*
X022097Y013177D02*
X022057Y013177D01*
X022057Y013336D02*
X022097Y013336D01*
X022097Y013494D02*
X022057Y013494D01*
X022057Y013653D02*
X022097Y013653D01*
X022097Y013811D02*
X022057Y013811D01*
X024595Y018408D02*
X008338Y018408D01*
X008537Y018566D02*
X024462Y018566D01*
X024294Y018725D02*
X008784Y018725D01*
X009030Y018883D02*
X024106Y018883D01*
X023911Y019042D02*
X009320Y019042D01*
X009667Y019200D02*
X023636Y019200D01*
X023349Y019359D02*
X010062Y019359D01*
X010602Y019517D02*
X022914Y019517D01*
X022072Y019676D02*
X011691Y019676D01*
X021407Y000973D02*
X024426Y000973D01*
X024189Y000814D02*
X021407Y000814D01*
X021350Y000656D02*
X023921Y000656D01*
X023539Y000497D02*
X021192Y000497D01*
D22*
X017467Y009680D03*
M02*
