G75*
%MOIN*%
%OFA0B0*%
%FSLAX24Y24*%
%IPPOS*%
%LPD*%
%AMOC8*
5,1,8,0,0,1.08239X$1,22.5*
%
%ADD10C,0.0000*%
%ADD11C,0.0057*%
D10*
X005967Y000887D02*
X005967Y013875D01*
X008416Y016680D02*
X008418Y016727D01*
X008424Y016773D01*
X008434Y016819D01*
X008447Y016864D01*
X008465Y016907D01*
X008486Y016949D01*
X008510Y016989D01*
X008538Y017026D01*
X008569Y017061D01*
X008603Y017094D01*
X008639Y017123D01*
X008678Y017149D01*
X008719Y017172D01*
X008762Y017191D01*
X008806Y017207D01*
X008851Y017219D01*
X008897Y017227D01*
X008944Y017231D01*
X008990Y017231D01*
X009037Y017227D01*
X009083Y017219D01*
X009128Y017207D01*
X009172Y017191D01*
X009215Y017172D01*
X009256Y017149D01*
X009295Y017123D01*
X009331Y017094D01*
X009365Y017061D01*
X009396Y017026D01*
X009424Y016989D01*
X009448Y016949D01*
X009469Y016907D01*
X009487Y016864D01*
X009500Y016819D01*
X009510Y016773D01*
X009516Y016727D01*
X009518Y016680D01*
X009516Y016633D01*
X009510Y016587D01*
X009500Y016541D01*
X009487Y016496D01*
X009469Y016453D01*
X009448Y016411D01*
X009424Y016371D01*
X009396Y016334D01*
X009365Y016299D01*
X009331Y016266D01*
X009295Y016237D01*
X009256Y016211D01*
X009215Y016188D01*
X009172Y016169D01*
X009128Y016153D01*
X009083Y016141D01*
X009037Y016133D01*
X008990Y016129D01*
X008944Y016129D01*
X008897Y016133D01*
X008851Y016141D01*
X008806Y016153D01*
X008762Y016169D01*
X008719Y016188D01*
X008678Y016211D01*
X008639Y016237D01*
X008603Y016266D01*
X008569Y016299D01*
X008538Y016334D01*
X008510Y016371D01*
X008486Y016411D01*
X008465Y016453D01*
X008447Y016496D01*
X008434Y016541D01*
X008424Y016587D01*
X008418Y016633D01*
X008416Y016680D01*
X005967Y013875D02*
X005969Y014027D01*
X005975Y014178D01*
X005984Y014330D01*
X005998Y014481D01*
X006015Y014632D01*
X006036Y014782D01*
X006061Y014932D01*
X006090Y015081D01*
X006122Y015229D01*
X006158Y015376D01*
X006198Y015523D01*
X006242Y015668D01*
X006289Y015812D01*
X006340Y015955D01*
X006394Y016097D01*
X006452Y016237D01*
X006514Y016376D01*
X006579Y016513D01*
X006648Y016648D01*
X006720Y016782D01*
X006795Y016914D01*
X006874Y017043D01*
X006956Y017171D01*
X007041Y017297D01*
X007129Y017420D01*
X007220Y017542D01*
X007315Y017660D01*
X007412Y017777D01*
X007512Y017891D01*
X007615Y018002D01*
X007721Y018111D01*
X007830Y018217D01*
X007941Y018320D01*
X008055Y018420D01*
X008172Y018517D01*
X008290Y018612D01*
X008412Y018703D01*
X008535Y018791D01*
X008661Y018876D01*
X008789Y018958D01*
X008918Y019037D01*
X009050Y019112D01*
X009184Y019184D01*
X009319Y019253D01*
X009456Y019318D01*
X009595Y019380D01*
X009735Y019438D01*
X009877Y019492D01*
X010020Y019543D01*
X010164Y019590D01*
X010309Y019634D01*
X010456Y019674D01*
X010603Y019710D01*
X010751Y019742D01*
X010900Y019771D01*
X011050Y019796D01*
X011200Y019817D01*
X011351Y019834D01*
X011502Y019848D01*
X011654Y019857D01*
X011805Y019863D01*
X011957Y019865D01*
X021855Y019865D01*
X021977Y019863D01*
X022098Y019857D01*
X022220Y019847D01*
X022341Y019834D01*
X022461Y019816D01*
X022581Y019795D01*
X022700Y019770D01*
X022818Y019741D01*
X022935Y019708D01*
X023051Y019672D01*
X023166Y019631D01*
X023280Y019588D01*
X023392Y019540D01*
X023502Y019489D01*
X023611Y019434D01*
X023718Y019376D01*
X023823Y019315D01*
X023926Y019250D01*
X024027Y019182D01*
X024126Y019111D01*
X024222Y019037D01*
X024316Y018959D01*
X024408Y018879D01*
X024497Y018796D01*
X024583Y018710D01*
X024666Y018621D01*
X024746Y018529D01*
X024824Y018435D01*
X024898Y018339D01*
X024969Y018240D01*
X025037Y018139D01*
X025102Y018036D01*
X025163Y017931D01*
X025221Y017824D01*
X025276Y017715D01*
X025327Y017605D01*
X025375Y017493D01*
X025418Y017379D01*
X025459Y017264D01*
X025495Y017148D01*
X025528Y017031D01*
X025557Y016913D01*
X025582Y016794D01*
X025603Y016674D01*
X025621Y016554D01*
X025634Y016433D01*
X025644Y016311D01*
X025650Y016190D01*
X025652Y016068D01*
X025652Y003142D01*
X022916Y002680D02*
X022918Y002727D01*
X022924Y002773D01*
X022934Y002819D01*
X022947Y002864D01*
X022965Y002907D01*
X022986Y002949D01*
X023010Y002989D01*
X023038Y003026D01*
X023069Y003061D01*
X023103Y003094D01*
X023139Y003123D01*
X023178Y003149D01*
X023219Y003172D01*
X023262Y003191D01*
X023306Y003207D01*
X023351Y003219D01*
X023397Y003227D01*
X023444Y003231D01*
X023490Y003231D01*
X023537Y003227D01*
X023583Y003219D01*
X023628Y003207D01*
X023672Y003191D01*
X023715Y003172D01*
X023756Y003149D01*
X023795Y003123D01*
X023831Y003094D01*
X023865Y003061D01*
X023896Y003026D01*
X023924Y002989D01*
X023948Y002949D01*
X023969Y002907D01*
X023987Y002864D01*
X024000Y002819D01*
X024010Y002773D01*
X024016Y002727D01*
X024018Y002680D01*
X024016Y002633D01*
X024010Y002587D01*
X024000Y002541D01*
X023987Y002496D01*
X023969Y002453D01*
X023948Y002411D01*
X023924Y002371D01*
X023896Y002334D01*
X023865Y002299D01*
X023831Y002266D01*
X023795Y002237D01*
X023756Y002211D01*
X023715Y002188D01*
X023672Y002169D01*
X023628Y002153D01*
X023583Y002141D01*
X023537Y002133D01*
X023490Y002129D01*
X023444Y002129D01*
X023397Y002133D01*
X023351Y002141D01*
X023306Y002153D01*
X023262Y002169D01*
X023219Y002188D01*
X023178Y002211D01*
X023139Y002237D01*
X023103Y002266D01*
X023069Y002299D01*
X023038Y002334D01*
X023010Y002371D01*
X022986Y002411D01*
X022965Y002453D01*
X022947Y002496D01*
X022934Y002541D01*
X022924Y002587D01*
X022918Y002633D01*
X022916Y002680D01*
X022690Y000180D02*
X022798Y000182D01*
X022906Y000188D01*
X023014Y000198D01*
X023121Y000212D01*
X023228Y000229D01*
X023334Y000251D01*
X023439Y000276D01*
X023543Y000306D01*
X023646Y000339D01*
X023748Y000375D01*
X023848Y000416D01*
X023947Y000460D01*
X024044Y000508D01*
X024140Y000559D01*
X024233Y000614D01*
X024324Y000672D01*
X024413Y000733D01*
X024500Y000798D01*
X024585Y000865D01*
X024667Y000936D01*
X024746Y001010D01*
X024822Y001086D01*
X024896Y001165D01*
X024967Y001247D01*
X025034Y001332D01*
X025099Y001419D01*
X025160Y001508D01*
X025218Y001599D01*
X025273Y001692D01*
X025324Y001788D01*
X025372Y001885D01*
X025416Y001984D01*
X025457Y002084D01*
X025493Y002186D01*
X025526Y002289D01*
X025556Y002393D01*
X025581Y002498D01*
X025603Y002604D01*
X025620Y002711D01*
X025634Y002818D01*
X025644Y002926D01*
X025650Y003034D01*
X025652Y003142D01*
X022690Y000180D02*
X006674Y000180D01*
X006624Y000182D01*
X006573Y000187D01*
X006524Y000196D01*
X006475Y000209D01*
X006427Y000225D01*
X006380Y000244D01*
X006335Y000266D01*
X006292Y000292D01*
X006250Y000321D01*
X006211Y000353D01*
X006174Y000387D01*
X006140Y000424D01*
X006108Y000463D01*
X006079Y000505D01*
X006053Y000548D01*
X006031Y000593D01*
X006012Y000640D01*
X005996Y000688D01*
X005983Y000737D01*
X005974Y000786D01*
X005969Y000837D01*
X005967Y000887D01*
X006892Y002794D02*
X006894Y002823D01*
X006900Y002851D01*
X006909Y002879D01*
X006922Y002905D01*
X006939Y002928D01*
X006958Y002950D01*
X006980Y002969D01*
X007005Y002984D01*
X007031Y002997D01*
X007059Y003005D01*
X007087Y003010D01*
X007116Y003011D01*
X007145Y003008D01*
X007173Y003001D01*
X007200Y002991D01*
X007226Y002977D01*
X007249Y002960D01*
X007270Y002940D01*
X007288Y002917D01*
X007303Y002892D01*
X007314Y002865D01*
X007322Y002837D01*
X007326Y002808D01*
X007326Y002780D01*
X007322Y002751D01*
X007314Y002723D01*
X007303Y002696D01*
X007288Y002671D01*
X007270Y002648D01*
X007249Y002628D01*
X007226Y002611D01*
X007200Y002597D01*
X007173Y002587D01*
X007145Y002580D01*
X007116Y002577D01*
X007087Y002578D01*
X007059Y002583D01*
X007031Y002591D01*
X007005Y002604D01*
X006980Y002619D01*
X006958Y002638D01*
X006939Y002660D01*
X006922Y002683D01*
X006909Y002709D01*
X006900Y002737D01*
X006894Y002765D01*
X006892Y002794D01*
X006892Y004566D02*
X006894Y004595D01*
X006900Y004623D01*
X006909Y004651D01*
X006922Y004677D01*
X006939Y004700D01*
X006958Y004722D01*
X006980Y004741D01*
X007005Y004756D01*
X007031Y004769D01*
X007059Y004777D01*
X007087Y004782D01*
X007116Y004783D01*
X007145Y004780D01*
X007173Y004773D01*
X007200Y004763D01*
X007226Y004749D01*
X007249Y004732D01*
X007270Y004712D01*
X007288Y004689D01*
X007303Y004664D01*
X007314Y004637D01*
X007322Y004609D01*
X007326Y004580D01*
X007326Y004552D01*
X007322Y004523D01*
X007314Y004495D01*
X007303Y004468D01*
X007288Y004443D01*
X007270Y004420D01*
X007249Y004400D01*
X007226Y004383D01*
X007200Y004369D01*
X007173Y004359D01*
X007145Y004352D01*
X007116Y004349D01*
X007087Y004350D01*
X007059Y004355D01*
X007031Y004363D01*
X007005Y004376D01*
X006980Y004391D01*
X006958Y004410D01*
X006939Y004432D01*
X006922Y004455D01*
X006909Y004481D01*
X006900Y004509D01*
X006894Y004537D01*
X006892Y004566D01*
D11*
X012000Y013540D02*
X015848Y017387D01*
X014487Y016660D02*
X014484Y016625D01*
X014484Y016589D01*
X014487Y016554D01*
X014515Y016547D02*
X014523Y016618D01*
X014523Y016661D02*
X014521Y016668D01*
X014516Y016674D01*
X014509Y016677D01*
X014501Y016677D01*
X014494Y016674D01*
X014489Y016668D01*
X014487Y016661D01*
X014644Y016604D02*
X014656Y016597D01*
X014666Y016587D01*
X014674Y016575D01*
X014679Y016561D01*
X014681Y016547D01*
X014680Y016533D01*
X014672Y016532D02*
X013197Y016532D01*
X013176Y016532D02*
X013174Y016544D01*
X013176Y016556D01*
X013182Y016567D01*
X013190Y016576D01*
X013069Y016511D02*
X013071Y016527D01*
X013077Y016543D01*
X013086Y016557D01*
X013098Y016568D01*
X013112Y016576D01*
X013128Y016581D01*
X013144Y016582D01*
X013160Y016579D01*
X013175Y016572D01*
X013189Y016563D01*
X013199Y016550D01*
X013207Y016535D01*
X013211Y016519D01*
X013211Y016503D01*
X013207Y016487D01*
X013199Y016472D01*
X013189Y016459D01*
X013176Y016450D01*
X013160Y016443D01*
X013144Y016440D01*
X013128Y016441D01*
X013112Y016446D01*
X013098Y016454D01*
X013086Y016465D01*
X013077Y016479D01*
X013071Y016495D01*
X013069Y016511D01*
X013062Y016511D02*
X013062Y016504D01*
X013062Y016511D02*
X014758Y016511D01*
X014765Y016511D01*
X014772Y016511D01*
X014765Y016511D02*
X014758Y016511D01*
X014772Y016511D02*
X014780Y016509D01*
X014787Y016505D01*
X014791Y016498D01*
X014793Y016490D01*
X014793Y016475D01*
X014793Y016454D01*
X014792Y016449D01*
X014789Y016444D01*
X014784Y016441D01*
X014779Y016440D01*
X014665Y016440D01*
X014052Y016440D01*
X013468Y016440D01*
X013126Y016440D01*
X013169Y016433D02*
X013368Y014466D01*
X013361Y014302D02*
X013363Y014322D01*
X013369Y014340D01*
X013378Y014358D01*
X013390Y014373D01*
X013405Y014385D01*
X013423Y014394D01*
X013441Y014400D01*
X013461Y014402D01*
X013481Y014400D01*
X013499Y014394D01*
X013517Y014385D01*
X013532Y014373D01*
X013544Y014358D01*
X013553Y014340D01*
X013559Y014322D01*
X013561Y014302D01*
X013559Y014282D01*
X013553Y014264D01*
X013544Y014246D01*
X013532Y014231D01*
X013517Y014219D01*
X013499Y014210D01*
X013481Y014204D01*
X013461Y014202D01*
X013441Y014204D01*
X013423Y014210D01*
X013405Y014219D01*
X013390Y014231D01*
X013378Y014246D01*
X013369Y014264D01*
X013363Y014282D01*
X013361Y014302D01*
X013276Y014302D02*
X013278Y014329D01*
X013284Y014355D01*
X013293Y014381D01*
X013307Y014404D01*
X013323Y014425D01*
X013343Y014444D01*
X013365Y014460D01*
X013389Y014472D01*
X013414Y014481D01*
X013441Y014486D01*
X013468Y014487D01*
X013495Y014484D01*
X013521Y014477D01*
X013546Y014467D01*
X013569Y014452D01*
X013589Y014435D01*
X013607Y014415D01*
X013622Y014393D01*
X013634Y014368D01*
X013642Y014342D01*
X013646Y014316D01*
X013646Y014288D01*
X013642Y014262D01*
X013634Y014236D01*
X013622Y014211D01*
X013607Y014189D01*
X013589Y014169D01*
X013569Y014152D01*
X013546Y014137D01*
X013521Y014127D01*
X013495Y014120D01*
X013468Y014117D01*
X013441Y014118D01*
X013414Y014123D01*
X013389Y014132D01*
X013365Y014144D01*
X013343Y014160D01*
X013323Y014179D01*
X013307Y014200D01*
X013293Y014223D01*
X013284Y014249D01*
X013278Y014275D01*
X013276Y014302D01*
X013653Y014281D02*
X014373Y014274D01*
X014394Y014260D02*
X014394Y014167D01*
X014393Y014156D01*
X014388Y014146D01*
X014381Y014137D01*
X014373Y014130D01*
X014362Y014125D01*
X014351Y014124D01*
X014337Y014124D01*
X014326Y014126D01*
X014316Y014131D01*
X014308Y014139D01*
X014303Y014149D01*
X014301Y014160D01*
X014302Y014160D02*
X014302Y014260D01*
X014415Y014280D02*
X014430Y014283D01*
X014443Y014290D01*
X014454Y014299D01*
X014463Y014310D01*
X014470Y014323D01*
X014473Y014338D01*
X014679Y016433D01*
X014643Y016604D02*
X014615Y016615D01*
X014587Y016625D01*
X014558Y016632D01*
X014523Y016618D02*
X014524Y016639D01*
X014523Y016660D01*
X014116Y016668D02*
X014081Y016668D01*
X014081Y016689D02*
X014081Y016632D01*
X013753Y016632D01*
X013753Y016689D01*
X014081Y016689D01*
X013746Y016668D02*
X013611Y016661D01*
X013233Y016596D02*
X013218Y016591D01*
X013204Y016584D01*
X013190Y016575D01*
X013062Y016504D02*
X013064Y016490D01*
X013068Y016476D01*
X013076Y016464D01*
X013086Y016454D01*
X013098Y016446D01*
X013112Y016442D01*
X013126Y016440D01*
X013141Y016311D02*
X013155Y016310D01*
X013169Y016311D01*
X013140Y016311D02*
X013126Y016312D01*
X013111Y016310D01*
X013098Y016305D01*
X013086Y016297D01*
X013076Y016287D01*
X013068Y016275D01*
X013064Y016261D01*
X013062Y016247D01*
X013062Y016205D01*
X013064Y016189D01*
X013069Y016174D01*
X013077Y016161D01*
X013089Y016150D01*
X013102Y016141D01*
X013117Y016136D01*
X013133Y016134D01*
X013133Y016133D02*
X013183Y016133D01*
X013639Y015891D02*
X013639Y015841D01*
X013640Y015832D01*
X013645Y015824D01*
X013651Y015818D01*
X013659Y015813D01*
X013668Y015812D01*
X013668Y015813D02*
X014002Y015813D01*
X014013Y015814D01*
X014024Y015819D01*
X014032Y015826D01*
X014039Y015835D01*
X014044Y015845D01*
X014045Y015856D01*
X014045Y015877D01*
X014045Y015898D01*
X014472Y016646D02*
X014515Y016640D01*
X014558Y016632D01*
X013375Y016633D02*
X013327Y016623D01*
X013280Y016611D01*
X013233Y016597D01*
X011986Y017402D02*
X015862Y013526D01*
X014416Y014281D02*
X014395Y014279D01*
X014373Y014274D01*
X014472Y016647D02*
X014384Y016656D01*
X014294Y016663D01*
X014205Y016667D01*
X014116Y016668D01*
X013610Y016661D02*
X013532Y016655D01*
X013453Y016645D01*
X013375Y016632D01*
M02*
