%
M48
M72
T01C0.0236
T02C0.0276
T03C0.0320
T04C0.0360
T05C0.0400
T06C0.0433
T07C0.0440
T08C0.0470
T09C0.0866
T10C0.1102
%
T01
X17467Y9680
T02
X19967Y10180
X19967Y11180
X23467Y11180
X23467Y10180
T03
X17467Y15680
X17467Y14680
X19967Y13380
X19967Y16980
X15267Y10180
X15267Y8680
X17967Y7180
X18967Y7180
X19967Y7180
X20967Y7180
X20967Y4180
X19967Y4180
X18967Y4180
X17967Y4180
X15267Y3180
X15267Y1680
X11667Y1680
X11667Y3180
X11667Y8680
X11667Y10180
T04
X8093Y5058
X8093Y4124
X8093Y3236
X8093Y2302
T05
X23967Y5180
X23967Y6180
X23967Y7180
X23967Y8180
X23857Y13400
X22077Y13400
X22077Y15960
X23857Y15960
X15467Y12680
X14467Y12680
X13467Y12680
X12467Y12680
X20967Y1180
X19967Y1180
X18967Y1180
X17967Y1180
T06
X7109Y2794
X7109Y4566
T07
X11467Y4680
X11467Y6680
X15467Y6680
X15467Y4680
T08
X7967Y14180
X9467Y14180
X9467Y12680
X7967Y12680
X7967Y11180
X9467Y11180
X9467Y9680
X7967Y9680
X7967Y8180
X9467Y8180
T09
X7148Y5963
X7148Y1397
T10
X8967Y16680
X23467Y2680
M30
