G75*
%MOIN*%
%OFA0B0*%
%FSLAX24Y24*%
%IPPOS*%
%LPD*%
%AMOC8*
5,1,8,0,0,1.08239X$1,22.5*
%
%ADD10C,0.0000*%
%ADD11C,0.0030*%
%ADD12C,0.0070*%
%ADD13C,0.0060*%
%ADD14C,0.0050*%
%ADD15R,0.0340X0.0240*%
%ADD16R,0.0200X0.1000*%
%ADD17R,0.0750X0.0300*%
%ADD18C,0.0080*%
%ADD19C,0.0010*%
%ADD20R,0.0240X0.0340*%
%ADD21C,0.0040*%
%ADD22C,0.0057*%
D10*
X005967Y000887D02*
X005967Y013875D01*
X008416Y016680D02*
X008418Y016727D01*
X008424Y016773D01*
X008434Y016819D01*
X008447Y016864D01*
X008465Y016907D01*
X008486Y016949D01*
X008510Y016989D01*
X008538Y017026D01*
X008569Y017061D01*
X008603Y017094D01*
X008639Y017123D01*
X008678Y017149D01*
X008719Y017172D01*
X008762Y017191D01*
X008806Y017207D01*
X008851Y017219D01*
X008897Y017227D01*
X008944Y017231D01*
X008990Y017231D01*
X009037Y017227D01*
X009083Y017219D01*
X009128Y017207D01*
X009172Y017191D01*
X009215Y017172D01*
X009256Y017149D01*
X009295Y017123D01*
X009331Y017094D01*
X009365Y017061D01*
X009396Y017026D01*
X009424Y016989D01*
X009448Y016949D01*
X009469Y016907D01*
X009487Y016864D01*
X009500Y016819D01*
X009510Y016773D01*
X009516Y016727D01*
X009518Y016680D01*
X009516Y016633D01*
X009510Y016587D01*
X009500Y016541D01*
X009487Y016496D01*
X009469Y016453D01*
X009448Y016411D01*
X009424Y016371D01*
X009396Y016334D01*
X009365Y016299D01*
X009331Y016266D01*
X009295Y016237D01*
X009256Y016211D01*
X009215Y016188D01*
X009172Y016169D01*
X009128Y016153D01*
X009083Y016141D01*
X009037Y016133D01*
X008990Y016129D01*
X008944Y016129D01*
X008897Y016133D01*
X008851Y016141D01*
X008806Y016153D01*
X008762Y016169D01*
X008719Y016188D01*
X008678Y016211D01*
X008639Y016237D01*
X008603Y016266D01*
X008569Y016299D01*
X008538Y016334D01*
X008510Y016371D01*
X008486Y016411D01*
X008465Y016453D01*
X008447Y016496D01*
X008434Y016541D01*
X008424Y016587D01*
X008418Y016633D01*
X008416Y016680D01*
X005967Y013875D02*
X005969Y014027D01*
X005975Y014178D01*
X005984Y014330D01*
X005998Y014481D01*
X006015Y014632D01*
X006036Y014782D01*
X006061Y014932D01*
X006090Y015081D01*
X006122Y015229D01*
X006158Y015376D01*
X006198Y015523D01*
X006242Y015668D01*
X006289Y015812D01*
X006340Y015955D01*
X006394Y016097D01*
X006452Y016237D01*
X006514Y016376D01*
X006579Y016513D01*
X006648Y016648D01*
X006720Y016782D01*
X006795Y016914D01*
X006874Y017043D01*
X006956Y017171D01*
X007041Y017297D01*
X007129Y017420D01*
X007220Y017542D01*
X007315Y017660D01*
X007412Y017777D01*
X007512Y017891D01*
X007615Y018002D01*
X007721Y018111D01*
X007830Y018217D01*
X007941Y018320D01*
X008055Y018420D01*
X008172Y018517D01*
X008290Y018612D01*
X008412Y018703D01*
X008535Y018791D01*
X008661Y018876D01*
X008789Y018958D01*
X008918Y019037D01*
X009050Y019112D01*
X009184Y019184D01*
X009319Y019253D01*
X009456Y019318D01*
X009595Y019380D01*
X009735Y019438D01*
X009877Y019492D01*
X010020Y019543D01*
X010164Y019590D01*
X010309Y019634D01*
X010456Y019674D01*
X010603Y019710D01*
X010751Y019742D01*
X010900Y019771D01*
X011050Y019796D01*
X011200Y019817D01*
X011351Y019834D01*
X011502Y019848D01*
X011654Y019857D01*
X011805Y019863D01*
X011957Y019865D01*
X021855Y019865D01*
X021977Y019863D01*
X022098Y019857D01*
X022220Y019847D01*
X022341Y019834D01*
X022461Y019816D01*
X022581Y019795D01*
X022700Y019770D01*
X022818Y019741D01*
X022935Y019708D01*
X023051Y019672D01*
X023166Y019631D01*
X023280Y019588D01*
X023392Y019540D01*
X023502Y019489D01*
X023611Y019434D01*
X023718Y019376D01*
X023823Y019315D01*
X023926Y019250D01*
X024027Y019182D01*
X024126Y019111D01*
X024222Y019037D01*
X024316Y018959D01*
X024408Y018879D01*
X024497Y018796D01*
X024583Y018710D01*
X024666Y018621D01*
X024746Y018529D01*
X024824Y018435D01*
X024898Y018339D01*
X024969Y018240D01*
X025037Y018139D01*
X025102Y018036D01*
X025163Y017931D01*
X025221Y017824D01*
X025276Y017715D01*
X025327Y017605D01*
X025375Y017493D01*
X025418Y017379D01*
X025459Y017264D01*
X025495Y017148D01*
X025528Y017031D01*
X025557Y016913D01*
X025582Y016794D01*
X025603Y016674D01*
X025621Y016554D01*
X025634Y016433D01*
X025644Y016311D01*
X025650Y016190D01*
X025652Y016068D01*
X025652Y003142D01*
X022916Y002680D02*
X022918Y002727D01*
X022924Y002773D01*
X022934Y002819D01*
X022947Y002864D01*
X022965Y002907D01*
X022986Y002949D01*
X023010Y002989D01*
X023038Y003026D01*
X023069Y003061D01*
X023103Y003094D01*
X023139Y003123D01*
X023178Y003149D01*
X023219Y003172D01*
X023262Y003191D01*
X023306Y003207D01*
X023351Y003219D01*
X023397Y003227D01*
X023444Y003231D01*
X023490Y003231D01*
X023537Y003227D01*
X023583Y003219D01*
X023628Y003207D01*
X023672Y003191D01*
X023715Y003172D01*
X023756Y003149D01*
X023795Y003123D01*
X023831Y003094D01*
X023865Y003061D01*
X023896Y003026D01*
X023924Y002989D01*
X023948Y002949D01*
X023969Y002907D01*
X023987Y002864D01*
X024000Y002819D01*
X024010Y002773D01*
X024016Y002727D01*
X024018Y002680D01*
X024016Y002633D01*
X024010Y002587D01*
X024000Y002541D01*
X023987Y002496D01*
X023969Y002453D01*
X023948Y002411D01*
X023924Y002371D01*
X023896Y002334D01*
X023865Y002299D01*
X023831Y002266D01*
X023795Y002237D01*
X023756Y002211D01*
X023715Y002188D01*
X023672Y002169D01*
X023628Y002153D01*
X023583Y002141D01*
X023537Y002133D01*
X023490Y002129D01*
X023444Y002129D01*
X023397Y002133D01*
X023351Y002141D01*
X023306Y002153D01*
X023262Y002169D01*
X023219Y002188D01*
X023178Y002211D01*
X023139Y002237D01*
X023103Y002266D01*
X023069Y002299D01*
X023038Y002334D01*
X023010Y002371D01*
X022986Y002411D01*
X022965Y002453D01*
X022947Y002496D01*
X022934Y002541D01*
X022924Y002587D01*
X022918Y002633D01*
X022916Y002680D01*
X022690Y000180D02*
X022798Y000182D01*
X022906Y000188D01*
X023014Y000198D01*
X023121Y000212D01*
X023228Y000229D01*
X023334Y000251D01*
X023439Y000276D01*
X023543Y000306D01*
X023646Y000339D01*
X023748Y000375D01*
X023848Y000416D01*
X023947Y000460D01*
X024044Y000508D01*
X024140Y000559D01*
X024233Y000614D01*
X024324Y000672D01*
X024413Y000733D01*
X024500Y000798D01*
X024585Y000865D01*
X024667Y000936D01*
X024746Y001010D01*
X024822Y001086D01*
X024896Y001165D01*
X024967Y001247D01*
X025034Y001332D01*
X025099Y001419D01*
X025160Y001508D01*
X025218Y001599D01*
X025273Y001692D01*
X025324Y001788D01*
X025372Y001885D01*
X025416Y001984D01*
X025457Y002084D01*
X025493Y002186D01*
X025526Y002289D01*
X025556Y002393D01*
X025581Y002498D01*
X025603Y002604D01*
X025620Y002711D01*
X025634Y002818D01*
X025644Y002926D01*
X025650Y003034D01*
X025652Y003142D01*
X022690Y000180D02*
X006674Y000180D01*
X006624Y000182D01*
X006573Y000187D01*
X006524Y000196D01*
X006475Y000209D01*
X006427Y000225D01*
X006380Y000244D01*
X006335Y000266D01*
X006292Y000292D01*
X006250Y000321D01*
X006211Y000353D01*
X006174Y000387D01*
X006140Y000424D01*
X006108Y000463D01*
X006079Y000505D01*
X006053Y000548D01*
X006031Y000593D01*
X006012Y000640D01*
X005996Y000688D01*
X005983Y000737D01*
X005974Y000786D01*
X005969Y000837D01*
X005967Y000887D01*
X006892Y002794D02*
X006894Y002823D01*
X006900Y002851D01*
X006909Y002879D01*
X006922Y002905D01*
X006939Y002928D01*
X006958Y002950D01*
X006980Y002969D01*
X007005Y002984D01*
X007031Y002997D01*
X007059Y003005D01*
X007087Y003010D01*
X007116Y003011D01*
X007145Y003008D01*
X007173Y003001D01*
X007200Y002991D01*
X007226Y002977D01*
X007249Y002960D01*
X007270Y002940D01*
X007288Y002917D01*
X007303Y002892D01*
X007314Y002865D01*
X007322Y002837D01*
X007326Y002808D01*
X007326Y002780D01*
X007322Y002751D01*
X007314Y002723D01*
X007303Y002696D01*
X007288Y002671D01*
X007270Y002648D01*
X007249Y002628D01*
X007226Y002611D01*
X007200Y002597D01*
X007173Y002587D01*
X007145Y002580D01*
X007116Y002577D01*
X007087Y002578D01*
X007059Y002583D01*
X007031Y002591D01*
X007005Y002604D01*
X006980Y002619D01*
X006958Y002638D01*
X006939Y002660D01*
X006922Y002683D01*
X006909Y002709D01*
X006900Y002737D01*
X006894Y002765D01*
X006892Y002794D01*
X006892Y004566D02*
X006894Y004595D01*
X006900Y004623D01*
X006909Y004651D01*
X006922Y004677D01*
X006939Y004700D01*
X006958Y004722D01*
X006980Y004741D01*
X007005Y004756D01*
X007031Y004769D01*
X007059Y004777D01*
X007087Y004782D01*
X007116Y004783D01*
X007145Y004780D01*
X007173Y004773D01*
X007200Y004763D01*
X007226Y004749D01*
X007249Y004732D01*
X007270Y004712D01*
X007288Y004689D01*
X007303Y004664D01*
X007314Y004637D01*
X007322Y004609D01*
X007326Y004580D01*
X007326Y004552D01*
X007322Y004523D01*
X007314Y004495D01*
X007303Y004468D01*
X007288Y004443D01*
X007270Y004420D01*
X007249Y004400D01*
X007226Y004383D01*
X007200Y004369D01*
X007173Y004359D01*
X007145Y004352D01*
X007116Y004349D01*
X007087Y004350D01*
X007059Y004355D01*
X007031Y004363D01*
X007005Y004376D01*
X006980Y004391D01*
X006958Y004410D01*
X006939Y004432D01*
X006922Y004455D01*
X006909Y004481D01*
X006900Y004509D01*
X006894Y004537D01*
X006892Y004566D01*
D11*
X017581Y003117D02*
X017581Y002993D01*
X017643Y002932D01*
X017890Y002932D01*
X017643Y003179D01*
X017890Y003179D01*
X017952Y003117D01*
X017952Y002993D01*
X017890Y002932D01*
X017890Y002810D02*
X017952Y002748D01*
X017952Y002563D01*
X017581Y002563D01*
X017581Y002748D01*
X017643Y002810D01*
X017705Y002810D01*
X017767Y002748D01*
X017767Y002563D01*
X017767Y002442D02*
X017828Y002380D01*
X017828Y002195D01*
X017952Y002195D02*
X017581Y002195D01*
X017581Y002380D01*
X017643Y002442D01*
X017767Y002442D01*
X017767Y002748D02*
X017828Y002810D01*
X017890Y002810D01*
X017581Y003117D02*
X017643Y003179D01*
X018581Y003055D02*
X018952Y003055D01*
X018952Y002932D02*
X018952Y003179D01*
X018705Y002932D02*
X018581Y003055D01*
X018643Y002810D02*
X018705Y002810D01*
X018767Y002748D01*
X018767Y002563D01*
X018767Y002442D02*
X018828Y002380D01*
X018828Y002195D01*
X018952Y002195D02*
X018581Y002195D01*
X018581Y002380D01*
X018643Y002442D01*
X018767Y002442D01*
X018952Y002563D02*
X018952Y002748D01*
X018890Y002810D01*
X018828Y002810D01*
X018767Y002748D01*
X018643Y002810D02*
X018581Y002748D01*
X018581Y002563D01*
X018952Y002563D01*
X019581Y002563D02*
X019581Y002748D01*
X019643Y002810D01*
X019705Y002810D01*
X019767Y002748D01*
X019767Y002563D01*
X019767Y002442D02*
X019828Y002380D01*
X019828Y002195D01*
X019952Y002195D02*
X019581Y002195D01*
X019581Y002380D01*
X019643Y002442D01*
X019767Y002442D01*
X019952Y002563D02*
X019952Y002748D01*
X019890Y002810D01*
X019828Y002810D01*
X019767Y002748D01*
X019643Y002932D02*
X019581Y002993D01*
X019581Y003117D01*
X019643Y003179D01*
X019705Y003179D01*
X019952Y002932D01*
X019952Y003179D01*
X019952Y002563D02*
X019581Y002563D01*
X021081Y002625D02*
X021143Y002563D01*
X021390Y002563D01*
X021452Y002625D01*
X021452Y002748D01*
X021390Y002810D01*
X021390Y002932D02*
X021452Y002993D01*
X021452Y003117D01*
X021390Y003179D01*
X021143Y003179D02*
X021081Y003117D01*
X021081Y002993D01*
X021143Y002932D01*
X021390Y002932D01*
X021143Y002810D02*
X021081Y002748D01*
X021081Y002625D01*
X021081Y002442D02*
X021328Y002442D01*
X021452Y002318D01*
X021328Y002195D01*
X021081Y002195D01*
X021939Y005295D02*
X022062Y005295D01*
X022124Y005357D01*
X022124Y005480D01*
X022000Y005480D01*
X021877Y005357D02*
X021939Y005295D01*
X021877Y005357D02*
X021877Y005604D01*
X021939Y005665D01*
X022062Y005665D01*
X022124Y005604D01*
X022245Y005665D02*
X022245Y005295D01*
X022492Y005295D02*
X022492Y005665D01*
X022613Y005665D02*
X022799Y005665D01*
X022860Y005604D01*
X022860Y005357D01*
X022799Y005295D01*
X022613Y005295D01*
X022613Y005665D01*
X022245Y005665D02*
X022492Y005295D01*
X022430Y006295D02*
X022245Y006295D01*
X022245Y006665D01*
X022430Y006665D01*
X022492Y006604D01*
X022492Y006542D01*
X022430Y006480D01*
X022245Y006480D01*
X022124Y006480D02*
X022062Y006418D01*
X021877Y006418D01*
X021877Y006295D02*
X021877Y006665D01*
X022062Y006665D01*
X022124Y006604D01*
X022124Y006480D01*
X022430Y006480D02*
X022492Y006418D01*
X022492Y006357D01*
X022430Y006295D01*
X022613Y006480D02*
X022860Y006480D01*
X022799Y006295D02*
X022799Y006665D01*
X022613Y006480D01*
X022675Y007295D02*
X022613Y007357D01*
X022675Y007295D02*
X022799Y007295D01*
X022860Y007357D01*
X022860Y007418D01*
X022799Y007480D01*
X022737Y007480D01*
X022799Y007480D02*
X022860Y007542D01*
X022860Y007604D01*
X022799Y007665D01*
X022675Y007665D01*
X022613Y007604D01*
X022492Y007604D02*
X022492Y007542D01*
X022430Y007480D01*
X022245Y007480D01*
X022124Y007480D02*
X022062Y007418D01*
X021877Y007418D01*
X021877Y007295D02*
X021877Y007665D01*
X022062Y007665D01*
X022124Y007604D01*
X022124Y007480D01*
X022245Y007295D02*
X022430Y007295D01*
X022492Y007357D01*
X022492Y007418D01*
X022430Y007480D01*
X022492Y007604D02*
X022430Y007665D01*
X022245Y007665D01*
X022245Y007295D01*
X022245Y008295D02*
X022430Y008295D01*
X022492Y008357D01*
X022492Y008418D01*
X022430Y008480D01*
X022245Y008480D01*
X022124Y008480D02*
X022062Y008418D01*
X021877Y008418D01*
X021877Y008295D02*
X021877Y008665D01*
X022062Y008665D01*
X022124Y008604D01*
X022124Y008480D01*
X022245Y008295D02*
X022245Y008665D01*
X022430Y008665D01*
X022492Y008604D01*
X022492Y008542D01*
X022430Y008480D01*
X022613Y008480D02*
X022613Y008665D01*
X022860Y008665D01*
X022799Y008542D02*
X022860Y008480D01*
X022860Y008357D01*
X022799Y008295D01*
X022675Y008295D01*
X022613Y008357D01*
X022613Y008480D02*
X022737Y008542D01*
X022799Y008542D01*
X015852Y013652D02*
X015790Y013590D01*
X015543Y013590D01*
X015481Y013652D01*
X015481Y013775D01*
X015543Y013837D01*
X015667Y013837D02*
X015667Y013713D01*
X015667Y013837D02*
X015790Y013837D01*
X015852Y013775D01*
X015852Y013652D01*
X015852Y013958D02*
X015481Y013958D01*
X015852Y014205D01*
X015481Y014205D01*
X015481Y014327D02*
X015481Y014512D01*
X015543Y014574D01*
X015790Y014574D01*
X015852Y014512D01*
X015852Y014327D01*
X015481Y014327D01*
X014852Y014327D02*
X014852Y014512D01*
X014790Y014574D01*
X014543Y014574D01*
X014481Y014512D01*
X014481Y014327D01*
X014852Y014327D01*
X014852Y014205D02*
X014481Y014205D01*
X014481Y013958D02*
X014852Y014205D01*
X014852Y013958D02*
X014481Y013958D01*
X014543Y013837D02*
X014481Y013775D01*
X014481Y013652D01*
X014543Y013590D01*
X014790Y013590D01*
X014852Y013652D01*
X014852Y013775D01*
X014790Y013837D01*
X014667Y013837D01*
X014667Y013713D01*
X013452Y013818D02*
X013328Y013942D01*
X013081Y013942D01*
X013143Y014063D02*
X013390Y014063D01*
X013452Y014125D01*
X013452Y014248D01*
X013390Y014310D01*
X013390Y014432D02*
X013452Y014493D01*
X013452Y014617D01*
X013390Y014679D01*
X013143Y014679D02*
X013081Y014617D01*
X013081Y014493D01*
X013143Y014432D01*
X013390Y014432D01*
X013143Y014310D02*
X013081Y014248D01*
X013081Y014125D01*
X013143Y014063D01*
X013081Y013695D02*
X013328Y013695D01*
X013452Y013818D01*
X012452Y013818D02*
X012328Y013942D01*
X012081Y013942D01*
X012143Y014063D02*
X012081Y014125D01*
X012081Y014248D01*
X012143Y014310D01*
X012143Y014432D02*
X012390Y014432D01*
X012452Y014493D01*
X012452Y014617D01*
X012390Y014679D01*
X012143Y014679D02*
X012081Y014617D01*
X012081Y014493D01*
X012143Y014432D01*
X012390Y014310D02*
X012452Y014248D01*
X012452Y014125D01*
X012390Y014063D01*
X012143Y014063D01*
X012081Y013695D02*
X012328Y013695D01*
X012452Y013818D01*
D12*
X014197Y017951D02*
X014329Y017951D01*
X014460Y018083D01*
X014460Y018742D01*
X014725Y018742D02*
X014857Y018610D01*
X015120Y018610D01*
X015252Y018479D01*
X015252Y018347D01*
X015120Y018215D01*
X014857Y018215D01*
X014725Y018347D01*
X014725Y018479D01*
X014857Y018610D01*
X014725Y018742D02*
X014725Y018874D01*
X014857Y019006D01*
X015120Y019006D01*
X015252Y018874D01*
X015252Y018742D01*
X015120Y018610D01*
X015517Y018610D02*
X015517Y019006D01*
X016044Y019006D01*
X015912Y018742D02*
X016044Y018610D01*
X016044Y018347D01*
X015912Y018215D01*
X015649Y018215D01*
X015517Y018347D01*
X015517Y018610D02*
X015781Y018742D01*
X015912Y018742D01*
X017101Y018479D02*
X017364Y018215D01*
X017628Y018479D01*
X017628Y019006D01*
X017893Y018742D02*
X018156Y019006D01*
X018156Y018215D01*
X017893Y018215D02*
X018420Y018215D01*
X018684Y018215D02*
X018684Y018347D01*
X018816Y018347D01*
X018816Y018215D01*
X018684Y018215D01*
X019080Y018347D02*
X019608Y018874D01*
X019608Y018347D01*
X019476Y018215D01*
X019212Y018215D01*
X019080Y018347D01*
X019080Y018874D01*
X019212Y019006D01*
X019476Y019006D01*
X019608Y018874D01*
X020664Y019006D02*
X020664Y018479D01*
X020928Y018215D01*
X021191Y018479D01*
X021191Y019006D01*
X021456Y019006D02*
X021456Y018347D01*
X021588Y018215D01*
X021851Y018215D01*
X021983Y018347D01*
X021983Y019006D01*
X022248Y018874D02*
X022248Y018742D01*
X022380Y018610D01*
X022643Y018610D01*
X022775Y018479D01*
X022775Y018347D01*
X022643Y018215D01*
X022380Y018215D01*
X022248Y018347D01*
X022248Y018874D02*
X022380Y019006D01*
X022643Y019006D01*
X022775Y018874D01*
X023040Y019006D02*
X023435Y019006D01*
X023567Y018874D01*
X023567Y018742D01*
X023435Y018610D01*
X023040Y018610D01*
X023435Y018610D02*
X023567Y018479D01*
X023567Y018347D01*
X023435Y018215D01*
X023040Y018215D01*
X023040Y019006D01*
X017101Y019006D02*
X017101Y018479D01*
X014460Y018215D02*
X014065Y018215D01*
X013933Y018347D01*
X013933Y018742D01*
X013668Y018610D02*
X013668Y018215D01*
X013668Y018610D02*
X013537Y018742D01*
X013141Y018742D01*
X013141Y018215D01*
X012877Y018215D02*
X012613Y018215D01*
X012745Y018215D02*
X012745Y018742D01*
X012613Y018742D01*
X012349Y018742D02*
X012086Y018742D01*
X012217Y018874D02*
X012217Y018347D01*
X012349Y018215D01*
X011557Y018215D02*
X011557Y019006D01*
X011294Y019006D02*
X011821Y019006D01*
X011029Y018742D02*
X011029Y018215D01*
X011029Y018610D02*
X010502Y018610D01*
X010502Y018742D02*
X010765Y019006D01*
X011029Y018742D01*
X010502Y018742D02*
X010502Y018215D01*
X012745Y019006D02*
X012745Y019137D01*
D13*
X007817Y016680D02*
X007819Y016747D01*
X007825Y016815D01*
X007835Y016882D01*
X007849Y016948D01*
X007866Y017013D01*
X007888Y017077D01*
X007913Y017140D01*
X007942Y017201D01*
X007974Y017260D01*
X008010Y017317D01*
X008049Y017372D01*
X008091Y017425D01*
X008136Y017475D01*
X008184Y017522D01*
X008235Y017567D01*
X008288Y017608D01*
X008344Y017647D01*
X008402Y017682D01*
X008462Y017713D01*
X008523Y017741D01*
X008586Y017765D01*
X008650Y017786D01*
X008716Y017802D01*
X008782Y017815D01*
X008849Y017824D01*
X008916Y017829D01*
X008984Y017830D01*
X009051Y017827D01*
X009118Y017820D01*
X009185Y017809D01*
X009251Y017794D01*
X009316Y017776D01*
X009380Y017753D01*
X009442Y017727D01*
X009503Y017698D01*
X009561Y017664D01*
X009618Y017628D01*
X009673Y017588D01*
X009725Y017545D01*
X009774Y017499D01*
X009821Y017450D01*
X009865Y017399D01*
X009905Y017345D01*
X009943Y017289D01*
X009977Y017230D01*
X010007Y017170D01*
X010034Y017108D01*
X010058Y017045D01*
X010077Y016980D01*
X010093Y016915D01*
X010105Y016848D01*
X010113Y016781D01*
X010117Y016714D01*
X010117Y016646D01*
X010113Y016579D01*
X010105Y016512D01*
X010093Y016445D01*
X010077Y016380D01*
X010058Y016315D01*
X010034Y016252D01*
X010007Y016190D01*
X009977Y016130D01*
X009943Y016071D01*
X009905Y016015D01*
X009865Y015961D01*
X009821Y015910D01*
X009774Y015861D01*
X009725Y015815D01*
X009673Y015772D01*
X009618Y015732D01*
X009561Y015696D01*
X009503Y015662D01*
X009442Y015633D01*
X009380Y015607D01*
X009316Y015584D01*
X009251Y015566D01*
X009185Y015551D01*
X009118Y015540D01*
X009051Y015533D01*
X008984Y015530D01*
X008916Y015531D01*
X008849Y015536D01*
X008782Y015545D01*
X008716Y015558D01*
X008650Y015574D01*
X008586Y015595D01*
X008523Y015619D01*
X008462Y015647D01*
X008402Y015678D01*
X008344Y015713D01*
X008288Y015752D01*
X008235Y015793D01*
X008184Y015838D01*
X008136Y015885D01*
X008091Y015935D01*
X008049Y015988D01*
X008010Y016043D01*
X007974Y016100D01*
X007942Y016159D01*
X007913Y016220D01*
X007888Y016283D01*
X007866Y016347D01*
X007849Y016412D01*
X007835Y016478D01*
X007825Y016545D01*
X007819Y016613D01*
X007817Y016680D01*
X007767Y014730D02*
X008167Y014730D01*
X008517Y014380D01*
X008517Y013980D01*
X008167Y013630D01*
X007767Y013630D01*
X007417Y013980D01*
X007417Y014380D01*
X007767Y014730D01*
X008917Y014380D02*
X008917Y013980D01*
X009267Y013630D01*
X009667Y013630D01*
X010017Y013980D01*
X010017Y014380D01*
X009667Y014730D01*
X009267Y014730D01*
X008917Y014380D01*
X009267Y013230D02*
X009667Y013230D01*
X010017Y012880D01*
X010017Y012480D01*
X009667Y012130D01*
X009267Y012130D01*
X008917Y012480D01*
X008917Y012880D01*
X009267Y013230D01*
X008517Y012880D02*
X008517Y012480D01*
X008167Y012130D01*
X007767Y012130D01*
X007417Y012480D01*
X007417Y012880D01*
X007767Y013230D01*
X008167Y013230D01*
X008517Y012880D01*
X008167Y011730D02*
X007767Y011730D01*
X007417Y011380D01*
X007417Y010980D01*
X007767Y010630D01*
X008167Y010630D01*
X008517Y010980D01*
X008517Y011380D01*
X008167Y011730D01*
X008917Y011380D02*
X009267Y011730D01*
X009667Y011730D01*
X010017Y011380D01*
X010017Y010980D01*
X009667Y010630D01*
X009267Y010630D01*
X008917Y010980D01*
X008917Y011380D01*
X009267Y010230D02*
X009667Y010230D01*
X010017Y009880D01*
X010017Y009480D01*
X009667Y009130D01*
X009267Y009130D01*
X008917Y009480D01*
X008917Y009880D01*
X009267Y010230D01*
X008517Y009880D02*
X008517Y009480D01*
X008167Y009130D01*
X007767Y009130D01*
X007417Y009480D01*
X007417Y009880D01*
X007767Y010230D01*
X008167Y010230D01*
X008517Y009880D01*
X008167Y008730D02*
X007767Y008730D01*
X007417Y008380D01*
X007417Y007980D01*
X007767Y007630D01*
X008167Y007630D01*
X008517Y007980D01*
X008517Y008380D01*
X008167Y008730D01*
X008917Y008380D02*
X009267Y008730D01*
X009667Y008730D01*
X010017Y008380D01*
X010017Y007980D01*
X009667Y007630D01*
X009267Y007630D01*
X008917Y007980D01*
X008917Y008380D01*
X012217Y008330D02*
X012217Y009030D01*
X012219Y009047D01*
X012223Y009064D01*
X012230Y009080D01*
X012240Y009094D01*
X012253Y009107D01*
X012267Y009117D01*
X012283Y009124D01*
X012300Y009128D01*
X012317Y009130D01*
X012467Y009130D01*
X012517Y009080D01*
X014417Y009080D01*
X014467Y009130D01*
X014617Y009130D01*
X014634Y009128D01*
X014651Y009124D01*
X014667Y009117D01*
X014681Y009107D01*
X014694Y009094D01*
X014704Y009080D01*
X014711Y009064D01*
X014715Y009047D01*
X014717Y009030D01*
X014717Y008330D01*
X014715Y008313D01*
X014711Y008296D01*
X014704Y008280D01*
X014694Y008266D01*
X014681Y008253D01*
X014667Y008243D01*
X014651Y008236D01*
X014634Y008232D01*
X014617Y008230D01*
X014467Y008230D01*
X014417Y008280D01*
X012517Y008280D01*
X012467Y008230D01*
X012317Y008230D01*
X012300Y008232D01*
X012283Y008236D01*
X012267Y008243D01*
X012253Y008253D01*
X012240Y008266D01*
X012230Y008280D01*
X012223Y008296D01*
X012219Y008313D01*
X012217Y008330D01*
X012667Y007180D02*
X012667Y006180D01*
X014267Y006180D01*
X014267Y007180D01*
X012667Y007180D01*
X013217Y006680D02*
X013467Y006680D01*
X013467Y006930D01*
X013567Y006930D01*
X013467Y006680D02*
X013467Y006430D01*
X013467Y006680D02*
X013867Y006930D01*
X013867Y006430D01*
X013467Y006680D01*
X014067Y006680D01*
X014267Y005180D02*
X012667Y005180D01*
X012667Y004180D01*
X014267Y004180D01*
X014267Y005180D01*
X013717Y004680D02*
X013467Y004680D01*
X013467Y004430D01*
X013367Y004430D01*
X013467Y004680D02*
X013467Y004930D01*
X013467Y004680D02*
X013067Y004430D01*
X013067Y004930D01*
X013467Y004680D01*
X012867Y004680D01*
X012467Y003630D02*
X012317Y003630D01*
X012300Y003628D01*
X012283Y003624D01*
X012267Y003617D01*
X012253Y003607D01*
X012240Y003594D01*
X012230Y003580D01*
X012223Y003564D01*
X012219Y003547D01*
X012217Y003530D01*
X012217Y002830D01*
X012219Y002813D01*
X012223Y002796D01*
X012230Y002780D01*
X012240Y002766D01*
X012253Y002753D01*
X012267Y002743D01*
X012283Y002736D01*
X012300Y002732D01*
X012317Y002730D01*
X012467Y002730D01*
X012517Y002780D01*
X014417Y002780D01*
X014467Y002730D01*
X014617Y002730D01*
X014634Y002732D01*
X014651Y002736D01*
X014667Y002743D01*
X014681Y002753D01*
X014694Y002766D01*
X014704Y002780D01*
X014711Y002796D01*
X014715Y002813D01*
X014717Y002830D01*
X014717Y003530D01*
X014715Y003547D01*
X014711Y003564D01*
X014704Y003580D01*
X014694Y003594D01*
X014681Y003607D01*
X014667Y003617D01*
X014651Y003624D01*
X014634Y003628D01*
X014617Y003630D01*
X014467Y003630D01*
X014417Y003580D01*
X012517Y003580D01*
X012467Y003630D01*
X012467Y002130D02*
X012317Y002130D01*
X012300Y002128D01*
X012283Y002124D01*
X012267Y002117D01*
X012253Y002107D01*
X012240Y002094D01*
X012230Y002080D01*
X012223Y002064D01*
X012219Y002047D01*
X012217Y002030D01*
X012217Y001330D01*
X012219Y001313D01*
X012223Y001296D01*
X012230Y001280D01*
X012240Y001266D01*
X012253Y001253D01*
X012267Y001243D01*
X012283Y001236D01*
X012300Y001232D01*
X012317Y001230D01*
X012467Y001230D01*
X012517Y001280D01*
X014417Y001280D01*
X014467Y001230D01*
X014617Y001230D01*
X014634Y001232D01*
X014651Y001236D01*
X014667Y001243D01*
X014681Y001253D01*
X014694Y001266D01*
X014704Y001280D01*
X014711Y001296D01*
X014715Y001313D01*
X014717Y001330D01*
X014717Y002030D01*
X014715Y002047D01*
X014711Y002064D01*
X014704Y002080D01*
X014694Y002094D01*
X014681Y002107D01*
X014667Y002117D01*
X014651Y002124D01*
X014634Y002128D01*
X014617Y002130D01*
X014467Y002130D01*
X014417Y002080D01*
X012517Y002080D01*
X012467Y002130D01*
X017467Y001430D02*
X017467Y000930D01*
X017717Y000680D01*
X018217Y000680D01*
X018467Y000930D01*
X018467Y001430D01*
X018217Y001680D01*
X017717Y001680D01*
X017467Y001430D01*
X018467Y001430D02*
X018717Y001680D01*
X019217Y001680D01*
X019467Y001430D01*
X019717Y001680D01*
X020217Y001680D01*
X020467Y001430D01*
X020717Y001680D01*
X021217Y001680D01*
X021467Y001430D01*
X021467Y000930D01*
X021217Y000680D01*
X020717Y000680D01*
X020467Y000930D01*
X020217Y000680D01*
X019717Y000680D01*
X019467Y000930D01*
X019467Y001430D01*
X019467Y000930D02*
X019217Y000680D01*
X018717Y000680D01*
X018467Y000930D01*
X020467Y000930D02*
X020467Y001430D01*
X021467Y003680D02*
X021467Y004680D01*
X021467Y005280D01*
X021428Y005282D01*
X021389Y005288D01*
X021351Y005297D01*
X021314Y005310D01*
X021278Y005327D01*
X021245Y005347D01*
X021213Y005371D01*
X021184Y005397D01*
X021158Y005426D01*
X021134Y005458D01*
X021114Y005491D01*
X021097Y005527D01*
X021084Y005564D01*
X021075Y005602D01*
X021069Y005641D01*
X021067Y005680D01*
X021069Y005719D01*
X021075Y005758D01*
X021084Y005796D01*
X021097Y005833D01*
X021114Y005869D01*
X021134Y005902D01*
X021158Y005934D01*
X021184Y005963D01*
X021213Y005989D01*
X021245Y006013D01*
X021278Y006033D01*
X021314Y006050D01*
X021351Y006063D01*
X021389Y006072D01*
X021428Y006078D01*
X021467Y006080D01*
X021467Y006680D01*
X017467Y006680D01*
X017467Y007680D01*
X021467Y007680D01*
X021467Y006680D01*
X023467Y006430D02*
X023467Y005930D01*
X023717Y005680D01*
X023467Y005430D01*
X023467Y004930D01*
X023717Y004680D01*
X024217Y004680D01*
X024467Y004930D01*
X024467Y005430D01*
X024217Y005680D01*
X023717Y005680D01*
X024217Y005680D02*
X024467Y005930D01*
X024467Y006430D01*
X024217Y006680D01*
X023717Y006680D01*
X023467Y006930D01*
X023467Y007430D01*
X023717Y007680D01*
X023467Y007930D01*
X023467Y008430D01*
X023717Y008680D01*
X024217Y008680D01*
X024467Y008430D01*
X024467Y007930D01*
X024217Y007680D01*
X024467Y007430D01*
X024467Y006930D01*
X024217Y006680D01*
X023717Y006680D02*
X023467Y006430D01*
X023717Y007680D02*
X024217Y007680D01*
X021467Y004680D02*
X017467Y004680D01*
X017467Y006680D01*
X017467Y004680D02*
X017467Y003680D01*
X021467Y003680D01*
X022317Y002680D02*
X022319Y002747D01*
X022325Y002815D01*
X022335Y002882D01*
X022349Y002948D01*
X022366Y003013D01*
X022388Y003077D01*
X022413Y003140D01*
X022442Y003201D01*
X022474Y003260D01*
X022510Y003317D01*
X022549Y003372D01*
X022591Y003425D01*
X022636Y003475D01*
X022684Y003522D01*
X022735Y003567D01*
X022788Y003608D01*
X022844Y003647D01*
X022902Y003682D01*
X022962Y003713D01*
X023023Y003741D01*
X023086Y003765D01*
X023150Y003786D01*
X023216Y003802D01*
X023282Y003815D01*
X023349Y003824D01*
X023416Y003829D01*
X023484Y003830D01*
X023551Y003827D01*
X023618Y003820D01*
X023685Y003809D01*
X023751Y003794D01*
X023816Y003776D01*
X023880Y003753D01*
X023942Y003727D01*
X024003Y003698D01*
X024061Y003664D01*
X024118Y003628D01*
X024173Y003588D01*
X024225Y003545D01*
X024274Y003499D01*
X024321Y003450D01*
X024365Y003399D01*
X024405Y003345D01*
X024443Y003289D01*
X024477Y003230D01*
X024507Y003170D01*
X024534Y003108D01*
X024558Y003045D01*
X024577Y002980D01*
X024593Y002915D01*
X024605Y002848D01*
X024613Y002781D01*
X024617Y002714D01*
X024617Y002646D01*
X024613Y002579D01*
X024605Y002512D01*
X024593Y002445D01*
X024577Y002380D01*
X024558Y002315D01*
X024534Y002252D01*
X024507Y002190D01*
X024477Y002130D01*
X024443Y002071D01*
X024405Y002015D01*
X024365Y001961D01*
X024321Y001910D01*
X024274Y001861D01*
X024225Y001815D01*
X024173Y001772D01*
X024118Y001732D01*
X024061Y001696D01*
X024003Y001662D01*
X023942Y001633D01*
X023880Y001607D01*
X023816Y001584D01*
X023751Y001566D01*
X023685Y001551D01*
X023618Y001540D01*
X023551Y001533D01*
X023484Y001530D01*
X023416Y001531D01*
X023349Y001536D01*
X023282Y001545D01*
X023216Y001558D01*
X023150Y001574D01*
X023086Y001595D01*
X023023Y001619D01*
X022962Y001647D01*
X022902Y001678D01*
X022844Y001713D01*
X022788Y001752D01*
X022735Y001793D01*
X022684Y001838D01*
X022636Y001885D01*
X022591Y001935D01*
X022549Y001988D01*
X022510Y002043D01*
X022474Y002100D01*
X022442Y002159D01*
X022413Y002220D01*
X022388Y002283D01*
X022366Y002347D01*
X022349Y002412D01*
X022335Y002478D01*
X022325Y002545D01*
X022319Y002613D01*
X022317Y002680D01*
X014617Y009730D02*
X014467Y009730D01*
X014417Y009780D01*
X012517Y009780D01*
X012467Y009730D01*
X012317Y009730D01*
X012300Y009732D01*
X012283Y009736D01*
X012267Y009743D01*
X012253Y009753D01*
X012240Y009766D01*
X012230Y009780D01*
X012223Y009796D01*
X012219Y009813D01*
X012217Y009830D01*
X012217Y010530D01*
X012219Y010547D01*
X012223Y010564D01*
X012230Y010580D01*
X012240Y010594D01*
X012253Y010607D01*
X012267Y010617D01*
X012283Y010624D01*
X012300Y010628D01*
X012317Y010630D01*
X012467Y010630D01*
X012517Y010580D01*
X014417Y010580D01*
X014467Y010630D01*
X014617Y010630D01*
X014634Y010628D01*
X014651Y010624D01*
X014667Y010617D01*
X014681Y010607D01*
X014694Y010594D01*
X014704Y010580D01*
X014711Y010564D01*
X014715Y010547D01*
X014717Y010530D01*
X014717Y009830D01*
X014715Y009813D01*
X014711Y009796D01*
X014704Y009780D01*
X014694Y009766D01*
X014681Y009753D01*
X014667Y009743D01*
X014651Y009736D01*
X014634Y009732D01*
X014617Y009730D01*
X014717Y012180D02*
X014217Y012180D01*
X013967Y012430D01*
X013967Y012930D01*
X014217Y013180D01*
X014717Y013180D01*
X014967Y012930D01*
X015217Y013180D01*
X015717Y013180D01*
X015967Y012930D01*
X015967Y012430D01*
X015717Y012180D01*
X015217Y012180D01*
X014967Y012430D01*
X014717Y012180D01*
X014967Y012430D02*
X014967Y012930D01*
X013967Y012930D02*
X013717Y013180D01*
X013217Y013180D01*
X012967Y012930D01*
X012717Y013180D01*
X012217Y013180D01*
X011967Y012930D01*
X011967Y012430D01*
X012217Y012180D01*
X012717Y012180D01*
X012967Y012430D01*
X012967Y012930D01*
X012967Y012430D02*
X013217Y012180D01*
X013717Y012180D01*
X013967Y012430D01*
X016467Y015180D02*
X016469Y015243D01*
X016475Y015305D01*
X016485Y015367D01*
X016498Y015429D01*
X016516Y015489D01*
X016537Y015548D01*
X016562Y015606D01*
X016591Y015662D01*
X016623Y015716D01*
X016658Y015768D01*
X016696Y015817D01*
X016738Y015865D01*
X016782Y015909D01*
X016830Y015951D01*
X016879Y015989D01*
X016931Y016024D01*
X016985Y016056D01*
X017041Y016085D01*
X017099Y016110D01*
X017158Y016131D01*
X017218Y016149D01*
X017280Y016162D01*
X017342Y016172D01*
X017404Y016178D01*
X017467Y016180D01*
X017530Y016178D01*
X017592Y016172D01*
X017654Y016162D01*
X017716Y016149D01*
X017776Y016131D01*
X017835Y016110D01*
X017893Y016085D01*
X017949Y016056D01*
X018003Y016024D01*
X018055Y015989D01*
X018104Y015951D01*
X018152Y015909D01*
X018196Y015865D01*
X018238Y015817D01*
X018276Y015768D01*
X018311Y015716D01*
X018343Y015662D01*
X018372Y015606D01*
X018397Y015548D01*
X018418Y015489D01*
X018436Y015429D01*
X018449Y015367D01*
X018459Y015305D01*
X018465Y015243D01*
X018467Y015180D01*
X018465Y015117D01*
X018459Y015055D01*
X018449Y014993D01*
X018436Y014931D01*
X018418Y014871D01*
X018397Y014812D01*
X018372Y014754D01*
X018343Y014698D01*
X018311Y014644D01*
X018276Y014592D01*
X018238Y014543D01*
X018196Y014495D01*
X018152Y014451D01*
X018104Y014409D01*
X018055Y014371D01*
X018003Y014336D01*
X017949Y014304D01*
X017893Y014275D01*
X017835Y014250D01*
X017776Y014229D01*
X017716Y014211D01*
X017654Y014198D01*
X017592Y014188D01*
X017530Y014182D01*
X017467Y014180D01*
X017404Y014182D01*
X017342Y014188D01*
X017280Y014198D01*
X017218Y014211D01*
X017158Y014229D01*
X017099Y014250D01*
X017041Y014275D01*
X016985Y014304D01*
X016931Y014336D01*
X016879Y014371D01*
X016830Y014409D01*
X016782Y014451D01*
X016738Y014495D01*
X016696Y014543D01*
X016658Y014592D01*
X016623Y014644D01*
X016591Y014698D01*
X016562Y014754D01*
X016537Y014812D01*
X016516Y014871D01*
X016498Y014931D01*
X016485Y014993D01*
X016475Y015055D01*
X016469Y015117D01*
X016467Y015180D01*
X019517Y014180D02*
X019517Y014030D01*
X019519Y014013D01*
X019523Y013996D01*
X019530Y013980D01*
X019540Y013966D01*
X019553Y013953D01*
X019567Y013943D01*
X019583Y013936D01*
X019600Y013932D01*
X019617Y013930D01*
X020317Y013930D01*
X020334Y013932D01*
X020351Y013936D01*
X020367Y013943D01*
X020381Y013953D01*
X020394Y013966D01*
X020404Y013980D01*
X020411Y013996D01*
X020415Y014013D01*
X020417Y014030D01*
X020417Y014180D01*
X020367Y014230D01*
X020367Y016130D01*
X020417Y016180D01*
X020417Y016330D01*
X020415Y016347D01*
X020411Y016364D01*
X020404Y016380D01*
X020394Y016394D01*
X020381Y016407D01*
X020367Y016417D01*
X020351Y016424D01*
X020334Y016428D01*
X020317Y016430D01*
X019617Y016430D01*
X019600Y016428D01*
X019583Y016424D01*
X019567Y016417D01*
X019553Y016407D01*
X019540Y016394D01*
X019530Y016380D01*
X019523Y016364D01*
X019519Y016347D01*
X019517Y016330D01*
X019517Y016180D01*
X019567Y016130D01*
X019567Y014230D01*
X019517Y014180D01*
D14*
X019342Y014305D02*
X019192Y014155D01*
X019192Y014230D02*
X019192Y014005D01*
X019342Y014005D02*
X018891Y014005D01*
X018891Y014230D01*
X018966Y014305D01*
X019117Y014305D01*
X019192Y014230D01*
X019117Y014465D02*
X019117Y014766D01*
X019342Y014691D02*
X018891Y014691D01*
X019117Y014465D01*
X020991Y014466D02*
X020991Y014165D01*
X021442Y014165D01*
X021442Y014466D01*
X021367Y014626D02*
X021442Y014701D01*
X021442Y014851D01*
X021367Y014926D01*
X021292Y014926D01*
X021217Y014851D01*
X021217Y014701D01*
X021142Y014626D01*
X021066Y014626D01*
X020991Y014701D01*
X020991Y014851D01*
X021066Y014926D01*
X020991Y015086D02*
X021442Y015086D01*
X021442Y015386D01*
X021217Y015236D02*
X021217Y015086D01*
X020991Y015086D02*
X020991Y015386D01*
X020991Y015547D02*
X020991Y015847D01*
X020991Y015697D02*
X021442Y015697D01*
X021217Y014316D02*
X021217Y014165D01*
X021217Y014005D02*
X021066Y014005D01*
X020991Y013930D01*
X020991Y013705D01*
X021442Y013705D01*
X021292Y013705D02*
X021292Y013930D01*
X021217Y014005D01*
X021292Y013855D02*
X021442Y014005D01*
X017232Y016455D02*
X016781Y016455D01*
X016781Y016680D01*
X016856Y016755D01*
X017007Y016755D01*
X017082Y016680D01*
X017082Y016455D01*
X017007Y016915D02*
X017007Y017141D01*
X017082Y017216D01*
X017157Y017216D01*
X017232Y017141D01*
X017232Y016915D01*
X016781Y016915D01*
X016781Y017141D01*
X016856Y017216D01*
X016932Y017216D01*
X017007Y017141D01*
X017157Y017376D02*
X017232Y017451D01*
X017232Y017601D01*
X017157Y017676D01*
X017082Y017676D01*
X017007Y017601D01*
X017007Y017526D01*
X017007Y017601D02*
X016932Y017676D01*
X016856Y017676D01*
X016781Y017601D01*
X016781Y017451D01*
X016856Y017376D01*
X015787Y011935D02*
X015636Y011935D01*
X015561Y011860D01*
X015401Y011860D02*
X015401Y011710D01*
X015326Y011635D01*
X015101Y011635D01*
X015101Y011485D02*
X015101Y011935D01*
X015326Y011935D01*
X015401Y011860D01*
X015787Y011935D02*
X015862Y011860D01*
X015862Y011785D01*
X015561Y011485D01*
X015862Y011485D01*
X014866Y011560D02*
X014866Y011935D01*
X014791Y011935D02*
X014941Y011935D01*
X014866Y011560D02*
X014791Y011485D01*
X014716Y011485D01*
X014641Y011560D01*
X012977Y009755D02*
X012827Y009755D01*
X012752Y009680D01*
X012592Y009680D02*
X012592Y009530D01*
X012517Y009455D01*
X012292Y009455D01*
X012442Y009455D02*
X012592Y009305D01*
X012752Y009380D02*
X012827Y009305D01*
X012977Y009305D01*
X013052Y009380D01*
X013052Y009455D01*
X012977Y009530D01*
X012902Y009530D01*
X012977Y009530D02*
X013052Y009605D01*
X013052Y009680D01*
X012977Y009755D01*
X012592Y009680D02*
X012517Y009755D01*
X012292Y009755D01*
X012292Y009305D01*
X013771Y009255D02*
X013996Y009255D01*
X014071Y009330D01*
X014071Y009480D01*
X013996Y009555D01*
X013771Y009555D01*
X013771Y009105D01*
X013921Y009255D02*
X014071Y009105D01*
X014231Y009180D02*
X014306Y009105D01*
X014457Y009105D01*
X014532Y009180D01*
X014532Y009330D01*
X014457Y009405D01*
X014382Y009405D01*
X014231Y009330D01*
X014231Y009555D01*
X014532Y009555D01*
X013352Y007805D02*
X013352Y007355D01*
X013202Y007355D02*
X013502Y007355D01*
X013202Y007655D02*
X013352Y007805D01*
X013042Y007730D02*
X013042Y007430D01*
X012967Y007355D01*
X012742Y007355D01*
X012742Y007805D01*
X012967Y007805D01*
X013042Y007730D01*
X012902Y004255D02*
X012902Y003805D01*
X012752Y003805D02*
X013052Y003805D01*
X013321Y004005D02*
X013321Y003555D01*
X013546Y003555D01*
X013621Y003630D01*
X013621Y003930D01*
X013546Y004005D01*
X013321Y004005D01*
X013781Y003930D02*
X013856Y004005D01*
X014007Y004005D01*
X014082Y003930D01*
X014082Y003855D01*
X013781Y003555D01*
X014082Y003555D01*
X013052Y002680D02*
X012977Y002755D01*
X012827Y002755D01*
X012752Y002680D01*
X012592Y002680D02*
X012592Y002530D01*
X012517Y002455D01*
X012292Y002455D01*
X012442Y002455D02*
X012592Y002305D01*
X012752Y002305D02*
X013052Y002605D01*
X013052Y002680D01*
X013052Y002305D02*
X012752Y002305D01*
X012592Y002680D02*
X012517Y002755D01*
X012292Y002755D01*
X012292Y002305D01*
X012292Y003805D02*
X012292Y004255D01*
X012517Y004255D01*
X012592Y004180D01*
X012592Y004030D01*
X012517Y003955D01*
X012292Y003955D01*
X012442Y003955D02*
X012592Y003805D01*
X012752Y004105D02*
X012902Y004255D01*
X017814Y005055D02*
X017964Y005055D01*
X017889Y005055D02*
X017889Y005505D01*
X017814Y005505D02*
X017964Y005505D01*
X018121Y005430D02*
X018121Y005130D01*
X018196Y005055D01*
X018346Y005055D01*
X018421Y005130D01*
X018581Y005055D02*
X018882Y005055D01*
X018732Y005055D02*
X018732Y005505D01*
X018581Y005355D01*
X018421Y005430D02*
X018346Y005505D01*
X018196Y005505D01*
X018121Y005430D01*
X021791Y001435D02*
X021941Y001435D01*
X021866Y001435D02*
X021866Y001060D01*
X021791Y000985D01*
X021716Y000985D01*
X021641Y001060D01*
X022101Y000985D02*
X022101Y001435D01*
X022326Y001435D01*
X022401Y001360D01*
X022401Y001210D01*
X022326Y001135D01*
X022101Y001135D01*
X022561Y001060D02*
X022636Y000985D01*
X022787Y000985D01*
X022862Y001060D01*
X022862Y001135D01*
X022787Y001210D01*
X022712Y001210D01*
X022787Y001210D02*
X022862Y001285D01*
X022862Y001360D01*
X022787Y001435D01*
X022636Y001435D01*
X022561Y001360D01*
X025087Y007354D02*
X025162Y007429D01*
X025162Y007504D01*
X025087Y007579D01*
X024711Y007579D01*
X024711Y007504D02*
X024711Y007654D01*
X024711Y007814D02*
X024711Y008039D01*
X024786Y008114D01*
X024937Y008114D01*
X025012Y008039D01*
X025012Y007814D01*
X025162Y007814D02*
X024711Y007814D01*
X024937Y008275D02*
X024937Y008575D01*
X025162Y008500D02*
X024711Y008500D01*
X024937Y008275D01*
D15*
X014887Y008680D03*
X014887Y010180D03*
X012047Y010180D03*
X012047Y008680D03*
X012047Y003180D03*
X012047Y001680D03*
X014887Y001680D03*
X014887Y003180D03*
D16*
X014017Y004680D03*
X012917Y006680D03*
D17*
X012292Y006680D03*
X014642Y006680D03*
X014642Y004680D03*
X012292Y004680D03*
D18*
X007542Y005255D02*
X007542Y002105D01*
X006360Y001318D02*
X005967Y001318D01*
X005967Y006042D01*
X006360Y006042D01*
X016717Y016180D02*
X018217Y016180D01*
X021767Y015530D02*
X021767Y013830D01*
X022562Y013480D02*
X023367Y013480D01*
X024167Y013830D02*
X024167Y015530D01*
X023367Y015880D02*
X022574Y015880D01*
X022267Y014680D02*
X022269Y014732D01*
X022275Y014784D01*
X022285Y014836D01*
X022298Y014886D01*
X022315Y014936D01*
X022336Y014984D01*
X022361Y015030D01*
X022389Y015074D01*
X022420Y015116D01*
X022454Y015156D01*
X022491Y015193D01*
X022531Y015227D01*
X022573Y015258D01*
X022617Y015286D01*
X022663Y015311D01*
X022711Y015332D01*
X022761Y015349D01*
X022811Y015362D01*
X022863Y015372D01*
X022915Y015378D01*
X022967Y015380D01*
X023019Y015378D01*
X023071Y015372D01*
X023123Y015362D01*
X023173Y015349D01*
X023223Y015332D01*
X023271Y015311D01*
X023317Y015286D01*
X023361Y015258D01*
X023403Y015227D01*
X023443Y015193D01*
X023480Y015156D01*
X023514Y015116D01*
X023545Y015074D01*
X023573Y015030D01*
X023598Y014984D01*
X023619Y014936D01*
X023636Y014886D01*
X023649Y014836D01*
X023659Y014784D01*
X023665Y014732D01*
X023667Y014680D01*
X023665Y014628D01*
X023659Y014576D01*
X023649Y014524D01*
X023636Y014474D01*
X023619Y014424D01*
X023598Y014376D01*
X023573Y014330D01*
X023545Y014286D01*
X023514Y014244D01*
X023480Y014204D01*
X023443Y014167D01*
X023403Y014133D01*
X023361Y014102D01*
X023317Y014074D01*
X023271Y014049D01*
X023223Y014028D01*
X023173Y014011D01*
X023123Y013998D01*
X023071Y013988D01*
X023019Y013982D01*
X022967Y013980D01*
X022915Y013982D01*
X022863Y013988D01*
X022811Y013998D01*
X022761Y014011D01*
X022711Y014028D01*
X022663Y014049D01*
X022617Y014074D01*
X022573Y014102D01*
X022531Y014133D01*
X022491Y014167D01*
X022454Y014204D01*
X022420Y014244D01*
X022389Y014286D01*
X022361Y014330D01*
X022336Y014376D01*
X022315Y014424D01*
X022298Y014474D01*
X022285Y014524D01*
X022275Y014576D01*
X022269Y014628D01*
X022267Y014680D01*
X023967Y011430D02*
X023967Y010930D01*
X022187Y010680D02*
X022189Y010751D01*
X022195Y010822D01*
X022205Y010893D01*
X022219Y010962D01*
X022236Y011031D01*
X022258Y011099D01*
X022283Y011166D01*
X022312Y011231D01*
X022344Y011294D01*
X022380Y011356D01*
X022419Y011415D01*
X022462Y011472D01*
X022507Y011527D01*
X022556Y011579D01*
X022607Y011628D01*
X022661Y011674D01*
X022718Y011718D01*
X022776Y011758D01*
X022837Y011794D01*
X022900Y011828D01*
X022965Y011857D01*
X023031Y011883D01*
X023099Y011906D01*
X023167Y011924D01*
X023237Y011939D01*
X023307Y011950D01*
X023378Y011957D01*
X023449Y011960D01*
X023520Y011959D01*
X023591Y011954D01*
X023662Y011945D01*
X023732Y011932D01*
X023801Y011916D01*
X023869Y011895D01*
X023936Y011871D01*
X024002Y011843D01*
X024065Y011811D01*
X024127Y011776D01*
X024187Y011738D01*
X024245Y011696D01*
X024300Y011652D01*
X024353Y011604D01*
X024403Y011553D01*
X024450Y011500D01*
X024494Y011444D01*
X024535Y011386D01*
X024573Y011325D01*
X024607Y011263D01*
X024637Y011198D01*
X024664Y011133D01*
X024688Y011065D01*
X024707Y010997D01*
X024723Y010928D01*
X024735Y010857D01*
X024743Y010787D01*
X024747Y010716D01*
X024747Y010644D01*
X024743Y010573D01*
X024735Y010503D01*
X024723Y010432D01*
X024707Y010363D01*
X024688Y010295D01*
X024664Y010227D01*
X024637Y010162D01*
X024607Y010097D01*
X024573Y010035D01*
X024535Y009974D01*
X024494Y009916D01*
X024450Y009860D01*
X024403Y009807D01*
X024353Y009756D01*
X024300Y009708D01*
X024245Y009664D01*
X024187Y009622D01*
X024127Y009584D01*
X024065Y009549D01*
X024002Y009517D01*
X023936Y009489D01*
X023869Y009465D01*
X023801Y009444D01*
X023732Y009428D01*
X023662Y009415D01*
X023591Y009406D01*
X023520Y009401D01*
X023449Y009400D01*
X023378Y009403D01*
X023307Y009410D01*
X023237Y009421D01*
X023167Y009436D01*
X023099Y009454D01*
X023031Y009477D01*
X022965Y009503D01*
X022900Y009532D01*
X022837Y009566D01*
X022776Y009602D01*
X022718Y009642D01*
X022661Y009686D01*
X022607Y009732D01*
X022556Y009781D01*
X022507Y009833D01*
X022462Y009888D01*
X022419Y009945D01*
X022380Y010004D01*
X022344Y010066D01*
X022312Y010129D01*
X022283Y010194D01*
X022258Y010261D01*
X022236Y010329D01*
X022219Y010398D01*
X022205Y010467D01*
X022195Y010538D01*
X022189Y010609D01*
X022187Y010680D01*
X020467Y010930D02*
X020467Y011430D01*
X018687Y010680D02*
X018689Y010751D01*
X018695Y010822D01*
X018705Y010893D01*
X018719Y010962D01*
X018736Y011031D01*
X018758Y011099D01*
X018783Y011166D01*
X018812Y011231D01*
X018844Y011294D01*
X018880Y011356D01*
X018919Y011415D01*
X018962Y011472D01*
X019007Y011527D01*
X019056Y011579D01*
X019107Y011628D01*
X019161Y011674D01*
X019218Y011718D01*
X019276Y011758D01*
X019337Y011794D01*
X019400Y011828D01*
X019465Y011857D01*
X019531Y011883D01*
X019599Y011906D01*
X019667Y011924D01*
X019737Y011939D01*
X019807Y011950D01*
X019878Y011957D01*
X019949Y011960D01*
X020020Y011959D01*
X020091Y011954D01*
X020162Y011945D01*
X020232Y011932D01*
X020301Y011916D01*
X020369Y011895D01*
X020436Y011871D01*
X020502Y011843D01*
X020565Y011811D01*
X020627Y011776D01*
X020687Y011738D01*
X020745Y011696D01*
X020800Y011652D01*
X020853Y011604D01*
X020903Y011553D01*
X020950Y011500D01*
X020994Y011444D01*
X021035Y011386D01*
X021073Y011325D01*
X021107Y011263D01*
X021137Y011198D01*
X021164Y011133D01*
X021188Y011065D01*
X021207Y010997D01*
X021223Y010928D01*
X021235Y010857D01*
X021243Y010787D01*
X021247Y010716D01*
X021247Y010644D01*
X021243Y010573D01*
X021235Y010503D01*
X021223Y010432D01*
X021207Y010363D01*
X021188Y010295D01*
X021164Y010227D01*
X021137Y010162D01*
X021107Y010097D01*
X021073Y010035D01*
X021035Y009974D01*
X020994Y009916D01*
X020950Y009860D01*
X020903Y009807D01*
X020853Y009756D01*
X020800Y009708D01*
X020745Y009664D01*
X020687Y009622D01*
X020627Y009584D01*
X020565Y009549D01*
X020502Y009517D01*
X020436Y009489D01*
X020369Y009465D01*
X020301Y009444D01*
X020232Y009428D01*
X020162Y009415D01*
X020091Y009406D01*
X020020Y009401D01*
X019949Y009400D01*
X019878Y009403D01*
X019807Y009410D01*
X019737Y009421D01*
X019667Y009436D01*
X019599Y009454D01*
X019531Y009477D01*
X019465Y009503D01*
X019400Y009532D01*
X019337Y009566D01*
X019276Y009602D01*
X019218Y009642D01*
X019161Y009686D01*
X019107Y009732D01*
X019056Y009781D01*
X019007Y009833D01*
X018962Y009888D01*
X018919Y009945D01*
X018880Y010004D01*
X018844Y010066D01*
X018812Y010129D01*
X018783Y010194D01*
X018758Y010261D01*
X018736Y010329D01*
X018719Y010398D01*
X018705Y010467D01*
X018695Y010538D01*
X018689Y010609D01*
X018687Y010680D01*
X008376Y016680D02*
X008378Y016728D01*
X008384Y016776D01*
X008394Y016823D01*
X008407Y016869D01*
X008425Y016914D01*
X008445Y016958D01*
X008470Y017000D01*
X008498Y017039D01*
X008528Y017076D01*
X008562Y017110D01*
X008599Y017142D01*
X008637Y017171D01*
X008678Y017196D01*
X008721Y017218D01*
X008766Y017236D01*
X008812Y017250D01*
X008859Y017261D01*
X008907Y017268D01*
X008955Y017271D01*
X009003Y017270D01*
X009051Y017265D01*
X009099Y017256D01*
X009145Y017244D01*
X009190Y017227D01*
X009234Y017207D01*
X009276Y017184D01*
X009316Y017157D01*
X009354Y017127D01*
X009389Y017094D01*
X009421Y017058D01*
X009451Y017020D01*
X009477Y016979D01*
X009499Y016936D01*
X009519Y016892D01*
X009534Y016847D01*
X009546Y016800D01*
X009554Y016752D01*
X009558Y016704D01*
X009558Y016656D01*
X009554Y016608D01*
X009546Y016560D01*
X009534Y016513D01*
X009519Y016468D01*
X009499Y016424D01*
X009477Y016381D01*
X009451Y016340D01*
X009421Y016302D01*
X009389Y016266D01*
X009354Y016233D01*
X009316Y016203D01*
X009276Y016176D01*
X009234Y016153D01*
X009190Y016133D01*
X009145Y016116D01*
X009099Y016104D01*
X009051Y016095D01*
X009003Y016090D01*
X008955Y016089D01*
X008907Y016092D01*
X008859Y016099D01*
X008812Y016110D01*
X008766Y016124D01*
X008721Y016142D01*
X008678Y016164D01*
X008637Y016189D01*
X008599Y016218D01*
X008562Y016250D01*
X008528Y016284D01*
X008498Y016321D01*
X008470Y016360D01*
X008445Y016402D01*
X008425Y016446D01*
X008407Y016491D01*
X008394Y016537D01*
X008384Y016584D01*
X008378Y016632D01*
X008376Y016680D01*
X022876Y002680D02*
X022878Y002728D01*
X022884Y002776D01*
X022894Y002823D01*
X022907Y002869D01*
X022925Y002914D01*
X022945Y002958D01*
X022970Y003000D01*
X022998Y003039D01*
X023028Y003076D01*
X023062Y003110D01*
X023099Y003142D01*
X023137Y003171D01*
X023178Y003196D01*
X023221Y003218D01*
X023266Y003236D01*
X023312Y003250D01*
X023359Y003261D01*
X023407Y003268D01*
X023455Y003271D01*
X023503Y003270D01*
X023551Y003265D01*
X023599Y003256D01*
X023645Y003244D01*
X023690Y003227D01*
X023734Y003207D01*
X023776Y003184D01*
X023816Y003157D01*
X023854Y003127D01*
X023889Y003094D01*
X023921Y003058D01*
X023951Y003020D01*
X023977Y002979D01*
X023999Y002936D01*
X024019Y002892D01*
X024034Y002847D01*
X024046Y002800D01*
X024054Y002752D01*
X024058Y002704D01*
X024058Y002656D01*
X024054Y002608D01*
X024046Y002560D01*
X024034Y002513D01*
X024019Y002468D01*
X023999Y002424D01*
X023977Y002381D01*
X023951Y002340D01*
X023921Y002302D01*
X023889Y002266D01*
X023854Y002233D01*
X023816Y002203D01*
X023776Y002176D01*
X023734Y002153D01*
X023690Y002133D01*
X023645Y002116D01*
X023599Y002104D01*
X023551Y002095D01*
X023503Y002090D01*
X023455Y002089D01*
X023407Y002092D01*
X023359Y002099D01*
X023312Y002110D01*
X023266Y002124D01*
X023221Y002142D01*
X023178Y002164D01*
X023137Y002189D01*
X023099Y002218D01*
X023062Y002250D01*
X023028Y002284D01*
X022998Y002321D01*
X022970Y002360D01*
X022945Y002402D01*
X022925Y002446D01*
X022907Y002491D01*
X022894Y002537D01*
X022884Y002584D01*
X022878Y002632D01*
X022876Y002680D01*
D19*
X024147Y010690D02*
X024247Y010690D01*
X024272Y010715D01*
X024272Y010765D01*
X024247Y010790D01*
X024272Y010838D02*
X024272Y010938D01*
X024272Y010888D02*
X024122Y010888D01*
X024172Y010838D01*
X024147Y010790D02*
X024122Y010765D01*
X024122Y010715D01*
X024147Y010690D01*
X020772Y010715D02*
X020772Y010765D01*
X020747Y010790D01*
X020772Y010838D02*
X020672Y010938D01*
X020647Y010938D01*
X020622Y010913D01*
X020622Y010863D01*
X020647Y010838D01*
X020647Y010790D02*
X020622Y010765D01*
X020622Y010715D01*
X020647Y010690D01*
X020747Y010690D01*
X020772Y010715D01*
X020772Y010838D02*
X020772Y010938D01*
X016687Y016212D02*
X016741Y016140D01*
X016740Y016141D02*
X016687Y016098D01*
X016636Y016053D01*
X016588Y016004D01*
X016543Y015953D01*
X016500Y015899D01*
X016461Y015843D01*
X016425Y015785D01*
X016392Y015725D01*
X016363Y015664D01*
X016338Y015600D01*
X016316Y015536D01*
X016297Y015470D01*
X016283Y015403D01*
X016272Y015336D01*
X016265Y015268D01*
X016262Y015200D01*
X016263Y015131D01*
X016268Y015063D01*
X016276Y014995D01*
X016289Y014928D01*
X016305Y014862D01*
X016325Y014797D01*
X016348Y014732D01*
X016375Y014670D01*
X016406Y014609D01*
X016440Y014550D01*
X016477Y014492D01*
X016518Y014437D01*
X016562Y014385D01*
X016608Y014335D01*
X016657Y014288D01*
X016709Y014243D01*
X016763Y014202D01*
X016820Y014163D01*
X016879Y014128D01*
X016939Y014097D01*
X017001Y014069D01*
X017065Y014044D01*
X017130Y014023D01*
X017196Y014006D01*
X017263Y013992D01*
X017331Y013983D01*
X017399Y013977D01*
X017467Y013975D01*
X017535Y013977D01*
X017603Y013983D01*
X017671Y013992D01*
X017738Y014006D01*
X017804Y014023D01*
X017869Y014044D01*
X017933Y014069D01*
X017995Y014097D01*
X018055Y014128D01*
X018114Y014163D01*
X018171Y014202D01*
X018225Y014243D01*
X018277Y014288D01*
X018326Y014335D01*
X018372Y014385D01*
X018416Y014437D01*
X018457Y014492D01*
X018494Y014550D01*
X018528Y014609D01*
X018559Y014670D01*
X018586Y014732D01*
X018609Y014797D01*
X018629Y014862D01*
X018645Y014928D01*
X018658Y014995D01*
X018666Y015063D01*
X018671Y015131D01*
X018672Y015200D01*
X018669Y015268D01*
X018662Y015336D01*
X018651Y015403D01*
X018637Y015470D01*
X018618Y015536D01*
X018596Y015600D01*
X018571Y015664D01*
X018542Y015725D01*
X018509Y015785D01*
X018473Y015843D01*
X018434Y015899D01*
X018391Y015953D01*
X018346Y016004D01*
X018298Y016053D01*
X018247Y016098D01*
X018194Y016141D01*
X018247Y016212D01*
X018248Y016213D01*
X018303Y016169D01*
X018356Y016121D01*
X018407Y016071D01*
X018454Y016018D01*
X018498Y015963D01*
X018540Y015905D01*
X018578Y015845D01*
X018613Y015784D01*
X018644Y015720D01*
X018672Y015655D01*
X018696Y015588D01*
X018717Y015520D01*
X018733Y015451D01*
X018746Y015381D01*
X018755Y015311D01*
X018761Y015240D01*
X018762Y015169D01*
X018759Y015098D01*
X018753Y015027D01*
X018743Y014957D01*
X018729Y014888D01*
X018711Y014819D01*
X018689Y014751D01*
X018664Y014685D01*
X018635Y014620D01*
X018602Y014557D01*
X018566Y014496D01*
X018527Y014437D01*
X018485Y014380D01*
X018440Y014325D01*
X018391Y014273D01*
X018340Y014224D01*
X018287Y014177D01*
X018230Y014134D01*
X018172Y014094D01*
X018111Y014057D01*
X018049Y014023D01*
X017985Y013993D01*
X017919Y013966D01*
X017852Y013943D01*
X017783Y013924D01*
X017714Y013909D01*
X017644Y013897D01*
X017573Y013889D01*
X017502Y013885D01*
X017432Y013885D01*
X017361Y013889D01*
X017290Y013897D01*
X017220Y013909D01*
X017151Y013924D01*
X017082Y013943D01*
X017015Y013966D01*
X016949Y013993D01*
X016885Y014023D01*
X016823Y014057D01*
X016762Y014094D01*
X016704Y014134D01*
X016647Y014177D01*
X016594Y014224D01*
X016543Y014273D01*
X016494Y014325D01*
X016449Y014380D01*
X016407Y014437D01*
X016368Y014496D01*
X016332Y014557D01*
X016299Y014620D01*
X016270Y014685D01*
X016245Y014751D01*
X016223Y014819D01*
X016205Y014888D01*
X016191Y014957D01*
X016181Y015027D01*
X016175Y015098D01*
X016172Y015169D01*
X016173Y015240D01*
X016179Y015311D01*
X016188Y015381D01*
X016201Y015451D01*
X016217Y015520D01*
X016238Y015588D01*
X016262Y015655D01*
X016290Y015720D01*
X016321Y015784D01*
X016356Y015845D01*
X016394Y015905D01*
X016436Y015963D01*
X016480Y016018D01*
X016527Y016071D01*
X016578Y016121D01*
X016631Y016169D01*
X016686Y016213D01*
X016691Y016206D01*
X016636Y016161D01*
X016583Y016114D01*
X016532Y016063D01*
X016485Y016010D01*
X016440Y015954D01*
X016399Y015896D01*
X016361Y015836D01*
X016326Y015774D01*
X016295Y015710D01*
X016268Y015644D01*
X016244Y015577D01*
X016224Y015508D01*
X016207Y015439D01*
X016195Y015369D01*
X016186Y015298D01*
X016182Y015227D01*
X016181Y015156D01*
X016185Y015085D01*
X016192Y015014D01*
X016203Y014943D01*
X016218Y014874D01*
X016237Y014805D01*
X016260Y014737D01*
X016286Y014671D01*
X016316Y014606D01*
X016350Y014544D01*
X016386Y014483D01*
X016427Y014424D01*
X016470Y014367D01*
X016517Y014313D01*
X016566Y014262D01*
X016619Y014214D01*
X016673Y014168D01*
X016731Y014126D01*
X016790Y014087D01*
X016852Y014051D01*
X016915Y014018D01*
X016980Y013990D01*
X017047Y013964D01*
X017115Y013943D01*
X017184Y013925D01*
X017254Y013912D01*
X017325Y013902D01*
X017396Y013896D01*
X017467Y013894D01*
X017538Y013896D01*
X017609Y013902D01*
X017680Y013912D01*
X017750Y013925D01*
X017819Y013943D01*
X017887Y013964D01*
X017954Y013990D01*
X018019Y014018D01*
X018082Y014051D01*
X018144Y014087D01*
X018203Y014126D01*
X018261Y014168D01*
X018315Y014214D01*
X018368Y014262D01*
X018417Y014313D01*
X018464Y014367D01*
X018507Y014424D01*
X018548Y014483D01*
X018584Y014544D01*
X018618Y014606D01*
X018648Y014671D01*
X018674Y014737D01*
X018697Y014805D01*
X018716Y014874D01*
X018731Y014943D01*
X018742Y015014D01*
X018749Y015085D01*
X018753Y015156D01*
X018752Y015227D01*
X018748Y015298D01*
X018739Y015369D01*
X018727Y015439D01*
X018710Y015508D01*
X018690Y015577D01*
X018666Y015644D01*
X018639Y015710D01*
X018608Y015774D01*
X018573Y015836D01*
X018535Y015896D01*
X018494Y015954D01*
X018449Y016010D01*
X018402Y016063D01*
X018351Y016114D01*
X018298Y016161D01*
X018243Y016206D01*
X018237Y016199D01*
X018292Y016154D01*
X018345Y016107D01*
X018395Y016057D01*
X018442Y016004D01*
X018486Y015949D01*
X018528Y015891D01*
X018565Y015832D01*
X018600Y015770D01*
X018631Y015706D01*
X018658Y015641D01*
X018682Y015574D01*
X018702Y015506D01*
X018718Y015437D01*
X018730Y015368D01*
X018739Y015297D01*
X018743Y015227D01*
X018744Y015156D01*
X018740Y015085D01*
X018733Y015015D01*
X018722Y014945D01*
X018707Y014876D01*
X018688Y014808D01*
X018666Y014740D01*
X018640Y014675D01*
X018610Y014610D01*
X018577Y014548D01*
X018540Y014488D01*
X018500Y014429D01*
X018457Y014373D01*
X018411Y014319D01*
X018361Y014269D01*
X018310Y014220D01*
X018255Y014175D01*
X018198Y014133D01*
X018139Y014094D01*
X018078Y014059D01*
X018015Y014026D01*
X017950Y013998D01*
X017884Y013973D01*
X017816Y013952D01*
X017748Y013934D01*
X017678Y013921D01*
X017608Y013911D01*
X017538Y013905D01*
X017467Y013903D01*
X017396Y013905D01*
X017326Y013911D01*
X017256Y013921D01*
X017186Y013934D01*
X017118Y013952D01*
X017050Y013973D01*
X016984Y013998D01*
X016919Y014026D01*
X016856Y014059D01*
X016795Y014094D01*
X016736Y014133D01*
X016679Y014175D01*
X016624Y014220D01*
X016573Y014269D01*
X016523Y014319D01*
X016477Y014373D01*
X016434Y014429D01*
X016394Y014488D01*
X016357Y014548D01*
X016324Y014610D01*
X016294Y014675D01*
X016268Y014740D01*
X016246Y014808D01*
X016227Y014876D01*
X016212Y014945D01*
X016201Y015015D01*
X016194Y015085D01*
X016190Y015156D01*
X016191Y015227D01*
X016195Y015297D01*
X016204Y015368D01*
X016216Y015437D01*
X016232Y015506D01*
X016252Y015574D01*
X016276Y015641D01*
X016303Y015706D01*
X016334Y015770D01*
X016369Y015832D01*
X016406Y015891D01*
X016448Y015949D01*
X016492Y016004D01*
X016539Y016057D01*
X016589Y016107D01*
X016642Y016154D01*
X016697Y016199D01*
X016702Y016191D01*
X016647Y016147D01*
X016594Y016099D01*
X016544Y016049D01*
X016496Y015996D01*
X016452Y015940D01*
X016411Y015882D01*
X016374Y015822D01*
X016339Y015760D01*
X016309Y015696D01*
X016282Y015630D01*
X016258Y015563D01*
X016239Y015495D01*
X016223Y015425D01*
X016211Y015355D01*
X016203Y015285D01*
X016199Y015214D01*
X016200Y015143D01*
X016204Y015072D01*
X016212Y015001D01*
X016224Y014931D01*
X016240Y014862D01*
X016259Y014794D01*
X016283Y014726D01*
X016310Y014661D01*
X016341Y014597D01*
X016375Y014535D01*
X016413Y014475D01*
X016455Y014417D01*
X016499Y014361D01*
X016546Y014308D01*
X016597Y014258D01*
X016650Y014211D01*
X016705Y014166D01*
X016763Y014125D01*
X016823Y014088D01*
X016886Y014053D01*
X016950Y014022D01*
X017015Y013995D01*
X017082Y013972D01*
X017151Y013952D01*
X017220Y013936D01*
X017290Y013924D01*
X017361Y013916D01*
X017431Y013912D01*
X017503Y013912D01*
X017573Y013916D01*
X017644Y013924D01*
X017714Y013936D01*
X017783Y013952D01*
X017852Y013972D01*
X017919Y013995D01*
X017984Y014022D01*
X018048Y014053D01*
X018111Y014088D01*
X018171Y014125D01*
X018229Y014166D01*
X018284Y014211D01*
X018337Y014258D01*
X018388Y014308D01*
X018435Y014361D01*
X018479Y014417D01*
X018521Y014475D01*
X018559Y014535D01*
X018593Y014597D01*
X018624Y014661D01*
X018651Y014726D01*
X018675Y014794D01*
X018694Y014862D01*
X018710Y014931D01*
X018722Y015001D01*
X018730Y015072D01*
X018734Y015143D01*
X018735Y015214D01*
X018731Y015285D01*
X018723Y015355D01*
X018711Y015425D01*
X018695Y015495D01*
X018676Y015563D01*
X018652Y015630D01*
X018625Y015696D01*
X018595Y015760D01*
X018560Y015822D01*
X018523Y015882D01*
X018482Y015940D01*
X018438Y015996D01*
X018390Y016049D01*
X018340Y016099D01*
X018287Y016147D01*
X018232Y016191D01*
X018226Y016184D01*
X018281Y016140D01*
X018334Y016093D01*
X018384Y016043D01*
X018431Y015990D01*
X018475Y015935D01*
X018515Y015877D01*
X018553Y015818D01*
X018587Y015756D01*
X018617Y015692D01*
X018644Y015627D01*
X018667Y015560D01*
X018687Y015492D01*
X018702Y015424D01*
X018714Y015354D01*
X018722Y015284D01*
X018726Y015213D01*
X018725Y015143D01*
X018721Y015072D01*
X018713Y015002D01*
X018701Y014933D01*
X018686Y014864D01*
X018666Y014796D01*
X018643Y014730D01*
X018616Y014665D01*
X018585Y014601D01*
X018551Y014539D01*
X018513Y014480D01*
X018472Y014422D01*
X018428Y014367D01*
X018381Y014314D01*
X018331Y014265D01*
X018279Y014218D01*
X018223Y014174D01*
X018166Y014133D01*
X018106Y014095D01*
X018044Y014061D01*
X017981Y014031D01*
X017916Y014004D01*
X017849Y013980D01*
X017781Y013961D01*
X017712Y013945D01*
X017643Y013933D01*
X017573Y013925D01*
X017502Y013921D01*
X017432Y013921D01*
X017361Y013925D01*
X017291Y013933D01*
X017222Y013945D01*
X017153Y013961D01*
X017085Y013980D01*
X017018Y014004D01*
X016953Y014031D01*
X016890Y014061D01*
X016828Y014095D01*
X016768Y014133D01*
X016711Y014174D01*
X016655Y014218D01*
X016603Y014265D01*
X016553Y014314D01*
X016506Y014367D01*
X016462Y014422D01*
X016421Y014480D01*
X016383Y014539D01*
X016349Y014601D01*
X016318Y014665D01*
X016291Y014730D01*
X016268Y014796D01*
X016248Y014864D01*
X016233Y014933D01*
X016221Y015002D01*
X016213Y015072D01*
X016209Y015143D01*
X016208Y015213D01*
X016212Y015284D01*
X016220Y015354D01*
X016232Y015424D01*
X016247Y015492D01*
X016267Y015560D01*
X016290Y015627D01*
X016317Y015692D01*
X016347Y015756D01*
X016381Y015818D01*
X016419Y015877D01*
X016459Y015935D01*
X016503Y015990D01*
X016550Y016043D01*
X016600Y016093D01*
X016653Y016140D01*
X016708Y016184D01*
X016713Y016177D01*
X016658Y016133D01*
X016606Y016086D01*
X016557Y016037D01*
X016510Y015984D01*
X016467Y015930D01*
X016426Y015872D01*
X016389Y015813D01*
X016355Y015752D01*
X016325Y015688D01*
X016298Y015624D01*
X016275Y015557D01*
X016256Y015490D01*
X016241Y015422D01*
X016229Y015353D01*
X016221Y015283D01*
X016217Y015213D01*
X016218Y015143D01*
X016222Y015073D01*
X016230Y015004D01*
X016241Y014935D01*
X016257Y014866D01*
X016276Y014799D01*
X016300Y014733D01*
X016327Y014668D01*
X016357Y014605D01*
X016391Y014544D01*
X016428Y014485D01*
X016469Y014427D01*
X016513Y014373D01*
X016559Y014321D01*
X016609Y014271D01*
X016661Y014224D01*
X016716Y014181D01*
X016773Y014140D01*
X016832Y014103D01*
X016894Y014069D01*
X016957Y014039D01*
X017022Y014012D01*
X017088Y013989D01*
X017155Y013970D01*
X017223Y013954D01*
X017292Y013942D01*
X017362Y013934D01*
X017432Y013930D01*
X017502Y013930D01*
X017572Y013934D01*
X017642Y013942D01*
X017711Y013954D01*
X017779Y013970D01*
X017846Y013989D01*
X017912Y014012D01*
X017977Y014039D01*
X018040Y014069D01*
X018102Y014103D01*
X018161Y014140D01*
X018218Y014181D01*
X018273Y014224D01*
X018325Y014271D01*
X018375Y014321D01*
X018421Y014373D01*
X018465Y014427D01*
X018506Y014485D01*
X018543Y014544D01*
X018577Y014605D01*
X018607Y014668D01*
X018634Y014733D01*
X018658Y014799D01*
X018677Y014866D01*
X018693Y014935D01*
X018704Y015004D01*
X018712Y015073D01*
X018716Y015143D01*
X018717Y015213D01*
X018713Y015283D01*
X018705Y015353D01*
X018693Y015422D01*
X018678Y015490D01*
X018659Y015557D01*
X018636Y015624D01*
X018609Y015688D01*
X018579Y015752D01*
X018545Y015813D01*
X018508Y015872D01*
X018467Y015930D01*
X018424Y015984D01*
X018377Y016037D01*
X018328Y016086D01*
X018276Y016133D01*
X018221Y016177D01*
X018216Y016170D01*
X018270Y016126D01*
X018322Y016080D01*
X018371Y016031D01*
X018417Y015979D01*
X018460Y015924D01*
X018500Y015867D01*
X018537Y015808D01*
X018571Y015747D01*
X018601Y015685D01*
X018627Y015620D01*
X018650Y015555D01*
X018669Y015488D01*
X018685Y015420D01*
X018696Y015351D01*
X018704Y015282D01*
X018708Y015213D01*
X018707Y015143D01*
X018703Y015074D01*
X018696Y015005D01*
X018684Y014936D01*
X018668Y014869D01*
X018649Y014802D01*
X018626Y014736D01*
X018599Y014672D01*
X018569Y014609D01*
X018535Y014548D01*
X018498Y014490D01*
X018458Y014433D01*
X018415Y014379D01*
X018368Y014327D01*
X018319Y014278D01*
X018267Y014231D01*
X018213Y014188D01*
X018156Y014148D01*
X018097Y014111D01*
X018036Y014077D01*
X017973Y014047D01*
X017909Y014020D01*
X017844Y013997D01*
X017777Y013978D01*
X017709Y013963D01*
X017640Y013951D01*
X017571Y013943D01*
X017502Y013939D01*
X017432Y013939D01*
X017363Y013943D01*
X017294Y013951D01*
X017225Y013963D01*
X017157Y013978D01*
X017090Y013997D01*
X017025Y014020D01*
X016961Y014047D01*
X016898Y014077D01*
X016837Y014111D01*
X016778Y014148D01*
X016721Y014188D01*
X016667Y014231D01*
X016615Y014278D01*
X016566Y014327D01*
X016519Y014379D01*
X016476Y014433D01*
X016436Y014490D01*
X016399Y014548D01*
X016365Y014609D01*
X016335Y014672D01*
X016308Y014736D01*
X016285Y014802D01*
X016266Y014869D01*
X016250Y014936D01*
X016238Y015005D01*
X016231Y015074D01*
X016227Y015143D01*
X016226Y015213D01*
X016230Y015282D01*
X016238Y015351D01*
X016249Y015420D01*
X016265Y015488D01*
X016284Y015555D01*
X016307Y015620D01*
X016333Y015685D01*
X016363Y015747D01*
X016397Y015808D01*
X016434Y015867D01*
X016474Y015924D01*
X016517Y015979D01*
X016563Y016031D01*
X016612Y016080D01*
X016664Y016126D01*
X016718Y016170D01*
X016724Y016163D01*
X016670Y016119D01*
X016619Y016073D01*
X016570Y016024D01*
X016524Y015973D01*
X016481Y015919D01*
X016441Y015862D01*
X016405Y015804D01*
X016371Y015743D01*
X016341Y015681D01*
X016315Y015617D01*
X016293Y015552D01*
X016274Y015486D01*
X016258Y015418D01*
X016247Y015350D01*
X016239Y015282D01*
X016235Y015213D01*
X016236Y015144D01*
X016240Y015075D01*
X016247Y015006D01*
X016259Y014938D01*
X016274Y014871D01*
X016294Y014804D01*
X016317Y014739D01*
X016343Y014676D01*
X016373Y014613D01*
X016406Y014553D01*
X016443Y014495D01*
X016483Y014438D01*
X016526Y014384D01*
X016572Y014333D01*
X016621Y014284D01*
X016673Y014238D01*
X016727Y014195D01*
X016783Y014155D01*
X016842Y014119D01*
X016902Y014085D01*
X016964Y014055D01*
X017028Y014029D01*
X017093Y014006D01*
X017160Y013987D01*
X017227Y013972D01*
X017295Y013960D01*
X017364Y013952D01*
X017432Y013948D01*
X017502Y013948D01*
X017570Y013952D01*
X017639Y013960D01*
X017707Y013972D01*
X017774Y013987D01*
X017841Y014006D01*
X017906Y014029D01*
X017970Y014055D01*
X018032Y014085D01*
X018092Y014119D01*
X018151Y014155D01*
X018207Y014195D01*
X018261Y014238D01*
X018313Y014284D01*
X018362Y014333D01*
X018408Y014384D01*
X018451Y014438D01*
X018491Y014495D01*
X018528Y014553D01*
X018561Y014613D01*
X018591Y014676D01*
X018617Y014739D01*
X018640Y014804D01*
X018660Y014871D01*
X018675Y014938D01*
X018687Y015006D01*
X018694Y015075D01*
X018698Y015144D01*
X018699Y015213D01*
X018695Y015282D01*
X018687Y015350D01*
X018676Y015418D01*
X018660Y015486D01*
X018641Y015552D01*
X018619Y015617D01*
X018593Y015681D01*
X018563Y015743D01*
X018529Y015804D01*
X018493Y015862D01*
X018453Y015919D01*
X018410Y015973D01*
X018364Y016024D01*
X018315Y016073D01*
X018264Y016119D01*
X018210Y016163D01*
X018205Y016155D01*
X018259Y016112D01*
X018310Y016066D01*
X018359Y016016D01*
X018405Y015965D01*
X018448Y015910D01*
X018488Y015853D01*
X018524Y015795D01*
X018558Y015734D01*
X018587Y015671D01*
X018613Y015607D01*
X018635Y015541D01*
X018654Y015474D01*
X018669Y015407D01*
X018680Y015338D01*
X018687Y015269D01*
X018690Y015200D01*
X018689Y015131D01*
X018684Y015061D01*
X018676Y014993D01*
X018663Y014925D01*
X018647Y014857D01*
X018626Y014791D01*
X018603Y014726D01*
X018575Y014662D01*
X018544Y014600D01*
X018509Y014540D01*
X018471Y014482D01*
X018430Y014426D01*
X018386Y014373D01*
X018339Y014322D01*
X018289Y014274D01*
X018236Y014229D01*
X018181Y014187D01*
X018124Y014148D01*
X018064Y014113D01*
X018003Y014081D01*
X017940Y014052D01*
X017875Y014027D01*
X017809Y014006D01*
X017742Y013988D01*
X017674Y013975D01*
X017605Y013965D01*
X017536Y013959D01*
X017467Y013957D01*
X017398Y013959D01*
X017329Y013965D01*
X017260Y013975D01*
X017192Y013988D01*
X017125Y014006D01*
X017059Y014027D01*
X016994Y014052D01*
X016931Y014081D01*
X016870Y014113D01*
X016810Y014148D01*
X016753Y014187D01*
X016698Y014229D01*
X016645Y014274D01*
X016595Y014322D01*
X016548Y014373D01*
X016504Y014426D01*
X016463Y014482D01*
X016425Y014540D01*
X016390Y014600D01*
X016359Y014662D01*
X016331Y014726D01*
X016308Y014791D01*
X016287Y014857D01*
X016271Y014925D01*
X016258Y014993D01*
X016250Y015061D01*
X016245Y015131D01*
X016244Y015200D01*
X016247Y015269D01*
X016254Y015338D01*
X016265Y015407D01*
X016280Y015474D01*
X016299Y015541D01*
X016321Y015607D01*
X016347Y015671D01*
X016376Y015734D01*
X016410Y015795D01*
X016446Y015853D01*
X016486Y015910D01*
X016529Y015965D01*
X016575Y016016D01*
X016624Y016066D01*
X016675Y016112D01*
X016729Y016155D01*
X016735Y016148D01*
X016681Y016105D01*
X016630Y016059D01*
X016581Y016010D01*
X016536Y015959D01*
X016493Y015905D01*
X016454Y015848D01*
X016417Y015790D01*
X016384Y015730D01*
X016355Y015667D01*
X016329Y015604D01*
X016307Y015538D01*
X016289Y015472D01*
X016274Y015405D01*
X016263Y015337D01*
X016256Y015268D01*
X016253Y015200D01*
X016254Y015131D01*
X016259Y015062D01*
X016267Y014994D01*
X016280Y014926D01*
X016296Y014860D01*
X016316Y014794D01*
X016340Y014729D01*
X016367Y014666D01*
X016398Y014605D01*
X016432Y014545D01*
X016470Y014487D01*
X016511Y014432D01*
X016555Y014379D01*
X016602Y014329D01*
X016651Y014281D01*
X016703Y014236D01*
X016758Y014194D01*
X016815Y014156D01*
X016874Y014121D01*
X016935Y014089D01*
X016998Y014060D01*
X017062Y014036D01*
X017128Y014014D01*
X017194Y013997D01*
X017262Y013984D01*
X017330Y013974D01*
X017398Y013968D01*
X017467Y013966D01*
X017536Y013968D01*
X017604Y013974D01*
X017672Y013984D01*
X017740Y013997D01*
X017806Y014014D01*
X017872Y014036D01*
X017936Y014060D01*
X017999Y014089D01*
X018060Y014121D01*
X018119Y014156D01*
X018176Y014194D01*
X018231Y014236D01*
X018283Y014281D01*
X018332Y014329D01*
X018379Y014379D01*
X018423Y014432D01*
X018464Y014487D01*
X018502Y014545D01*
X018536Y014605D01*
X018567Y014666D01*
X018594Y014729D01*
X018618Y014794D01*
X018638Y014860D01*
X018654Y014926D01*
X018667Y014994D01*
X018675Y015062D01*
X018680Y015131D01*
X018681Y015200D01*
X018678Y015268D01*
X018671Y015337D01*
X018660Y015405D01*
X018645Y015472D01*
X018627Y015538D01*
X018605Y015604D01*
X018579Y015667D01*
X018550Y015730D01*
X018517Y015790D01*
X018480Y015848D01*
X018441Y015905D01*
X018398Y015959D01*
X018353Y016010D01*
X018304Y016059D01*
X018253Y016105D01*
X018199Y016148D01*
D20*
X019967Y016600D03*
X019967Y013760D03*
D21*
X009431Y003865D02*
X009431Y003558D01*
X009431Y003711D02*
X008971Y003711D01*
X009124Y003558D01*
X009047Y003404D02*
X008971Y003328D01*
X008971Y003097D01*
X009431Y003097D01*
X009278Y003097D02*
X009278Y003328D01*
X009201Y003404D01*
X009047Y003404D01*
X008971Y002944D02*
X008971Y002790D01*
X008971Y002867D02*
X009354Y002867D01*
X009431Y002790D01*
X009431Y002714D01*
X009354Y002637D01*
D22*
X015072Y008026D02*
X018947Y011902D01*
X017872Y011011D02*
X017872Y011004D01*
X017872Y011011D02*
X016176Y011011D01*
X016169Y011011D01*
X016162Y011011D01*
X016169Y011011D02*
X016176Y011011D01*
X016162Y011011D02*
X016154Y011009D01*
X016147Y011005D01*
X016143Y010998D01*
X016141Y010990D01*
X016140Y010990D02*
X016140Y010975D01*
X016140Y010954D01*
X016141Y010954D02*
X016142Y010949D01*
X016145Y010944D01*
X016150Y010941D01*
X016155Y010940D01*
X016269Y010940D01*
X016881Y010940D01*
X017466Y010940D01*
X017808Y010940D01*
X017765Y010933D02*
X017565Y008966D01*
X017373Y008802D02*
X017375Y008822D01*
X017381Y008840D01*
X017390Y008858D01*
X017402Y008873D01*
X017417Y008885D01*
X017435Y008894D01*
X017453Y008900D01*
X017473Y008902D01*
X017493Y008900D01*
X017511Y008894D01*
X017529Y008885D01*
X017544Y008873D01*
X017556Y008858D01*
X017565Y008840D01*
X017571Y008822D01*
X017573Y008802D01*
X017571Y008782D01*
X017565Y008764D01*
X017556Y008746D01*
X017544Y008731D01*
X017529Y008719D01*
X017511Y008710D01*
X017493Y008704D01*
X017473Y008702D01*
X017453Y008704D01*
X017435Y008710D01*
X017417Y008719D01*
X017402Y008731D01*
X017390Y008746D01*
X017381Y008764D01*
X017375Y008782D01*
X017373Y008802D01*
X017280Y008781D02*
X016561Y008774D01*
X016539Y008760D02*
X016539Y008667D01*
X016540Y008656D01*
X016545Y008646D01*
X016552Y008637D01*
X016561Y008630D01*
X016571Y008625D01*
X016582Y008624D01*
X016596Y008624D01*
X016607Y008626D01*
X016617Y008631D01*
X016625Y008639D01*
X016630Y008649D01*
X016632Y008660D01*
X016632Y008760D01*
X016518Y008780D02*
X016503Y008783D01*
X016490Y008790D01*
X016479Y008799D01*
X016470Y008810D01*
X016463Y008823D01*
X016460Y008838D01*
X016461Y008838D02*
X016254Y010933D01*
X016261Y011032D02*
X017736Y011032D01*
X017758Y011032D02*
X017760Y011044D01*
X017758Y011056D01*
X017752Y011067D01*
X017744Y011076D01*
X017722Y011011D02*
X017724Y011027D01*
X017730Y011043D01*
X017739Y011057D01*
X017751Y011068D01*
X017765Y011076D01*
X017781Y011081D01*
X017797Y011082D01*
X017813Y011079D01*
X017828Y011072D01*
X017842Y011063D01*
X017852Y011050D01*
X017860Y011035D01*
X017864Y011019D01*
X017864Y011003D01*
X017860Y010987D01*
X017852Y010972D01*
X017842Y010959D01*
X017829Y010950D01*
X017813Y010943D01*
X017797Y010940D01*
X017781Y010941D01*
X017765Y010946D01*
X017751Y010954D01*
X017739Y010965D01*
X017730Y010979D01*
X017724Y010995D01*
X017722Y011011D01*
X017744Y011075D02*
X017730Y011084D01*
X017716Y011091D01*
X017701Y011096D01*
X017808Y010940D02*
X017822Y010942D01*
X017836Y010946D01*
X017848Y010954D01*
X017858Y010964D01*
X017866Y010976D01*
X017870Y010990D01*
X017872Y011004D01*
X017793Y010811D02*
X017779Y010810D01*
X017765Y010811D01*
X017793Y010811D02*
X017807Y010812D01*
X017822Y010810D01*
X017835Y010805D01*
X017847Y010797D01*
X017857Y010787D01*
X017865Y010775D01*
X017869Y010761D01*
X017871Y010747D01*
X017872Y010747D02*
X017872Y010705D01*
X017871Y010705D02*
X017869Y010689D01*
X017864Y010674D01*
X017856Y010661D01*
X017844Y010650D01*
X017831Y010641D01*
X017816Y010636D01*
X017800Y010634D01*
X017800Y010633D02*
X017751Y010633D01*
X017295Y010391D02*
X017295Y010341D01*
X017294Y010332D01*
X017289Y010324D01*
X017283Y010318D01*
X017275Y010313D01*
X017266Y010312D01*
X017266Y010313D02*
X016931Y010313D01*
X016920Y010314D01*
X016910Y010319D01*
X016901Y010326D01*
X016894Y010335D01*
X016889Y010345D01*
X016888Y010356D01*
X016888Y010377D01*
X016888Y010398D01*
X016461Y011146D02*
X016418Y011140D01*
X016375Y011132D01*
X016411Y011118D02*
X016418Y011047D01*
X016290Y011104D02*
X016278Y011097D01*
X016268Y011087D01*
X016260Y011075D01*
X016255Y011061D01*
X016253Y011047D01*
X016254Y011033D01*
X016411Y011161D02*
X016413Y011168D01*
X016418Y011174D01*
X016425Y011177D01*
X016433Y011177D01*
X016440Y011174D01*
X016445Y011168D01*
X016447Y011161D01*
X016411Y011160D02*
X016410Y011139D01*
X016411Y011118D01*
X016375Y011132D02*
X016346Y011125D01*
X016318Y011115D01*
X016290Y011104D01*
X016446Y011054D02*
X016449Y011089D01*
X016449Y011125D01*
X016446Y011160D01*
X016817Y011168D02*
X016853Y011168D01*
X016853Y011189D02*
X016853Y011132D01*
X017181Y011132D01*
X017181Y011189D01*
X016853Y011189D01*
X017188Y011168D02*
X017323Y011161D01*
X017558Y011133D02*
X017606Y011123D01*
X017653Y011111D01*
X017700Y011097D01*
X017558Y011132D02*
X017480Y011145D01*
X017401Y011155D01*
X017323Y011161D01*
X015086Y011887D02*
X018933Y008040D01*
X017288Y008802D02*
X017290Y008829D01*
X017296Y008855D01*
X017305Y008881D01*
X017319Y008904D01*
X017335Y008925D01*
X017355Y008944D01*
X017377Y008960D01*
X017401Y008972D01*
X017426Y008981D01*
X017453Y008986D01*
X017480Y008987D01*
X017507Y008984D01*
X017533Y008977D01*
X017558Y008967D01*
X017581Y008952D01*
X017601Y008935D01*
X017619Y008915D01*
X017634Y008893D01*
X017646Y008868D01*
X017654Y008842D01*
X017658Y008816D01*
X017658Y008788D01*
X017654Y008762D01*
X017646Y008736D01*
X017634Y008711D01*
X017619Y008689D01*
X017601Y008669D01*
X017581Y008652D01*
X017558Y008637D01*
X017533Y008627D01*
X017507Y008620D01*
X017480Y008617D01*
X017453Y008618D01*
X017426Y008623D01*
X017401Y008632D01*
X017377Y008644D01*
X017355Y008660D01*
X017335Y008679D01*
X017319Y008700D01*
X017305Y008723D01*
X017296Y008749D01*
X017290Y008775D01*
X017288Y008802D01*
X016817Y011168D02*
X016728Y011167D01*
X016639Y011163D01*
X016549Y011156D01*
X016461Y011147D01*
X016518Y008781D02*
X016539Y008779D01*
X016561Y008774D01*
M02*
