G75*
%MOIN*%
%OFA0B0*%
%FSLAX25Y25*%
%IPPOS*%
%LPD*%
%AMOC8*
5,1,8,0,0,1.08239X$1,22.5*
%
%ADD10C,0.00000*%
%ADD11C,0.00300*%
%ADD12C,0.00700*%
%ADD13C,0.05600*%
%ADD14C,0.00600*%
%ADD15C,0.00500*%
%ADD16R,0.03400X0.02400*%
%ADD17R,0.02000X0.10000*%
%ADD18R,0.07500X0.03000*%
%ADD19C,0.00800*%
%ADD20C,0.00100*%
%ADD21R,0.02400X0.03400*%
%ADD22C,0.00400*%
%ADD23C,0.00570*%
D10*
X0059668Y0010871D02*
X0059668Y0140747D01*
X0084156Y0168800D02*
X0084158Y0168948D01*
X0084164Y0169096D01*
X0084174Y0169244D01*
X0084188Y0169391D01*
X0084206Y0169538D01*
X0084227Y0169684D01*
X0084253Y0169830D01*
X0084283Y0169975D01*
X0084316Y0170119D01*
X0084354Y0170262D01*
X0084395Y0170404D01*
X0084440Y0170545D01*
X0084488Y0170685D01*
X0084541Y0170824D01*
X0084597Y0170961D01*
X0084657Y0171096D01*
X0084720Y0171230D01*
X0084787Y0171362D01*
X0084858Y0171492D01*
X0084932Y0171620D01*
X0085009Y0171746D01*
X0085090Y0171870D01*
X0085174Y0171992D01*
X0085261Y0172111D01*
X0085352Y0172228D01*
X0085446Y0172343D01*
X0085542Y0172455D01*
X0085642Y0172565D01*
X0085744Y0172671D01*
X0085850Y0172775D01*
X0085958Y0172876D01*
X0086069Y0172974D01*
X0086182Y0173070D01*
X0086298Y0173162D01*
X0086416Y0173251D01*
X0086537Y0173336D01*
X0086660Y0173419D01*
X0086785Y0173498D01*
X0086912Y0173574D01*
X0087041Y0173646D01*
X0087172Y0173715D01*
X0087305Y0173780D01*
X0087440Y0173841D01*
X0087576Y0173899D01*
X0087713Y0173954D01*
X0087852Y0174004D01*
X0087993Y0174051D01*
X0088134Y0174094D01*
X0088277Y0174134D01*
X0088421Y0174169D01*
X0088565Y0174201D01*
X0088711Y0174228D01*
X0088857Y0174252D01*
X0089004Y0174272D01*
X0089151Y0174288D01*
X0089298Y0174300D01*
X0089446Y0174308D01*
X0089594Y0174312D01*
X0089742Y0174312D01*
X0089890Y0174308D01*
X0090038Y0174300D01*
X0090185Y0174288D01*
X0090332Y0174272D01*
X0090479Y0174252D01*
X0090625Y0174228D01*
X0090771Y0174201D01*
X0090915Y0174169D01*
X0091059Y0174134D01*
X0091202Y0174094D01*
X0091343Y0174051D01*
X0091484Y0174004D01*
X0091623Y0173954D01*
X0091760Y0173899D01*
X0091896Y0173841D01*
X0092031Y0173780D01*
X0092164Y0173715D01*
X0092295Y0173646D01*
X0092424Y0173574D01*
X0092551Y0173498D01*
X0092676Y0173419D01*
X0092799Y0173336D01*
X0092920Y0173251D01*
X0093038Y0173162D01*
X0093154Y0173070D01*
X0093267Y0172974D01*
X0093378Y0172876D01*
X0093486Y0172775D01*
X0093592Y0172671D01*
X0093694Y0172565D01*
X0093794Y0172455D01*
X0093890Y0172343D01*
X0093984Y0172228D01*
X0094075Y0172111D01*
X0094162Y0171992D01*
X0094246Y0171870D01*
X0094327Y0171746D01*
X0094404Y0171620D01*
X0094478Y0171492D01*
X0094549Y0171362D01*
X0094616Y0171230D01*
X0094679Y0171096D01*
X0094739Y0170961D01*
X0094795Y0170824D01*
X0094848Y0170685D01*
X0094896Y0170545D01*
X0094941Y0170404D01*
X0094982Y0170262D01*
X0095020Y0170119D01*
X0095053Y0169975D01*
X0095083Y0169830D01*
X0095109Y0169684D01*
X0095130Y0169538D01*
X0095148Y0169391D01*
X0095162Y0169244D01*
X0095172Y0169096D01*
X0095178Y0168948D01*
X0095180Y0168800D01*
X0095178Y0168652D01*
X0095172Y0168504D01*
X0095162Y0168356D01*
X0095148Y0168209D01*
X0095130Y0168062D01*
X0095109Y0167916D01*
X0095083Y0167770D01*
X0095053Y0167625D01*
X0095020Y0167481D01*
X0094982Y0167338D01*
X0094941Y0167196D01*
X0094896Y0167055D01*
X0094848Y0166915D01*
X0094795Y0166776D01*
X0094739Y0166639D01*
X0094679Y0166504D01*
X0094616Y0166370D01*
X0094549Y0166238D01*
X0094478Y0166108D01*
X0094404Y0165980D01*
X0094327Y0165854D01*
X0094246Y0165730D01*
X0094162Y0165608D01*
X0094075Y0165489D01*
X0093984Y0165372D01*
X0093890Y0165257D01*
X0093794Y0165145D01*
X0093694Y0165035D01*
X0093592Y0164929D01*
X0093486Y0164825D01*
X0093378Y0164724D01*
X0093267Y0164626D01*
X0093154Y0164530D01*
X0093038Y0164438D01*
X0092920Y0164349D01*
X0092799Y0164264D01*
X0092676Y0164181D01*
X0092551Y0164102D01*
X0092424Y0164026D01*
X0092295Y0163954D01*
X0092164Y0163885D01*
X0092031Y0163820D01*
X0091896Y0163759D01*
X0091760Y0163701D01*
X0091623Y0163646D01*
X0091484Y0163596D01*
X0091343Y0163549D01*
X0091202Y0163506D01*
X0091059Y0163466D01*
X0090915Y0163431D01*
X0090771Y0163399D01*
X0090625Y0163372D01*
X0090479Y0163348D01*
X0090332Y0163328D01*
X0090185Y0163312D01*
X0090038Y0163300D01*
X0089890Y0163292D01*
X0089742Y0163288D01*
X0089594Y0163288D01*
X0089446Y0163292D01*
X0089298Y0163300D01*
X0089151Y0163312D01*
X0089004Y0163328D01*
X0088857Y0163348D01*
X0088711Y0163372D01*
X0088565Y0163399D01*
X0088421Y0163431D01*
X0088277Y0163466D01*
X0088134Y0163506D01*
X0087993Y0163549D01*
X0087852Y0163596D01*
X0087713Y0163646D01*
X0087576Y0163701D01*
X0087440Y0163759D01*
X0087305Y0163820D01*
X0087172Y0163885D01*
X0087041Y0163954D01*
X0086912Y0164026D01*
X0086785Y0164102D01*
X0086660Y0164181D01*
X0086537Y0164264D01*
X0086416Y0164349D01*
X0086298Y0164438D01*
X0086182Y0164530D01*
X0086069Y0164626D01*
X0085958Y0164724D01*
X0085850Y0164825D01*
X0085744Y0164929D01*
X0085642Y0165035D01*
X0085542Y0165145D01*
X0085446Y0165257D01*
X0085352Y0165372D01*
X0085261Y0165489D01*
X0085174Y0165608D01*
X0085090Y0165730D01*
X0085009Y0165854D01*
X0084932Y0165980D01*
X0084858Y0166108D01*
X0084787Y0166238D01*
X0084720Y0166370D01*
X0084657Y0166504D01*
X0084597Y0166639D01*
X0084541Y0166776D01*
X0084488Y0166915D01*
X0084440Y0167055D01*
X0084395Y0167196D01*
X0084354Y0167338D01*
X0084316Y0167481D01*
X0084283Y0167625D01*
X0084253Y0167770D01*
X0084227Y0167916D01*
X0084206Y0168062D01*
X0084188Y0168209D01*
X0084174Y0168356D01*
X0084164Y0168504D01*
X0084158Y0168652D01*
X0084156Y0168800D01*
X0059667Y0140747D02*
X0059684Y0142195D01*
X0059737Y0143641D01*
X0059824Y0145086D01*
X0059947Y0146529D01*
X0060104Y0147968D01*
X0060296Y0149402D01*
X0060522Y0150832D01*
X0060783Y0152256D01*
X0061078Y0153673D01*
X0061408Y0155083D01*
X0061771Y0156484D01*
X0062168Y0157876D01*
X0062599Y0159258D01*
X0063063Y0160630D01*
X0063560Y0161989D01*
X0064089Y0163336D01*
X0064651Y0164671D01*
X0065246Y0165991D01*
X0065871Y0167296D01*
X0066529Y0168586D01*
X0067217Y0169859D01*
X0067936Y0171116D01*
X0068684Y0172355D01*
X0069463Y0173575D01*
X0070271Y0174776D01*
X0071108Y0175958D01*
X0071973Y0177118D01*
X0072865Y0178258D01*
X0073785Y0179376D01*
X0074732Y0180471D01*
X0075705Y0181543D01*
X0076704Y0182591D01*
X0077727Y0183614D01*
X0078775Y0184613D01*
X0079847Y0185586D01*
X0080942Y0186533D01*
X0082060Y0187453D01*
X0083200Y0188345D01*
X0084360Y0189210D01*
X0085542Y0190047D01*
X0086743Y0190855D01*
X0087963Y0191634D01*
X0089202Y0192382D01*
X0090459Y0193101D01*
X0091732Y0193789D01*
X0093022Y0194447D01*
X0094327Y0195072D01*
X0095647Y0195667D01*
X0096982Y0196229D01*
X0098329Y0196758D01*
X0099688Y0197255D01*
X0101060Y0197719D01*
X0102442Y0198150D01*
X0103834Y0198547D01*
X0105235Y0198910D01*
X0106645Y0199240D01*
X0108062Y0199535D01*
X0109486Y0199796D01*
X0110916Y0200022D01*
X0112350Y0200214D01*
X0113789Y0200371D01*
X0115232Y0200494D01*
X0116677Y0200581D01*
X0118123Y0200634D01*
X0119571Y0200651D01*
X0119571Y0200650D02*
X0218546Y0200650D01*
X0219464Y0200639D01*
X0220381Y0200606D01*
X0221296Y0200550D01*
X0222211Y0200473D01*
X0223123Y0200373D01*
X0224033Y0200252D01*
X0224939Y0200108D01*
X0225841Y0199943D01*
X0226740Y0199755D01*
X0227633Y0199547D01*
X0228522Y0199316D01*
X0229404Y0199065D01*
X0230280Y0198792D01*
X0231149Y0198497D01*
X0232011Y0198182D01*
X0232865Y0197847D01*
X0233711Y0197490D01*
X0234547Y0197114D01*
X0235375Y0196717D01*
X0236192Y0196301D01*
X0237000Y0195864D01*
X0237796Y0195409D01*
X0238582Y0194934D01*
X0239355Y0194440D01*
X0240117Y0193928D01*
X0240865Y0193398D01*
X0241601Y0192850D01*
X0242324Y0192284D01*
X0243032Y0191701D01*
X0243726Y0191100D01*
X0244406Y0190484D01*
X0245070Y0189851D01*
X0245719Y0189202D01*
X0246352Y0188538D01*
X0246968Y0187858D01*
X0247569Y0187164D01*
X0248152Y0186456D01*
X0248718Y0185733D01*
X0249266Y0184997D01*
X0249796Y0184249D01*
X0250308Y0183487D01*
X0250802Y0182714D01*
X0251277Y0181928D01*
X0251732Y0181132D01*
X0252169Y0180324D01*
X0252585Y0179507D01*
X0252982Y0178679D01*
X0253358Y0177843D01*
X0253715Y0176997D01*
X0254050Y0176143D01*
X0254365Y0175281D01*
X0254660Y0174412D01*
X0254933Y0173536D01*
X0255184Y0172654D01*
X0255415Y0171765D01*
X0255623Y0170872D01*
X0255811Y0169973D01*
X0255976Y0169071D01*
X0256120Y0168165D01*
X0256241Y0167255D01*
X0256341Y0166343D01*
X0256418Y0165428D01*
X0256474Y0164513D01*
X0256507Y0163596D01*
X0256518Y0162678D01*
X0256518Y0033422D01*
X0229156Y0028800D02*
X0229158Y0028948D01*
X0229164Y0029096D01*
X0229174Y0029244D01*
X0229188Y0029391D01*
X0229206Y0029538D01*
X0229227Y0029684D01*
X0229253Y0029830D01*
X0229283Y0029975D01*
X0229316Y0030119D01*
X0229354Y0030262D01*
X0229395Y0030404D01*
X0229440Y0030545D01*
X0229488Y0030685D01*
X0229541Y0030824D01*
X0229597Y0030961D01*
X0229657Y0031096D01*
X0229720Y0031230D01*
X0229787Y0031362D01*
X0229858Y0031492D01*
X0229932Y0031620D01*
X0230009Y0031746D01*
X0230090Y0031870D01*
X0230174Y0031992D01*
X0230261Y0032111D01*
X0230352Y0032228D01*
X0230446Y0032343D01*
X0230542Y0032455D01*
X0230642Y0032565D01*
X0230744Y0032671D01*
X0230850Y0032775D01*
X0230958Y0032876D01*
X0231069Y0032974D01*
X0231182Y0033070D01*
X0231298Y0033162D01*
X0231416Y0033251D01*
X0231537Y0033336D01*
X0231660Y0033419D01*
X0231785Y0033498D01*
X0231912Y0033574D01*
X0232041Y0033646D01*
X0232172Y0033715D01*
X0232305Y0033780D01*
X0232440Y0033841D01*
X0232576Y0033899D01*
X0232713Y0033954D01*
X0232852Y0034004D01*
X0232993Y0034051D01*
X0233134Y0034094D01*
X0233277Y0034134D01*
X0233421Y0034169D01*
X0233565Y0034201D01*
X0233711Y0034228D01*
X0233857Y0034252D01*
X0234004Y0034272D01*
X0234151Y0034288D01*
X0234298Y0034300D01*
X0234446Y0034308D01*
X0234594Y0034312D01*
X0234742Y0034312D01*
X0234890Y0034308D01*
X0235038Y0034300D01*
X0235185Y0034288D01*
X0235332Y0034272D01*
X0235479Y0034252D01*
X0235625Y0034228D01*
X0235771Y0034201D01*
X0235915Y0034169D01*
X0236059Y0034134D01*
X0236202Y0034094D01*
X0236343Y0034051D01*
X0236484Y0034004D01*
X0236623Y0033954D01*
X0236760Y0033899D01*
X0236896Y0033841D01*
X0237031Y0033780D01*
X0237164Y0033715D01*
X0237295Y0033646D01*
X0237424Y0033574D01*
X0237551Y0033498D01*
X0237676Y0033419D01*
X0237799Y0033336D01*
X0237920Y0033251D01*
X0238038Y0033162D01*
X0238154Y0033070D01*
X0238267Y0032974D01*
X0238378Y0032876D01*
X0238486Y0032775D01*
X0238592Y0032671D01*
X0238694Y0032565D01*
X0238794Y0032455D01*
X0238890Y0032343D01*
X0238984Y0032228D01*
X0239075Y0032111D01*
X0239162Y0031992D01*
X0239246Y0031870D01*
X0239327Y0031746D01*
X0239404Y0031620D01*
X0239478Y0031492D01*
X0239549Y0031362D01*
X0239616Y0031230D01*
X0239679Y0031096D01*
X0239739Y0030961D01*
X0239795Y0030824D01*
X0239848Y0030685D01*
X0239896Y0030545D01*
X0239941Y0030404D01*
X0239982Y0030262D01*
X0240020Y0030119D01*
X0240053Y0029975D01*
X0240083Y0029830D01*
X0240109Y0029684D01*
X0240130Y0029538D01*
X0240148Y0029391D01*
X0240162Y0029244D01*
X0240172Y0029096D01*
X0240178Y0028948D01*
X0240180Y0028800D01*
X0240178Y0028652D01*
X0240172Y0028504D01*
X0240162Y0028356D01*
X0240148Y0028209D01*
X0240130Y0028062D01*
X0240109Y0027916D01*
X0240083Y0027770D01*
X0240053Y0027625D01*
X0240020Y0027481D01*
X0239982Y0027338D01*
X0239941Y0027196D01*
X0239896Y0027055D01*
X0239848Y0026915D01*
X0239795Y0026776D01*
X0239739Y0026639D01*
X0239679Y0026504D01*
X0239616Y0026370D01*
X0239549Y0026238D01*
X0239478Y0026108D01*
X0239404Y0025980D01*
X0239327Y0025854D01*
X0239246Y0025730D01*
X0239162Y0025608D01*
X0239075Y0025489D01*
X0238984Y0025372D01*
X0238890Y0025257D01*
X0238794Y0025145D01*
X0238694Y0025035D01*
X0238592Y0024929D01*
X0238486Y0024825D01*
X0238378Y0024724D01*
X0238267Y0024626D01*
X0238154Y0024530D01*
X0238038Y0024438D01*
X0237920Y0024349D01*
X0237799Y0024264D01*
X0237676Y0024181D01*
X0237551Y0024102D01*
X0237424Y0024026D01*
X0237295Y0023954D01*
X0237164Y0023885D01*
X0237031Y0023820D01*
X0236896Y0023759D01*
X0236760Y0023701D01*
X0236623Y0023646D01*
X0236484Y0023596D01*
X0236343Y0023549D01*
X0236202Y0023506D01*
X0236059Y0023466D01*
X0235915Y0023431D01*
X0235771Y0023399D01*
X0235625Y0023372D01*
X0235479Y0023348D01*
X0235332Y0023328D01*
X0235185Y0023312D01*
X0235038Y0023300D01*
X0234890Y0023292D01*
X0234742Y0023288D01*
X0234594Y0023288D01*
X0234446Y0023292D01*
X0234298Y0023300D01*
X0234151Y0023312D01*
X0234004Y0023328D01*
X0233857Y0023348D01*
X0233711Y0023372D01*
X0233565Y0023399D01*
X0233421Y0023431D01*
X0233277Y0023466D01*
X0233134Y0023506D01*
X0232993Y0023549D01*
X0232852Y0023596D01*
X0232713Y0023646D01*
X0232576Y0023701D01*
X0232440Y0023759D01*
X0232305Y0023820D01*
X0232172Y0023885D01*
X0232041Y0023954D01*
X0231912Y0024026D01*
X0231785Y0024102D01*
X0231660Y0024181D01*
X0231537Y0024264D01*
X0231416Y0024349D01*
X0231298Y0024438D01*
X0231182Y0024530D01*
X0231069Y0024626D01*
X0230958Y0024724D01*
X0230850Y0024825D01*
X0230744Y0024929D01*
X0230642Y0025035D01*
X0230542Y0025145D01*
X0230446Y0025257D01*
X0230352Y0025372D01*
X0230261Y0025489D01*
X0230174Y0025608D01*
X0230090Y0025730D01*
X0230009Y0025854D01*
X0229932Y0025980D01*
X0229858Y0026108D01*
X0229787Y0026238D01*
X0229720Y0026370D01*
X0229657Y0026504D01*
X0229597Y0026639D01*
X0229541Y0026776D01*
X0229488Y0026915D01*
X0229440Y0027055D01*
X0229395Y0027196D01*
X0229354Y0027338D01*
X0229316Y0027481D01*
X0229283Y0027625D01*
X0229253Y0027770D01*
X0229227Y0027916D01*
X0229206Y0028062D01*
X0229188Y0028209D01*
X0229174Y0028356D01*
X0229164Y0028504D01*
X0229158Y0028652D01*
X0229156Y0028800D01*
X0226897Y0003800D02*
X0227613Y0003809D01*
X0228328Y0003835D01*
X0229043Y0003878D01*
X0229756Y0003938D01*
X0230468Y0004016D01*
X0231177Y0004111D01*
X0231884Y0004223D01*
X0232588Y0004352D01*
X0233289Y0004498D01*
X0233986Y0004661D01*
X0234679Y0004840D01*
X0235367Y0005037D01*
X0236051Y0005250D01*
X0236729Y0005479D01*
X0237401Y0005725D01*
X0238067Y0005987D01*
X0238727Y0006265D01*
X0239380Y0006559D01*
X0240025Y0006868D01*
X0240663Y0007193D01*
X0241293Y0007533D01*
X0241914Y0007889D01*
X0242527Y0008259D01*
X0243130Y0008644D01*
X0243724Y0009044D01*
X0244308Y0009457D01*
X0244882Y0009885D01*
X0245446Y0010326D01*
X0245999Y0010781D01*
X0246540Y0011250D01*
X0247070Y0011731D01*
X0247588Y0012225D01*
X0248094Y0012731D01*
X0248588Y0013249D01*
X0249069Y0013779D01*
X0249538Y0014320D01*
X0249993Y0014873D01*
X0250434Y0015437D01*
X0250862Y0016011D01*
X0251275Y0016595D01*
X0251675Y0017189D01*
X0252060Y0017792D01*
X0252430Y0018405D01*
X0252786Y0019026D01*
X0253126Y0019656D01*
X0253451Y0020294D01*
X0253760Y0020939D01*
X0254054Y0021592D01*
X0254332Y0022252D01*
X0254594Y0022918D01*
X0254840Y0023590D01*
X0255069Y0024268D01*
X0255282Y0024952D01*
X0255479Y0025640D01*
X0255658Y0026333D01*
X0255821Y0027030D01*
X0255967Y0027731D01*
X0256096Y0028435D01*
X0256208Y0029142D01*
X0256303Y0029851D01*
X0256381Y0030563D01*
X0256441Y0031276D01*
X0256484Y0031991D01*
X0256510Y0032706D01*
X0256519Y0033422D01*
X0226897Y0003800D02*
X0066739Y0003800D01*
X0066568Y0003802D01*
X0066397Y0003808D01*
X0066227Y0003819D01*
X0066057Y0003833D01*
X0065887Y0003852D01*
X0065717Y0003874D01*
X0065549Y0003901D01*
X0065380Y0003932D01*
X0065213Y0003967D01*
X0065047Y0004005D01*
X0064881Y0004048D01*
X0064717Y0004095D01*
X0064554Y0004146D01*
X0064392Y0004201D01*
X0064232Y0004260D01*
X0064073Y0004322D01*
X0063915Y0004388D01*
X0063759Y0004458D01*
X0063605Y0004532D01*
X0063453Y0004610D01*
X0063303Y0004691D01*
X0063154Y0004776D01*
X0063008Y0004864D01*
X0062864Y0004956D01*
X0062722Y0005052D01*
X0062583Y0005150D01*
X0062446Y0005253D01*
X0062311Y0005358D01*
X0062179Y0005467D01*
X0062050Y0005578D01*
X0061924Y0005693D01*
X0061800Y0005811D01*
X0061679Y0005932D01*
X0061561Y0006056D01*
X0061446Y0006182D01*
X0061335Y0006311D01*
X0061226Y0006443D01*
X0061121Y0006578D01*
X0061018Y0006715D01*
X0060920Y0006854D01*
X0060824Y0006996D01*
X0060732Y0007140D01*
X0060644Y0007286D01*
X0060559Y0007435D01*
X0060478Y0007585D01*
X0060400Y0007737D01*
X0060326Y0007891D01*
X0060256Y0008047D01*
X0060190Y0008205D01*
X0060128Y0008364D01*
X0060069Y0008524D01*
X0060014Y0008686D01*
X0059963Y0008849D01*
X0059916Y0009013D01*
X0059873Y0009179D01*
X0059835Y0009345D01*
X0059800Y0009512D01*
X0059769Y0009681D01*
X0059742Y0009849D01*
X0059720Y0010019D01*
X0059701Y0010189D01*
X0059687Y0010359D01*
X0059676Y0010529D01*
X0059670Y0010700D01*
X0059668Y0010871D01*
X0068920Y0029942D02*
X0068922Y0030035D01*
X0068928Y0030127D01*
X0068938Y0030219D01*
X0068952Y0030310D01*
X0068969Y0030401D01*
X0068991Y0030491D01*
X0069016Y0030580D01*
X0069045Y0030668D01*
X0069078Y0030754D01*
X0069115Y0030839D01*
X0069155Y0030923D01*
X0069199Y0031004D01*
X0069246Y0031084D01*
X0069296Y0031162D01*
X0069350Y0031237D01*
X0069407Y0031310D01*
X0069467Y0031380D01*
X0069530Y0031448D01*
X0069596Y0031513D01*
X0069664Y0031575D01*
X0069735Y0031635D01*
X0069809Y0031691D01*
X0069885Y0031744D01*
X0069963Y0031793D01*
X0070043Y0031840D01*
X0070125Y0031882D01*
X0070209Y0031922D01*
X0070294Y0031957D01*
X0070381Y0031989D01*
X0070469Y0032018D01*
X0070558Y0032042D01*
X0070648Y0032063D01*
X0070739Y0032079D01*
X0070831Y0032092D01*
X0070923Y0032101D01*
X0071016Y0032106D01*
X0071108Y0032107D01*
X0071201Y0032104D01*
X0071293Y0032097D01*
X0071385Y0032086D01*
X0071476Y0032071D01*
X0071567Y0032053D01*
X0071657Y0032030D01*
X0071745Y0032004D01*
X0071833Y0031974D01*
X0071919Y0031940D01*
X0072003Y0031903D01*
X0072086Y0031861D01*
X0072167Y0031817D01*
X0072247Y0031769D01*
X0072324Y0031718D01*
X0072398Y0031663D01*
X0072471Y0031605D01*
X0072541Y0031545D01*
X0072608Y0031481D01*
X0072672Y0031415D01*
X0072734Y0031345D01*
X0072792Y0031274D01*
X0072847Y0031200D01*
X0072899Y0031123D01*
X0072948Y0031044D01*
X0072994Y0030964D01*
X0073036Y0030881D01*
X0073074Y0030797D01*
X0073109Y0030711D01*
X0073140Y0030624D01*
X0073167Y0030536D01*
X0073190Y0030446D01*
X0073210Y0030356D01*
X0073226Y0030265D01*
X0073238Y0030173D01*
X0073246Y0030081D01*
X0073250Y0029988D01*
X0073250Y0029896D01*
X0073246Y0029803D01*
X0073238Y0029711D01*
X0073226Y0029619D01*
X0073210Y0029528D01*
X0073190Y0029438D01*
X0073167Y0029348D01*
X0073140Y0029260D01*
X0073109Y0029173D01*
X0073074Y0029087D01*
X0073036Y0029003D01*
X0072994Y0028920D01*
X0072948Y0028840D01*
X0072899Y0028761D01*
X0072847Y0028684D01*
X0072792Y0028610D01*
X0072734Y0028539D01*
X0072672Y0028469D01*
X0072608Y0028403D01*
X0072541Y0028339D01*
X0072471Y0028279D01*
X0072398Y0028221D01*
X0072324Y0028166D01*
X0072247Y0028115D01*
X0072168Y0028067D01*
X0072086Y0028023D01*
X0072003Y0027981D01*
X0071919Y0027944D01*
X0071833Y0027910D01*
X0071745Y0027880D01*
X0071657Y0027854D01*
X0071567Y0027831D01*
X0071476Y0027813D01*
X0071385Y0027798D01*
X0071293Y0027787D01*
X0071201Y0027780D01*
X0071108Y0027777D01*
X0071016Y0027778D01*
X0070923Y0027783D01*
X0070831Y0027792D01*
X0070739Y0027805D01*
X0070648Y0027821D01*
X0070558Y0027842D01*
X0070469Y0027866D01*
X0070381Y0027895D01*
X0070294Y0027927D01*
X0070209Y0027962D01*
X0070125Y0028002D01*
X0070043Y0028044D01*
X0069963Y0028091D01*
X0069885Y0028140D01*
X0069809Y0028193D01*
X0069735Y0028249D01*
X0069664Y0028309D01*
X0069596Y0028371D01*
X0069530Y0028436D01*
X0069467Y0028504D01*
X0069407Y0028574D01*
X0069350Y0028647D01*
X0069296Y0028722D01*
X0069246Y0028800D01*
X0069199Y0028880D01*
X0069155Y0028961D01*
X0069115Y0029045D01*
X0069078Y0029130D01*
X0069045Y0029216D01*
X0069016Y0029304D01*
X0068991Y0029393D01*
X0068969Y0029483D01*
X0068952Y0029574D01*
X0068938Y0029665D01*
X0068928Y0029757D01*
X0068922Y0029849D01*
X0068920Y0029942D01*
X0068920Y0047658D02*
X0068922Y0047751D01*
X0068928Y0047843D01*
X0068938Y0047935D01*
X0068952Y0048026D01*
X0068969Y0048117D01*
X0068991Y0048207D01*
X0069016Y0048296D01*
X0069045Y0048384D01*
X0069078Y0048470D01*
X0069115Y0048555D01*
X0069155Y0048639D01*
X0069199Y0048720D01*
X0069246Y0048800D01*
X0069296Y0048878D01*
X0069350Y0048953D01*
X0069407Y0049026D01*
X0069467Y0049096D01*
X0069530Y0049164D01*
X0069596Y0049229D01*
X0069664Y0049291D01*
X0069735Y0049351D01*
X0069809Y0049407D01*
X0069885Y0049460D01*
X0069963Y0049509D01*
X0070043Y0049556D01*
X0070125Y0049598D01*
X0070209Y0049638D01*
X0070294Y0049673D01*
X0070381Y0049705D01*
X0070469Y0049734D01*
X0070558Y0049758D01*
X0070648Y0049779D01*
X0070739Y0049795D01*
X0070831Y0049808D01*
X0070923Y0049817D01*
X0071016Y0049822D01*
X0071108Y0049823D01*
X0071201Y0049820D01*
X0071293Y0049813D01*
X0071385Y0049802D01*
X0071476Y0049787D01*
X0071567Y0049769D01*
X0071657Y0049746D01*
X0071745Y0049720D01*
X0071833Y0049690D01*
X0071919Y0049656D01*
X0072003Y0049619D01*
X0072086Y0049577D01*
X0072167Y0049533D01*
X0072247Y0049485D01*
X0072324Y0049434D01*
X0072398Y0049379D01*
X0072471Y0049321D01*
X0072541Y0049261D01*
X0072608Y0049197D01*
X0072672Y0049131D01*
X0072734Y0049061D01*
X0072792Y0048990D01*
X0072847Y0048916D01*
X0072899Y0048839D01*
X0072948Y0048760D01*
X0072994Y0048680D01*
X0073036Y0048597D01*
X0073074Y0048513D01*
X0073109Y0048427D01*
X0073140Y0048340D01*
X0073167Y0048252D01*
X0073190Y0048162D01*
X0073210Y0048072D01*
X0073226Y0047981D01*
X0073238Y0047889D01*
X0073246Y0047797D01*
X0073250Y0047704D01*
X0073250Y0047612D01*
X0073246Y0047519D01*
X0073238Y0047427D01*
X0073226Y0047335D01*
X0073210Y0047244D01*
X0073190Y0047154D01*
X0073167Y0047064D01*
X0073140Y0046976D01*
X0073109Y0046889D01*
X0073074Y0046803D01*
X0073036Y0046719D01*
X0072994Y0046636D01*
X0072948Y0046556D01*
X0072899Y0046477D01*
X0072847Y0046400D01*
X0072792Y0046326D01*
X0072734Y0046255D01*
X0072672Y0046185D01*
X0072608Y0046119D01*
X0072541Y0046055D01*
X0072471Y0045995D01*
X0072398Y0045937D01*
X0072324Y0045882D01*
X0072247Y0045831D01*
X0072168Y0045783D01*
X0072086Y0045739D01*
X0072003Y0045697D01*
X0071919Y0045660D01*
X0071833Y0045626D01*
X0071745Y0045596D01*
X0071657Y0045570D01*
X0071567Y0045547D01*
X0071476Y0045529D01*
X0071385Y0045514D01*
X0071293Y0045503D01*
X0071201Y0045496D01*
X0071108Y0045493D01*
X0071016Y0045494D01*
X0070923Y0045499D01*
X0070831Y0045508D01*
X0070739Y0045521D01*
X0070648Y0045537D01*
X0070558Y0045558D01*
X0070469Y0045582D01*
X0070381Y0045611D01*
X0070294Y0045643D01*
X0070209Y0045678D01*
X0070125Y0045718D01*
X0070043Y0045760D01*
X0069963Y0045807D01*
X0069885Y0045856D01*
X0069809Y0045909D01*
X0069735Y0045965D01*
X0069664Y0046025D01*
X0069596Y0046087D01*
X0069530Y0046152D01*
X0069467Y0046220D01*
X0069407Y0046290D01*
X0069350Y0046363D01*
X0069296Y0046438D01*
X0069246Y0046516D01*
X0069199Y0046596D01*
X0069155Y0046677D01*
X0069115Y0046761D01*
X0069078Y0046846D01*
X0069045Y0046932D01*
X0069016Y0047020D01*
X0068991Y0047109D01*
X0068969Y0047199D01*
X0068952Y0047290D01*
X0068938Y0047381D01*
X0068928Y0047473D01*
X0068922Y0047565D01*
X0068920Y0047658D01*
D11*
X0175815Y0033168D02*
X0175815Y0031933D01*
X0176432Y0031316D01*
X0178901Y0031316D01*
X0176432Y0033785D01*
X0178901Y0033785D01*
X0179518Y0033168D01*
X0179518Y0031933D01*
X0178901Y0031316D01*
X0178901Y0030102D02*
X0178283Y0030102D01*
X0177666Y0029485D01*
X0177666Y0027633D01*
X0177666Y0026419D02*
X0178283Y0025802D01*
X0178283Y0023950D01*
X0179518Y0023950D02*
X0175815Y0023950D01*
X0175815Y0025802D01*
X0176432Y0026419D01*
X0177666Y0026419D01*
X0175815Y0027633D02*
X0175815Y0029485D01*
X0176432Y0030102D01*
X0177049Y0030102D01*
X0177666Y0029485D01*
X0178901Y0030102D02*
X0179518Y0029485D01*
X0179518Y0027633D01*
X0175815Y0027633D01*
X0175815Y0033168D02*
X0176432Y0033785D01*
X0185815Y0032551D02*
X0189518Y0032551D01*
X0189518Y0033785D02*
X0189518Y0031316D01*
X0188901Y0030102D02*
X0188283Y0030102D01*
X0187666Y0029485D01*
X0187666Y0027633D01*
X0187666Y0026419D02*
X0188283Y0025802D01*
X0188283Y0023950D01*
X0189518Y0023950D02*
X0185815Y0023950D01*
X0185815Y0025802D01*
X0186432Y0026419D01*
X0187666Y0026419D01*
X0185815Y0027633D02*
X0185815Y0029485D01*
X0186432Y0030102D01*
X0187049Y0030102D01*
X0187666Y0029485D01*
X0188901Y0030102D02*
X0189518Y0029485D01*
X0189518Y0027633D01*
X0185815Y0027633D01*
X0187049Y0031316D02*
X0185815Y0032551D01*
X0195815Y0033168D02*
X0195815Y0031933D01*
X0196432Y0031316D01*
X0196432Y0030102D02*
X0197049Y0030102D01*
X0197666Y0029485D01*
X0197666Y0027633D01*
X0197666Y0026419D02*
X0198283Y0025802D01*
X0198283Y0023950D01*
X0199518Y0023950D02*
X0195815Y0023950D01*
X0195815Y0025802D01*
X0196432Y0026419D01*
X0197666Y0026419D01*
X0195815Y0027633D02*
X0195815Y0029485D01*
X0196432Y0030102D01*
X0197666Y0029485D02*
X0198283Y0030102D01*
X0198901Y0030102D01*
X0199518Y0029485D01*
X0199518Y0027633D01*
X0195815Y0027633D01*
X0199518Y0031316D02*
X0197049Y0033785D01*
X0196432Y0033785D01*
X0195815Y0033168D01*
X0199518Y0033785D02*
X0199518Y0031316D01*
X0210815Y0031933D02*
X0211432Y0031316D01*
X0213901Y0031316D01*
X0214518Y0031933D01*
X0214518Y0033168D01*
X0213901Y0033785D01*
X0211432Y0033785D02*
X0210815Y0033168D01*
X0210815Y0031933D01*
X0211432Y0030102D02*
X0210815Y0029485D01*
X0210815Y0028250D01*
X0211432Y0027633D01*
X0213901Y0027633D01*
X0214518Y0028250D01*
X0214518Y0029485D01*
X0213901Y0030102D01*
X0213283Y0026419D02*
X0210815Y0026419D01*
X0213283Y0026419D02*
X0214518Y0025184D01*
X0213283Y0023950D01*
X0210815Y0023950D01*
X0219385Y0054950D02*
X0220620Y0054950D01*
X0221237Y0055567D01*
X0221237Y0056802D01*
X0220003Y0056802D01*
X0221237Y0058036D02*
X0220620Y0058653D01*
X0219385Y0058653D01*
X0218768Y0058036D01*
X0218768Y0055567D01*
X0219385Y0054950D01*
X0222451Y0054950D02*
X0222451Y0058653D01*
X0224920Y0054950D01*
X0224920Y0058653D01*
X0226135Y0058653D02*
X0227986Y0058653D01*
X0228603Y0058036D01*
X0228603Y0055567D01*
X0227986Y0054950D01*
X0226135Y0054950D01*
X0226135Y0058653D01*
X0224303Y0064950D02*
X0222451Y0064950D01*
X0222451Y0068653D01*
X0224303Y0068653D01*
X0224920Y0068036D01*
X0224920Y0067419D01*
X0224303Y0066802D01*
X0222451Y0066802D01*
X0221237Y0066802D02*
X0221237Y0068036D01*
X0220620Y0068653D01*
X0218768Y0068653D01*
X0218768Y0064950D01*
X0218768Y0066184D02*
X0220620Y0066184D01*
X0221237Y0066802D01*
X0224303Y0066802D02*
X0224920Y0066184D01*
X0224920Y0065567D01*
X0224303Y0064950D01*
X0226135Y0066802D02*
X0228603Y0066802D01*
X0227986Y0068653D02*
X0227986Y0064950D01*
X0226135Y0066802D02*
X0227986Y0068653D01*
X0227986Y0074950D02*
X0226752Y0074950D01*
X0226135Y0075567D01*
X0224920Y0075567D02*
X0224303Y0074950D01*
X0222451Y0074950D01*
X0222451Y0078653D01*
X0224303Y0078653D01*
X0224920Y0078036D01*
X0224920Y0077419D01*
X0224303Y0076802D01*
X0222451Y0076802D01*
X0221237Y0076802D02*
X0221237Y0078036D01*
X0220620Y0078653D01*
X0218768Y0078653D01*
X0218768Y0074950D01*
X0218768Y0076184D02*
X0220620Y0076184D01*
X0221237Y0076802D01*
X0224303Y0076802D02*
X0224920Y0076184D01*
X0224920Y0075567D01*
X0227369Y0076802D02*
X0227986Y0076802D01*
X0228603Y0076184D01*
X0228603Y0075567D01*
X0227986Y0074950D01*
X0227986Y0076802D02*
X0228603Y0077419D01*
X0228603Y0078036D01*
X0227986Y0078653D01*
X0226752Y0078653D01*
X0226135Y0078036D01*
X0226752Y0084950D02*
X0226135Y0085567D01*
X0226752Y0084950D02*
X0227986Y0084950D01*
X0228603Y0085567D01*
X0228603Y0086802D01*
X0227986Y0087419D01*
X0227369Y0087419D01*
X0226135Y0086802D01*
X0226135Y0088653D01*
X0228603Y0088653D01*
X0224920Y0088036D02*
X0224920Y0087419D01*
X0224303Y0086802D01*
X0222451Y0086802D01*
X0221237Y0086802D02*
X0221237Y0088036D01*
X0220620Y0088653D01*
X0218768Y0088653D01*
X0218768Y0084950D01*
X0218768Y0086184D02*
X0220620Y0086184D01*
X0221237Y0086802D01*
X0222451Y0088653D02*
X0222451Y0084950D01*
X0224303Y0084950D01*
X0224920Y0085567D01*
X0224920Y0086184D01*
X0224303Y0086802D01*
X0224920Y0088036D02*
X0224303Y0088653D01*
X0222451Y0088653D01*
X0158518Y0138518D02*
X0158518Y0139752D01*
X0157901Y0140369D01*
X0156666Y0140369D01*
X0156666Y0139135D01*
X0155432Y0140369D02*
X0154815Y0139752D01*
X0154815Y0138518D01*
X0155432Y0137901D01*
X0157901Y0137901D01*
X0158518Y0138518D01*
X0158518Y0141584D02*
X0154815Y0141584D01*
X0158518Y0144052D01*
X0154815Y0144052D01*
X0154815Y0145267D02*
X0154815Y0147118D01*
X0155432Y0147736D01*
X0157901Y0147736D01*
X0158518Y0147118D01*
X0158518Y0145267D01*
X0154815Y0145267D01*
X0148518Y0145267D02*
X0148518Y0147118D01*
X0147901Y0147736D01*
X0145432Y0147736D01*
X0144815Y0147118D01*
X0144815Y0145267D01*
X0148518Y0145267D01*
X0148518Y0144052D02*
X0144815Y0144052D01*
X0144815Y0141584D02*
X0148518Y0144052D01*
X0148518Y0141584D02*
X0144815Y0141584D01*
X0145432Y0140369D02*
X0144815Y0139752D01*
X0144815Y0138518D01*
X0145432Y0137901D01*
X0147901Y0137901D01*
X0148518Y0138518D01*
X0148518Y0139752D01*
X0147901Y0140369D01*
X0146666Y0140369D01*
X0146666Y0139135D01*
X0134518Y0140184D02*
X0133283Y0141419D01*
X0130815Y0141419D01*
X0131432Y0142633D02*
X0133901Y0142633D01*
X0134518Y0143250D01*
X0134518Y0144485D01*
X0133901Y0145102D01*
X0133901Y0146316D02*
X0131432Y0146316D01*
X0130815Y0146933D01*
X0130815Y0148168D01*
X0131432Y0148785D01*
X0133901Y0148785D02*
X0134518Y0148168D01*
X0134518Y0146933D01*
X0133901Y0146316D01*
X0131432Y0145102D02*
X0130815Y0144485D01*
X0130815Y0143250D01*
X0131432Y0142633D01*
X0130815Y0138950D02*
X0133283Y0138950D01*
X0134518Y0140184D01*
X0124518Y0140184D02*
X0123283Y0141419D01*
X0120815Y0141419D01*
X0121432Y0142633D02*
X0123901Y0142633D01*
X0124518Y0143250D01*
X0124518Y0144485D01*
X0123901Y0145102D01*
X0123901Y0146316D02*
X0121432Y0146316D01*
X0120815Y0146933D01*
X0120815Y0148168D01*
X0121432Y0148785D01*
X0123901Y0148785D02*
X0124518Y0148168D01*
X0124518Y0146933D01*
X0123901Y0146316D01*
X0121432Y0145102D02*
X0120815Y0144485D01*
X0120815Y0143250D01*
X0121432Y0142633D01*
X0120815Y0138950D02*
X0123283Y0138950D01*
X0124518Y0140184D01*
D12*
X0141968Y0181514D02*
X0143286Y0181514D01*
X0144604Y0182832D01*
X0144604Y0189421D01*
X0147251Y0189421D02*
X0147251Y0190739D01*
X0148569Y0192057D01*
X0151204Y0192057D01*
X0152522Y0190739D01*
X0152522Y0189421D01*
X0151204Y0188103D01*
X0148569Y0188103D01*
X0147251Y0189421D01*
X0148569Y0188103D02*
X0147251Y0186786D01*
X0147251Y0185468D01*
X0148569Y0184150D01*
X0151204Y0184150D01*
X0152522Y0185468D01*
X0152522Y0186786D01*
X0151204Y0188103D01*
X0155170Y0188103D02*
X0155170Y0192057D01*
X0160441Y0192057D01*
X0159123Y0189421D02*
X0160441Y0188103D01*
X0160441Y0185468D01*
X0159123Y0184150D01*
X0156488Y0184150D01*
X0155170Y0185468D01*
X0155170Y0188103D02*
X0157805Y0189421D01*
X0159123Y0189421D01*
X0171007Y0186786D02*
X0173643Y0184150D01*
X0176279Y0186786D01*
X0176279Y0192057D01*
X0178926Y0190739D02*
X0180244Y0192057D01*
X0182880Y0192057D01*
X0184197Y0190739D01*
X0184197Y0189421D01*
X0178926Y0184150D01*
X0184197Y0184150D01*
X0186845Y0184150D02*
X0186845Y0185468D01*
X0188163Y0185468D01*
X0188163Y0184150D01*
X0186845Y0184150D01*
X0190804Y0185468D02*
X0196075Y0190739D01*
X0196075Y0185468D01*
X0194758Y0184150D01*
X0192122Y0184150D01*
X0190804Y0185468D01*
X0190804Y0190739D01*
X0192122Y0192057D01*
X0194758Y0192057D01*
X0196075Y0190739D01*
X0206642Y0192057D02*
X0206642Y0186786D01*
X0209277Y0184150D01*
X0211913Y0186786D01*
X0211913Y0192057D01*
X0214561Y0192057D02*
X0214561Y0185468D01*
X0215878Y0184150D01*
X0218514Y0184150D01*
X0219832Y0185468D01*
X0219832Y0192057D01*
X0222479Y0190739D02*
X0222479Y0189421D01*
X0223797Y0188103D01*
X0226433Y0188103D01*
X0227751Y0186786D01*
X0227751Y0185468D01*
X0226433Y0184150D01*
X0223797Y0184150D01*
X0222479Y0185468D01*
X0222479Y0190739D02*
X0223797Y0192057D01*
X0226433Y0192057D01*
X0227751Y0190739D01*
X0230398Y0192057D02*
X0234351Y0192057D01*
X0235669Y0190739D01*
X0235669Y0189421D01*
X0234351Y0188103D01*
X0230398Y0188103D01*
X0234351Y0188103D02*
X0235669Y0186786D01*
X0235669Y0185468D01*
X0234351Y0184150D01*
X0230398Y0184150D01*
X0230398Y0192057D01*
X0171007Y0192057D02*
X0171007Y0186786D01*
X0144604Y0184150D02*
X0140650Y0184150D01*
X0139332Y0185468D01*
X0139332Y0189421D01*
X0136685Y0188103D02*
X0136685Y0184150D01*
X0136685Y0188103D02*
X0135367Y0189421D01*
X0131414Y0189421D01*
X0131414Y0184150D01*
X0128770Y0184150D02*
X0126134Y0184150D01*
X0127452Y0184150D02*
X0127452Y0189421D01*
X0126134Y0189421D01*
X0123491Y0189421D02*
X0120855Y0189421D01*
X0122173Y0190739D02*
X0122173Y0185468D01*
X0123491Y0184150D01*
X0115572Y0184150D02*
X0115572Y0192057D01*
X0112936Y0192057D02*
X0118208Y0192057D01*
X0110289Y0189421D02*
X0110289Y0184150D01*
X0110289Y0188103D02*
X0105018Y0188103D01*
X0105018Y0189421D02*
X0107653Y0192057D01*
X0110289Y0189421D01*
X0105018Y0189421D02*
X0105018Y0184150D01*
X0127452Y0192057D02*
X0127452Y0193375D01*
D13*
X0059668Y0141791D02*
X0059668Y0010871D01*
X0059670Y0010700D01*
X0059676Y0010529D01*
X0059687Y0010359D01*
X0059701Y0010189D01*
X0059720Y0010019D01*
X0059742Y0009849D01*
X0059769Y0009681D01*
X0059800Y0009512D01*
X0059835Y0009345D01*
X0059873Y0009179D01*
X0059916Y0009013D01*
X0059963Y0008849D01*
X0060014Y0008686D01*
X0060069Y0008524D01*
X0060128Y0008364D01*
X0060190Y0008205D01*
X0060256Y0008047D01*
X0060326Y0007891D01*
X0060400Y0007737D01*
X0060478Y0007585D01*
X0060559Y0007435D01*
X0060644Y0007286D01*
X0060732Y0007140D01*
X0060824Y0006996D01*
X0060920Y0006854D01*
X0061018Y0006715D01*
X0061121Y0006578D01*
X0061226Y0006443D01*
X0061335Y0006311D01*
X0061446Y0006182D01*
X0061561Y0006056D01*
X0061679Y0005932D01*
X0061800Y0005811D01*
X0061924Y0005693D01*
X0062050Y0005578D01*
X0062179Y0005467D01*
X0062311Y0005358D01*
X0062446Y0005253D01*
X0062583Y0005150D01*
X0062722Y0005052D01*
X0062864Y0004956D01*
X0063008Y0004864D01*
X0063154Y0004776D01*
X0063303Y0004691D01*
X0063453Y0004610D01*
X0063605Y0004532D01*
X0063759Y0004458D01*
X0063915Y0004388D01*
X0064073Y0004322D01*
X0064232Y0004260D01*
X0064392Y0004201D01*
X0064554Y0004146D01*
X0064717Y0004095D01*
X0064881Y0004048D01*
X0065047Y0004005D01*
X0065213Y0003967D01*
X0065380Y0003932D01*
X0065549Y0003901D01*
X0065717Y0003874D01*
X0065887Y0003852D01*
X0066057Y0003833D01*
X0066227Y0003819D01*
X0066397Y0003808D01*
X0066568Y0003802D01*
X0066739Y0003800D01*
X0229668Y0003800D01*
X0230272Y0003807D01*
X0230876Y0003829D01*
X0231479Y0003866D01*
X0232081Y0003917D01*
X0232681Y0003982D01*
X0233280Y0004062D01*
X0233877Y0004157D01*
X0234471Y0004266D01*
X0235063Y0004389D01*
X0235651Y0004526D01*
X0236236Y0004678D01*
X0236817Y0004844D01*
X0237393Y0005024D01*
X0237966Y0005217D01*
X0238533Y0005425D01*
X0239095Y0005646D01*
X0239652Y0005880D01*
X0240203Y0006128D01*
X0240748Y0006389D01*
X0241286Y0006664D01*
X0241818Y0006951D01*
X0242342Y0007251D01*
X0242859Y0007563D01*
X0243368Y0007888D01*
X0243870Y0008225D01*
X0244363Y0008575D01*
X0244847Y0008936D01*
X0245323Y0009308D01*
X0245789Y0009692D01*
X0246246Y0010087D01*
X0246693Y0010493D01*
X0247131Y0010910D01*
X0247558Y0011337D01*
X0247975Y0011775D01*
X0248381Y0012222D01*
X0248776Y0012679D01*
X0249160Y0013145D01*
X0249532Y0013621D01*
X0249893Y0014105D01*
X0250243Y0014598D01*
X0250580Y0015100D01*
X0250905Y0015609D01*
X0251217Y0016126D01*
X0251517Y0016650D01*
X0251804Y0017182D01*
X0252079Y0017720D01*
X0252340Y0018265D01*
X0252588Y0018816D01*
X0252822Y0019373D01*
X0253043Y0019935D01*
X0253251Y0020502D01*
X0253444Y0021075D01*
X0253624Y0021651D01*
X0253790Y0022232D01*
X0253942Y0022817D01*
X0254079Y0023405D01*
X0254202Y0023997D01*
X0254311Y0024591D01*
X0254406Y0025188D01*
X0254486Y0025787D01*
X0254551Y0026387D01*
X0254602Y0026989D01*
X0254639Y0027592D01*
X0254661Y0028196D01*
X0254668Y0028800D01*
X0254668Y0165259D01*
X0254658Y0166069D01*
X0254629Y0166879D01*
X0254580Y0167689D01*
X0254511Y0168496D01*
X0254423Y0169302D01*
X0254316Y0170105D01*
X0254189Y0170906D01*
X0254043Y0171703D01*
X0253878Y0172497D01*
X0253693Y0173286D01*
X0253490Y0174070D01*
X0253268Y0174850D01*
X0253026Y0175624D01*
X0252767Y0176392D01*
X0252488Y0177153D01*
X0252192Y0177907D01*
X0251877Y0178654D01*
X0251544Y0179393D01*
X0251194Y0180124D01*
X0250826Y0180846D01*
X0250441Y0181559D01*
X0250038Y0182263D01*
X0249619Y0182957D01*
X0249183Y0183640D01*
X0248731Y0184312D01*
X0248262Y0184974D01*
X0247778Y0185624D01*
X0247278Y0186262D01*
X0246763Y0186888D01*
X0246233Y0187501D01*
X0245688Y0188101D01*
X0245129Y0188688D01*
X0244556Y0189261D01*
X0243969Y0189820D01*
X0243369Y0190365D01*
X0242756Y0190895D01*
X0242130Y0191410D01*
X0241492Y0191910D01*
X0240842Y0192394D01*
X0240180Y0192863D01*
X0239508Y0193315D01*
X0238825Y0193751D01*
X0238131Y0194170D01*
X0237427Y0194573D01*
X0236714Y0194958D01*
X0235992Y0195326D01*
X0235261Y0195676D01*
X0234522Y0196009D01*
X0233775Y0196324D01*
X0233021Y0196620D01*
X0232260Y0196899D01*
X0231492Y0197158D01*
X0230718Y0197400D01*
X0229938Y0197622D01*
X0229154Y0197825D01*
X0228365Y0198010D01*
X0227571Y0198175D01*
X0226774Y0198321D01*
X0225973Y0198448D01*
X0225170Y0198555D01*
X0224364Y0198643D01*
X0223557Y0198712D01*
X0222747Y0198761D01*
X0221937Y0198790D01*
X0221127Y0198800D01*
X0116676Y0198800D01*
X0115298Y0198783D01*
X0113922Y0198733D01*
X0112547Y0198650D01*
X0111174Y0198534D01*
X0109804Y0198384D01*
X0108439Y0198202D01*
X0107078Y0197986D01*
X0105723Y0197738D01*
X0104374Y0197457D01*
X0103033Y0197143D01*
X0101699Y0196798D01*
X0100375Y0196420D01*
X0099059Y0196010D01*
X0097754Y0195568D01*
X0096460Y0195095D01*
X0095178Y0194591D01*
X0093909Y0194056D01*
X0092652Y0193491D01*
X0091410Y0192895D01*
X0090183Y0192270D01*
X0088971Y0191615D01*
X0087775Y0190931D01*
X0086596Y0190218D01*
X0085434Y0189477D01*
X0084291Y0188708D01*
X0083167Y0187912D01*
X0082062Y0187089D01*
X0080978Y0186239D01*
X0079914Y0185364D01*
X0078872Y0184463D01*
X0077852Y0183537D01*
X0076855Y0182587D01*
X0075880Y0181612D01*
X0074930Y0180615D01*
X0074004Y0179595D01*
X0073103Y0178553D01*
X0072228Y0177489D01*
X0071378Y0176405D01*
X0070555Y0175300D01*
X0069759Y0174176D01*
X0068990Y0173033D01*
X0068249Y0171871D01*
X0067536Y0170692D01*
X0066852Y0169496D01*
X0066197Y0168284D01*
X0065572Y0167057D01*
X0064976Y0165815D01*
X0064411Y0164558D01*
X0063876Y0163289D01*
X0063372Y0162007D01*
X0062899Y0160713D01*
X0062457Y0159408D01*
X0062047Y0158092D01*
X0061669Y0156768D01*
X0061324Y0155434D01*
X0061010Y0154093D01*
X0060729Y0152744D01*
X0060481Y0151389D01*
X0060265Y0150028D01*
X0060083Y0148663D01*
X0059933Y0147293D01*
X0059817Y0145920D01*
X0059734Y0144545D01*
X0059684Y0143169D01*
X0059667Y0141791D01*
D14*
X0074168Y0141800D02*
X0077668Y0138300D01*
X0081668Y0138300D01*
X0085168Y0141800D01*
X0085168Y0145800D01*
X0081668Y0149300D01*
X0077668Y0149300D01*
X0074168Y0145800D01*
X0074168Y0141800D01*
X0077668Y0134300D02*
X0081668Y0134300D01*
X0085168Y0130800D01*
X0085168Y0126800D01*
X0081668Y0123300D01*
X0077668Y0123300D01*
X0074168Y0126800D01*
X0074168Y0130800D01*
X0077668Y0134300D01*
X0089168Y0130800D02*
X0089168Y0126800D01*
X0092668Y0123300D01*
X0096668Y0123300D01*
X0100168Y0126800D01*
X0100168Y0130800D01*
X0096668Y0134300D01*
X0092668Y0134300D01*
X0089168Y0130800D01*
X0092668Y0138300D02*
X0096668Y0138300D01*
X0100168Y0141800D01*
X0100168Y0145800D01*
X0096668Y0149300D01*
X0092668Y0149300D01*
X0089168Y0145800D01*
X0089168Y0141800D01*
X0092668Y0138300D01*
X0092668Y0119300D02*
X0096668Y0119300D01*
X0100168Y0115800D01*
X0100168Y0111800D01*
X0096668Y0108300D01*
X0092668Y0108300D01*
X0089168Y0111800D01*
X0089168Y0115800D01*
X0092668Y0119300D01*
X0085168Y0115800D02*
X0085168Y0111800D01*
X0081668Y0108300D01*
X0077668Y0108300D01*
X0074168Y0111800D01*
X0074168Y0115800D01*
X0077668Y0119300D01*
X0081668Y0119300D01*
X0085168Y0115800D01*
X0081668Y0104300D02*
X0077668Y0104300D01*
X0074168Y0100800D01*
X0074168Y0096800D01*
X0077668Y0093300D01*
X0081668Y0093300D01*
X0085168Y0096800D01*
X0085168Y0100800D01*
X0081668Y0104300D01*
X0089168Y0100800D02*
X0092668Y0104300D01*
X0096668Y0104300D01*
X0100168Y0100800D01*
X0100168Y0096800D01*
X0096668Y0093300D01*
X0092668Y0093300D01*
X0089168Y0096800D01*
X0089168Y0100800D01*
X0092668Y0089300D02*
X0096668Y0089300D01*
X0100168Y0085800D01*
X0100168Y0081800D01*
X0096668Y0078300D01*
X0092668Y0078300D01*
X0089168Y0081800D01*
X0089168Y0085800D01*
X0092668Y0089300D01*
X0085168Y0085800D02*
X0085168Y0081800D01*
X0081668Y0078300D01*
X0077668Y0078300D01*
X0074168Y0081800D01*
X0074168Y0085800D01*
X0077668Y0089300D01*
X0081668Y0089300D01*
X0085168Y0085800D01*
X0122168Y0085300D02*
X0122168Y0092300D01*
X0122170Y0092360D01*
X0122175Y0092421D01*
X0122184Y0092480D01*
X0122197Y0092539D01*
X0122213Y0092598D01*
X0122233Y0092655D01*
X0122256Y0092710D01*
X0122283Y0092765D01*
X0122312Y0092817D01*
X0122345Y0092868D01*
X0122381Y0092917D01*
X0122419Y0092963D01*
X0122461Y0093007D01*
X0122505Y0093049D01*
X0122551Y0093087D01*
X0122600Y0093123D01*
X0122651Y0093156D01*
X0122703Y0093185D01*
X0122758Y0093212D01*
X0122813Y0093235D01*
X0122870Y0093255D01*
X0122929Y0093271D01*
X0122988Y0093284D01*
X0123047Y0093293D01*
X0123108Y0093298D01*
X0123168Y0093300D01*
X0124668Y0093300D01*
X0125168Y0092800D01*
X0144168Y0092800D01*
X0144668Y0093300D01*
X0146168Y0093300D01*
X0146228Y0093298D01*
X0146289Y0093293D01*
X0146348Y0093284D01*
X0146407Y0093271D01*
X0146466Y0093255D01*
X0146523Y0093235D01*
X0146578Y0093212D01*
X0146633Y0093185D01*
X0146685Y0093156D01*
X0146736Y0093123D01*
X0146785Y0093087D01*
X0146831Y0093049D01*
X0146875Y0093007D01*
X0146917Y0092963D01*
X0146955Y0092917D01*
X0146991Y0092868D01*
X0147024Y0092817D01*
X0147053Y0092765D01*
X0147080Y0092710D01*
X0147103Y0092655D01*
X0147123Y0092598D01*
X0147139Y0092539D01*
X0147152Y0092480D01*
X0147161Y0092421D01*
X0147166Y0092360D01*
X0147168Y0092300D01*
X0147168Y0085300D01*
X0147166Y0085240D01*
X0147161Y0085179D01*
X0147152Y0085120D01*
X0147139Y0085061D01*
X0147123Y0085002D01*
X0147103Y0084945D01*
X0147080Y0084890D01*
X0147053Y0084835D01*
X0147024Y0084783D01*
X0146991Y0084732D01*
X0146955Y0084683D01*
X0146917Y0084637D01*
X0146875Y0084593D01*
X0146831Y0084551D01*
X0146785Y0084513D01*
X0146736Y0084477D01*
X0146685Y0084444D01*
X0146633Y0084415D01*
X0146578Y0084388D01*
X0146523Y0084365D01*
X0146466Y0084345D01*
X0146407Y0084329D01*
X0146348Y0084316D01*
X0146289Y0084307D01*
X0146228Y0084302D01*
X0146168Y0084300D01*
X0144668Y0084300D01*
X0144168Y0084800D01*
X0125168Y0084800D01*
X0124668Y0084300D01*
X0123168Y0084300D01*
X0123108Y0084302D01*
X0123047Y0084307D01*
X0122988Y0084316D01*
X0122929Y0084329D01*
X0122870Y0084345D01*
X0122813Y0084365D01*
X0122758Y0084388D01*
X0122703Y0084415D01*
X0122651Y0084444D01*
X0122600Y0084477D01*
X0122551Y0084513D01*
X0122505Y0084551D01*
X0122461Y0084593D01*
X0122419Y0084637D01*
X0122381Y0084683D01*
X0122345Y0084732D01*
X0122312Y0084783D01*
X0122283Y0084835D01*
X0122256Y0084890D01*
X0122233Y0084945D01*
X0122213Y0085002D01*
X0122197Y0085061D01*
X0122184Y0085120D01*
X0122175Y0085179D01*
X0122170Y0085240D01*
X0122168Y0085300D01*
X0126668Y0073800D02*
X0126668Y0063800D01*
X0142668Y0063800D01*
X0142668Y0073800D01*
X0126668Y0073800D01*
X0132168Y0068800D02*
X0134668Y0068800D01*
X0134668Y0071300D01*
X0135668Y0071300D01*
X0134668Y0068800D02*
X0138668Y0071300D01*
X0138668Y0066300D01*
X0134668Y0068800D01*
X0134668Y0066300D01*
X0134668Y0068800D02*
X0140668Y0068800D01*
X0142668Y0053800D02*
X0126668Y0053800D01*
X0126668Y0043800D01*
X0142668Y0043800D01*
X0142668Y0053800D01*
X0137168Y0048800D02*
X0134668Y0048800D01*
X0134668Y0046300D01*
X0133668Y0046300D01*
X0134668Y0048800D02*
X0130668Y0046300D01*
X0130668Y0051300D01*
X0134668Y0048800D01*
X0134668Y0051300D01*
X0134668Y0048800D02*
X0128668Y0048800D01*
X0124668Y0038300D02*
X0123168Y0038300D01*
X0123108Y0038298D01*
X0123047Y0038293D01*
X0122988Y0038284D01*
X0122929Y0038271D01*
X0122870Y0038255D01*
X0122813Y0038235D01*
X0122758Y0038212D01*
X0122703Y0038185D01*
X0122651Y0038156D01*
X0122600Y0038123D01*
X0122551Y0038087D01*
X0122505Y0038049D01*
X0122461Y0038007D01*
X0122419Y0037963D01*
X0122381Y0037917D01*
X0122345Y0037868D01*
X0122312Y0037817D01*
X0122283Y0037765D01*
X0122256Y0037710D01*
X0122233Y0037655D01*
X0122213Y0037598D01*
X0122197Y0037539D01*
X0122184Y0037480D01*
X0122175Y0037421D01*
X0122170Y0037360D01*
X0122168Y0037300D01*
X0122168Y0030300D01*
X0122170Y0030240D01*
X0122175Y0030179D01*
X0122184Y0030120D01*
X0122197Y0030061D01*
X0122213Y0030002D01*
X0122233Y0029945D01*
X0122256Y0029890D01*
X0122283Y0029835D01*
X0122312Y0029783D01*
X0122345Y0029732D01*
X0122381Y0029683D01*
X0122419Y0029637D01*
X0122461Y0029593D01*
X0122505Y0029551D01*
X0122551Y0029513D01*
X0122600Y0029477D01*
X0122651Y0029444D01*
X0122703Y0029415D01*
X0122758Y0029388D01*
X0122813Y0029365D01*
X0122870Y0029345D01*
X0122929Y0029329D01*
X0122988Y0029316D01*
X0123047Y0029307D01*
X0123108Y0029302D01*
X0123168Y0029300D01*
X0124668Y0029300D01*
X0125168Y0029800D01*
X0144168Y0029800D01*
X0144668Y0029300D01*
X0146168Y0029300D01*
X0146228Y0029302D01*
X0146289Y0029307D01*
X0146348Y0029316D01*
X0146407Y0029329D01*
X0146466Y0029345D01*
X0146523Y0029365D01*
X0146578Y0029388D01*
X0146633Y0029415D01*
X0146685Y0029444D01*
X0146736Y0029477D01*
X0146785Y0029513D01*
X0146831Y0029551D01*
X0146875Y0029593D01*
X0146917Y0029637D01*
X0146955Y0029683D01*
X0146991Y0029732D01*
X0147024Y0029783D01*
X0147053Y0029835D01*
X0147080Y0029890D01*
X0147103Y0029945D01*
X0147123Y0030002D01*
X0147139Y0030061D01*
X0147152Y0030120D01*
X0147161Y0030179D01*
X0147166Y0030240D01*
X0147168Y0030300D01*
X0147168Y0037300D01*
X0147166Y0037360D01*
X0147161Y0037421D01*
X0147152Y0037480D01*
X0147139Y0037539D01*
X0147123Y0037598D01*
X0147103Y0037655D01*
X0147080Y0037710D01*
X0147053Y0037765D01*
X0147024Y0037817D01*
X0146991Y0037868D01*
X0146955Y0037917D01*
X0146917Y0037963D01*
X0146875Y0038007D01*
X0146831Y0038049D01*
X0146785Y0038087D01*
X0146736Y0038123D01*
X0146685Y0038156D01*
X0146633Y0038185D01*
X0146578Y0038212D01*
X0146523Y0038235D01*
X0146466Y0038255D01*
X0146407Y0038271D01*
X0146348Y0038284D01*
X0146289Y0038293D01*
X0146228Y0038298D01*
X0146168Y0038300D01*
X0144668Y0038300D01*
X0144168Y0037800D01*
X0125168Y0037800D01*
X0124668Y0038300D01*
X0124668Y0023300D02*
X0123168Y0023300D01*
X0123108Y0023298D01*
X0123047Y0023293D01*
X0122988Y0023284D01*
X0122929Y0023271D01*
X0122870Y0023255D01*
X0122813Y0023235D01*
X0122758Y0023212D01*
X0122703Y0023185D01*
X0122651Y0023156D01*
X0122600Y0023123D01*
X0122551Y0023087D01*
X0122505Y0023049D01*
X0122461Y0023007D01*
X0122419Y0022963D01*
X0122381Y0022917D01*
X0122345Y0022868D01*
X0122312Y0022817D01*
X0122283Y0022765D01*
X0122256Y0022710D01*
X0122233Y0022655D01*
X0122213Y0022598D01*
X0122197Y0022539D01*
X0122184Y0022480D01*
X0122175Y0022421D01*
X0122170Y0022360D01*
X0122168Y0022300D01*
X0122168Y0015300D01*
X0122170Y0015240D01*
X0122175Y0015179D01*
X0122184Y0015120D01*
X0122197Y0015061D01*
X0122213Y0015002D01*
X0122233Y0014945D01*
X0122256Y0014890D01*
X0122283Y0014835D01*
X0122312Y0014783D01*
X0122345Y0014732D01*
X0122381Y0014683D01*
X0122419Y0014637D01*
X0122461Y0014593D01*
X0122505Y0014551D01*
X0122551Y0014513D01*
X0122600Y0014477D01*
X0122651Y0014444D01*
X0122703Y0014415D01*
X0122758Y0014388D01*
X0122813Y0014365D01*
X0122870Y0014345D01*
X0122929Y0014329D01*
X0122988Y0014316D01*
X0123047Y0014307D01*
X0123108Y0014302D01*
X0123168Y0014300D01*
X0124668Y0014300D01*
X0125168Y0014800D01*
X0144168Y0014800D01*
X0144668Y0014300D01*
X0146168Y0014300D01*
X0146228Y0014302D01*
X0146289Y0014307D01*
X0146348Y0014316D01*
X0146407Y0014329D01*
X0146466Y0014345D01*
X0146523Y0014365D01*
X0146578Y0014388D01*
X0146633Y0014415D01*
X0146685Y0014444D01*
X0146736Y0014477D01*
X0146785Y0014513D01*
X0146831Y0014551D01*
X0146875Y0014593D01*
X0146917Y0014637D01*
X0146955Y0014683D01*
X0146991Y0014732D01*
X0147024Y0014783D01*
X0147053Y0014835D01*
X0147080Y0014890D01*
X0147103Y0014945D01*
X0147123Y0015002D01*
X0147139Y0015061D01*
X0147152Y0015120D01*
X0147161Y0015179D01*
X0147166Y0015240D01*
X0147168Y0015300D01*
X0147168Y0022300D01*
X0147166Y0022360D01*
X0147161Y0022421D01*
X0147152Y0022480D01*
X0147139Y0022539D01*
X0147123Y0022598D01*
X0147103Y0022655D01*
X0147080Y0022710D01*
X0147053Y0022765D01*
X0147024Y0022817D01*
X0146991Y0022868D01*
X0146955Y0022917D01*
X0146917Y0022963D01*
X0146875Y0023007D01*
X0146831Y0023049D01*
X0146785Y0023087D01*
X0146736Y0023123D01*
X0146685Y0023156D01*
X0146633Y0023185D01*
X0146578Y0023212D01*
X0146523Y0023235D01*
X0146466Y0023255D01*
X0146407Y0023271D01*
X0146348Y0023284D01*
X0146289Y0023293D01*
X0146228Y0023298D01*
X0146168Y0023300D01*
X0144668Y0023300D01*
X0144168Y0022800D01*
X0125168Y0022800D01*
X0124668Y0023300D01*
X0174668Y0016300D02*
X0174668Y0011300D01*
X0177168Y0008800D01*
X0182168Y0008800D01*
X0184668Y0011300D01*
X0184668Y0016300D01*
X0182168Y0018800D01*
X0177168Y0018800D01*
X0174668Y0016300D01*
X0184668Y0016300D02*
X0187168Y0018800D01*
X0192168Y0018800D01*
X0194668Y0016300D01*
X0197168Y0018800D01*
X0202168Y0018800D01*
X0204668Y0016300D01*
X0207168Y0018800D01*
X0212168Y0018800D01*
X0214668Y0016300D01*
X0214668Y0011300D01*
X0212168Y0008800D01*
X0207168Y0008800D01*
X0204668Y0011300D01*
X0202168Y0008800D01*
X0197168Y0008800D01*
X0194668Y0011300D01*
X0194668Y0016300D01*
X0194668Y0011300D02*
X0192168Y0008800D01*
X0187168Y0008800D01*
X0184668Y0011300D01*
X0204668Y0011300D02*
X0204668Y0016300D01*
X0214668Y0038800D02*
X0214668Y0048800D01*
X0214668Y0054800D01*
X0214542Y0054802D01*
X0214417Y0054808D01*
X0214292Y0054818D01*
X0214167Y0054832D01*
X0214042Y0054849D01*
X0213918Y0054871D01*
X0213795Y0054896D01*
X0213673Y0054926D01*
X0213552Y0054959D01*
X0213432Y0054996D01*
X0213313Y0055036D01*
X0213196Y0055081D01*
X0213079Y0055129D01*
X0212965Y0055181D01*
X0212852Y0055236D01*
X0212741Y0055295D01*
X0212632Y0055357D01*
X0212525Y0055423D01*
X0212420Y0055492D01*
X0212317Y0055564D01*
X0212216Y0055639D01*
X0212118Y0055718D01*
X0212023Y0055800D01*
X0211930Y0055884D01*
X0211840Y0055972D01*
X0211752Y0056062D01*
X0211668Y0056155D01*
X0211586Y0056250D01*
X0211507Y0056348D01*
X0211432Y0056449D01*
X0211360Y0056552D01*
X0211291Y0056657D01*
X0211225Y0056764D01*
X0211163Y0056873D01*
X0211104Y0056984D01*
X0211049Y0057097D01*
X0210997Y0057211D01*
X0210949Y0057328D01*
X0210904Y0057445D01*
X0210864Y0057564D01*
X0210827Y0057684D01*
X0210794Y0057805D01*
X0210764Y0057927D01*
X0210739Y0058050D01*
X0210717Y0058174D01*
X0210700Y0058299D01*
X0210686Y0058424D01*
X0210676Y0058549D01*
X0210670Y0058674D01*
X0210668Y0058800D01*
X0210670Y0058926D01*
X0210676Y0059051D01*
X0210686Y0059176D01*
X0210700Y0059301D01*
X0210717Y0059426D01*
X0210739Y0059550D01*
X0210764Y0059673D01*
X0210794Y0059795D01*
X0210827Y0059916D01*
X0210864Y0060036D01*
X0210904Y0060155D01*
X0210949Y0060272D01*
X0210997Y0060389D01*
X0211049Y0060503D01*
X0211104Y0060616D01*
X0211163Y0060727D01*
X0211225Y0060836D01*
X0211291Y0060943D01*
X0211360Y0061048D01*
X0211432Y0061151D01*
X0211507Y0061252D01*
X0211586Y0061350D01*
X0211668Y0061445D01*
X0211752Y0061538D01*
X0211840Y0061628D01*
X0211930Y0061716D01*
X0212023Y0061800D01*
X0212118Y0061882D01*
X0212216Y0061961D01*
X0212317Y0062036D01*
X0212420Y0062108D01*
X0212525Y0062177D01*
X0212632Y0062243D01*
X0212741Y0062305D01*
X0212852Y0062364D01*
X0212965Y0062419D01*
X0213079Y0062471D01*
X0213196Y0062519D01*
X0213313Y0062564D01*
X0213432Y0062604D01*
X0213552Y0062641D01*
X0213673Y0062674D01*
X0213795Y0062704D01*
X0213918Y0062729D01*
X0214042Y0062751D01*
X0214167Y0062768D01*
X0214292Y0062782D01*
X0214417Y0062792D01*
X0214542Y0062798D01*
X0214668Y0062800D01*
X0214668Y0068800D01*
X0174668Y0068800D01*
X0174668Y0078800D01*
X0214668Y0078800D01*
X0214668Y0068800D01*
X0234668Y0066300D02*
X0234668Y0061300D01*
X0237168Y0058800D01*
X0234668Y0056300D01*
X0234668Y0051300D01*
X0237168Y0048800D01*
X0242168Y0048800D01*
X0244668Y0051300D01*
X0244668Y0056300D01*
X0242168Y0058800D01*
X0237168Y0058800D01*
X0242168Y0058800D02*
X0244668Y0061300D01*
X0244668Y0066300D01*
X0242168Y0068800D01*
X0237168Y0068800D01*
X0234668Y0071300D01*
X0234668Y0076300D01*
X0237168Y0078800D01*
X0234668Y0081300D01*
X0234668Y0086300D01*
X0237168Y0088800D01*
X0242168Y0088800D01*
X0244668Y0086300D01*
X0244668Y0081300D01*
X0242168Y0078800D01*
X0244668Y0076300D01*
X0244668Y0071300D01*
X0242168Y0068800D01*
X0237168Y0068800D02*
X0234668Y0066300D01*
X0237168Y0078800D02*
X0242168Y0078800D01*
X0214668Y0048800D02*
X0174668Y0048800D01*
X0174668Y0068800D01*
X0174668Y0048800D02*
X0174668Y0038800D01*
X0214668Y0038800D01*
X0223168Y0028800D02*
X0223171Y0029082D01*
X0223182Y0029364D01*
X0223199Y0029646D01*
X0223223Y0029927D01*
X0223254Y0030208D01*
X0223292Y0030487D01*
X0223337Y0030766D01*
X0223389Y0031044D01*
X0223447Y0031320D01*
X0223513Y0031594D01*
X0223585Y0031867D01*
X0223663Y0032138D01*
X0223748Y0032407D01*
X0223840Y0032674D01*
X0223939Y0032939D01*
X0224043Y0033201D01*
X0224155Y0033460D01*
X0224272Y0033717D01*
X0224396Y0033971D01*
X0224526Y0034221D01*
X0224662Y0034468D01*
X0224804Y0034712D01*
X0224952Y0034952D01*
X0225106Y0035189D01*
X0225266Y0035422D01*
X0225431Y0035651D01*
X0225602Y0035875D01*
X0225778Y0036096D01*
X0225960Y0036311D01*
X0226147Y0036523D01*
X0226339Y0036730D01*
X0226536Y0036932D01*
X0226738Y0037129D01*
X0226945Y0037321D01*
X0227157Y0037508D01*
X0227372Y0037690D01*
X0227593Y0037866D01*
X0227817Y0038037D01*
X0228046Y0038202D01*
X0228279Y0038362D01*
X0228516Y0038516D01*
X0228756Y0038664D01*
X0229000Y0038806D01*
X0229247Y0038942D01*
X0229497Y0039072D01*
X0229751Y0039196D01*
X0230008Y0039313D01*
X0230267Y0039425D01*
X0230529Y0039529D01*
X0230794Y0039628D01*
X0231061Y0039720D01*
X0231330Y0039805D01*
X0231601Y0039883D01*
X0231874Y0039955D01*
X0232148Y0040021D01*
X0232424Y0040079D01*
X0232702Y0040131D01*
X0232981Y0040176D01*
X0233260Y0040214D01*
X0233541Y0040245D01*
X0233822Y0040269D01*
X0234104Y0040286D01*
X0234386Y0040297D01*
X0234668Y0040300D01*
X0234950Y0040297D01*
X0235232Y0040286D01*
X0235514Y0040269D01*
X0235795Y0040245D01*
X0236076Y0040214D01*
X0236355Y0040176D01*
X0236634Y0040131D01*
X0236912Y0040079D01*
X0237188Y0040021D01*
X0237462Y0039955D01*
X0237735Y0039883D01*
X0238006Y0039805D01*
X0238275Y0039720D01*
X0238542Y0039628D01*
X0238807Y0039529D01*
X0239069Y0039425D01*
X0239328Y0039313D01*
X0239585Y0039196D01*
X0239839Y0039072D01*
X0240089Y0038942D01*
X0240336Y0038806D01*
X0240580Y0038664D01*
X0240820Y0038516D01*
X0241057Y0038362D01*
X0241290Y0038202D01*
X0241519Y0038037D01*
X0241743Y0037866D01*
X0241964Y0037690D01*
X0242179Y0037508D01*
X0242391Y0037321D01*
X0242598Y0037129D01*
X0242800Y0036932D01*
X0242997Y0036730D01*
X0243189Y0036523D01*
X0243376Y0036311D01*
X0243558Y0036096D01*
X0243734Y0035875D01*
X0243905Y0035651D01*
X0244070Y0035422D01*
X0244230Y0035189D01*
X0244384Y0034952D01*
X0244532Y0034712D01*
X0244674Y0034468D01*
X0244810Y0034221D01*
X0244940Y0033971D01*
X0245064Y0033717D01*
X0245181Y0033460D01*
X0245293Y0033201D01*
X0245397Y0032939D01*
X0245496Y0032674D01*
X0245588Y0032407D01*
X0245673Y0032138D01*
X0245751Y0031867D01*
X0245823Y0031594D01*
X0245889Y0031320D01*
X0245947Y0031044D01*
X0245999Y0030766D01*
X0246044Y0030487D01*
X0246082Y0030208D01*
X0246113Y0029927D01*
X0246137Y0029646D01*
X0246154Y0029364D01*
X0246165Y0029082D01*
X0246168Y0028800D01*
X0246165Y0028518D01*
X0246154Y0028236D01*
X0246137Y0027954D01*
X0246113Y0027673D01*
X0246082Y0027392D01*
X0246044Y0027113D01*
X0245999Y0026834D01*
X0245947Y0026556D01*
X0245889Y0026280D01*
X0245823Y0026006D01*
X0245751Y0025733D01*
X0245673Y0025462D01*
X0245588Y0025193D01*
X0245496Y0024926D01*
X0245397Y0024661D01*
X0245293Y0024399D01*
X0245181Y0024140D01*
X0245064Y0023883D01*
X0244940Y0023629D01*
X0244810Y0023379D01*
X0244674Y0023132D01*
X0244532Y0022888D01*
X0244384Y0022648D01*
X0244230Y0022411D01*
X0244070Y0022178D01*
X0243905Y0021949D01*
X0243734Y0021725D01*
X0243558Y0021504D01*
X0243376Y0021289D01*
X0243189Y0021077D01*
X0242997Y0020870D01*
X0242800Y0020668D01*
X0242598Y0020471D01*
X0242391Y0020279D01*
X0242179Y0020092D01*
X0241964Y0019910D01*
X0241743Y0019734D01*
X0241519Y0019563D01*
X0241290Y0019398D01*
X0241057Y0019238D01*
X0240820Y0019084D01*
X0240580Y0018936D01*
X0240336Y0018794D01*
X0240089Y0018658D01*
X0239839Y0018528D01*
X0239585Y0018404D01*
X0239328Y0018287D01*
X0239069Y0018175D01*
X0238807Y0018071D01*
X0238542Y0017972D01*
X0238275Y0017880D01*
X0238006Y0017795D01*
X0237735Y0017717D01*
X0237462Y0017645D01*
X0237188Y0017579D01*
X0236912Y0017521D01*
X0236634Y0017469D01*
X0236355Y0017424D01*
X0236076Y0017386D01*
X0235795Y0017355D01*
X0235514Y0017331D01*
X0235232Y0017314D01*
X0234950Y0017303D01*
X0234668Y0017300D01*
X0234386Y0017303D01*
X0234104Y0017314D01*
X0233822Y0017331D01*
X0233541Y0017355D01*
X0233260Y0017386D01*
X0232981Y0017424D01*
X0232702Y0017469D01*
X0232424Y0017521D01*
X0232148Y0017579D01*
X0231874Y0017645D01*
X0231601Y0017717D01*
X0231330Y0017795D01*
X0231061Y0017880D01*
X0230794Y0017972D01*
X0230529Y0018071D01*
X0230267Y0018175D01*
X0230008Y0018287D01*
X0229751Y0018404D01*
X0229497Y0018528D01*
X0229247Y0018658D01*
X0229000Y0018794D01*
X0228756Y0018936D01*
X0228516Y0019084D01*
X0228279Y0019238D01*
X0228046Y0019398D01*
X0227817Y0019563D01*
X0227593Y0019734D01*
X0227372Y0019910D01*
X0227157Y0020092D01*
X0226945Y0020279D01*
X0226738Y0020471D01*
X0226536Y0020668D01*
X0226339Y0020870D01*
X0226147Y0021077D01*
X0225960Y0021289D01*
X0225778Y0021504D01*
X0225602Y0021725D01*
X0225431Y0021949D01*
X0225266Y0022178D01*
X0225106Y0022411D01*
X0224952Y0022648D01*
X0224804Y0022888D01*
X0224662Y0023132D01*
X0224526Y0023379D01*
X0224396Y0023629D01*
X0224272Y0023883D01*
X0224155Y0024140D01*
X0224043Y0024399D01*
X0223939Y0024661D01*
X0223840Y0024926D01*
X0223748Y0025193D01*
X0223663Y0025462D01*
X0223585Y0025733D01*
X0223513Y0026006D01*
X0223447Y0026280D01*
X0223389Y0026556D01*
X0223337Y0026834D01*
X0223292Y0027113D01*
X0223254Y0027392D01*
X0223223Y0027673D01*
X0223199Y0027954D01*
X0223182Y0028236D01*
X0223171Y0028518D01*
X0223168Y0028800D01*
X0157168Y0123800D02*
X0152168Y0123800D01*
X0149668Y0126300D01*
X0147168Y0123800D01*
X0142168Y0123800D01*
X0139668Y0126300D01*
X0139668Y0131300D01*
X0142168Y0133800D01*
X0147168Y0133800D01*
X0149668Y0131300D01*
X0152168Y0133800D01*
X0157168Y0133800D01*
X0159668Y0131300D01*
X0159668Y0126300D01*
X0157168Y0123800D01*
X0149668Y0126300D02*
X0149668Y0131300D01*
X0139668Y0131300D02*
X0137168Y0133800D01*
X0132168Y0133800D01*
X0129668Y0131300D01*
X0127168Y0133800D01*
X0122168Y0133800D01*
X0119668Y0131300D01*
X0119668Y0126300D01*
X0122168Y0123800D01*
X0127168Y0123800D01*
X0129668Y0126300D01*
X0129668Y0131300D01*
X0129668Y0126300D02*
X0132168Y0123800D01*
X0137168Y0123800D01*
X0139668Y0126300D01*
X0159668Y0158800D02*
X0159671Y0159045D01*
X0159680Y0159291D01*
X0159695Y0159536D01*
X0159716Y0159780D01*
X0159743Y0160024D01*
X0159776Y0160267D01*
X0159815Y0160510D01*
X0159860Y0160751D01*
X0159911Y0160991D01*
X0159968Y0161230D01*
X0160030Y0161467D01*
X0160099Y0161703D01*
X0160173Y0161937D01*
X0160253Y0162169D01*
X0160338Y0162399D01*
X0160429Y0162627D01*
X0160526Y0162852D01*
X0160628Y0163076D01*
X0160736Y0163296D01*
X0160849Y0163514D01*
X0160967Y0163729D01*
X0161091Y0163941D01*
X0161219Y0164150D01*
X0161353Y0164356D01*
X0161492Y0164558D01*
X0161636Y0164757D01*
X0161785Y0164952D01*
X0161938Y0165144D01*
X0162096Y0165332D01*
X0162258Y0165516D01*
X0162426Y0165695D01*
X0162597Y0165871D01*
X0162773Y0166042D01*
X0162952Y0166210D01*
X0163136Y0166372D01*
X0163324Y0166530D01*
X0163516Y0166683D01*
X0163711Y0166832D01*
X0163910Y0166976D01*
X0164112Y0167115D01*
X0164318Y0167249D01*
X0164527Y0167377D01*
X0164739Y0167501D01*
X0164954Y0167619D01*
X0165172Y0167732D01*
X0165392Y0167840D01*
X0165616Y0167942D01*
X0165841Y0168039D01*
X0166069Y0168130D01*
X0166299Y0168215D01*
X0166531Y0168295D01*
X0166765Y0168369D01*
X0167001Y0168438D01*
X0167238Y0168500D01*
X0167477Y0168557D01*
X0167717Y0168608D01*
X0167958Y0168653D01*
X0168201Y0168692D01*
X0168444Y0168725D01*
X0168688Y0168752D01*
X0168932Y0168773D01*
X0169177Y0168788D01*
X0169423Y0168797D01*
X0169668Y0168800D01*
X0169913Y0168797D01*
X0170159Y0168788D01*
X0170404Y0168773D01*
X0170648Y0168752D01*
X0170892Y0168725D01*
X0171135Y0168692D01*
X0171378Y0168653D01*
X0171619Y0168608D01*
X0171859Y0168557D01*
X0172098Y0168500D01*
X0172335Y0168438D01*
X0172571Y0168369D01*
X0172805Y0168295D01*
X0173037Y0168215D01*
X0173267Y0168130D01*
X0173495Y0168039D01*
X0173720Y0167942D01*
X0173944Y0167840D01*
X0174164Y0167732D01*
X0174382Y0167619D01*
X0174597Y0167501D01*
X0174809Y0167377D01*
X0175018Y0167249D01*
X0175224Y0167115D01*
X0175426Y0166976D01*
X0175625Y0166832D01*
X0175820Y0166683D01*
X0176012Y0166530D01*
X0176200Y0166372D01*
X0176384Y0166210D01*
X0176563Y0166042D01*
X0176739Y0165871D01*
X0176910Y0165695D01*
X0177078Y0165516D01*
X0177240Y0165332D01*
X0177398Y0165144D01*
X0177551Y0164952D01*
X0177700Y0164757D01*
X0177844Y0164558D01*
X0177983Y0164356D01*
X0178117Y0164150D01*
X0178245Y0163941D01*
X0178369Y0163729D01*
X0178487Y0163514D01*
X0178600Y0163296D01*
X0178708Y0163076D01*
X0178810Y0162852D01*
X0178907Y0162627D01*
X0178998Y0162399D01*
X0179083Y0162169D01*
X0179163Y0161937D01*
X0179237Y0161703D01*
X0179306Y0161467D01*
X0179368Y0161230D01*
X0179425Y0160991D01*
X0179476Y0160751D01*
X0179521Y0160510D01*
X0179560Y0160267D01*
X0179593Y0160024D01*
X0179620Y0159780D01*
X0179641Y0159536D01*
X0179656Y0159291D01*
X0179665Y0159045D01*
X0179668Y0158800D01*
X0179665Y0158555D01*
X0179656Y0158309D01*
X0179641Y0158064D01*
X0179620Y0157820D01*
X0179593Y0157576D01*
X0179560Y0157333D01*
X0179521Y0157090D01*
X0179476Y0156849D01*
X0179425Y0156609D01*
X0179368Y0156370D01*
X0179306Y0156133D01*
X0179237Y0155897D01*
X0179163Y0155663D01*
X0179083Y0155431D01*
X0178998Y0155201D01*
X0178907Y0154973D01*
X0178810Y0154748D01*
X0178708Y0154524D01*
X0178600Y0154304D01*
X0178487Y0154086D01*
X0178369Y0153871D01*
X0178245Y0153659D01*
X0178117Y0153450D01*
X0177983Y0153244D01*
X0177844Y0153042D01*
X0177700Y0152843D01*
X0177551Y0152648D01*
X0177398Y0152456D01*
X0177240Y0152268D01*
X0177078Y0152084D01*
X0176910Y0151905D01*
X0176739Y0151729D01*
X0176563Y0151558D01*
X0176384Y0151390D01*
X0176200Y0151228D01*
X0176012Y0151070D01*
X0175820Y0150917D01*
X0175625Y0150768D01*
X0175426Y0150624D01*
X0175224Y0150485D01*
X0175018Y0150351D01*
X0174809Y0150223D01*
X0174597Y0150099D01*
X0174382Y0149981D01*
X0174164Y0149868D01*
X0173944Y0149760D01*
X0173720Y0149658D01*
X0173495Y0149561D01*
X0173267Y0149470D01*
X0173037Y0149385D01*
X0172805Y0149305D01*
X0172571Y0149231D01*
X0172335Y0149162D01*
X0172098Y0149100D01*
X0171859Y0149043D01*
X0171619Y0148992D01*
X0171378Y0148947D01*
X0171135Y0148908D01*
X0170892Y0148875D01*
X0170648Y0148848D01*
X0170404Y0148827D01*
X0170159Y0148812D01*
X0169913Y0148803D01*
X0169668Y0148800D01*
X0169423Y0148803D01*
X0169177Y0148812D01*
X0168932Y0148827D01*
X0168688Y0148848D01*
X0168444Y0148875D01*
X0168201Y0148908D01*
X0167958Y0148947D01*
X0167717Y0148992D01*
X0167477Y0149043D01*
X0167238Y0149100D01*
X0167001Y0149162D01*
X0166765Y0149231D01*
X0166531Y0149305D01*
X0166299Y0149385D01*
X0166069Y0149470D01*
X0165841Y0149561D01*
X0165616Y0149658D01*
X0165392Y0149760D01*
X0165172Y0149868D01*
X0164954Y0149981D01*
X0164739Y0150099D01*
X0164527Y0150223D01*
X0164318Y0150351D01*
X0164112Y0150485D01*
X0163910Y0150624D01*
X0163711Y0150768D01*
X0163516Y0150917D01*
X0163324Y0151070D01*
X0163136Y0151228D01*
X0162952Y0151390D01*
X0162773Y0151558D01*
X0162597Y0151729D01*
X0162426Y0151905D01*
X0162258Y0152084D01*
X0162096Y0152268D01*
X0161938Y0152456D01*
X0161785Y0152648D01*
X0161636Y0152843D01*
X0161492Y0153042D01*
X0161353Y0153244D01*
X0161219Y0153450D01*
X0161091Y0153659D01*
X0160967Y0153871D01*
X0160849Y0154086D01*
X0160736Y0154304D01*
X0160628Y0154524D01*
X0160526Y0154748D01*
X0160429Y0154973D01*
X0160338Y0155201D01*
X0160253Y0155431D01*
X0160173Y0155663D01*
X0160099Y0155897D01*
X0160030Y0156133D01*
X0159968Y0156370D01*
X0159911Y0156609D01*
X0159860Y0156849D01*
X0159815Y0157090D01*
X0159776Y0157333D01*
X0159743Y0157576D01*
X0159716Y0157820D01*
X0159695Y0158064D01*
X0159680Y0158309D01*
X0159671Y0158555D01*
X0159668Y0158800D01*
X0190168Y0163800D02*
X0190168Y0165300D01*
X0190170Y0165360D01*
X0190175Y0165421D01*
X0190184Y0165480D01*
X0190197Y0165539D01*
X0190213Y0165598D01*
X0190233Y0165655D01*
X0190256Y0165710D01*
X0190283Y0165765D01*
X0190312Y0165817D01*
X0190345Y0165868D01*
X0190381Y0165917D01*
X0190419Y0165963D01*
X0190461Y0166007D01*
X0190505Y0166049D01*
X0190551Y0166087D01*
X0190600Y0166123D01*
X0190651Y0166156D01*
X0190703Y0166185D01*
X0190758Y0166212D01*
X0190813Y0166235D01*
X0190870Y0166255D01*
X0190929Y0166271D01*
X0190988Y0166284D01*
X0191047Y0166293D01*
X0191108Y0166298D01*
X0191168Y0166300D01*
X0198168Y0166300D01*
X0198228Y0166298D01*
X0198289Y0166293D01*
X0198348Y0166284D01*
X0198407Y0166271D01*
X0198466Y0166255D01*
X0198523Y0166235D01*
X0198578Y0166212D01*
X0198633Y0166185D01*
X0198685Y0166156D01*
X0198736Y0166123D01*
X0198785Y0166087D01*
X0198831Y0166049D01*
X0198875Y0166007D01*
X0198917Y0165963D01*
X0198955Y0165917D01*
X0198991Y0165868D01*
X0199024Y0165817D01*
X0199053Y0165765D01*
X0199080Y0165710D01*
X0199103Y0165655D01*
X0199123Y0165598D01*
X0199139Y0165539D01*
X0199152Y0165480D01*
X0199161Y0165421D01*
X0199166Y0165360D01*
X0199168Y0165300D01*
X0199168Y0163800D01*
X0198668Y0163300D01*
X0198668Y0144300D01*
X0199168Y0143800D01*
X0199168Y0142300D01*
X0199166Y0142240D01*
X0199161Y0142179D01*
X0199152Y0142120D01*
X0199139Y0142061D01*
X0199123Y0142002D01*
X0199103Y0141945D01*
X0199080Y0141890D01*
X0199053Y0141835D01*
X0199024Y0141783D01*
X0198991Y0141732D01*
X0198955Y0141683D01*
X0198917Y0141637D01*
X0198875Y0141593D01*
X0198831Y0141551D01*
X0198785Y0141513D01*
X0198736Y0141477D01*
X0198685Y0141444D01*
X0198633Y0141415D01*
X0198578Y0141388D01*
X0198523Y0141365D01*
X0198466Y0141345D01*
X0198407Y0141329D01*
X0198348Y0141316D01*
X0198289Y0141307D01*
X0198228Y0141302D01*
X0198168Y0141300D01*
X0191168Y0141300D01*
X0191108Y0141302D01*
X0191047Y0141307D01*
X0190988Y0141316D01*
X0190929Y0141329D01*
X0190870Y0141345D01*
X0190813Y0141365D01*
X0190758Y0141388D01*
X0190703Y0141415D01*
X0190651Y0141444D01*
X0190600Y0141477D01*
X0190551Y0141513D01*
X0190505Y0141551D01*
X0190461Y0141593D01*
X0190419Y0141637D01*
X0190381Y0141683D01*
X0190345Y0141732D01*
X0190312Y0141783D01*
X0190283Y0141835D01*
X0190256Y0141890D01*
X0190233Y0141945D01*
X0190213Y0142002D01*
X0190197Y0142061D01*
X0190184Y0142120D01*
X0190175Y0142179D01*
X0190170Y0142240D01*
X0190168Y0142300D01*
X0190168Y0143800D01*
X0190668Y0144300D01*
X0190668Y0163300D01*
X0190168Y0163800D01*
X0217168Y0170300D02*
X0217168Y0177300D01*
X0217170Y0177360D01*
X0217175Y0177421D01*
X0217184Y0177480D01*
X0217197Y0177539D01*
X0217213Y0177598D01*
X0217233Y0177655D01*
X0217256Y0177710D01*
X0217283Y0177765D01*
X0217312Y0177817D01*
X0217345Y0177868D01*
X0217381Y0177917D01*
X0217419Y0177963D01*
X0217461Y0178007D01*
X0217505Y0178049D01*
X0217551Y0178087D01*
X0217600Y0178123D01*
X0217651Y0178156D01*
X0217703Y0178185D01*
X0217758Y0178212D01*
X0217813Y0178235D01*
X0217870Y0178255D01*
X0217929Y0178271D01*
X0217988Y0178284D01*
X0218047Y0178293D01*
X0218108Y0178298D01*
X0218168Y0178300D01*
X0219668Y0178300D01*
X0220168Y0177800D01*
X0239168Y0177800D01*
X0239668Y0178300D01*
X0241168Y0178300D01*
X0241228Y0178298D01*
X0241289Y0178293D01*
X0241348Y0178284D01*
X0241407Y0178271D01*
X0241466Y0178255D01*
X0241523Y0178235D01*
X0241578Y0178212D01*
X0241633Y0178185D01*
X0241685Y0178156D01*
X0241736Y0178123D01*
X0241785Y0178087D01*
X0241831Y0178049D01*
X0241875Y0178007D01*
X0241917Y0177963D01*
X0241955Y0177917D01*
X0241991Y0177868D01*
X0242024Y0177817D01*
X0242053Y0177765D01*
X0242080Y0177710D01*
X0242103Y0177655D01*
X0242123Y0177598D01*
X0242139Y0177539D01*
X0242152Y0177480D01*
X0242161Y0177421D01*
X0242166Y0177360D01*
X0242168Y0177300D01*
X0242168Y0170300D01*
X0242166Y0170240D01*
X0242161Y0170179D01*
X0242152Y0170120D01*
X0242139Y0170061D01*
X0242123Y0170002D01*
X0242103Y0169945D01*
X0242080Y0169890D01*
X0242053Y0169835D01*
X0242024Y0169783D01*
X0241991Y0169732D01*
X0241955Y0169683D01*
X0241917Y0169637D01*
X0241875Y0169593D01*
X0241831Y0169551D01*
X0241785Y0169513D01*
X0241736Y0169477D01*
X0241685Y0169444D01*
X0241633Y0169415D01*
X0241578Y0169388D01*
X0241523Y0169365D01*
X0241466Y0169345D01*
X0241407Y0169329D01*
X0241348Y0169316D01*
X0241289Y0169307D01*
X0241228Y0169302D01*
X0241168Y0169300D01*
X0239668Y0169300D01*
X0239168Y0169800D01*
X0220168Y0169800D01*
X0219668Y0169300D01*
X0218168Y0169300D01*
X0218108Y0169302D01*
X0218047Y0169307D01*
X0217988Y0169316D01*
X0217929Y0169329D01*
X0217870Y0169345D01*
X0217813Y0169365D01*
X0217758Y0169388D01*
X0217703Y0169415D01*
X0217651Y0169444D01*
X0217600Y0169477D01*
X0217551Y0169513D01*
X0217505Y0169551D01*
X0217461Y0169593D01*
X0217419Y0169637D01*
X0217381Y0169683D01*
X0217345Y0169732D01*
X0217312Y0169783D01*
X0217283Y0169835D01*
X0217256Y0169890D01*
X0217233Y0169945D01*
X0217213Y0170002D01*
X0217197Y0170061D01*
X0217184Y0170120D01*
X0217175Y0170179D01*
X0217170Y0170240D01*
X0217168Y0170300D01*
X0078168Y0168800D02*
X0078171Y0169082D01*
X0078182Y0169364D01*
X0078199Y0169646D01*
X0078223Y0169927D01*
X0078254Y0170208D01*
X0078292Y0170487D01*
X0078337Y0170766D01*
X0078389Y0171044D01*
X0078447Y0171320D01*
X0078513Y0171594D01*
X0078585Y0171867D01*
X0078663Y0172138D01*
X0078748Y0172407D01*
X0078840Y0172674D01*
X0078939Y0172939D01*
X0079043Y0173201D01*
X0079155Y0173460D01*
X0079272Y0173717D01*
X0079396Y0173971D01*
X0079526Y0174221D01*
X0079662Y0174468D01*
X0079804Y0174712D01*
X0079952Y0174952D01*
X0080106Y0175189D01*
X0080266Y0175422D01*
X0080431Y0175651D01*
X0080602Y0175875D01*
X0080778Y0176096D01*
X0080960Y0176311D01*
X0081147Y0176523D01*
X0081339Y0176730D01*
X0081536Y0176932D01*
X0081738Y0177129D01*
X0081945Y0177321D01*
X0082157Y0177508D01*
X0082372Y0177690D01*
X0082593Y0177866D01*
X0082817Y0178037D01*
X0083046Y0178202D01*
X0083279Y0178362D01*
X0083516Y0178516D01*
X0083756Y0178664D01*
X0084000Y0178806D01*
X0084247Y0178942D01*
X0084497Y0179072D01*
X0084751Y0179196D01*
X0085008Y0179313D01*
X0085267Y0179425D01*
X0085529Y0179529D01*
X0085794Y0179628D01*
X0086061Y0179720D01*
X0086330Y0179805D01*
X0086601Y0179883D01*
X0086874Y0179955D01*
X0087148Y0180021D01*
X0087424Y0180079D01*
X0087702Y0180131D01*
X0087981Y0180176D01*
X0088260Y0180214D01*
X0088541Y0180245D01*
X0088822Y0180269D01*
X0089104Y0180286D01*
X0089386Y0180297D01*
X0089668Y0180300D01*
X0089950Y0180297D01*
X0090232Y0180286D01*
X0090514Y0180269D01*
X0090795Y0180245D01*
X0091076Y0180214D01*
X0091355Y0180176D01*
X0091634Y0180131D01*
X0091912Y0180079D01*
X0092188Y0180021D01*
X0092462Y0179955D01*
X0092735Y0179883D01*
X0093006Y0179805D01*
X0093275Y0179720D01*
X0093542Y0179628D01*
X0093807Y0179529D01*
X0094069Y0179425D01*
X0094328Y0179313D01*
X0094585Y0179196D01*
X0094839Y0179072D01*
X0095089Y0178942D01*
X0095336Y0178806D01*
X0095580Y0178664D01*
X0095820Y0178516D01*
X0096057Y0178362D01*
X0096290Y0178202D01*
X0096519Y0178037D01*
X0096743Y0177866D01*
X0096964Y0177690D01*
X0097179Y0177508D01*
X0097391Y0177321D01*
X0097598Y0177129D01*
X0097800Y0176932D01*
X0097997Y0176730D01*
X0098189Y0176523D01*
X0098376Y0176311D01*
X0098558Y0176096D01*
X0098734Y0175875D01*
X0098905Y0175651D01*
X0099070Y0175422D01*
X0099230Y0175189D01*
X0099384Y0174952D01*
X0099532Y0174712D01*
X0099674Y0174468D01*
X0099810Y0174221D01*
X0099940Y0173971D01*
X0100064Y0173717D01*
X0100181Y0173460D01*
X0100293Y0173201D01*
X0100397Y0172939D01*
X0100496Y0172674D01*
X0100588Y0172407D01*
X0100673Y0172138D01*
X0100751Y0171867D01*
X0100823Y0171594D01*
X0100889Y0171320D01*
X0100947Y0171044D01*
X0100999Y0170766D01*
X0101044Y0170487D01*
X0101082Y0170208D01*
X0101113Y0169927D01*
X0101137Y0169646D01*
X0101154Y0169364D01*
X0101165Y0169082D01*
X0101168Y0168800D01*
X0101165Y0168518D01*
X0101154Y0168236D01*
X0101137Y0167954D01*
X0101113Y0167673D01*
X0101082Y0167392D01*
X0101044Y0167113D01*
X0100999Y0166834D01*
X0100947Y0166556D01*
X0100889Y0166280D01*
X0100823Y0166006D01*
X0100751Y0165733D01*
X0100673Y0165462D01*
X0100588Y0165193D01*
X0100496Y0164926D01*
X0100397Y0164661D01*
X0100293Y0164399D01*
X0100181Y0164140D01*
X0100064Y0163883D01*
X0099940Y0163629D01*
X0099810Y0163379D01*
X0099674Y0163132D01*
X0099532Y0162888D01*
X0099384Y0162648D01*
X0099230Y0162411D01*
X0099070Y0162178D01*
X0098905Y0161949D01*
X0098734Y0161725D01*
X0098558Y0161504D01*
X0098376Y0161289D01*
X0098189Y0161077D01*
X0097997Y0160870D01*
X0097800Y0160668D01*
X0097598Y0160471D01*
X0097391Y0160279D01*
X0097179Y0160092D01*
X0096964Y0159910D01*
X0096743Y0159734D01*
X0096519Y0159563D01*
X0096290Y0159398D01*
X0096057Y0159238D01*
X0095820Y0159084D01*
X0095580Y0158936D01*
X0095336Y0158794D01*
X0095089Y0158658D01*
X0094839Y0158528D01*
X0094585Y0158404D01*
X0094328Y0158287D01*
X0094069Y0158175D01*
X0093807Y0158071D01*
X0093542Y0157972D01*
X0093275Y0157880D01*
X0093006Y0157795D01*
X0092735Y0157717D01*
X0092462Y0157645D01*
X0092188Y0157579D01*
X0091912Y0157521D01*
X0091634Y0157469D01*
X0091355Y0157424D01*
X0091076Y0157386D01*
X0090795Y0157355D01*
X0090514Y0157331D01*
X0090232Y0157314D01*
X0089950Y0157303D01*
X0089668Y0157300D01*
X0089386Y0157303D01*
X0089104Y0157314D01*
X0088822Y0157331D01*
X0088541Y0157355D01*
X0088260Y0157386D01*
X0087981Y0157424D01*
X0087702Y0157469D01*
X0087424Y0157521D01*
X0087148Y0157579D01*
X0086874Y0157645D01*
X0086601Y0157717D01*
X0086330Y0157795D01*
X0086061Y0157880D01*
X0085794Y0157972D01*
X0085529Y0158071D01*
X0085267Y0158175D01*
X0085008Y0158287D01*
X0084751Y0158404D01*
X0084497Y0158528D01*
X0084247Y0158658D01*
X0084000Y0158794D01*
X0083756Y0158936D01*
X0083516Y0159084D01*
X0083279Y0159238D01*
X0083046Y0159398D01*
X0082817Y0159563D01*
X0082593Y0159734D01*
X0082372Y0159910D01*
X0082157Y0160092D01*
X0081945Y0160279D01*
X0081738Y0160471D01*
X0081536Y0160668D01*
X0081339Y0160870D01*
X0081147Y0161077D01*
X0080960Y0161289D01*
X0080778Y0161504D01*
X0080602Y0161725D01*
X0080431Y0161949D01*
X0080266Y0162178D01*
X0080106Y0162411D01*
X0079952Y0162648D01*
X0079804Y0162888D01*
X0079662Y0163132D01*
X0079526Y0163379D01*
X0079396Y0163629D01*
X0079272Y0163883D01*
X0079155Y0164140D01*
X0079043Y0164399D01*
X0078939Y0164661D01*
X0078840Y0164926D01*
X0078748Y0165193D01*
X0078663Y0165462D01*
X0078585Y0165733D01*
X0078513Y0166006D01*
X0078447Y0166280D01*
X0078389Y0166556D01*
X0078337Y0166834D01*
X0078292Y0167113D01*
X0078254Y0167392D01*
X0078223Y0167673D01*
X0078199Y0167954D01*
X0078182Y0168236D01*
X0078171Y0168518D01*
X0078168Y0168800D01*
D15*
X0146406Y0117601D02*
X0147157Y0116850D01*
X0147907Y0116850D01*
X0148658Y0117601D01*
X0148658Y0121354D01*
X0149408Y0121354D02*
X0147907Y0121354D01*
X0151010Y0121354D02*
X0153262Y0121354D01*
X0154012Y0120603D01*
X0154012Y0119102D01*
X0153262Y0118351D01*
X0151010Y0118351D01*
X0151010Y0116850D02*
X0151010Y0121354D01*
X0155614Y0120603D02*
X0156364Y0121354D01*
X0157866Y0121354D01*
X0158616Y0120603D01*
X0158616Y0119853D01*
X0155614Y0116850D01*
X0158616Y0116850D01*
X0130524Y0098803D02*
X0130524Y0098053D01*
X0129774Y0097302D01*
X0130524Y0096551D01*
X0130524Y0095801D01*
X0129774Y0095050D01*
X0128272Y0095050D01*
X0127522Y0095801D01*
X0125920Y0095050D02*
X0124419Y0096551D01*
X0125170Y0096551D02*
X0122918Y0096551D01*
X0122918Y0095050D02*
X0122918Y0099554D01*
X0125170Y0099554D01*
X0125920Y0098803D01*
X0125920Y0097302D01*
X0125170Y0096551D01*
X0127522Y0098803D02*
X0128272Y0099554D01*
X0129774Y0099554D01*
X0130524Y0098803D01*
X0129774Y0097302D02*
X0129023Y0097302D01*
X0129670Y0080054D02*
X0127418Y0080054D01*
X0127418Y0075550D01*
X0129670Y0075550D01*
X0130420Y0076301D01*
X0130420Y0079303D01*
X0129670Y0080054D01*
X0132022Y0078553D02*
X0133523Y0080054D01*
X0133523Y0075550D01*
X0132022Y0075550D02*
X0135024Y0075550D01*
X0129023Y0044554D02*
X0129023Y0040050D01*
X0127522Y0040050D02*
X0130524Y0040050D01*
X0133210Y0042054D02*
X0133210Y0037550D01*
X0135462Y0037550D01*
X0136212Y0038301D01*
X0136212Y0041303D01*
X0135462Y0042054D01*
X0133210Y0042054D01*
X0137814Y0041303D02*
X0138564Y0042054D01*
X0140066Y0042054D01*
X0140816Y0041303D01*
X0140816Y0040553D01*
X0137814Y0037550D01*
X0140816Y0037550D01*
X0130524Y0028803D02*
X0129774Y0029554D01*
X0128272Y0029554D01*
X0127522Y0028803D01*
X0125920Y0028803D02*
X0125920Y0027302D01*
X0125170Y0026551D01*
X0122918Y0026551D01*
X0122918Y0025050D02*
X0122918Y0029554D01*
X0125170Y0029554D01*
X0125920Y0028803D01*
X0124419Y0026551D02*
X0125920Y0025050D01*
X0127522Y0025050D02*
X0130524Y0028053D01*
X0130524Y0028803D01*
X0130524Y0025050D02*
X0127522Y0025050D01*
X0125920Y0040050D02*
X0124419Y0041551D01*
X0125170Y0041551D02*
X0122918Y0041551D01*
X0122918Y0040050D02*
X0122918Y0044554D01*
X0125170Y0044554D01*
X0125920Y0043803D01*
X0125920Y0042302D01*
X0125170Y0041551D01*
X0127522Y0043053D02*
X0129023Y0044554D01*
X0178141Y0052550D02*
X0179642Y0052550D01*
X0178891Y0052550D02*
X0178891Y0057054D01*
X0178141Y0057054D02*
X0179642Y0057054D01*
X0181210Y0056303D02*
X0181210Y0053301D01*
X0181960Y0052550D01*
X0183462Y0052550D01*
X0184212Y0053301D01*
X0185814Y0052550D02*
X0188816Y0052550D01*
X0187315Y0052550D02*
X0187315Y0057054D01*
X0185814Y0055553D01*
X0184212Y0056303D02*
X0183462Y0057054D01*
X0181960Y0057054D01*
X0181210Y0056303D01*
X0217907Y0016354D02*
X0219408Y0016354D01*
X0218658Y0016354D02*
X0218658Y0012601D01*
X0217907Y0011850D01*
X0217157Y0011850D01*
X0216406Y0012601D01*
X0221010Y0013351D02*
X0223262Y0013351D01*
X0224012Y0014102D01*
X0224012Y0015603D01*
X0223262Y0016354D01*
X0221010Y0016354D01*
X0221010Y0011850D01*
X0225614Y0012601D02*
X0226364Y0011850D01*
X0227866Y0011850D01*
X0228616Y0012601D01*
X0228616Y0013351D01*
X0227866Y0014102D01*
X0227115Y0014102D01*
X0227866Y0014102D02*
X0228616Y0014853D01*
X0228616Y0015603D01*
X0227866Y0016354D01*
X0226364Y0016354D01*
X0225614Y0015603D01*
X0250867Y0075538D02*
X0251618Y0076289D01*
X0251618Y0077039D01*
X0250867Y0077790D01*
X0247114Y0077790D01*
X0247114Y0077039D02*
X0247114Y0078541D01*
X0247114Y0080142D02*
X0247114Y0082394D01*
X0247865Y0083145D01*
X0249366Y0083145D01*
X0250116Y0082394D01*
X0250116Y0080142D01*
X0251618Y0080142D02*
X0247114Y0080142D01*
X0249366Y0084746D02*
X0249366Y0087749D01*
X0251618Y0086998D02*
X0247114Y0086998D01*
X0249366Y0084746D01*
X0214418Y0139050D02*
X0209914Y0139050D01*
X0209914Y0141302D01*
X0210665Y0142053D01*
X0212166Y0142053D01*
X0212916Y0141302D01*
X0212916Y0139050D01*
X0212916Y0140551D02*
X0214418Y0142053D01*
X0214418Y0143654D02*
X0214418Y0146656D01*
X0213667Y0148258D02*
X0214418Y0149008D01*
X0214418Y0150510D01*
X0213667Y0151260D01*
X0212916Y0151260D01*
X0212166Y0150510D01*
X0212166Y0149008D01*
X0211415Y0148258D01*
X0210665Y0148258D01*
X0209914Y0149008D01*
X0209914Y0150510D01*
X0210665Y0151260D01*
X0209914Y0152862D02*
X0214418Y0152862D01*
X0214418Y0155864D01*
X0212166Y0154363D02*
X0212166Y0152862D01*
X0209914Y0152862D02*
X0209914Y0155864D01*
X0209914Y0157466D02*
X0209914Y0160468D01*
X0209914Y0158967D02*
X0214418Y0158967D01*
X0209914Y0146656D02*
X0209914Y0143654D01*
X0214418Y0143654D01*
X0212166Y0143654D02*
X0212166Y0145155D01*
X0232710Y0163050D02*
X0232710Y0167554D01*
X0234962Y0167554D01*
X0235712Y0166803D01*
X0235712Y0165302D01*
X0234962Y0164551D01*
X0232710Y0164551D01*
X0234211Y0164551D02*
X0235712Y0163050D01*
X0237314Y0163801D02*
X0238064Y0163050D01*
X0239566Y0163050D01*
X0240316Y0163801D01*
X0240316Y0165302D01*
X0239566Y0166053D01*
X0238815Y0166053D01*
X0237314Y0165302D01*
X0237314Y0167554D01*
X0240316Y0167554D01*
X0188418Y0148906D02*
X0183914Y0148906D01*
X0186166Y0146654D01*
X0186166Y0149656D01*
X0186166Y0145053D02*
X0184665Y0145053D01*
X0183914Y0144302D01*
X0183914Y0142050D01*
X0188418Y0142050D01*
X0186916Y0142050D02*
X0186916Y0144302D01*
X0186166Y0145053D01*
X0186916Y0143551D02*
X0188418Y0145053D01*
X0180066Y0171950D02*
X0177814Y0171950D01*
X0177814Y0176454D01*
X0180066Y0176454D01*
X0180816Y0175703D01*
X0180816Y0172701D01*
X0180066Y0171950D01*
X0176212Y0171950D02*
X0173210Y0171950D01*
X0173210Y0176454D01*
X0176212Y0176454D01*
X0174711Y0174202D02*
X0173210Y0174202D01*
X0171608Y0171950D02*
X0168606Y0171950D01*
X0168606Y0176454D01*
D16*
X0215468Y0173800D03*
X0243868Y0173800D03*
X0148868Y0088800D03*
X0120468Y0088800D03*
X0120468Y0033800D03*
X0120468Y0018800D03*
X0148868Y0018800D03*
X0148868Y0033800D03*
D17*
X0140168Y0048800D03*
X0129168Y0068800D03*
D18*
X0122918Y0068800D03*
X0122918Y0048800D03*
X0146418Y0048800D03*
X0146418Y0068800D03*
D19*
X0186873Y0108800D02*
X0186877Y0109114D01*
X0186888Y0109428D01*
X0186908Y0109741D01*
X0186935Y0110054D01*
X0186969Y0110366D01*
X0187011Y0110677D01*
X0187061Y0110987D01*
X0187119Y0111296D01*
X0187184Y0111603D01*
X0187256Y0111909D01*
X0187336Y0112213D01*
X0187424Y0112514D01*
X0187519Y0112814D01*
X0187621Y0113111D01*
X0187730Y0113405D01*
X0187847Y0113696D01*
X0187971Y0113985D01*
X0188101Y0114271D01*
X0188239Y0114553D01*
X0188384Y0114832D01*
X0188535Y0115107D01*
X0188693Y0115378D01*
X0188858Y0115645D01*
X0189029Y0115909D01*
X0189207Y0116167D01*
X0189391Y0116422D01*
X0189581Y0116672D01*
X0189777Y0116917D01*
X0189980Y0117157D01*
X0190188Y0117393D01*
X0190401Y0117623D01*
X0190621Y0117847D01*
X0190845Y0118067D01*
X0191075Y0118280D01*
X0191311Y0118488D01*
X0191551Y0118691D01*
X0191796Y0118887D01*
X0192046Y0119077D01*
X0192301Y0119261D01*
X0192559Y0119439D01*
X0192823Y0119610D01*
X0193090Y0119775D01*
X0193361Y0119933D01*
X0193636Y0120084D01*
X0193915Y0120229D01*
X0194197Y0120367D01*
X0194483Y0120497D01*
X0194772Y0120621D01*
X0195063Y0120738D01*
X0195357Y0120847D01*
X0195654Y0120949D01*
X0195954Y0121044D01*
X0196255Y0121132D01*
X0196559Y0121212D01*
X0196865Y0121284D01*
X0197172Y0121349D01*
X0197481Y0121407D01*
X0197791Y0121457D01*
X0198102Y0121499D01*
X0198414Y0121533D01*
X0198727Y0121560D01*
X0199040Y0121580D01*
X0199354Y0121591D01*
X0199668Y0121595D01*
X0199982Y0121591D01*
X0200296Y0121580D01*
X0200609Y0121560D01*
X0200922Y0121533D01*
X0201234Y0121499D01*
X0201545Y0121457D01*
X0201855Y0121407D01*
X0202164Y0121349D01*
X0202471Y0121284D01*
X0202777Y0121212D01*
X0203081Y0121132D01*
X0203382Y0121044D01*
X0203682Y0120949D01*
X0203979Y0120847D01*
X0204273Y0120738D01*
X0204564Y0120621D01*
X0204853Y0120497D01*
X0205139Y0120367D01*
X0205421Y0120229D01*
X0205700Y0120084D01*
X0205975Y0119933D01*
X0206246Y0119775D01*
X0206513Y0119610D01*
X0206777Y0119439D01*
X0207035Y0119261D01*
X0207290Y0119077D01*
X0207540Y0118887D01*
X0207785Y0118691D01*
X0208025Y0118488D01*
X0208261Y0118280D01*
X0208491Y0118067D01*
X0208715Y0117847D01*
X0208935Y0117623D01*
X0209148Y0117393D01*
X0209356Y0117157D01*
X0209559Y0116917D01*
X0209755Y0116672D01*
X0209945Y0116422D01*
X0210129Y0116167D01*
X0210307Y0115909D01*
X0210478Y0115645D01*
X0210643Y0115378D01*
X0210801Y0115107D01*
X0210952Y0114832D01*
X0211097Y0114553D01*
X0211235Y0114271D01*
X0211365Y0113985D01*
X0211489Y0113696D01*
X0211606Y0113405D01*
X0211715Y0113111D01*
X0211817Y0112814D01*
X0211912Y0112514D01*
X0212000Y0112213D01*
X0212080Y0111909D01*
X0212152Y0111603D01*
X0212217Y0111296D01*
X0212275Y0110987D01*
X0212325Y0110677D01*
X0212367Y0110366D01*
X0212401Y0110054D01*
X0212428Y0109741D01*
X0212448Y0109428D01*
X0212459Y0109114D01*
X0212463Y0108800D01*
X0212459Y0108486D01*
X0212448Y0108172D01*
X0212428Y0107859D01*
X0212401Y0107546D01*
X0212367Y0107234D01*
X0212325Y0106923D01*
X0212275Y0106613D01*
X0212217Y0106304D01*
X0212152Y0105997D01*
X0212080Y0105691D01*
X0212000Y0105387D01*
X0211912Y0105086D01*
X0211817Y0104786D01*
X0211715Y0104489D01*
X0211606Y0104195D01*
X0211489Y0103904D01*
X0211365Y0103615D01*
X0211235Y0103329D01*
X0211097Y0103047D01*
X0210952Y0102768D01*
X0210801Y0102493D01*
X0210643Y0102222D01*
X0210478Y0101955D01*
X0210307Y0101691D01*
X0210129Y0101433D01*
X0209945Y0101178D01*
X0209755Y0100928D01*
X0209559Y0100683D01*
X0209356Y0100443D01*
X0209148Y0100207D01*
X0208935Y0099977D01*
X0208715Y0099753D01*
X0208491Y0099533D01*
X0208261Y0099320D01*
X0208025Y0099112D01*
X0207785Y0098909D01*
X0207540Y0098713D01*
X0207290Y0098523D01*
X0207035Y0098339D01*
X0206777Y0098161D01*
X0206513Y0097990D01*
X0206246Y0097825D01*
X0205975Y0097667D01*
X0205700Y0097516D01*
X0205421Y0097371D01*
X0205139Y0097233D01*
X0204853Y0097103D01*
X0204564Y0096979D01*
X0204273Y0096862D01*
X0203979Y0096753D01*
X0203682Y0096651D01*
X0203382Y0096556D01*
X0203081Y0096468D01*
X0202777Y0096388D01*
X0202471Y0096316D01*
X0202164Y0096251D01*
X0201855Y0096193D01*
X0201545Y0096143D01*
X0201234Y0096101D01*
X0200922Y0096067D01*
X0200609Y0096040D01*
X0200296Y0096020D01*
X0199982Y0096009D01*
X0199668Y0096005D01*
X0199354Y0096009D01*
X0199040Y0096020D01*
X0198727Y0096040D01*
X0198414Y0096067D01*
X0198102Y0096101D01*
X0197791Y0096143D01*
X0197481Y0096193D01*
X0197172Y0096251D01*
X0196865Y0096316D01*
X0196559Y0096388D01*
X0196255Y0096468D01*
X0195954Y0096556D01*
X0195654Y0096651D01*
X0195357Y0096753D01*
X0195063Y0096862D01*
X0194772Y0096979D01*
X0194483Y0097103D01*
X0194197Y0097233D01*
X0193915Y0097371D01*
X0193636Y0097516D01*
X0193361Y0097667D01*
X0193090Y0097825D01*
X0192823Y0097990D01*
X0192559Y0098161D01*
X0192301Y0098339D01*
X0192046Y0098523D01*
X0191796Y0098713D01*
X0191551Y0098909D01*
X0191311Y0099112D01*
X0191075Y0099320D01*
X0190845Y0099533D01*
X0190621Y0099753D01*
X0190401Y0099977D01*
X0190188Y0100207D01*
X0189980Y0100443D01*
X0189777Y0100683D01*
X0189581Y0100928D01*
X0189391Y0101178D01*
X0189207Y0101433D01*
X0189029Y0101691D01*
X0188858Y0101955D01*
X0188693Y0102222D01*
X0188535Y0102493D01*
X0188384Y0102768D01*
X0188239Y0103047D01*
X0188101Y0103329D01*
X0187971Y0103615D01*
X0187847Y0103904D01*
X0187730Y0104195D01*
X0187621Y0104489D01*
X0187519Y0104786D01*
X0187424Y0105086D01*
X0187336Y0105387D01*
X0187256Y0105691D01*
X0187184Y0105997D01*
X0187119Y0106304D01*
X0187061Y0106613D01*
X0187011Y0106923D01*
X0186969Y0107234D01*
X0186935Y0107546D01*
X0186908Y0107859D01*
X0186888Y0108172D01*
X0186877Y0108486D01*
X0186873Y0108800D01*
X0204668Y0111300D02*
X0204668Y0116300D01*
X0225620Y0136800D02*
X0233668Y0136800D01*
X0241668Y0140300D02*
X0241668Y0157300D01*
X0233668Y0160800D02*
X0225739Y0160800D01*
X0217668Y0157300D02*
X0217668Y0140300D01*
X0222668Y0148800D02*
X0222670Y0148972D01*
X0222676Y0149143D01*
X0222687Y0149315D01*
X0222702Y0149486D01*
X0222721Y0149657D01*
X0222744Y0149827D01*
X0222771Y0149997D01*
X0222803Y0150166D01*
X0222838Y0150334D01*
X0222878Y0150501D01*
X0222922Y0150667D01*
X0222969Y0150832D01*
X0223021Y0150996D01*
X0223077Y0151158D01*
X0223137Y0151319D01*
X0223201Y0151479D01*
X0223269Y0151637D01*
X0223340Y0151793D01*
X0223415Y0151947D01*
X0223495Y0152100D01*
X0223577Y0152250D01*
X0223664Y0152399D01*
X0223754Y0152545D01*
X0223848Y0152689D01*
X0223945Y0152831D01*
X0224046Y0152970D01*
X0224150Y0153107D01*
X0224257Y0153241D01*
X0224368Y0153372D01*
X0224481Y0153501D01*
X0224598Y0153627D01*
X0224718Y0153750D01*
X0224841Y0153870D01*
X0224967Y0153987D01*
X0225096Y0154100D01*
X0225227Y0154211D01*
X0225361Y0154318D01*
X0225498Y0154422D01*
X0225637Y0154523D01*
X0225779Y0154620D01*
X0225923Y0154714D01*
X0226069Y0154804D01*
X0226218Y0154891D01*
X0226368Y0154973D01*
X0226521Y0155053D01*
X0226675Y0155128D01*
X0226831Y0155199D01*
X0226989Y0155267D01*
X0227149Y0155331D01*
X0227310Y0155391D01*
X0227472Y0155447D01*
X0227636Y0155499D01*
X0227801Y0155546D01*
X0227967Y0155590D01*
X0228134Y0155630D01*
X0228302Y0155665D01*
X0228471Y0155697D01*
X0228641Y0155724D01*
X0228811Y0155747D01*
X0228982Y0155766D01*
X0229153Y0155781D01*
X0229325Y0155792D01*
X0229496Y0155798D01*
X0229668Y0155800D01*
X0229840Y0155798D01*
X0230011Y0155792D01*
X0230183Y0155781D01*
X0230354Y0155766D01*
X0230525Y0155747D01*
X0230695Y0155724D01*
X0230865Y0155697D01*
X0231034Y0155665D01*
X0231202Y0155630D01*
X0231369Y0155590D01*
X0231535Y0155546D01*
X0231700Y0155499D01*
X0231864Y0155447D01*
X0232026Y0155391D01*
X0232187Y0155331D01*
X0232347Y0155267D01*
X0232505Y0155199D01*
X0232661Y0155128D01*
X0232815Y0155053D01*
X0232968Y0154973D01*
X0233118Y0154891D01*
X0233267Y0154804D01*
X0233413Y0154714D01*
X0233557Y0154620D01*
X0233699Y0154523D01*
X0233838Y0154422D01*
X0233975Y0154318D01*
X0234109Y0154211D01*
X0234240Y0154100D01*
X0234369Y0153987D01*
X0234495Y0153870D01*
X0234618Y0153750D01*
X0234738Y0153627D01*
X0234855Y0153501D01*
X0234968Y0153372D01*
X0235079Y0153241D01*
X0235186Y0153107D01*
X0235290Y0152970D01*
X0235391Y0152831D01*
X0235488Y0152689D01*
X0235582Y0152545D01*
X0235672Y0152399D01*
X0235759Y0152250D01*
X0235841Y0152100D01*
X0235921Y0151947D01*
X0235996Y0151793D01*
X0236067Y0151637D01*
X0236135Y0151479D01*
X0236199Y0151319D01*
X0236259Y0151158D01*
X0236315Y0150996D01*
X0236367Y0150832D01*
X0236414Y0150667D01*
X0236458Y0150501D01*
X0236498Y0150334D01*
X0236533Y0150166D01*
X0236565Y0149997D01*
X0236592Y0149827D01*
X0236615Y0149657D01*
X0236634Y0149486D01*
X0236649Y0149315D01*
X0236660Y0149143D01*
X0236666Y0148972D01*
X0236668Y0148800D01*
X0236666Y0148628D01*
X0236660Y0148457D01*
X0236649Y0148285D01*
X0236634Y0148114D01*
X0236615Y0147943D01*
X0236592Y0147773D01*
X0236565Y0147603D01*
X0236533Y0147434D01*
X0236498Y0147266D01*
X0236458Y0147099D01*
X0236414Y0146933D01*
X0236367Y0146768D01*
X0236315Y0146604D01*
X0236259Y0146442D01*
X0236199Y0146281D01*
X0236135Y0146121D01*
X0236067Y0145963D01*
X0235996Y0145807D01*
X0235921Y0145653D01*
X0235841Y0145500D01*
X0235759Y0145350D01*
X0235672Y0145201D01*
X0235582Y0145055D01*
X0235488Y0144911D01*
X0235391Y0144769D01*
X0235290Y0144630D01*
X0235186Y0144493D01*
X0235079Y0144359D01*
X0234968Y0144228D01*
X0234855Y0144099D01*
X0234738Y0143973D01*
X0234618Y0143850D01*
X0234495Y0143730D01*
X0234369Y0143613D01*
X0234240Y0143500D01*
X0234109Y0143389D01*
X0233975Y0143282D01*
X0233838Y0143178D01*
X0233699Y0143077D01*
X0233557Y0142980D01*
X0233413Y0142886D01*
X0233267Y0142796D01*
X0233118Y0142709D01*
X0232968Y0142627D01*
X0232815Y0142547D01*
X0232661Y0142472D01*
X0232505Y0142401D01*
X0232347Y0142333D01*
X0232187Y0142269D01*
X0232026Y0142209D01*
X0231864Y0142153D01*
X0231700Y0142101D01*
X0231535Y0142054D01*
X0231369Y0142010D01*
X0231202Y0141970D01*
X0231034Y0141935D01*
X0230865Y0141903D01*
X0230695Y0141876D01*
X0230525Y0141853D01*
X0230354Y0141834D01*
X0230183Y0141819D01*
X0230011Y0141808D01*
X0229840Y0141802D01*
X0229668Y0141800D01*
X0229496Y0141802D01*
X0229325Y0141808D01*
X0229153Y0141819D01*
X0228982Y0141834D01*
X0228811Y0141853D01*
X0228641Y0141876D01*
X0228471Y0141903D01*
X0228302Y0141935D01*
X0228134Y0141970D01*
X0227967Y0142010D01*
X0227801Y0142054D01*
X0227636Y0142101D01*
X0227472Y0142153D01*
X0227310Y0142209D01*
X0227149Y0142269D01*
X0226989Y0142333D01*
X0226831Y0142401D01*
X0226675Y0142472D01*
X0226521Y0142547D01*
X0226368Y0142627D01*
X0226218Y0142709D01*
X0226069Y0142796D01*
X0225923Y0142886D01*
X0225779Y0142980D01*
X0225637Y0143077D01*
X0225498Y0143178D01*
X0225361Y0143282D01*
X0225227Y0143389D01*
X0225096Y0143500D01*
X0224967Y0143613D01*
X0224841Y0143730D01*
X0224718Y0143850D01*
X0224598Y0143973D01*
X0224481Y0144099D01*
X0224368Y0144228D01*
X0224257Y0144359D01*
X0224150Y0144493D01*
X0224046Y0144630D01*
X0223945Y0144769D01*
X0223848Y0144911D01*
X0223754Y0145055D01*
X0223664Y0145201D01*
X0223577Y0145350D01*
X0223495Y0145500D01*
X0223415Y0145653D01*
X0223340Y0145807D01*
X0223269Y0145963D01*
X0223201Y0146121D01*
X0223137Y0146281D01*
X0223077Y0146442D01*
X0223021Y0146604D01*
X0222969Y0146768D01*
X0222922Y0146933D01*
X0222878Y0147099D01*
X0222838Y0147266D01*
X0222803Y0147434D01*
X0222771Y0147603D01*
X0222744Y0147773D01*
X0222721Y0147943D01*
X0222702Y0148114D01*
X0222687Y0148285D01*
X0222676Y0148457D01*
X0222670Y0148628D01*
X0222668Y0148800D01*
X0239668Y0116300D02*
X0239668Y0111300D01*
X0221873Y0108800D02*
X0221877Y0109114D01*
X0221888Y0109428D01*
X0221908Y0109741D01*
X0221935Y0110054D01*
X0221969Y0110366D01*
X0222011Y0110677D01*
X0222061Y0110987D01*
X0222119Y0111296D01*
X0222184Y0111603D01*
X0222256Y0111909D01*
X0222336Y0112213D01*
X0222424Y0112514D01*
X0222519Y0112814D01*
X0222621Y0113111D01*
X0222730Y0113405D01*
X0222847Y0113696D01*
X0222971Y0113985D01*
X0223101Y0114271D01*
X0223239Y0114553D01*
X0223384Y0114832D01*
X0223535Y0115107D01*
X0223693Y0115378D01*
X0223858Y0115645D01*
X0224029Y0115909D01*
X0224207Y0116167D01*
X0224391Y0116422D01*
X0224581Y0116672D01*
X0224777Y0116917D01*
X0224980Y0117157D01*
X0225188Y0117393D01*
X0225401Y0117623D01*
X0225621Y0117847D01*
X0225845Y0118067D01*
X0226075Y0118280D01*
X0226311Y0118488D01*
X0226551Y0118691D01*
X0226796Y0118887D01*
X0227046Y0119077D01*
X0227301Y0119261D01*
X0227559Y0119439D01*
X0227823Y0119610D01*
X0228090Y0119775D01*
X0228361Y0119933D01*
X0228636Y0120084D01*
X0228915Y0120229D01*
X0229197Y0120367D01*
X0229483Y0120497D01*
X0229772Y0120621D01*
X0230063Y0120738D01*
X0230357Y0120847D01*
X0230654Y0120949D01*
X0230954Y0121044D01*
X0231255Y0121132D01*
X0231559Y0121212D01*
X0231865Y0121284D01*
X0232172Y0121349D01*
X0232481Y0121407D01*
X0232791Y0121457D01*
X0233102Y0121499D01*
X0233414Y0121533D01*
X0233727Y0121560D01*
X0234040Y0121580D01*
X0234354Y0121591D01*
X0234668Y0121595D01*
X0234982Y0121591D01*
X0235296Y0121580D01*
X0235609Y0121560D01*
X0235922Y0121533D01*
X0236234Y0121499D01*
X0236545Y0121457D01*
X0236855Y0121407D01*
X0237164Y0121349D01*
X0237471Y0121284D01*
X0237777Y0121212D01*
X0238081Y0121132D01*
X0238382Y0121044D01*
X0238682Y0120949D01*
X0238979Y0120847D01*
X0239273Y0120738D01*
X0239564Y0120621D01*
X0239853Y0120497D01*
X0240139Y0120367D01*
X0240421Y0120229D01*
X0240700Y0120084D01*
X0240975Y0119933D01*
X0241246Y0119775D01*
X0241513Y0119610D01*
X0241777Y0119439D01*
X0242035Y0119261D01*
X0242290Y0119077D01*
X0242540Y0118887D01*
X0242785Y0118691D01*
X0243025Y0118488D01*
X0243261Y0118280D01*
X0243491Y0118067D01*
X0243715Y0117847D01*
X0243935Y0117623D01*
X0244148Y0117393D01*
X0244356Y0117157D01*
X0244559Y0116917D01*
X0244755Y0116672D01*
X0244945Y0116422D01*
X0245129Y0116167D01*
X0245307Y0115909D01*
X0245478Y0115645D01*
X0245643Y0115378D01*
X0245801Y0115107D01*
X0245952Y0114832D01*
X0246097Y0114553D01*
X0246235Y0114271D01*
X0246365Y0113985D01*
X0246489Y0113696D01*
X0246606Y0113405D01*
X0246715Y0113111D01*
X0246817Y0112814D01*
X0246912Y0112514D01*
X0247000Y0112213D01*
X0247080Y0111909D01*
X0247152Y0111603D01*
X0247217Y0111296D01*
X0247275Y0110987D01*
X0247325Y0110677D01*
X0247367Y0110366D01*
X0247401Y0110054D01*
X0247428Y0109741D01*
X0247448Y0109428D01*
X0247459Y0109114D01*
X0247463Y0108800D01*
X0247459Y0108486D01*
X0247448Y0108172D01*
X0247428Y0107859D01*
X0247401Y0107546D01*
X0247367Y0107234D01*
X0247325Y0106923D01*
X0247275Y0106613D01*
X0247217Y0106304D01*
X0247152Y0105997D01*
X0247080Y0105691D01*
X0247000Y0105387D01*
X0246912Y0105086D01*
X0246817Y0104786D01*
X0246715Y0104489D01*
X0246606Y0104195D01*
X0246489Y0103904D01*
X0246365Y0103615D01*
X0246235Y0103329D01*
X0246097Y0103047D01*
X0245952Y0102768D01*
X0245801Y0102493D01*
X0245643Y0102222D01*
X0245478Y0101955D01*
X0245307Y0101691D01*
X0245129Y0101433D01*
X0244945Y0101178D01*
X0244755Y0100928D01*
X0244559Y0100683D01*
X0244356Y0100443D01*
X0244148Y0100207D01*
X0243935Y0099977D01*
X0243715Y0099753D01*
X0243491Y0099533D01*
X0243261Y0099320D01*
X0243025Y0099112D01*
X0242785Y0098909D01*
X0242540Y0098713D01*
X0242290Y0098523D01*
X0242035Y0098339D01*
X0241777Y0098161D01*
X0241513Y0097990D01*
X0241246Y0097825D01*
X0240975Y0097667D01*
X0240700Y0097516D01*
X0240421Y0097371D01*
X0240139Y0097233D01*
X0239853Y0097103D01*
X0239564Y0096979D01*
X0239273Y0096862D01*
X0238979Y0096753D01*
X0238682Y0096651D01*
X0238382Y0096556D01*
X0238081Y0096468D01*
X0237777Y0096388D01*
X0237471Y0096316D01*
X0237164Y0096251D01*
X0236855Y0096193D01*
X0236545Y0096143D01*
X0236234Y0096101D01*
X0235922Y0096067D01*
X0235609Y0096040D01*
X0235296Y0096020D01*
X0234982Y0096009D01*
X0234668Y0096005D01*
X0234354Y0096009D01*
X0234040Y0096020D01*
X0233727Y0096040D01*
X0233414Y0096067D01*
X0233102Y0096101D01*
X0232791Y0096143D01*
X0232481Y0096193D01*
X0232172Y0096251D01*
X0231865Y0096316D01*
X0231559Y0096388D01*
X0231255Y0096468D01*
X0230954Y0096556D01*
X0230654Y0096651D01*
X0230357Y0096753D01*
X0230063Y0096862D01*
X0229772Y0096979D01*
X0229483Y0097103D01*
X0229197Y0097233D01*
X0228915Y0097371D01*
X0228636Y0097516D01*
X0228361Y0097667D01*
X0228090Y0097825D01*
X0227823Y0097990D01*
X0227559Y0098161D01*
X0227301Y0098339D01*
X0227046Y0098523D01*
X0226796Y0098713D01*
X0226551Y0098909D01*
X0226311Y0099112D01*
X0226075Y0099320D01*
X0225845Y0099533D01*
X0225621Y0099753D01*
X0225401Y0099977D01*
X0225188Y0100207D01*
X0224980Y0100443D01*
X0224777Y0100683D01*
X0224581Y0100928D01*
X0224391Y0101178D01*
X0224207Y0101433D01*
X0224029Y0101691D01*
X0223858Y0101955D01*
X0223693Y0102222D01*
X0223535Y0102493D01*
X0223384Y0102768D01*
X0223239Y0103047D01*
X0223101Y0103329D01*
X0222971Y0103615D01*
X0222847Y0103904D01*
X0222730Y0104195D01*
X0222621Y0104489D01*
X0222519Y0104786D01*
X0222424Y0105086D01*
X0222336Y0105387D01*
X0222256Y0105691D01*
X0222184Y0105997D01*
X0222119Y0106304D01*
X0222061Y0106613D01*
X0222011Y0106923D01*
X0221969Y0107234D01*
X0221935Y0107546D01*
X0221908Y0107859D01*
X0221888Y0108172D01*
X0221877Y0108486D01*
X0221873Y0108800D01*
X0177168Y0168800D02*
X0162168Y0168800D01*
X0083762Y0168800D02*
X0083764Y0168953D01*
X0083770Y0169107D01*
X0083780Y0169260D01*
X0083794Y0169412D01*
X0083812Y0169565D01*
X0083834Y0169716D01*
X0083859Y0169867D01*
X0083889Y0170018D01*
X0083923Y0170168D01*
X0083960Y0170316D01*
X0084001Y0170464D01*
X0084046Y0170610D01*
X0084095Y0170756D01*
X0084148Y0170900D01*
X0084204Y0171042D01*
X0084264Y0171183D01*
X0084328Y0171323D01*
X0084395Y0171461D01*
X0084466Y0171597D01*
X0084541Y0171731D01*
X0084618Y0171863D01*
X0084700Y0171993D01*
X0084784Y0172121D01*
X0084872Y0172247D01*
X0084963Y0172370D01*
X0085057Y0172491D01*
X0085155Y0172609D01*
X0085255Y0172725D01*
X0085359Y0172838D01*
X0085465Y0172949D01*
X0085574Y0173057D01*
X0085686Y0173162D01*
X0085800Y0173263D01*
X0085918Y0173362D01*
X0086037Y0173458D01*
X0086159Y0173551D01*
X0086284Y0173640D01*
X0086411Y0173727D01*
X0086540Y0173809D01*
X0086671Y0173889D01*
X0086804Y0173965D01*
X0086939Y0174038D01*
X0087076Y0174107D01*
X0087215Y0174172D01*
X0087355Y0174234D01*
X0087497Y0174292D01*
X0087640Y0174347D01*
X0087785Y0174398D01*
X0087931Y0174445D01*
X0088078Y0174488D01*
X0088226Y0174527D01*
X0088375Y0174563D01*
X0088525Y0174594D01*
X0088676Y0174622D01*
X0088827Y0174646D01*
X0088980Y0174666D01*
X0089132Y0174682D01*
X0089285Y0174694D01*
X0089438Y0174702D01*
X0089591Y0174706D01*
X0089745Y0174706D01*
X0089898Y0174702D01*
X0090051Y0174694D01*
X0090204Y0174682D01*
X0090356Y0174666D01*
X0090509Y0174646D01*
X0090660Y0174622D01*
X0090811Y0174594D01*
X0090961Y0174563D01*
X0091110Y0174527D01*
X0091258Y0174488D01*
X0091405Y0174445D01*
X0091551Y0174398D01*
X0091696Y0174347D01*
X0091839Y0174292D01*
X0091981Y0174234D01*
X0092121Y0174172D01*
X0092260Y0174107D01*
X0092397Y0174038D01*
X0092532Y0173965D01*
X0092665Y0173889D01*
X0092796Y0173809D01*
X0092925Y0173727D01*
X0093052Y0173640D01*
X0093177Y0173551D01*
X0093299Y0173458D01*
X0093418Y0173362D01*
X0093536Y0173263D01*
X0093650Y0173162D01*
X0093762Y0173057D01*
X0093871Y0172949D01*
X0093977Y0172838D01*
X0094081Y0172725D01*
X0094181Y0172609D01*
X0094279Y0172491D01*
X0094373Y0172370D01*
X0094464Y0172247D01*
X0094552Y0172121D01*
X0094636Y0171993D01*
X0094718Y0171863D01*
X0094795Y0171731D01*
X0094870Y0171597D01*
X0094941Y0171461D01*
X0095008Y0171323D01*
X0095072Y0171183D01*
X0095132Y0171042D01*
X0095188Y0170900D01*
X0095241Y0170756D01*
X0095290Y0170610D01*
X0095335Y0170464D01*
X0095376Y0170316D01*
X0095413Y0170168D01*
X0095447Y0170018D01*
X0095477Y0169867D01*
X0095502Y0169716D01*
X0095524Y0169565D01*
X0095542Y0169412D01*
X0095556Y0169260D01*
X0095566Y0169107D01*
X0095572Y0168953D01*
X0095574Y0168800D01*
X0095572Y0168647D01*
X0095566Y0168493D01*
X0095556Y0168340D01*
X0095542Y0168188D01*
X0095524Y0168035D01*
X0095502Y0167884D01*
X0095477Y0167733D01*
X0095447Y0167582D01*
X0095413Y0167432D01*
X0095376Y0167284D01*
X0095335Y0167136D01*
X0095290Y0166990D01*
X0095241Y0166844D01*
X0095188Y0166700D01*
X0095132Y0166558D01*
X0095072Y0166417D01*
X0095008Y0166277D01*
X0094941Y0166139D01*
X0094870Y0166003D01*
X0094795Y0165869D01*
X0094718Y0165737D01*
X0094636Y0165607D01*
X0094552Y0165479D01*
X0094464Y0165353D01*
X0094373Y0165230D01*
X0094279Y0165109D01*
X0094181Y0164991D01*
X0094081Y0164875D01*
X0093977Y0164762D01*
X0093871Y0164651D01*
X0093762Y0164543D01*
X0093650Y0164438D01*
X0093536Y0164337D01*
X0093418Y0164238D01*
X0093299Y0164142D01*
X0093177Y0164049D01*
X0093052Y0163960D01*
X0092925Y0163873D01*
X0092796Y0163791D01*
X0092665Y0163711D01*
X0092532Y0163635D01*
X0092397Y0163562D01*
X0092260Y0163493D01*
X0092121Y0163428D01*
X0091981Y0163366D01*
X0091839Y0163308D01*
X0091696Y0163253D01*
X0091551Y0163202D01*
X0091405Y0163155D01*
X0091258Y0163112D01*
X0091110Y0163073D01*
X0090961Y0163037D01*
X0090811Y0163006D01*
X0090660Y0162978D01*
X0090509Y0162954D01*
X0090356Y0162934D01*
X0090204Y0162918D01*
X0090051Y0162906D01*
X0089898Y0162898D01*
X0089745Y0162894D01*
X0089591Y0162894D01*
X0089438Y0162898D01*
X0089285Y0162906D01*
X0089132Y0162918D01*
X0088980Y0162934D01*
X0088827Y0162954D01*
X0088676Y0162978D01*
X0088525Y0163006D01*
X0088375Y0163037D01*
X0088226Y0163073D01*
X0088078Y0163112D01*
X0087931Y0163155D01*
X0087785Y0163202D01*
X0087640Y0163253D01*
X0087497Y0163308D01*
X0087355Y0163366D01*
X0087215Y0163428D01*
X0087076Y0163493D01*
X0086939Y0163562D01*
X0086804Y0163635D01*
X0086671Y0163711D01*
X0086540Y0163791D01*
X0086411Y0163873D01*
X0086284Y0163960D01*
X0086159Y0164049D01*
X0086037Y0164142D01*
X0085918Y0164238D01*
X0085800Y0164337D01*
X0085686Y0164438D01*
X0085574Y0164543D01*
X0085465Y0164651D01*
X0085359Y0164762D01*
X0085255Y0164875D01*
X0085155Y0164991D01*
X0085057Y0165109D01*
X0084963Y0165230D01*
X0084872Y0165353D01*
X0084784Y0165479D01*
X0084700Y0165607D01*
X0084618Y0165737D01*
X0084541Y0165869D01*
X0084466Y0166003D01*
X0084395Y0166139D01*
X0084328Y0166277D01*
X0084264Y0166417D01*
X0084204Y0166558D01*
X0084148Y0166700D01*
X0084095Y0166844D01*
X0084046Y0166990D01*
X0084001Y0167136D01*
X0083960Y0167284D01*
X0083923Y0167432D01*
X0083889Y0167582D01*
X0083859Y0167733D01*
X0083834Y0167884D01*
X0083812Y0168035D01*
X0083794Y0168188D01*
X0083780Y0168340D01*
X0083770Y0168493D01*
X0083764Y0168647D01*
X0083762Y0168800D01*
X0063605Y0062422D02*
X0059668Y0062422D01*
X0059668Y0015178D01*
X0063605Y0015178D01*
X0075416Y0023052D02*
X0075416Y0054548D01*
X0228762Y0028800D02*
X0228764Y0028953D01*
X0228770Y0029107D01*
X0228780Y0029260D01*
X0228794Y0029412D01*
X0228812Y0029565D01*
X0228834Y0029716D01*
X0228859Y0029867D01*
X0228889Y0030018D01*
X0228923Y0030168D01*
X0228960Y0030316D01*
X0229001Y0030464D01*
X0229046Y0030610D01*
X0229095Y0030756D01*
X0229148Y0030900D01*
X0229204Y0031042D01*
X0229264Y0031183D01*
X0229328Y0031323D01*
X0229395Y0031461D01*
X0229466Y0031597D01*
X0229541Y0031731D01*
X0229618Y0031863D01*
X0229700Y0031993D01*
X0229784Y0032121D01*
X0229872Y0032247D01*
X0229963Y0032370D01*
X0230057Y0032491D01*
X0230155Y0032609D01*
X0230255Y0032725D01*
X0230359Y0032838D01*
X0230465Y0032949D01*
X0230574Y0033057D01*
X0230686Y0033162D01*
X0230800Y0033263D01*
X0230918Y0033362D01*
X0231037Y0033458D01*
X0231159Y0033551D01*
X0231284Y0033640D01*
X0231411Y0033727D01*
X0231540Y0033809D01*
X0231671Y0033889D01*
X0231804Y0033965D01*
X0231939Y0034038D01*
X0232076Y0034107D01*
X0232215Y0034172D01*
X0232355Y0034234D01*
X0232497Y0034292D01*
X0232640Y0034347D01*
X0232785Y0034398D01*
X0232931Y0034445D01*
X0233078Y0034488D01*
X0233226Y0034527D01*
X0233375Y0034563D01*
X0233525Y0034594D01*
X0233676Y0034622D01*
X0233827Y0034646D01*
X0233980Y0034666D01*
X0234132Y0034682D01*
X0234285Y0034694D01*
X0234438Y0034702D01*
X0234591Y0034706D01*
X0234745Y0034706D01*
X0234898Y0034702D01*
X0235051Y0034694D01*
X0235204Y0034682D01*
X0235356Y0034666D01*
X0235509Y0034646D01*
X0235660Y0034622D01*
X0235811Y0034594D01*
X0235961Y0034563D01*
X0236110Y0034527D01*
X0236258Y0034488D01*
X0236405Y0034445D01*
X0236551Y0034398D01*
X0236696Y0034347D01*
X0236839Y0034292D01*
X0236981Y0034234D01*
X0237121Y0034172D01*
X0237260Y0034107D01*
X0237397Y0034038D01*
X0237532Y0033965D01*
X0237665Y0033889D01*
X0237796Y0033809D01*
X0237925Y0033727D01*
X0238052Y0033640D01*
X0238177Y0033551D01*
X0238299Y0033458D01*
X0238418Y0033362D01*
X0238536Y0033263D01*
X0238650Y0033162D01*
X0238762Y0033057D01*
X0238871Y0032949D01*
X0238977Y0032838D01*
X0239081Y0032725D01*
X0239181Y0032609D01*
X0239279Y0032491D01*
X0239373Y0032370D01*
X0239464Y0032247D01*
X0239552Y0032121D01*
X0239636Y0031993D01*
X0239718Y0031863D01*
X0239795Y0031731D01*
X0239870Y0031597D01*
X0239941Y0031461D01*
X0240008Y0031323D01*
X0240072Y0031183D01*
X0240132Y0031042D01*
X0240188Y0030900D01*
X0240241Y0030756D01*
X0240290Y0030610D01*
X0240335Y0030464D01*
X0240376Y0030316D01*
X0240413Y0030168D01*
X0240447Y0030018D01*
X0240477Y0029867D01*
X0240502Y0029716D01*
X0240524Y0029565D01*
X0240542Y0029412D01*
X0240556Y0029260D01*
X0240566Y0029107D01*
X0240572Y0028953D01*
X0240574Y0028800D01*
X0240572Y0028647D01*
X0240566Y0028493D01*
X0240556Y0028340D01*
X0240542Y0028188D01*
X0240524Y0028035D01*
X0240502Y0027884D01*
X0240477Y0027733D01*
X0240447Y0027582D01*
X0240413Y0027432D01*
X0240376Y0027284D01*
X0240335Y0027136D01*
X0240290Y0026990D01*
X0240241Y0026844D01*
X0240188Y0026700D01*
X0240132Y0026558D01*
X0240072Y0026417D01*
X0240008Y0026277D01*
X0239941Y0026139D01*
X0239870Y0026003D01*
X0239795Y0025869D01*
X0239718Y0025737D01*
X0239636Y0025607D01*
X0239552Y0025479D01*
X0239464Y0025353D01*
X0239373Y0025230D01*
X0239279Y0025109D01*
X0239181Y0024991D01*
X0239081Y0024875D01*
X0238977Y0024762D01*
X0238871Y0024651D01*
X0238762Y0024543D01*
X0238650Y0024438D01*
X0238536Y0024337D01*
X0238418Y0024238D01*
X0238299Y0024142D01*
X0238177Y0024049D01*
X0238052Y0023960D01*
X0237925Y0023873D01*
X0237796Y0023791D01*
X0237665Y0023711D01*
X0237532Y0023635D01*
X0237397Y0023562D01*
X0237260Y0023493D01*
X0237121Y0023428D01*
X0236981Y0023366D01*
X0236839Y0023308D01*
X0236696Y0023253D01*
X0236551Y0023202D01*
X0236405Y0023155D01*
X0236258Y0023112D01*
X0236110Y0023073D01*
X0235961Y0023037D01*
X0235811Y0023006D01*
X0235660Y0022978D01*
X0235509Y0022954D01*
X0235356Y0022934D01*
X0235204Y0022918D01*
X0235051Y0022906D01*
X0234898Y0022898D01*
X0234745Y0022894D01*
X0234591Y0022894D01*
X0234438Y0022898D01*
X0234285Y0022906D01*
X0234132Y0022918D01*
X0233980Y0022934D01*
X0233827Y0022954D01*
X0233676Y0022978D01*
X0233525Y0023006D01*
X0233375Y0023037D01*
X0233226Y0023073D01*
X0233078Y0023112D01*
X0232931Y0023155D01*
X0232785Y0023202D01*
X0232640Y0023253D01*
X0232497Y0023308D01*
X0232355Y0023366D01*
X0232215Y0023428D01*
X0232076Y0023493D01*
X0231939Y0023562D01*
X0231804Y0023635D01*
X0231671Y0023711D01*
X0231540Y0023791D01*
X0231411Y0023873D01*
X0231284Y0023960D01*
X0231159Y0024049D01*
X0231037Y0024142D01*
X0230918Y0024238D01*
X0230800Y0024337D01*
X0230686Y0024438D01*
X0230574Y0024543D01*
X0230465Y0024651D01*
X0230359Y0024762D01*
X0230255Y0024875D01*
X0230155Y0024991D01*
X0230057Y0025109D01*
X0229963Y0025230D01*
X0229872Y0025353D01*
X0229784Y0025479D01*
X0229700Y0025607D01*
X0229618Y0025737D01*
X0229541Y0025869D01*
X0229466Y0026003D01*
X0229395Y0026139D01*
X0229328Y0026277D01*
X0229264Y0026417D01*
X0229204Y0026558D01*
X0229148Y0026700D01*
X0229095Y0026844D01*
X0229046Y0026990D01*
X0229001Y0027136D01*
X0228960Y0027284D01*
X0228923Y0027432D01*
X0228889Y0027582D01*
X0228859Y0027733D01*
X0228834Y0027884D01*
X0228812Y0028035D01*
X0228794Y0028188D01*
X0228780Y0028340D01*
X0228770Y0028493D01*
X0228764Y0028647D01*
X0228762Y0028800D01*
D20*
X0241467Y0108903D02*
X0242468Y0108903D01*
X0242718Y0109154D01*
X0242718Y0109654D01*
X0242468Y0109904D01*
X0242718Y0110377D02*
X0242718Y0111378D01*
X0242718Y0110877D02*
X0241216Y0110877D01*
X0241717Y0110377D01*
X0241467Y0109904D02*
X0241216Y0109654D01*
X0241216Y0109154D01*
X0241467Y0108903D01*
X0207718Y0109154D02*
X0207718Y0109654D01*
X0207468Y0109904D01*
X0207718Y0110377D02*
X0206717Y0111378D01*
X0206467Y0111378D01*
X0206216Y0111127D01*
X0206216Y0110627D01*
X0206467Y0110377D01*
X0206467Y0109904D02*
X0206216Y0109654D01*
X0206216Y0109154D01*
X0206467Y0108903D01*
X0207468Y0108903D01*
X0207718Y0109154D01*
X0207718Y0110377D02*
X0207718Y0111378D01*
X0161859Y0169129D02*
X0162399Y0168409D01*
X0162398Y0168410D02*
X0162165Y0168229D01*
X0161937Y0168043D01*
X0161713Y0167851D01*
X0161494Y0167654D01*
X0161280Y0167452D01*
X0161071Y0167244D01*
X0160868Y0167031D01*
X0160669Y0166814D01*
X0160476Y0166591D01*
X0160288Y0166364D01*
X0160106Y0166133D01*
X0159929Y0165897D01*
X0159759Y0165656D01*
X0159594Y0165412D01*
X0159436Y0165164D01*
X0159283Y0164912D01*
X0159137Y0164656D01*
X0158997Y0164397D01*
X0158863Y0164134D01*
X0158736Y0163869D01*
X0158615Y0163600D01*
X0158501Y0163328D01*
X0158394Y0163054D01*
X0158293Y0162777D01*
X0158199Y0162498D01*
X0158112Y0162216D01*
X0158032Y0161933D01*
X0157959Y0161647D01*
X0157893Y0161360D01*
X0157834Y0161071D01*
X0157782Y0160781D01*
X0157737Y0160490D01*
X0157699Y0160198D01*
X0157669Y0159905D01*
X0157645Y0159611D01*
X0157629Y0159317D01*
X0157620Y0159023D01*
X0157618Y0158728D01*
X0157624Y0158433D01*
X0157636Y0158139D01*
X0157656Y0157845D01*
X0157683Y0157552D01*
X0157717Y0157259D01*
X0157758Y0156967D01*
X0157807Y0156677D01*
X0157862Y0156387D01*
X0157924Y0156100D01*
X0157994Y0155813D01*
X0158071Y0155529D01*
X0158154Y0155246D01*
X0158244Y0154966D01*
X0158341Y0154688D01*
X0158445Y0154412D01*
X0158556Y0154139D01*
X0158673Y0153869D01*
X0158797Y0153601D01*
X0158927Y0153337D01*
X0159064Y0153076D01*
X0159207Y0152819D01*
X0159357Y0152565D01*
X0159512Y0152314D01*
X0159674Y0152068D01*
X0159841Y0151826D01*
X0160015Y0151588D01*
X0160194Y0151354D01*
X0160379Y0151124D01*
X0160569Y0150900D01*
X0160765Y0150679D01*
X0160966Y0150464D01*
X0161173Y0150254D01*
X0161384Y0150049D01*
X0161601Y0149849D01*
X0161822Y0149654D01*
X0162048Y0149465D01*
X0162278Y0149282D01*
X0162513Y0149104D01*
X0162753Y0148932D01*
X0162996Y0148766D01*
X0163243Y0148606D01*
X0163494Y0148452D01*
X0163749Y0148304D01*
X0164008Y0148162D01*
X0164269Y0148027D01*
X0164534Y0147898D01*
X0164802Y0147776D01*
X0165073Y0147660D01*
X0165347Y0147551D01*
X0165623Y0147449D01*
X0165902Y0147354D01*
X0166183Y0147265D01*
X0166466Y0147183D01*
X0166751Y0147108D01*
X0167038Y0147041D01*
X0167326Y0146980D01*
X0167616Y0146926D01*
X0167907Y0146879D01*
X0168199Y0146840D01*
X0168491Y0146808D01*
X0168785Y0146782D01*
X0169079Y0146764D01*
X0169373Y0146754D01*
X0169668Y0146750D01*
X0169963Y0146754D01*
X0170257Y0146764D01*
X0170551Y0146782D01*
X0170845Y0146808D01*
X0171137Y0146840D01*
X0171429Y0146879D01*
X0171720Y0146926D01*
X0172010Y0146980D01*
X0172298Y0147041D01*
X0172585Y0147108D01*
X0172870Y0147183D01*
X0173153Y0147265D01*
X0173434Y0147354D01*
X0173713Y0147449D01*
X0173989Y0147551D01*
X0174263Y0147660D01*
X0174534Y0147776D01*
X0174802Y0147898D01*
X0175067Y0148027D01*
X0175328Y0148162D01*
X0175587Y0148304D01*
X0175842Y0148452D01*
X0176093Y0148606D01*
X0176340Y0148766D01*
X0176583Y0148932D01*
X0176823Y0149104D01*
X0177058Y0149282D01*
X0177288Y0149465D01*
X0177514Y0149654D01*
X0177735Y0149849D01*
X0177952Y0150049D01*
X0178163Y0150254D01*
X0178370Y0150464D01*
X0178571Y0150679D01*
X0178767Y0150900D01*
X0178957Y0151124D01*
X0179142Y0151354D01*
X0179321Y0151588D01*
X0179495Y0151826D01*
X0179662Y0152068D01*
X0179824Y0152314D01*
X0179979Y0152565D01*
X0180129Y0152819D01*
X0180272Y0153076D01*
X0180409Y0153337D01*
X0180539Y0153601D01*
X0180663Y0153869D01*
X0180780Y0154139D01*
X0180891Y0154412D01*
X0180995Y0154688D01*
X0181092Y0154966D01*
X0181182Y0155246D01*
X0181265Y0155529D01*
X0181342Y0155813D01*
X0181412Y0156100D01*
X0181474Y0156387D01*
X0181529Y0156677D01*
X0181578Y0156967D01*
X0181619Y0157259D01*
X0181653Y0157552D01*
X0181680Y0157845D01*
X0181700Y0158139D01*
X0181712Y0158433D01*
X0181718Y0158728D01*
X0181716Y0159023D01*
X0181707Y0159317D01*
X0181691Y0159611D01*
X0181667Y0159905D01*
X0181637Y0160198D01*
X0181599Y0160490D01*
X0181554Y0160781D01*
X0181502Y0161071D01*
X0181443Y0161360D01*
X0181377Y0161647D01*
X0181304Y0161933D01*
X0181224Y0162216D01*
X0181137Y0162498D01*
X0181043Y0162777D01*
X0180942Y0163054D01*
X0180835Y0163328D01*
X0180721Y0163600D01*
X0180600Y0163869D01*
X0180473Y0164134D01*
X0180339Y0164397D01*
X0180199Y0164656D01*
X0180053Y0164912D01*
X0179900Y0165164D01*
X0179742Y0165412D01*
X0179577Y0165656D01*
X0179407Y0165897D01*
X0179230Y0166133D01*
X0179048Y0166364D01*
X0178860Y0166591D01*
X0178667Y0166814D01*
X0178468Y0167031D01*
X0178265Y0167244D01*
X0178056Y0167452D01*
X0177842Y0167654D01*
X0177623Y0167851D01*
X0177399Y0168043D01*
X0177171Y0168229D01*
X0176938Y0168410D01*
X0177477Y0169129D01*
X0177478Y0169130D01*
X0177728Y0168936D01*
X0177974Y0168736D01*
X0178214Y0168530D01*
X0178449Y0168318D01*
X0178679Y0168100D01*
X0178904Y0167877D01*
X0179123Y0167649D01*
X0179337Y0167415D01*
X0179545Y0167176D01*
X0179747Y0166932D01*
X0179942Y0166683D01*
X0180132Y0166429D01*
X0180315Y0166171D01*
X0180492Y0165909D01*
X0180663Y0165642D01*
X0180827Y0165371D01*
X0180984Y0165096D01*
X0181135Y0164818D01*
X0181279Y0164535D01*
X0181415Y0164250D01*
X0181545Y0163961D01*
X0181668Y0163669D01*
X0181783Y0163374D01*
X0181891Y0163077D01*
X0181992Y0162776D01*
X0182086Y0162474D01*
X0182172Y0162169D01*
X0182251Y0161862D01*
X0182322Y0161554D01*
X0182385Y0161244D01*
X0182441Y0160932D01*
X0182490Y0160619D01*
X0182530Y0160305D01*
X0182563Y0159990D01*
X0182588Y0159674D01*
X0182606Y0159358D01*
X0182616Y0159042D01*
X0182618Y0158725D01*
X0182612Y0158408D01*
X0182599Y0158092D01*
X0182577Y0157776D01*
X0182549Y0157461D01*
X0182512Y0157146D01*
X0182468Y0156833D01*
X0182416Y0156520D01*
X0182356Y0156209D01*
X0182289Y0155900D01*
X0182214Y0155592D01*
X0182132Y0155286D01*
X0182043Y0154983D01*
X0181946Y0154681D01*
X0181841Y0154382D01*
X0181729Y0154086D01*
X0181611Y0153792D01*
X0181485Y0153502D01*
X0181352Y0153215D01*
X0181211Y0152930D01*
X0181064Y0152650D01*
X0180911Y0152373D01*
X0180750Y0152100D01*
X0180583Y0151831D01*
X0180409Y0151566D01*
X0180229Y0151306D01*
X0180043Y0151050D01*
X0179850Y0150799D01*
X0179652Y0150552D01*
X0179447Y0150310D01*
X0179237Y0150074D01*
X0179020Y0149842D01*
X0178798Y0149617D01*
X0178571Y0149396D01*
X0178339Y0149181D01*
X0178101Y0148972D01*
X0177858Y0148769D01*
X0177610Y0148571D01*
X0177358Y0148380D01*
X0177101Y0148195D01*
X0176839Y0148017D01*
X0176573Y0147845D01*
X0176304Y0147679D01*
X0176030Y0147520D01*
X0175752Y0147368D01*
X0175471Y0147223D01*
X0175186Y0147084D01*
X0174898Y0146953D01*
X0174606Y0146829D01*
X0174312Y0146711D01*
X0174015Y0146601D01*
X0173716Y0146499D01*
X0173414Y0146404D01*
X0173110Y0146316D01*
X0172803Y0146235D01*
X0172495Y0146162D01*
X0172185Y0146097D01*
X0171874Y0146039D01*
X0171561Y0145989D01*
X0171247Y0145947D01*
X0170933Y0145912D01*
X0170617Y0145885D01*
X0170301Y0145865D01*
X0169985Y0145854D01*
X0169668Y0145850D01*
X0169351Y0145854D01*
X0169035Y0145865D01*
X0168719Y0145885D01*
X0168403Y0145912D01*
X0168089Y0145947D01*
X0167775Y0145989D01*
X0167462Y0146039D01*
X0167151Y0146097D01*
X0166841Y0146162D01*
X0166533Y0146235D01*
X0166226Y0146316D01*
X0165922Y0146404D01*
X0165620Y0146499D01*
X0165321Y0146601D01*
X0165024Y0146711D01*
X0164730Y0146829D01*
X0164438Y0146953D01*
X0164150Y0147084D01*
X0163865Y0147223D01*
X0163584Y0147368D01*
X0163306Y0147520D01*
X0163032Y0147679D01*
X0162763Y0147845D01*
X0162497Y0148017D01*
X0162235Y0148195D01*
X0161978Y0148380D01*
X0161726Y0148571D01*
X0161478Y0148769D01*
X0161235Y0148972D01*
X0160997Y0149181D01*
X0160765Y0149396D01*
X0160538Y0149617D01*
X0160316Y0149842D01*
X0160099Y0150074D01*
X0159889Y0150310D01*
X0159684Y0150552D01*
X0159486Y0150799D01*
X0159293Y0151050D01*
X0159107Y0151306D01*
X0158927Y0151566D01*
X0158753Y0151831D01*
X0158586Y0152100D01*
X0158425Y0152373D01*
X0158272Y0152650D01*
X0158125Y0152930D01*
X0157984Y0153215D01*
X0157851Y0153502D01*
X0157725Y0153792D01*
X0157607Y0154086D01*
X0157495Y0154382D01*
X0157390Y0154681D01*
X0157293Y0154983D01*
X0157204Y0155286D01*
X0157122Y0155592D01*
X0157047Y0155900D01*
X0156980Y0156209D01*
X0156920Y0156520D01*
X0156868Y0156833D01*
X0156824Y0157146D01*
X0156787Y0157461D01*
X0156759Y0157776D01*
X0156737Y0158092D01*
X0156724Y0158408D01*
X0156718Y0158725D01*
X0156720Y0159042D01*
X0156730Y0159358D01*
X0156748Y0159674D01*
X0156773Y0159990D01*
X0156806Y0160305D01*
X0156846Y0160619D01*
X0156895Y0160932D01*
X0156951Y0161244D01*
X0157014Y0161554D01*
X0157085Y0161862D01*
X0157164Y0162169D01*
X0157250Y0162474D01*
X0157344Y0162776D01*
X0157445Y0163077D01*
X0157553Y0163374D01*
X0157668Y0163669D01*
X0157791Y0163961D01*
X0157921Y0164250D01*
X0158057Y0164535D01*
X0158201Y0164818D01*
X0158352Y0165096D01*
X0158509Y0165371D01*
X0158673Y0165642D01*
X0158844Y0165909D01*
X0159021Y0166171D01*
X0159204Y0166429D01*
X0159394Y0166683D01*
X0159589Y0166932D01*
X0159791Y0167176D01*
X0159999Y0167415D01*
X0160213Y0167649D01*
X0160432Y0167877D01*
X0160657Y0168100D01*
X0160887Y0168318D01*
X0161122Y0168530D01*
X0161362Y0168736D01*
X0161608Y0168936D01*
X0161858Y0169130D01*
X0161914Y0169055D01*
X0161666Y0168862D01*
X0161422Y0168663D01*
X0161184Y0168459D01*
X0160950Y0168249D01*
X0160722Y0168033D01*
X0160499Y0167811D01*
X0160281Y0167584D01*
X0160069Y0167352D01*
X0159863Y0167115D01*
X0159662Y0166873D01*
X0159468Y0166625D01*
X0159280Y0166374D01*
X0159098Y0166117D01*
X0158922Y0165857D01*
X0158753Y0165592D01*
X0158590Y0165323D01*
X0158434Y0165050D01*
X0158284Y0164774D01*
X0158142Y0164494D01*
X0158006Y0164210D01*
X0157877Y0163923D01*
X0157755Y0163633D01*
X0157641Y0163341D01*
X0157533Y0163045D01*
X0157433Y0162747D01*
X0157340Y0162447D01*
X0157255Y0162144D01*
X0157177Y0161840D01*
X0157106Y0161534D01*
X0157043Y0161226D01*
X0156987Y0160916D01*
X0156939Y0160606D01*
X0156899Y0160294D01*
X0156866Y0159981D01*
X0156841Y0159668D01*
X0156824Y0159354D01*
X0156814Y0159040D01*
X0156812Y0158725D01*
X0156818Y0158411D01*
X0156831Y0158097D01*
X0156852Y0157783D01*
X0156881Y0157470D01*
X0156917Y0157158D01*
X0156961Y0156847D01*
X0157013Y0156537D01*
X0157072Y0156228D01*
X0157139Y0155921D01*
X0157213Y0155615D01*
X0157294Y0155312D01*
X0157383Y0155010D01*
X0157480Y0154711D01*
X0157583Y0154414D01*
X0157694Y0154120D01*
X0157812Y0153829D01*
X0157937Y0153540D01*
X0158069Y0153255D01*
X0158208Y0152973D01*
X0158354Y0152695D01*
X0158507Y0152420D01*
X0158666Y0152149D01*
X0158832Y0151882D01*
X0159005Y0151619D01*
X0159183Y0151360D01*
X0159368Y0151106D01*
X0159560Y0150857D01*
X0159757Y0150612D01*
X0159960Y0150372D01*
X0160169Y0150137D01*
X0160384Y0149907D01*
X0160604Y0149683D01*
X0160829Y0149464D01*
X0161060Y0149251D01*
X0161296Y0149043D01*
X0161538Y0148841D01*
X0161783Y0148646D01*
X0162034Y0148456D01*
X0162289Y0148272D01*
X0162549Y0148095D01*
X0162813Y0147924D01*
X0163081Y0147760D01*
X0163353Y0147602D01*
X0163628Y0147451D01*
X0163908Y0147307D01*
X0164190Y0147169D01*
X0164476Y0147039D01*
X0164765Y0146915D01*
X0165058Y0146799D01*
X0165352Y0146690D01*
X0165650Y0146588D01*
X0165949Y0146494D01*
X0166252Y0146406D01*
X0166556Y0146326D01*
X0166861Y0146254D01*
X0167169Y0146189D01*
X0167478Y0146132D01*
X0167789Y0146082D01*
X0168100Y0146040D01*
X0168413Y0146005D01*
X0168726Y0145979D01*
X0169040Y0145959D01*
X0169354Y0145948D01*
X0169668Y0145944D01*
X0169982Y0145948D01*
X0170296Y0145959D01*
X0170610Y0145979D01*
X0170923Y0146005D01*
X0171236Y0146040D01*
X0171547Y0146082D01*
X0171858Y0146132D01*
X0172167Y0146189D01*
X0172475Y0146254D01*
X0172780Y0146326D01*
X0173084Y0146406D01*
X0173387Y0146494D01*
X0173686Y0146588D01*
X0173984Y0146690D01*
X0174278Y0146799D01*
X0174571Y0146915D01*
X0174860Y0147039D01*
X0175146Y0147169D01*
X0175428Y0147307D01*
X0175708Y0147451D01*
X0175983Y0147602D01*
X0176255Y0147760D01*
X0176523Y0147924D01*
X0176787Y0148095D01*
X0177047Y0148272D01*
X0177302Y0148456D01*
X0177553Y0148646D01*
X0177798Y0148841D01*
X0178040Y0149043D01*
X0178276Y0149251D01*
X0178507Y0149464D01*
X0178732Y0149683D01*
X0178952Y0149907D01*
X0179167Y0150137D01*
X0179376Y0150372D01*
X0179579Y0150612D01*
X0179776Y0150857D01*
X0179968Y0151106D01*
X0180153Y0151360D01*
X0180331Y0151619D01*
X0180504Y0151882D01*
X0180670Y0152149D01*
X0180829Y0152420D01*
X0180982Y0152695D01*
X0181128Y0152973D01*
X0181267Y0153255D01*
X0181399Y0153540D01*
X0181524Y0153829D01*
X0181642Y0154120D01*
X0181753Y0154414D01*
X0181856Y0154711D01*
X0181953Y0155010D01*
X0182042Y0155312D01*
X0182123Y0155615D01*
X0182197Y0155921D01*
X0182264Y0156228D01*
X0182323Y0156537D01*
X0182375Y0156847D01*
X0182419Y0157158D01*
X0182455Y0157470D01*
X0182484Y0157783D01*
X0182505Y0158097D01*
X0182518Y0158411D01*
X0182524Y0158725D01*
X0182522Y0159040D01*
X0182512Y0159354D01*
X0182495Y0159668D01*
X0182470Y0159981D01*
X0182437Y0160294D01*
X0182397Y0160606D01*
X0182349Y0160916D01*
X0182293Y0161226D01*
X0182230Y0161534D01*
X0182159Y0161840D01*
X0182081Y0162144D01*
X0181996Y0162447D01*
X0181903Y0162747D01*
X0181803Y0163045D01*
X0181695Y0163341D01*
X0181581Y0163633D01*
X0181459Y0163923D01*
X0181330Y0164210D01*
X0181194Y0164494D01*
X0181052Y0164774D01*
X0180902Y0165050D01*
X0180746Y0165323D01*
X0180583Y0165592D01*
X0180414Y0165857D01*
X0180238Y0166117D01*
X0180056Y0166374D01*
X0179868Y0166625D01*
X0179674Y0166873D01*
X0179473Y0167115D01*
X0179267Y0167352D01*
X0179055Y0167584D01*
X0178837Y0167811D01*
X0178614Y0168033D01*
X0178386Y0168249D01*
X0178152Y0168459D01*
X0177914Y0168663D01*
X0177670Y0168862D01*
X0177422Y0169055D01*
X0177365Y0168980D01*
X0177612Y0168788D01*
X0177854Y0168591D01*
X0178091Y0168388D01*
X0178322Y0168179D01*
X0178549Y0167965D01*
X0178771Y0167745D01*
X0178987Y0167520D01*
X0179197Y0167289D01*
X0179402Y0167054D01*
X0179601Y0166813D01*
X0179794Y0166568D01*
X0179980Y0166318D01*
X0180161Y0166064D01*
X0180336Y0165805D01*
X0180504Y0165542D01*
X0180665Y0165275D01*
X0180820Y0165004D01*
X0180969Y0164730D01*
X0181110Y0164452D01*
X0181245Y0164170D01*
X0181373Y0163886D01*
X0181494Y0163598D01*
X0181608Y0163307D01*
X0181714Y0163014D01*
X0181814Y0162718D01*
X0181906Y0162420D01*
X0181991Y0162120D01*
X0182068Y0161817D01*
X0182138Y0161513D01*
X0182201Y0161208D01*
X0182256Y0160901D01*
X0182304Y0160592D01*
X0182344Y0160283D01*
X0182376Y0159972D01*
X0182401Y0159661D01*
X0182418Y0159350D01*
X0182428Y0159038D01*
X0182430Y0158726D01*
X0182424Y0158414D01*
X0182411Y0158102D01*
X0182390Y0157791D01*
X0182362Y0157480D01*
X0182325Y0157170D01*
X0182282Y0156861D01*
X0182231Y0156553D01*
X0182172Y0156246D01*
X0182106Y0155942D01*
X0182032Y0155638D01*
X0181951Y0155337D01*
X0181863Y0155038D01*
X0181767Y0154741D01*
X0181664Y0154446D01*
X0181554Y0154154D01*
X0181437Y0153865D01*
X0181313Y0153578D01*
X0181182Y0153295D01*
X0181044Y0153015D01*
X0180899Y0152739D01*
X0180747Y0152466D01*
X0180589Y0152197D01*
X0180424Y0151932D01*
X0180253Y0151671D01*
X0180076Y0151415D01*
X0179892Y0151162D01*
X0179702Y0150915D01*
X0179507Y0150672D01*
X0179305Y0150433D01*
X0179097Y0150200D01*
X0178884Y0149972D01*
X0178666Y0149750D01*
X0178442Y0149532D01*
X0178213Y0149321D01*
X0177978Y0149115D01*
X0177739Y0148914D01*
X0177495Y0148720D01*
X0177246Y0148532D01*
X0176993Y0148349D01*
X0176735Y0148173D01*
X0176473Y0148004D01*
X0176207Y0147841D01*
X0175937Y0147684D01*
X0175663Y0147534D01*
X0175386Y0147391D01*
X0175106Y0147254D01*
X0174822Y0147125D01*
X0174535Y0147002D01*
X0174245Y0146887D01*
X0173952Y0146779D01*
X0173657Y0146677D01*
X0173359Y0146583D01*
X0173059Y0146497D01*
X0172758Y0146418D01*
X0172454Y0146346D01*
X0172149Y0146281D01*
X0171842Y0146224D01*
X0171534Y0146175D01*
X0171224Y0146133D01*
X0170914Y0146099D01*
X0170603Y0146072D01*
X0170292Y0146053D01*
X0169980Y0146042D01*
X0169668Y0146038D01*
X0169356Y0146042D01*
X0169044Y0146053D01*
X0168733Y0146072D01*
X0168422Y0146099D01*
X0168112Y0146133D01*
X0167802Y0146175D01*
X0167494Y0146224D01*
X0167187Y0146281D01*
X0166882Y0146346D01*
X0166578Y0146418D01*
X0166277Y0146497D01*
X0165977Y0146583D01*
X0165679Y0146677D01*
X0165384Y0146779D01*
X0165091Y0146887D01*
X0164801Y0147002D01*
X0164514Y0147125D01*
X0164230Y0147254D01*
X0163950Y0147391D01*
X0163673Y0147534D01*
X0163399Y0147684D01*
X0163129Y0147841D01*
X0162863Y0148004D01*
X0162601Y0148173D01*
X0162343Y0148349D01*
X0162090Y0148532D01*
X0161841Y0148720D01*
X0161597Y0148914D01*
X0161358Y0149115D01*
X0161123Y0149321D01*
X0160894Y0149532D01*
X0160670Y0149750D01*
X0160452Y0149972D01*
X0160239Y0150200D01*
X0160031Y0150433D01*
X0159829Y0150672D01*
X0159634Y0150915D01*
X0159444Y0151162D01*
X0159260Y0151415D01*
X0159083Y0151671D01*
X0158912Y0151932D01*
X0158747Y0152197D01*
X0158589Y0152466D01*
X0158437Y0152739D01*
X0158292Y0153015D01*
X0158154Y0153295D01*
X0158023Y0153578D01*
X0157899Y0153865D01*
X0157782Y0154154D01*
X0157672Y0154446D01*
X0157569Y0154741D01*
X0157473Y0155038D01*
X0157385Y0155337D01*
X0157304Y0155638D01*
X0157230Y0155942D01*
X0157164Y0156246D01*
X0157105Y0156553D01*
X0157054Y0156861D01*
X0157011Y0157170D01*
X0156974Y0157480D01*
X0156946Y0157791D01*
X0156925Y0158102D01*
X0156912Y0158414D01*
X0156906Y0158726D01*
X0156908Y0159038D01*
X0156918Y0159350D01*
X0156935Y0159661D01*
X0156960Y0159972D01*
X0156992Y0160283D01*
X0157032Y0160592D01*
X0157080Y0160901D01*
X0157135Y0161208D01*
X0157198Y0161513D01*
X0157268Y0161817D01*
X0157345Y0162120D01*
X0157430Y0162420D01*
X0157522Y0162718D01*
X0157622Y0163014D01*
X0157728Y0163307D01*
X0157842Y0163598D01*
X0157963Y0163886D01*
X0158091Y0164170D01*
X0158226Y0164452D01*
X0158367Y0164730D01*
X0158516Y0165004D01*
X0158671Y0165275D01*
X0158832Y0165542D01*
X0159000Y0165805D01*
X0159175Y0166064D01*
X0159356Y0166318D01*
X0159542Y0166568D01*
X0159735Y0166813D01*
X0159934Y0167054D01*
X0160139Y0167289D01*
X0160349Y0167520D01*
X0160565Y0167745D01*
X0160787Y0167965D01*
X0161014Y0168179D01*
X0161245Y0168388D01*
X0161482Y0168591D01*
X0161724Y0168788D01*
X0161971Y0168980D01*
X0162027Y0168904D01*
X0161782Y0168714D01*
X0161542Y0168519D01*
X0161307Y0168317D01*
X0161077Y0168110D01*
X0160852Y0167897D01*
X0160632Y0167679D01*
X0160418Y0167455D01*
X0160209Y0167226D01*
X0160006Y0166993D01*
X0159808Y0166754D01*
X0159617Y0166511D01*
X0159431Y0166262D01*
X0159252Y0166010D01*
X0159079Y0165753D01*
X0158912Y0165492D01*
X0158751Y0165227D01*
X0158598Y0164958D01*
X0158450Y0164686D01*
X0158310Y0164410D01*
X0158176Y0164130D01*
X0158049Y0163848D01*
X0157929Y0163562D01*
X0157816Y0163274D01*
X0157710Y0162983D01*
X0157612Y0162689D01*
X0157520Y0162393D01*
X0157436Y0162095D01*
X0157359Y0161795D01*
X0157290Y0161493D01*
X0157227Y0161190D01*
X0157173Y0160885D01*
X0157125Y0160579D01*
X0157086Y0160271D01*
X0157054Y0159963D01*
X0157029Y0159655D01*
X0157012Y0159345D01*
X0157002Y0159036D01*
X0157000Y0158726D01*
X0157006Y0158416D01*
X0157019Y0158107D01*
X0157040Y0157798D01*
X0157068Y0157489D01*
X0157104Y0157182D01*
X0157147Y0156875D01*
X0157198Y0156569D01*
X0157256Y0156265D01*
X0157322Y0155962D01*
X0157395Y0155661D01*
X0157475Y0155362D01*
X0157563Y0155065D01*
X0157658Y0154770D01*
X0157760Y0154478D01*
X0157869Y0154188D01*
X0157986Y0153901D01*
X0158109Y0153617D01*
X0158239Y0153336D01*
X0158376Y0153058D01*
X0158520Y0152784D01*
X0158670Y0152513D01*
X0158827Y0152246D01*
X0158991Y0151983D01*
X0159161Y0151724D01*
X0159337Y0151469D01*
X0159519Y0151218D01*
X0159708Y0150973D01*
X0159902Y0150731D01*
X0160102Y0150495D01*
X0160308Y0150264D01*
X0160520Y0150037D01*
X0160737Y0149816D01*
X0160959Y0149601D01*
X0161186Y0149390D01*
X0161419Y0149186D01*
X0161657Y0148987D01*
X0161899Y0148794D01*
X0162146Y0148607D01*
X0162397Y0148426D01*
X0162653Y0148252D01*
X0162913Y0148083D01*
X0163177Y0147921D01*
X0163445Y0147766D01*
X0163717Y0147617D01*
X0163992Y0147475D01*
X0164271Y0147339D01*
X0164552Y0147211D01*
X0164837Y0147089D01*
X0165125Y0146975D01*
X0165416Y0146867D01*
X0165709Y0146767D01*
X0166004Y0146673D01*
X0166302Y0146587D01*
X0166601Y0146509D01*
X0166903Y0146438D01*
X0167206Y0146374D01*
X0167510Y0146317D01*
X0167816Y0146268D01*
X0168123Y0146227D01*
X0168431Y0146193D01*
X0168740Y0146166D01*
X0169049Y0146147D01*
X0169358Y0146136D01*
X0169668Y0146132D01*
X0169978Y0146136D01*
X0170287Y0146147D01*
X0170596Y0146166D01*
X0170905Y0146193D01*
X0171213Y0146227D01*
X0171520Y0146268D01*
X0171826Y0146317D01*
X0172130Y0146374D01*
X0172433Y0146438D01*
X0172735Y0146509D01*
X0173034Y0146587D01*
X0173332Y0146673D01*
X0173627Y0146767D01*
X0173920Y0146867D01*
X0174211Y0146975D01*
X0174499Y0147089D01*
X0174784Y0147211D01*
X0175065Y0147339D01*
X0175344Y0147475D01*
X0175619Y0147617D01*
X0175891Y0147766D01*
X0176159Y0147921D01*
X0176423Y0148083D01*
X0176683Y0148252D01*
X0176939Y0148426D01*
X0177190Y0148607D01*
X0177437Y0148794D01*
X0177679Y0148987D01*
X0177917Y0149186D01*
X0178150Y0149390D01*
X0178377Y0149601D01*
X0178599Y0149816D01*
X0178816Y0150037D01*
X0179028Y0150264D01*
X0179234Y0150495D01*
X0179434Y0150731D01*
X0179628Y0150973D01*
X0179817Y0151218D01*
X0179999Y0151469D01*
X0180175Y0151724D01*
X0180345Y0151983D01*
X0180509Y0152246D01*
X0180666Y0152513D01*
X0180816Y0152784D01*
X0180960Y0153058D01*
X0181097Y0153336D01*
X0181227Y0153617D01*
X0181350Y0153901D01*
X0181467Y0154188D01*
X0181576Y0154478D01*
X0181678Y0154770D01*
X0181773Y0155065D01*
X0181861Y0155362D01*
X0181941Y0155661D01*
X0182014Y0155962D01*
X0182080Y0156265D01*
X0182138Y0156569D01*
X0182189Y0156875D01*
X0182232Y0157182D01*
X0182268Y0157489D01*
X0182296Y0157798D01*
X0182317Y0158107D01*
X0182330Y0158416D01*
X0182336Y0158726D01*
X0182334Y0159036D01*
X0182324Y0159345D01*
X0182307Y0159655D01*
X0182282Y0159963D01*
X0182250Y0160271D01*
X0182211Y0160579D01*
X0182163Y0160885D01*
X0182109Y0161190D01*
X0182046Y0161493D01*
X0181977Y0161795D01*
X0181900Y0162095D01*
X0181816Y0162393D01*
X0181724Y0162689D01*
X0181626Y0162983D01*
X0181520Y0163274D01*
X0181407Y0163562D01*
X0181287Y0163848D01*
X0181160Y0164130D01*
X0181026Y0164410D01*
X0180886Y0164686D01*
X0180738Y0164958D01*
X0180585Y0165227D01*
X0180424Y0165492D01*
X0180257Y0165753D01*
X0180084Y0166010D01*
X0179905Y0166262D01*
X0179719Y0166511D01*
X0179528Y0166754D01*
X0179330Y0166993D01*
X0179127Y0167226D01*
X0178918Y0167455D01*
X0178704Y0167679D01*
X0178484Y0167897D01*
X0178259Y0168110D01*
X0178029Y0168317D01*
X0177794Y0168519D01*
X0177554Y0168714D01*
X0177309Y0168904D01*
X0177252Y0168829D01*
X0177495Y0168641D01*
X0177734Y0168446D01*
X0177967Y0168246D01*
X0178195Y0168041D01*
X0178419Y0167829D01*
X0178637Y0167613D01*
X0178850Y0167391D01*
X0179057Y0167164D01*
X0179259Y0166932D01*
X0179455Y0166695D01*
X0179645Y0166453D01*
X0179829Y0166207D01*
X0180007Y0165956D01*
X0180179Y0165701D01*
X0180344Y0165442D01*
X0180504Y0165179D01*
X0180656Y0164912D01*
X0180803Y0164642D01*
X0180942Y0164368D01*
X0181075Y0164091D01*
X0181201Y0163810D01*
X0181320Y0163527D01*
X0181432Y0163240D01*
X0181537Y0162951D01*
X0181635Y0162660D01*
X0181726Y0162366D01*
X0181809Y0162070D01*
X0181886Y0161773D01*
X0181955Y0161473D01*
X0182016Y0161172D01*
X0182071Y0160869D01*
X0182117Y0160565D01*
X0182157Y0160260D01*
X0182189Y0159955D01*
X0182213Y0159648D01*
X0182230Y0159341D01*
X0182240Y0159034D01*
X0182242Y0158726D01*
X0182236Y0158419D01*
X0182223Y0158112D01*
X0182203Y0157805D01*
X0182174Y0157499D01*
X0182139Y0157193D01*
X0182096Y0156889D01*
X0182045Y0156586D01*
X0181988Y0156284D01*
X0181922Y0155983D01*
X0181850Y0155684D01*
X0181770Y0155388D01*
X0181683Y0155093D01*
X0181589Y0154800D01*
X0181487Y0154510D01*
X0181379Y0154222D01*
X0181264Y0153937D01*
X0181141Y0153655D01*
X0181012Y0153376D01*
X0180876Y0153100D01*
X0180733Y0152828D01*
X0180584Y0152559D01*
X0180428Y0152294D01*
X0180266Y0152033D01*
X0180097Y0151776D01*
X0179922Y0151523D01*
X0179741Y0151275D01*
X0179554Y0151031D01*
X0179361Y0150791D01*
X0179163Y0150557D01*
X0178958Y0150327D01*
X0178748Y0150102D01*
X0178533Y0149883D01*
X0178312Y0149669D01*
X0178087Y0149460D01*
X0177856Y0149257D01*
X0177620Y0149060D01*
X0177379Y0148868D01*
X0177134Y0148683D01*
X0176885Y0148503D01*
X0176631Y0148330D01*
X0176373Y0148163D01*
X0176111Y0148002D01*
X0175845Y0147848D01*
X0175575Y0147700D01*
X0175302Y0147559D01*
X0175025Y0147424D01*
X0174746Y0147297D01*
X0174463Y0147176D01*
X0174177Y0147062D01*
X0173889Y0146956D01*
X0173598Y0146856D01*
X0173305Y0146763D01*
X0173009Y0146678D01*
X0172712Y0146600D01*
X0172413Y0146529D01*
X0172112Y0146466D01*
X0171810Y0146410D01*
X0171506Y0146361D01*
X0171201Y0146320D01*
X0170896Y0146286D01*
X0170590Y0146260D01*
X0170283Y0146241D01*
X0169975Y0146230D01*
X0169668Y0146226D01*
X0169361Y0146230D01*
X0169053Y0146241D01*
X0168746Y0146260D01*
X0168440Y0146286D01*
X0168135Y0146320D01*
X0167830Y0146361D01*
X0167526Y0146410D01*
X0167224Y0146466D01*
X0166923Y0146529D01*
X0166624Y0146600D01*
X0166327Y0146678D01*
X0166031Y0146763D01*
X0165738Y0146856D01*
X0165447Y0146956D01*
X0165159Y0147062D01*
X0164873Y0147176D01*
X0164590Y0147297D01*
X0164311Y0147424D01*
X0164034Y0147559D01*
X0163761Y0147700D01*
X0163491Y0147848D01*
X0163225Y0148002D01*
X0162963Y0148163D01*
X0162705Y0148330D01*
X0162451Y0148503D01*
X0162202Y0148683D01*
X0161957Y0148868D01*
X0161716Y0149060D01*
X0161480Y0149257D01*
X0161249Y0149460D01*
X0161024Y0149669D01*
X0160803Y0149883D01*
X0160588Y0150102D01*
X0160378Y0150327D01*
X0160173Y0150557D01*
X0159975Y0150791D01*
X0159782Y0151031D01*
X0159595Y0151275D01*
X0159414Y0151523D01*
X0159239Y0151776D01*
X0159070Y0152033D01*
X0158908Y0152294D01*
X0158752Y0152559D01*
X0158603Y0152828D01*
X0158460Y0153100D01*
X0158324Y0153376D01*
X0158195Y0153655D01*
X0158072Y0153937D01*
X0157957Y0154222D01*
X0157849Y0154510D01*
X0157747Y0154800D01*
X0157653Y0155093D01*
X0157566Y0155388D01*
X0157486Y0155684D01*
X0157414Y0155983D01*
X0157348Y0156284D01*
X0157291Y0156586D01*
X0157240Y0156889D01*
X0157197Y0157193D01*
X0157162Y0157499D01*
X0157133Y0157805D01*
X0157113Y0158112D01*
X0157100Y0158419D01*
X0157094Y0158726D01*
X0157096Y0159034D01*
X0157106Y0159341D01*
X0157123Y0159648D01*
X0157147Y0159955D01*
X0157179Y0160260D01*
X0157219Y0160565D01*
X0157265Y0160869D01*
X0157320Y0161172D01*
X0157381Y0161473D01*
X0157450Y0161773D01*
X0157527Y0162070D01*
X0157610Y0162366D01*
X0157701Y0162660D01*
X0157799Y0162951D01*
X0157904Y0163240D01*
X0158016Y0163527D01*
X0158135Y0163810D01*
X0158261Y0164091D01*
X0158394Y0164368D01*
X0158533Y0164642D01*
X0158680Y0164912D01*
X0158832Y0165179D01*
X0158992Y0165442D01*
X0159157Y0165701D01*
X0159329Y0165956D01*
X0159507Y0166207D01*
X0159691Y0166453D01*
X0159881Y0166695D01*
X0160077Y0166932D01*
X0160279Y0167164D01*
X0160486Y0167391D01*
X0160699Y0167613D01*
X0160917Y0167829D01*
X0161141Y0168041D01*
X0161369Y0168246D01*
X0161602Y0168446D01*
X0161841Y0168641D01*
X0162084Y0168829D01*
X0162140Y0168754D01*
X0161899Y0168567D01*
X0161662Y0168374D01*
X0161431Y0168175D01*
X0161204Y0167971D01*
X0160982Y0167762D01*
X0160766Y0167547D01*
X0160555Y0167326D01*
X0160349Y0167101D01*
X0160149Y0166871D01*
X0159954Y0166635D01*
X0159766Y0166396D01*
X0159583Y0166151D01*
X0159406Y0165902D01*
X0159236Y0165649D01*
X0159071Y0165392D01*
X0158913Y0165131D01*
X0158762Y0164866D01*
X0158617Y0164598D01*
X0158478Y0164326D01*
X0158346Y0164051D01*
X0158221Y0163772D01*
X0158103Y0163491D01*
X0157992Y0163207D01*
X0157888Y0162920D01*
X0157790Y0162631D01*
X0157700Y0162339D01*
X0157617Y0162046D01*
X0157542Y0161750D01*
X0157473Y0161453D01*
X0157412Y0161154D01*
X0157358Y0160853D01*
X0157312Y0160552D01*
X0157272Y0160249D01*
X0157241Y0159946D01*
X0157216Y0159641D01*
X0157200Y0159337D01*
X0157190Y0159032D01*
X0157188Y0158727D01*
X0157194Y0158422D01*
X0157207Y0158117D01*
X0157227Y0157812D01*
X0157255Y0157508D01*
X0157290Y0157205D01*
X0157333Y0156903D01*
X0157383Y0156602D01*
X0157440Y0156302D01*
X0157505Y0156004D01*
X0157577Y0155708D01*
X0157656Y0155413D01*
X0157743Y0155120D01*
X0157836Y0154830D01*
X0157937Y0154542D01*
X0158045Y0154256D01*
X0158159Y0153973D01*
X0158281Y0153693D01*
X0158409Y0153416D01*
X0158544Y0153143D01*
X0158685Y0152873D01*
X0158834Y0152606D01*
X0158988Y0152343D01*
X0159149Y0152084D01*
X0159317Y0151828D01*
X0159490Y0151577D01*
X0159670Y0151331D01*
X0159856Y0151089D01*
X0160047Y0150851D01*
X0160244Y0150618D01*
X0160447Y0150390D01*
X0160656Y0150167D01*
X0160869Y0149949D01*
X0161088Y0149737D01*
X0161312Y0149530D01*
X0161542Y0149328D01*
X0161776Y0149132D01*
X0162014Y0148942D01*
X0162258Y0148758D01*
X0162505Y0148580D01*
X0162757Y0148408D01*
X0163014Y0148242D01*
X0163274Y0148083D01*
X0163538Y0147929D01*
X0163805Y0147783D01*
X0164076Y0147643D01*
X0164351Y0147509D01*
X0164628Y0147383D01*
X0164909Y0147263D01*
X0165193Y0147150D01*
X0165479Y0147044D01*
X0165767Y0146945D01*
X0166058Y0146853D01*
X0166352Y0146769D01*
X0166647Y0146691D01*
X0166944Y0146621D01*
X0167242Y0146558D01*
X0167542Y0146502D01*
X0167844Y0146454D01*
X0168146Y0146413D01*
X0168449Y0146380D01*
X0168753Y0146354D01*
X0169058Y0146335D01*
X0169363Y0146324D01*
X0169668Y0146320D01*
X0169973Y0146324D01*
X0170278Y0146335D01*
X0170583Y0146354D01*
X0170887Y0146380D01*
X0171190Y0146413D01*
X0171492Y0146454D01*
X0171794Y0146502D01*
X0172094Y0146558D01*
X0172392Y0146621D01*
X0172689Y0146691D01*
X0172984Y0146769D01*
X0173278Y0146853D01*
X0173569Y0146945D01*
X0173857Y0147044D01*
X0174143Y0147150D01*
X0174427Y0147263D01*
X0174708Y0147383D01*
X0174985Y0147509D01*
X0175260Y0147643D01*
X0175531Y0147783D01*
X0175798Y0147929D01*
X0176062Y0148083D01*
X0176322Y0148242D01*
X0176579Y0148408D01*
X0176831Y0148580D01*
X0177078Y0148758D01*
X0177322Y0148942D01*
X0177560Y0149132D01*
X0177794Y0149328D01*
X0178024Y0149530D01*
X0178248Y0149737D01*
X0178467Y0149949D01*
X0178680Y0150167D01*
X0178889Y0150390D01*
X0179092Y0150618D01*
X0179289Y0150851D01*
X0179480Y0151089D01*
X0179666Y0151331D01*
X0179846Y0151577D01*
X0180019Y0151828D01*
X0180187Y0152084D01*
X0180348Y0152343D01*
X0180502Y0152606D01*
X0180651Y0152873D01*
X0180792Y0153143D01*
X0180927Y0153416D01*
X0181055Y0153693D01*
X0181177Y0153973D01*
X0181291Y0154256D01*
X0181399Y0154542D01*
X0181500Y0154830D01*
X0181593Y0155120D01*
X0181680Y0155413D01*
X0181759Y0155708D01*
X0181831Y0156004D01*
X0181896Y0156302D01*
X0181953Y0156602D01*
X0182003Y0156903D01*
X0182046Y0157205D01*
X0182081Y0157508D01*
X0182109Y0157812D01*
X0182129Y0158117D01*
X0182142Y0158422D01*
X0182148Y0158727D01*
X0182146Y0159032D01*
X0182136Y0159337D01*
X0182120Y0159641D01*
X0182095Y0159946D01*
X0182064Y0160249D01*
X0182024Y0160552D01*
X0181978Y0160853D01*
X0181924Y0161154D01*
X0181863Y0161453D01*
X0181794Y0161750D01*
X0181719Y0162046D01*
X0181636Y0162339D01*
X0181546Y0162631D01*
X0181448Y0162920D01*
X0181344Y0163207D01*
X0181233Y0163491D01*
X0181115Y0163772D01*
X0180990Y0164051D01*
X0180858Y0164326D01*
X0180719Y0164598D01*
X0180574Y0164866D01*
X0180423Y0165131D01*
X0180265Y0165392D01*
X0180100Y0165649D01*
X0179930Y0165902D01*
X0179753Y0166151D01*
X0179570Y0166396D01*
X0179382Y0166635D01*
X0179187Y0166871D01*
X0178987Y0167101D01*
X0178781Y0167326D01*
X0178570Y0167547D01*
X0178354Y0167762D01*
X0178132Y0167971D01*
X0177905Y0168175D01*
X0177674Y0168374D01*
X0177437Y0168567D01*
X0177196Y0168754D01*
X0177140Y0168679D01*
X0177379Y0168493D01*
X0177614Y0168302D01*
X0177843Y0168105D01*
X0178068Y0167902D01*
X0178289Y0167694D01*
X0178503Y0167480D01*
X0178713Y0167262D01*
X0178917Y0167038D01*
X0179116Y0166810D01*
X0179309Y0166576D01*
X0179496Y0166338D01*
X0179677Y0166096D01*
X0179853Y0165849D01*
X0180022Y0165598D01*
X0180185Y0165342D01*
X0180342Y0165083D01*
X0180492Y0164820D01*
X0180636Y0164554D01*
X0180774Y0164284D01*
X0180905Y0164011D01*
X0181029Y0163735D01*
X0181146Y0163455D01*
X0181256Y0163173D01*
X0181360Y0162889D01*
X0181456Y0162602D01*
X0181546Y0162312D01*
X0181628Y0162021D01*
X0181703Y0161728D01*
X0181771Y0161432D01*
X0181832Y0161136D01*
X0181885Y0160838D01*
X0181931Y0160538D01*
X0181970Y0160238D01*
X0182002Y0159937D01*
X0182026Y0159635D01*
X0182043Y0159332D01*
X0182052Y0159030D01*
X0182054Y0158727D01*
X0182048Y0158424D01*
X0182035Y0158122D01*
X0182015Y0157819D01*
X0181987Y0157518D01*
X0181952Y0157217D01*
X0181910Y0156917D01*
X0181860Y0156618D01*
X0181803Y0156321D01*
X0181739Y0156025D01*
X0181668Y0155731D01*
X0181589Y0155438D01*
X0181503Y0155148D01*
X0181410Y0154859D01*
X0181311Y0154574D01*
X0181204Y0154290D01*
X0181090Y0154010D01*
X0180970Y0153732D01*
X0180842Y0153457D01*
X0180708Y0153185D01*
X0180568Y0152917D01*
X0180421Y0152652D01*
X0180267Y0152391D01*
X0180107Y0152134D01*
X0179941Y0151881D01*
X0179769Y0151632D01*
X0179591Y0151387D01*
X0179406Y0151146D01*
X0179216Y0150911D01*
X0179021Y0150680D01*
X0178819Y0150453D01*
X0178613Y0150232D01*
X0178400Y0150016D01*
X0178183Y0149805D01*
X0177961Y0149600D01*
X0177733Y0149400D01*
X0177501Y0149205D01*
X0177264Y0149017D01*
X0177022Y0148834D01*
X0176777Y0148657D01*
X0176526Y0148486D01*
X0176272Y0148322D01*
X0176014Y0148163D01*
X0175752Y0148011D01*
X0175487Y0147866D01*
X0175218Y0147727D01*
X0174945Y0147594D01*
X0174670Y0147469D01*
X0174391Y0147350D01*
X0174110Y0147238D01*
X0173826Y0147133D01*
X0173539Y0147034D01*
X0173250Y0146943D01*
X0172959Y0146859D01*
X0172666Y0146782D01*
X0172372Y0146713D01*
X0172075Y0146650D01*
X0171778Y0146595D01*
X0171479Y0146547D01*
X0171179Y0146506D01*
X0170877Y0146473D01*
X0170576Y0146447D01*
X0170273Y0146429D01*
X0169971Y0146418D01*
X0169668Y0146414D01*
X0169365Y0146418D01*
X0169063Y0146429D01*
X0168760Y0146447D01*
X0168459Y0146473D01*
X0168157Y0146506D01*
X0167857Y0146547D01*
X0167558Y0146595D01*
X0167261Y0146650D01*
X0166964Y0146713D01*
X0166670Y0146782D01*
X0166377Y0146859D01*
X0166086Y0146943D01*
X0165797Y0147034D01*
X0165510Y0147133D01*
X0165226Y0147238D01*
X0164945Y0147350D01*
X0164666Y0147469D01*
X0164391Y0147594D01*
X0164118Y0147727D01*
X0163849Y0147866D01*
X0163584Y0148011D01*
X0163322Y0148163D01*
X0163064Y0148322D01*
X0162810Y0148486D01*
X0162559Y0148657D01*
X0162314Y0148834D01*
X0162072Y0149017D01*
X0161835Y0149205D01*
X0161603Y0149400D01*
X0161375Y0149600D01*
X0161153Y0149805D01*
X0160936Y0150016D01*
X0160723Y0150232D01*
X0160517Y0150453D01*
X0160315Y0150680D01*
X0160120Y0150911D01*
X0159930Y0151146D01*
X0159745Y0151387D01*
X0159567Y0151632D01*
X0159395Y0151881D01*
X0159229Y0152134D01*
X0159069Y0152391D01*
X0158915Y0152652D01*
X0158768Y0152917D01*
X0158628Y0153185D01*
X0158494Y0153457D01*
X0158366Y0153732D01*
X0158246Y0154010D01*
X0158132Y0154290D01*
X0158025Y0154574D01*
X0157926Y0154859D01*
X0157833Y0155148D01*
X0157747Y0155438D01*
X0157668Y0155731D01*
X0157597Y0156025D01*
X0157533Y0156321D01*
X0157476Y0156618D01*
X0157426Y0156917D01*
X0157384Y0157217D01*
X0157349Y0157518D01*
X0157321Y0157819D01*
X0157301Y0158122D01*
X0157288Y0158424D01*
X0157282Y0158727D01*
X0157284Y0159030D01*
X0157293Y0159332D01*
X0157310Y0159635D01*
X0157334Y0159937D01*
X0157366Y0160238D01*
X0157405Y0160538D01*
X0157451Y0160838D01*
X0157504Y0161136D01*
X0157565Y0161432D01*
X0157633Y0161728D01*
X0157708Y0162021D01*
X0157790Y0162312D01*
X0157880Y0162602D01*
X0157976Y0162889D01*
X0158080Y0163173D01*
X0158190Y0163455D01*
X0158307Y0163735D01*
X0158431Y0164011D01*
X0158562Y0164284D01*
X0158700Y0164554D01*
X0158844Y0164820D01*
X0158994Y0165083D01*
X0159151Y0165342D01*
X0159314Y0165598D01*
X0159483Y0165849D01*
X0159659Y0166096D01*
X0159840Y0166338D01*
X0160027Y0166576D01*
X0160220Y0166810D01*
X0160419Y0167038D01*
X0160623Y0167262D01*
X0160833Y0167480D01*
X0161047Y0167694D01*
X0161268Y0167902D01*
X0161493Y0168105D01*
X0161722Y0168302D01*
X0161957Y0168493D01*
X0162196Y0168679D01*
X0162253Y0168604D01*
X0162015Y0168419D01*
X0161783Y0168229D01*
X0161554Y0168034D01*
X0161331Y0167833D01*
X0161113Y0167626D01*
X0160899Y0167414D01*
X0160691Y0167197D01*
X0160489Y0166975D01*
X0160292Y0166748D01*
X0160100Y0166517D01*
X0159914Y0166281D01*
X0159734Y0166040D01*
X0159560Y0165795D01*
X0159392Y0165546D01*
X0159230Y0165292D01*
X0159075Y0165035D01*
X0158926Y0164774D01*
X0158783Y0164510D01*
X0158646Y0164242D01*
X0158517Y0163971D01*
X0158394Y0163697D01*
X0158277Y0163420D01*
X0158168Y0163140D01*
X0158065Y0162857D01*
X0157969Y0162573D01*
X0157881Y0162285D01*
X0157799Y0161996D01*
X0157724Y0161705D01*
X0157657Y0161412D01*
X0157596Y0161118D01*
X0157543Y0160822D01*
X0157498Y0160525D01*
X0157459Y0160227D01*
X0157428Y0159928D01*
X0157404Y0159628D01*
X0157387Y0159328D01*
X0157378Y0159028D01*
X0157376Y0158727D01*
X0157382Y0158427D01*
X0157394Y0158126D01*
X0157415Y0157827D01*
X0157442Y0157527D01*
X0157477Y0157229D01*
X0157519Y0156931D01*
X0157568Y0156635D01*
X0157625Y0156340D01*
X0157689Y0156046D01*
X0157759Y0155754D01*
X0157837Y0155464D01*
X0157923Y0155175D01*
X0158015Y0154889D01*
X0158114Y0154605D01*
X0158220Y0154324D01*
X0158333Y0154046D01*
X0158452Y0153770D01*
X0158579Y0153497D01*
X0158712Y0153228D01*
X0158851Y0152962D01*
X0158997Y0152699D01*
X0159149Y0152440D01*
X0159308Y0152184D01*
X0159473Y0151933D01*
X0159644Y0151686D01*
X0159821Y0151443D01*
X0160004Y0151204D01*
X0160192Y0150970D01*
X0160386Y0150741D01*
X0160586Y0150517D01*
X0160791Y0150297D01*
X0161002Y0150083D01*
X0161218Y0149873D01*
X0161438Y0149669D01*
X0161664Y0149471D01*
X0161895Y0149278D01*
X0162130Y0149091D01*
X0162369Y0148909D01*
X0162613Y0148734D01*
X0162862Y0148564D01*
X0163114Y0148401D01*
X0163370Y0148244D01*
X0163630Y0148093D01*
X0163894Y0147949D01*
X0164161Y0147811D01*
X0164431Y0147679D01*
X0164704Y0147555D01*
X0164981Y0147437D01*
X0165260Y0147326D01*
X0165542Y0147221D01*
X0165826Y0147124D01*
X0166113Y0147033D01*
X0166402Y0146950D01*
X0166692Y0146874D01*
X0166985Y0146804D01*
X0167279Y0146742D01*
X0167574Y0146688D01*
X0167871Y0146640D01*
X0168169Y0146600D01*
X0168468Y0146567D01*
X0168767Y0146541D01*
X0169067Y0146523D01*
X0169367Y0146512D01*
X0169668Y0146508D01*
X0169969Y0146512D01*
X0170269Y0146523D01*
X0170569Y0146541D01*
X0170868Y0146567D01*
X0171167Y0146600D01*
X0171465Y0146640D01*
X0171762Y0146688D01*
X0172057Y0146742D01*
X0172351Y0146804D01*
X0172644Y0146874D01*
X0172934Y0146950D01*
X0173223Y0147033D01*
X0173510Y0147124D01*
X0173794Y0147221D01*
X0174076Y0147326D01*
X0174355Y0147437D01*
X0174632Y0147555D01*
X0174905Y0147679D01*
X0175175Y0147811D01*
X0175442Y0147949D01*
X0175706Y0148093D01*
X0175966Y0148244D01*
X0176222Y0148401D01*
X0176474Y0148564D01*
X0176723Y0148734D01*
X0176967Y0148909D01*
X0177206Y0149091D01*
X0177441Y0149278D01*
X0177672Y0149471D01*
X0177898Y0149669D01*
X0178118Y0149873D01*
X0178334Y0150083D01*
X0178545Y0150297D01*
X0178750Y0150517D01*
X0178950Y0150741D01*
X0179144Y0150970D01*
X0179332Y0151204D01*
X0179515Y0151443D01*
X0179692Y0151686D01*
X0179863Y0151933D01*
X0180028Y0152184D01*
X0180187Y0152440D01*
X0180339Y0152699D01*
X0180485Y0152962D01*
X0180624Y0153228D01*
X0180757Y0153497D01*
X0180884Y0153770D01*
X0181003Y0154046D01*
X0181116Y0154324D01*
X0181222Y0154605D01*
X0181321Y0154889D01*
X0181413Y0155175D01*
X0181499Y0155464D01*
X0181577Y0155754D01*
X0181647Y0156046D01*
X0181711Y0156340D01*
X0181768Y0156635D01*
X0181817Y0156931D01*
X0181859Y0157229D01*
X0181894Y0157527D01*
X0181921Y0157827D01*
X0181942Y0158126D01*
X0181954Y0158427D01*
X0181960Y0158727D01*
X0181958Y0159028D01*
X0181949Y0159328D01*
X0181932Y0159628D01*
X0181908Y0159928D01*
X0181877Y0160227D01*
X0181838Y0160525D01*
X0181793Y0160822D01*
X0181740Y0161118D01*
X0181679Y0161412D01*
X0181612Y0161705D01*
X0181537Y0161996D01*
X0181455Y0162285D01*
X0181367Y0162573D01*
X0181271Y0162857D01*
X0181168Y0163140D01*
X0181059Y0163420D01*
X0180942Y0163697D01*
X0180819Y0163971D01*
X0180690Y0164242D01*
X0180553Y0164510D01*
X0180410Y0164774D01*
X0180261Y0165035D01*
X0180106Y0165292D01*
X0179944Y0165546D01*
X0179776Y0165795D01*
X0179602Y0166040D01*
X0179422Y0166281D01*
X0179236Y0166517D01*
X0179044Y0166748D01*
X0178847Y0166975D01*
X0178645Y0167197D01*
X0178437Y0167414D01*
X0178223Y0167626D01*
X0178005Y0167833D01*
X0177782Y0168034D01*
X0177553Y0168229D01*
X0177321Y0168419D01*
X0177083Y0168604D01*
X0177027Y0168528D01*
X0177262Y0168346D01*
X0177493Y0168157D01*
X0177720Y0167963D01*
X0177942Y0167763D01*
X0178158Y0167558D01*
X0178370Y0167348D01*
X0178576Y0167133D01*
X0178777Y0166913D01*
X0178973Y0166687D01*
X0179163Y0166458D01*
X0179347Y0166223D01*
X0179526Y0165984D01*
X0179699Y0165741D01*
X0179865Y0165494D01*
X0180026Y0165242D01*
X0180180Y0164987D01*
X0180328Y0164728D01*
X0180470Y0164466D01*
X0180605Y0164200D01*
X0180734Y0163931D01*
X0180856Y0163659D01*
X0180972Y0163384D01*
X0181081Y0163106D01*
X0181182Y0162826D01*
X0181277Y0162543D01*
X0181365Y0162258D01*
X0181446Y0161971D01*
X0181521Y0161683D01*
X0181587Y0161392D01*
X0181647Y0161100D01*
X0181700Y0160806D01*
X0181745Y0160511D01*
X0181784Y0160216D01*
X0181815Y0159919D01*
X0181838Y0159622D01*
X0181855Y0159324D01*
X0181864Y0159026D01*
X0181866Y0158728D01*
X0181860Y0158429D01*
X0181848Y0158131D01*
X0181828Y0157834D01*
X0181800Y0157537D01*
X0181766Y0157241D01*
X0181724Y0156945D01*
X0181675Y0156651D01*
X0181619Y0156358D01*
X0181556Y0156067D01*
X0181485Y0155777D01*
X0181408Y0155489D01*
X0181324Y0155203D01*
X0181232Y0154919D01*
X0181134Y0154637D01*
X0181029Y0154358D01*
X0180917Y0154082D01*
X0180798Y0153808D01*
X0180673Y0153538D01*
X0180541Y0153270D01*
X0180402Y0153006D01*
X0180257Y0152745D01*
X0180106Y0152488D01*
X0179949Y0152235D01*
X0179785Y0151986D01*
X0179615Y0151740D01*
X0179440Y0151499D01*
X0179258Y0151262D01*
X0179071Y0151030D01*
X0178879Y0150803D01*
X0178680Y0150580D01*
X0178477Y0150362D01*
X0178268Y0150149D01*
X0178054Y0149941D01*
X0177834Y0149739D01*
X0177611Y0149542D01*
X0177382Y0149351D01*
X0177148Y0149165D01*
X0176911Y0148985D01*
X0176669Y0148811D01*
X0176422Y0148643D01*
X0176172Y0148481D01*
X0175918Y0148325D01*
X0175660Y0148175D01*
X0175398Y0148032D01*
X0175133Y0147895D01*
X0174865Y0147764D01*
X0174594Y0147641D01*
X0174319Y0147524D01*
X0174042Y0147413D01*
X0173762Y0147310D01*
X0173480Y0147213D01*
X0173196Y0147123D01*
X0172909Y0147041D01*
X0172621Y0146965D01*
X0172331Y0146896D01*
X0172039Y0146835D01*
X0171746Y0146780D01*
X0171451Y0146733D01*
X0171156Y0146693D01*
X0170859Y0146660D01*
X0170562Y0146635D01*
X0170264Y0146617D01*
X0169966Y0146606D01*
X0169668Y0146602D01*
X0169370Y0146606D01*
X0169072Y0146617D01*
X0168774Y0146635D01*
X0168477Y0146660D01*
X0168180Y0146693D01*
X0167885Y0146733D01*
X0167590Y0146780D01*
X0167297Y0146835D01*
X0167005Y0146896D01*
X0166715Y0146965D01*
X0166427Y0147041D01*
X0166140Y0147123D01*
X0165856Y0147213D01*
X0165574Y0147310D01*
X0165294Y0147413D01*
X0165017Y0147524D01*
X0164742Y0147641D01*
X0164471Y0147764D01*
X0164203Y0147895D01*
X0163938Y0148032D01*
X0163676Y0148175D01*
X0163418Y0148325D01*
X0163164Y0148481D01*
X0162914Y0148643D01*
X0162667Y0148811D01*
X0162425Y0148985D01*
X0162188Y0149165D01*
X0161954Y0149351D01*
X0161725Y0149542D01*
X0161502Y0149739D01*
X0161282Y0149941D01*
X0161068Y0150149D01*
X0160859Y0150362D01*
X0160656Y0150580D01*
X0160457Y0150803D01*
X0160265Y0151030D01*
X0160078Y0151262D01*
X0159896Y0151499D01*
X0159721Y0151740D01*
X0159551Y0151986D01*
X0159387Y0152235D01*
X0159230Y0152488D01*
X0159079Y0152745D01*
X0158934Y0153006D01*
X0158795Y0153270D01*
X0158663Y0153538D01*
X0158538Y0153808D01*
X0158419Y0154082D01*
X0158307Y0154358D01*
X0158202Y0154637D01*
X0158104Y0154919D01*
X0158012Y0155203D01*
X0157928Y0155489D01*
X0157851Y0155777D01*
X0157780Y0156067D01*
X0157717Y0156358D01*
X0157661Y0156651D01*
X0157612Y0156945D01*
X0157570Y0157241D01*
X0157536Y0157537D01*
X0157508Y0157834D01*
X0157488Y0158131D01*
X0157476Y0158429D01*
X0157470Y0158728D01*
X0157472Y0159026D01*
X0157481Y0159324D01*
X0157498Y0159622D01*
X0157521Y0159919D01*
X0157552Y0160216D01*
X0157591Y0160511D01*
X0157636Y0160806D01*
X0157689Y0161100D01*
X0157749Y0161392D01*
X0157815Y0161683D01*
X0157890Y0161971D01*
X0157971Y0162258D01*
X0158059Y0162543D01*
X0158154Y0162826D01*
X0158255Y0163106D01*
X0158364Y0163384D01*
X0158480Y0163659D01*
X0158602Y0163931D01*
X0158731Y0164200D01*
X0158866Y0164466D01*
X0159008Y0164728D01*
X0159156Y0164987D01*
X0159310Y0165242D01*
X0159471Y0165494D01*
X0159637Y0165741D01*
X0159810Y0165984D01*
X0159989Y0166223D01*
X0160173Y0166458D01*
X0160363Y0166687D01*
X0160559Y0166913D01*
X0160760Y0167133D01*
X0160966Y0167348D01*
X0161178Y0167558D01*
X0161394Y0167763D01*
X0161616Y0167963D01*
X0161843Y0168157D01*
X0162074Y0168346D01*
X0162309Y0168528D01*
X0162366Y0168453D01*
X0162132Y0168272D01*
X0161903Y0168085D01*
X0161678Y0167892D01*
X0161458Y0167694D01*
X0161243Y0167491D01*
X0161033Y0167282D01*
X0160828Y0167068D01*
X0160629Y0166850D01*
X0160435Y0166626D01*
X0160246Y0166398D01*
X0160063Y0166166D01*
X0159886Y0165929D01*
X0159715Y0165687D01*
X0159549Y0165442D01*
X0159390Y0165193D01*
X0159237Y0164939D01*
X0159090Y0164683D01*
X0158949Y0164422D01*
X0158815Y0164158D01*
X0158687Y0163891D01*
X0158566Y0163621D01*
X0158451Y0163349D01*
X0158343Y0163073D01*
X0158242Y0162795D01*
X0158148Y0162514D01*
X0158061Y0162232D01*
X0157980Y0161947D01*
X0157907Y0161660D01*
X0157840Y0161372D01*
X0157781Y0161082D01*
X0157729Y0160790D01*
X0157684Y0160498D01*
X0157646Y0160204D01*
X0157615Y0159910D01*
X0157591Y0159615D01*
X0157575Y0159320D01*
X0157566Y0159024D01*
X0157564Y0158728D01*
X0157570Y0158432D01*
X0157582Y0158136D01*
X0157602Y0157841D01*
X0157629Y0157546D01*
X0157663Y0157252D01*
X0157705Y0156959D01*
X0157753Y0156667D01*
X0157809Y0156377D01*
X0157872Y0156088D01*
X0157942Y0155800D01*
X0158019Y0155514D01*
X0158102Y0155230D01*
X0158193Y0154949D01*
X0158291Y0154669D01*
X0158395Y0154392D01*
X0158506Y0154118D01*
X0158624Y0153847D01*
X0158748Y0153578D01*
X0158879Y0153313D01*
X0159017Y0153051D01*
X0159160Y0152792D01*
X0159310Y0152537D01*
X0159467Y0152285D01*
X0159629Y0152038D01*
X0159797Y0151795D01*
X0159972Y0151555D01*
X0160152Y0151320D01*
X0160337Y0151090D01*
X0160529Y0150864D01*
X0160725Y0150643D01*
X0160927Y0150427D01*
X0161135Y0150216D01*
X0161347Y0150010D01*
X0161565Y0149809D01*
X0161787Y0149613D01*
X0162014Y0149423D01*
X0162245Y0149239D01*
X0162481Y0149061D01*
X0162721Y0148888D01*
X0162966Y0148721D01*
X0163214Y0148560D01*
X0163467Y0148405D01*
X0163723Y0148257D01*
X0163982Y0148115D01*
X0164245Y0147979D01*
X0164511Y0147849D01*
X0164780Y0147727D01*
X0165053Y0147610D01*
X0165328Y0147501D01*
X0165605Y0147398D01*
X0165885Y0147302D01*
X0166167Y0147213D01*
X0166452Y0147131D01*
X0166738Y0147056D01*
X0167026Y0146988D01*
X0167315Y0146927D01*
X0167606Y0146873D01*
X0167899Y0146826D01*
X0168192Y0146786D01*
X0168486Y0146754D01*
X0168781Y0146729D01*
X0169076Y0146710D01*
X0169372Y0146700D01*
X0169668Y0146696D01*
X0169964Y0146700D01*
X0170260Y0146710D01*
X0170555Y0146729D01*
X0170850Y0146754D01*
X0171144Y0146786D01*
X0171437Y0146826D01*
X0171730Y0146873D01*
X0172021Y0146927D01*
X0172310Y0146988D01*
X0172598Y0147056D01*
X0172884Y0147131D01*
X0173169Y0147213D01*
X0173451Y0147302D01*
X0173731Y0147398D01*
X0174008Y0147501D01*
X0174283Y0147610D01*
X0174556Y0147727D01*
X0174825Y0147849D01*
X0175091Y0147979D01*
X0175354Y0148115D01*
X0175613Y0148257D01*
X0175869Y0148405D01*
X0176122Y0148560D01*
X0176370Y0148721D01*
X0176615Y0148888D01*
X0176855Y0149061D01*
X0177091Y0149239D01*
X0177322Y0149423D01*
X0177549Y0149613D01*
X0177771Y0149809D01*
X0177989Y0150010D01*
X0178201Y0150216D01*
X0178409Y0150427D01*
X0178611Y0150643D01*
X0178807Y0150864D01*
X0178999Y0151090D01*
X0179184Y0151320D01*
X0179364Y0151555D01*
X0179539Y0151795D01*
X0179707Y0152038D01*
X0179869Y0152285D01*
X0180026Y0152537D01*
X0180176Y0152792D01*
X0180319Y0153051D01*
X0180457Y0153313D01*
X0180588Y0153578D01*
X0180712Y0153847D01*
X0180830Y0154118D01*
X0180941Y0154392D01*
X0181045Y0154669D01*
X0181143Y0154949D01*
X0181234Y0155230D01*
X0181317Y0155514D01*
X0181394Y0155800D01*
X0181464Y0156088D01*
X0181527Y0156377D01*
X0181583Y0156667D01*
X0181631Y0156959D01*
X0181673Y0157252D01*
X0181707Y0157546D01*
X0181734Y0157841D01*
X0181754Y0158136D01*
X0181766Y0158432D01*
X0181772Y0158728D01*
X0181770Y0159024D01*
X0181761Y0159320D01*
X0181745Y0159615D01*
X0181721Y0159910D01*
X0181690Y0160204D01*
X0181652Y0160498D01*
X0181607Y0160790D01*
X0181555Y0161082D01*
X0181496Y0161372D01*
X0181429Y0161660D01*
X0181356Y0161947D01*
X0181275Y0162232D01*
X0181188Y0162514D01*
X0181094Y0162795D01*
X0180993Y0163073D01*
X0180885Y0163349D01*
X0180770Y0163621D01*
X0180649Y0163891D01*
X0180521Y0164158D01*
X0180387Y0164422D01*
X0180246Y0164683D01*
X0180099Y0164939D01*
X0179946Y0165193D01*
X0179787Y0165442D01*
X0179621Y0165687D01*
X0179450Y0165929D01*
X0179273Y0166166D01*
X0179090Y0166398D01*
X0178901Y0166626D01*
X0178707Y0166850D01*
X0178508Y0167068D01*
X0178303Y0167282D01*
X0178093Y0167491D01*
X0177878Y0167694D01*
X0177658Y0167892D01*
X0177433Y0168085D01*
X0177204Y0168272D01*
X0176970Y0168453D01*
D21*
X0194668Y0168000D03*
X0194668Y0139600D03*
D22*
X0094310Y0040647D02*
X0094310Y0037578D01*
X0094310Y0039113D02*
X0089706Y0039113D01*
X0091241Y0037578D01*
X0092008Y0036043D02*
X0092776Y0035276D01*
X0092776Y0032974D01*
X0094310Y0032974D02*
X0089706Y0032974D01*
X0089706Y0035276D01*
X0090474Y0036043D01*
X0092008Y0036043D01*
X0089706Y0031439D02*
X0089706Y0029905D01*
X0089706Y0030672D02*
X0093543Y0030672D01*
X0094310Y0029905D01*
X0094310Y0029137D01*
X0093543Y0028370D01*
D23*
X0150716Y0077258D02*
X0189475Y0116017D01*
X0178716Y0107111D02*
X0178716Y0107039D01*
X0178716Y0107111D02*
X0161759Y0107111D01*
X0161688Y0107111D01*
X0161617Y0107111D01*
X0161688Y0107111D02*
X0161759Y0107111D01*
X0161616Y0107110D02*
X0161589Y0107108D01*
X0161561Y0107103D01*
X0161535Y0107094D01*
X0161510Y0107082D01*
X0161487Y0107066D01*
X0161466Y0107048D01*
X0161447Y0107027D01*
X0161432Y0107004D01*
X0161419Y0106979D01*
X0161410Y0106952D01*
X0161405Y0106925D01*
X0161403Y0106897D01*
X0161403Y0106755D01*
X0161403Y0106541D01*
X0161402Y0106541D02*
X0161404Y0106519D01*
X0161409Y0106497D01*
X0161418Y0106476D01*
X0161429Y0106457D01*
X0161444Y0106440D01*
X0161461Y0106425D01*
X0161480Y0106414D01*
X0161501Y0106405D01*
X0161523Y0106400D01*
X0161545Y0106398D01*
X0162685Y0106398D01*
X0168813Y0106398D01*
X0174655Y0106398D01*
X0178075Y0106398D01*
X0177648Y0106327D02*
X0175653Y0086663D01*
X0173729Y0085024D02*
X0173731Y0085087D01*
X0173737Y0085149D01*
X0173747Y0085211D01*
X0173760Y0085272D01*
X0173778Y0085332D01*
X0173799Y0085391D01*
X0173824Y0085449D01*
X0173852Y0085504D01*
X0173884Y0085558D01*
X0173919Y0085610D01*
X0173958Y0085660D01*
X0173999Y0085706D01*
X0174044Y0085751D01*
X0174090Y0085792D01*
X0174140Y0085831D01*
X0174192Y0085866D01*
X0174246Y0085898D01*
X0174301Y0085926D01*
X0174359Y0085951D01*
X0174418Y0085972D01*
X0174478Y0085990D01*
X0174539Y0086003D01*
X0174601Y0086013D01*
X0174663Y0086019D01*
X0174726Y0086021D01*
X0174789Y0086019D01*
X0174851Y0086013D01*
X0174913Y0086003D01*
X0174974Y0085990D01*
X0175034Y0085972D01*
X0175093Y0085951D01*
X0175151Y0085926D01*
X0175206Y0085898D01*
X0175260Y0085866D01*
X0175312Y0085831D01*
X0175362Y0085792D01*
X0175408Y0085751D01*
X0175453Y0085706D01*
X0175494Y0085660D01*
X0175533Y0085610D01*
X0175568Y0085558D01*
X0175600Y0085504D01*
X0175628Y0085449D01*
X0175653Y0085391D01*
X0175674Y0085332D01*
X0175692Y0085272D01*
X0175705Y0085211D01*
X0175715Y0085149D01*
X0175721Y0085087D01*
X0175723Y0085024D01*
X0175721Y0084961D01*
X0175715Y0084899D01*
X0175705Y0084837D01*
X0175692Y0084776D01*
X0175674Y0084716D01*
X0175653Y0084657D01*
X0175628Y0084599D01*
X0175600Y0084544D01*
X0175568Y0084490D01*
X0175533Y0084438D01*
X0175494Y0084388D01*
X0175453Y0084342D01*
X0175408Y0084297D01*
X0175362Y0084256D01*
X0175312Y0084217D01*
X0175260Y0084182D01*
X0175206Y0084150D01*
X0175151Y0084122D01*
X0175093Y0084097D01*
X0175034Y0084076D01*
X0174974Y0084058D01*
X0174913Y0084045D01*
X0174851Y0084035D01*
X0174789Y0084029D01*
X0174726Y0084027D01*
X0174663Y0084029D01*
X0174601Y0084035D01*
X0174539Y0084045D01*
X0174478Y0084058D01*
X0174418Y0084076D01*
X0174359Y0084097D01*
X0174301Y0084122D01*
X0174246Y0084150D01*
X0174192Y0084182D01*
X0174140Y0084217D01*
X0174090Y0084256D01*
X0174044Y0084297D01*
X0173999Y0084342D01*
X0173958Y0084388D01*
X0173919Y0084438D01*
X0173884Y0084490D01*
X0173852Y0084544D01*
X0173824Y0084599D01*
X0173799Y0084657D01*
X0173778Y0084716D01*
X0173760Y0084776D01*
X0173747Y0084837D01*
X0173737Y0084899D01*
X0173731Y0084961D01*
X0173729Y0085024D01*
X0172803Y0084810D02*
X0165607Y0084739D01*
X0165393Y0084596D02*
X0165393Y0083670D01*
X0165392Y0083670D02*
X0165394Y0083631D01*
X0165399Y0083591D01*
X0165408Y0083553D01*
X0165421Y0083515D01*
X0165437Y0083479D01*
X0165456Y0083445D01*
X0165478Y0083412D01*
X0165504Y0083382D01*
X0165532Y0083354D01*
X0165562Y0083328D01*
X0165595Y0083306D01*
X0165629Y0083287D01*
X0165665Y0083271D01*
X0165703Y0083258D01*
X0165741Y0083249D01*
X0165781Y0083244D01*
X0165820Y0083242D01*
X0165820Y0083243D02*
X0165963Y0083243D01*
X0166001Y0083245D01*
X0166037Y0083251D01*
X0166073Y0083261D01*
X0166108Y0083274D01*
X0166141Y0083291D01*
X0166172Y0083311D01*
X0166201Y0083335D01*
X0166228Y0083361D01*
X0166251Y0083390D01*
X0166271Y0083421D01*
X0166288Y0083454D01*
X0166302Y0083489D01*
X0166311Y0083525D01*
X0166317Y0083562D01*
X0166319Y0083599D01*
X0166319Y0084596D01*
X0165179Y0084811D02*
X0165131Y0084818D01*
X0165083Y0084828D01*
X0165037Y0084842D01*
X0164992Y0084859D01*
X0164948Y0084880D01*
X0164906Y0084904D01*
X0164866Y0084931D01*
X0164828Y0084961D01*
X0164792Y0084994D01*
X0164759Y0085029D01*
X0164729Y0085067D01*
X0164702Y0085107D01*
X0164678Y0085150D01*
X0164657Y0085193D01*
X0164640Y0085239D01*
X0164626Y0085285D01*
X0164616Y0085332D01*
X0164609Y0085380D01*
X0162543Y0106327D01*
X0162614Y0107324D02*
X0177363Y0107324D01*
X0177576Y0107325D02*
X0177585Y0107360D01*
X0177591Y0107397D01*
X0177593Y0107434D01*
X0177592Y0107471D01*
X0177587Y0107507D01*
X0177579Y0107543D01*
X0177567Y0107578D01*
X0177552Y0107612D01*
X0177534Y0107644D01*
X0177513Y0107675D01*
X0177489Y0107703D01*
X0177462Y0107729D01*
X0177433Y0107752D01*
X0177221Y0107111D02*
X0177223Y0107164D01*
X0177229Y0107217D01*
X0177239Y0107269D01*
X0177253Y0107321D01*
X0177270Y0107371D01*
X0177292Y0107420D01*
X0177316Y0107467D01*
X0177345Y0107512D01*
X0177376Y0107555D01*
X0177411Y0107595D01*
X0177449Y0107633D01*
X0177489Y0107668D01*
X0177532Y0107699D01*
X0177577Y0107728D01*
X0177624Y0107752D01*
X0177673Y0107774D01*
X0177723Y0107791D01*
X0177775Y0107805D01*
X0177827Y0107815D01*
X0177880Y0107821D01*
X0177933Y0107823D01*
X0177986Y0107821D01*
X0178039Y0107815D01*
X0178091Y0107805D01*
X0178143Y0107791D01*
X0178193Y0107774D01*
X0178242Y0107752D01*
X0178289Y0107728D01*
X0178334Y0107699D01*
X0178377Y0107668D01*
X0178417Y0107633D01*
X0178455Y0107595D01*
X0178490Y0107555D01*
X0178521Y0107512D01*
X0178550Y0107467D01*
X0178574Y0107420D01*
X0178596Y0107371D01*
X0178613Y0107321D01*
X0178627Y0107269D01*
X0178637Y0107217D01*
X0178643Y0107164D01*
X0178645Y0107111D01*
X0178643Y0107058D01*
X0178637Y0107005D01*
X0178627Y0106953D01*
X0178613Y0106901D01*
X0178596Y0106851D01*
X0178574Y0106802D01*
X0178550Y0106755D01*
X0178521Y0106710D01*
X0178490Y0106667D01*
X0178455Y0106627D01*
X0178417Y0106589D01*
X0178377Y0106554D01*
X0178334Y0106523D01*
X0178289Y0106494D01*
X0178242Y0106470D01*
X0178193Y0106448D01*
X0178143Y0106431D01*
X0178091Y0106417D01*
X0178039Y0106407D01*
X0177986Y0106401D01*
X0177933Y0106399D01*
X0177880Y0106401D01*
X0177827Y0106407D01*
X0177775Y0106417D01*
X0177723Y0106431D01*
X0177673Y0106448D01*
X0177624Y0106470D01*
X0177577Y0106494D01*
X0177532Y0106523D01*
X0177489Y0106554D01*
X0177449Y0106589D01*
X0177411Y0106627D01*
X0177376Y0106667D01*
X0177345Y0106710D01*
X0177316Y0106755D01*
X0177292Y0106802D01*
X0177270Y0106851D01*
X0177253Y0106901D01*
X0177239Y0106953D01*
X0177229Y0107005D01*
X0177223Y0107058D01*
X0177221Y0107111D01*
X0178075Y0106398D02*
X0178123Y0106400D01*
X0178171Y0106405D01*
X0178218Y0106414D01*
X0178264Y0106426D01*
X0178309Y0106442D01*
X0178353Y0106461D01*
X0178396Y0106484D01*
X0178436Y0106509D01*
X0178475Y0106538D01*
X0178511Y0106569D01*
X0178545Y0106603D01*
X0178576Y0106639D01*
X0178605Y0106678D01*
X0178630Y0106719D01*
X0178653Y0106761D01*
X0178672Y0106805D01*
X0178688Y0106850D01*
X0178700Y0106896D01*
X0178709Y0106943D01*
X0178714Y0106991D01*
X0178716Y0107039D01*
X0177933Y0105115D02*
X0177885Y0105107D01*
X0177838Y0105103D01*
X0177790Y0105101D01*
X0177742Y0105103D01*
X0177695Y0105107D01*
X0177647Y0105115D01*
X0177932Y0105116D02*
X0177982Y0105124D01*
X0178032Y0105128D01*
X0178083Y0105129D01*
X0178133Y0105125D01*
X0178183Y0105118D01*
X0178232Y0105107D01*
X0178280Y0105092D01*
X0178326Y0105073D01*
X0178372Y0105051D01*
X0178415Y0105026D01*
X0178456Y0104997D01*
X0178495Y0104965D01*
X0178532Y0104930D01*
X0178565Y0104893D01*
X0178596Y0104853D01*
X0178623Y0104811D01*
X0178647Y0104766D01*
X0178668Y0104721D01*
X0178685Y0104673D01*
X0178699Y0104625D01*
X0178708Y0104575D01*
X0178714Y0104525D01*
X0178716Y0104475D01*
X0178716Y0104047D01*
X0178714Y0103996D01*
X0178709Y0103946D01*
X0178700Y0103896D01*
X0178687Y0103847D01*
X0178671Y0103798D01*
X0178652Y0103751D01*
X0178629Y0103706D01*
X0178603Y0103662D01*
X0178574Y0103620D01*
X0178542Y0103581D01*
X0178508Y0103544D01*
X0178470Y0103509D01*
X0178431Y0103477D01*
X0178389Y0103448D01*
X0178345Y0103422D01*
X0178300Y0103399D01*
X0178253Y0103380D01*
X0178205Y0103364D01*
X0178156Y0103351D01*
X0178106Y0103342D01*
X0178055Y0103337D01*
X0178004Y0103335D01*
X0177505Y0103335D01*
X0177434Y0107752D02*
X0177378Y0107791D01*
X0177319Y0107827D01*
X0177259Y0107860D01*
X0177198Y0107891D01*
X0177135Y0107919D01*
X0177072Y0107944D01*
X0177006Y0107965D01*
X0173230Y0108607D02*
X0171876Y0108678D01*
X0171805Y0108892D02*
X0171805Y0108322D01*
X0168528Y0108322D01*
X0168528Y0108892D01*
X0171805Y0108892D01*
X0168528Y0108678D02*
X0168172Y0108678D01*
X0164111Y0108607D02*
X0164104Y0108521D01*
X0164100Y0108436D01*
X0164100Y0108350D01*
X0164104Y0108265D01*
X0164111Y0108179D01*
X0164110Y0108180D02*
X0164181Y0107467D01*
X0162899Y0108037D02*
X0162857Y0108015D01*
X0162816Y0107991D01*
X0162777Y0107963D01*
X0162740Y0107932D01*
X0162706Y0107899D01*
X0162674Y0107863D01*
X0162645Y0107825D01*
X0162619Y0107785D01*
X0162596Y0107743D01*
X0162577Y0107700D01*
X0162560Y0107655D01*
X0162547Y0107609D01*
X0162538Y0107562D01*
X0162532Y0107515D01*
X0162529Y0107467D01*
X0162530Y0107419D01*
X0162535Y0107372D01*
X0162543Y0107325D01*
X0164110Y0108607D02*
X0164114Y0108632D01*
X0164122Y0108656D01*
X0164133Y0108678D01*
X0164147Y0108699D01*
X0164163Y0108718D01*
X0164183Y0108734D01*
X0164204Y0108747D01*
X0164227Y0108757D01*
X0164251Y0108764D01*
X0164275Y0108768D01*
X0164301Y0108768D01*
X0164325Y0108764D01*
X0164349Y0108757D01*
X0164372Y0108747D01*
X0164393Y0108734D01*
X0164413Y0108718D01*
X0164429Y0108699D01*
X0164443Y0108678D01*
X0164454Y0108656D01*
X0164462Y0108632D01*
X0164466Y0108607D01*
X0163753Y0108322D02*
X0163643Y0108297D01*
X0163534Y0108269D01*
X0163426Y0108238D01*
X0163318Y0108204D01*
X0163212Y0108167D01*
X0163106Y0108126D01*
X0163002Y0108083D01*
X0162899Y0108037D01*
X0164467Y0107539D02*
X0164479Y0107672D01*
X0164487Y0107805D01*
X0164492Y0107939D01*
X0164494Y0108073D01*
X0164492Y0108207D01*
X0164487Y0108341D01*
X0164479Y0108474D01*
X0164467Y0108607D01*
X0168884Y0100983D02*
X0168884Y0100770D01*
X0168884Y0100556D01*
X0168883Y0100556D02*
X0168885Y0100517D01*
X0168890Y0100477D01*
X0168899Y0100439D01*
X0168912Y0100401D01*
X0168928Y0100365D01*
X0168947Y0100331D01*
X0168969Y0100298D01*
X0168995Y0100268D01*
X0169023Y0100240D01*
X0169053Y0100214D01*
X0169086Y0100192D01*
X0169120Y0100173D01*
X0169156Y0100157D01*
X0169194Y0100144D01*
X0169232Y0100135D01*
X0169272Y0100130D01*
X0169311Y0100128D01*
X0172660Y0100128D01*
X0172692Y0100130D01*
X0172723Y0100135D01*
X0172754Y0100144D01*
X0172784Y0100156D01*
X0172812Y0100172D01*
X0172838Y0100190D01*
X0172862Y0100211D01*
X0172883Y0100235D01*
X0172901Y0100261D01*
X0172917Y0100289D01*
X0172929Y0100319D01*
X0172938Y0100350D01*
X0172943Y0100381D01*
X0172945Y0100413D01*
X0172945Y0100912D01*
X0175581Y0108321D02*
X0175869Y0108263D01*
X0176156Y0108198D01*
X0176441Y0108127D01*
X0176724Y0108049D01*
X0177006Y0107965D01*
X0164609Y0108464D02*
X0164394Y0108436D01*
X0164180Y0108403D01*
X0163967Y0108365D01*
X0163754Y0108322D01*
X0150858Y0115874D02*
X0189332Y0077400D01*
X0172874Y0085024D02*
X0172876Y0085110D01*
X0172882Y0085195D01*
X0172892Y0085280D01*
X0172906Y0085364D01*
X0172923Y0085448D01*
X0172945Y0085531D01*
X0172970Y0085613D01*
X0172999Y0085693D01*
X0173032Y0085772D01*
X0173068Y0085850D01*
X0173108Y0085925D01*
X0173151Y0085999D01*
X0173198Y0086071D01*
X0173248Y0086140D01*
X0173301Y0086207D01*
X0173357Y0086272D01*
X0173416Y0086334D01*
X0173478Y0086393D01*
X0173543Y0086449D01*
X0173610Y0086502D01*
X0173679Y0086552D01*
X0173751Y0086599D01*
X0173825Y0086642D01*
X0173900Y0086682D01*
X0173978Y0086718D01*
X0174057Y0086751D01*
X0174137Y0086780D01*
X0174219Y0086805D01*
X0174302Y0086827D01*
X0174386Y0086844D01*
X0174470Y0086858D01*
X0174555Y0086868D01*
X0174640Y0086874D01*
X0174726Y0086876D01*
X0174812Y0086874D01*
X0174897Y0086868D01*
X0174982Y0086858D01*
X0175066Y0086844D01*
X0175150Y0086827D01*
X0175233Y0086805D01*
X0175315Y0086780D01*
X0175395Y0086751D01*
X0175474Y0086718D01*
X0175552Y0086682D01*
X0175627Y0086642D01*
X0175701Y0086599D01*
X0175773Y0086552D01*
X0175842Y0086502D01*
X0175909Y0086449D01*
X0175974Y0086393D01*
X0176036Y0086334D01*
X0176095Y0086272D01*
X0176151Y0086207D01*
X0176204Y0086140D01*
X0176254Y0086071D01*
X0176301Y0085999D01*
X0176344Y0085925D01*
X0176384Y0085850D01*
X0176420Y0085772D01*
X0176453Y0085693D01*
X0176482Y0085613D01*
X0176507Y0085531D01*
X0176529Y0085448D01*
X0176546Y0085364D01*
X0176560Y0085280D01*
X0176570Y0085195D01*
X0176576Y0085110D01*
X0176578Y0085024D01*
X0176576Y0084938D01*
X0176570Y0084853D01*
X0176560Y0084768D01*
X0176546Y0084684D01*
X0176529Y0084600D01*
X0176507Y0084517D01*
X0176482Y0084435D01*
X0176453Y0084355D01*
X0176420Y0084276D01*
X0176384Y0084198D01*
X0176344Y0084123D01*
X0176301Y0084049D01*
X0176254Y0083977D01*
X0176204Y0083908D01*
X0176151Y0083841D01*
X0176095Y0083776D01*
X0176036Y0083714D01*
X0175974Y0083655D01*
X0175909Y0083599D01*
X0175842Y0083546D01*
X0175773Y0083496D01*
X0175701Y0083449D01*
X0175627Y0083406D01*
X0175552Y0083366D01*
X0175474Y0083330D01*
X0175395Y0083297D01*
X0175315Y0083268D01*
X0175233Y0083243D01*
X0175150Y0083221D01*
X0175066Y0083204D01*
X0174982Y0083190D01*
X0174897Y0083180D01*
X0174812Y0083174D01*
X0174726Y0083172D01*
X0174640Y0083174D01*
X0174555Y0083180D01*
X0174470Y0083190D01*
X0174386Y0083204D01*
X0174302Y0083221D01*
X0174219Y0083243D01*
X0174137Y0083268D01*
X0174057Y0083297D01*
X0173978Y0083330D01*
X0173900Y0083366D01*
X0173825Y0083406D01*
X0173751Y0083449D01*
X0173679Y0083496D01*
X0173610Y0083546D01*
X0173543Y0083599D01*
X0173478Y0083655D01*
X0173416Y0083714D01*
X0173357Y0083776D01*
X0173301Y0083841D01*
X0173248Y0083908D01*
X0173198Y0083977D01*
X0173151Y0084049D01*
X0173108Y0084123D01*
X0173068Y0084198D01*
X0173032Y0084276D01*
X0172999Y0084355D01*
X0172970Y0084435D01*
X0172945Y0084517D01*
X0172923Y0084600D01*
X0172906Y0084684D01*
X0172892Y0084768D01*
X0172882Y0084853D01*
X0172876Y0084938D01*
X0172874Y0085024D01*
X0168172Y0108679D02*
X0167458Y0108670D01*
X0166744Y0108645D01*
X0166031Y0108602D01*
X0165319Y0108542D01*
X0164609Y0108465D01*
X0173231Y0108608D02*
X0173625Y0108583D01*
X0174018Y0108548D01*
X0174411Y0108505D01*
X0174803Y0108453D01*
X0175193Y0108393D01*
X0175582Y0108323D01*
X0165607Y0084739D02*
X0165501Y0084762D01*
X0165394Y0084782D01*
X0165287Y0084798D01*
X0165179Y0084810D01*
M02*
