%
M48
M72
T01C0.02756
T02C0.03200
T03C0.03600
T04C0.04000
T05C0.04331
T06C0.04400
T07C0.04700
T08C0.08661
T09C0.11024
%
T01
X199668Y113800
X199668Y103800
X234668Y103800
X234668Y113800
T02
X211668Y173800
X116668Y33800
X116668Y18800
X152668Y18800
X152668Y33800
X179668Y43800
X189668Y43800
X199668Y43800
X209668Y43800
X209668Y73800
X199668Y73800
X189668Y73800
X179668Y73800
X152668Y88800
X116668Y88800
X194668Y135800
X169668Y153800
X169668Y163800
X194668Y171800
X247668Y173800
T03
X80928Y52580
X80928Y43237
X80928Y34363
X80928Y25020
T04
X239668Y53800
X239668Y63800
X239668Y73800
X239668Y83800
X238568Y136000
X220768Y136000
X220768Y161600
X238568Y161600
X154668Y128800
X144668Y128800
X134668Y128800
X124668Y128800
X209668Y13800
X199668Y13800
X189668Y13800
X179668Y13800
T05
X71085Y29942
X71085Y47658
T06
X114668Y48800
X114668Y68800
X154668Y68800
X154668Y48800
T07
X79668Y143800
X94668Y143800
X94668Y128800
X79668Y128800
X79668Y113800
X94668Y113800
X94668Y98800
X79668Y98800
X79668Y83800
X94668Y83800
T08
X71479Y61635
X71479Y15965
T09
X89668Y168800
X234668Y28800
M30
