G75*
%MOIN*%
%OFA0B0*%
%FSLAX25Y25*%
%IPPOS*%
%LPD*%
%AMOC8*
5,1,8,0,0,1.08239X$1,22.5*
%
%ADD10C,0.00000*%
%ADD11C,0.05600*%
%ADD12C,0.00570*%
D10*
X0059668Y0010871D02*
X0059668Y0140747D01*
X0084156Y0168800D02*
X0084158Y0168948D01*
X0084164Y0169096D01*
X0084174Y0169244D01*
X0084188Y0169391D01*
X0084206Y0169538D01*
X0084227Y0169684D01*
X0084253Y0169830D01*
X0084283Y0169975D01*
X0084316Y0170119D01*
X0084354Y0170262D01*
X0084395Y0170404D01*
X0084440Y0170545D01*
X0084488Y0170685D01*
X0084541Y0170824D01*
X0084597Y0170961D01*
X0084657Y0171096D01*
X0084720Y0171230D01*
X0084787Y0171362D01*
X0084858Y0171492D01*
X0084932Y0171620D01*
X0085009Y0171746D01*
X0085090Y0171870D01*
X0085174Y0171992D01*
X0085261Y0172111D01*
X0085352Y0172228D01*
X0085446Y0172343D01*
X0085542Y0172455D01*
X0085642Y0172565D01*
X0085744Y0172671D01*
X0085850Y0172775D01*
X0085958Y0172876D01*
X0086069Y0172974D01*
X0086182Y0173070D01*
X0086298Y0173162D01*
X0086416Y0173251D01*
X0086537Y0173336D01*
X0086660Y0173419D01*
X0086785Y0173498D01*
X0086912Y0173574D01*
X0087041Y0173646D01*
X0087172Y0173715D01*
X0087305Y0173780D01*
X0087440Y0173841D01*
X0087576Y0173899D01*
X0087713Y0173954D01*
X0087852Y0174004D01*
X0087993Y0174051D01*
X0088134Y0174094D01*
X0088277Y0174134D01*
X0088421Y0174169D01*
X0088565Y0174201D01*
X0088711Y0174228D01*
X0088857Y0174252D01*
X0089004Y0174272D01*
X0089151Y0174288D01*
X0089298Y0174300D01*
X0089446Y0174308D01*
X0089594Y0174312D01*
X0089742Y0174312D01*
X0089890Y0174308D01*
X0090038Y0174300D01*
X0090185Y0174288D01*
X0090332Y0174272D01*
X0090479Y0174252D01*
X0090625Y0174228D01*
X0090771Y0174201D01*
X0090915Y0174169D01*
X0091059Y0174134D01*
X0091202Y0174094D01*
X0091343Y0174051D01*
X0091484Y0174004D01*
X0091623Y0173954D01*
X0091760Y0173899D01*
X0091896Y0173841D01*
X0092031Y0173780D01*
X0092164Y0173715D01*
X0092295Y0173646D01*
X0092424Y0173574D01*
X0092551Y0173498D01*
X0092676Y0173419D01*
X0092799Y0173336D01*
X0092920Y0173251D01*
X0093038Y0173162D01*
X0093154Y0173070D01*
X0093267Y0172974D01*
X0093378Y0172876D01*
X0093486Y0172775D01*
X0093592Y0172671D01*
X0093694Y0172565D01*
X0093794Y0172455D01*
X0093890Y0172343D01*
X0093984Y0172228D01*
X0094075Y0172111D01*
X0094162Y0171992D01*
X0094246Y0171870D01*
X0094327Y0171746D01*
X0094404Y0171620D01*
X0094478Y0171492D01*
X0094549Y0171362D01*
X0094616Y0171230D01*
X0094679Y0171096D01*
X0094739Y0170961D01*
X0094795Y0170824D01*
X0094848Y0170685D01*
X0094896Y0170545D01*
X0094941Y0170404D01*
X0094982Y0170262D01*
X0095020Y0170119D01*
X0095053Y0169975D01*
X0095083Y0169830D01*
X0095109Y0169684D01*
X0095130Y0169538D01*
X0095148Y0169391D01*
X0095162Y0169244D01*
X0095172Y0169096D01*
X0095178Y0168948D01*
X0095180Y0168800D01*
X0095178Y0168652D01*
X0095172Y0168504D01*
X0095162Y0168356D01*
X0095148Y0168209D01*
X0095130Y0168062D01*
X0095109Y0167916D01*
X0095083Y0167770D01*
X0095053Y0167625D01*
X0095020Y0167481D01*
X0094982Y0167338D01*
X0094941Y0167196D01*
X0094896Y0167055D01*
X0094848Y0166915D01*
X0094795Y0166776D01*
X0094739Y0166639D01*
X0094679Y0166504D01*
X0094616Y0166370D01*
X0094549Y0166238D01*
X0094478Y0166108D01*
X0094404Y0165980D01*
X0094327Y0165854D01*
X0094246Y0165730D01*
X0094162Y0165608D01*
X0094075Y0165489D01*
X0093984Y0165372D01*
X0093890Y0165257D01*
X0093794Y0165145D01*
X0093694Y0165035D01*
X0093592Y0164929D01*
X0093486Y0164825D01*
X0093378Y0164724D01*
X0093267Y0164626D01*
X0093154Y0164530D01*
X0093038Y0164438D01*
X0092920Y0164349D01*
X0092799Y0164264D01*
X0092676Y0164181D01*
X0092551Y0164102D01*
X0092424Y0164026D01*
X0092295Y0163954D01*
X0092164Y0163885D01*
X0092031Y0163820D01*
X0091896Y0163759D01*
X0091760Y0163701D01*
X0091623Y0163646D01*
X0091484Y0163596D01*
X0091343Y0163549D01*
X0091202Y0163506D01*
X0091059Y0163466D01*
X0090915Y0163431D01*
X0090771Y0163399D01*
X0090625Y0163372D01*
X0090479Y0163348D01*
X0090332Y0163328D01*
X0090185Y0163312D01*
X0090038Y0163300D01*
X0089890Y0163292D01*
X0089742Y0163288D01*
X0089594Y0163288D01*
X0089446Y0163292D01*
X0089298Y0163300D01*
X0089151Y0163312D01*
X0089004Y0163328D01*
X0088857Y0163348D01*
X0088711Y0163372D01*
X0088565Y0163399D01*
X0088421Y0163431D01*
X0088277Y0163466D01*
X0088134Y0163506D01*
X0087993Y0163549D01*
X0087852Y0163596D01*
X0087713Y0163646D01*
X0087576Y0163701D01*
X0087440Y0163759D01*
X0087305Y0163820D01*
X0087172Y0163885D01*
X0087041Y0163954D01*
X0086912Y0164026D01*
X0086785Y0164102D01*
X0086660Y0164181D01*
X0086537Y0164264D01*
X0086416Y0164349D01*
X0086298Y0164438D01*
X0086182Y0164530D01*
X0086069Y0164626D01*
X0085958Y0164724D01*
X0085850Y0164825D01*
X0085744Y0164929D01*
X0085642Y0165035D01*
X0085542Y0165145D01*
X0085446Y0165257D01*
X0085352Y0165372D01*
X0085261Y0165489D01*
X0085174Y0165608D01*
X0085090Y0165730D01*
X0085009Y0165854D01*
X0084932Y0165980D01*
X0084858Y0166108D01*
X0084787Y0166238D01*
X0084720Y0166370D01*
X0084657Y0166504D01*
X0084597Y0166639D01*
X0084541Y0166776D01*
X0084488Y0166915D01*
X0084440Y0167055D01*
X0084395Y0167196D01*
X0084354Y0167338D01*
X0084316Y0167481D01*
X0084283Y0167625D01*
X0084253Y0167770D01*
X0084227Y0167916D01*
X0084206Y0168062D01*
X0084188Y0168209D01*
X0084174Y0168356D01*
X0084164Y0168504D01*
X0084158Y0168652D01*
X0084156Y0168800D01*
X0059667Y0140747D02*
X0059684Y0142195D01*
X0059737Y0143641D01*
X0059824Y0145086D01*
X0059947Y0146529D01*
X0060104Y0147968D01*
X0060296Y0149402D01*
X0060522Y0150832D01*
X0060783Y0152256D01*
X0061078Y0153673D01*
X0061408Y0155083D01*
X0061771Y0156484D01*
X0062168Y0157876D01*
X0062599Y0159258D01*
X0063063Y0160630D01*
X0063560Y0161989D01*
X0064089Y0163336D01*
X0064651Y0164671D01*
X0065246Y0165991D01*
X0065871Y0167296D01*
X0066529Y0168586D01*
X0067217Y0169859D01*
X0067936Y0171116D01*
X0068684Y0172355D01*
X0069463Y0173575D01*
X0070271Y0174776D01*
X0071108Y0175958D01*
X0071973Y0177118D01*
X0072865Y0178258D01*
X0073785Y0179376D01*
X0074732Y0180471D01*
X0075705Y0181543D01*
X0076704Y0182591D01*
X0077727Y0183614D01*
X0078775Y0184613D01*
X0079847Y0185586D01*
X0080942Y0186533D01*
X0082060Y0187453D01*
X0083200Y0188345D01*
X0084360Y0189210D01*
X0085542Y0190047D01*
X0086743Y0190855D01*
X0087963Y0191634D01*
X0089202Y0192382D01*
X0090459Y0193101D01*
X0091732Y0193789D01*
X0093022Y0194447D01*
X0094327Y0195072D01*
X0095647Y0195667D01*
X0096982Y0196229D01*
X0098329Y0196758D01*
X0099688Y0197255D01*
X0101060Y0197719D01*
X0102442Y0198150D01*
X0103834Y0198547D01*
X0105235Y0198910D01*
X0106645Y0199240D01*
X0108062Y0199535D01*
X0109486Y0199796D01*
X0110916Y0200022D01*
X0112350Y0200214D01*
X0113789Y0200371D01*
X0115232Y0200494D01*
X0116677Y0200581D01*
X0118123Y0200634D01*
X0119571Y0200651D01*
X0119571Y0200650D02*
X0218546Y0200650D01*
X0219464Y0200639D01*
X0220381Y0200606D01*
X0221296Y0200550D01*
X0222211Y0200473D01*
X0223123Y0200373D01*
X0224033Y0200252D01*
X0224939Y0200108D01*
X0225841Y0199943D01*
X0226740Y0199755D01*
X0227633Y0199547D01*
X0228522Y0199316D01*
X0229404Y0199065D01*
X0230280Y0198792D01*
X0231149Y0198497D01*
X0232011Y0198182D01*
X0232865Y0197847D01*
X0233711Y0197490D01*
X0234547Y0197114D01*
X0235375Y0196717D01*
X0236192Y0196301D01*
X0237000Y0195864D01*
X0237796Y0195409D01*
X0238582Y0194934D01*
X0239355Y0194440D01*
X0240117Y0193928D01*
X0240865Y0193398D01*
X0241601Y0192850D01*
X0242324Y0192284D01*
X0243032Y0191701D01*
X0243726Y0191100D01*
X0244406Y0190484D01*
X0245070Y0189851D01*
X0245719Y0189202D01*
X0246352Y0188538D01*
X0246968Y0187858D01*
X0247569Y0187164D01*
X0248152Y0186456D01*
X0248718Y0185733D01*
X0249266Y0184997D01*
X0249796Y0184249D01*
X0250308Y0183487D01*
X0250802Y0182714D01*
X0251277Y0181928D01*
X0251732Y0181132D01*
X0252169Y0180324D01*
X0252585Y0179507D01*
X0252982Y0178679D01*
X0253358Y0177843D01*
X0253715Y0176997D01*
X0254050Y0176143D01*
X0254365Y0175281D01*
X0254660Y0174412D01*
X0254933Y0173536D01*
X0255184Y0172654D01*
X0255415Y0171765D01*
X0255623Y0170872D01*
X0255811Y0169973D01*
X0255976Y0169071D01*
X0256120Y0168165D01*
X0256241Y0167255D01*
X0256341Y0166343D01*
X0256418Y0165428D01*
X0256474Y0164513D01*
X0256507Y0163596D01*
X0256518Y0162678D01*
X0256518Y0033422D01*
X0229156Y0028800D02*
X0229158Y0028948D01*
X0229164Y0029096D01*
X0229174Y0029244D01*
X0229188Y0029391D01*
X0229206Y0029538D01*
X0229227Y0029684D01*
X0229253Y0029830D01*
X0229283Y0029975D01*
X0229316Y0030119D01*
X0229354Y0030262D01*
X0229395Y0030404D01*
X0229440Y0030545D01*
X0229488Y0030685D01*
X0229541Y0030824D01*
X0229597Y0030961D01*
X0229657Y0031096D01*
X0229720Y0031230D01*
X0229787Y0031362D01*
X0229858Y0031492D01*
X0229932Y0031620D01*
X0230009Y0031746D01*
X0230090Y0031870D01*
X0230174Y0031992D01*
X0230261Y0032111D01*
X0230352Y0032228D01*
X0230446Y0032343D01*
X0230542Y0032455D01*
X0230642Y0032565D01*
X0230744Y0032671D01*
X0230850Y0032775D01*
X0230958Y0032876D01*
X0231069Y0032974D01*
X0231182Y0033070D01*
X0231298Y0033162D01*
X0231416Y0033251D01*
X0231537Y0033336D01*
X0231660Y0033419D01*
X0231785Y0033498D01*
X0231912Y0033574D01*
X0232041Y0033646D01*
X0232172Y0033715D01*
X0232305Y0033780D01*
X0232440Y0033841D01*
X0232576Y0033899D01*
X0232713Y0033954D01*
X0232852Y0034004D01*
X0232993Y0034051D01*
X0233134Y0034094D01*
X0233277Y0034134D01*
X0233421Y0034169D01*
X0233565Y0034201D01*
X0233711Y0034228D01*
X0233857Y0034252D01*
X0234004Y0034272D01*
X0234151Y0034288D01*
X0234298Y0034300D01*
X0234446Y0034308D01*
X0234594Y0034312D01*
X0234742Y0034312D01*
X0234890Y0034308D01*
X0235038Y0034300D01*
X0235185Y0034288D01*
X0235332Y0034272D01*
X0235479Y0034252D01*
X0235625Y0034228D01*
X0235771Y0034201D01*
X0235915Y0034169D01*
X0236059Y0034134D01*
X0236202Y0034094D01*
X0236343Y0034051D01*
X0236484Y0034004D01*
X0236623Y0033954D01*
X0236760Y0033899D01*
X0236896Y0033841D01*
X0237031Y0033780D01*
X0237164Y0033715D01*
X0237295Y0033646D01*
X0237424Y0033574D01*
X0237551Y0033498D01*
X0237676Y0033419D01*
X0237799Y0033336D01*
X0237920Y0033251D01*
X0238038Y0033162D01*
X0238154Y0033070D01*
X0238267Y0032974D01*
X0238378Y0032876D01*
X0238486Y0032775D01*
X0238592Y0032671D01*
X0238694Y0032565D01*
X0238794Y0032455D01*
X0238890Y0032343D01*
X0238984Y0032228D01*
X0239075Y0032111D01*
X0239162Y0031992D01*
X0239246Y0031870D01*
X0239327Y0031746D01*
X0239404Y0031620D01*
X0239478Y0031492D01*
X0239549Y0031362D01*
X0239616Y0031230D01*
X0239679Y0031096D01*
X0239739Y0030961D01*
X0239795Y0030824D01*
X0239848Y0030685D01*
X0239896Y0030545D01*
X0239941Y0030404D01*
X0239982Y0030262D01*
X0240020Y0030119D01*
X0240053Y0029975D01*
X0240083Y0029830D01*
X0240109Y0029684D01*
X0240130Y0029538D01*
X0240148Y0029391D01*
X0240162Y0029244D01*
X0240172Y0029096D01*
X0240178Y0028948D01*
X0240180Y0028800D01*
X0240178Y0028652D01*
X0240172Y0028504D01*
X0240162Y0028356D01*
X0240148Y0028209D01*
X0240130Y0028062D01*
X0240109Y0027916D01*
X0240083Y0027770D01*
X0240053Y0027625D01*
X0240020Y0027481D01*
X0239982Y0027338D01*
X0239941Y0027196D01*
X0239896Y0027055D01*
X0239848Y0026915D01*
X0239795Y0026776D01*
X0239739Y0026639D01*
X0239679Y0026504D01*
X0239616Y0026370D01*
X0239549Y0026238D01*
X0239478Y0026108D01*
X0239404Y0025980D01*
X0239327Y0025854D01*
X0239246Y0025730D01*
X0239162Y0025608D01*
X0239075Y0025489D01*
X0238984Y0025372D01*
X0238890Y0025257D01*
X0238794Y0025145D01*
X0238694Y0025035D01*
X0238592Y0024929D01*
X0238486Y0024825D01*
X0238378Y0024724D01*
X0238267Y0024626D01*
X0238154Y0024530D01*
X0238038Y0024438D01*
X0237920Y0024349D01*
X0237799Y0024264D01*
X0237676Y0024181D01*
X0237551Y0024102D01*
X0237424Y0024026D01*
X0237295Y0023954D01*
X0237164Y0023885D01*
X0237031Y0023820D01*
X0236896Y0023759D01*
X0236760Y0023701D01*
X0236623Y0023646D01*
X0236484Y0023596D01*
X0236343Y0023549D01*
X0236202Y0023506D01*
X0236059Y0023466D01*
X0235915Y0023431D01*
X0235771Y0023399D01*
X0235625Y0023372D01*
X0235479Y0023348D01*
X0235332Y0023328D01*
X0235185Y0023312D01*
X0235038Y0023300D01*
X0234890Y0023292D01*
X0234742Y0023288D01*
X0234594Y0023288D01*
X0234446Y0023292D01*
X0234298Y0023300D01*
X0234151Y0023312D01*
X0234004Y0023328D01*
X0233857Y0023348D01*
X0233711Y0023372D01*
X0233565Y0023399D01*
X0233421Y0023431D01*
X0233277Y0023466D01*
X0233134Y0023506D01*
X0232993Y0023549D01*
X0232852Y0023596D01*
X0232713Y0023646D01*
X0232576Y0023701D01*
X0232440Y0023759D01*
X0232305Y0023820D01*
X0232172Y0023885D01*
X0232041Y0023954D01*
X0231912Y0024026D01*
X0231785Y0024102D01*
X0231660Y0024181D01*
X0231537Y0024264D01*
X0231416Y0024349D01*
X0231298Y0024438D01*
X0231182Y0024530D01*
X0231069Y0024626D01*
X0230958Y0024724D01*
X0230850Y0024825D01*
X0230744Y0024929D01*
X0230642Y0025035D01*
X0230542Y0025145D01*
X0230446Y0025257D01*
X0230352Y0025372D01*
X0230261Y0025489D01*
X0230174Y0025608D01*
X0230090Y0025730D01*
X0230009Y0025854D01*
X0229932Y0025980D01*
X0229858Y0026108D01*
X0229787Y0026238D01*
X0229720Y0026370D01*
X0229657Y0026504D01*
X0229597Y0026639D01*
X0229541Y0026776D01*
X0229488Y0026915D01*
X0229440Y0027055D01*
X0229395Y0027196D01*
X0229354Y0027338D01*
X0229316Y0027481D01*
X0229283Y0027625D01*
X0229253Y0027770D01*
X0229227Y0027916D01*
X0229206Y0028062D01*
X0229188Y0028209D01*
X0229174Y0028356D01*
X0229164Y0028504D01*
X0229158Y0028652D01*
X0229156Y0028800D01*
X0226897Y0003800D02*
X0227613Y0003809D01*
X0228328Y0003835D01*
X0229043Y0003878D01*
X0229756Y0003938D01*
X0230468Y0004016D01*
X0231177Y0004111D01*
X0231884Y0004223D01*
X0232588Y0004352D01*
X0233289Y0004498D01*
X0233986Y0004661D01*
X0234679Y0004840D01*
X0235367Y0005037D01*
X0236051Y0005250D01*
X0236729Y0005479D01*
X0237401Y0005725D01*
X0238067Y0005987D01*
X0238727Y0006265D01*
X0239380Y0006559D01*
X0240025Y0006868D01*
X0240663Y0007193D01*
X0241293Y0007533D01*
X0241914Y0007889D01*
X0242527Y0008259D01*
X0243130Y0008644D01*
X0243724Y0009044D01*
X0244308Y0009457D01*
X0244882Y0009885D01*
X0245446Y0010326D01*
X0245999Y0010781D01*
X0246540Y0011250D01*
X0247070Y0011731D01*
X0247588Y0012225D01*
X0248094Y0012731D01*
X0248588Y0013249D01*
X0249069Y0013779D01*
X0249538Y0014320D01*
X0249993Y0014873D01*
X0250434Y0015437D01*
X0250862Y0016011D01*
X0251275Y0016595D01*
X0251675Y0017189D01*
X0252060Y0017792D01*
X0252430Y0018405D01*
X0252786Y0019026D01*
X0253126Y0019656D01*
X0253451Y0020294D01*
X0253760Y0020939D01*
X0254054Y0021592D01*
X0254332Y0022252D01*
X0254594Y0022918D01*
X0254840Y0023590D01*
X0255069Y0024268D01*
X0255282Y0024952D01*
X0255479Y0025640D01*
X0255658Y0026333D01*
X0255821Y0027030D01*
X0255967Y0027731D01*
X0256096Y0028435D01*
X0256208Y0029142D01*
X0256303Y0029851D01*
X0256381Y0030563D01*
X0256441Y0031276D01*
X0256484Y0031991D01*
X0256510Y0032706D01*
X0256519Y0033422D01*
X0226897Y0003800D02*
X0066739Y0003800D01*
X0066568Y0003802D01*
X0066397Y0003808D01*
X0066227Y0003819D01*
X0066057Y0003833D01*
X0065887Y0003852D01*
X0065717Y0003874D01*
X0065549Y0003901D01*
X0065380Y0003932D01*
X0065213Y0003967D01*
X0065047Y0004005D01*
X0064881Y0004048D01*
X0064717Y0004095D01*
X0064554Y0004146D01*
X0064392Y0004201D01*
X0064232Y0004260D01*
X0064073Y0004322D01*
X0063915Y0004388D01*
X0063759Y0004458D01*
X0063605Y0004532D01*
X0063453Y0004610D01*
X0063303Y0004691D01*
X0063154Y0004776D01*
X0063008Y0004864D01*
X0062864Y0004956D01*
X0062722Y0005052D01*
X0062583Y0005150D01*
X0062446Y0005253D01*
X0062311Y0005358D01*
X0062179Y0005467D01*
X0062050Y0005578D01*
X0061924Y0005693D01*
X0061800Y0005811D01*
X0061679Y0005932D01*
X0061561Y0006056D01*
X0061446Y0006182D01*
X0061335Y0006311D01*
X0061226Y0006443D01*
X0061121Y0006578D01*
X0061018Y0006715D01*
X0060920Y0006854D01*
X0060824Y0006996D01*
X0060732Y0007140D01*
X0060644Y0007286D01*
X0060559Y0007435D01*
X0060478Y0007585D01*
X0060400Y0007737D01*
X0060326Y0007891D01*
X0060256Y0008047D01*
X0060190Y0008205D01*
X0060128Y0008364D01*
X0060069Y0008524D01*
X0060014Y0008686D01*
X0059963Y0008849D01*
X0059916Y0009013D01*
X0059873Y0009179D01*
X0059835Y0009345D01*
X0059800Y0009512D01*
X0059769Y0009681D01*
X0059742Y0009849D01*
X0059720Y0010019D01*
X0059701Y0010189D01*
X0059687Y0010359D01*
X0059676Y0010529D01*
X0059670Y0010700D01*
X0059668Y0010871D01*
X0068920Y0029942D02*
X0068922Y0030035D01*
X0068928Y0030127D01*
X0068938Y0030219D01*
X0068952Y0030310D01*
X0068969Y0030401D01*
X0068991Y0030491D01*
X0069016Y0030580D01*
X0069045Y0030668D01*
X0069078Y0030754D01*
X0069115Y0030839D01*
X0069155Y0030923D01*
X0069199Y0031004D01*
X0069246Y0031084D01*
X0069296Y0031162D01*
X0069350Y0031237D01*
X0069407Y0031310D01*
X0069467Y0031380D01*
X0069530Y0031448D01*
X0069596Y0031513D01*
X0069664Y0031575D01*
X0069735Y0031635D01*
X0069809Y0031691D01*
X0069885Y0031744D01*
X0069963Y0031793D01*
X0070043Y0031840D01*
X0070125Y0031882D01*
X0070209Y0031922D01*
X0070294Y0031957D01*
X0070381Y0031989D01*
X0070469Y0032018D01*
X0070558Y0032042D01*
X0070648Y0032063D01*
X0070739Y0032079D01*
X0070831Y0032092D01*
X0070923Y0032101D01*
X0071016Y0032106D01*
X0071108Y0032107D01*
X0071201Y0032104D01*
X0071293Y0032097D01*
X0071385Y0032086D01*
X0071476Y0032071D01*
X0071567Y0032053D01*
X0071657Y0032030D01*
X0071745Y0032004D01*
X0071833Y0031974D01*
X0071919Y0031940D01*
X0072003Y0031903D01*
X0072086Y0031861D01*
X0072167Y0031817D01*
X0072247Y0031769D01*
X0072324Y0031718D01*
X0072398Y0031663D01*
X0072471Y0031605D01*
X0072541Y0031545D01*
X0072608Y0031481D01*
X0072672Y0031415D01*
X0072734Y0031345D01*
X0072792Y0031274D01*
X0072847Y0031200D01*
X0072899Y0031123D01*
X0072948Y0031044D01*
X0072994Y0030964D01*
X0073036Y0030881D01*
X0073074Y0030797D01*
X0073109Y0030711D01*
X0073140Y0030624D01*
X0073167Y0030536D01*
X0073190Y0030446D01*
X0073210Y0030356D01*
X0073226Y0030265D01*
X0073238Y0030173D01*
X0073246Y0030081D01*
X0073250Y0029988D01*
X0073250Y0029896D01*
X0073246Y0029803D01*
X0073238Y0029711D01*
X0073226Y0029619D01*
X0073210Y0029528D01*
X0073190Y0029438D01*
X0073167Y0029348D01*
X0073140Y0029260D01*
X0073109Y0029173D01*
X0073074Y0029087D01*
X0073036Y0029003D01*
X0072994Y0028920D01*
X0072948Y0028840D01*
X0072899Y0028761D01*
X0072847Y0028684D01*
X0072792Y0028610D01*
X0072734Y0028539D01*
X0072672Y0028469D01*
X0072608Y0028403D01*
X0072541Y0028339D01*
X0072471Y0028279D01*
X0072398Y0028221D01*
X0072324Y0028166D01*
X0072247Y0028115D01*
X0072168Y0028067D01*
X0072086Y0028023D01*
X0072003Y0027981D01*
X0071919Y0027944D01*
X0071833Y0027910D01*
X0071745Y0027880D01*
X0071657Y0027854D01*
X0071567Y0027831D01*
X0071476Y0027813D01*
X0071385Y0027798D01*
X0071293Y0027787D01*
X0071201Y0027780D01*
X0071108Y0027777D01*
X0071016Y0027778D01*
X0070923Y0027783D01*
X0070831Y0027792D01*
X0070739Y0027805D01*
X0070648Y0027821D01*
X0070558Y0027842D01*
X0070469Y0027866D01*
X0070381Y0027895D01*
X0070294Y0027927D01*
X0070209Y0027962D01*
X0070125Y0028002D01*
X0070043Y0028044D01*
X0069963Y0028091D01*
X0069885Y0028140D01*
X0069809Y0028193D01*
X0069735Y0028249D01*
X0069664Y0028309D01*
X0069596Y0028371D01*
X0069530Y0028436D01*
X0069467Y0028504D01*
X0069407Y0028574D01*
X0069350Y0028647D01*
X0069296Y0028722D01*
X0069246Y0028800D01*
X0069199Y0028880D01*
X0069155Y0028961D01*
X0069115Y0029045D01*
X0069078Y0029130D01*
X0069045Y0029216D01*
X0069016Y0029304D01*
X0068991Y0029393D01*
X0068969Y0029483D01*
X0068952Y0029574D01*
X0068938Y0029665D01*
X0068928Y0029757D01*
X0068922Y0029849D01*
X0068920Y0029942D01*
X0068920Y0047658D02*
X0068922Y0047751D01*
X0068928Y0047843D01*
X0068938Y0047935D01*
X0068952Y0048026D01*
X0068969Y0048117D01*
X0068991Y0048207D01*
X0069016Y0048296D01*
X0069045Y0048384D01*
X0069078Y0048470D01*
X0069115Y0048555D01*
X0069155Y0048639D01*
X0069199Y0048720D01*
X0069246Y0048800D01*
X0069296Y0048878D01*
X0069350Y0048953D01*
X0069407Y0049026D01*
X0069467Y0049096D01*
X0069530Y0049164D01*
X0069596Y0049229D01*
X0069664Y0049291D01*
X0069735Y0049351D01*
X0069809Y0049407D01*
X0069885Y0049460D01*
X0069963Y0049509D01*
X0070043Y0049556D01*
X0070125Y0049598D01*
X0070209Y0049638D01*
X0070294Y0049673D01*
X0070381Y0049705D01*
X0070469Y0049734D01*
X0070558Y0049758D01*
X0070648Y0049779D01*
X0070739Y0049795D01*
X0070831Y0049808D01*
X0070923Y0049817D01*
X0071016Y0049822D01*
X0071108Y0049823D01*
X0071201Y0049820D01*
X0071293Y0049813D01*
X0071385Y0049802D01*
X0071476Y0049787D01*
X0071567Y0049769D01*
X0071657Y0049746D01*
X0071745Y0049720D01*
X0071833Y0049690D01*
X0071919Y0049656D01*
X0072003Y0049619D01*
X0072086Y0049577D01*
X0072167Y0049533D01*
X0072247Y0049485D01*
X0072324Y0049434D01*
X0072398Y0049379D01*
X0072471Y0049321D01*
X0072541Y0049261D01*
X0072608Y0049197D01*
X0072672Y0049131D01*
X0072734Y0049061D01*
X0072792Y0048990D01*
X0072847Y0048916D01*
X0072899Y0048839D01*
X0072948Y0048760D01*
X0072994Y0048680D01*
X0073036Y0048597D01*
X0073074Y0048513D01*
X0073109Y0048427D01*
X0073140Y0048340D01*
X0073167Y0048252D01*
X0073190Y0048162D01*
X0073210Y0048072D01*
X0073226Y0047981D01*
X0073238Y0047889D01*
X0073246Y0047797D01*
X0073250Y0047704D01*
X0073250Y0047612D01*
X0073246Y0047519D01*
X0073238Y0047427D01*
X0073226Y0047335D01*
X0073210Y0047244D01*
X0073190Y0047154D01*
X0073167Y0047064D01*
X0073140Y0046976D01*
X0073109Y0046889D01*
X0073074Y0046803D01*
X0073036Y0046719D01*
X0072994Y0046636D01*
X0072948Y0046556D01*
X0072899Y0046477D01*
X0072847Y0046400D01*
X0072792Y0046326D01*
X0072734Y0046255D01*
X0072672Y0046185D01*
X0072608Y0046119D01*
X0072541Y0046055D01*
X0072471Y0045995D01*
X0072398Y0045937D01*
X0072324Y0045882D01*
X0072247Y0045831D01*
X0072168Y0045783D01*
X0072086Y0045739D01*
X0072003Y0045697D01*
X0071919Y0045660D01*
X0071833Y0045626D01*
X0071745Y0045596D01*
X0071657Y0045570D01*
X0071567Y0045547D01*
X0071476Y0045529D01*
X0071385Y0045514D01*
X0071293Y0045503D01*
X0071201Y0045496D01*
X0071108Y0045493D01*
X0071016Y0045494D01*
X0070923Y0045499D01*
X0070831Y0045508D01*
X0070739Y0045521D01*
X0070648Y0045537D01*
X0070558Y0045558D01*
X0070469Y0045582D01*
X0070381Y0045611D01*
X0070294Y0045643D01*
X0070209Y0045678D01*
X0070125Y0045718D01*
X0070043Y0045760D01*
X0069963Y0045807D01*
X0069885Y0045856D01*
X0069809Y0045909D01*
X0069735Y0045965D01*
X0069664Y0046025D01*
X0069596Y0046087D01*
X0069530Y0046152D01*
X0069467Y0046220D01*
X0069407Y0046290D01*
X0069350Y0046363D01*
X0069296Y0046438D01*
X0069246Y0046516D01*
X0069199Y0046596D01*
X0069155Y0046677D01*
X0069115Y0046761D01*
X0069078Y0046846D01*
X0069045Y0046932D01*
X0069016Y0047020D01*
X0068991Y0047109D01*
X0068969Y0047199D01*
X0068952Y0047290D01*
X0068938Y0047381D01*
X0068928Y0047473D01*
X0068922Y0047565D01*
X0068920Y0047658D01*
D11*
X0059668Y0010871D02*
X0059668Y0144717D01*
X0059684Y0146024D01*
X0059731Y0147330D01*
X0059810Y0148634D01*
X0059920Y0149937D01*
X0060062Y0151236D01*
X0060236Y0152531D01*
X0060440Y0153822D01*
X0060676Y0155108D01*
X0060942Y0156387D01*
X0061240Y0157660D01*
X0061568Y0158925D01*
X0061926Y0160182D01*
X0062315Y0161430D01*
X0062734Y0162668D01*
X0063183Y0163895D01*
X0063661Y0165111D01*
X0064168Y0166316D01*
X0064705Y0167508D01*
X0065270Y0168686D01*
X0065863Y0169851D01*
X0066484Y0171000D01*
X0067133Y0172135D01*
X0067809Y0173253D01*
X0068512Y0174355D01*
X0069242Y0175440D01*
X0069997Y0176506D01*
X0070778Y0177554D01*
X0071584Y0178583D01*
X0072415Y0179592D01*
X0073269Y0180581D01*
X0074148Y0181548D01*
X0075049Y0182495D01*
X0075973Y0183419D01*
X0076920Y0184320D01*
X0077887Y0185199D01*
X0078876Y0186053D01*
X0079885Y0186884D01*
X0080914Y0187690D01*
X0081962Y0188471D01*
X0083028Y0189226D01*
X0084113Y0189956D01*
X0085215Y0190659D01*
X0086333Y0191335D01*
X0087468Y0191984D01*
X0088617Y0192605D01*
X0089782Y0193198D01*
X0090960Y0193763D01*
X0092152Y0194300D01*
X0093357Y0194807D01*
X0094573Y0195285D01*
X0095800Y0195734D01*
X0097038Y0196153D01*
X0098286Y0196542D01*
X0099543Y0196900D01*
X0100808Y0197228D01*
X0102081Y0197526D01*
X0103360Y0197792D01*
X0104646Y0198028D01*
X0105937Y0198232D01*
X0107232Y0198406D01*
X0108531Y0198548D01*
X0109834Y0198658D01*
X0111138Y0198737D01*
X0112444Y0198784D01*
X0113751Y0198800D01*
X0225513Y0198800D01*
X0226217Y0198791D01*
X0226922Y0198766D01*
X0227625Y0198723D01*
X0228327Y0198664D01*
X0229027Y0198587D01*
X0229726Y0198494D01*
X0230421Y0198384D01*
X0231114Y0198257D01*
X0231804Y0198113D01*
X0232490Y0197953D01*
X0233172Y0197776D01*
X0233850Y0197583D01*
X0234522Y0197373D01*
X0235190Y0197147D01*
X0235852Y0196905D01*
X0236507Y0196648D01*
X0237156Y0196374D01*
X0237799Y0196085D01*
X0238434Y0195780D01*
X0239062Y0195460D01*
X0239682Y0195126D01*
X0240293Y0194776D01*
X0240896Y0194411D01*
X0241490Y0194032D01*
X0242075Y0193639D01*
X0242650Y0193232D01*
X0243215Y0192811D01*
X0243769Y0192376D01*
X0244313Y0191929D01*
X0244846Y0191468D01*
X0245368Y0190994D01*
X0245878Y0190508D01*
X0246376Y0190010D01*
X0246862Y0189500D01*
X0247336Y0188978D01*
X0247797Y0188445D01*
X0248244Y0187901D01*
X0248679Y0187347D01*
X0249100Y0186782D01*
X0249507Y0186207D01*
X0249900Y0185622D01*
X0250279Y0185028D01*
X0250644Y0184425D01*
X0250994Y0183814D01*
X0251328Y0183194D01*
X0251648Y0182566D01*
X0251953Y0181931D01*
X0252242Y0181288D01*
X0252516Y0180639D01*
X0252773Y0179984D01*
X0253015Y0179322D01*
X0253241Y0178654D01*
X0253451Y0177982D01*
X0253644Y0177304D01*
X0253821Y0176622D01*
X0253981Y0175936D01*
X0254125Y0175246D01*
X0254252Y0174553D01*
X0254362Y0173858D01*
X0254455Y0173159D01*
X0254532Y0172459D01*
X0254591Y0171757D01*
X0254634Y0171054D01*
X0254659Y0170349D01*
X0254668Y0169645D01*
X0254668Y0028800D01*
X0254661Y0028196D01*
X0254639Y0027592D01*
X0254602Y0026989D01*
X0254551Y0026387D01*
X0254486Y0025787D01*
X0254406Y0025188D01*
X0254311Y0024591D01*
X0254202Y0023997D01*
X0254079Y0023405D01*
X0253942Y0022817D01*
X0253790Y0022232D01*
X0253624Y0021651D01*
X0253444Y0021075D01*
X0253251Y0020502D01*
X0253043Y0019935D01*
X0252822Y0019373D01*
X0252588Y0018816D01*
X0252340Y0018265D01*
X0252079Y0017720D01*
X0251804Y0017182D01*
X0251517Y0016650D01*
X0251217Y0016126D01*
X0250905Y0015609D01*
X0250580Y0015100D01*
X0250243Y0014598D01*
X0249893Y0014105D01*
X0249532Y0013621D01*
X0249160Y0013145D01*
X0248776Y0012679D01*
X0248381Y0012222D01*
X0247975Y0011775D01*
X0247558Y0011337D01*
X0247131Y0010910D01*
X0246693Y0010493D01*
X0246246Y0010087D01*
X0245789Y0009692D01*
X0245323Y0009308D01*
X0244847Y0008936D01*
X0244363Y0008575D01*
X0243870Y0008225D01*
X0243368Y0007888D01*
X0242859Y0007563D01*
X0242342Y0007251D01*
X0241818Y0006951D01*
X0241286Y0006664D01*
X0240748Y0006389D01*
X0240203Y0006128D01*
X0239652Y0005880D01*
X0239095Y0005646D01*
X0238533Y0005425D01*
X0237966Y0005217D01*
X0237393Y0005024D01*
X0236817Y0004844D01*
X0236236Y0004678D01*
X0235651Y0004526D01*
X0235063Y0004389D01*
X0234471Y0004266D01*
X0233877Y0004157D01*
X0233280Y0004062D01*
X0232681Y0003982D01*
X0232081Y0003917D01*
X0231479Y0003866D01*
X0230876Y0003829D01*
X0230272Y0003807D01*
X0229668Y0003800D01*
X0066739Y0003800D01*
X0066568Y0003802D01*
X0066397Y0003808D01*
X0066227Y0003819D01*
X0066057Y0003833D01*
X0065887Y0003852D01*
X0065717Y0003874D01*
X0065549Y0003901D01*
X0065380Y0003932D01*
X0065213Y0003967D01*
X0065047Y0004005D01*
X0064881Y0004048D01*
X0064717Y0004095D01*
X0064554Y0004146D01*
X0064392Y0004201D01*
X0064232Y0004260D01*
X0064073Y0004322D01*
X0063915Y0004388D01*
X0063759Y0004458D01*
X0063605Y0004532D01*
X0063453Y0004610D01*
X0063303Y0004691D01*
X0063154Y0004776D01*
X0063008Y0004864D01*
X0062864Y0004956D01*
X0062722Y0005052D01*
X0062583Y0005150D01*
X0062446Y0005253D01*
X0062311Y0005358D01*
X0062179Y0005467D01*
X0062050Y0005578D01*
X0061924Y0005693D01*
X0061800Y0005811D01*
X0061679Y0005932D01*
X0061561Y0006056D01*
X0061446Y0006182D01*
X0061335Y0006311D01*
X0061226Y0006443D01*
X0061121Y0006578D01*
X0061018Y0006715D01*
X0060920Y0006854D01*
X0060824Y0006996D01*
X0060732Y0007140D01*
X0060644Y0007286D01*
X0060559Y0007435D01*
X0060478Y0007585D01*
X0060400Y0007737D01*
X0060326Y0007891D01*
X0060256Y0008047D01*
X0060190Y0008205D01*
X0060128Y0008364D01*
X0060069Y0008524D01*
X0060014Y0008686D01*
X0059963Y0008849D01*
X0059916Y0009013D01*
X0059873Y0009179D01*
X0059835Y0009345D01*
X0059800Y0009512D01*
X0059769Y0009681D01*
X0059742Y0009849D01*
X0059720Y0010019D01*
X0059701Y0010189D01*
X0059687Y0010359D01*
X0059676Y0010529D01*
X0059670Y0010700D01*
X0059668Y0010871D01*
D12*
X0200003Y0137400D02*
X0238477Y0175874D01*
X0224869Y0168607D02*
X0224857Y0168474D01*
X0224849Y0168341D01*
X0224844Y0168207D01*
X0224842Y0168073D01*
X0224844Y0167939D01*
X0224849Y0167805D01*
X0224857Y0167672D01*
X0224869Y0167539D01*
X0225154Y0167467D02*
X0225225Y0168180D01*
X0225225Y0168607D02*
X0225221Y0168632D01*
X0225213Y0168656D01*
X0225202Y0168678D01*
X0225188Y0168699D01*
X0225172Y0168718D01*
X0225152Y0168734D01*
X0225131Y0168747D01*
X0225108Y0168757D01*
X0225084Y0168764D01*
X0225060Y0168768D01*
X0225034Y0168768D01*
X0225010Y0168764D01*
X0224986Y0168757D01*
X0224963Y0168747D01*
X0224942Y0168734D01*
X0224922Y0168718D01*
X0224906Y0168699D01*
X0224892Y0168678D01*
X0224881Y0168656D01*
X0224873Y0168632D01*
X0224869Y0168607D01*
X0226436Y0168037D02*
X0226478Y0168015D01*
X0226519Y0167991D01*
X0226558Y0167963D01*
X0226595Y0167932D01*
X0226629Y0167899D01*
X0226661Y0167863D01*
X0226690Y0167825D01*
X0226716Y0167785D01*
X0226739Y0167743D01*
X0226758Y0167700D01*
X0226775Y0167655D01*
X0226788Y0167609D01*
X0226797Y0167562D01*
X0226803Y0167515D01*
X0226806Y0167467D01*
X0226805Y0167419D01*
X0226800Y0167372D01*
X0226792Y0167325D01*
X0226721Y0167324D02*
X0211973Y0167324D01*
X0211759Y0167325D02*
X0211750Y0167360D01*
X0211744Y0167397D01*
X0211742Y0167434D01*
X0211743Y0167471D01*
X0211748Y0167507D01*
X0211756Y0167543D01*
X0211768Y0167578D01*
X0211783Y0167612D01*
X0211801Y0167644D01*
X0211822Y0167675D01*
X0211846Y0167703D01*
X0211873Y0167729D01*
X0211902Y0167752D01*
X0210691Y0167111D02*
X0210693Y0167164D01*
X0210699Y0167217D01*
X0210709Y0167269D01*
X0210723Y0167321D01*
X0210740Y0167371D01*
X0210762Y0167420D01*
X0210786Y0167467D01*
X0210815Y0167512D01*
X0210846Y0167555D01*
X0210881Y0167595D01*
X0210919Y0167633D01*
X0210959Y0167668D01*
X0211002Y0167699D01*
X0211047Y0167728D01*
X0211094Y0167752D01*
X0211143Y0167774D01*
X0211193Y0167791D01*
X0211245Y0167805D01*
X0211297Y0167815D01*
X0211350Y0167821D01*
X0211403Y0167823D01*
X0211456Y0167821D01*
X0211509Y0167815D01*
X0211561Y0167805D01*
X0211613Y0167791D01*
X0211663Y0167774D01*
X0211712Y0167752D01*
X0211759Y0167728D01*
X0211804Y0167699D01*
X0211847Y0167668D01*
X0211887Y0167633D01*
X0211925Y0167595D01*
X0211960Y0167555D01*
X0211991Y0167512D01*
X0212020Y0167467D01*
X0212044Y0167420D01*
X0212066Y0167371D01*
X0212083Y0167321D01*
X0212097Y0167269D01*
X0212107Y0167217D01*
X0212113Y0167164D01*
X0212115Y0167111D01*
X0212113Y0167058D01*
X0212107Y0167005D01*
X0212097Y0166953D01*
X0212083Y0166901D01*
X0212066Y0166851D01*
X0212044Y0166802D01*
X0212020Y0166755D01*
X0211991Y0166710D01*
X0211960Y0166667D01*
X0211925Y0166627D01*
X0211887Y0166589D01*
X0211847Y0166554D01*
X0211804Y0166523D01*
X0211759Y0166494D01*
X0211712Y0166470D01*
X0211663Y0166448D01*
X0211613Y0166431D01*
X0211561Y0166417D01*
X0211509Y0166407D01*
X0211456Y0166401D01*
X0211403Y0166399D01*
X0211350Y0166401D01*
X0211297Y0166407D01*
X0211245Y0166417D01*
X0211193Y0166431D01*
X0211143Y0166448D01*
X0211094Y0166470D01*
X0211047Y0166494D01*
X0211002Y0166523D01*
X0210959Y0166554D01*
X0210919Y0166589D01*
X0210881Y0166627D01*
X0210846Y0166667D01*
X0210815Y0166710D01*
X0210786Y0166755D01*
X0210762Y0166802D01*
X0210740Y0166851D01*
X0210723Y0166901D01*
X0210709Y0166953D01*
X0210699Y0167005D01*
X0210693Y0167058D01*
X0210691Y0167111D01*
X0210619Y0167111D02*
X0210619Y0167039D01*
X0210619Y0167111D02*
X0227576Y0167111D01*
X0227648Y0167111D01*
X0227719Y0167111D01*
X0227648Y0167111D02*
X0227576Y0167111D01*
X0227719Y0167110D02*
X0227746Y0167108D01*
X0227774Y0167103D01*
X0227800Y0167094D01*
X0227825Y0167082D01*
X0227848Y0167066D01*
X0227869Y0167048D01*
X0227888Y0167027D01*
X0227903Y0167004D01*
X0227916Y0166979D01*
X0227925Y0166952D01*
X0227930Y0166925D01*
X0227932Y0166897D01*
X0227933Y0166897D02*
X0227933Y0166755D01*
X0227933Y0166541D01*
X0227931Y0166519D01*
X0227926Y0166497D01*
X0227917Y0166476D01*
X0227906Y0166457D01*
X0227891Y0166440D01*
X0227874Y0166425D01*
X0227855Y0166414D01*
X0227834Y0166405D01*
X0227812Y0166400D01*
X0227790Y0166398D01*
X0226650Y0166398D01*
X0220523Y0166398D01*
X0214680Y0166398D01*
X0211260Y0166398D01*
X0211688Y0166327D02*
X0213683Y0146663D01*
X0213612Y0145024D02*
X0213614Y0145087D01*
X0213620Y0145149D01*
X0213630Y0145211D01*
X0213643Y0145272D01*
X0213661Y0145332D01*
X0213682Y0145391D01*
X0213707Y0145449D01*
X0213735Y0145504D01*
X0213767Y0145558D01*
X0213802Y0145610D01*
X0213841Y0145660D01*
X0213882Y0145706D01*
X0213927Y0145751D01*
X0213973Y0145792D01*
X0214023Y0145831D01*
X0214075Y0145866D01*
X0214129Y0145898D01*
X0214184Y0145926D01*
X0214242Y0145951D01*
X0214301Y0145972D01*
X0214361Y0145990D01*
X0214422Y0146003D01*
X0214484Y0146013D01*
X0214546Y0146019D01*
X0214609Y0146021D01*
X0214672Y0146019D01*
X0214734Y0146013D01*
X0214796Y0146003D01*
X0214857Y0145990D01*
X0214917Y0145972D01*
X0214976Y0145951D01*
X0215034Y0145926D01*
X0215089Y0145898D01*
X0215143Y0145866D01*
X0215195Y0145831D01*
X0215245Y0145792D01*
X0215291Y0145751D01*
X0215336Y0145706D01*
X0215377Y0145660D01*
X0215416Y0145610D01*
X0215451Y0145558D01*
X0215483Y0145504D01*
X0215511Y0145449D01*
X0215536Y0145391D01*
X0215557Y0145332D01*
X0215575Y0145272D01*
X0215588Y0145211D01*
X0215598Y0145149D01*
X0215604Y0145087D01*
X0215606Y0145024D01*
X0215604Y0144961D01*
X0215598Y0144899D01*
X0215588Y0144837D01*
X0215575Y0144776D01*
X0215557Y0144716D01*
X0215536Y0144657D01*
X0215511Y0144599D01*
X0215483Y0144544D01*
X0215451Y0144490D01*
X0215416Y0144438D01*
X0215377Y0144388D01*
X0215336Y0144342D01*
X0215291Y0144297D01*
X0215245Y0144256D01*
X0215195Y0144217D01*
X0215143Y0144182D01*
X0215089Y0144150D01*
X0215034Y0144122D01*
X0214976Y0144097D01*
X0214917Y0144076D01*
X0214857Y0144058D01*
X0214796Y0144045D01*
X0214734Y0144035D01*
X0214672Y0144029D01*
X0214609Y0144027D01*
X0214546Y0144029D01*
X0214484Y0144035D01*
X0214422Y0144045D01*
X0214361Y0144058D01*
X0214301Y0144076D01*
X0214242Y0144097D01*
X0214184Y0144122D01*
X0214129Y0144150D01*
X0214075Y0144182D01*
X0214023Y0144217D01*
X0213973Y0144256D01*
X0213927Y0144297D01*
X0213882Y0144342D01*
X0213841Y0144388D01*
X0213802Y0144438D01*
X0213767Y0144490D01*
X0213735Y0144544D01*
X0213707Y0144599D01*
X0213682Y0144657D01*
X0213661Y0144716D01*
X0213643Y0144776D01*
X0213630Y0144837D01*
X0213620Y0144899D01*
X0213614Y0144961D01*
X0213612Y0145024D01*
X0212757Y0145024D02*
X0212759Y0145110D01*
X0212765Y0145195D01*
X0212775Y0145280D01*
X0212789Y0145364D01*
X0212806Y0145448D01*
X0212828Y0145531D01*
X0212853Y0145613D01*
X0212882Y0145693D01*
X0212915Y0145772D01*
X0212951Y0145850D01*
X0212991Y0145925D01*
X0213034Y0145999D01*
X0213081Y0146071D01*
X0213131Y0146140D01*
X0213184Y0146207D01*
X0213240Y0146272D01*
X0213299Y0146334D01*
X0213361Y0146393D01*
X0213426Y0146449D01*
X0213493Y0146502D01*
X0213562Y0146552D01*
X0213634Y0146599D01*
X0213708Y0146642D01*
X0213783Y0146682D01*
X0213861Y0146718D01*
X0213940Y0146751D01*
X0214020Y0146780D01*
X0214102Y0146805D01*
X0214185Y0146827D01*
X0214269Y0146844D01*
X0214353Y0146858D01*
X0214438Y0146868D01*
X0214523Y0146874D01*
X0214609Y0146876D01*
X0214695Y0146874D01*
X0214780Y0146868D01*
X0214865Y0146858D01*
X0214949Y0146844D01*
X0215033Y0146827D01*
X0215116Y0146805D01*
X0215198Y0146780D01*
X0215278Y0146751D01*
X0215357Y0146718D01*
X0215435Y0146682D01*
X0215510Y0146642D01*
X0215584Y0146599D01*
X0215656Y0146552D01*
X0215725Y0146502D01*
X0215792Y0146449D01*
X0215857Y0146393D01*
X0215919Y0146334D01*
X0215978Y0146272D01*
X0216034Y0146207D01*
X0216087Y0146140D01*
X0216137Y0146071D01*
X0216184Y0145999D01*
X0216227Y0145925D01*
X0216267Y0145850D01*
X0216303Y0145772D01*
X0216336Y0145693D01*
X0216365Y0145613D01*
X0216390Y0145531D01*
X0216412Y0145448D01*
X0216429Y0145364D01*
X0216443Y0145280D01*
X0216453Y0145195D01*
X0216459Y0145110D01*
X0216461Y0145024D01*
X0216459Y0144938D01*
X0216453Y0144853D01*
X0216443Y0144768D01*
X0216429Y0144684D01*
X0216412Y0144600D01*
X0216390Y0144517D01*
X0216365Y0144435D01*
X0216336Y0144355D01*
X0216303Y0144276D01*
X0216267Y0144198D01*
X0216227Y0144123D01*
X0216184Y0144049D01*
X0216137Y0143977D01*
X0216087Y0143908D01*
X0216034Y0143841D01*
X0215978Y0143776D01*
X0215919Y0143714D01*
X0215857Y0143655D01*
X0215792Y0143599D01*
X0215725Y0143546D01*
X0215656Y0143496D01*
X0215584Y0143449D01*
X0215510Y0143406D01*
X0215435Y0143366D01*
X0215357Y0143330D01*
X0215278Y0143297D01*
X0215198Y0143268D01*
X0215116Y0143243D01*
X0215033Y0143221D01*
X0214949Y0143204D01*
X0214865Y0143190D01*
X0214780Y0143180D01*
X0214695Y0143174D01*
X0214609Y0143172D01*
X0214523Y0143174D01*
X0214438Y0143180D01*
X0214353Y0143190D01*
X0214269Y0143204D01*
X0214185Y0143221D01*
X0214102Y0143243D01*
X0214020Y0143268D01*
X0213940Y0143297D01*
X0213861Y0143330D01*
X0213783Y0143366D01*
X0213708Y0143406D01*
X0213634Y0143449D01*
X0213562Y0143496D01*
X0213493Y0143546D01*
X0213426Y0143599D01*
X0213361Y0143655D01*
X0213299Y0143714D01*
X0213240Y0143776D01*
X0213184Y0143841D01*
X0213131Y0143908D01*
X0213081Y0143977D01*
X0213034Y0144049D01*
X0212991Y0144123D01*
X0212951Y0144198D01*
X0212915Y0144276D01*
X0212882Y0144355D01*
X0212853Y0144435D01*
X0212828Y0144517D01*
X0212806Y0144600D01*
X0212789Y0144684D01*
X0212775Y0144768D01*
X0212765Y0144853D01*
X0212759Y0144938D01*
X0212757Y0145024D01*
X0216533Y0144810D02*
X0223729Y0144739D01*
X0223943Y0144596D02*
X0223943Y0143670D01*
X0223941Y0143631D01*
X0223936Y0143591D01*
X0223927Y0143553D01*
X0223914Y0143515D01*
X0223898Y0143479D01*
X0223879Y0143445D01*
X0223857Y0143412D01*
X0223831Y0143382D01*
X0223803Y0143354D01*
X0223773Y0143328D01*
X0223740Y0143306D01*
X0223706Y0143287D01*
X0223670Y0143271D01*
X0223632Y0143258D01*
X0223594Y0143249D01*
X0223554Y0143244D01*
X0223515Y0143242D01*
X0223515Y0143243D02*
X0223372Y0143243D01*
X0223373Y0143243D02*
X0223335Y0143245D01*
X0223299Y0143251D01*
X0223263Y0143261D01*
X0223228Y0143274D01*
X0223195Y0143291D01*
X0223164Y0143311D01*
X0223135Y0143335D01*
X0223108Y0143361D01*
X0223085Y0143390D01*
X0223065Y0143421D01*
X0223048Y0143454D01*
X0223034Y0143489D01*
X0223025Y0143525D01*
X0223019Y0143562D01*
X0223017Y0143599D01*
X0223017Y0144596D01*
X0224156Y0144811D02*
X0224204Y0144818D01*
X0224252Y0144828D01*
X0224298Y0144842D01*
X0224343Y0144859D01*
X0224387Y0144880D01*
X0224429Y0144904D01*
X0224469Y0144931D01*
X0224507Y0144961D01*
X0224543Y0144994D01*
X0224576Y0145029D01*
X0224606Y0145067D01*
X0224633Y0145107D01*
X0224657Y0145150D01*
X0224678Y0145193D01*
X0224695Y0145239D01*
X0224709Y0145285D01*
X0224719Y0145332D01*
X0224726Y0145380D01*
X0226793Y0166327D01*
X0226436Y0168037D02*
X0226333Y0168083D01*
X0226229Y0168126D01*
X0226123Y0168167D01*
X0226017Y0168204D01*
X0225909Y0168238D01*
X0225801Y0168269D01*
X0225692Y0168297D01*
X0225582Y0168322D01*
X0225224Y0168179D02*
X0225231Y0168265D01*
X0225235Y0168350D01*
X0225235Y0168436D01*
X0225231Y0168521D01*
X0225224Y0168607D01*
X0221164Y0168678D02*
X0220808Y0168678D01*
X0220808Y0168892D02*
X0220808Y0168322D01*
X0217530Y0168322D01*
X0217530Y0168892D01*
X0220808Y0168892D01*
X0217459Y0168678D02*
X0216105Y0168607D01*
X0212330Y0167965D02*
X0212264Y0167944D01*
X0212201Y0167919D01*
X0212138Y0167891D01*
X0212077Y0167860D01*
X0212017Y0167827D01*
X0211958Y0167791D01*
X0211902Y0167752D01*
X0210619Y0167039D02*
X0210621Y0166991D01*
X0210626Y0166943D01*
X0210635Y0166896D01*
X0210647Y0166850D01*
X0210663Y0166805D01*
X0210682Y0166761D01*
X0210705Y0166719D01*
X0210730Y0166678D01*
X0210759Y0166639D01*
X0210790Y0166603D01*
X0210824Y0166569D01*
X0210860Y0166538D01*
X0210899Y0166509D01*
X0210940Y0166484D01*
X0210982Y0166461D01*
X0211026Y0166442D01*
X0211071Y0166426D01*
X0211117Y0166414D01*
X0211164Y0166405D01*
X0211212Y0166400D01*
X0211260Y0166398D01*
X0211402Y0165115D02*
X0211450Y0165107D01*
X0211497Y0165103D01*
X0211545Y0165101D01*
X0211593Y0165103D01*
X0211640Y0165107D01*
X0211688Y0165115D01*
X0211403Y0165116D02*
X0211353Y0165124D01*
X0211303Y0165128D01*
X0211252Y0165129D01*
X0211202Y0165125D01*
X0211152Y0165118D01*
X0211103Y0165107D01*
X0211055Y0165092D01*
X0211009Y0165073D01*
X0210963Y0165051D01*
X0210920Y0165026D01*
X0210879Y0164997D01*
X0210840Y0164965D01*
X0210803Y0164930D01*
X0210770Y0164893D01*
X0210739Y0164853D01*
X0210712Y0164811D01*
X0210688Y0164766D01*
X0210667Y0164721D01*
X0210650Y0164673D01*
X0210636Y0164625D01*
X0210627Y0164575D01*
X0210621Y0164525D01*
X0210619Y0164475D01*
X0210619Y0164047D01*
X0210620Y0164047D02*
X0210622Y0163996D01*
X0210627Y0163946D01*
X0210636Y0163896D01*
X0210649Y0163847D01*
X0210665Y0163798D01*
X0210684Y0163751D01*
X0210707Y0163706D01*
X0210733Y0163662D01*
X0210762Y0163620D01*
X0210794Y0163581D01*
X0210828Y0163544D01*
X0210866Y0163509D01*
X0210905Y0163477D01*
X0210947Y0163448D01*
X0210991Y0163422D01*
X0211036Y0163399D01*
X0211083Y0163380D01*
X0211131Y0163364D01*
X0211180Y0163351D01*
X0211230Y0163342D01*
X0211281Y0163337D01*
X0211332Y0163335D01*
X0211331Y0163335D02*
X0211830Y0163335D01*
X0216390Y0160912D02*
X0216390Y0160413D01*
X0216392Y0160381D01*
X0216397Y0160350D01*
X0216406Y0160319D01*
X0216418Y0160289D01*
X0216434Y0160261D01*
X0216452Y0160235D01*
X0216473Y0160211D01*
X0216497Y0160190D01*
X0216523Y0160172D01*
X0216551Y0160156D01*
X0216581Y0160144D01*
X0216612Y0160135D01*
X0216643Y0160130D01*
X0216675Y0160128D01*
X0220024Y0160128D01*
X0220063Y0160130D01*
X0220103Y0160135D01*
X0220141Y0160144D01*
X0220179Y0160157D01*
X0220215Y0160173D01*
X0220249Y0160192D01*
X0220282Y0160214D01*
X0220312Y0160240D01*
X0220340Y0160268D01*
X0220366Y0160298D01*
X0220388Y0160331D01*
X0220407Y0160365D01*
X0220423Y0160401D01*
X0220436Y0160439D01*
X0220445Y0160477D01*
X0220450Y0160517D01*
X0220452Y0160556D01*
X0220452Y0160770D01*
X0220452Y0160983D01*
X0224727Y0168464D02*
X0224942Y0168436D01*
X0225156Y0168403D01*
X0225369Y0168365D01*
X0225582Y0168322D01*
X0213754Y0168321D02*
X0213466Y0168263D01*
X0213179Y0168198D01*
X0212894Y0168127D01*
X0212611Y0168049D01*
X0212329Y0167965D01*
X0199861Y0176017D02*
X0238620Y0137258D01*
X0224156Y0144810D02*
X0224048Y0144798D01*
X0223941Y0144782D01*
X0223834Y0144762D01*
X0223728Y0144739D01*
X0224727Y0168465D02*
X0224017Y0168542D01*
X0223305Y0168602D01*
X0222592Y0168645D01*
X0221878Y0168670D01*
X0221164Y0168679D01*
X0216105Y0168608D02*
X0215711Y0168583D01*
X0215318Y0168548D01*
X0214925Y0168505D01*
X0214533Y0168453D01*
X0214143Y0168393D01*
X0213754Y0168323D01*
M02*
