G75*
%MOIN*%
%OFA0B0*%
%FSLAX25Y25*%
%IPPOS*%
%LPD*%
%AMOC8*
5,1,8,0,0,1.08239X$1,22.5*
%
%ADD10C,0.00000*%
D10*
X0059668Y0008871D02*
X0059668Y0138747D01*
X0084156Y0166800D02*
X0084158Y0166948D01*
X0084164Y0167096D01*
X0084174Y0167244D01*
X0084188Y0167391D01*
X0084206Y0167538D01*
X0084227Y0167684D01*
X0084253Y0167830D01*
X0084283Y0167975D01*
X0084316Y0168119D01*
X0084354Y0168262D01*
X0084395Y0168404D01*
X0084440Y0168545D01*
X0084488Y0168685D01*
X0084541Y0168824D01*
X0084597Y0168961D01*
X0084657Y0169096D01*
X0084720Y0169230D01*
X0084787Y0169362D01*
X0084858Y0169492D01*
X0084932Y0169620D01*
X0085009Y0169746D01*
X0085090Y0169870D01*
X0085174Y0169992D01*
X0085261Y0170111D01*
X0085352Y0170228D01*
X0085446Y0170343D01*
X0085542Y0170455D01*
X0085642Y0170565D01*
X0085744Y0170671D01*
X0085850Y0170775D01*
X0085958Y0170876D01*
X0086069Y0170974D01*
X0086182Y0171070D01*
X0086298Y0171162D01*
X0086416Y0171251D01*
X0086537Y0171336D01*
X0086660Y0171419D01*
X0086785Y0171498D01*
X0086912Y0171574D01*
X0087041Y0171646D01*
X0087172Y0171715D01*
X0087305Y0171780D01*
X0087440Y0171841D01*
X0087576Y0171899D01*
X0087713Y0171954D01*
X0087852Y0172004D01*
X0087993Y0172051D01*
X0088134Y0172094D01*
X0088277Y0172134D01*
X0088421Y0172169D01*
X0088565Y0172201D01*
X0088711Y0172228D01*
X0088857Y0172252D01*
X0089004Y0172272D01*
X0089151Y0172288D01*
X0089298Y0172300D01*
X0089446Y0172308D01*
X0089594Y0172312D01*
X0089742Y0172312D01*
X0089890Y0172308D01*
X0090038Y0172300D01*
X0090185Y0172288D01*
X0090332Y0172272D01*
X0090479Y0172252D01*
X0090625Y0172228D01*
X0090771Y0172201D01*
X0090915Y0172169D01*
X0091059Y0172134D01*
X0091202Y0172094D01*
X0091343Y0172051D01*
X0091484Y0172004D01*
X0091623Y0171954D01*
X0091760Y0171899D01*
X0091896Y0171841D01*
X0092031Y0171780D01*
X0092164Y0171715D01*
X0092295Y0171646D01*
X0092424Y0171574D01*
X0092551Y0171498D01*
X0092676Y0171419D01*
X0092799Y0171336D01*
X0092920Y0171251D01*
X0093038Y0171162D01*
X0093154Y0171070D01*
X0093267Y0170974D01*
X0093378Y0170876D01*
X0093486Y0170775D01*
X0093592Y0170671D01*
X0093694Y0170565D01*
X0093794Y0170455D01*
X0093890Y0170343D01*
X0093984Y0170228D01*
X0094075Y0170111D01*
X0094162Y0169992D01*
X0094246Y0169870D01*
X0094327Y0169746D01*
X0094404Y0169620D01*
X0094478Y0169492D01*
X0094549Y0169362D01*
X0094616Y0169230D01*
X0094679Y0169096D01*
X0094739Y0168961D01*
X0094795Y0168824D01*
X0094848Y0168685D01*
X0094896Y0168545D01*
X0094941Y0168404D01*
X0094982Y0168262D01*
X0095020Y0168119D01*
X0095053Y0167975D01*
X0095083Y0167830D01*
X0095109Y0167684D01*
X0095130Y0167538D01*
X0095148Y0167391D01*
X0095162Y0167244D01*
X0095172Y0167096D01*
X0095178Y0166948D01*
X0095180Y0166800D01*
X0095178Y0166652D01*
X0095172Y0166504D01*
X0095162Y0166356D01*
X0095148Y0166209D01*
X0095130Y0166062D01*
X0095109Y0165916D01*
X0095083Y0165770D01*
X0095053Y0165625D01*
X0095020Y0165481D01*
X0094982Y0165338D01*
X0094941Y0165196D01*
X0094896Y0165055D01*
X0094848Y0164915D01*
X0094795Y0164776D01*
X0094739Y0164639D01*
X0094679Y0164504D01*
X0094616Y0164370D01*
X0094549Y0164238D01*
X0094478Y0164108D01*
X0094404Y0163980D01*
X0094327Y0163854D01*
X0094246Y0163730D01*
X0094162Y0163608D01*
X0094075Y0163489D01*
X0093984Y0163372D01*
X0093890Y0163257D01*
X0093794Y0163145D01*
X0093694Y0163035D01*
X0093592Y0162929D01*
X0093486Y0162825D01*
X0093378Y0162724D01*
X0093267Y0162626D01*
X0093154Y0162530D01*
X0093038Y0162438D01*
X0092920Y0162349D01*
X0092799Y0162264D01*
X0092676Y0162181D01*
X0092551Y0162102D01*
X0092424Y0162026D01*
X0092295Y0161954D01*
X0092164Y0161885D01*
X0092031Y0161820D01*
X0091896Y0161759D01*
X0091760Y0161701D01*
X0091623Y0161646D01*
X0091484Y0161596D01*
X0091343Y0161549D01*
X0091202Y0161506D01*
X0091059Y0161466D01*
X0090915Y0161431D01*
X0090771Y0161399D01*
X0090625Y0161372D01*
X0090479Y0161348D01*
X0090332Y0161328D01*
X0090185Y0161312D01*
X0090038Y0161300D01*
X0089890Y0161292D01*
X0089742Y0161288D01*
X0089594Y0161288D01*
X0089446Y0161292D01*
X0089298Y0161300D01*
X0089151Y0161312D01*
X0089004Y0161328D01*
X0088857Y0161348D01*
X0088711Y0161372D01*
X0088565Y0161399D01*
X0088421Y0161431D01*
X0088277Y0161466D01*
X0088134Y0161506D01*
X0087993Y0161549D01*
X0087852Y0161596D01*
X0087713Y0161646D01*
X0087576Y0161701D01*
X0087440Y0161759D01*
X0087305Y0161820D01*
X0087172Y0161885D01*
X0087041Y0161954D01*
X0086912Y0162026D01*
X0086785Y0162102D01*
X0086660Y0162181D01*
X0086537Y0162264D01*
X0086416Y0162349D01*
X0086298Y0162438D01*
X0086182Y0162530D01*
X0086069Y0162626D01*
X0085958Y0162724D01*
X0085850Y0162825D01*
X0085744Y0162929D01*
X0085642Y0163035D01*
X0085542Y0163145D01*
X0085446Y0163257D01*
X0085352Y0163372D01*
X0085261Y0163489D01*
X0085174Y0163608D01*
X0085090Y0163730D01*
X0085009Y0163854D01*
X0084932Y0163980D01*
X0084858Y0164108D01*
X0084787Y0164238D01*
X0084720Y0164370D01*
X0084657Y0164504D01*
X0084597Y0164639D01*
X0084541Y0164776D01*
X0084488Y0164915D01*
X0084440Y0165055D01*
X0084395Y0165196D01*
X0084354Y0165338D01*
X0084316Y0165481D01*
X0084283Y0165625D01*
X0084253Y0165770D01*
X0084227Y0165916D01*
X0084206Y0166062D01*
X0084188Y0166209D01*
X0084174Y0166356D01*
X0084164Y0166504D01*
X0084158Y0166652D01*
X0084156Y0166800D01*
X0059667Y0138747D02*
X0059684Y0140195D01*
X0059737Y0141641D01*
X0059824Y0143086D01*
X0059947Y0144529D01*
X0060104Y0145968D01*
X0060296Y0147402D01*
X0060522Y0148832D01*
X0060783Y0150256D01*
X0061078Y0151673D01*
X0061408Y0153083D01*
X0061771Y0154484D01*
X0062168Y0155876D01*
X0062599Y0157258D01*
X0063063Y0158630D01*
X0063560Y0159989D01*
X0064089Y0161336D01*
X0064651Y0162671D01*
X0065246Y0163991D01*
X0065871Y0165296D01*
X0066529Y0166586D01*
X0067217Y0167859D01*
X0067936Y0169116D01*
X0068684Y0170355D01*
X0069463Y0171575D01*
X0070271Y0172776D01*
X0071108Y0173958D01*
X0071973Y0175118D01*
X0072865Y0176258D01*
X0073785Y0177376D01*
X0074732Y0178471D01*
X0075705Y0179543D01*
X0076704Y0180591D01*
X0077727Y0181614D01*
X0078775Y0182613D01*
X0079847Y0183586D01*
X0080942Y0184533D01*
X0082060Y0185453D01*
X0083200Y0186345D01*
X0084360Y0187210D01*
X0085542Y0188047D01*
X0086743Y0188855D01*
X0087963Y0189634D01*
X0089202Y0190382D01*
X0090459Y0191101D01*
X0091732Y0191789D01*
X0093022Y0192447D01*
X0094327Y0193072D01*
X0095647Y0193667D01*
X0096982Y0194229D01*
X0098329Y0194758D01*
X0099688Y0195255D01*
X0101060Y0195719D01*
X0102442Y0196150D01*
X0103834Y0196547D01*
X0105235Y0196910D01*
X0106645Y0197240D01*
X0108062Y0197535D01*
X0109486Y0197796D01*
X0110916Y0198022D01*
X0112350Y0198214D01*
X0113789Y0198371D01*
X0115232Y0198494D01*
X0116677Y0198581D01*
X0118123Y0198634D01*
X0119571Y0198651D01*
X0119571Y0198650D02*
X0218546Y0198650D01*
X0219464Y0198639D01*
X0220381Y0198606D01*
X0221296Y0198550D01*
X0222211Y0198473D01*
X0223123Y0198373D01*
X0224033Y0198252D01*
X0224939Y0198108D01*
X0225841Y0197943D01*
X0226740Y0197755D01*
X0227633Y0197547D01*
X0228522Y0197316D01*
X0229404Y0197065D01*
X0230280Y0196792D01*
X0231149Y0196497D01*
X0232011Y0196182D01*
X0232865Y0195847D01*
X0233711Y0195490D01*
X0234547Y0195114D01*
X0235375Y0194717D01*
X0236192Y0194301D01*
X0237000Y0193864D01*
X0237796Y0193409D01*
X0238582Y0192934D01*
X0239355Y0192440D01*
X0240117Y0191928D01*
X0240865Y0191398D01*
X0241601Y0190850D01*
X0242324Y0190284D01*
X0243032Y0189701D01*
X0243726Y0189100D01*
X0244406Y0188484D01*
X0245070Y0187851D01*
X0245719Y0187202D01*
X0246352Y0186538D01*
X0246968Y0185858D01*
X0247569Y0185164D01*
X0248152Y0184456D01*
X0248718Y0183733D01*
X0249266Y0182997D01*
X0249796Y0182249D01*
X0250308Y0181487D01*
X0250802Y0180714D01*
X0251277Y0179928D01*
X0251732Y0179132D01*
X0252169Y0178324D01*
X0252585Y0177507D01*
X0252982Y0176679D01*
X0253358Y0175843D01*
X0253715Y0174997D01*
X0254050Y0174143D01*
X0254365Y0173281D01*
X0254660Y0172412D01*
X0254933Y0171536D01*
X0255184Y0170654D01*
X0255415Y0169765D01*
X0255623Y0168872D01*
X0255811Y0167973D01*
X0255976Y0167071D01*
X0256120Y0166165D01*
X0256241Y0165255D01*
X0256341Y0164343D01*
X0256418Y0163428D01*
X0256474Y0162513D01*
X0256507Y0161596D01*
X0256518Y0160678D01*
X0256518Y0031422D01*
X0229156Y0026800D02*
X0229158Y0026948D01*
X0229164Y0027096D01*
X0229174Y0027244D01*
X0229188Y0027391D01*
X0229206Y0027538D01*
X0229227Y0027684D01*
X0229253Y0027830D01*
X0229283Y0027975D01*
X0229316Y0028119D01*
X0229354Y0028262D01*
X0229395Y0028404D01*
X0229440Y0028545D01*
X0229488Y0028685D01*
X0229541Y0028824D01*
X0229597Y0028961D01*
X0229657Y0029096D01*
X0229720Y0029230D01*
X0229787Y0029362D01*
X0229858Y0029492D01*
X0229932Y0029620D01*
X0230009Y0029746D01*
X0230090Y0029870D01*
X0230174Y0029992D01*
X0230261Y0030111D01*
X0230352Y0030228D01*
X0230446Y0030343D01*
X0230542Y0030455D01*
X0230642Y0030565D01*
X0230744Y0030671D01*
X0230850Y0030775D01*
X0230958Y0030876D01*
X0231069Y0030974D01*
X0231182Y0031070D01*
X0231298Y0031162D01*
X0231416Y0031251D01*
X0231537Y0031336D01*
X0231660Y0031419D01*
X0231785Y0031498D01*
X0231912Y0031574D01*
X0232041Y0031646D01*
X0232172Y0031715D01*
X0232305Y0031780D01*
X0232440Y0031841D01*
X0232576Y0031899D01*
X0232713Y0031954D01*
X0232852Y0032004D01*
X0232993Y0032051D01*
X0233134Y0032094D01*
X0233277Y0032134D01*
X0233421Y0032169D01*
X0233565Y0032201D01*
X0233711Y0032228D01*
X0233857Y0032252D01*
X0234004Y0032272D01*
X0234151Y0032288D01*
X0234298Y0032300D01*
X0234446Y0032308D01*
X0234594Y0032312D01*
X0234742Y0032312D01*
X0234890Y0032308D01*
X0235038Y0032300D01*
X0235185Y0032288D01*
X0235332Y0032272D01*
X0235479Y0032252D01*
X0235625Y0032228D01*
X0235771Y0032201D01*
X0235915Y0032169D01*
X0236059Y0032134D01*
X0236202Y0032094D01*
X0236343Y0032051D01*
X0236484Y0032004D01*
X0236623Y0031954D01*
X0236760Y0031899D01*
X0236896Y0031841D01*
X0237031Y0031780D01*
X0237164Y0031715D01*
X0237295Y0031646D01*
X0237424Y0031574D01*
X0237551Y0031498D01*
X0237676Y0031419D01*
X0237799Y0031336D01*
X0237920Y0031251D01*
X0238038Y0031162D01*
X0238154Y0031070D01*
X0238267Y0030974D01*
X0238378Y0030876D01*
X0238486Y0030775D01*
X0238592Y0030671D01*
X0238694Y0030565D01*
X0238794Y0030455D01*
X0238890Y0030343D01*
X0238984Y0030228D01*
X0239075Y0030111D01*
X0239162Y0029992D01*
X0239246Y0029870D01*
X0239327Y0029746D01*
X0239404Y0029620D01*
X0239478Y0029492D01*
X0239549Y0029362D01*
X0239616Y0029230D01*
X0239679Y0029096D01*
X0239739Y0028961D01*
X0239795Y0028824D01*
X0239848Y0028685D01*
X0239896Y0028545D01*
X0239941Y0028404D01*
X0239982Y0028262D01*
X0240020Y0028119D01*
X0240053Y0027975D01*
X0240083Y0027830D01*
X0240109Y0027684D01*
X0240130Y0027538D01*
X0240148Y0027391D01*
X0240162Y0027244D01*
X0240172Y0027096D01*
X0240178Y0026948D01*
X0240180Y0026800D01*
X0240178Y0026652D01*
X0240172Y0026504D01*
X0240162Y0026356D01*
X0240148Y0026209D01*
X0240130Y0026062D01*
X0240109Y0025916D01*
X0240083Y0025770D01*
X0240053Y0025625D01*
X0240020Y0025481D01*
X0239982Y0025338D01*
X0239941Y0025196D01*
X0239896Y0025055D01*
X0239848Y0024915D01*
X0239795Y0024776D01*
X0239739Y0024639D01*
X0239679Y0024504D01*
X0239616Y0024370D01*
X0239549Y0024238D01*
X0239478Y0024108D01*
X0239404Y0023980D01*
X0239327Y0023854D01*
X0239246Y0023730D01*
X0239162Y0023608D01*
X0239075Y0023489D01*
X0238984Y0023372D01*
X0238890Y0023257D01*
X0238794Y0023145D01*
X0238694Y0023035D01*
X0238592Y0022929D01*
X0238486Y0022825D01*
X0238378Y0022724D01*
X0238267Y0022626D01*
X0238154Y0022530D01*
X0238038Y0022438D01*
X0237920Y0022349D01*
X0237799Y0022264D01*
X0237676Y0022181D01*
X0237551Y0022102D01*
X0237424Y0022026D01*
X0237295Y0021954D01*
X0237164Y0021885D01*
X0237031Y0021820D01*
X0236896Y0021759D01*
X0236760Y0021701D01*
X0236623Y0021646D01*
X0236484Y0021596D01*
X0236343Y0021549D01*
X0236202Y0021506D01*
X0236059Y0021466D01*
X0235915Y0021431D01*
X0235771Y0021399D01*
X0235625Y0021372D01*
X0235479Y0021348D01*
X0235332Y0021328D01*
X0235185Y0021312D01*
X0235038Y0021300D01*
X0234890Y0021292D01*
X0234742Y0021288D01*
X0234594Y0021288D01*
X0234446Y0021292D01*
X0234298Y0021300D01*
X0234151Y0021312D01*
X0234004Y0021328D01*
X0233857Y0021348D01*
X0233711Y0021372D01*
X0233565Y0021399D01*
X0233421Y0021431D01*
X0233277Y0021466D01*
X0233134Y0021506D01*
X0232993Y0021549D01*
X0232852Y0021596D01*
X0232713Y0021646D01*
X0232576Y0021701D01*
X0232440Y0021759D01*
X0232305Y0021820D01*
X0232172Y0021885D01*
X0232041Y0021954D01*
X0231912Y0022026D01*
X0231785Y0022102D01*
X0231660Y0022181D01*
X0231537Y0022264D01*
X0231416Y0022349D01*
X0231298Y0022438D01*
X0231182Y0022530D01*
X0231069Y0022626D01*
X0230958Y0022724D01*
X0230850Y0022825D01*
X0230744Y0022929D01*
X0230642Y0023035D01*
X0230542Y0023145D01*
X0230446Y0023257D01*
X0230352Y0023372D01*
X0230261Y0023489D01*
X0230174Y0023608D01*
X0230090Y0023730D01*
X0230009Y0023854D01*
X0229932Y0023980D01*
X0229858Y0024108D01*
X0229787Y0024238D01*
X0229720Y0024370D01*
X0229657Y0024504D01*
X0229597Y0024639D01*
X0229541Y0024776D01*
X0229488Y0024915D01*
X0229440Y0025055D01*
X0229395Y0025196D01*
X0229354Y0025338D01*
X0229316Y0025481D01*
X0229283Y0025625D01*
X0229253Y0025770D01*
X0229227Y0025916D01*
X0229206Y0026062D01*
X0229188Y0026209D01*
X0229174Y0026356D01*
X0229164Y0026504D01*
X0229158Y0026652D01*
X0229156Y0026800D01*
X0226897Y0001800D02*
X0227613Y0001809D01*
X0228328Y0001835D01*
X0229043Y0001878D01*
X0229756Y0001938D01*
X0230468Y0002016D01*
X0231177Y0002111D01*
X0231884Y0002223D01*
X0232588Y0002352D01*
X0233289Y0002498D01*
X0233986Y0002661D01*
X0234679Y0002840D01*
X0235367Y0003037D01*
X0236051Y0003250D01*
X0236729Y0003479D01*
X0237401Y0003725D01*
X0238067Y0003987D01*
X0238727Y0004265D01*
X0239380Y0004559D01*
X0240025Y0004868D01*
X0240663Y0005193D01*
X0241293Y0005533D01*
X0241914Y0005889D01*
X0242527Y0006259D01*
X0243130Y0006644D01*
X0243724Y0007044D01*
X0244308Y0007457D01*
X0244882Y0007885D01*
X0245446Y0008326D01*
X0245999Y0008781D01*
X0246540Y0009250D01*
X0247070Y0009731D01*
X0247588Y0010225D01*
X0248094Y0010731D01*
X0248588Y0011249D01*
X0249069Y0011779D01*
X0249538Y0012320D01*
X0249993Y0012873D01*
X0250434Y0013437D01*
X0250862Y0014011D01*
X0251275Y0014595D01*
X0251675Y0015189D01*
X0252060Y0015792D01*
X0252430Y0016405D01*
X0252786Y0017026D01*
X0253126Y0017656D01*
X0253451Y0018294D01*
X0253760Y0018939D01*
X0254054Y0019592D01*
X0254332Y0020252D01*
X0254594Y0020918D01*
X0254840Y0021590D01*
X0255069Y0022268D01*
X0255282Y0022952D01*
X0255479Y0023640D01*
X0255658Y0024333D01*
X0255821Y0025030D01*
X0255967Y0025731D01*
X0256096Y0026435D01*
X0256208Y0027142D01*
X0256303Y0027851D01*
X0256381Y0028563D01*
X0256441Y0029276D01*
X0256484Y0029991D01*
X0256510Y0030706D01*
X0256519Y0031422D01*
X0226897Y0001800D02*
X0066739Y0001800D01*
X0066568Y0001802D01*
X0066397Y0001808D01*
X0066227Y0001819D01*
X0066057Y0001833D01*
X0065887Y0001852D01*
X0065717Y0001874D01*
X0065549Y0001901D01*
X0065380Y0001932D01*
X0065213Y0001967D01*
X0065047Y0002005D01*
X0064881Y0002048D01*
X0064717Y0002095D01*
X0064554Y0002146D01*
X0064392Y0002201D01*
X0064232Y0002260D01*
X0064073Y0002322D01*
X0063915Y0002388D01*
X0063759Y0002458D01*
X0063605Y0002532D01*
X0063453Y0002610D01*
X0063303Y0002691D01*
X0063154Y0002776D01*
X0063008Y0002864D01*
X0062864Y0002956D01*
X0062722Y0003052D01*
X0062583Y0003150D01*
X0062446Y0003253D01*
X0062311Y0003358D01*
X0062179Y0003467D01*
X0062050Y0003578D01*
X0061924Y0003693D01*
X0061800Y0003811D01*
X0061679Y0003932D01*
X0061561Y0004056D01*
X0061446Y0004182D01*
X0061335Y0004311D01*
X0061226Y0004443D01*
X0061121Y0004578D01*
X0061018Y0004715D01*
X0060920Y0004854D01*
X0060824Y0004996D01*
X0060732Y0005140D01*
X0060644Y0005286D01*
X0060559Y0005435D01*
X0060478Y0005585D01*
X0060400Y0005737D01*
X0060326Y0005891D01*
X0060256Y0006047D01*
X0060190Y0006205D01*
X0060128Y0006364D01*
X0060069Y0006524D01*
X0060014Y0006686D01*
X0059963Y0006849D01*
X0059916Y0007013D01*
X0059873Y0007179D01*
X0059835Y0007345D01*
X0059800Y0007512D01*
X0059769Y0007681D01*
X0059742Y0007849D01*
X0059720Y0008019D01*
X0059701Y0008189D01*
X0059687Y0008359D01*
X0059676Y0008529D01*
X0059670Y0008700D01*
X0059668Y0008871D01*
X0068920Y0027942D02*
X0068922Y0028035D01*
X0068928Y0028127D01*
X0068938Y0028219D01*
X0068952Y0028310D01*
X0068969Y0028401D01*
X0068991Y0028491D01*
X0069016Y0028580D01*
X0069045Y0028668D01*
X0069078Y0028754D01*
X0069115Y0028839D01*
X0069155Y0028923D01*
X0069199Y0029004D01*
X0069246Y0029084D01*
X0069296Y0029162D01*
X0069350Y0029237D01*
X0069407Y0029310D01*
X0069467Y0029380D01*
X0069530Y0029448D01*
X0069596Y0029513D01*
X0069664Y0029575D01*
X0069735Y0029635D01*
X0069809Y0029691D01*
X0069885Y0029744D01*
X0069963Y0029793D01*
X0070043Y0029840D01*
X0070125Y0029882D01*
X0070209Y0029922D01*
X0070294Y0029957D01*
X0070381Y0029989D01*
X0070469Y0030018D01*
X0070558Y0030042D01*
X0070648Y0030063D01*
X0070739Y0030079D01*
X0070831Y0030092D01*
X0070923Y0030101D01*
X0071016Y0030106D01*
X0071108Y0030107D01*
X0071201Y0030104D01*
X0071293Y0030097D01*
X0071385Y0030086D01*
X0071476Y0030071D01*
X0071567Y0030053D01*
X0071657Y0030030D01*
X0071745Y0030004D01*
X0071833Y0029974D01*
X0071919Y0029940D01*
X0072003Y0029903D01*
X0072086Y0029861D01*
X0072167Y0029817D01*
X0072247Y0029769D01*
X0072324Y0029718D01*
X0072398Y0029663D01*
X0072471Y0029605D01*
X0072541Y0029545D01*
X0072608Y0029481D01*
X0072672Y0029415D01*
X0072734Y0029345D01*
X0072792Y0029274D01*
X0072847Y0029200D01*
X0072899Y0029123D01*
X0072948Y0029044D01*
X0072994Y0028964D01*
X0073036Y0028881D01*
X0073074Y0028797D01*
X0073109Y0028711D01*
X0073140Y0028624D01*
X0073167Y0028536D01*
X0073190Y0028446D01*
X0073210Y0028356D01*
X0073226Y0028265D01*
X0073238Y0028173D01*
X0073246Y0028081D01*
X0073250Y0027988D01*
X0073250Y0027896D01*
X0073246Y0027803D01*
X0073238Y0027711D01*
X0073226Y0027619D01*
X0073210Y0027528D01*
X0073190Y0027438D01*
X0073167Y0027348D01*
X0073140Y0027260D01*
X0073109Y0027173D01*
X0073074Y0027087D01*
X0073036Y0027003D01*
X0072994Y0026920D01*
X0072948Y0026840D01*
X0072899Y0026761D01*
X0072847Y0026684D01*
X0072792Y0026610D01*
X0072734Y0026539D01*
X0072672Y0026469D01*
X0072608Y0026403D01*
X0072541Y0026339D01*
X0072471Y0026279D01*
X0072398Y0026221D01*
X0072324Y0026166D01*
X0072247Y0026115D01*
X0072168Y0026067D01*
X0072086Y0026023D01*
X0072003Y0025981D01*
X0071919Y0025944D01*
X0071833Y0025910D01*
X0071745Y0025880D01*
X0071657Y0025854D01*
X0071567Y0025831D01*
X0071476Y0025813D01*
X0071385Y0025798D01*
X0071293Y0025787D01*
X0071201Y0025780D01*
X0071108Y0025777D01*
X0071016Y0025778D01*
X0070923Y0025783D01*
X0070831Y0025792D01*
X0070739Y0025805D01*
X0070648Y0025821D01*
X0070558Y0025842D01*
X0070469Y0025866D01*
X0070381Y0025895D01*
X0070294Y0025927D01*
X0070209Y0025962D01*
X0070125Y0026002D01*
X0070043Y0026044D01*
X0069963Y0026091D01*
X0069885Y0026140D01*
X0069809Y0026193D01*
X0069735Y0026249D01*
X0069664Y0026309D01*
X0069596Y0026371D01*
X0069530Y0026436D01*
X0069467Y0026504D01*
X0069407Y0026574D01*
X0069350Y0026647D01*
X0069296Y0026722D01*
X0069246Y0026800D01*
X0069199Y0026880D01*
X0069155Y0026961D01*
X0069115Y0027045D01*
X0069078Y0027130D01*
X0069045Y0027216D01*
X0069016Y0027304D01*
X0068991Y0027393D01*
X0068969Y0027483D01*
X0068952Y0027574D01*
X0068938Y0027665D01*
X0068928Y0027757D01*
X0068922Y0027849D01*
X0068920Y0027942D01*
X0068920Y0045658D02*
X0068922Y0045751D01*
X0068928Y0045843D01*
X0068938Y0045935D01*
X0068952Y0046026D01*
X0068969Y0046117D01*
X0068991Y0046207D01*
X0069016Y0046296D01*
X0069045Y0046384D01*
X0069078Y0046470D01*
X0069115Y0046555D01*
X0069155Y0046639D01*
X0069199Y0046720D01*
X0069246Y0046800D01*
X0069296Y0046878D01*
X0069350Y0046953D01*
X0069407Y0047026D01*
X0069467Y0047096D01*
X0069530Y0047164D01*
X0069596Y0047229D01*
X0069664Y0047291D01*
X0069735Y0047351D01*
X0069809Y0047407D01*
X0069885Y0047460D01*
X0069963Y0047509D01*
X0070043Y0047556D01*
X0070125Y0047598D01*
X0070209Y0047638D01*
X0070294Y0047673D01*
X0070381Y0047705D01*
X0070469Y0047734D01*
X0070558Y0047758D01*
X0070648Y0047779D01*
X0070739Y0047795D01*
X0070831Y0047808D01*
X0070923Y0047817D01*
X0071016Y0047822D01*
X0071108Y0047823D01*
X0071201Y0047820D01*
X0071293Y0047813D01*
X0071385Y0047802D01*
X0071476Y0047787D01*
X0071567Y0047769D01*
X0071657Y0047746D01*
X0071745Y0047720D01*
X0071833Y0047690D01*
X0071919Y0047656D01*
X0072003Y0047619D01*
X0072086Y0047577D01*
X0072167Y0047533D01*
X0072247Y0047485D01*
X0072324Y0047434D01*
X0072398Y0047379D01*
X0072471Y0047321D01*
X0072541Y0047261D01*
X0072608Y0047197D01*
X0072672Y0047131D01*
X0072734Y0047061D01*
X0072792Y0046990D01*
X0072847Y0046916D01*
X0072899Y0046839D01*
X0072948Y0046760D01*
X0072994Y0046680D01*
X0073036Y0046597D01*
X0073074Y0046513D01*
X0073109Y0046427D01*
X0073140Y0046340D01*
X0073167Y0046252D01*
X0073190Y0046162D01*
X0073210Y0046072D01*
X0073226Y0045981D01*
X0073238Y0045889D01*
X0073246Y0045797D01*
X0073250Y0045704D01*
X0073250Y0045612D01*
X0073246Y0045519D01*
X0073238Y0045427D01*
X0073226Y0045335D01*
X0073210Y0045244D01*
X0073190Y0045154D01*
X0073167Y0045064D01*
X0073140Y0044976D01*
X0073109Y0044889D01*
X0073074Y0044803D01*
X0073036Y0044719D01*
X0072994Y0044636D01*
X0072948Y0044556D01*
X0072899Y0044477D01*
X0072847Y0044400D01*
X0072792Y0044326D01*
X0072734Y0044255D01*
X0072672Y0044185D01*
X0072608Y0044119D01*
X0072541Y0044055D01*
X0072471Y0043995D01*
X0072398Y0043937D01*
X0072324Y0043882D01*
X0072247Y0043831D01*
X0072168Y0043783D01*
X0072086Y0043739D01*
X0072003Y0043697D01*
X0071919Y0043660D01*
X0071833Y0043626D01*
X0071745Y0043596D01*
X0071657Y0043570D01*
X0071567Y0043547D01*
X0071476Y0043529D01*
X0071385Y0043514D01*
X0071293Y0043503D01*
X0071201Y0043496D01*
X0071108Y0043493D01*
X0071016Y0043494D01*
X0070923Y0043499D01*
X0070831Y0043508D01*
X0070739Y0043521D01*
X0070648Y0043537D01*
X0070558Y0043558D01*
X0070469Y0043582D01*
X0070381Y0043611D01*
X0070294Y0043643D01*
X0070209Y0043678D01*
X0070125Y0043718D01*
X0070043Y0043760D01*
X0069963Y0043807D01*
X0069885Y0043856D01*
X0069809Y0043909D01*
X0069735Y0043965D01*
X0069664Y0044025D01*
X0069596Y0044087D01*
X0069530Y0044152D01*
X0069467Y0044220D01*
X0069407Y0044290D01*
X0069350Y0044363D01*
X0069296Y0044438D01*
X0069246Y0044516D01*
X0069199Y0044596D01*
X0069155Y0044677D01*
X0069115Y0044761D01*
X0069078Y0044846D01*
X0069045Y0044932D01*
X0069016Y0045020D01*
X0068991Y0045109D01*
X0068969Y0045199D01*
X0068952Y0045290D01*
X0068938Y0045381D01*
X0068928Y0045473D01*
X0068922Y0045565D01*
X0068920Y0045658D01*
M02*
