%
M48
M72
T01C0.02362
T02C0.02756
T03C0.03200
T04C0.03600
T05C0.04000
T06C0.04331
T07C0.04400
T08C0.04700
T09C0.08661
T10C0.11024
%
T01
X174668Y96800
T02
X199668Y101800
X199668Y111800
X234668Y111800
X234668Y101800
T03
X174668Y156800
X174668Y146800
X199668Y133800
X199668Y169800
X152668Y101800
X152668Y86800
X179668Y71800
X189668Y71800
X199668Y71800
X209668Y71800
X209668Y41800
X199668Y41800
X189668Y41800
X179668Y41800
X152668Y31800
X152668Y16800
X116668Y16800
X116668Y31800
X116668Y86800
X116668Y101800
T04
X80928Y50580
X80928Y41237
X80928Y32363
X80928Y23020
T05
X239668Y51800
X239668Y61800
X239668Y71800
X239668Y81800
X238568Y134000
X220768Y134000
X220768Y159600
X238568Y159600
X154668Y126800
X144668Y126800
X134668Y126800
X124668Y126800
X209668Y11800
X199668Y11800
X189668Y11800
X179668Y11800
T06
X71085Y27942
X71085Y45658
T07
X114668Y46800
X114668Y66800
X154668Y66800
X154668Y46800
T08
X79668Y141800
X94668Y141800
X94668Y126800
X79668Y126800
X79668Y111800
X94668Y111800
X94668Y96800
X79668Y96800
X79668Y81800
X94668Y81800
T09
X71479Y59635
X71479Y13965
T10
X89668Y166800
X234668Y26800
M30
