G75*
%MOIN*%
%OFA0B0*%
%FSLAX25Y25*%
%IPPOS*%
%LPD*%
%AMOC8*
5,1,8,0,0,1.08239X$1,22.5*
%
%ADD10C,0.00000*%
%ADD11C,0.05600*%
%ADD12OC8,0.07000*%
%ADD13C,0.07000*%
%ADD14C,0.06900*%
%ADD15R,0.06900X0.06900*%
%ADD16C,0.07800*%
%ADD17C,0.13061*%
%ADD18C,0.04731*%
%ADD19C,0.06400*%
%ADD20OC8,0.08900*%
%ADD21C,0.11424*%
D10*
X0059668Y0010871D02*
X0059668Y0140747D01*
X0084156Y0168800D02*
X0084158Y0168948D01*
X0084164Y0169096D01*
X0084174Y0169244D01*
X0084188Y0169391D01*
X0084206Y0169538D01*
X0084227Y0169684D01*
X0084253Y0169830D01*
X0084283Y0169975D01*
X0084316Y0170119D01*
X0084354Y0170262D01*
X0084395Y0170404D01*
X0084440Y0170545D01*
X0084488Y0170685D01*
X0084541Y0170824D01*
X0084597Y0170961D01*
X0084657Y0171096D01*
X0084720Y0171230D01*
X0084787Y0171362D01*
X0084858Y0171492D01*
X0084932Y0171620D01*
X0085009Y0171746D01*
X0085090Y0171870D01*
X0085174Y0171992D01*
X0085261Y0172111D01*
X0085352Y0172228D01*
X0085446Y0172343D01*
X0085542Y0172455D01*
X0085642Y0172565D01*
X0085744Y0172671D01*
X0085850Y0172775D01*
X0085958Y0172876D01*
X0086069Y0172974D01*
X0086182Y0173070D01*
X0086298Y0173162D01*
X0086416Y0173251D01*
X0086537Y0173336D01*
X0086660Y0173419D01*
X0086785Y0173498D01*
X0086912Y0173574D01*
X0087041Y0173646D01*
X0087172Y0173715D01*
X0087305Y0173780D01*
X0087440Y0173841D01*
X0087576Y0173899D01*
X0087713Y0173954D01*
X0087852Y0174004D01*
X0087993Y0174051D01*
X0088134Y0174094D01*
X0088277Y0174134D01*
X0088421Y0174169D01*
X0088565Y0174201D01*
X0088711Y0174228D01*
X0088857Y0174252D01*
X0089004Y0174272D01*
X0089151Y0174288D01*
X0089298Y0174300D01*
X0089446Y0174308D01*
X0089594Y0174312D01*
X0089742Y0174312D01*
X0089890Y0174308D01*
X0090038Y0174300D01*
X0090185Y0174288D01*
X0090332Y0174272D01*
X0090479Y0174252D01*
X0090625Y0174228D01*
X0090771Y0174201D01*
X0090915Y0174169D01*
X0091059Y0174134D01*
X0091202Y0174094D01*
X0091343Y0174051D01*
X0091484Y0174004D01*
X0091623Y0173954D01*
X0091760Y0173899D01*
X0091896Y0173841D01*
X0092031Y0173780D01*
X0092164Y0173715D01*
X0092295Y0173646D01*
X0092424Y0173574D01*
X0092551Y0173498D01*
X0092676Y0173419D01*
X0092799Y0173336D01*
X0092920Y0173251D01*
X0093038Y0173162D01*
X0093154Y0173070D01*
X0093267Y0172974D01*
X0093378Y0172876D01*
X0093486Y0172775D01*
X0093592Y0172671D01*
X0093694Y0172565D01*
X0093794Y0172455D01*
X0093890Y0172343D01*
X0093984Y0172228D01*
X0094075Y0172111D01*
X0094162Y0171992D01*
X0094246Y0171870D01*
X0094327Y0171746D01*
X0094404Y0171620D01*
X0094478Y0171492D01*
X0094549Y0171362D01*
X0094616Y0171230D01*
X0094679Y0171096D01*
X0094739Y0170961D01*
X0094795Y0170824D01*
X0094848Y0170685D01*
X0094896Y0170545D01*
X0094941Y0170404D01*
X0094982Y0170262D01*
X0095020Y0170119D01*
X0095053Y0169975D01*
X0095083Y0169830D01*
X0095109Y0169684D01*
X0095130Y0169538D01*
X0095148Y0169391D01*
X0095162Y0169244D01*
X0095172Y0169096D01*
X0095178Y0168948D01*
X0095180Y0168800D01*
X0095178Y0168652D01*
X0095172Y0168504D01*
X0095162Y0168356D01*
X0095148Y0168209D01*
X0095130Y0168062D01*
X0095109Y0167916D01*
X0095083Y0167770D01*
X0095053Y0167625D01*
X0095020Y0167481D01*
X0094982Y0167338D01*
X0094941Y0167196D01*
X0094896Y0167055D01*
X0094848Y0166915D01*
X0094795Y0166776D01*
X0094739Y0166639D01*
X0094679Y0166504D01*
X0094616Y0166370D01*
X0094549Y0166238D01*
X0094478Y0166108D01*
X0094404Y0165980D01*
X0094327Y0165854D01*
X0094246Y0165730D01*
X0094162Y0165608D01*
X0094075Y0165489D01*
X0093984Y0165372D01*
X0093890Y0165257D01*
X0093794Y0165145D01*
X0093694Y0165035D01*
X0093592Y0164929D01*
X0093486Y0164825D01*
X0093378Y0164724D01*
X0093267Y0164626D01*
X0093154Y0164530D01*
X0093038Y0164438D01*
X0092920Y0164349D01*
X0092799Y0164264D01*
X0092676Y0164181D01*
X0092551Y0164102D01*
X0092424Y0164026D01*
X0092295Y0163954D01*
X0092164Y0163885D01*
X0092031Y0163820D01*
X0091896Y0163759D01*
X0091760Y0163701D01*
X0091623Y0163646D01*
X0091484Y0163596D01*
X0091343Y0163549D01*
X0091202Y0163506D01*
X0091059Y0163466D01*
X0090915Y0163431D01*
X0090771Y0163399D01*
X0090625Y0163372D01*
X0090479Y0163348D01*
X0090332Y0163328D01*
X0090185Y0163312D01*
X0090038Y0163300D01*
X0089890Y0163292D01*
X0089742Y0163288D01*
X0089594Y0163288D01*
X0089446Y0163292D01*
X0089298Y0163300D01*
X0089151Y0163312D01*
X0089004Y0163328D01*
X0088857Y0163348D01*
X0088711Y0163372D01*
X0088565Y0163399D01*
X0088421Y0163431D01*
X0088277Y0163466D01*
X0088134Y0163506D01*
X0087993Y0163549D01*
X0087852Y0163596D01*
X0087713Y0163646D01*
X0087576Y0163701D01*
X0087440Y0163759D01*
X0087305Y0163820D01*
X0087172Y0163885D01*
X0087041Y0163954D01*
X0086912Y0164026D01*
X0086785Y0164102D01*
X0086660Y0164181D01*
X0086537Y0164264D01*
X0086416Y0164349D01*
X0086298Y0164438D01*
X0086182Y0164530D01*
X0086069Y0164626D01*
X0085958Y0164724D01*
X0085850Y0164825D01*
X0085744Y0164929D01*
X0085642Y0165035D01*
X0085542Y0165145D01*
X0085446Y0165257D01*
X0085352Y0165372D01*
X0085261Y0165489D01*
X0085174Y0165608D01*
X0085090Y0165730D01*
X0085009Y0165854D01*
X0084932Y0165980D01*
X0084858Y0166108D01*
X0084787Y0166238D01*
X0084720Y0166370D01*
X0084657Y0166504D01*
X0084597Y0166639D01*
X0084541Y0166776D01*
X0084488Y0166915D01*
X0084440Y0167055D01*
X0084395Y0167196D01*
X0084354Y0167338D01*
X0084316Y0167481D01*
X0084283Y0167625D01*
X0084253Y0167770D01*
X0084227Y0167916D01*
X0084206Y0168062D01*
X0084188Y0168209D01*
X0084174Y0168356D01*
X0084164Y0168504D01*
X0084158Y0168652D01*
X0084156Y0168800D01*
X0059667Y0140747D02*
X0059684Y0142195D01*
X0059737Y0143641D01*
X0059824Y0145086D01*
X0059947Y0146529D01*
X0060104Y0147968D01*
X0060296Y0149402D01*
X0060522Y0150832D01*
X0060783Y0152256D01*
X0061078Y0153673D01*
X0061408Y0155083D01*
X0061771Y0156484D01*
X0062168Y0157876D01*
X0062599Y0159258D01*
X0063063Y0160630D01*
X0063560Y0161989D01*
X0064089Y0163336D01*
X0064651Y0164671D01*
X0065246Y0165991D01*
X0065871Y0167296D01*
X0066529Y0168586D01*
X0067217Y0169859D01*
X0067936Y0171116D01*
X0068684Y0172355D01*
X0069463Y0173575D01*
X0070271Y0174776D01*
X0071108Y0175958D01*
X0071973Y0177118D01*
X0072865Y0178258D01*
X0073785Y0179376D01*
X0074732Y0180471D01*
X0075705Y0181543D01*
X0076704Y0182591D01*
X0077727Y0183614D01*
X0078775Y0184613D01*
X0079847Y0185586D01*
X0080942Y0186533D01*
X0082060Y0187453D01*
X0083200Y0188345D01*
X0084360Y0189210D01*
X0085542Y0190047D01*
X0086743Y0190855D01*
X0087963Y0191634D01*
X0089202Y0192382D01*
X0090459Y0193101D01*
X0091732Y0193789D01*
X0093022Y0194447D01*
X0094327Y0195072D01*
X0095647Y0195667D01*
X0096982Y0196229D01*
X0098329Y0196758D01*
X0099688Y0197255D01*
X0101060Y0197719D01*
X0102442Y0198150D01*
X0103834Y0198547D01*
X0105235Y0198910D01*
X0106645Y0199240D01*
X0108062Y0199535D01*
X0109486Y0199796D01*
X0110916Y0200022D01*
X0112350Y0200214D01*
X0113789Y0200371D01*
X0115232Y0200494D01*
X0116677Y0200581D01*
X0118123Y0200634D01*
X0119571Y0200651D01*
X0119571Y0200650D02*
X0218546Y0200650D01*
X0219464Y0200639D01*
X0220381Y0200606D01*
X0221296Y0200550D01*
X0222211Y0200473D01*
X0223123Y0200373D01*
X0224033Y0200252D01*
X0224939Y0200108D01*
X0225841Y0199943D01*
X0226740Y0199755D01*
X0227633Y0199547D01*
X0228522Y0199316D01*
X0229404Y0199065D01*
X0230280Y0198792D01*
X0231149Y0198497D01*
X0232011Y0198182D01*
X0232865Y0197847D01*
X0233711Y0197490D01*
X0234547Y0197114D01*
X0235375Y0196717D01*
X0236192Y0196301D01*
X0237000Y0195864D01*
X0237796Y0195409D01*
X0238582Y0194934D01*
X0239355Y0194440D01*
X0240117Y0193928D01*
X0240865Y0193398D01*
X0241601Y0192850D01*
X0242324Y0192284D01*
X0243032Y0191701D01*
X0243726Y0191100D01*
X0244406Y0190484D01*
X0245070Y0189851D01*
X0245719Y0189202D01*
X0246352Y0188538D01*
X0246968Y0187858D01*
X0247569Y0187164D01*
X0248152Y0186456D01*
X0248718Y0185733D01*
X0249266Y0184997D01*
X0249796Y0184249D01*
X0250308Y0183487D01*
X0250802Y0182714D01*
X0251277Y0181928D01*
X0251732Y0181132D01*
X0252169Y0180324D01*
X0252585Y0179507D01*
X0252982Y0178679D01*
X0253358Y0177843D01*
X0253715Y0176997D01*
X0254050Y0176143D01*
X0254365Y0175281D01*
X0254660Y0174412D01*
X0254933Y0173536D01*
X0255184Y0172654D01*
X0255415Y0171765D01*
X0255623Y0170872D01*
X0255811Y0169973D01*
X0255976Y0169071D01*
X0256120Y0168165D01*
X0256241Y0167255D01*
X0256341Y0166343D01*
X0256418Y0165428D01*
X0256474Y0164513D01*
X0256507Y0163596D01*
X0256518Y0162678D01*
X0256518Y0033422D01*
X0229156Y0028800D02*
X0229158Y0028948D01*
X0229164Y0029096D01*
X0229174Y0029244D01*
X0229188Y0029391D01*
X0229206Y0029538D01*
X0229227Y0029684D01*
X0229253Y0029830D01*
X0229283Y0029975D01*
X0229316Y0030119D01*
X0229354Y0030262D01*
X0229395Y0030404D01*
X0229440Y0030545D01*
X0229488Y0030685D01*
X0229541Y0030824D01*
X0229597Y0030961D01*
X0229657Y0031096D01*
X0229720Y0031230D01*
X0229787Y0031362D01*
X0229858Y0031492D01*
X0229932Y0031620D01*
X0230009Y0031746D01*
X0230090Y0031870D01*
X0230174Y0031992D01*
X0230261Y0032111D01*
X0230352Y0032228D01*
X0230446Y0032343D01*
X0230542Y0032455D01*
X0230642Y0032565D01*
X0230744Y0032671D01*
X0230850Y0032775D01*
X0230958Y0032876D01*
X0231069Y0032974D01*
X0231182Y0033070D01*
X0231298Y0033162D01*
X0231416Y0033251D01*
X0231537Y0033336D01*
X0231660Y0033419D01*
X0231785Y0033498D01*
X0231912Y0033574D01*
X0232041Y0033646D01*
X0232172Y0033715D01*
X0232305Y0033780D01*
X0232440Y0033841D01*
X0232576Y0033899D01*
X0232713Y0033954D01*
X0232852Y0034004D01*
X0232993Y0034051D01*
X0233134Y0034094D01*
X0233277Y0034134D01*
X0233421Y0034169D01*
X0233565Y0034201D01*
X0233711Y0034228D01*
X0233857Y0034252D01*
X0234004Y0034272D01*
X0234151Y0034288D01*
X0234298Y0034300D01*
X0234446Y0034308D01*
X0234594Y0034312D01*
X0234742Y0034312D01*
X0234890Y0034308D01*
X0235038Y0034300D01*
X0235185Y0034288D01*
X0235332Y0034272D01*
X0235479Y0034252D01*
X0235625Y0034228D01*
X0235771Y0034201D01*
X0235915Y0034169D01*
X0236059Y0034134D01*
X0236202Y0034094D01*
X0236343Y0034051D01*
X0236484Y0034004D01*
X0236623Y0033954D01*
X0236760Y0033899D01*
X0236896Y0033841D01*
X0237031Y0033780D01*
X0237164Y0033715D01*
X0237295Y0033646D01*
X0237424Y0033574D01*
X0237551Y0033498D01*
X0237676Y0033419D01*
X0237799Y0033336D01*
X0237920Y0033251D01*
X0238038Y0033162D01*
X0238154Y0033070D01*
X0238267Y0032974D01*
X0238378Y0032876D01*
X0238486Y0032775D01*
X0238592Y0032671D01*
X0238694Y0032565D01*
X0238794Y0032455D01*
X0238890Y0032343D01*
X0238984Y0032228D01*
X0239075Y0032111D01*
X0239162Y0031992D01*
X0239246Y0031870D01*
X0239327Y0031746D01*
X0239404Y0031620D01*
X0239478Y0031492D01*
X0239549Y0031362D01*
X0239616Y0031230D01*
X0239679Y0031096D01*
X0239739Y0030961D01*
X0239795Y0030824D01*
X0239848Y0030685D01*
X0239896Y0030545D01*
X0239941Y0030404D01*
X0239982Y0030262D01*
X0240020Y0030119D01*
X0240053Y0029975D01*
X0240083Y0029830D01*
X0240109Y0029684D01*
X0240130Y0029538D01*
X0240148Y0029391D01*
X0240162Y0029244D01*
X0240172Y0029096D01*
X0240178Y0028948D01*
X0240180Y0028800D01*
X0240178Y0028652D01*
X0240172Y0028504D01*
X0240162Y0028356D01*
X0240148Y0028209D01*
X0240130Y0028062D01*
X0240109Y0027916D01*
X0240083Y0027770D01*
X0240053Y0027625D01*
X0240020Y0027481D01*
X0239982Y0027338D01*
X0239941Y0027196D01*
X0239896Y0027055D01*
X0239848Y0026915D01*
X0239795Y0026776D01*
X0239739Y0026639D01*
X0239679Y0026504D01*
X0239616Y0026370D01*
X0239549Y0026238D01*
X0239478Y0026108D01*
X0239404Y0025980D01*
X0239327Y0025854D01*
X0239246Y0025730D01*
X0239162Y0025608D01*
X0239075Y0025489D01*
X0238984Y0025372D01*
X0238890Y0025257D01*
X0238794Y0025145D01*
X0238694Y0025035D01*
X0238592Y0024929D01*
X0238486Y0024825D01*
X0238378Y0024724D01*
X0238267Y0024626D01*
X0238154Y0024530D01*
X0238038Y0024438D01*
X0237920Y0024349D01*
X0237799Y0024264D01*
X0237676Y0024181D01*
X0237551Y0024102D01*
X0237424Y0024026D01*
X0237295Y0023954D01*
X0237164Y0023885D01*
X0237031Y0023820D01*
X0236896Y0023759D01*
X0236760Y0023701D01*
X0236623Y0023646D01*
X0236484Y0023596D01*
X0236343Y0023549D01*
X0236202Y0023506D01*
X0236059Y0023466D01*
X0235915Y0023431D01*
X0235771Y0023399D01*
X0235625Y0023372D01*
X0235479Y0023348D01*
X0235332Y0023328D01*
X0235185Y0023312D01*
X0235038Y0023300D01*
X0234890Y0023292D01*
X0234742Y0023288D01*
X0234594Y0023288D01*
X0234446Y0023292D01*
X0234298Y0023300D01*
X0234151Y0023312D01*
X0234004Y0023328D01*
X0233857Y0023348D01*
X0233711Y0023372D01*
X0233565Y0023399D01*
X0233421Y0023431D01*
X0233277Y0023466D01*
X0233134Y0023506D01*
X0232993Y0023549D01*
X0232852Y0023596D01*
X0232713Y0023646D01*
X0232576Y0023701D01*
X0232440Y0023759D01*
X0232305Y0023820D01*
X0232172Y0023885D01*
X0232041Y0023954D01*
X0231912Y0024026D01*
X0231785Y0024102D01*
X0231660Y0024181D01*
X0231537Y0024264D01*
X0231416Y0024349D01*
X0231298Y0024438D01*
X0231182Y0024530D01*
X0231069Y0024626D01*
X0230958Y0024724D01*
X0230850Y0024825D01*
X0230744Y0024929D01*
X0230642Y0025035D01*
X0230542Y0025145D01*
X0230446Y0025257D01*
X0230352Y0025372D01*
X0230261Y0025489D01*
X0230174Y0025608D01*
X0230090Y0025730D01*
X0230009Y0025854D01*
X0229932Y0025980D01*
X0229858Y0026108D01*
X0229787Y0026238D01*
X0229720Y0026370D01*
X0229657Y0026504D01*
X0229597Y0026639D01*
X0229541Y0026776D01*
X0229488Y0026915D01*
X0229440Y0027055D01*
X0229395Y0027196D01*
X0229354Y0027338D01*
X0229316Y0027481D01*
X0229283Y0027625D01*
X0229253Y0027770D01*
X0229227Y0027916D01*
X0229206Y0028062D01*
X0229188Y0028209D01*
X0229174Y0028356D01*
X0229164Y0028504D01*
X0229158Y0028652D01*
X0229156Y0028800D01*
X0226897Y0003800D02*
X0227613Y0003809D01*
X0228328Y0003835D01*
X0229043Y0003878D01*
X0229756Y0003938D01*
X0230468Y0004016D01*
X0231177Y0004111D01*
X0231884Y0004223D01*
X0232588Y0004352D01*
X0233289Y0004498D01*
X0233986Y0004661D01*
X0234679Y0004840D01*
X0235367Y0005037D01*
X0236051Y0005250D01*
X0236729Y0005479D01*
X0237401Y0005725D01*
X0238067Y0005987D01*
X0238727Y0006265D01*
X0239380Y0006559D01*
X0240025Y0006868D01*
X0240663Y0007193D01*
X0241293Y0007533D01*
X0241914Y0007889D01*
X0242527Y0008259D01*
X0243130Y0008644D01*
X0243724Y0009044D01*
X0244308Y0009457D01*
X0244882Y0009885D01*
X0245446Y0010326D01*
X0245999Y0010781D01*
X0246540Y0011250D01*
X0247070Y0011731D01*
X0247588Y0012225D01*
X0248094Y0012731D01*
X0248588Y0013249D01*
X0249069Y0013779D01*
X0249538Y0014320D01*
X0249993Y0014873D01*
X0250434Y0015437D01*
X0250862Y0016011D01*
X0251275Y0016595D01*
X0251675Y0017189D01*
X0252060Y0017792D01*
X0252430Y0018405D01*
X0252786Y0019026D01*
X0253126Y0019656D01*
X0253451Y0020294D01*
X0253760Y0020939D01*
X0254054Y0021592D01*
X0254332Y0022252D01*
X0254594Y0022918D01*
X0254840Y0023590D01*
X0255069Y0024268D01*
X0255282Y0024952D01*
X0255479Y0025640D01*
X0255658Y0026333D01*
X0255821Y0027030D01*
X0255967Y0027731D01*
X0256096Y0028435D01*
X0256208Y0029142D01*
X0256303Y0029851D01*
X0256381Y0030563D01*
X0256441Y0031276D01*
X0256484Y0031991D01*
X0256510Y0032706D01*
X0256519Y0033422D01*
X0226897Y0003800D02*
X0066739Y0003800D01*
X0066568Y0003802D01*
X0066397Y0003808D01*
X0066227Y0003819D01*
X0066057Y0003833D01*
X0065887Y0003852D01*
X0065717Y0003874D01*
X0065549Y0003901D01*
X0065380Y0003932D01*
X0065213Y0003967D01*
X0065047Y0004005D01*
X0064881Y0004048D01*
X0064717Y0004095D01*
X0064554Y0004146D01*
X0064392Y0004201D01*
X0064232Y0004260D01*
X0064073Y0004322D01*
X0063915Y0004388D01*
X0063759Y0004458D01*
X0063605Y0004532D01*
X0063453Y0004610D01*
X0063303Y0004691D01*
X0063154Y0004776D01*
X0063008Y0004864D01*
X0062864Y0004956D01*
X0062722Y0005052D01*
X0062583Y0005150D01*
X0062446Y0005253D01*
X0062311Y0005358D01*
X0062179Y0005467D01*
X0062050Y0005578D01*
X0061924Y0005693D01*
X0061800Y0005811D01*
X0061679Y0005932D01*
X0061561Y0006056D01*
X0061446Y0006182D01*
X0061335Y0006311D01*
X0061226Y0006443D01*
X0061121Y0006578D01*
X0061018Y0006715D01*
X0060920Y0006854D01*
X0060824Y0006996D01*
X0060732Y0007140D01*
X0060644Y0007286D01*
X0060559Y0007435D01*
X0060478Y0007585D01*
X0060400Y0007737D01*
X0060326Y0007891D01*
X0060256Y0008047D01*
X0060190Y0008205D01*
X0060128Y0008364D01*
X0060069Y0008524D01*
X0060014Y0008686D01*
X0059963Y0008849D01*
X0059916Y0009013D01*
X0059873Y0009179D01*
X0059835Y0009345D01*
X0059800Y0009512D01*
X0059769Y0009681D01*
X0059742Y0009849D01*
X0059720Y0010019D01*
X0059701Y0010189D01*
X0059687Y0010359D01*
X0059676Y0010529D01*
X0059670Y0010700D01*
X0059668Y0010871D01*
X0068920Y0029942D02*
X0068922Y0030035D01*
X0068928Y0030127D01*
X0068938Y0030219D01*
X0068952Y0030310D01*
X0068969Y0030401D01*
X0068991Y0030491D01*
X0069016Y0030580D01*
X0069045Y0030668D01*
X0069078Y0030754D01*
X0069115Y0030839D01*
X0069155Y0030923D01*
X0069199Y0031004D01*
X0069246Y0031084D01*
X0069296Y0031162D01*
X0069350Y0031237D01*
X0069407Y0031310D01*
X0069467Y0031380D01*
X0069530Y0031448D01*
X0069596Y0031513D01*
X0069664Y0031575D01*
X0069735Y0031635D01*
X0069809Y0031691D01*
X0069885Y0031744D01*
X0069963Y0031793D01*
X0070043Y0031840D01*
X0070125Y0031882D01*
X0070209Y0031922D01*
X0070294Y0031957D01*
X0070381Y0031989D01*
X0070469Y0032018D01*
X0070558Y0032042D01*
X0070648Y0032063D01*
X0070739Y0032079D01*
X0070831Y0032092D01*
X0070923Y0032101D01*
X0071016Y0032106D01*
X0071108Y0032107D01*
X0071201Y0032104D01*
X0071293Y0032097D01*
X0071385Y0032086D01*
X0071476Y0032071D01*
X0071567Y0032053D01*
X0071657Y0032030D01*
X0071745Y0032004D01*
X0071833Y0031974D01*
X0071919Y0031940D01*
X0072003Y0031903D01*
X0072086Y0031861D01*
X0072167Y0031817D01*
X0072247Y0031769D01*
X0072324Y0031718D01*
X0072398Y0031663D01*
X0072471Y0031605D01*
X0072541Y0031545D01*
X0072608Y0031481D01*
X0072672Y0031415D01*
X0072734Y0031345D01*
X0072792Y0031274D01*
X0072847Y0031200D01*
X0072899Y0031123D01*
X0072948Y0031044D01*
X0072994Y0030964D01*
X0073036Y0030881D01*
X0073074Y0030797D01*
X0073109Y0030711D01*
X0073140Y0030624D01*
X0073167Y0030536D01*
X0073190Y0030446D01*
X0073210Y0030356D01*
X0073226Y0030265D01*
X0073238Y0030173D01*
X0073246Y0030081D01*
X0073250Y0029988D01*
X0073250Y0029896D01*
X0073246Y0029803D01*
X0073238Y0029711D01*
X0073226Y0029619D01*
X0073210Y0029528D01*
X0073190Y0029438D01*
X0073167Y0029348D01*
X0073140Y0029260D01*
X0073109Y0029173D01*
X0073074Y0029087D01*
X0073036Y0029003D01*
X0072994Y0028920D01*
X0072948Y0028840D01*
X0072899Y0028761D01*
X0072847Y0028684D01*
X0072792Y0028610D01*
X0072734Y0028539D01*
X0072672Y0028469D01*
X0072608Y0028403D01*
X0072541Y0028339D01*
X0072471Y0028279D01*
X0072398Y0028221D01*
X0072324Y0028166D01*
X0072247Y0028115D01*
X0072168Y0028067D01*
X0072086Y0028023D01*
X0072003Y0027981D01*
X0071919Y0027944D01*
X0071833Y0027910D01*
X0071745Y0027880D01*
X0071657Y0027854D01*
X0071567Y0027831D01*
X0071476Y0027813D01*
X0071385Y0027798D01*
X0071293Y0027787D01*
X0071201Y0027780D01*
X0071108Y0027777D01*
X0071016Y0027778D01*
X0070923Y0027783D01*
X0070831Y0027792D01*
X0070739Y0027805D01*
X0070648Y0027821D01*
X0070558Y0027842D01*
X0070469Y0027866D01*
X0070381Y0027895D01*
X0070294Y0027927D01*
X0070209Y0027962D01*
X0070125Y0028002D01*
X0070043Y0028044D01*
X0069963Y0028091D01*
X0069885Y0028140D01*
X0069809Y0028193D01*
X0069735Y0028249D01*
X0069664Y0028309D01*
X0069596Y0028371D01*
X0069530Y0028436D01*
X0069467Y0028504D01*
X0069407Y0028574D01*
X0069350Y0028647D01*
X0069296Y0028722D01*
X0069246Y0028800D01*
X0069199Y0028880D01*
X0069155Y0028961D01*
X0069115Y0029045D01*
X0069078Y0029130D01*
X0069045Y0029216D01*
X0069016Y0029304D01*
X0068991Y0029393D01*
X0068969Y0029483D01*
X0068952Y0029574D01*
X0068938Y0029665D01*
X0068928Y0029757D01*
X0068922Y0029849D01*
X0068920Y0029942D01*
X0068920Y0047658D02*
X0068922Y0047751D01*
X0068928Y0047843D01*
X0068938Y0047935D01*
X0068952Y0048026D01*
X0068969Y0048117D01*
X0068991Y0048207D01*
X0069016Y0048296D01*
X0069045Y0048384D01*
X0069078Y0048470D01*
X0069115Y0048555D01*
X0069155Y0048639D01*
X0069199Y0048720D01*
X0069246Y0048800D01*
X0069296Y0048878D01*
X0069350Y0048953D01*
X0069407Y0049026D01*
X0069467Y0049096D01*
X0069530Y0049164D01*
X0069596Y0049229D01*
X0069664Y0049291D01*
X0069735Y0049351D01*
X0069809Y0049407D01*
X0069885Y0049460D01*
X0069963Y0049509D01*
X0070043Y0049556D01*
X0070125Y0049598D01*
X0070209Y0049638D01*
X0070294Y0049673D01*
X0070381Y0049705D01*
X0070469Y0049734D01*
X0070558Y0049758D01*
X0070648Y0049779D01*
X0070739Y0049795D01*
X0070831Y0049808D01*
X0070923Y0049817D01*
X0071016Y0049822D01*
X0071108Y0049823D01*
X0071201Y0049820D01*
X0071293Y0049813D01*
X0071385Y0049802D01*
X0071476Y0049787D01*
X0071567Y0049769D01*
X0071657Y0049746D01*
X0071745Y0049720D01*
X0071833Y0049690D01*
X0071919Y0049656D01*
X0072003Y0049619D01*
X0072086Y0049577D01*
X0072167Y0049533D01*
X0072247Y0049485D01*
X0072324Y0049434D01*
X0072398Y0049379D01*
X0072471Y0049321D01*
X0072541Y0049261D01*
X0072608Y0049197D01*
X0072672Y0049131D01*
X0072734Y0049061D01*
X0072792Y0048990D01*
X0072847Y0048916D01*
X0072899Y0048839D01*
X0072948Y0048760D01*
X0072994Y0048680D01*
X0073036Y0048597D01*
X0073074Y0048513D01*
X0073109Y0048427D01*
X0073140Y0048340D01*
X0073167Y0048252D01*
X0073190Y0048162D01*
X0073210Y0048072D01*
X0073226Y0047981D01*
X0073238Y0047889D01*
X0073246Y0047797D01*
X0073250Y0047704D01*
X0073250Y0047612D01*
X0073246Y0047519D01*
X0073238Y0047427D01*
X0073226Y0047335D01*
X0073210Y0047244D01*
X0073190Y0047154D01*
X0073167Y0047064D01*
X0073140Y0046976D01*
X0073109Y0046889D01*
X0073074Y0046803D01*
X0073036Y0046719D01*
X0072994Y0046636D01*
X0072948Y0046556D01*
X0072899Y0046477D01*
X0072847Y0046400D01*
X0072792Y0046326D01*
X0072734Y0046255D01*
X0072672Y0046185D01*
X0072608Y0046119D01*
X0072541Y0046055D01*
X0072471Y0045995D01*
X0072398Y0045937D01*
X0072324Y0045882D01*
X0072247Y0045831D01*
X0072168Y0045783D01*
X0072086Y0045739D01*
X0072003Y0045697D01*
X0071919Y0045660D01*
X0071833Y0045626D01*
X0071745Y0045596D01*
X0071657Y0045570D01*
X0071567Y0045547D01*
X0071476Y0045529D01*
X0071385Y0045514D01*
X0071293Y0045503D01*
X0071201Y0045496D01*
X0071108Y0045493D01*
X0071016Y0045494D01*
X0070923Y0045499D01*
X0070831Y0045508D01*
X0070739Y0045521D01*
X0070648Y0045537D01*
X0070558Y0045558D01*
X0070469Y0045582D01*
X0070381Y0045611D01*
X0070294Y0045643D01*
X0070209Y0045678D01*
X0070125Y0045718D01*
X0070043Y0045760D01*
X0069963Y0045807D01*
X0069885Y0045856D01*
X0069809Y0045909D01*
X0069735Y0045965D01*
X0069664Y0046025D01*
X0069596Y0046087D01*
X0069530Y0046152D01*
X0069467Y0046220D01*
X0069407Y0046290D01*
X0069350Y0046363D01*
X0069296Y0046438D01*
X0069246Y0046516D01*
X0069199Y0046596D01*
X0069155Y0046677D01*
X0069115Y0046761D01*
X0069078Y0046846D01*
X0069045Y0046932D01*
X0069016Y0047020D01*
X0068991Y0047109D01*
X0068969Y0047199D01*
X0068952Y0047290D01*
X0068938Y0047381D01*
X0068928Y0047473D01*
X0068922Y0047565D01*
X0068920Y0047658D01*
D11*
X0179668Y0046400D02*
X0179668Y0041200D01*
X0189668Y0041200D02*
X0189668Y0046400D01*
X0199668Y0046400D02*
X0199668Y0041200D01*
X0209668Y0041200D02*
X0209668Y0046400D01*
X0209668Y0071200D02*
X0209668Y0076400D01*
X0199668Y0076400D02*
X0199668Y0071200D01*
X0189668Y0071200D02*
X0189668Y0076400D01*
X0179668Y0076400D02*
X0179668Y0071200D01*
D12*
X0152668Y0088800D03*
X0116668Y0088800D03*
X0116668Y0033800D03*
X0116668Y0018800D03*
X0152668Y0018800D03*
X0152668Y0033800D03*
X0194668Y0135800D03*
X0169668Y0153800D03*
X0169668Y0163800D03*
X0194668Y0171800D03*
X0211668Y0173800D03*
X0247668Y0173800D03*
D13*
X0154668Y0068800D03*
X0154668Y0048800D03*
X0114668Y0048800D03*
X0114668Y0068800D03*
D14*
X0199668Y0113800D03*
X0234668Y0113800D03*
D15*
X0234668Y0103800D03*
X0199668Y0103800D03*
D16*
X0220768Y0136000D03*
X0238568Y0136000D03*
X0238568Y0161600D03*
X0220768Y0161600D03*
X0080928Y0052580D03*
X0080928Y0043237D03*
X0080928Y0034363D03*
X0080928Y0025020D03*
D17*
X0071479Y0015965D03*
X0071479Y0061635D03*
D18*
X0071085Y0047658D03*
X0071085Y0029942D03*
D19*
X0179668Y0016800D02*
X0179668Y0010800D01*
X0189668Y0010800D02*
X0189668Y0016800D01*
X0199668Y0016800D02*
X0199668Y0010800D01*
X0209668Y0010800D02*
X0209668Y0016800D01*
X0236668Y0053800D02*
X0242668Y0053800D01*
X0242668Y0063800D02*
X0236668Y0063800D01*
X0236668Y0073800D02*
X0242668Y0073800D01*
X0242668Y0083800D02*
X0236668Y0083800D01*
X0154668Y0125800D02*
X0154668Y0131800D01*
X0144668Y0131800D02*
X0144668Y0125800D01*
X0134668Y0125800D02*
X0134668Y0131800D01*
X0124668Y0131800D02*
X0124668Y0125800D01*
D20*
X0094668Y0128800D03*
X0079668Y0128800D03*
X0079668Y0113800D03*
X0094668Y0113800D03*
X0094668Y0098800D03*
X0079668Y0098800D03*
X0079668Y0083800D03*
X0094668Y0083800D03*
X0094668Y0143800D03*
X0079668Y0143800D03*
D21*
X0089668Y0168800D03*
X0234668Y0028800D03*
M02*
