G75*
%MOIN*%
%OFA0B0*%
%FSLAX25Y25*%
%IPPOS*%
%LPD*%
%AMOC8*
5,1,8,0,0,1.08239X$1,22.5*
%
%ADD10C,0.00000*%
%ADD11C,0.05200*%
%ADD12OC8,0.06600*%
%ADD13C,0.06600*%
%ADD14C,0.06500*%
%ADD15R,0.06500X0.06500*%
%ADD16C,0.07400*%
%ADD17C,0.12661*%
%ADD18C,0.06000*%
%ADD19OC8,0.08500*%
%ADD20C,0.01200*%
%ADD21C,0.01600*%
%ADD22C,0.03562*%
D10*
X0059668Y0008871D02*
X0059668Y0138747D01*
X0084156Y0166800D02*
X0084158Y0166948D01*
X0084164Y0167096D01*
X0084174Y0167244D01*
X0084188Y0167391D01*
X0084206Y0167538D01*
X0084227Y0167684D01*
X0084253Y0167830D01*
X0084283Y0167975D01*
X0084316Y0168119D01*
X0084354Y0168262D01*
X0084395Y0168404D01*
X0084440Y0168545D01*
X0084488Y0168685D01*
X0084541Y0168824D01*
X0084597Y0168961D01*
X0084657Y0169096D01*
X0084720Y0169230D01*
X0084787Y0169362D01*
X0084858Y0169492D01*
X0084932Y0169620D01*
X0085009Y0169746D01*
X0085090Y0169870D01*
X0085174Y0169992D01*
X0085261Y0170111D01*
X0085352Y0170228D01*
X0085446Y0170343D01*
X0085542Y0170455D01*
X0085642Y0170565D01*
X0085744Y0170671D01*
X0085850Y0170775D01*
X0085958Y0170876D01*
X0086069Y0170974D01*
X0086182Y0171070D01*
X0086298Y0171162D01*
X0086416Y0171251D01*
X0086537Y0171336D01*
X0086660Y0171419D01*
X0086785Y0171498D01*
X0086912Y0171574D01*
X0087041Y0171646D01*
X0087172Y0171715D01*
X0087305Y0171780D01*
X0087440Y0171841D01*
X0087576Y0171899D01*
X0087713Y0171954D01*
X0087852Y0172004D01*
X0087993Y0172051D01*
X0088134Y0172094D01*
X0088277Y0172134D01*
X0088421Y0172169D01*
X0088565Y0172201D01*
X0088711Y0172228D01*
X0088857Y0172252D01*
X0089004Y0172272D01*
X0089151Y0172288D01*
X0089298Y0172300D01*
X0089446Y0172308D01*
X0089594Y0172312D01*
X0089742Y0172312D01*
X0089890Y0172308D01*
X0090038Y0172300D01*
X0090185Y0172288D01*
X0090332Y0172272D01*
X0090479Y0172252D01*
X0090625Y0172228D01*
X0090771Y0172201D01*
X0090915Y0172169D01*
X0091059Y0172134D01*
X0091202Y0172094D01*
X0091343Y0172051D01*
X0091484Y0172004D01*
X0091623Y0171954D01*
X0091760Y0171899D01*
X0091896Y0171841D01*
X0092031Y0171780D01*
X0092164Y0171715D01*
X0092295Y0171646D01*
X0092424Y0171574D01*
X0092551Y0171498D01*
X0092676Y0171419D01*
X0092799Y0171336D01*
X0092920Y0171251D01*
X0093038Y0171162D01*
X0093154Y0171070D01*
X0093267Y0170974D01*
X0093378Y0170876D01*
X0093486Y0170775D01*
X0093592Y0170671D01*
X0093694Y0170565D01*
X0093794Y0170455D01*
X0093890Y0170343D01*
X0093984Y0170228D01*
X0094075Y0170111D01*
X0094162Y0169992D01*
X0094246Y0169870D01*
X0094327Y0169746D01*
X0094404Y0169620D01*
X0094478Y0169492D01*
X0094549Y0169362D01*
X0094616Y0169230D01*
X0094679Y0169096D01*
X0094739Y0168961D01*
X0094795Y0168824D01*
X0094848Y0168685D01*
X0094896Y0168545D01*
X0094941Y0168404D01*
X0094982Y0168262D01*
X0095020Y0168119D01*
X0095053Y0167975D01*
X0095083Y0167830D01*
X0095109Y0167684D01*
X0095130Y0167538D01*
X0095148Y0167391D01*
X0095162Y0167244D01*
X0095172Y0167096D01*
X0095178Y0166948D01*
X0095180Y0166800D01*
X0095178Y0166652D01*
X0095172Y0166504D01*
X0095162Y0166356D01*
X0095148Y0166209D01*
X0095130Y0166062D01*
X0095109Y0165916D01*
X0095083Y0165770D01*
X0095053Y0165625D01*
X0095020Y0165481D01*
X0094982Y0165338D01*
X0094941Y0165196D01*
X0094896Y0165055D01*
X0094848Y0164915D01*
X0094795Y0164776D01*
X0094739Y0164639D01*
X0094679Y0164504D01*
X0094616Y0164370D01*
X0094549Y0164238D01*
X0094478Y0164108D01*
X0094404Y0163980D01*
X0094327Y0163854D01*
X0094246Y0163730D01*
X0094162Y0163608D01*
X0094075Y0163489D01*
X0093984Y0163372D01*
X0093890Y0163257D01*
X0093794Y0163145D01*
X0093694Y0163035D01*
X0093592Y0162929D01*
X0093486Y0162825D01*
X0093378Y0162724D01*
X0093267Y0162626D01*
X0093154Y0162530D01*
X0093038Y0162438D01*
X0092920Y0162349D01*
X0092799Y0162264D01*
X0092676Y0162181D01*
X0092551Y0162102D01*
X0092424Y0162026D01*
X0092295Y0161954D01*
X0092164Y0161885D01*
X0092031Y0161820D01*
X0091896Y0161759D01*
X0091760Y0161701D01*
X0091623Y0161646D01*
X0091484Y0161596D01*
X0091343Y0161549D01*
X0091202Y0161506D01*
X0091059Y0161466D01*
X0090915Y0161431D01*
X0090771Y0161399D01*
X0090625Y0161372D01*
X0090479Y0161348D01*
X0090332Y0161328D01*
X0090185Y0161312D01*
X0090038Y0161300D01*
X0089890Y0161292D01*
X0089742Y0161288D01*
X0089594Y0161288D01*
X0089446Y0161292D01*
X0089298Y0161300D01*
X0089151Y0161312D01*
X0089004Y0161328D01*
X0088857Y0161348D01*
X0088711Y0161372D01*
X0088565Y0161399D01*
X0088421Y0161431D01*
X0088277Y0161466D01*
X0088134Y0161506D01*
X0087993Y0161549D01*
X0087852Y0161596D01*
X0087713Y0161646D01*
X0087576Y0161701D01*
X0087440Y0161759D01*
X0087305Y0161820D01*
X0087172Y0161885D01*
X0087041Y0161954D01*
X0086912Y0162026D01*
X0086785Y0162102D01*
X0086660Y0162181D01*
X0086537Y0162264D01*
X0086416Y0162349D01*
X0086298Y0162438D01*
X0086182Y0162530D01*
X0086069Y0162626D01*
X0085958Y0162724D01*
X0085850Y0162825D01*
X0085744Y0162929D01*
X0085642Y0163035D01*
X0085542Y0163145D01*
X0085446Y0163257D01*
X0085352Y0163372D01*
X0085261Y0163489D01*
X0085174Y0163608D01*
X0085090Y0163730D01*
X0085009Y0163854D01*
X0084932Y0163980D01*
X0084858Y0164108D01*
X0084787Y0164238D01*
X0084720Y0164370D01*
X0084657Y0164504D01*
X0084597Y0164639D01*
X0084541Y0164776D01*
X0084488Y0164915D01*
X0084440Y0165055D01*
X0084395Y0165196D01*
X0084354Y0165338D01*
X0084316Y0165481D01*
X0084283Y0165625D01*
X0084253Y0165770D01*
X0084227Y0165916D01*
X0084206Y0166062D01*
X0084188Y0166209D01*
X0084174Y0166356D01*
X0084164Y0166504D01*
X0084158Y0166652D01*
X0084156Y0166800D01*
X0059667Y0138747D02*
X0059684Y0140195D01*
X0059737Y0141641D01*
X0059824Y0143086D01*
X0059947Y0144529D01*
X0060104Y0145968D01*
X0060296Y0147402D01*
X0060522Y0148832D01*
X0060783Y0150256D01*
X0061078Y0151673D01*
X0061408Y0153083D01*
X0061771Y0154484D01*
X0062168Y0155876D01*
X0062599Y0157258D01*
X0063063Y0158630D01*
X0063560Y0159989D01*
X0064089Y0161336D01*
X0064651Y0162671D01*
X0065246Y0163991D01*
X0065871Y0165296D01*
X0066529Y0166586D01*
X0067217Y0167859D01*
X0067936Y0169116D01*
X0068684Y0170355D01*
X0069463Y0171575D01*
X0070271Y0172776D01*
X0071108Y0173958D01*
X0071973Y0175118D01*
X0072865Y0176258D01*
X0073785Y0177376D01*
X0074732Y0178471D01*
X0075705Y0179543D01*
X0076704Y0180591D01*
X0077727Y0181614D01*
X0078775Y0182613D01*
X0079847Y0183586D01*
X0080942Y0184533D01*
X0082060Y0185453D01*
X0083200Y0186345D01*
X0084360Y0187210D01*
X0085542Y0188047D01*
X0086743Y0188855D01*
X0087963Y0189634D01*
X0089202Y0190382D01*
X0090459Y0191101D01*
X0091732Y0191789D01*
X0093022Y0192447D01*
X0094327Y0193072D01*
X0095647Y0193667D01*
X0096982Y0194229D01*
X0098329Y0194758D01*
X0099688Y0195255D01*
X0101060Y0195719D01*
X0102442Y0196150D01*
X0103834Y0196547D01*
X0105235Y0196910D01*
X0106645Y0197240D01*
X0108062Y0197535D01*
X0109486Y0197796D01*
X0110916Y0198022D01*
X0112350Y0198214D01*
X0113789Y0198371D01*
X0115232Y0198494D01*
X0116677Y0198581D01*
X0118123Y0198634D01*
X0119571Y0198651D01*
X0119571Y0198650D02*
X0218546Y0198650D01*
X0219464Y0198639D01*
X0220381Y0198606D01*
X0221296Y0198550D01*
X0222211Y0198473D01*
X0223123Y0198373D01*
X0224033Y0198252D01*
X0224939Y0198108D01*
X0225841Y0197943D01*
X0226740Y0197755D01*
X0227633Y0197547D01*
X0228522Y0197316D01*
X0229404Y0197065D01*
X0230280Y0196792D01*
X0231149Y0196497D01*
X0232011Y0196182D01*
X0232865Y0195847D01*
X0233711Y0195490D01*
X0234547Y0195114D01*
X0235375Y0194717D01*
X0236192Y0194301D01*
X0237000Y0193864D01*
X0237796Y0193409D01*
X0238582Y0192934D01*
X0239355Y0192440D01*
X0240117Y0191928D01*
X0240865Y0191398D01*
X0241601Y0190850D01*
X0242324Y0190284D01*
X0243032Y0189701D01*
X0243726Y0189100D01*
X0244406Y0188484D01*
X0245070Y0187851D01*
X0245719Y0187202D01*
X0246352Y0186538D01*
X0246968Y0185858D01*
X0247569Y0185164D01*
X0248152Y0184456D01*
X0248718Y0183733D01*
X0249266Y0182997D01*
X0249796Y0182249D01*
X0250308Y0181487D01*
X0250802Y0180714D01*
X0251277Y0179928D01*
X0251732Y0179132D01*
X0252169Y0178324D01*
X0252585Y0177507D01*
X0252982Y0176679D01*
X0253358Y0175843D01*
X0253715Y0174997D01*
X0254050Y0174143D01*
X0254365Y0173281D01*
X0254660Y0172412D01*
X0254933Y0171536D01*
X0255184Y0170654D01*
X0255415Y0169765D01*
X0255623Y0168872D01*
X0255811Y0167973D01*
X0255976Y0167071D01*
X0256120Y0166165D01*
X0256241Y0165255D01*
X0256341Y0164343D01*
X0256418Y0163428D01*
X0256474Y0162513D01*
X0256507Y0161596D01*
X0256518Y0160678D01*
X0256518Y0031422D01*
X0229156Y0026800D02*
X0229158Y0026948D01*
X0229164Y0027096D01*
X0229174Y0027244D01*
X0229188Y0027391D01*
X0229206Y0027538D01*
X0229227Y0027684D01*
X0229253Y0027830D01*
X0229283Y0027975D01*
X0229316Y0028119D01*
X0229354Y0028262D01*
X0229395Y0028404D01*
X0229440Y0028545D01*
X0229488Y0028685D01*
X0229541Y0028824D01*
X0229597Y0028961D01*
X0229657Y0029096D01*
X0229720Y0029230D01*
X0229787Y0029362D01*
X0229858Y0029492D01*
X0229932Y0029620D01*
X0230009Y0029746D01*
X0230090Y0029870D01*
X0230174Y0029992D01*
X0230261Y0030111D01*
X0230352Y0030228D01*
X0230446Y0030343D01*
X0230542Y0030455D01*
X0230642Y0030565D01*
X0230744Y0030671D01*
X0230850Y0030775D01*
X0230958Y0030876D01*
X0231069Y0030974D01*
X0231182Y0031070D01*
X0231298Y0031162D01*
X0231416Y0031251D01*
X0231537Y0031336D01*
X0231660Y0031419D01*
X0231785Y0031498D01*
X0231912Y0031574D01*
X0232041Y0031646D01*
X0232172Y0031715D01*
X0232305Y0031780D01*
X0232440Y0031841D01*
X0232576Y0031899D01*
X0232713Y0031954D01*
X0232852Y0032004D01*
X0232993Y0032051D01*
X0233134Y0032094D01*
X0233277Y0032134D01*
X0233421Y0032169D01*
X0233565Y0032201D01*
X0233711Y0032228D01*
X0233857Y0032252D01*
X0234004Y0032272D01*
X0234151Y0032288D01*
X0234298Y0032300D01*
X0234446Y0032308D01*
X0234594Y0032312D01*
X0234742Y0032312D01*
X0234890Y0032308D01*
X0235038Y0032300D01*
X0235185Y0032288D01*
X0235332Y0032272D01*
X0235479Y0032252D01*
X0235625Y0032228D01*
X0235771Y0032201D01*
X0235915Y0032169D01*
X0236059Y0032134D01*
X0236202Y0032094D01*
X0236343Y0032051D01*
X0236484Y0032004D01*
X0236623Y0031954D01*
X0236760Y0031899D01*
X0236896Y0031841D01*
X0237031Y0031780D01*
X0237164Y0031715D01*
X0237295Y0031646D01*
X0237424Y0031574D01*
X0237551Y0031498D01*
X0237676Y0031419D01*
X0237799Y0031336D01*
X0237920Y0031251D01*
X0238038Y0031162D01*
X0238154Y0031070D01*
X0238267Y0030974D01*
X0238378Y0030876D01*
X0238486Y0030775D01*
X0238592Y0030671D01*
X0238694Y0030565D01*
X0238794Y0030455D01*
X0238890Y0030343D01*
X0238984Y0030228D01*
X0239075Y0030111D01*
X0239162Y0029992D01*
X0239246Y0029870D01*
X0239327Y0029746D01*
X0239404Y0029620D01*
X0239478Y0029492D01*
X0239549Y0029362D01*
X0239616Y0029230D01*
X0239679Y0029096D01*
X0239739Y0028961D01*
X0239795Y0028824D01*
X0239848Y0028685D01*
X0239896Y0028545D01*
X0239941Y0028404D01*
X0239982Y0028262D01*
X0240020Y0028119D01*
X0240053Y0027975D01*
X0240083Y0027830D01*
X0240109Y0027684D01*
X0240130Y0027538D01*
X0240148Y0027391D01*
X0240162Y0027244D01*
X0240172Y0027096D01*
X0240178Y0026948D01*
X0240180Y0026800D01*
X0240178Y0026652D01*
X0240172Y0026504D01*
X0240162Y0026356D01*
X0240148Y0026209D01*
X0240130Y0026062D01*
X0240109Y0025916D01*
X0240083Y0025770D01*
X0240053Y0025625D01*
X0240020Y0025481D01*
X0239982Y0025338D01*
X0239941Y0025196D01*
X0239896Y0025055D01*
X0239848Y0024915D01*
X0239795Y0024776D01*
X0239739Y0024639D01*
X0239679Y0024504D01*
X0239616Y0024370D01*
X0239549Y0024238D01*
X0239478Y0024108D01*
X0239404Y0023980D01*
X0239327Y0023854D01*
X0239246Y0023730D01*
X0239162Y0023608D01*
X0239075Y0023489D01*
X0238984Y0023372D01*
X0238890Y0023257D01*
X0238794Y0023145D01*
X0238694Y0023035D01*
X0238592Y0022929D01*
X0238486Y0022825D01*
X0238378Y0022724D01*
X0238267Y0022626D01*
X0238154Y0022530D01*
X0238038Y0022438D01*
X0237920Y0022349D01*
X0237799Y0022264D01*
X0237676Y0022181D01*
X0237551Y0022102D01*
X0237424Y0022026D01*
X0237295Y0021954D01*
X0237164Y0021885D01*
X0237031Y0021820D01*
X0236896Y0021759D01*
X0236760Y0021701D01*
X0236623Y0021646D01*
X0236484Y0021596D01*
X0236343Y0021549D01*
X0236202Y0021506D01*
X0236059Y0021466D01*
X0235915Y0021431D01*
X0235771Y0021399D01*
X0235625Y0021372D01*
X0235479Y0021348D01*
X0235332Y0021328D01*
X0235185Y0021312D01*
X0235038Y0021300D01*
X0234890Y0021292D01*
X0234742Y0021288D01*
X0234594Y0021288D01*
X0234446Y0021292D01*
X0234298Y0021300D01*
X0234151Y0021312D01*
X0234004Y0021328D01*
X0233857Y0021348D01*
X0233711Y0021372D01*
X0233565Y0021399D01*
X0233421Y0021431D01*
X0233277Y0021466D01*
X0233134Y0021506D01*
X0232993Y0021549D01*
X0232852Y0021596D01*
X0232713Y0021646D01*
X0232576Y0021701D01*
X0232440Y0021759D01*
X0232305Y0021820D01*
X0232172Y0021885D01*
X0232041Y0021954D01*
X0231912Y0022026D01*
X0231785Y0022102D01*
X0231660Y0022181D01*
X0231537Y0022264D01*
X0231416Y0022349D01*
X0231298Y0022438D01*
X0231182Y0022530D01*
X0231069Y0022626D01*
X0230958Y0022724D01*
X0230850Y0022825D01*
X0230744Y0022929D01*
X0230642Y0023035D01*
X0230542Y0023145D01*
X0230446Y0023257D01*
X0230352Y0023372D01*
X0230261Y0023489D01*
X0230174Y0023608D01*
X0230090Y0023730D01*
X0230009Y0023854D01*
X0229932Y0023980D01*
X0229858Y0024108D01*
X0229787Y0024238D01*
X0229720Y0024370D01*
X0229657Y0024504D01*
X0229597Y0024639D01*
X0229541Y0024776D01*
X0229488Y0024915D01*
X0229440Y0025055D01*
X0229395Y0025196D01*
X0229354Y0025338D01*
X0229316Y0025481D01*
X0229283Y0025625D01*
X0229253Y0025770D01*
X0229227Y0025916D01*
X0229206Y0026062D01*
X0229188Y0026209D01*
X0229174Y0026356D01*
X0229164Y0026504D01*
X0229158Y0026652D01*
X0229156Y0026800D01*
X0226897Y0001800D02*
X0227613Y0001809D01*
X0228328Y0001835D01*
X0229043Y0001878D01*
X0229756Y0001938D01*
X0230468Y0002016D01*
X0231177Y0002111D01*
X0231884Y0002223D01*
X0232588Y0002352D01*
X0233289Y0002498D01*
X0233986Y0002661D01*
X0234679Y0002840D01*
X0235367Y0003037D01*
X0236051Y0003250D01*
X0236729Y0003479D01*
X0237401Y0003725D01*
X0238067Y0003987D01*
X0238727Y0004265D01*
X0239380Y0004559D01*
X0240025Y0004868D01*
X0240663Y0005193D01*
X0241293Y0005533D01*
X0241914Y0005889D01*
X0242527Y0006259D01*
X0243130Y0006644D01*
X0243724Y0007044D01*
X0244308Y0007457D01*
X0244882Y0007885D01*
X0245446Y0008326D01*
X0245999Y0008781D01*
X0246540Y0009250D01*
X0247070Y0009731D01*
X0247588Y0010225D01*
X0248094Y0010731D01*
X0248588Y0011249D01*
X0249069Y0011779D01*
X0249538Y0012320D01*
X0249993Y0012873D01*
X0250434Y0013437D01*
X0250862Y0014011D01*
X0251275Y0014595D01*
X0251675Y0015189D01*
X0252060Y0015792D01*
X0252430Y0016405D01*
X0252786Y0017026D01*
X0253126Y0017656D01*
X0253451Y0018294D01*
X0253760Y0018939D01*
X0254054Y0019592D01*
X0254332Y0020252D01*
X0254594Y0020918D01*
X0254840Y0021590D01*
X0255069Y0022268D01*
X0255282Y0022952D01*
X0255479Y0023640D01*
X0255658Y0024333D01*
X0255821Y0025030D01*
X0255967Y0025731D01*
X0256096Y0026435D01*
X0256208Y0027142D01*
X0256303Y0027851D01*
X0256381Y0028563D01*
X0256441Y0029276D01*
X0256484Y0029991D01*
X0256510Y0030706D01*
X0256519Y0031422D01*
X0226897Y0001800D02*
X0066739Y0001800D01*
X0066568Y0001802D01*
X0066397Y0001808D01*
X0066227Y0001819D01*
X0066057Y0001833D01*
X0065887Y0001852D01*
X0065717Y0001874D01*
X0065549Y0001901D01*
X0065380Y0001932D01*
X0065213Y0001967D01*
X0065047Y0002005D01*
X0064881Y0002048D01*
X0064717Y0002095D01*
X0064554Y0002146D01*
X0064392Y0002201D01*
X0064232Y0002260D01*
X0064073Y0002322D01*
X0063915Y0002388D01*
X0063759Y0002458D01*
X0063605Y0002532D01*
X0063453Y0002610D01*
X0063303Y0002691D01*
X0063154Y0002776D01*
X0063008Y0002864D01*
X0062864Y0002956D01*
X0062722Y0003052D01*
X0062583Y0003150D01*
X0062446Y0003253D01*
X0062311Y0003358D01*
X0062179Y0003467D01*
X0062050Y0003578D01*
X0061924Y0003693D01*
X0061800Y0003811D01*
X0061679Y0003932D01*
X0061561Y0004056D01*
X0061446Y0004182D01*
X0061335Y0004311D01*
X0061226Y0004443D01*
X0061121Y0004578D01*
X0061018Y0004715D01*
X0060920Y0004854D01*
X0060824Y0004996D01*
X0060732Y0005140D01*
X0060644Y0005286D01*
X0060559Y0005435D01*
X0060478Y0005585D01*
X0060400Y0005737D01*
X0060326Y0005891D01*
X0060256Y0006047D01*
X0060190Y0006205D01*
X0060128Y0006364D01*
X0060069Y0006524D01*
X0060014Y0006686D01*
X0059963Y0006849D01*
X0059916Y0007013D01*
X0059873Y0007179D01*
X0059835Y0007345D01*
X0059800Y0007512D01*
X0059769Y0007681D01*
X0059742Y0007849D01*
X0059720Y0008019D01*
X0059701Y0008189D01*
X0059687Y0008359D01*
X0059676Y0008529D01*
X0059670Y0008700D01*
X0059668Y0008871D01*
X0068920Y0027942D02*
X0068922Y0028035D01*
X0068928Y0028127D01*
X0068938Y0028219D01*
X0068952Y0028310D01*
X0068969Y0028401D01*
X0068991Y0028491D01*
X0069016Y0028580D01*
X0069045Y0028668D01*
X0069078Y0028754D01*
X0069115Y0028839D01*
X0069155Y0028923D01*
X0069199Y0029004D01*
X0069246Y0029084D01*
X0069296Y0029162D01*
X0069350Y0029237D01*
X0069407Y0029310D01*
X0069467Y0029380D01*
X0069530Y0029448D01*
X0069596Y0029513D01*
X0069664Y0029575D01*
X0069735Y0029635D01*
X0069809Y0029691D01*
X0069885Y0029744D01*
X0069963Y0029793D01*
X0070043Y0029840D01*
X0070125Y0029882D01*
X0070209Y0029922D01*
X0070294Y0029957D01*
X0070381Y0029989D01*
X0070469Y0030018D01*
X0070558Y0030042D01*
X0070648Y0030063D01*
X0070739Y0030079D01*
X0070831Y0030092D01*
X0070923Y0030101D01*
X0071016Y0030106D01*
X0071108Y0030107D01*
X0071201Y0030104D01*
X0071293Y0030097D01*
X0071385Y0030086D01*
X0071476Y0030071D01*
X0071567Y0030053D01*
X0071657Y0030030D01*
X0071745Y0030004D01*
X0071833Y0029974D01*
X0071919Y0029940D01*
X0072003Y0029903D01*
X0072086Y0029861D01*
X0072167Y0029817D01*
X0072247Y0029769D01*
X0072324Y0029718D01*
X0072398Y0029663D01*
X0072471Y0029605D01*
X0072541Y0029545D01*
X0072608Y0029481D01*
X0072672Y0029415D01*
X0072734Y0029345D01*
X0072792Y0029274D01*
X0072847Y0029200D01*
X0072899Y0029123D01*
X0072948Y0029044D01*
X0072994Y0028964D01*
X0073036Y0028881D01*
X0073074Y0028797D01*
X0073109Y0028711D01*
X0073140Y0028624D01*
X0073167Y0028536D01*
X0073190Y0028446D01*
X0073210Y0028356D01*
X0073226Y0028265D01*
X0073238Y0028173D01*
X0073246Y0028081D01*
X0073250Y0027988D01*
X0073250Y0027896D01*
X0073246Y0027803D01*
X0073238Y0027711D01*
X0073226Y0027619D01*
X0073210Y0027528D01*
X0073190Y0027438D01*
X0073167Y0027348D01*
X0073140Y0027260D01*
X0073109Y0027173D01*
X0073074Y0027087D01*
X0073036Y0027003D01*
X0072994Y0026920D01*
X0072948Y0026840D01*
X0072899Y0026761D01*
X0072847Y0026684D01*
X0072792Y0026610D01*
X0072734Y0026539D01*
X0072672Y0026469D01*
X0072608Y0026403D01*
X0072541Y0026339D01*
X0072471Y0026279D01*
X0072398Y0026221D01*
X0072324Y0026166D01*
X0072247Y0026115D01*
X0072168Y0026067D01*
X0072086Y0026023D01*
X0072003Y0025981D01*
X0071919Y0025944D01*
X0071833Y0025910D01*
X0071745Y0025880D01*
X0071657Y0025854D01*
X0071567Y0025831D01*
X0071476Y0025813D01*
X0071385Y0025798D01*
X0071293Y0025787D01*
X0071201Y0025780D01*
X0071108Y0025777D01*
X0071016Y0025778D01*
X0070923Y0025783D01*
X0070831Y0025792D01*
X0070739Y0025805D01*
X0070648Y0025821D01*
X0070558Y0025842D01*
X0070469Y0025866D01*
X0070381Y0025895D01*
X0070294Y0025927D01*
X0070209Y0025962D01*
X0070125Y0026002D01*
X0070043Y0026044D01*
X0069963Y0026091D01*
X0069885Y0026140D01*
X0069809Y0026193D01*
X0069735Y0026249D01*
X0069664Y0026309D01*
X0069596Y0026371D01*
X0069530Y0026436D01*
X0069467Y0026504D01*
X0069407Y0026574D01*
X0069350Y0026647D01*
X0069296Y0026722D01*
X0069246Y0026800D01*
X0069199Y0026880D01*
X0069155Y0026961D01*
X0069115Y0027045D01*
X0069078Y0027130D01*
X0069045Y0027216D01*
X0069016Y0027304D01*
X0068991Y0027393D01*
X0068969Y0027483D01*
X0068952Y0027574D01*
X0068938Y0027665D01*
X0068928Y0027757D01*
X0068922Y0027849D01*
X0068920Y0027942D01*
X0068920Y0045658D02*
X0068922Y0045751D01*
X0068928Y0045843D01*
X0068938Y0045935D01*
X0068952Y0046026D01*
X0068969Y0046117D01*
X0068991Y0046207D01*
X0069016Y0046296D01*
X0069045Y0046384D01*
X0069078Y0046470D01*
X0069115Y0046555D01*
X0069155Y0046639D01*
X0069199Y0046720D01*
X0069246Y0046800D01*
X0069296Y0046878D01*
X0069350Y0046953D01*
X0069407Y0047026D01*
X0069467Y0047096D01*
X0069530Y0047164D01*
X0069596Y0047229D01*
X0069664Y0047291D01*
X0069735Y0047351D01*
X0069809Y0047407D01*
X0069885Y0047460D01*
X0069963Y0047509D01*
X0070043Y0047556D01*
X0070125Y0047598D01*
X0070209Y0047638D01*
X0070294Y0047673D01*
X0070381Y0047705D01*
X0070469Y0047734D01*
X0070558Y0047758D01*
X0070648Y0047779D01*
X0070739Y0047795D01*
X0070831Y0047808D01*
X0070923Y0047817D01*
X0071016Y0047822D01*
X0071108Y0047823D01*
X0071201Y0047820D01*
X0071293Y0047813D01*
X0071385Y0047802D01*
X0071476Y0047787D01*
X0071567Y0047769D01*
X0071657Y0047746D01*
X0071745Y0047720D01*
X0071833Y0047690D01*
X0071919Y0047656D01*
X0072003Y0047619D01*
X0072086Y0047577D01*
X0072167Y0047533D01*
X0072247Y0047485D01*
X0072324Y0047434D01*
X0072398Y0047379D01*
X0072471Y0047321D01*
X0072541Y0047261D01*
X0072608Y0047197D01*
X0072672Y0047131D01*
X0072734Y0047061D01*
X0072792Y0046990D01*
X0072847Y0046916D01*
X0072899Y0046839D01*
X0072948Y0046760D01*
X0072994Y0046680D01*
X0073036Y0046597D01*
X0073074Y0046513D01*
X0073109Y0046427D01*
X0073140Y0046340D01*
X0073167Y0046252D01*
X0073190Y0046162D01*
X0073210Y0046072D01*
X0073226Y0045981D01*
X0073238Y0045889D01*
X0073246Y0045797D01*
X0073250Y0045704D01*
X0073250Y0045612D01*
X0073246Y0045519D01*
X0073238Y0045427D01*
X0073226Y0045335D01*
X0073210Y0045244D01*
X0073190Y0045154D01*
X0073167Y0045064D01*
X0073140Y0044976D01*
X0073109Y0044889D01*
X0073074Y0044803D01*
X0073036Y0044719D01*
X0072994Y0044636D01*
X0072948Y0044556D01*
X0072899Y0044477D01*
X0072847Y0044400D01*
X0072792Y0044326D01*
X0072734Y0044255D01*
X0072672Y0044185D01*
X0072608Y0044119D01*
X0072541Y0044055D01*
X0072471Y0043995D01*
X0072398Y0043937D01*
X0072324Y0043882D01*
X0072247Y0043831D01*
X0072168Y0043783D01*
X0072086Y0043739D01*
X0072003Y0043697D01*
X0071919Y0043660D01*
X0071833Y0043626D01*
X0071745Y0043596D01*
X0071657Y0043570D01*
X0071567Y0043547D01*
X0071476Y0043529D01*
X0071385Y0043514D01*
X0071293Y0043503D01*
X0071201Y0043496D01*
X0071108Y0043493D01*
X0071016Y0043494D01*
X0070923Y0043499D01*
X0070831Y0043508D01*
X0070739Y0043521D01*
X0070648Y0043537D01*
X0070558Y0043558D01*
X0070469Y0043582D01*
X0070381Y0043611D01*
X0070294Y0043643D01*
X0070209Y0043678D01*
X0070125Y0043718D01*
X0070043Y0043760D01*
X0069963Y0043807D01*
X0069885Y0043856D01*
X0069809Y0043909D01*
X0069735Y0043965D01*
X0069664Y0044025D01*
X0069596Y0044087D01*
X0069530Y0044152D01*
X0069467Y0044220D01*
X0069407Y0044290D01*
X0069350Y0044363D01*
X0069296Y0044438D01*
X0069246Y0044516D01*
X0069199Y0044596D01*
X0069155Y0044677D01*
X0069115Y0044761D01*
X0069078Y0044846D01*
X0069045Y0044932D01*
X0069016Y0045020D01*
X0068991Y0045109D01*
X0068969Y0045199D01*
X0068952Y0045290D01*
X0068938Y0045381D01*
X0068928Y0045473D01*
X0068922Y0045565D01*
X0068920Y0045658D01*
D11*
X0179668Y0044400D02*
X0179668Y0039200D01*
X0189668Y0039200D02*
X0189668Y0044400D01*
X0199668Y0044400D02*
X0199668Y0039200D01*
X0209668Y0039200D02*
X0209668Y0044400D01*
X0209668Y0069200D02*
X0209668Y0074400D01*
X0199668Y0074400D02*
X0199668Y0069200D01*
X0189668Y0069200D02*
X0189668Y0074400D01*
X0179668Y0074400D02*
X0179668Y0069200D01*
D12*
X0152668Y0086800D03*
X0152668Y0101800D03*
X0116668Y0101800D03*
X0116668Y0086800D03*
X0116668Y0031800D03*
X0116668Y0016800D03*
X0152668Y0016800D03*
X0152668Y0031800D03*
X0199668Y0133800D03*
X0174668Y0146800D03*
X0174668Y0156800D03*
X0199668Y0169800D03*
D13*
X0154668Y0066800D03*
X0154668Y0046800D03*
X0114668Y0046800D03*
X0114668Y0066800D03*
D14*
X0199668Y0111800D03*
X0234668Y0111800D03*
D15*
X0234668Y0101800D03*
X0199668Y0101800D03*
D16*
X0220768Y0134000D03*
X0238568Y0134000D03*
X0238568Y0159600D03*
X0220768Y0159600D03*
X0080928Y0050580D03*
X0080928Y0041237D03*
X0080928Y0032363D03*
X0080928Y0023020D03*
D17*
X0071479Y0013965D03*
X0071479Y0059635D03*
D18*
X0124668Y0123800D02*
X0124668Y0129800D01*
X0134668Y0129800D02*
X0134668Y0123800D01*
X0144668Y0123800D02*
X0144668Y0129800D01*
X0154668Y0129800D02*
X0154668Y0123800D01*
X0236668Y0081800D02*
X0242668Y0081800D01*
X0242668Y0071800D02*
X0236668Y0071800D01*
X0236668Y0061800D02*
X0242668Y0061800D01*
X0242668Y0051800D02*
X0236668Y0051800D01*
X0209668Y0014800D02*
X0209668Y0008800D01*
X0199668Y0008800D02*
X0199668Y0014800D01*
X0189668Y0014800D02*
X0189668Y0008800D01*
X0179668Y0008800D02*
X0179668Y0014800D01*
D19*
X0094668Y0081800D03*
X0079668Y0081800D03*
X0079668Y0096800D03*
X0094668Y0096800D03*
X0094668Y0111800D03*
X0079668Y0111800D03*
X0079668Y0126800D03*
X0094668Y0126800D03*
X0094668Y0141800D03*
X0079668Y0141800D03*
D20*
X0116668Y0101800D02*
X0129668Y0101800D01*
X0144668Y0086800D01*
X0152668Y0086800D01*
X0159668Y0101800D02*
X0169668Y0091800D01*
X0204668Y0091800D01*
X0209668Y0086800D01*
X0209668Y0071800D01*
X0229668Y0046800D02*
X0229668Y0096800D01*
X0234668Y0101800D01*
X0199668Y0101800D02*
X0194668Y0096800D01*
X0174668Y0096800D01*
X0159668Y0101800D02*
X0152668Y0101800D01*
X0124668Y0066800D02*
X0114668Y0066800D01*
X0124668Y0066800D02*
X0134668Y0056800D01*
X0134668Y0034800D01*
X0116668Y0016800D01*
X0152668Y0016800D02*
X0162668Y0026800D01*
X0184668Y0026800D01*
X0199668Y0036800D01*
X0199668Y0041800D01*
X0209668Y0041800D02*
X0224668Y0041800D01*
X0229668Y0046800D01*
X0189668Y0041800D02*
X0189668Y0036800D01*
X0184668Y0031800D01*
X0152668Y0031800D01*
D21*
X0156489Y0028975D02*
X0184324Y0028975D01*
X0184062Y0028800D02*
X0161839Y0028800D01*
X0154539Y0021500D01*
X0150721Y0021500D01*
X0147968Y0018747D01*
X0147968Y0014853D01*
X0150721Y0012100D01*
X0154615Y0012100D01*
X0157368Y0014853D01*
X0157368Y0018672D01*
X0163496Y0024800D01*
X0184470Y0024800D01*
X0185088Y0024676D01*
X0185273Y0024800D01*
X0185496Y0024800D01*
X0185942Y0025246D01*
X0200273Y0034800D01*
X0200496Y0034800D01*
X0200942Y0035246D01*
X0201466Y0035595D01*
X0201471Y0035617D01*
X0201934Y0035809D01*
X0203059Y0036934D01*
X0203668Y0038404D01*
X0203668Y0045196D01*
X0203059Y0046666D01*
X0201934Y0047791D01*
X0200463Y0048400D01*
X0198872Y0048400D01*
X0197402Y0047791D01*
X0196277Y0046666D01*
X0195668Y0045196D01*
X0195668Y0038404D01*
X0196274Y0036941D01*
X0184062Y0028800D01*
X0185496Y0029800D02*
X0186668Y0030972D01*
X0191202Y0035506D01*
X0191934Y0035809D01*
X0193059Y0036934D01*
X0193668Y0038404D01*
X0193668Y0045196D01*
X0193059Y0046666D01*
X0191934Y0047791D01*
X0190463Y0048400D01*
X0188872Y0048400D01*
X0187402Y0047791D01*
X0186277Y0046666D01*
X0185668Y0045196D01*
X0185668Y0038404D01*
X0186277Y0036934D01*
X0186625Y0036586D01*
X0183839Y0033800D01*
X0157315Y0033800D01*
X0154615Y0036500D01*
X0150721Y0036500D01*
X0147968Y0033747D01*
X0147968Y0029853D01*
X0150721Y0027100D01*
X0154615Y0027100D01*
X0157315Y0029800D01*
X0185496Y0029800D01*
X0186269Y0030573D02*
X0186722Y0030573D01*
X0187868Y0032172D02*
X0189120Y0032172D01*
X0189466Y0033770D02*
X0191518Y0033770D01*
X0191065Y0035369D02*
X0193915Y0035369D01*
X0193072Y0036967D02*
X0196263Y0036967D01*
X0195668Y0038566D02*
X0193668Y0038566D01*
X0193668Y0040164D02*
X0195668Y0040164D01*
X0195668Y0041763D02*
X0193668Y0041763D01*
X0193668Y0043361D02*
X0195668Y0043361D01*
X0195668Y0044960D02*
X0193668Y0044960D01*
X0193103Y0046558D02*
X0196232Y0046558D01*
X0198285Y0048157D02*
X0191050Y0048157D01*
X0188285Y0048157D02*
X0181050Y0048157D01*
X0180463Y0048400D02*
X0181934Y0047791D01*
X0183059Y0046666D01*
X0183668Y0045196D01*
X0183668Y0038404D01*
X0183059Y0036934D01*
X0181934Y0035809D01*
X0180463Y0035200D01*
X0178872Y0035200D01*
X0177402Y0035809D01*
X0176277Y0036934D01*
X0175668Y0038404D01*
X0175668Y0045196D01*
X0176277Y0046666D01*
X0177402Y0047791D01*
X0178872Y0048400D01*
X0180463Y0048400D01*
X0178285Y0048157D02*
X0159193Y0048157D01*
X0159368Y0047735D02*
X0158652Y0049462D01*
X0157330Y0050784D01*
X0155603Y0051500D01*
X0153733Y0051500D01*
X0152005Y0050784D01*
X0150683Y0049462D01*
X0149968Y0047735D01*
X0149968Y0045865D01*
X0150683Y0044138D01*
X0152005Y0042816D01*
X0153733Y0042100D01*
X0155603Y0042100D01*
X0157330Y0042816D01*
X0158652Y0044138D01*
X0159368Y0045865D01*
X0159368Y0047735D01*
X0159368Y0046558D02*
X0176232Y0046558D01*
X0175668Y0044960D02*
X0158993Y0044960D01*
X0157876Y0043361D02*
X0175668Y0043361D01*
X0175668Y0041763D02*
X0136668Y0041763D01*
X0136668Y0043361D02*
X0151460Y0043361D01*
X0150343Y0044960D02*
X0136668Y0044960D01*
X0136668Y0046558D02*
X0149968Y0046558D01*
X0150142Y0048157D02*
X0136668Y0048157D01*
X0136668Y0049755D02*
X0150976Y0049755D01*
X0153380Y0051354D02*
X0136668Y0051354D01*
X0136668Y0052952D02*
X0227668Y0052952D01*
X0227668Y0051354D02*
X0155955Y0051354D01*
X0158359Y0049755D02*
X0227668Y0049755D01*
X0227668Y0048157D02*
X0211050Y0048157D01*
X0210463Y0048400D02*
X0208872Y0048400D01*
X0207402Y0047791D01*
X0206277Y0046666D01*
X0205668Y0045196D01*
X0205668Y0038404D01*
X0206277Y0036934D01*
X0207402Y0035809D01*
X0208872Y0035200D01*
X0210463Y0035200D01*
X0211934Y0035809D01*
X0213059Y0036934D01*
X0213668Y0038404D01*
X0213668Y0039800D01*
X0225496Y0039800D01*
X0230496Y0044800D01*
X0230496Y0044800D01*
X0231668Y0045972D01*
X0231668Y0095972D01*
X0232846Y0097150D01*
X0238498Y0097150D01*
X0239318Y0097970D01*
X0239318Y0105630D01*
X0238498Y0106450D01*
X0230838Y0106450D01*
X0230018Y0105630D01*
X0230018Y0099978D01*
X0227668Y0097628D01*
X0227668Y0047628D01*
X0223839Y0043800D01*
X0213668Y0043800D01*
X0213668Y0045196D01*
X0213059Y0046666D01*
X0211934Y0047791D01*
X0210463Y0048400D01*
X0208285Y0048157D02*
X0201050Y0048157D01*
X0203103Y0046558D02*
X0206232Y0046558D01*
X0205668Y0044960D02*
X0203668Y0044960D01*
X0203668Y0043361D02*
X0205668Y0043361D01*
X0205668Y0041763D02*
X0203668Y0041763D01*
X0203668Y0040164D02*
X0205668Y0040164D01*
X0205668Y0038566D02*
X0203668Y0038566D01*
X0203072Y0036967D02*
X0206263Y0036967D01*
X0208465Y0035369D02*
X0201126Y0035369D01*
X0198729Y0033770D02*
X0221813Y0033770D01*
X0220999Y0032172D02*
X0196331Y0032172D01*
X0193933Y0030573D02*
X0220465Y0030573D01*
X0220592Y0031373D02*
X0219868Y0026800D01*
X0220592Y0022227D01*
X0220592Y0022227D01*
X0222694Y0018101D01*
X0222694Y0018101D01*
X0225968Y0014827D01*
X0225969Y0014827D01*
X0230094Y0012724D01*
X0230094Y0012724D01*
X0234668Y0012000D01*
X0239241Y0012724D01*
X0239241Y0012724D01*
X0243367Y0014827D01*
X0246641Y0018101D01*
X0248743Y0022227D01*
X0249468Y0026800D01*
X0248743Y0031373D01*
X0248743Y0031373D01*
X0246641Y0035499D01*
X0246641Y0035499D01*
X0243367Y0038773D01*
X0239241Y0040876D01*
X0234668Y0041600D01*
X0234668Y0041600D01*
X0230094Y0040876D01*
X0225969Y0038773D01*
X0225968Y0038773D01*
X0222694Y0035499D01*
X0220592Y0031373D01*
X0220592Y0031373D01*
X0220212Y0028975D02*
X0191535Y0028975D01*
X0189138Y0027376D02*
X0219959Y0027376D01*
X0219868Y0026800D02*
X0219868Y0026800D01*
X0220030Y0025778D02*
X0186740Y0025778D01*
X0188792Y0019200D02*
X0187175Y0018530D01*
X0185938Y0017292D01*
X0185268Y0015675D01*
X0185268Y0007925D01*
X0185938Y0006308D01*
X0187175Y0005070D01*
X0188792Y0004400D01*
X0190543Y0004400D01*
X0192160Y0005070D01*
X0193398Y0006308D01*
X0194068Y0007925D01*
X0194068Y0015675D01*
X0193398Y0017292D01*
X0192160Y0018530D01*
X0190543Y0019200D01*
X0188792Y0019200D01*
X0186430Y0017785D02*
X0182905Y0017785D01*
X0183398Y0017292D02*
X0182160Y0018530D01*
X0180543Y0019200D01*
X0178792Y0019200D01*
X0177175Y0018530D01*
X0175938Y0017292D01*
X0175268Y0015675D01*
X0175268Y0007925D01*
X0175938Y0006308D01*
X0177175Y0005070D01*
X0178792Y0004400D01*
X0180543Y0004400D01*
X0182160Y0005070D01*
X0183398Y0006308D01*
X0184068Y0007925D01*
X0184068Y0015675D01*
X0183398Y0017292D01*
X0183856Y0016187D02*
X0185480Y0016187D01*
X0185268Y0014588D02*
X0184068Y0014588D01*
X0184068Y0012990D02*
X0185268Y0012990D01*
X0185268Y0011391D02*
X0184068Y0011391D01*
X0184068Y0009793D02*
X0185268Y0009793D01*
X0185268Y0008194D02*
X0184068Y0008194D01*
X0183517Y0006596D02*
X0185818Y0006596D01*
X0187351Y0004997D02*
X0181984Y0004997D01*
X0177351Y0004997D02*
X0155976Y0004997D01*
X0155579Y0004600D02*
X0170579Y0019600D01*
X0203756Y0019600D01*
X0206001Y0017356D01*
X0205938Y0017292D01*
X0205268Y0015675D01*
X0205268Y0007925D01*
X0205938Y0006308D01*
X0207175Y0005070D01*
X0208792Y0004400D01*
X0210543Y0004400D01*
X0212160Y0005070D01*
X0213398Y0006308D01*
X0214068Y0007925D01*
X0214068Y0015675D01*
X0213398Y0017292D01*
X0212160Y0018530D01*
X0210543Y0019200D01*
X0210379Y0019200D01*
X0205579Y0024000D01*
X0168756Y0024000D01*
X0167468Y0022711D01*
X0153756Y0009000D01*
X0105579Y0009000D01*
X0089359Y0025220D01*
X0085536Y0025220D01*
X0085251Y0025909D01*
X0083816Y0027344D01*
X0082977Y0027692D01*
X0083816Y0028039D01*
X0085251Y0029474D01*
X0086028Y0031349D01*
X0086028Y0033377D01*
X0085251Y0035252D01*
X0083816Y0036687D01*
X0083543Y0036800D01*
X0083816Y0036913D01*
X0085251Y0038348D01*
X0085536Y0039037D01*
X0089319Y0039037D01*
X0097468Y0030889D01*
X0097468Y0025889D01*
X0107468Y0015889D01*
X0108756Y0014600D01*
X0112221Y0014600D01*
X0114721Y0012100D01*
X0118615Y0012100D01*
X0121368Y0014853D01*
X0121368Y0018672D01*
X0136668Y0033972D01*
X0136668Y0057628D01*
X0135496Y0058800D01*
X0125496Y0068800D01*
X0118927Y0068800D01*
X0118652Y0069462D01*
X0117330Y0070784D01*
X0115603Y0071500D01*
X0113733Y0071500D01*
X0112005Y0070784D01*
X0110683Y0069462D01*
X0109968Y0067735D01*
X0109968Y0065865D01*
X0110683Y0064138D01*
X0112005Y0062816D01*
X0113733Y0062100D01*
X0115603Y0062100D01*
X0117330Y0062816D01*
X0118652Y0064138D01*
X0118927Y0064800D01*
X0123839Y0064800D01*
X0132668Y0055972D01*
X0132668Y0035628D01*
X0118539Y0021500D01*
X0114721Y0021500D01*
X0112221Y0019000D01*
X0110579Y0019000D01*
X0101868Y0027711D01*
X0101868Y0032711D01*
X0100579Y0034000D01*
X0091142Y0043437D01*
X0085536Y0043437D01*
X0085251Y0044126D01*
X0083816Y0045561D01*
X0083472Y0045703D01*
X0083810Y0045876D01*
X0084511Y0046384D01*
X0085123Y0046997D01*
X0085632Y0047697D01*
X0086025Y0048468D01*
X0086292Y0049292D01*
X0086428Y0050147D01*
X0086428Y0050480D01*
X0081028Y0050480D01*
X0081028Y0050680D01*
X0080828Y0050680D01*
X0080828Y0056080D01*
X0080495Y0056080D01*
X0079640Y0055944D01*
X0078816Y0055677D01*
X0078045Y0055284D01*
X0078044Y0055283D01*
X0079209Y0058097D01*
X0079209Y0061172D01*
X0078033Y0064014D01*
X0075858Y0066188D01*
X0073016Y0067365D01*
X0069941Y0067365D01*
X0067100Y0066188D01*
X0064925Y0064014D01*
X0063748Y0061172D01*
X0063748Y0058097D01*
X0064925Y0055256D01*
X0067100Y0053081D01*
X0069941Y0051904D01*
X0073016Y0051904D01*
X0075858Y0053081D01*
X0076207Y0053430D01*
X0075831Y0052691D01*
X0075563Y0051867D01*
X0075428Y0051012D01*
X0075428Y0050680D01*
X0080827Y0050680D01*
X0080827Y0050480D01*
X0075428Y0050480D01*
X0075428Y0050147D01*
X0075563Y0049292D01*
X0075831Y0048468D01*
X0076224Y0047697D01*
X0076732Y0046997D01*
X0077345Y0046384D01*
X0078045Y0045876D01*
X0078383Y0045703D01*
X0078039Y0045561D01*
X0076604Y0044126D01*
X0075828Y0042251D01*
X0075828Y0040223D01*
X0076604Y0038348D01*
X0078039Y0036913D01*
X0078313Y0036800D01*
X0078039Y0036687D01*
X0076604Y0035252D01*
X0075828Y0033377D01*
X0075828Y0031349D01*
X0076604Y0029474D01*
X0078039Y0028039D01*
X0078878Y0027692D01*
X0078039Y0027344D01*
X0076604Y0025909D01*
X0075828Y0024035D01*
X0075828Y0022006D01*
X0076604Y0020132D01*
X0078039Y0018697D01*
X0079913Y0017920D01*
X0081942Y0017920D01*
X0083816Y0018697D01*
X0085251Y0020132D01*
X0085536Y0020820D01*
X0087536Y0020820D01*
X0103756Y0004600D01*
X0155579Y0004600D01*
X0154668Y0006800D02*
X0169668Y0021800D01*
X0204668Y0021800D01*
X0209668Y0016800D01*
X0209668Y0011800D01*
X0214068Y0011391D02*
X0246022Y0011391D01*
X0244546Y0009915D02*
X0240012Y0006885D01*
X0234973Y0004798D01*
X0229623Y0003734D01*
X0226897Y0003600D01*
X0066739Y0003600D01*
X0065914Y0003665D01*
X0064346Y0004174D01*
X0063012Y0005144D01*
X0062042Y0006478D01*
X0061533Y0008046D01*
X0061468Y0008871D01*
X0061468Y0138747D01*
X0061616Y0142892D01*
X0062796Y0151097D01*
X0065131Y0159052D01*
X0068575Y0166593D01*
X0073057Y0173567D01*
X0078486Y0179832D01*
X0084751Y0185261D01*
X0091725Y0189743D01*
X0099266Y0193187D01*
X0107221Y0195523D01*
X0115426Y0196702D01*
X0119571Y0196850D01*
X0218546Y0196850D01*
X0221699Y0196713D01*
X0227908Y0195618D01*
X0233833Y0193461D01*
X0239293Y0190309D01*
X0244124Y0186256D01*
X0248176Y0181426D01*
X0251329Y0175965D01*
X0253486Y0170040D01*
X0254580Y0163831D01*
X0254718Y0160678D01*
X0254718Y0031422D01*
X0254584Y0028695D01*
X0253520Y0023345D01*
X0251433Y0018307D01*
X0248403Y0013772D01*
X0244546Y0009915D01*
X0244363Y0009793D02*
X0214068Y0009793D01*
X0214068Y0008194D02*
X0241970Y0008194D01*
X0239312Y0006596D02*
X0213517Y0006596D01*
X0211984Y0004997D02*
X0235453Y0004997D01*
X0234668Y0012000D02*
X0234668Y0012000D01*
X0239762Y0012990D02*
X0247621Y0012990D01*
X0248948Y0014588D02*
X0242899Y0014588D01*
X0243367Y0014827D02*
X0243367Y0014827D01*
X0244727Y0016187D02*
X0250016Y0016187D01*
X0251085Y0017785D02*
X0246325Y0017785D01*
X0246641Y0018101D02*
X0246641Y0018101D01*
X0247295Y0019384D02*
X0251879Y0019384D01*
X0252541Y0020982D02*
X0248109Y0020982D01*
X0248743Y0022227D02*
X0248743Y0022227D01*
X0248799Y0022581D02*
X0253203Y0022581D01*
X0253686Y0024179D02*
X0249053Y0024179D01*
X0249306Y0025778D02*
X0254004Y0025778D01*
X0254322Y0027376D02*
X0249376Y0027376D01*
X0249123Y0028975D02*
X0254598Y0028975D01*
X0254676Y0030573D02*
X0248870Y0030573D01*
X0248337Y0032172D02*
X0254718Y0032172D01*
X0254718Y0033770D02*
X0247522Y0033770D01*
X0246708Y0035369D02*
X0254718Y0035369D01*
X0254718Y0036967D02*
X0245173Y0036967D01*
X0243575Y0038566D02*
X0254718Y0038566D01*
X0254718Y0040164D02*
X0240637Y0040164D01*
X0239241Y0040876D02*
X0239241Y0040876D01*
X0243367Y0038773D02*
X0243367Y0038773D01*
X0243045Y0047000D02*
X0239868Y0047000D01*
X0239868Y0051600D01*
X0239868Y0052000D01*
X0247468Y0052000D01*
X0247468Y0052178D01*
X0247350Y0052924D01*
X0247116Y0053643D01*
X0246773Y0054316D01*
X0246329Y0054927D01*
X0245795Y0055461D01*
X0245183Y0055905D01*
X0244510Y0056248D01*
X0243792Y0056482D01*
X0243045Y0056600D01*
X0239868Y0056600D01*
X0239868Y0052000D01*
X0239468Y0052000D01*
X0239468Y0056600D01*
X0236290Y0056600D01*
X0235544Y0056482D01*
X0234825Y0056248D01*
X0234152Y0055905D01*
X0233541Y0055461D01*
X0233006Y0054927D01*
X0232562Y0054316D01*
X0232219Y0053643D01*
X0231986Y0052924D01*
X0231868Y0052178D01*
X0231868Y0052000D01*
X0239468Y0052000D01*
X0239468Y0051600D01*
X0239868Y0051600D01*
X0247468Y0051600D01*
X0247468Y0051422D01*
X0247350Y0050676D01*
X0247116Y0049957D01*
X0246773Y0049284D01*
X0246329Y0048673D01*
X0245795Y0048139D01*
X0245183Y0047695D01*
X0244510Y0047352D01*
X0243792Y0047118D01*
X0243045Y0047000D01*
X0245813Y0048157D02*
X0254718Y0048157D01*
X0254718Y0049755D02*
X0247013Y0049755D01*
X0247457Y0051354D02*
X0254718Y0051354D01*
X0254718Y0052952D02*
X0247340Y0052952D01*
X0246602Y0054551D02*
X0254718Y0054551D01*
X0254718Y0056149D02*
X0244704Y0056149D01*
X0244383Y0057748D02*
X0254718Y0057748D01*
X0254718Y0059346D02*
X0246414Y0059346D01*
X0246398Y0059308D02*
X0247068Y0060925D01*
X0247068Y0062675D01*
X0246398Y0064292D01*
X0245160Y0065530D01*
X0243543Y0066200D01*
X0235792Y0066200D01*
X0234175Y0065530D01*
X0232938Y0064292D01*
X0232268Y0062675D01*
X0232268Y0060925D01*
X0232938Y0059308D01*
X0234175Y0058070D01*
X0235792Y0057400D01*
X0243543Y0057400D01*
X0245160Y0058070D01*
X0246398Y0059308D01*
X0247068Y0060945D02*
X0254718Y0060945D01*
X0254718Y0062543D02*
X0247068Y0062543D01*
X0246460Y0064142D02*
X0254718Y0064142D01*
X0254718Y0065740D02*
X0244652Y0065740D01*
X0243543Y0067400D02*
X0245160Y0068070D01*
X0246398Y0069308D01*
X0247068Y0070925D01*
X0247068Y0072675D01*
X0246398Y0074292D01*
X0245160Y0075530D01*
X0243543Y0076200D01*
X0235792Y0076200D01*
X0234175Y0075530D01*
X0232938Y0074292D01*
X0232268Y0072675D01*
X0232268Y0070925D01*
X0232938Y0069308D01*
X0234175Y0068070D01*
X0235792Y0067400D01*
X0243543Y0067400D01*
X0246028Y0068937D02*
X0254718Y0068937D01*
X0254718Y0067339D02*
X0231668Y0067339D01*
X0231668Y0068937D02*
X0233308Y0068937D01*
X0232429Y0070536D02*
X0231668Y0070536D01*
X0231668Y0072134D02*
X0232268Y0072134D01*
X0232706Y0073733D02*
X0231668Y0073733D01*
X0231668Y0075332D02*
X0233977Y0075332D01*
X0234175Y0078070D02*
X0235792Y0077400D01*
X0243543Y0077400D01*
X0245160Y0078070D01*
X0246398Y0079308D01*
X0247068Y0080925D01*
X0247068Y0082675D01*
X0246398Y0084292D01*
X0245160Y0085530D01*
X0243543Y0086200D01*
X0235792Y0086200D01*
X0234175Y0085530D01*
X0232938Y0084292D01*
X0232268Y0082675D01*
X0232268Y0080925D01*
X0232938Y0079308D01*
X0234175Y0078070D01*
X0233717Y0078529D02*
X0231668Y0078529D01*
X0231668Y0080127D02*
X0232598Y0080127D01*
X0232268Y0081726D02*
X0231668Y0081726D01*
X0231668Y0083324D02*
X0232536Y0083324D01*
X0231668Y0084923D02*
X0233568Y0084923D01*
X0231668Y0086521D02*
X0254718Y0086521D01*
X0254718Y0084923D02*
X0245768Y0084923D01*
X0246799Y0083324D02*
X0254718Y0083324D01*
X0254718Y0081726D02*
X0247068Y0081726D01*
X0246737Y0080127D02*
X0254718Y0080127D01*
X0254718Y0078529D02*
X0245619Y0078529D01*
X0245359Y0075332D02*
X0254718Y0075332D01*
X0254718Y0076930D02*
X0231668Y0076930D01*
X0227668Y0076930D02*
X0212795Y0076930D01*
X0213059Y0076666D02*
X0211934Y0077791D01*
X0211668Y0077901D01*
X0211668Y0087628D01*
X0206668Y0092628D01*
X0205496Y0093800D01*
X0175738Y0093800D01*
X0176470Y0094103D01*
X0177166Y0094800D01*
X0195496Y0094800D01*
X0197846Y0097150D01*
X0203498Y0097150D01*
X0204318Y0097970D01*
X0204318Y0105630D01*
X0203498Y0106450D01*
X0195838Y0106450D01*
X0195018Y0105630D01*
X0195018Y0099978D01*
X0193839Y0098800D01*
X0177166Y0098800D01*
X0176470Y0099497D01*
X0175300Y0099981D01*
X0174035Y0099981D01*
X0172866Y0099497D01*
X0171971Y0098602D01*
X0171487Y0097433D01*
X0171487Y0096167D01*
X0171971Y0094998D01*
X0172866Y0094103D01*
X0173598Y0093800D01*
X0170496Y0093800D01*
X0161668Y0102628D01*
X0160496Y0103800D01*
X0157314Y0103800D01*
X0154615Y0106500D01*
X0150721Y0106500D01*
X0147968Y0103747D01*
X0147968Y0099853D01*
X0150721Y0097100D01*
X0154615Y0097100D01*
X0157314Y0099800D01*
X0158839Y0099800D01*
X0168839Y0089800D01*
X0203839Y0089800D01*
X0207668Y0085972D01*
X0207668Y0077901D01*
X0207402Y0077791D01*
X0206277Y0076666D01*
X0205668Y0075196D01*
X0205668Y0068404D01*
X0206277Y0066934D01*
X0207402Y0065809D01*
X0208872Y0065200D01*
X0210463Y0065200D01*
X0211934Y0065809D01*
X0213059Y0066934D01*
X0213668Y0068404D01*
X0213668Y0075196D01*
X0213059Y0076666D01*
X0213611Y0075332D02*
X0227668Y0075332D01*
X0227668Y0073733D02*
X0213668Y0073733D01*
X0213668Y0072134D02*
X0227668Y0072134D01*
X0227668Y0070536D02*
X0213668Y0070536D01*
X0213668Y0068937D02*
X0227668Y0068937D01*
X0227668Y0067339D02*
X0213226Y0067339D01*
X0211768Y0065740D02*
X0227668Y0065740D01*
X0227668Y0064142D02*
X0159037Y0064142D01*
X0159030Y0064127D02*
X0159394Y0064842D01*
X0159642Y0065606D01*
X0159768Y0066399D01*
X0159768Y0066500D01*
X0154968Y0066500D01*
X0154968Y0067100D01*
X0159768Y0067100D01*
X0159768Y0067201D01*
X0159642Y0067994D01*
X0159394Y0068758D01*
X0159030Y0069473D01*
X0158558Y0070122D01*
X0157990Y0070690D01*
X0157341Y0071162D01*
X0156625Y0071526D01*
X0155862Y0071774D01*
X0155069Y0071900D01*
X0154968Y0071900D01*
X0154968Y0067100D01*
X0154368Y0067100D01*
X0154368Y0071900D01*
X0154266Y0071900D01*
X0153473Y0071774D01*
X0152710Y0071526D01*
X0151995Y0071162D01*
X0151345Y0070690D01*
X0150778Y0070122D01*
X0150306Y0069473D01*
X0149941Y0068758D01*
X0149693Y0067994D01*
X0149568Y0067201D01*
X0149568Y0067100D01*
X0154368Y0067100D01*
X0154368Y0066500D01*
X0154968Y0066500D01*
X0154968Y0061700D01*
X0155069Y0061700D01*
X0155862Y0061826D01*
X0156625Y0062074D01*
X0157341Y0062438D01*
X0157990Y0062910D01*
X0158558Y0063478D01*
X0159030Y0064127D01*
X0159663Y0065740D02*
X0176944Y0065740D01*
X0176801Y0065844D02*
X0177362Y0065437D01*
X0177979Y0065122D01*
X0178637Y0064908D01*
X0179321Y0064800D01*
X0179668Y0064800D01*
X0180014Y0064800D01*
X0180698Y0064908D01*
X0181357Y0065122D01*
X0181974Y0065437D01*
X0182534Y0065844D01*
X0183024Y0066334D01*
X0183431Y0066894D01*
X0183745Y0067511D01*
X0183959Y0068170D01*
X0184068Y0068854D01*
X0184068Y0071800D01*
X0184068Y0074746D01*
X0183959Y0075430D01*
X0183745Y0076089D01*
X0183431Y0076706D01*
X0183024Y0077266D01*
X0182534Y0077756D01*
X0181974Y0078163D01*
X0181357Y0078478D01*
X0180698Y0078692D01*
X0180014Y0078800D01*
X0179668Y0078800D01*
X0179668Y0071800D01*
X0184068Y0071800D01*
X0179668Y0071800D01*
X0179668Y0071800D01*
X0179668Y0071800D01*
X0179668Y0064800D01*
X0179668Y0071800D01*
X0179668Y0071800D01*
X0179668Y0078800D01*
X0179321Y0078800D01*
X0178637Y0078692D01*
X0177979Y0078478D01*
X0177362Y0078163D01*
X0176801Y0077756D01*
X0176312Y0077266D01*
X0175905Y0076706D01*
X0175590Y0076089D01*
X0175376Y0075430D01*
X0175268Y0074746D01*
X0175268Y0071800D01*
X0175268Y0068854D01*
X0175376Y0068170D01*
X0175590Y0067511D01*
X0175905Y0066894D01*
X0176312Y0066334D01*
X0176801Y0065844D01*
X0175678Y0067339D02*
X0159746Y0067339D01*
X0159302Y0068937D02*
X0175268Y0068937D01*
X0175268Y0070536D02*
X0158144Y0070536D01*
X0154968Y0070536D02*
X0154368Y0070536D01*
X0154368Y0068937D02*
X0154968Y0068937D01*
X0154968Y0067339D02*
X0154368Y0067339D01*
X0154368Y0066500D02*
X0149568Y0066500D01*
X0149568Y0066399D01*
X0149693Y0065606D01*
X0149941Y0064842D01*
X0150306Y0064127D01*
X0150778Y0063478D01*
X0151345Y0062910D01*
X0151995Y0062438D01*
X0152710Y0062074D01*
X0153473Y0061826D01*
X0154266Y0061700D01*
X0154368Y0061700D01*
X0154368Y0066500D01*
X0154368Y0065740D02*
X0154968Y0065740D01*
X0154968Y0064142D02*
X0154368Y0064142D01*
X0154368Y0062543D02*
X0154968Y0062543D01*
X0157486Y0062543D02*
X0227668Y0062543D01*
X0227668Y0060945D02*
X0133351Y0060945D01*
X0131753Y0062543D02*
X0151850Y0062543D01*
X0150298Y0064142D02*
X0130154Y0064142D01*
X0128556Y0065740D02*
X0149672Y0065740D01*
X0149590Y0067339D02*
X0126957Y0067339D01*
X0124497Y0064142D02*
X0118654Y0064142D01*
X0116673Y0062543D02*
X0126096Y0062543D01*
X0127694Y0060945D02*
X0079209Y0060945D01*
X0079209Y0059346D02*
X0129293Y0059346D01*
X0130891Y0057748D02*
X0079065Y0057748D01*
X0078403Y0056149D02*
X0132490Y0056149D01*
X0132668Y0054551D02*
X0084734Y0054551D01*
X0084511Y0054775D02*
X0083810Y0055284D01*
X0083039Y0055677D01*
X0082215Y0055944D01*
X0081360Y0056080D01*
X0081028Y0056080D01*
X0081028Y0050680D01*
X0086428Y0050680D01*
X0086428Y0051012D01*
X0086292Y0051867D01*
X0086025Y0052691D01*
X0085632Y0053462D01*
X0085123Y0054163D01*
X0084511Y0054775D01*
X0085891Y0052952D02*
X0132668Y0052952D01*
X0132668Y0051354D02*
X0116964Y0051354D01*
X0116625Y0051526D02*
X0115862Y0051774D01*
X0115069Y0051900D01*
X0114968Y0051900D01*
X0114968Y0047100D01*
X0119768Y0047100D01*
X0119768Y0047201D01*
X0119642Y0047994D01*
X0119394Y0048758D01*
X0119030Y0049473D01*
X0118558Y0050122D01*
X0117990Y0050690D01*
X0117341Y0051162D01*
X0116625Y0051526D01*
X0114968Y0051354D02*
X0114368Y0051354D01*
X0114368Y0051900D02*
X0114266Y0051900D01*
X0113473Y0051774D01*
X0112710Y0051526D01*
X0111995Y0051162D01*
X0111345Y0050690D01*
X0110778Y0050122D01*
X0110306Y0049473D01*
X0109941Y0048758D01*
X0109693Y0047994D01*
X0109568Y0047201D01*
X0109568Y0047100D01*
X0114368Y0047100D01*
X0114368Y0051900D01*
X0112371Y0051354D02*
X0086373Y0051354D01*
X0086366Y0049755D02*
X0110511Y0049755D01*
X0109746Y0048157D02*
X0085866Y0048157D01*
X0084685Y0046558D02*
X0114368Y0046558D01*
X0114368Y0046500D02*
X0109568Y0046500D01*
X0109568Y0046399D01*
X0109693Y0045606D01*
X0109941Y0044842D01*
X0110306Y0044127D01*
X0110778Y0043478D01*
X0111345Y0042910D01*
X0111995Y0042438D01*
X0112710Y0042074D01*
X0113473Y0041826D01*
X0114266Y0041700D01*
X0114368Y0041700D01*
X0114368Y0046500D01*
X0114968Y0046500D01*
X0114968Y0047100D01*
X0114368Y0047100D01*
X0114368Y0046500D01*
X0114968Y0046500D02*
X0114968Y0041700D01*
X0115069Y0041700D01*
X0115862Y0041826D01*
X0116625Y0042074D01*
X0117341Y0042438D01*
X0117990Y0042910D01*
X0118558Y0043478D01*
X0119030Y0044127D01*
X0119394Y0044842D01*
X0119642Y0045606D01*
X0119768Y0046399D01*
X0119768Y0046500D01*
X0114968Y0046500D01*
X0114968Y0046558D02*
X0132668Y0046558D01*
X0132668Y0044960D02*
X0119432Y0044960D01*
X0118441Y0043361D02*
X0132668Y0043361D01*
X0132668Y0041763D02*
X0115465Y0041763D01*
X0114968Y0041763D02*
X0114368Y0041763D01*
X0113870Y0041763D02*
X0092816Y0041763D01*
X0091218Y0043361D02*
X0110894Y0043361D01*
X0109903Y0044960D02*
X0084417Y0044960D01*
X0080928Y0041237D02*
X0090231Y0041237D01*
X0099668Y0031800D01*
X0099668Y0026800D01*
X0109668Y0016800D01*
X0116668Y0016800D01*
X0121368Y0016187D02*
X0147968Y0016187D01*
X0147968Y0017785D02*
X0121368Y0017785D01*
X0122080Y0019384D02*
X0148605Y0019384D01*
X0150203Y0020982D02*
X0123678Y0020982D01*
X0125277Y0022581D02*
X0155620Y0022581D01*
X0157218Y0024179D02*
X0126875Y0024179D01*
X0128474Y0025778D02*
X0158817Y0025778D01*
X0160415Y0027376D02*
X0154891Y0027376D01*
X0150445Y0027376D02*
X0130072Y0027376D01*
X0131671Y0028975D02*
X0148846Y0028975D01*
X0147968Y0030573D02*
X0133269Y0030573D01*
X0134868Y0032172D02*
X0147968Y0032172D01*
X0147991Y0033770D02*
X0136466Y0033770D01*
X0136668Y0035369D02*
X0149590Y0035369D01*
X0155746Y0035369D02*
X0178465Y0035369D01*
X0180871Y0035369D02*
X0185408Y0035369D01*
X0186263Y0036967D02*
X0183072Y0036967D01*
X0183668Y0038566D02*
X0185668Y0038566D01*
X0185668Y0040164D02*
X0183668Y0040164D01*
X0183668Y0041763D02*
X0185668Y0041763D01*
X0185668Y0043361D02*
X0183668Y0043361D01*
X0183668Y0044960D02*
X0185668Y0044960D01*
X0186232Y0046558D02*
X0183103Y0046558D01*
X0175668Y0040164D02*
X0136668Y0040164D01*
X0136668Y0038566D02*
X0175668Y0038566D01*
X0176263Y0036967D02*
X0136668Y0036967D01*
X0132668Y0036967D02*
X0097612Y0036967D01*
X0099210Y0035369D02*
X0113590Y0035369D01*
X0114721Y0036500D02*
X0111968Y0033747D01*
X0111968Y0029853D01*
X0114721Y0027100D01*
X0118615Y0027100D01*
X0121368Y0029853D01*
X0121368Y0033747D01*
X0118615Y0036500D01*
X0114721Y0036500D01*
X0111991Y0033770D02*
X0100809Y0033770D01*
X0101868Y0032172D02*
X0111968Y0032172D01*
X0111968Y0030573D02*
X0101868Y0030573D01*
X0101868Y0028975D02*
X0112846Y0028975D01*
X0114445Y0027376D02*
X0102203Y0027376D01*
X0103801Y0025778D02*
X0122817Y0025778D01*
X0124415Y0027376D02*
X0118891Y0027376D01*
X0120489Y0028975D02*
X0126014Y0028975D01*
X0127612Y0030573D02*
X0121368Y0030573D01*
X0121368Y0032172D02*
X0129211Y0032172D01*
X0130810Y0033770D02*
X0121344Y0033770D01*
X0119746Y0035369D02*
X0132408Y0035369D01*
X0132668Y0038566D02*
X0096013Y0038566D01*
X0094415Y0040164D02*
X0132668Y0040164D01*
X0132668Y0048157D02*
X0119589Y0048157D01*
X0118824Y0049755D02*
X0132668Y0049755D01*
X0136668Y0054551D02*
X0227668Y0054551D01*
X0227668Y0056149D02*
X0136668Y0056149D01*
X0136548Y0057748D02*
X0227668Y0057748D01*
X0227668Y0059346D02*
X0134950Y0059346D01*
X0150033Y0068937D02*
X0118870Y0068937D01*
X0117579Y0070536D02*
X0151191Y0070536D01*
X0150721Y0082100D02*
X0154615Y0082100D01*
X0157368Y0084853D01*
X0157368Y0088747D01*
X0154615Y0091500D01*
X0150721Y0091500D01*
X0148021Y0088800D01*
X0145496Y0088800D01*
X0130496Y0103800D01*
X0121315Y0103800D01*
X0118615Y0106500D01*
X0114721Y0106500D01*
X0111968Y0103747D01*
X0111968Y0099853D01*
X0114721Y0097100D01*
X0118615Y0097100D01*
X0121315Y0099800D01*
X0128839Y0099800D01*
X0142668Y0085972D01*
X0143839Y0084800D01*
X0148021Y0084800D01*
X0150721Y0082100D01*
X0149497Y0083324D02*
X0119839Y0083324D01*
X0118615Y0082100D02*
X0121368Y0084853D01*
X0121368Y0088747D01*
X0118615Y0091500D01*
X0114721Y0091500D01*
X0111968Y0088747D01*
X0111968Y0084853D01*
X0114721Y0082100D01*
X0118615Y0082100D01*
X0121368Y0084923D02*
X0143717Y0084923D01*
X0142118Y0086521D02*
X0121368Y0086521D01*
X0121368Y0088120D02*
X0140520Y0088120D01*
X0138921Y0089718D02*
X0120396Y0089718D01*
X0118798Y0091317D02*
X0137323Y0091317D01*
X0135724Y0092915D02*
X0098773Y0092915D01*
X0100318Y0094460D02*
X0097008Y0091150D01*
X0092327Y0091150D01*
X0089018Y0094460D01*
X0089018Y0099140D01*
X0092327Y0102450D01*
X0097008Y0102450D01*
X0100318Y0099140D01*
X0100318Y0094460D01*
X0100318Y0094514D02*
X0134126Y0094514D01*
X0132527Y0096112D02*
X0100318Y0096112D01*
X0100318Y0097711D02*
X0114110Y0097711D01*
X0112512Y0099309D02*
X0100149Y0099309D01*
X0098550Y0100908D02*
X0111968Y0100908D01*
X0111968Y0102506D02*
X0061468Y0102506D01*
X0061468Y0100908D02*
X0075785Y0100908D01*
X0077327Y0102450D02*
X0074018Y0099140D01*
X0074018Y0094460D01*
X0077327Y0091150D01*
X0082008Y0091150D01*
X0085318Y0094460D01*
X0085318Y0099140D01*
X0082008Y0102450D01*
X0077327Y0102450D01*
X0077327Y0106150D02*
X0082008Y0106150D01*
X0085318Y0109460D01*
X0085318Y0114140D01*
X0082008Y0117450D01*
X0077327Y0117450D01*
X0074018Y0114140D01*
X0074018Y0109460D01*
X0077327Y0106150D01*
X0076176Y0107302D02*
X0061468Y0107302D01*
X0061468Y0108900D02*
X0074577Y0108900D01*
X0074018Y0110499D02*
X0061468Y0110499D01*
X0061468Y0112097D02*
X0074018Y0112097D01*
X0074018Y0113696D02*
X0061468Y0113696D01*
X0061468Y0115294D02*
X0075172Y0115294D01*
X0076770Y0116893D02*
X0061468Y0116893D01*
X0061468Y0118491D02*
X0254718Y0118491D01*
X0254718Y0116893D02*
X0097565Y0116893D01*
X0097008Y0117450D02*
X0092327Y0117450D01*
X0089018Y0114140D01*
X0089018Y0109460D01*
X0092327Y0106150D01*
X0097008Y0106150D01*
X0100318Y0109460D01*
X0100318Y0114140D01*
X0097008Y0117450D01*
X0099164Y0115294D02*
X0196020Y0115294D01*
X0195816Y0115090D02*
X0195349Y0114447D01*
X0194988Y0113739D01*
X0194742Y0112983D01*
X0194618Y0112197D01*
X0194618Y0111800D01*
X0194618Y0111403D01*
X0194742Y0110617D01*
X0194988Y0109861D01*
X0195349Y0109153D01*
X0195816Y0108510D01*
X0196378Y0107948D01*
X0197021Y0107481D01*
X0197729Y0107120D01*
X0198485Y0106874D01*
X0199270Y0106750D01*
X0199668Y0106750D01*
X0200065Y0106750D01*
X0200850Y0106874D01*
X0201606Y0107120D01*
X0202314Y0107481D01*
X0202958Y0107948D01*
X0203520Y0108510D01*
X0203987Y0109153D01*
X0204348Y0109861D01*
X0204593Y0110617D01*
X0204718Y0111403D01*
X0204718Y0111800D01*
X0204718Y0112197D01*
X0204593Y0112983D01*
X0204348Y0113739D01*
X0203987Y0114447D01*
X0203520Y0115090D01*
X0202958Y0115652D01*
X0202314Y0116119D01*
X0201606Y0116480D01*
X0200850Y0116726D01*
X0200065Y0116850D01*
X0199668Y0116850D01*
X0199668Y0111800D01*
X0204718Y0111800D01*
X0199668Y0111800D01*
X0199668Y0111800D01*
X0199668Y0111800D01*
X0199668Y0106750D01*
X0199668Y0111800D01*
X0199668Y0111800D01*
X0199668Y0116850D01*
X0199270Y0116850D01*
X0198485Y0116726D01*
X0197729Y0116480D01*
X0197021Y0116119D01*
X0196378Y0115652D01*
X0195816Y0115090D01*
X0194974Y0113696D02*
X0100318Y0113696D01*
X0100318Y0112097D02*
X0194618Y0112097D01*
X0194618Y0111800D02*
X0199668Y0111800D01*
X0194618Y0111800D01*
X0194781Y0110499D02*
X0100318Y0110499D01*
X0099758Y0108900D02*
X0195532Y0108900D01*
X0197372Y0107302D02*
X0098160Y0107302D01*
X0091176Y0107302D02*
X0083160Y0107302D01*
X0084758Y0108900D02*
X0089577Y0108900D01*
X0089018Y0110499D02*
X0085318Y0110499D01*
X0085318Y0112097D02*
X0089018Y0112097D01*
X0089018Y0113696D02*
X0085318Y0113696D01*
X0084164Y0115294D02*
X0090172Y0115294D01*
X0091770Y0116893D02*
X0082565Y0116893D01*
X0082008Y0121150D02*
X0077327Y0121150D01*
X0074018Y0124460D01*
X0074018Y0129140D01*
X0077327Y0132450D01*
X0082008Y0132450D01*
X0085318Y0129140D01*
X0085318Y0124460D01*
X0082008Y0121150D01*
X0082546Y0121688D02*
X0091789Y0121688D01*
X0092327Y0121150D02*
X0097008Y0121150D01*
X0100318Y0124460D01*
X0100318Y0129140D01*
X0097008Y0132450D01*
X0092327Y0132450D01*
X0089018Y0129140D01*
X0089018Y0124460D01*
X0092327Y0121150D01*
X0090191Y0123287D02*
X0084145Y0123287D01*
X0085318Y0124885D02*
X0089018Y0124885D01*
X0089018Y0126484D02*
X0085318Y0126484D01*
X0085318Y0128082D02*
X0089018Y0128082D01*
X0089558Y0129681D02*
X0084777Y0129681D01*
X0083179Y0131279D02*
X0091157Y0131279D01*
X0092327Y0136150D02*
X0097008Y0136150D01*
X0100318Y0139460D01*
X0100318Y0144140D01*
X0097008Y0147450D01*
X0092327Y0147450D01*
X0089018Y0144140D01*
X0089018Y0139460D01*
X0092327Y0136150D01*
X0090804Y0137673D02*
X0083531Y0137673D01*
X0082008Y0136150D02*
X0085318Y0139460D01*
X0085318Y0144140D01*
X0082008Y0147450D01*
X0077327Y0147450D01*
X0074018Y0144140D01*
X0074018Y0139460D01*
X0077327Y0136150D01*
X0082008Y0136150D01*
X0085130Y0139272D02*
X0089205Y0139272D01*
X0089018Y0140870D02*
X0085318Y0140870D01*
X0085318Y0142469D02*
X0089018Y0142469D01*
X0089018Y0144068D02*
X0085318Y0144068D01*
X0083792Y0145666D02*
X0090543Y0145666D01*
X0092142Y0147265D02*
X0082193Y0147265D01*
X0077142Y0147265D02*
X0062244Y0147265D01*
X0062474Y0148863D02*
X0170084Y0148863D01*
X0169968Y0148747D02*
X0169968Y0144853D01*
X0172721Y0142100D01*
X0176615Y0142100D01*
X0179368Y0144853D01*
X0179368Y0148747D01*
X0176615Y0151500D01*
X0172721Y0151500D01*
X0169968Y0148747D01*
X0169968Y0147265D02*
X0097193Y0147265D01*
X0098792Y0145666D02*
X0169968Y0145666D01*
X0170753Y0144068D02*
X0100318Y0144068D01*
X0100318Y0142469D02*
X0172352Y0142469D01*
X0176984Y0142469D02*
X0254718Y0142469D01*
X0254718Y0144068D02*
X0178582Y0144068D01*
X0179368Y0145666D02*
X0254718Y0145666D01*
X0254718Y0147265D02*
X0179368Y0147265D01*
X0179251Y0148863D02*
X0254718Y0148863D01*
X0254718Y0150462D02*
X0177653Y0150462D01*
X0176615Y0152100D02*
X0179368Y0154853D01*
X0179368Y0158747D01*
X0176615Y0161500D01*
X0172721Y0161500D01*
X0169968Y0158747D01*
X0169968Y0154853D01*
X0172721Y0152100D01*
X0176615Y0152100D01*
X0178173Y0153659D02*
X0254718Y0153659D01*
X0254718Y0155257D02*
X0241410Y0155257D01*
X0241457Y0155276D02*
X0242891Y0156711D01*
X0243668Y0158586D01*
X0243668Y0160614D01*
X0242891Y0162489D01*
X0241457Y0163924D01*
X0239582Y0164700D01*
X0237553Y0164700D01*
X0235679Y0163924D01*
X0234244Y0162489D01*
X0233468Y0160614D01*
X0233468Y0158586D01*
X0234244Y0156711D01*
X0235679Y0155276D01*
X0237553Y0154500D01*
X0239582Y0154500D01*
X0241457Y0155276D01*
X0242951Y0156856D02*
X0254718Y0156856D01*
X0254718Y0158454D02*
X0243613Y0158454D01*
X0243668Y0160053D02*
X0254718Y0160053D01*
X0254676Y0161651D02*
X0243238Y0161651D01*
X0242131Y0163250D02*
X0254606Y0163250D01*
X0254401Y0164848D02*
X0222414Y0164848D01*
X0222056Y0164965D02*
X0222879Y0164697D01*
X0223650Y0164304D01*
X0224351Y0163795D01*
X0224963Y0163183D01*
X0225472Y0162483D01*
X0225865Y0161711D01*
X0226132Y0160888D01*
X0226268Y0160033D01*
X0226268Y0159800D01*
X0220968Y0159800D01*
X0220968Y0159400D01*
X0226268Y0159400D01*
X0226268Y0159167D01*
X0226132Y0158312D01*
X0225865Y0157489D01*
X0225472Y0156717D01*
X0224963Y0156017D01*
X0224351Y0155405D01*
X0223650Y0154896D01*
X0222879Y0154503D01*
X0222056Y0154235D01*
X0221201Y0154100D01*
X0220968Y0154100D01*
X0220968Y0159400D01*
X0220568Y0159400D01*
X0220568Y0154100D01*
X0220335Y0154100D01*
X0219480Y0154235D01*
X0218656Y0154503D01*
X0217885Y0154896D01*
X0217185Y0155405D01*
X0216573Y0156017D01*
X0216064Y0156717D01*
X0215671Y0157489D01*
X0215403Y0158312D01*
X0215268Y0159167D01*
X0215268Y0159400D01*
X0220568Y0159400D01*
X0220568Y0159800D01*
X0220568Y0165100D01*
X0220335Y0165100D01*
X0219480Y0164965D01*
X0218656Y0164697D01*
X0217885Y0164304D01*
X0217185Y0163795D01*
X0216573Y0163183D01*
X0216064Y0162483D01*
X0215671Y0161711D01*
X0215403Y0160888D01*
X0215268Y0160033D01*
X0215268Y0159800D01*
X0220568Y0159800D01*
X0220968Y0159800D01*
X0220968Y0165100D01*
X0221201Y0165100D01*
X0222056Y0164965D01*
X0220968Y0164848D02*
X0220568Y0164848D01*
X0219122Y0164848D02*
X0104159Y0164848D01*
X0103905Y0163250D02*
X0216639Y0163250D01*
X0215651Y0161651D02*
X0103450Y0161651D01*
X0103743Y0162227D02*
X0104468Y0166800D01*
X0103743Y0171373D01*
X0103743Y0171373D01*
X0101641Y0175499D01*
X0101641Y0175499D01*
X0098367Y0178773D01*
X0094241Y0180876D01*
X0089668Y0181600D01*
X0089668Y0181600D01*
X0085094Y0180876D01*
X0080969Y0178773D01*
X0080968Y0178773D01*
X0077694Y0175499D01*
X0075592Y0171373D01*
X0074868Y0166800D01*
X0075592Y0162227D01*
X0075592Y0162227D01*
X0077694Y0158101D01*
X0077694Y0158101D01*
X0080968Y0154827D01*
X0080969Y0154827D01*
X0085094Y0152724D01*
X0085094Y0152724D01*
X0089668Y0152000D01*
X0094241Y0152724D01*
X0098367Y0154827D01*
X0101641Y0158101D01*
X0103743Y0162227D01*
X0103743Y0162227D01*
X0102636Y0160053D02*
X0171274Y0160053D01*
X0169968Y0158454D02*
X0101821Y0158454D01*
X0100396Y0156856D02*
X0169968Y0156856D01*
X0169968Y0155257D02*
X0098797Y0155257D01*
X0098367Y0154827D02*
X0098367Y0154827D01*
X0096075Y0153659D02*
X0171162Y0153659D01*
X0171682Y0150462D02*
X0062704Y0150462D01*
X0063078Y0152060D02*
X0089288Y0152060D01*
X0089668Y0152000D02*
X0089668Y0152000D01*
X0090047Y0152060D02*
X0254718Y0152060D01*
X0254718Y0140870D02*
X0100318Y0140870D01*
X0100130Y0139272D02*
X0219195Y0139272D01*
X0219480Y0139365D02*
X0218656Y0139097D01*
X0217885Y0138704D01*
X0217185Y0138195D01*
X0216573Y0137583D01*
X0216064Y0136883D01*
X0215671Y0136111D01*
X0215403Y0135288D01*
X0215268Y0134433D01*
X0215268Y0134200D01*
X0220568Y0134200D01*
X0220568Y0139500D01*
X0220335Y0139500D01*
X0219480Y0139365D01*
X0220568Y0139272D02*
X0220968Y0139272D01*
X0220968Y0139500D02*
X0220968Y0134200D01*
X0226268Y0134200D01*
X0226268Y0134433D01*
X0226132Y0135288D01*
X0225865Y0136111D01*
X0225472Y0136883D01*
X0224963Y0137583D01*
X0224351Y0138195D01*
X0223650Y0138704D01*
X0222879Y0139097D01*
X0222056Y0139365D01*
X0221201Y0139500D01*
X0220968Y0139500D01*
X0222341Y0139272D02*
X0254718Y0139272D01*
X0254718Y0137673D02*
X0242107Y0137673D01*
X0241457Y0138324D02*
X0239582Y0139100D01*
X0237553Y0139100D01*
X0235679Y0138324D01*
X0234244Y0136889D01*
X0233468Y0135014D01*
X0233468Y0132986D01*
X0234244Y0131111D01*
X0235679Y0129676D01*
X0237553Y0128900D01*
X0239582Y0128900D01*
X0241457Y0129676D01*
X0242891Y0131111D01*
X0243668Y0132986D01*
X0243668Y0135014D01*
X0242891Y0136889D01*
X0241457Y0138324D01*
X0243228Y0136075D02*
X0254718Y0136075D01*
X0254718Y0134476D02*
X0243668Y0134476D01*
X0243623Y0132878D02*
X0254718Y0132878D01*
X0254718Y0131279D02*
X0242961Y0131279D01*
X0241461Y0129681D02*
X0254718Y0129681D01*
X0254718Y0128082D02*
X0159468Y0128082D01*
X0159468Y0127000D02*
X0159468Y0130178D01*
X0159350Y0130924D01*
X0159116Y0131643D01*
X0158773Y0132316D01*
X0158329Y0132927D01*
X0157795Y0133461D01*
X0157183Y0133905D01*
X0156510Y0134248D01*
X0155792Y0134482D01*
X0155045Y0134600D01*
X0154868Y0134600D01*
X0154868Y0127000D01*
X0159468Y0127000D01*
X0159468Y0126600D02*
X0154868Y0126600D01*
X0154868Y0127000D01*
X0154468Y0127000D01*
X0154468Y0134600D01*
X0154290Y0134600D01*
X0153544Y0134482D01*
X0152825Y0134248D01*
X0152152Y0133905D01*
X0151541Y0133461D01*
X0151006Y0132927D01*
X0150562Y0132316D01*
X0150219Y0131643D01*
X0149986Y0130924D01*
X0149868Y0130178D01*
X0149868Y0127000D01*
X0154468Y0127000D01*
X0154468Y0126600D01*
X0154868Y0126600D01*
X0154868Y0119000D01*
X0155045Y0119000D01*
X0155792Y0119118D01*
X0156510Y0119352D01*
X0157183Y0119695D01*
X0157795Y0120139D01*
X0158329Y0120673D01*
X0158773Y0121284D01*
X0159116Y0121957D01*
X0159350Y0122676D01*
X0159468Y0123422D01*
X0159468Y0126600D01*
X0159468Y0126484D02*
X0254718Y0126484D01*
X0254718Y0124885D02*
X0159468Y0124885D01*
X0159446Y0123287D02*
X0254718Y0123287D01*
X0254718Y0121688D02*
X0158979Y0121688D01*
X0157727Y0120090D02*
X0254718Y0120090D01*
X0254718Y0115294D02*
X0238315Y0115294D01*
X0238520Y0115090D02*
X0237958Y0115652D01*
X0237314Y0116119D01*
X0236606Y0116480D01*
X0235850Y0116726D01*
X0235065Y0116850D01*
X0234668Y0116850D01*
X0234668Y0111800D01*
X0239718Y0111800D01*
X0239718Y0112197D01*
X0239593Y0112983D01*
X0239348Y0113739D01*
X0238987Y0114447D01*
X0238520Y0115090D01*
X0239362Y0113696D02*
X0254718Y0113696D01*
X0254718Y0112097D02*
X0239718Y0112097D01*
X0239718Y0111800D02*
X0234668Y0111800D01*
X0234668Y0111800D01*
X0234668Y0111800D01*
X0234668Y0106750D01*
X0235065Y0106750D01*
X0235850Y0106874D01*
X0236606Y0107120D01*
X0237314Y0107481D01*
X0237958Y0107948D01*
X0238520Y0108510D01*
X0238987Y0109153D01*
X0239348Y0109861D01*
X0239593Y0110617D01*
X0239718Y0111403D01*
X0239718Y0111800D01*
X0239555Y0110499D02*
X0254718Y0110499D01*
X0254718Y0108900D02*
X0238803Y0108900D01*
X0236963Y0107302D02*
X0254718Y0107302D01*
X0254718Y0105703D02*
X0239244Y0105703D01*
X0239318Y0104105D02*
X0254718Y0104105D01*
X0254718Y0102506D02*
X0239318Y0102506D01*
X0239318Y0100908D02*
X0254718Y0100908D01*
X0254718Y0099309D02*
X0239318Y0099309D01*
X0239058Y0097711D02*
X0254718Y0097711D01*
X0254718Y0096112D02*
X0231808Y0096112D01*
X0231668Y0094514D02*
X0254718Y0094514D01*
X0254718Y0092915D02*
X0231668Y0092915D01*
X0231668Y0091317D02*
X0254718Y0091317D01*
X0254718Y0089718D02*
X0231668Y0089718D01*
X0231668Y0088120D02*
X0254718Y0088120D01*
X0254718Y0073733D02*
X0246630Y0073733D01*
X0247068Y0072134D02*
X0254718Y0072134D01*
X0254718Y0070536D02*
X0246907Y0070536D01*
X0234683Y0065740D02*
X0231668Y0065740D01*
X0231668Y0064142D02*
X0232875Y0064142D01*
X0232268Y0062543D02*
X0231668Y0062543D01*
X0231668Y0060945D02*
X0232268Y0060945D01*
X0231668Y0059346D02*
X0232921Y0059346D01*
X0231668Y0057748D02*
X0234953Y0057748D01*
X0234631Y0056149D02*
X0231668Y0056149D01*
X0231668Y0054551D02*
X0232733Y0054551D01*
X0231995Y0052952D02*
X0231668Y0052952D01*
X0231868Y0051600D02*
X0231868Y0051422D01*
X0231986Y0050676D01*
X0232219Y0049957D01*
X0232562Y0049284D01*
X0233006Y0048673D01*
X0233541Y0048139D01*
X0234152Y0047695D01*
X0234825Y0047352D01*
X0235544Y0047118D01*
X0236290Y0047000D01*
X0239468Y0047000D01*
X0239468Y0051600D01*
X0231868Y0051600D01*
X0231879Y0051354D02*
X0231668Y0051354D01*
X0231668Y0049755D02*
X0232322Y0049755D01*
X0231668Y0048157D02*
X0233523Y0048157D01*
X0231668Y0046558D02*
X0254718Y0046558D01*
X0254718Y0044960D02*
X0230656Y0044960D01*
X0229057Y0043361D02*
X0254718Y0043361D01*
X0254718Y0041763D02*
X0227459Y0041763D01*
X0228698Y0040164D02*
X0225860Y0040164D01*
X0225761Y0038566D02*
X0213668Y0038566D01*
X0213072Y0036967D02*
X0224162Y0036967D01*
X0222694Y0035499D02*
X0222694Y0035499D01*
X0222628Y0035369D02*
X0210871Y0035369D01*
X0213668Y0044960D02*
X0224999Y0044960D01*
X0226598Y0046558D02*
X0213103Y0046558D01*
X0230094Y0040876D02*
X0230094Y0040876D01*
X0239468Y0048157D02*
X0239868Y0048157D01*
X0239868Y0049755D02*
X0239468Y0049755D01*
X0239468Y0051354D02*
X0239868Y0051354D01*
X0239868Y0052952D02*
X0239468Y0052952D01*
X0239468Y0054551D02*
X0239868Y0054551D01*
X0239868Y0056149D02*
X0239468Y0056149D01*
X0227668Y0078529D02*
X0211668Y0078529D01*
X0211668Y0080127D02*
X0227668Y0080127D01*
X0227668Y0081726D02*
X0211668Y0081726D01*
X0211668Y0083324D02*
X0227668Y0083324D01*
X0227668Y0084923D02*
X0211668Y0084923D01*
X0211668Y0086521D02*
X0227668Y0086521D01*
X0227668Y0088120D02*
X0211177Y0088120D01*
X0209578Y0089718D02*
X0227668Y0089718D01*
X0227668Y0091317D02*
X0207979Y0091317D01*
X0206381Y0092915D02*
X0227668Y0092915D01*
X0227668Y0094514D02*
X0176880Y0094514D01*
X0172455Y0094514D02*
X0169782Y0094514D01*
X0168184Y0096112D02*
X0171509Y0096112D01*
X0171602Y0097711D02*
X0166585Y0097711D01*
X0164987Y0099309D02*
X0172678Y0099309D01*
X0176657Y0099309D02*
X0194348Y0099309D01*
X0195018Y0100908D02*
X0163388Y0100908D01*
X0161790Y0102506D02*
X0195018Y0102506D01*
X0195018Y0104105D02*
X0157010Y0104105D01*
X0155411Y0105703D02*
X0195091Y0105703D01*
X0199668Y0107302D02*
X0199668Y0107302D01*
X0199668Y0108900D02*
X0199668Y0108900D01*
X0199668Y0110499D02*
X0199668Y0110499D01*
X0199668Y0111800D02*
X0199668Y0111800D01*
X0199668Y0112097D02*
X0199668Y0112097D01*
X0199668Y0113696D02*
X0199668Y0113696D01*
X0199668Y0115294D02*
X0199668Y0115294D01*
X0203315Y0115294D02*
X0231020Y0115294D01*
X0230816Y0115090D02*
X0230349Y0114447D01*
X0229988Y0113739D01*
X0229742Y0112983D01*
X0229618Y0112197D01*
X0229618Y0111800D01*
X0229618Y0111403D01*
X0229742Y0110617D01*
X0229988Y0109861D01*
X0230349Y0109153D01*
X0230816Y0108510D01*
X0231378Y0107948D01*
X0232021Y0107481D01*
X0232729Y0107120D01*
X0233485Y0106874D01*
X0234270Y0106750D01*
X0234668Y0106750D01*
X0234668Y0111800D01*
X0234668Y0111800D01*
X0234668Y0116850D01*
X0234270Y0116850D01*
X0233485Y0116726D01*
X0232729Y0116480D01*
X0232021Y0116119D01*
X0231378Y0115652D01*
X0230816Y0115090D01*
X0229974Y0113696D02*
X0204362Y0113696D01*
X0204718Y0112097D02*
X0229618Y0112097D01*
X0229618Y0111800D02*
X0234668Y0111800D01*
X0229618Y0111800D01*
X0229781Y0110499D02*
X0204555Y0110499D01*
X0203803Y0108900D02*
X0230532Y0108900D01*
X0232372Y0107302D02*
X0201963Y0107302D01*
X0204244Y0105703D02*
X0230091Y0105703D01*
X0230018Y0104105D02*
X0204318Y0104105D01*
X0204318Y0102506D02*
X0230018Y0102506D01*
X0230018Y0100908D02*
X0204318Y0100908D01*
X0204318Y0099309D02*
X0229348Y0099309D01*
X0227750Y0097711D02*
X0204058Y0097711D01*
X0196808Y0096112D02*
X0227668Y0096112D01*
X0234668Y0107302D02*
X0234668Y0107302D01*
X0234668Y0108900D02*
X0234668Y0108900D01*
X0234668Y0110499D02*
X0234668Y0110499D01*
X0234668Y0111800D02*
X0234668Y0111800D01*
X0234668Y0112097D02*
X0234668Y0112097D01*
X0234668Y0113696D02*
X0234668Y0113696D01*
X0234668Y0115294D02*
X0234668Y0115294D01*
X0235674Y0129681D02*
X0224180Y0129681D01*
X0224351Y0129805D02*
X0224963Y0130417D01*
X0225472Y0131117D01*
X0225865Y0131889D01*
X0226132Y0132712D01*
X0226268Y0133567D01*
X0226268Y0133800D01*
X0220968Y0133800D01*
X0220968Y0134200D01*
X0220568Y0134200D01*
X0220568Y0133800D01*
X0220968Y0133800D01*
X0220968Y0128500D01*
X0221201Y0128500D01*
X0222056Y0128635D01*
X0222879Y0128903D01*
X0223650Y0129296D01*
X0224351Y0129805D01*
X0225554Y0131279D02*
X0234174Y0131279D01*
X0233512Y0132878D02*
X0226159Y0132878D01*
X0226261Y0134476D02*
X0233468Y0134476D01*
X0233907Y0136075D02*
X0225877Y0136075D01*
X0224872Y0137673D02*
X0235029Y0137673D01*
X0220968Y0137673D02*
X0220568Y0137673D01*
X0220568Y0136075D02*
X0220968Y0136075D01*
X0220968Y0134476D02*
X0220568Y0134476D01*
X0220568Y0133800D02*
X0215268Y0133800D01*
X0215268Y0133567D01*
X0215403Y0132712D01*
X0215671Y0131889D01*
X0216064Y0131117D01*
X0216573Y0130417D01*
X0217185Y0129805D01*
X0217885Y0129296D01*
X0218656Y0128903D01*
X0219480Y0128635D01*
X0220335Y0128500D01*
X0220568Y0128500D01*
X0220568Y0133800D01*
X0220568Y0132878D02*
X0220968Y0132878D01*
X0220968Y0131279D02*
X0220568Y0131279D01*
X0220568Y0129681D02*
X0220968Y0129681D01*
X0217355Y0129681D02*
X0202761Y0129681D01*
X0201780Y0128700D02*
X0204768Y0131688D01*
X0204768Y0133800D01*
X0199668Y0133800D01*
X0204768Y0133800D01*
X0204768Y0135912D01*
X0201780Y0138900D01*
X0199668Y0138900D01*
X0199668Y0133800D01*
X0199668Y0133800D01*
X0199668Y0133800D01*
X0199668Y0128700D01*
X0201780Y0128700D01*
X0199668Y0128700D02*
X0199668Y0133800D01*
X0199668Y0133800D01*
X0199668Y0138900D01*
X0197555Y0138900D01*
X0194568Y0135912D01*
X0194568Y0133800D01*
X0194568Y0131688D01*
X0197555Y0128700D01*
X0199668Y0128700D01*
X0199668Y0129681D02*
X0199668Y0129681D01*
X0199668Y0131279D02*
X0199668Y0131279D01*
X0199668Y0132878D02*
X0199668Y0132878D01*
X0199668Y0133800D02*
X0194568Y0133800D01*
X0199668Y0133800D01*
X0199668Y0133800D01*
X0199668Y0134476D02*
X0199668Y0134476D01*
X0199668Y0136075D02*
X0199668Y0136075D01*
X0199668Y0137673D02*
X0199668Y0137673D01*
X0203007Y0137673D02*
X0216663Y0137673D01*
X0215659Y0136075D02*
X0204605Y0136075D01*
X0204768Y0134476D02*
X0215275Y0134476D01*
X0215377Y0132878D02*
X0204768Y0132878D01*
X0204360Y0131279D02*
X0215981Y0131279D01*
X0196574Y0129681D02*
X0159468Y0129681D01*
X0159234Y0131279D02*
X0194976Y0131279D01*
X0194568Y0132878D02*
X0158365Y0132878D01*
X0155808Y0134476D02*
X0194568Y0134476D01*
X0194730Y0136075D02*
X0061468Y0136075D01*
X0061468Y0137673D02*
X0075804Y0137673D01*
X0074205Y0139272D02*
X0061486Y0139272D01*
X0061544Y0140870D02*
X0074018Y0140870D01*
X0074018Y0142469D02*
X0061601Y0142469D01*
X0061785Y0144068D02*
X0074018Y0144068D01*
X0075543Y0145666D02*
X0062015Y0145666D01*
X0063548Y0153659D02*
X0083261Y0153659D01*
X0080538Y0155257D02*
X0064017Y0155257D01*
X0064486Y0156856D02*
X0078939Y0156856D01*
X0077514Y0158454D02*
X0064956Y0158454D01*
X0065588Y0160053D02*
X0076700Y0160053D01*
X0075885Y0161651D02*
X0066318Y0161651D01*
X0067048Y0163250D02*
X0075430Y0163250D01*
X0075177Y0164848D02*
X0067778Y0164848D01*
X0068508Y0166447D02*
X0074924Y0166447D01*
X0074868Y0166800D02*
X0074868Y0166800D01*
X0075065Y0168045D02*
X0069508Y0168045D01*
X0070536Y0169644D02*
X0075318Y0169644D01*
X0075571Y0171242D02*
X0071563Y0171242D01*
X0072590Y0172841D02*
X0076340Y0172841D01*
X0075592Y0171373D02*
X0075592Y0171373D01*
X0077154Y0174439D02*
X0073813Y0174439D01*
X0075198Y0176038D02*
X0078233Y0176038D01*
X0077694Y0175499D02*
X0077694Y0175499D01*
X0076583Y0177636D02*
X0079831Y0177636D01*
X0077968Y0179235D02*
X0081874Y0179235D01*
X0079641Y0180833D02*
X0085011Y0180833D01*
X0085094Y0180876D02*
X0085094Y0180876D01*
X0083331Y0184030D02*
X0245991Y0184030D01*
X0247332Y0182432D02*
X0081486Y0182432D01*
X0085323Y0185629D02*
X0244650Y0185629D01*
X0242966Y0187227D02*
X0087811Y0187227D01*
X0090298Y0188826D02*
X0241061Y0188826D01*
X0239093Y0190424D02*
X0093217Y0190424D01*
X0096717Y0192023D02*
X0236324Y0192023D01*
X0233393Y0193621D02*
X0100746Y0193621D01*
X0106190Y0195220D02*
X0229001Y0195220D01*
X0219279Y0196818D02*
X0118675Y0196818D01*
X0098367Y0178773D02*
X0098367Y0178773D01*
X0097462Y0179235D02*
X0249441Y0179235D01*
X0248518Y0180833D02*
X0094324Y0180833D01*
X0094241Y0180876D02*
X0094241Y0180876D01*
X0099504Y0177636D02*
X0250364Y0177636D01*
X0251287Y0176038D02*
X0101103Y0176038D01*
X0102181Y0174439D02*
X0197660Y0174439D01*
X0197721Y0174500D02*
X0194968Y0171747D01*
X0194968Y0167853D01*
X0197721Y0165100D01*
X0201615Y0165100D01*
X0204368Y0167853D01*
X0204368Y0171747D01*
X0201615Y0174500D01*
X0197721Y0174500D01*
X0196062Y0172841D02*
X0102996Y0172841D01*
X0103764Y0171242D02*
X0194968Y0171242D01*
X0194968Y0169644D02*
X0104017Y0169644D01*
X0104270Y0168045D02*
X0194968Y0168045D01*
X0196374Y0166447D02*
X0104412Y0166447D01*
X0098531Y0137673D02*
X0196329Y0137673D01*
X0179368Y0155257D02*
X0217388Y0155257D01*
X0215993Y0156856D02*
X0179368Y0156856D01*
X0179368Y0158454D02*
X0215381Y0158454D01*
X0215271Y0160053D02*
X0178062Y0160053D01*
X0202961Y0166447D02*
X0254119Y0166447D01*
X0253837Y0168045D02*
X0204368Y0168045D01*
X0204368Y0169644D02*
X0253555Y0169644D01*
X0253048Y0171242D02*
X0204368Y0171242D01*
X0203274Y0172841D02*
X0252466Y0172841D01*
X0251884Y0174439D02*
X0201675Y0174439D01*
X0220568Y0163250D02*
X0220968Y0163250D01*
X0220968Y0161651D02*
X0220568Y0161651D01*
X0220568Y0160053D02*
X0220968Y0160053D01*
X0220968Y0158454D02*
X0220568Y0158454D01*
X0220568Y0156856D02*
X0220968Y0156856D01*
X0220968Y0155257D02*
X0220568Y0155257D01*
X0224147Y0155257D02*
X0235725Y0155257D01*
X0234184Y0156856D02*
X0225542Y0156856D01*
X0226155Y0158454D02*
X0233522Y0158454D01*
X0233468Y0160053D02*
X0226265Y0160053D01*
X0225884Y0161651D02*
X0233897Y0161651D01*
X0235005Y0163250D02*
X0224896Y0163250D01*
X0154868Y0134476D02*
X0154468Y0134476D01*
X0153527Y0134476D02*
X0145808Y0134476D01*
X0145792Y0134482D02*
X0145045Y0134600D01*
X0144868Y0134600D01*
X0144868Y0127000D01*
X0149468Y0127000D01*
X0149468Y0130178D01*
X0149350Y0130924D01*
X0149116Y0131643D01*
X0148773Y0132316D01*
X0148329Y0132927D01*
X0147795Y0133461D01*
X0147183Y0133905D01*
X0146510Y0134248D01*
X0145792Y0134482D01*
X0144868Y0134476D02*
X0144468Y0134476D01*
X0144468Y0134600D02*
X0144290Y0134600D01*
X0143544Y0134482D01*
X0142825Y0134248D01*
X0142152Y0133905D01*
X0141541Y0133461D01*
X0141006Y0132927D01*
X0140562Y0132316D01*
X0140219Y0131643D01*
X0139986Y0130924D01*
X0139868Y0130178D01*
X0139868Y0127000D01*
X0144468Y0127000D01*
X0144468Y0134600D01*
X0143527Y0134476D02*
X0061468Y0134476D01*
X0061468Y0132878D02*
X0121523Y0132878D01*
X0120938Y0132292D02*
X0122175Y0133530D01*
X0123792Y0134200D01*
X0125543Y0134200D01*
X0127160Y0133530D01*
X0128398Y0132292D01*
X0129068Y0130675D01*
X0129068Y0122925D01*
X0128398Y0121308D01*
X0127160Y0120070D01*
X0125543Y0119400D01*
X0123792Y0119400D01*
X0122175Y0120070D01*
X0120938Y0121308D01*
X0120268Y0122925D01*
X0120268Y0130675D01*
X0120938Y0132292D01*
X0120518Y0131279D02*
X0098179Y0131279D01*
X0099777Y0129681D02*
X0120268Y0129681D01*
X0120268Y0128082D02*
X0100318Y0128082D01*
X0100318Y0126484D02*
X0120268Y0126484D01*
X0120268Y0124885D02*
X0100318Y0124885D01*
X0099145Y0123287D02*
X0120268Y0123287D01*
X0120780Y0121688D02*
X0097546Y0121688D01*
X0076789Y0121688D02*
X0061468Y0121688D01*
X0061468Y0120090D02*
X0122155Y0120090D01*
X0127180Y0120090D02*
X0132155Y0120090D01*
X0132175Y0120070D02*
X0133792Y0119400D01*
X0135543Y0119400D01*
X0137160Y0120070D01*
X0138398Y0121308D01*
X0139068Y0122925D01*
X0139068Y0130675D01*
X0138398Y0132292D01*
X0137160Y0133530D01*
X0135543Y0134200D01*
X0133792Y0134200D01*
X0132175Y0133530D01*
X0130938Y0132292D01*
X0130268Y0130675D01*
X0130268Y0122925D01*
X0130938Y0121308D01*
X0132175Y0120070D01*
X0130780Y0121688D02*
X0128556Y0121688D01*
X0129068Y0123287D02*
X0130268Y0123287D01*
X0130268Y0124885D02*
X0129068Y0124885D01*
X0129068Y0126484D02*
X0130268Y0126484D01*
X0130268Y0128082D02*
X0129068Y0128082D01*
X0129068Y0129681D02*
X0130268Y0129681D01*
X0130518Y0131279D02*
X0128817Y0131279D01*
X0127812Y0132878D02*
X0131523Y0132878D01*
X0137812Y0132878D02*
X0140971Y0132878D01*
X0140101Y0131279D02*
X0138817Y0131279D01*
X0139068Y0129681D02*
X0139868Y0129681D01*
X0139868Y0128082D02*
X0139068Y0128082D01*
X0139068Y0126484D02*
X0139868Y0126484D01*
X0139868Y0126600D02*
X0139868Y0123422D01*
X0139986Y0122676D01*
X0140219Y0121957D01*
X0140562Y0121284D01*
X0141006Y0120673D01*
X0141541Y0120139D01*
X0142152Y0119695D01*
X0142825Y0119352D01*
X0143544Y0119118D01*
X0144290Y0119000D01*
X0144468Y0119000D01*
X0144468Y0126600D01*
X0144868Y0126600D01*
X0144868Y0127000D01*
X0144468Y0127000D01*
X0144468Y0126600D01*
X0139868Y0126600D01*
X0139868Y0124885D02*
X0139068Y0124885D01*
X0139068Y0123287D02*
X0139889Y0123287D01*
X0140356Y0121688D02*
X0138556Y0121688D01*
X0137180Y0120090D02*
X0141608Y0120090D01*
X0144468Y0120090D02*
X0144868Y0120090D01*
X0144868Y0119000D02*
X0145045Y0119000D01*
X0145792Y0119118D01*
X0146510Y0119352D01*
X0147183Y0119695D01*
X0147795Y0120139D01*
X0148329Y0120673D01*
X0148773Y0121284D01*
X0149116Y0121957D01*
X0149350Y0122676D01*
X0149468Y0123422D01*
X0149468Y0126600D01*
X0144868Y0126600D01*
X0144868Y0119000D01*
X0144868Y0121688D02*
X0144468Y0121688D01*
X0144468Y0123287D02*
X0144868Y0123287D01*
X0144868Y0124885D02*
X0144468Y0124885D01*
X0144468Y0126484D02*
X0144868Y0126484D01*
X0144868Y0128082D02*
X0144468Y0128082D01*
X0144468Y0129681D02*
X0144868Y0129681D01*
X0144868Y0131279D02*
X0144468Y0131279D01*
X0144468Y0132878D02*
X0144868Y0132878D01*
X0148365Y0132878D02*
X0150971Y0132878D01*
X0150101Y0131279D02*
X0149234Y0131279D01*
X0149468Y0129681D02*
X0149868Y0129681D01*
X0149868Y0128082D02*
X0149468Y0128082D01*
X0149868Y0126600D02*
X0149868Y0123422D01*
X0149986Y0122676D01*
X0150219Y0121957D01*
X0150562Y0121284D01*
X0151006Y0120673D01*
X0151541Y0120139D01*
X0152152Y0119695D01*
X0152825Y0119352D01*
X0153544Y0119118D01*
X0154290Y0119000D01*
X0154468Y0119000D01*
X0154468Y0126600D01*
X0149868Y0126600D01*
X0149868Y0126484D02*
X0149468Y0126484D01*
X0149468Y0124885D02*
X0149868Y0124885D01*
X0149889Y0123287D02*
X0149446Y0123287D01*
X0148979Y0121688D02*
X0150356Y0121688D01*
X0151608Y0120090D02*
X0147727Y0120090D01*
X0154468Y0120090D02*
X0154868Y0120090D01*
X0154868Y0121688D02*
X0154468Y0121688D01*
X0154468Y0123287D02*
X0154868Y0123287D01*
X0154868Y0124885D02*
X0154468Y0124885D01*
X0154468Y0126484D02*
X0154868Y0126484D01*
X0154868Y0128082D02*
X0154468Y0128082D01*
X0154468Y0129681D02*
X0154868Y0129681D01*
X0154868Y0131279D02*
X0154468Y0131279D01*
X0154468Y0132878D02*
X0154868Y0132878D01*
X0149924Y0105703D02*
X0119411Y0105703D01*
X0121010Y0104105D02*
X0148326Y0104105D01*
X0147968Y0102506D02*
X0131790Y0102506D01*
X0133388Y0100908D02*
X0147968Y0100908D01*
X0148512Y0099309D02*
X0134987Y0099309D01*
X0136585Y0097711D02*
X0150110Y0097711D01*
X0155225Y0097711D02*
X0160929Y0097711D01*
X0162527Y0096112D02*
X0138184Y0096112D01*
X0139782Y0094514D02*
X0164126Y0094514D01*
X0165724Y0092915D02*
X0141381Y0092915D01*
X0142979Y0091317D02*
X0150538Y0091317D01*
X0148939Y0089718D02*
X0144578Y0089718D01*
X0154798Y0091317D02*
X0167323Y0091317D01*
X0157368Y0088120D02*
X0205520Y0088120D01*
X0203921Y0089718D02*
X0156396Y0089718D01*
X0157368Y0086521D02*
X0207118Y0086521D01*
X0207668Y0084923D02*
X0157368Y0084923D01*
X0155839Y0083324D02*
X0207668Y0083324D01*
X0207668Y0081726D02*
X0100318Y0081726D01*
X0100318Y0083324D02*
X0113497Y0083324D01*
X0111968Y0084923D02*
X0099535Y0084923D01*
X0100318Y0084140D02*
X0097008Y0087450D01*
X0092327Y0087450D01*
X0089018Y0084140D01*
X0089018Y0079460D01*
X0092327Y0076150D01*
X0097008Y0076150D01*
X0100318Y0079460D01*
X0100318Y0084140D01*
X0097937Y0086521D02*
X0111968Y0086521D01*
X0111968Y0088120D02*
X0061468Y0088120D01*
X0061468Y0089718D02*
X0112939Y0089718D01*
X0114538Y0091317D02*
X0097175Y0091317D01*
X0092161Y0091317D02*
X0082175Y0091317D01*
X0083773Y0092915D02*
X0090562Y0092915D01*
X0089018Y0094514D02*
X0085318Y0094514D01*
X0085318Y0096112D02*
X0089018Y0096112D01*
X0089018Y0097711D02*
X0085318Y0097711D01*
X0085149Y0099309D02*
X0089187Y0099309D01*
X0090785Y0100908D02*
X0083550Y0100908D01*
X0074187Y0099309D02*
X0061468Y0099309D01*
X0061468Y0097711D02*
X0074018Y0097711D01*
X0074018Y0096112D02*
X0061468Y0096112D01*
X0061468Y0094514D02*
X0074018Y0094514D01*
X0075562Y0092915D02*
X0061468Y0092915D01*
X0061468Y0091317D02*
X0077161Y0091317D01*
X0077327Y0087450D02*
X0074018Y0084140D01*
X0074018Y0079460D01*
X0077327Y0076150D01*
X0082008Y0076150D01*
X0085318Y0079460D01*
X0085318Y0084140D01*
X0082008Y0087450D01*
X0077327Y0087450D01*
X0076399Y0086521D02*
X0061468Y0086521D01*
X0061468Y0084923D02*
X0074800Y0084923D01*
X0074018Y0083324D02*
X0061468Y0083324D01*
X0061468Y0081726D02*
X0074018Y0081726D01*
X0074018Y0080127D02*
X0061468Y0080127D01*
X0061468Y0078529D02*
X0074949Y0078529D01*
X0076547Y0076930D02*
X0061468Y0076930D01*
X0061468Y0075332D02*
X0175360Y0075332D01*
X0175268Y0073733D02*
X0061468Y0073733D01*
X0061468Y0072134D02*
X0175268Y0072134D01*
X0175268Y0071800D02*
X0179668Y0071800D01*
X0175268Y0071800D01*
X0179668Y0071800D02*
X0179668Y0071800D01*
X0179668Y0072134D02*
X0179668Y0072134D01*
X0179668Y0070536D02*
X0179668Y0070536D01*
X0179668Y0068937D02*
X0179668Y0068937D01*
X0179668Y0067339D02*
X0179668Y0067339D01*
X0179668Y0065740D02*
X0179668Y0065740D01*
X0182392Y0065740D02*
X0187567Y0065740D01*
X0187402Y0065809D02*
X0188872Y0065200D01*
X0190463Y0065200D01*
X0191934Y0065809D01*
X0193059Y0066934D01*
X0193668Y0068404D01*
X0193668Y0075196D01*
X0193059Y0076666D01*
X0191934Y0077791D01*
X0190463Y0078400D01*
X0188872Y0078400D01*
X0187402Y0077791D01*
X0186277Y0076666D01*
X0185668Y0075196D01*
X0185668Y0068404D01*
X0186277Y0066934D01*
X0187402Y0065809D01*
X0186109Y0067339D02*
X0183658Y0067339D01*
X0184068Y0068937D02*
X0185668Y0068937D01*
X0185668Y0070536D02*
X0184068Y0070536D01*
X0184068Y0072134D02*
X0185668Y0072134D01*
X0185668Y0073733D02*
X0184068Y0073733D01*
X0183975Y0075332D02*
X0185724Y0075332D01*
X0186541Y0076930D02*
X0183268Y0076930D01*
X0181200Y0078529D02*
X0207668Y0078529D01*
X0207668Y0080127D02*
X0100318Y0080127D01*
X0099387Y0078529D02*
X0178135Y0078529D01*
X0179668Y0078529D02*
X0179668Y0078529D01*
X0179668Y0076930D02*
X0179668Y0076930D01*
X0179668Y0075332D02*
X0179668Y0075332D01*
X0179668Y0073733D02*
X0179668Y0073733D01*
X0176067Y0076930D02*
X0097788Y0076930D01*
X0091547Y0076930D02*
X0082788Y0076930D01*
X0084387Y0078529D02*
X0089949Y0078529D01*
X0089018Y0080127D02*
X0085318Y0080127D01*
X0085318Y0081726D02*
X0089018Y0081726D01*
X0089018Y0083324D02*
X0085318Y0083324D01*
X0084535Y0084923D02*
X0089800Y0084923D01*
X0091399Y0086521D02*
X0082937Y0086521D01*
X0061468Y0070536D02*
X0111757Y0070536D01*
X0110466Y0068937D02*
X0061468Y0068937D01*
X0061468Y0067339D02*
X0069877Y0067339D01*
X0073080Y0067339D02*
X0109968Y0067339D01*
X0110019Y0065740D02*
X0076306Y0065740D01*
X0077904Y0064142D02*
X0110681Y0064142D01*
X0112662Y0062543D02*
X0078642Y0062543D01*
X0080828Y0054551D02*
X0081028Y0054551D01*
X0081028Y0052952D02*
X0080828Y0052952D01*
X0080828Y0051354D02*
X0081028Y0051354D01*
X0075964Y0052952D02*
X0075548Y0052952D01*
X0075482Y0051354D02*
X0061468Y0051354D01*
X0061468Y0052952D02*
X0067410Y0052952D01*
X0065630Y0054551D02*
X0061468Y0054551D01*
X0061468Y0056149D02*
X0064555Y0056149D01*
X0063893Y0057748D02*
X0061468Y0057748D01*
X0061468Y0059346D02*
X0063748Y0059346D01*
X0063748Y0060945D02*
X0061468Y0060945D01*
X0061468Y0062543D02*
X0064316Y0062543D01*
X0065053Y0064142D02*
X0061468Y0064142D01*
X0061468Y0065740D02*
X0066652Y0065740D01*
X0070296Y0049624D02*
X0068839Y0049020D01*
X0067723Y0047904D01*
X0067120Y0046447D01*
X0067120Y0044870D01*
X0067723Y0043412D01*
X0068839Y0042297D01*
X0070296Y0041693D01*
X0071874Y0041693D01*
X0073331Y0042297D01*
X0074447Y0043412D01*
X0075050Y0044870D01*
X0075050Y0046447D01*
X0074447Y0047904D01*
X0073331Y0049020D01*
X0071874Y0049624D01*
X0070296Y0049624D01*
X0067976Y0048157D02*
X0061468Y0048157D01*
X0061468Y0049755D02*
X0075490Y0049755D01*
X0075989Y0048157D02*
X0074194Y0048157D01*
X0075004Y0046558D02*
X0077171Y0046558D01*
X0077438Y0044960D02*
X0075050Y0044960D01*
X0074396Y0043361D02*
X0076287Y0043361D01*
X0075828Y0041763D02*
X0072042Y0041763D01*
X0070128Y0041763D02*
X0061468Y0041763D01*
X0061468Y0043361D02*
X0067774Y0043361D01*
X0067120Y0044960D02*
X0061468Y0044960D01*
X0061468Y0046558D02*
X0067166Y0046558D01*
X0061468Y0040164D02*
X0075852Y0040164D01*
X0076514Y0038566D02*
X0061468Y0038566D01*
X0061468Y0036967D02*
X0077985Y0036967D01*
X0076721Y0035369D02*
X0061468Y0035369D01*
X0061468Y0033770D02*
X0075990Y0033770D01*
X0075828Y0032172D02*
X0061468Y0032172D01*
X0061468Y0030573D02*
X0068109Y0030573D01*
X0067723Y0030188D02*
X0067120Y0028730D01*
X0067120Y0027153D01*
X0067723Y0025696D01*
X0068839Y0024580D01*
X0070296Y0023976D01*
X0071874Y0023976D01*
X0073331Y0024580D01*
X0074447Y0025696D01*
X0075050Y0027153D01*
X0075050Y0028730D01*
X0074447Y0030188D01*
X0073331Y0031303D01*
X0071874Y0031907D01*
X0070296Y0031907D01*
X0068839Y0031303D01*
X0067723Y0030188D01*
X0067221Y0028975D02*
X0061468Y0028975D01*
X0061468Y0027376D02*
X0067120Y0027376D01*
X0067689Y0025778D02*
X0061468Y0025778D01*
X0061468Y0024179D02*
X0069807Y0024179D01*
X0072363Y0024179D02*
X0075887Y0024179D01*
X0075828Y0022581D02*
X0061468Y0022581D01*
X0061468Y0020982D02*
X0068217Y0020982D01*
X0067100Y0020519D02*
X0064925Y0018344D01*
X0063748Y0015503D01*
X0063748Y0012428D01*
X0064925Y0009586D01*
X0067100Y0007412D01*
X0069941Y0006235D01*
X0073016Y0006235D01*
X0075858Y0007412D01*
X0078033Y0009586D01*
X0079209Y0012428D01*
X0079209Y0015503D01*
X0078033Y0018344D01*
X0075858Y0020519D01*
X0073016Y0021696D01*
X0069941Y0021696D01*
X0067100Y0020519D01*
X0065964Y0019384D02*
X0061468Y0019384D01*
X0061468Y0017785D02*
X0064693Y0017785D01*
X0064031Y0016187D02*
X0061468Y0016187D01*
X0061468Y0014588D02*
X0063748Y0014588D01*
X0063748Y0012990D02*
X0061468Y0012990D01*
X0061468Y0011391D02*
X0064177Y0011391D01*
X0064840Y0009793D02*
X0061468Y0009793D01*
X0061521Y0008194D02*
X0066317Y0008194D01*
X0069070Y0006596D02*
X0062004Y0006596D01*
X0063214Y0004997D02*
X0103359Y0004997D01*
X0104668Y0006800D02*
X0088447Y0023020D01*
X0080928Y0023020D01*
X0084503Y0019384D02*
X0088973Y0019384D01*
X0090571Y0017785D02*
X0078264Y0017785D01*
X0078926Y0016187D02*
X0092170Y0016187D01*
X0093768Y0014588D02*
X0079209Y0014588D01*
X0079209Y0012990D02*
X0095367Y0012990D01*
X0096965Y0011391D02*
X0078780Y0011391D01*
X0078118Y0009793D02*
X0098564Y0009793D01*
X0100162Y0008194D02*
X0076640Y0008194D01*
X0073888Y0006596D02*
X0101761Y0006596D01*
X0104668Y0006800D02*
X0154668Y0006800D01*
X0154549Y0009793D02*
X0104786Y0009793D01*
X0103188Y0011391D02*
X0156148Y0011391D01*
X0155504Y0012990D02*
X0157746Y0012990D01*
X0157103Y0014588D02*
X0159345Y0014588D01*
X0160943Y0016187D02*
X0157368Y0016187D01*
X0157368Y0017785D02*
X0162542Y0017785D01*
X0164140Y0019384D02*
X0158080Y0019384D01*
X0159678Y0020982D02*
X0165739Y0020982D01*
X0167337Y0022581D02*
X0161277Y0022581D01*
X0162875Y0024179D02*
X0220283Y0024179D01*
X0220536Y0022581D02*
X0206998Y0022581D01*
X0208597Y0020982D02*
X0221226Y0020982D01*
X0222041Y0019384D02*
X0210195Y0019384D01*
X0212905Y0017785D02*
X0223010Y0017785D01*
X0224608Y0016187D02*
X0213856Y0016187D01*
X0214068Y0014588D02*
X0226437Y0014588D01*
X0229574Y0012990D02*
X0214068Y0012990D01*
X0205268Y0012990D02*
X0204068Y0012990D01*
X0204068Y0014588D02*
X0205268Y0014588D01*
X0205480Y0016187D02*
X0203856Y0016187D01*
X0204068Y0015675D02*
X0203398Y0017292D01*
X0202160Y0018530D01*
X0200543Y0019200D01*
X0198792Y0019200D01*
X0197175Y0018530D01*
X0195938Y0017292D01*
X0195268Y0015675D01*
X0195268Y0007925D01*
X0195938Y0006308D01*
X0197175Y0005070D01*
X0198792Y0004400D01*
X0200543Y0004400D01*
X0202160Y0005070D01*
X0203398Y0006308D01*
X0204068Y0007925D01*
X0204068Y0015675D01*
X0202905Y0017785D02*
X0205571Y0017785D01*
X0203973Y0019384D02*
X0170363Y0019384D01*
X0168764Y0017785D02*
X0176430Y0017785D01*
X0175480Y0016187D02*
X0167166Y0016187D01*
X0165567Y0014588D02*
X0175268Y0014588D01*
X0175268Y0012990D02*
X0163969Y0012990D01*
X0162370Y0011391D02*
X0175268Y0011391D01*
X0175268Y0009793D02*
X0160772Y0009793D01*
X0159173Y0008194D02*
X0175268Y0008194D01*
X0175818Y0006596D02*
X0157575Y0006596D01*
X0149831Y0012990D02*
X0119504Y0012990D01*
X0121103Y0014588D02*
X0148233Y0014588D01*
X0121218Y0024179D02*
X0105400Y0024179D01*
X0106998Y0022581D02*
X0119620Y0022581D01*
X0114203Y0020982D02*
X0108597Y0020982D01*
X0110195Y0019384D02*
X0112605Y0019384D01*
X0112233Y0014588D02*
X0099991Y0014588D01*
X0101589Y0012990D02*
X0113831Y0012990D01*
X0107170Y0016187D02*
X0098392Y0016187D01*
X0096794Y0017785D02*
X0105571Y0017785D01*
X0103973Y0019384D02*
X0095195Y0019384D01*
X0093597Y0020982D02*
X0102374Y0020982D01*
X0100776Y0022581D02*
X0091998Y0022581D01*
X0090400Y0024179D02*
X0099177Y0024179D01*
X0097579Y0025778D02*
X0085306Y0025778D01*
X0083739Y0027376D02*
X0097468Y0027376D01*
X0097468Y0028975D02*
X0084752Y0028975D01*
X0085706Y0030573D02*
X0097468Y0030573D01*
X0096185Y0032172D02*
X0086028Y0032172D01*
X0085865Y0033770D02*
X0094586Y0033770D01*
X0092988Y0035369D02*
X0085134Y0035369D01*
X0083870Y0036967D02*
X0091389Y0036967D01*
X0089791Y0038566D02*
X0085341Y0038566D01*
X0076149Y0030573D02*
X0074061Y0030573D01*
X0074949Y0028975D02*
X0077103Y0028975D01*
X0078116Y0027376D02*
X0075050Y0027376D01*
X0074481Y0025778D02*
X0076549Y0025778D01*
X0076252Y0020982D02*
X0074740Y0020982D01*
X0076993Y0019384D02*
X0077352Y0019384D01*
X0114368Y0043361D02*
X0114968Y0043361D01*
X0114968Y0044960D02*
X0114368Y0044960D01*
X0114368Y0048157D02*
X0114968Y0048157D01*
X0114968Y0049755D02*
X0114368Y0049755D01*
X0119225Y0097711D02*
X0130929Y0097711D01*
X0129330Y0099309D02*
X0120824Y0099309D01*
X0113924Y0105703D02*
X0061468Y0105703D01*
X0061468Y0104105D02*
X0112326Y0104105D01*
X0075191Y0123287D02*
X0061468Y0123287D01*
X0061468Y0124885D02*
X0074018Y0124885D01*
X0074018Y0126484D02*
X0061468Y0126484D01*
X0061468Y0128082D02*
X0074018Y0128082D01*
X0074558Y0129681D02*
X0061468Y0129681D01*
X0061468Y0131279D02*
X0076157Y0131279D01*
X0156824Y0099309D02*
X0159330Y0099309D01*
X0192795Y0076930D02*
X0196541Y0076930D01*
X0196277Y0076666D02*
X0197402Y0077791D01*
X0198872Y0078400D01*
X0200463Y0078400D01*
X0201934Y0077791D01*
X0203059Y0076666D01*
X0203668Y0075196D01*
X0203668Y0068404D01*
X0203059Y0066934D01*
X0201934Y0065809D01*
X0200463Y0065200D01*
X0198872Y0065200D01*
X0197402Y0065809D01*
X0196277Y0066934D01*
X0195668Y0068404D01*
X0195668Y0075196D01*
X0196277Y0076666D01*
X0195724Y0075332D02*
X0193611Y0075332D01*
X0193668Y0073733D02*
X0195668Y0073733D01*
X0195668Y0072134D02*
X0193668Y0072134D01*
X0193668Y0070536D02*
X0195668Y0070536D01*
X0195668Y0068937D02*
X0193668Y0068937D01*
X0193226Y0067339D02*
X0196109Y0067339D01*
X0197567Y0065740D02*
X0191768Y0065740D01*
X0201768Y0065740D02*
X0207567Y0065740D01*
X0206109Y0067339D02*
X0203226Y0067339D01*
X0203668Y0068937D02*
X0205668Y0068937D01*
X0205668Y0070536D02*
X0203668Y0070536D01*
X0203668Y0072134D02*
X0205668Y0072134D01*
X0205668Y0073733D02*
X0203668Y0073733D01*
X0203611Y0075332D02*
X0205724Y0075332D01*
X0206541Y0076930D02*
X0202795Y0076930D01*
X0196430Y0017785D02*
X0192905Y0017785D01*
X0193856Y0016187D02*
X0195480Y0016187D01*
X0195268Y0014588D02*
X0194068Y0014588D01*
X0194068Y0012990D02*
X0195268Y0012990D01*
X0195268Y0011391D02*
X0194068Y0011391D01*
X0194068Y0009793D02*
X0195268Y0009793D01*
X0195268Y0008194D02*
X0194068Y0008194D01*
X0193517Y0006596D02*
X0195818Y0006596D01*
X0197351Y0004997D02*
X0191984Y0004997D01*
X0201984Y0004997D02*
X0207351Y0004997D01*
X0205818Y0006596D02*
X0203517Y0006596D01*
X0204068Y0008194D02*
X0205268Y0008194D01*
X0205268Y0009793D02*
X0204068Y0009793D01*
X0204068Y0011391D02*
X0205268Y0011391D01*
D22*
X0174668Y0096800D03*
M02*
