G75*
%MOIN*%
%OFA0B0*%
%FSLAX24Y24*%
%IPPOS*%
%LPD*%
%AMOC8*
5,1,8,0,0,1.08239X$1,22.5*
%
%ADD10C,0.0000*%
D10*
X005967Y003153D02*
X005967Y018587D01*
X005969Y018683D01*
X005975Y018779D01*
X005984Y018875D01*
X005997Y018970D01*
X006014Y019065D01*
X006035Y019158D01*
X006059Y019251D01*
X006087Y019343D01*
X006118Y019434D01*
X006153Y019524D01*
X006192Y019612D01*
X006234Y019698D01*
X006279Y019783D01*
X006328Y019866D01*
X006380Y019947D01*
X006435Y020026D01*
X006493Y020103D01*
X006554Y020177D01*
X006617Y020249D01*
X006684Y020318D01*
X006753Y020385D01*
X006825Y020448D01*
X006899Y020509D01*
X006976Y020567D01*
X007055Y020622D01*
X007136Y020674D01*
X007219Y020723D01*
X007304Y020768D01*
X007390Y020810D01*
X007478Y020849D01*
X007568Y020884D01*
X007659Y020915D01*
X007751Y020943D01*
X007844Y020967D01*
X007937Y020988D01*
X008032Y021005D01*
X008127Y021018D01*
X008223Y021027D01*
X008319Y021033D01*
X008415Y021035D01*
X043867Y021035D01*
X043941Y021033D01*
X044016Y021027D01*
X044090Y021018D01*
X044163Y021005D01*
X044235Y020988D01*
X044307Y020968D01*
X044378Y020943D01*
X044447Y020916D01*
X044514Y020885D01*
X044580Y020850D01*
X044645Y020813D01*
X044707Y020772D01*
X044767Y020727D01*
X044825Y020680D01*
X044880Y020630D01*
X044932Y020578D01*
X044982Y020523D01*
X045029Y020465D01*
X045074Y020405D01*
X045115Y020343D01*
X045152Y020278D01*
X045187Y020212D01*
X045218Y020145D01*
X045245Y020076D01*
X045270Y020005D01*
X045290Y019933D01*
X045307Y019861D01*
X045320Y019788D01*
X045329Y019714D01*
X045335Y019639D01*
X045337Y019565D01*
X045337Y003911D01*
X042975Y003600D02*
X042977Y003644D01*
X042983Y003688D01*
X042993Y003731D01*
X043006Y003773D01*
X043024Y003813D01*
X043045Y003852D01*
X043069Y003889D01*
X043096Y003924D01*
X043127Y003956D01*
X043160Y003985D01*
X043196Y004011D01*
X043234Y004033D01*
X043274Y004052D01*
X043315Y004068D01*
X043358Y004080D01*
X043401Y004088D01*
X043445Y004092D01*
X043489Y004092D01*
X043533Y004088D01*
X043576Y004080D01*
X043619Y004068D01*
X043660Y004052D01*
X043700Y004033D01*
X043738Y004011D01*
X043774Y003985D01*
X043807Y003956D01*
X043838Y003924D01*
X043865Y003889D01*
X043889Y003852D01*
X043910Y003813D01*
X043928Y003773D01*
X043941Y003731D01*
X043951Y003688D01*
X043957Y003644D01*
X043959Y003600D01*
X043957Y003556D01*
X043951Y003512D01*
X043941Y003469D01*
X043928Y003427D01*
X043910Y003387D01*
X043889Y003348D01*
X043865Y003311D01*
X043838Y003276D01*
X043807Y003244D01*
X043774Y003215D01*
X043738Y003189D01*
X043700Y003167D01*
X043660Y003148D01*
X043619Y003132D01*
X043576Y003120D01*
X043533Y003112D01*
X043489Y003108D01*
X043445Y003108D01*
X043401Y003112D01*
X043358Y003120D01*
X043315Y003132D01*
X043274Y003148D01*
X043234Y003167D01*
X043196Y003189D01*
X043160Y003215D01*
X043127Y003244D01*
X043096Y003276D01*
X043069Y003311D01*
X043045Y003348D01*
X043024Y003387D01*
X043006Y003427D01*
X042993Y003469D01*
X042983Y003512D01*
X042977Y003556D01*
X042975Y003600D01*
X042776Y001350D02*
X042877Y001352D01*
X042977Y001358D01*
X043077Y001368D01*
X043177Y001382D01*
X043276Y001399D01*
X043374Y001421D01*
X043471Y001446D01*
X043567Y001475D01*
X043662Y001508D01*
X043756Y001545D01*
X043848Y001585D01*
X043939Y001629D01*
X044027Y001677D01*
X044114Y001727D01*
X044199Y001782D01*
X044281Y001839D01*
X044361Y001900D01*
X044439Y001964D01*
X044514Y002030D01*
X044587Y002100D01*
X044657Y002173D01*
X044723Y002248D01*
X044787Y002326D01*
X044848Y002406D01*
X044905Y002488D01*
X044960Y002573D01*
X045010Y002660D01*
X045058Y002748D01*
X045102Y002839D01*
X045142Y002931D01*
X045179Y003025D01*
X045212Y003120D01*
X045241Y003216D01*
X045266Y003313D01*
X045288Y003411D01*
X045305Y003510D01*
X045319Y003610D01*
X045329Y003710D01*
X045335Y003810D01*
X045337Y003911D01*
X042776Y001350D02*
X007770Y001350D01*
X007687Y001352D01*
X007604Y001358D01*
X007521Y001367D01*
X007439Y001381D01*
X007357Y001398D01*
X007277Y001419D01*
X007197Y001443D01*
X007119Y001472D01*
X007042Y001504D01*
X006966Y001539D01*
X006893Y001578D01*
X006821Y001620D01*
X006751Y001666D01*
X006683Y001714D01*
X006618Y001766D01*
X006555Y001821D01*
X006495Y001878D01*
X006438Y001938D01*
X006383Y002001D01*
X006331Y002066D01*
X006283Y002134D01*
X006237Y002204D01*
X006195Y002276D01*
X006156Y002349D01*
X006121Y002425D01*
X006089Y002502D01*
X006060Y002580D01*
X006036Y002660D01*
X006015Y002740D01*
X005998Y002822D01*
X005984Y002904D01*
X005975Y002987D01*
X005969Y003070D01*
X005967Y003153D01*
X006892Y010714D02*
X006894Y010743D01*
X006900Y010771D01*
X006909Y010799D01*
X006922Y010825D01*
X006939Y010848D01*
X006958Y010870D01*
X006980Y010889D01*
X007005Y010904D01*
X007031Y010917D01*
X007059Y010925D01*
X007087Y010930D01*
X007116Y010931D01*
X007145Y010928D01*
X007173Y010921D01*
X007200Y010911D01*
X007226Y010897D01*
X007249Y010880D01*
X007270Y010860D01*
X007288Y010837D01*
X007303Y010812D01*
X007314Y010785D01*
X007322Y010757D01*
X007326Y010728D01*
X007326Y010700D01*
X007322Y010671D01*
X007314Y010643D01*
X007303Y010616D01*
X007288Y010591D01*
X007270Y010568D01*
X007249Y010548D01*
X007226Y010531D01*
X007200Y010517D01*
X007173Y010507D01*
X007145Y010500D01*
X007116Y010497D01*
X007087Y010498D01*
X007059Y010503D01*
X007031Y010511D01*
X007005Y010524D01*
X006980Y010539D01*
X006958Y010558D01*
X006939Y010580D01*
X006922Y010603D01*
X006909Y010629D01*
X006900Y010657D01*
X006894Y010685D01*
X006892Y010714D01*
X006892Y012486D02*
X006894Y012515D01*
X006900Y012543D01*
X006909Y012571D01*
X006922Y012597D01*
X006939Y012620D01*
X006958Y012642D01*
X006980Y012661D01*
X007005Y012676D01*
X007031Y012689D01*
X007059Y012697D01*
X007087Y012702D01*
X007116Y012703D01*
X007145Y012700D01*
X007173Y012693D01*
X007200Y012683D01*
X007226Y012669D01*
X007249Y012652D01*
X007270Y012632D01*
X007288Y012609D01*
X007303Y012584D01*
X007314Y012557D01*
X007322Y012529D01*
X007326Y012500D01*
X007326Y012472D01*
X007322Y012443D01*
X007314Y012415D01*
X007303Y012388D01*
X007288Y012363D01*
X007270Y012340D01*
X007249Y012320D01*
X007226Y012303D01*
X007200Y012289D01*
X007173Y012279D01*
X007145Y012272D01*
X007116Y012269D01*
X007087Y012270D01*
X007059Y012275D01*
X007031Y012283D01*
X007005Y012296D01*
X006980Y012311D01*
X006958Y012330D01*
X006939Y012352D01*
X006922Y012375D01*
X006909Y012401D01*
X006900Y012429D01*
X006894Y012457D01*
X006892Y012486D01*
X042975Y019350D02*
X042977Y019394D01*
X042983Y019438D01*
X042993Y019481D01*
X043006Y019523D01*
X043024Y019563D01*
X043045Y019602D01*
X043069Y019639D01*
X043096Y019674D01*
X043127Y019706D01*
X043160Y019735D01*
X043196Y019761D01*
X043234Y019783D01*
X043274Y019802D01*
X043315Y019818D01*
X043358Y019830D01*
X043401Y019838D01*
X043445Y019842D01*
X043489Y019842D01*
X043533Y019838D01*
X043576Y019830D01*
X043619Y019818D01*
X043660Y019802D01*
X043700Y019783D01*
X043738Y019761D01*
X043774Y019735D01*
X043807Y019706D01*
X043838Y019674D01*
X043865Y019639D01*
X043889Y019602D01*
X043910Y019563D01*
X043928Y019523D01*
X043941Y019481D01*
X043951Y019438D01*
X043957Y019394D01*
X043959Y019350D01*
X043957Y019306D01*
X043951Y019262D01*
X043941Y019219D01*
X043928Y019177D01*
X043910Y019137D01*
X043889Y019098D01*
X043865Y019061D01*
X043838Y019026D01*
X043807Y018994D01*
X043774Y018965D01*
X043738Y018939D01*
X043700Y018917D01*
X043660Y018898D01*
X043619Y018882D01*
X043576Y018870D01*
X043533Y018862D01*
X043489Y018858D01*
X043445Y018858D01*
X043401Y018862D01*
X043358Y018870D01*
X043315Y018882D01*
X043274Y018898D01*
X043234Y018917D01*
X043196Y018939D01*
X043160Y018965D01*
X043127Y018994D01*
X043096Y019026D01*
X043069Y019061D01*
X043045Y019098D01*
X043024Y019137D01*
X043006Y019177D01*
X042993Y019219D01*
X042983Y019262D01*
X042977Y019306D01*
X042975Y019350D01*
X043180Y011193D02*
X043182Y011249D01*
X043188Y011304D01*
X043198Y011358D01*
X043211Y011412D01*
X043229Y011465D01*
X043250Y011516D01*
X043274Y011566D01*
X043302Y011614D01*
X043334Y011660D01*
X043368Y011704D01*
X043406Y011745D01*
X043446Y011783D01*
X043489Y011818D01*
X043534Y011850D01*
X043582Y011879D01*
X043631Y011905D01*
X043682Y011927D01*
X043734Y011945D01*
X043788Y011959D01*
X043843Y011970D01*
X043898Y011977D01*
X043953Y011980D01*
X044009Y011979D01*
X044064Y011974D01*
X044119Y011965D01*
X044173Y011953D01*
X044226Y011936D01*
X044278Y011916D01*
X044328Y011892D01*
X044376Y011865D01*
X044423Y011835D01*
X044467Y011801D01*
X044509Y011764D01*
X044547Y011724D01*
X044584Y011682D01*
X044617Y011637D01*
X044646Y011591D01*
X044673Y011542D01*
X044695Y011491D01*
X044715Y011439D01*
X044730Y011385D01*
X044742Y011331D01*
X044750Y011276D01*
X044754Y011221D01*
X044754Y011165D01*
X044750Y011110D01*
X044742Y011055D01*
X044730Y011001D01*
X044715Y010947D01*
X044695Y010895D01*
X044673Y010844D01*
X044646Y010795D01*
X044617Y010749D01*
X044584Y010704D01*
X044547Y010662D01*
X044509Y010622D01*
X044467Y010585D01*
X044423Y010551D01*
X044376Y010521D01*
X044328Y010494D01*
X044278Y010470D01*
X044226Y010450D01*
X044173Y010433D01*
X044119Y010421D01*
X044064Y010412D01*
X044009Y010407D01*
X043953Y010406D01*
X043898Y010409D01*
X043843Y010416D01*
X043788Y010427D01*
X043734Y010441D01*
X043682Y010459D01*
X043631Y010481D01*
X043582Y010507D01*
X043534Y010536D01*
X043489Y010568D01*
X043446Y010603D01*
X043406Y010641D01*
X043368Y010682D01*
X043334Y010726D01*
X043302Y010772D01*
X043274Y010820D01*
X043250Y010870D01*
X043229Y010921D01*
X043211Y010974D01*
X043198Y011028D01*
X043188Y011082D01*
X043182Y011137D01*
X043180Y011193D01*
M02*
