G75*
%MOIN*%
%OFA0B0*%
%FSLAX25Y25*%
%IPPOS*%
%LPD*%
%AMOC8*
5,1,8,0,0,1.08239X$1,22.5*
%
%ADD10C,0.00000*%
%ADD11C,0.00600*%
%ADD12C,0.01181*%
%ADD13R,0.03937X0.04331*%
%ADD14C,0.05200*%
%ADD15R,0.02500X0.06000*%
%ADD16C,0.07400*%
%ADD17C,0.12661*%
%ADD18R,0.05900X0.07900*%
%ADD19R,0.15000X0.07900*%
%ADD20R,0.04724X0.03150*%
%ADD21R,0.01200X0.03900*%
%ADD22R,0.02362X0.04724*%
%ADD23R,0.03000X0.06000*%
%ADD24C,0.06000*%
%ADD25R,0.02165X0.04724*%
%ADD26R,0.04331X0.03937*%
%ADD27R,0.05000X0.02500*%
%ADD28C,0.02400*%
%ADD29C,0.03562*%
%ADD30C,0.04724*%
%ADD31C,0.03600*%
%ADD32C,0.03200*%
%ADD33C,0.01600*%
%ADD34C,0.01200*%
D10*
X0059668Y0020048D02*
X0059668Y0185402D01*
X0059673Y0185783D01*
X0059686Y0186163D01*
X0059709Y0186543D01*
X0059742Y0186922D01*
X0059783Y0187300D01*
X0059833Y0187677D01*
X0059893Y0188053D01*
X0059961Y0188428D01*
X0060039Y0188800D01*
X0060126Y0189171D01*
X0060221Y0189539D01*
X0060326Y0189905D01*
X0060439Y0190268D01*
X0060561Y0190629D01*
X0060691Y0190986D01*
X0060831Y0191340D01*
X0060978Y0191691D01*
X0061135Y0192038D01*
X0061299Y0192381D01*
X0061472Y0192720D01*
X0061653Y0193055D01*
X0061842Y0193386D01*
X0062039Y0193711D01*
X0062243Y0194032D01*
X0062456Y0194348D01*
X0062676Y0194658D01*
X0062903Y0194964D01*
X0063138Y0195263D01*
X0063380Y0195557D01*
X0063628Y0195845D01*
X0063884Y0196127D01*
X0064147Y0196402D01*
X0064416Y0196671D01*
X0064691Y0196934D01*
X0064973Y0197190D01*
X0065261Y0197438D01*
X0065555Y0197680D01*
X0065854Y0197915D01*
X0066160Y0198142D01*
X0066470Y0198362D01*
X0066786Y0198575D01*
X0067107Y0198779D01*
X0067432Y0198976D01*
X0067763Y0199165D01*
X0068098Y0199346D01*
X0068437Y0199519D01*
X0068780Y0199683D01*
X0069127Y0199840D01*
X0069478Y0199987D01*
X0069832Y0200127D01*
X0070189Y0200257D01*
X0070550Y0200379D01*
X0070913Y0200492D01*
X0071279Y0200597D01*
X0071647Y0200692D01*
X0072018Y0200779D01*
X0072390Y0200857D01*
X0072765Y0200925D01*
X0073141Y0200985D01*
X0073518Y0201035D01*
X0073896Y0201076D01*
X0074275Y0201109D01*
X0074655Y0201132D01*
X0075035Y0201145D01*
X0075416Y0201150D01*
X0437620Y0201150D01*
X0438001Y0201145D01*
X0438381Y0201132D01*
X0438761Y0201109D01*
X0439140Y0201076D01*
X0439518Y0201035D01*
X0439895Y0200985D01*
X0440271Y0200925D01*
X0440646Y0200857D01*
X0441018Y0200779D01*
X0441389Y0200692D01*
X0441757Y0200597D01*
X0442123Y0200492D01*
X0442486Y0200379D01*
X0442847Y0200257D01*
X0443204Y0200127D01*
X0443558Y0199987D01*
X0443909Y0199840D01*
X0444256Y0199683D01*
X0444599Y0199519D01*
X0444938Y0199346D01*
X0445273Y0199165D01*
X0445604Y0198976D01*
X0445929Y0198779D01*
X0446250Y0198575D01*
X0446566Y0198362D01*
X0446876Y0198142D01*
X0447182Y0197915D01*
X0447481Y0197680D01*
X0447775Y0197438D01*
X0448063Y0197190D01*
X0448345Y0196934D01*
X0448620Y0196671D01*
X0448889Y0196402D01*
X0449152Y0196127D01*
X0449408Y0195845D01*
X0449656Y0195557D01*
X0449898Y0195263D01*
X0450133Y0194964D01*
X0450360Y0194658D01*
X0450580Y0194348D01*
X0450793Y0194032D01*
X0450997Y0193711D01*
X0451194Y0193386D01*
X0451383Y0193055D01*
X0451564Y0192720D01*
X0451737Y0192381D01*
X0451901Y0192038D01*
X0452058Y0191691D01*
X0452205Y0191340D01*
X0452345Y0190986D01*
X0452475Y0190629D01*
X0452597Y0190268D01*
X0452710Y0189905D01*
X0452815Y0189539D01*
X0452910Y0189171D01*
X0452997Y0188800D01*
X0453075Y0188428D01*
X0453143Y0188053D01*
X0453203Y0187677D01*
X0453253Y0187300D01*
X0453294Y0186922D01*
X0453327Y0186543D01*
X0453350Y0186163D01*
X0453363Y0185783D01*
X0453368Y0185402D01*
X0453369Y0185402D02*
X0453369Y0020048D01*
X0453368Y0020048D02*
X0453363Y0019667D01*
X0453350Y0019287D01*
X0453327Y0018907D01*
X0453294Y0018528D01*
X0453253Y0018150D01*
X0453203Y0017773D01*
X0453143Y0017397D01*
X0453075Y0017022D01*
X0452997Y0016650D01*
X0452910Y0016279D01*
X0452815Y0015911D01*
X0452710Y0015545D01*
X0452597Y0015182D01*
X0452475Y0014821D01*
X0452345Y0014464D01*
X0452205Y0014110D01*
X0452058Y0013759D01*
X0451901Y0013412D01*
X0451737Y0013069D01*
X0451564Y0012730D01*
X0451383Y0012395D01*
X0451194Y0012064D01*
X0450997Y0011739D01*
X0450793Y0011418D01*
X0450580Y0011102D01*
X0450360Y0010792D01*
X0450133Y0010486D01*
X0449898Y0010187D01*
X0449656Y0009893D01*
X0449408Y0009605D01*
X0449152Y0009323D01*
X0448889Y0009048D01*
X0448620Y0008779D01*
X0448345Y0008516D01*
X0448063Y0008260D01*
X0447775Y0008012D01*
X0447481Y0007770D01*
X0447182Y0007535D01*
X0446876Y0007308D01*
X0446566Y0007088D01*
X0446250Y0006875D01*
X0445929Y0006671D01*
X0445604Y0006474D01*
X0445273Y0006285D01*
X0444938Y0006104D01*
X0444599Y0005931D01*
X0444256Y0005767D01*
X0443909Y0005610D01*
X0443558Y0005463D01*
X0443204Y0005323D01*
X0442847Y0005193D01*
X0442486Y0005071D01*
X0442123Y0004958D01*
X0441757Y0004853D01*
X0441389Y0004758D01*
X0441018Y0004671D01*
X0440646Y0004593D01*
X0440271Y0004525D01*
X0439895Y0004465D01*
X0439518Y0004415D01*
X0439140Y0004374D01*
X0438761Y0004341D01*
X0438381Y0004318D01*
X0438001Y0004305D01*
X0437620Y0004300D01*
X0075416Y0004300D01*
X0075035Y0004305D01*
X0074655Y0004318D01*
X0074275Y0004341D01*
X0073896Y0004374D01*
X0073518Y0004415D01*
X0073141Y0004465D01*
X0072765Y0004525D01*
X0072390Y0004593D01*
X0072018Y0004671D01*
X0071647Y0004758D01*
X0071279Y0004853D01*
X0070913Y0004958D01*
X0070550Y0005071D01*
X0070189Y0005193D01*
X0069832Y0005323D01*
X0069478Y0005463D01*
X0069127Y0005610D01*
X0068780Y0005767D01*
X0068437Y0005931D01*
X0068098Y0006104D01*
X0067763Y0006285D01*
X0067432Y0006474D01*
X0067107Y0006671D01*
X0066786Y0006875D01*
X0066470Y0007088D01*
X0066160Y0007308D01*
X0065854Y0007535D01*
X0065555Y0007770D01*
X0065261Y0008012D01*
X0064973Y0008260D01*
X0064691Y0008516D01*
X0064416Y0008779D01*
X0064147Y0009048D01*
X0063884Y0009323D01*
X0063628Y0009605D01*
X0063380Y0009893D01*
X0063138Y0010187D01*
X0062903Y0010486D01*
X0062676Y0010792D01*
X0062456Y0011102D01*
X0062243Y0011418D01*
X0062039Y0011739D01*
X0061842Y0012064D01*
X0061653Y0012395D01*
X0061472Y0012730D01*
X0061299Y0013069D01*
X0061135Y0013412D01*
X0060978Y0013759D01*
X0060831Y0014110D01*
X0060691Y0014464D01*
X0060561Y0014821D01*
X0060439Y0015182D01*
X0060326Y0015545D01*
X0060221Y0015911D01*
X0060126Y0016279D01*
X0060039Y0016650D01*
X0059961Y0017022D01*
X0059893Y0017397D01*
X0059833Y0017773D01*
X0059783Y0018150D01*
X0059742Y0018528D01*
X0059709Y0018907D01*
X0059686Y0019287D01*
X0059673Y0019667D01*
X0059668Y0020048D01*
X0068920Y0097942D02*
X0068922Y0098035D01*
X0068928Y0098127D01*
X0068938Y0098219D01*
X0068952Y0098310D01*
X0068969Y0098401D01*
X0068991Y0098491D01*
X0069016Y0098580D01*
X0069045Y0098668D01*
X0069078Y0098754D01*
X0069115Y0098839D01*
X0069155Y0098923D01*
X0069199Y0099004D01*
X0069246Y0099084D01*
X0069296Y0099162D01*
X0069350Y0099237D01*
X0069407Y0099310D01*
X0069467Y0099380D01*
X0069530Y0099448D01*
X0069596Y0099513D01*
X0069664Y0099575D01*
X0069735Y0099635D01*
X0069809Y0099691D01*
X0069885Y0099744D01*
X0069963Y0099793D01*
X0070043Y0099840D01*
X0070125Y0099882D01*
X0070209Y0099922D01*
X0070294Y0099957D01*
X0070381Y0099989D01*
X0070469Y0100018D01*
X0070558Y0100042D01*
X0070648Y0100063D01*
X0070739Y0100079D01*
X0070831Y0100092D01*
X0070923Y0100101D01*
X0071016Y0100106D01*
X0071108Y0100107D01*
X0071201Y0100104D01*
X0071293Y0100097D01*
X0071385Y0100086D01*
X0071476Y0100071D01*
X0071567Y0100053D01*
X0071657Y0100030D01*
X0071745Y0100004D01*
X0071833Y0099974D01*
X0071919Y0099940D01*
X0072003Y0099903D01*
X0072086Y0099861D01*
X0072167Y0099817D01*
X0072247Y0099769D01*
X0072324Y0099718D01*
X0072398Y0099663D01*
X0072471Y0099605D01*
X0072541Y0099545D01*
X0072608Y0099481D01*
X0072672Y0099415D01*
X0072734Y0099345D01*
X0072792Y0099274D01*
X0072847Y0099200D01*
X0072899Y0099123D01*
X0072948Y0099044D01*
X0072994Y0098964D01*
X0073036Y0098881D01*
X0073074Y0098797D01*
X0073109Y0098711D01*
X0073140Y0098624D01*
X0073167Y0098536D01*
X0073190Y0098446D01*
X0073210Y0098356D01*
X0073226Y0098265D01*
X0073238Y0098173D01*
X0073246Y0098081D01*
X0073250Y0097988D01*
X0073250Y0097896D01*
X0073246Y0097803D01*
X0073238Y0097711D01*
X0073226Y0097619D01*
X0073210Y0097528D01*
X0073190Y0097438D01*
X0073167Y0097348D01*
X0073140Y0097260D01*
X0073109Y0097173D01*
X0073074Y0097087D01*
X0073036Y0097003D01*
X0072994Y0096920D01*
X0072948Y0096840D01*
X0072899Y0096761D01*
X0072847Y0096684D01*
X0072792Y0096610D01*
X0072734Y0096539D01*
X0072672Y0096469D01*
X0072608Y0096403D01*
X0072541Y0096339D01*
X0072471Y0096279D01*
X0072398Y0096221D01*
X0072324Y0096166D01*
X0072247Y0096115D01*
X0072168Y0096067D01*
X0072086Y0096023D01*
X0072003Y0095981D01*
X0071919Y0095944D01*
X0071833Y0095910D01*
X0071745Y0095880D01*
X0071657Y0095854D01*
X0071567Y0095831D01*
X0071476Y0095813D01*
X0071385Y0095798D01*
X0071293Y0095787D01*
X0071201Y0095780D01*
X0071108Y0095777D01*
X0071016Y0095778D01*
X0070923Y0095783D01*
X0070831Y0095792D01*
X0070739Y0095805D01*
X0070648Y0095821D01*
X0070558Y0095842D01*
X0070469Y0095866D01*
X0070381Y0095895D01*
X0070294Y0095927D01*
X0070209Y0095962D01*
X0070125Y0096002D01*
X0070043Y0096044D01*
X0069963Y0096091D01*
X0069885Y0096140D01*
X0069809Y0096193D01*
X0069735Y0096249D01*
X0069664Y0096309D01*
X0069596Y0096371D01*
X0069530Y0096436D01*
X0069467Y0096504D01*
X0069407Y0096574D01*
X0069350Y0096647D01*
X0069296Y0096722D01*
X0069246Y0096800D01*
X0069199Y0096880D01*
X0069155Y0096961D01*
X0069115Y0097045D01*
X0069078Y0097130D01*
X0069045Y0097216D01*
X0069016Y0097304D01*
X0068991Y0097393D01*
X0068969Y0097483D01*
X0068952Y0097574D01*
X0068938Y0097665D01*
X0068928Y0097757D01*
X0068922Y0097849D01*
X0068920Y0097942D01*
X0068920Y0115658D02*
X0068922Y0115751D01*
X0068928Y0115843D01*
X0068938Y0115935D01*
X0068952Y0116026D01*
X0068969Y0116117D01*
X0068991Y0116207D01*
X0069016Y0116296D01*
X0069045Y0116384D01*
X0069078Y0116470D01*
X0069115Y0116555D01*
X0069155Y0116639D01*
X0069199Y0116720D01*
X0069246Y0116800D01*
X0069296Y0116878D01*
X0069350Y0116953D01*
X0069407Y0117026D01*
X0069467Y0117096D01*
X0069530Y0117164D01*
X0069596Y0117229D01*
X0069664Y0117291D01*
X0069735Y0117351D01*
X0069809Y0117407D01*
X0069885Y0117460D01*
X0069963Y0117509D01*
X0070043Y0117556D01*
X0070125Y0117598D01*
X0070209Y0117638D01*
X0070294Y0117673D01*
X0070381Y0117705D01*
X0070469Y0117734D01*
X0070558Y0117758D01*
X0070648Y0117779D01*
X0070739Y0117795D01*
X0070831Y0117808D01*
X0070923Y0117817D01*
X0071016Y0117822D01*
X0071108Y0117823D01*
X0071201Y0117820D01*
X0071293Y0117813D01*
X0071385Y0117802D01*
X0071476Y0117787D01*
X0071567Y0117769D01*
X0071657Y0117746D01*
X0071745Y0117720D01*
X0071833Y0117690D01*
X0071919Y0117656D01*
X0072003Y0117619D01*
X0072086Y0117577D01*
X0072167Y0117533D01*
X0072247Y0117485D01*
X0072324Y0117434D01*
X0072398Y0117379D01*
X0072471Y0117321D01*
X0072541Y0117261D01*
X0072608Y0117197D01*
X0072672Y0117131D01*
X0072734Y0117061D01*
X0072792Y0116990D01*
X0072847Y0116916D01*
X0072899Y0116839D01*
X0072948Y0116760D01*
X0072994Y0116680D01*
X0073036Y0116597D01*
X0073074Y0116513D01*
X0073109Y0116427D01*
X0073140Y0116340D01*
X0073167Y0116252D01*
X0073190Y0116162D01*
X0073210Y0116072D01*
X0073226Y0115981D01*
X0073238Y0115889D01*
X0073246Y0115797D01*
X0073250Y0115704D01*
X0073250Y0115612D01*
X0073246Y0115519D01*
X0073238Y0115427D01*
X0073226Y0115335D01*
X0073210Y0115244D01*
X0073190Y0115154D01*
X0073167Y0115064D01*
X0073140Y0114976D01*
X0073109Y0114889D01*
X0073074Y0114803D01*
X0073036Y0114719D01*
X0072994Y0114636D01*
X0072948Y0114556D01*
X0072899Y0114477D01*
X0072847Y0114400D01*
X0072792Y0114326D01*
X0072734Y0114255D01*
X0072672Y0114185D01*
X0072608Y0114119D01*
X0072541Y0114055D01*
X0072471Y0113995D01*
X0072398Y0113937D01*
X0072324Y0113882D01*
X0072247Y0113831D01*
X0072168Y0113783D01*
X0072086Y0113739D01*
X0072003Y0113697D01*
X0071919Y0113660D01*
X0071833Y0113626D01*
X0071745Y0113596D01*
X0071657Y0113570D01*
X0071567Y0113547D01*
X0071476Y0113529D01*
X0071385Y0113514D01*
X0071293Y0113503D01*
X0071201Y0113496D01*
X0071108Y0113493D01*
X0071016Y0113494D01*
X0070923Y0113499D01*
X0070831Y0113508D01*
X0070739Y0113521D01*
X0070648Y0113537D01*
X0070558Y0113558D01*
X0070469Y0113582D01*
X0070381Y0113611D01*
X0070294Y0113643D01*
X0070209Y0113678D01*
X0070125Y0113718D01*
X0070043Y0113760D01*
X0069963Y0113807D01*
X0069885Y0113856D01*
X0069809Y0113909D01*
X0069735Y0113965D01*
X0069664Y0114025D01*
X0069596Y0114087D01*
X0069530Y0114152D01*
X0069467Y0114220D01*
X0069407Y0114290D01*
X0069350Y0114363D01*
X0069296Y0114438D01*
X0069246Y0114516D01*
X0069199Y0114596D01*
X0069155Y0114677D01*
X0069115Y0114761D01*
X0069078Y0114846D01*
X0069045Y0114932D01*
X0069016Y0115020D01*
X0068991Y0115109D01*
X0068969Y0115199D01*
X0068952Y0115290D01*
X0068938Y0115381D01*
X0068928Y0115473D01*
X0068922Y0115565D01*
X0068920Y0115658D01*
X0181911Y0146032D02*
X0181913Y0146116D01*
X0181919Y0146199D01*
X0181929Y0146282D01*
X0181943Y0146365D01*
X0181960Y0146447D01*
X0181982Y0146528D01*
X0182007Y0146607D01*
X0182036Y0146686D01*
X0182069Y0146763D01*
X0182105Y0146838D01*
X0182145Y0146912D01*
X0182188Y0146984D01*
X0182235Y0147053D01*
X0182285Y0147120D01*
X0182338Y0147185D01*
X0182394Y0147247D01*
X0182452Y0147307D01*
X0182514Y0147364D01*
X0182578Y0147417D01*
X0182645Y0147468D01*
X0182714Y0147515D01*
X0182785Y0147560D01*
X0182858Y0147600D01*
X0182933Y0147637D01*
X0183010Y0147671D01*
X0183088Y0147701D01*
X0183167Y0147727D01*
X0183248Y0147750D01*
X0183330Y0147768D01*
X0183412Y0147783D01*
X0183495Y0147794D01*
X0183578Y0147801D01*
X0183662Y0147804D01*
X0183746Y0147803D01*
X0183829Y0147798D01*
X0183913Y0147789D01*
X0183995Y0147776D01*
X0184077Y0147760D01*
X0184158Y0147739D01*
X0184239Y0147715D01*
X0184317Y0147687D01*
X0184395Y0147655D01*
X0184471Y0147619D01*
X0184545Y0147580D01*
X0184617Y0147538D01*
X0184687Y0147492D01*
X0184755Y0147443D01*
X0184820Y0147391D01*
X0184883Y0147336D01*
X0184943Y0147278D01*
X0185001Y0147217D01*
X0185055Y0147153D01*
X0185107Y0147087D01*
X0185155Y0147019D01*
X0185200Y0146948D01*
X0185241Y0146875D01*
X0185280Y0146801D01*
X0185314Y0146725D01*
X0185345Y0146647D01*
X0185372Y0146568D01*
X0185396Y0146487D01*
X0185415Y0146406D01*
X0185431Y0146324D01*
X0185443Y0146241D01*
X0185451Y0146157D01*
X0185455Y0146074D01*
X0185455Y0145990D01*
X0185451Y0145907D01*
X0185443Y0145823D01*
X0185431Y0145740D01*
X0185415Y0145658D01*
X0185396Y0145577D01*
X0185372Y0145496D01*
X0185345Y0145417D01*
X0185314Y0145339D01*
X0185280Y0145263D01*
X0185241Y0145189D01*
X0185200Y0145116D01*
X0185155Y0145045D01*
X0185107Y0144977D01*
X0185055Y0144911D01*
X0185001Y0144847D01*
X0184943Y0144786D01*
X0184883Y0144728D01*
X0184820Y0144673D01*
X0184755Y0144621D01*
X0184687Y0144572D01*
X0184617Y0144526D01*
X0184545Y0144484D01*
X0184471Y0144445D01*
X0184395Y0144409D01*
X0184317Y0144377D01*
X0184239Y0144349D01*
X0184158Y0144325D01*
X0184077Y0144304D01*
X0183995Y0144288D01*
X0183913Y0144275D01*
X0183829Y0144266D01*
X0183746Y0144261D01*
X0183662Y0144260D01*
X0183578Y0144263D01*
X0183495Y0144270D01*
X0183412Y0144281D01*
X0183330Y0144296D01*
X0183248Y0144314D01*
X0183167Y0144337D01*
X0183088Y0144363D01*
X0183010Y0144393D01*
X0182933Y0144427D01*
X0182858Y0144464D01*
X0182785Y0144504D01*
X0182714Y0144549D01*
X0182645Y0144596D01*
X0182578Y0144647D01*
X0182514Y0144700D01*
X0182452Y0144757D01*
X0182394Y0144817D01*
X0182338Y0144879D01*
X0182285Y0144944D01*
X0182235Y0145011D01*
X0182188Y0145080D01*
X0182145Y0145152D01*
X0182105Y0145226D01*
X0182069Y0145301D01*
X0182036Y0145378D01*
X0182007Y0145457D01*
X0181982Y0145536D01*
X0181960Y0145617D01*
X0181943Y0145699D01*
X0181929Y0145782D01*
X0181919Y0145865D01*
X0181913Y0145948D01*
X0181911Y0146032D01*
X0181911Y0157843D02*
X0181913Y0157927D01*
X0181919Y0158010D01*
X0181929Y0158093D01*
X0181943Y0158176D01*
X0181960Y0158258D01*
X0181982Y0158339D01*
X0182007Y0158418D01*
X0182036Y0158497D01*
X0182069Y0158574D01*
X0182105Y0158649D01*
X0182145Y0158723D01*
X0182188Y0158795D01*
X0182235Y0158864D01*
X0182285Y0158931D01*
X0182338Y0158996D01*
X0182394Y0159058D01*
X0182452Y0159118D01*
X0182514Y0159175D01*
X0182578Y0159228D01*
X0182645Y0159279D01*
X0182714Y0159326D01*
X0182785Y0159371D01*
X0182858Y0159411D01*
X0182933Y0159448D01*
X0183010Y0159482D01*
X0183088Y0159512D01*
X0183167Y0159538D01*
X0183248Y0159561D01*
X0183330Y0159579D01*
X0183412Y0159594D01*
X0183495Y0159605D01*
X0183578Y0159612D01*
X0183662Y0159615D01*
X0183746Y0159614D01*
X0183829Y0159609D01*
X0183913Y0159600D01*
X0183995Y0159587D01*
X0184077Y0159571D01*
X0184158Y0159550D01*
X0184239Y0159526D01*
X0184317Y0159498D01*
X0184395Y0159466D01*
X0184471Y0159430D01*
X0184545Y0159391D01*
X0184617Y0159349D01*
X0184687Y0159303D01*
X0184755Y0159254D01*
X0184820Y0159202D01*
X0184883Y0159147D01*
X0184943Y0159089D01*
X0185001Y0159028D01*
X0185055Y0158964D01*
X0185107Y0158898D01*
X0185155Y0158830D01*
X0185200Y0158759D01*
X0185241Y0158686D01*
X0185280Y0158612D01*
X0185314Y0158536D01*
X0185345Y0158458D01*
X0185372Y0158379D01*
X0185396Y0158298D01*
X0185415Y0158217D01*
X0185431Y0158135D01*
X0185443Y0158052D01*
X0185451Y0157968D01*
X0185455Y0157885D01*
X0185455Y0157801D01*
X0185451Y0157718D01*
X0185443Y0157634D01*
X0185431Y0157551D01*
X0185415Y0157469D01*
X0185396Y0157388D01*
X0185372Y0157307D01*
X0185345Y0157228D01*
X0185314Y0157150D01*
X0185280Y0157074D01*
X0185241Y0157000D01*
X0185200Y0156927D01*
X0185155Y0156856D01*
X0185107Y0156788D01*
X0185055Y0156722D01*
X0185001Y0156658D01*
X0184943Y0156597D01*
X0184883Y0156539D01*
X0184820Y0156484D01*
X0184755Y0156432D01*
X0184687Y0156383D01*
X0184617Y0156337D01*
X0184545Y0156295D01*
X0184471Y0156256D01*
X0184395Y0156220D01*
X0184317Y0156188D01*
X0184239Y0156160D01*
X0184158Y0156136D01*
X0184077Y0156115D01*
X0183995Y0156099D01*
X0183913Y0156086D01*
X0183829Y0156077D01*
X0183746Y0156072D01*
X0183662Y0156071D01*
X0183578Y0156074D01*
X0183495Y0156081D01*
X0183412Y0156092D01*
X0183330Y0156107D01*
X0183248Y0156125D01*
X0183167Y0156148D01*
X0183088Y0156174D01*
X0183010Y0156204D01*
X0182933Y0156238D01*
X0182858Y0156275D01*
X0182785Y0156315D01*
X0182714Y0156360D01*
X0182645Y0156407D01*
X0182578Y0156458D01*
X0182514Y0156511D01*
X0182452Y0156568D01*
X0182394Y0156628D01*
X0182338Y0156690D01*
X0182285Y0156755D01*
X0182235Y0156822D01*
X0182188Y0156891D01*
X0182145Y0156963D01*
X0182105Y0157037D01*
X0182069Y0157112D01*
X0182036Y0157189D01*
X0182007Y0157268D01*
X0181982Y0157347D01*
X0181960Y0157428D01*
X0181943Y0157510D01*
X0181929Y0157593D01*
X0181919Y0157676D01*
X0181913Y0157759D01*
X0181911Y0157843D01*
X0430731Y0183434D02*
X0430733Y0183574D01*
X0430739Y0183714D01*
X0430749Y0183853D01*
X0430763Y0183992D01*
X0430781Y0184131D01*
X0430802Y0184269D01*
X0430828Y0184407D01*
X0430858Y0184544D01*
X0430891Y0184679D01*
X0430929Y0184814D01*
X0430970Y0184948D01*
X0431015Y0185081D01*
X0431063Y0185212D01*
X0431116Y0185341D01*
X0431172Y0185470D01*
X0431231Y0185596D01*
X0431295Y0185721D01*
X0431361Y0185844D01*
X0431432Y0185965D01*
X0431505Y0186084D01*
X0431582Y0186201D01*
X0431663Y0186315D01*
X0431746Y0186427D01*
X0431833Y0186537D01*
X0431923Y0186645D01*
X0432015Y0186749D01*
X0432111Y0186851D01*
X0432210Y0186951D01*
X0432311Y0187047D01*
X0432415Y0187141D01*
X0432522Y0187231D01*
X0432631Y0187318D01*
X0432743Y0187403D01*
X0432857Y0187484D01*
X0432973Y0187562D01*
X0433091Y0187636D01*
X0433212Y0187707D01*
X0433334Y0187775D01*
X0433459Y0187839D01*
X0433585Y0187900D01*
X0433712Y0187957D01*
X0433842Y0188010D01*
X0433973Y0188060D01*
X0434105Y0188105D01*
X0434238Y0188148D01*
X0434373Y0188186D01*
X0434508Y0188220D01*
X0434645Y0188251D01*
X0434782Y0188278D01*
X0434920Y0188300D01*
X0435059Y0188319D01*
X0435198Y0188334D01*
X0435337Y0188345D01*
X0435477Y0188352D01*
X0435617Y0188355D01*
X0435757Y0188354D01*
X0435897Y0188349D01*
X0436036Y0188340D01*
X0436176Y0188327D01*
X0436315Y0188310D01*
X0436453Y0188289D01*
X0436591Y0188265D01*
X0436728Y0188236D01*
X0436864Y0188204D01*
X0436999Y0188167D01*
X0437133Y0188127D01*
X0437266Y0188083D01*
X0437397Y0188035D01*
X0437527Y0187984D01*
X0437656Y0187929D01*
X0437783Y0187870D01*
X0437908Y0187807D01*
X0438031Y0187742D01*
X0438153Y0187672D01*
X0438272Y0187599D01*
X0438390Y0187523D01*
X0438505Y0187444D01*
X0438618Y0187361D01*
X0438728Y0187275D01*
X0438836Y0187186D01*
X0438941Y0187094D01*
X0439044Y0186999D01*
X0439144Y0186901D01*
X0439241Y0186801D01*
X0439335Y0186697D01*
X0439427Y0186591D01*
X0439515Y0186483D01*
X0439600Y0186372D01*
X0439682Y0186258D01*
X0439761Y0186142D01*
X0439836Y0186025D01*
X0439908Y0185905D01*
X0439976Y0185783D01*
X0440041Y0185659D01*
X0440103Y0185533D01*
X0440161Y0185406D01*
X0440215Y0185277D01*
X0440266Y0185146D01*
X0440312Y0185014D01*
X0440355Y0184881D01*
X0440395Y0184747D01*
X0440430Y0184612D01*
X0440462Y0184475D01*
X0440489Y0184338D01*
X0440513Y0184200D01*
X0440533Y0184062D01*
X0440549Y0183923D01*
X0440561Y0183783D01*
X0440569Y0183644D01*
X0440573Y0183504D01*
X0440573Y0183364D01*
X0440569Y0183224D01*
X0440561Y0183085D01*
X0440549Y0182945D01*
X0440533Y0182806D01*
X0440513Y0182668D01*
X0440489Y0182530D01*
X0440462Y0182393D01*
X0440430Y0182256D01*
X0440395Y0182121D01*
X0440355Y0181987D01*
X0440312Y0181854D01*
X0440266Y0181722D01*
X0440215Y0181591D01*
X0440161Y0181462D01*
X0440103Y0181335D01*
X0440041Y0181209D01*
X0439976Y0181085D01*
X0439908Y0180963D01*
X0439836Y0180843D01*
X0439761Y0180726D01*
X0439682Y0180610D01*
X0439600Y0180496D01*
X0439515Y0180385D01*
X0439427Y0180277D01*
X0439335Y0180171D01*
X0439241Y0180067D01*
X0439144Y0179967D01*
X0439044Y0179869D01*
X0438941Y0179774D01*
X0438836Y0179682D01*
X0438728Y0179593D01*
X0438618Y0179507D01*
X0438505Y0179424D01*
X0438390Y0179345D01*
X0438272Y0179269D01*
X0438153Y0179196D01*
X0438031Y0179126D01*
X0437908Y0179061D01*
X0437783Y0178998D01*
X0437656Y0178939D01*
X0437527Y0178884D01*
X0437397Y0178833D01*
X0437266Y0178785D01*
X0437133Y0178741D01*
X0436999Y0178701D01*
X0436864Y0178664D01*
X0436728Y0178632D01*
X0436591Y0178603D01*
X0436453Y0178579D01*
X0436315Y0178558D01*
X0436176Y0178541D01*
X0436036Y0178528D01*
X0435897Y0178519D01*
X0435757Y0178514D01*
X0435617Y0178513D01*
X0435477Y0178516D01*
X0435337Y0178523D01*
X0435198Y0178534D01*
X0435059Y0178549D01*
X0434920Y0178568D01*
X0434782Y0178590D01*
X0434645Y0178617D01*
X0434508Y0178648D01*
X0434373Y0178682D01*
X0434238Y0178720D01*
X0434105Y0178763D01*
X0433973Y0178808D01*
X0433842Y0178858D01*
X0433712Y0178911D01*
X0433585Y0178968D01*
X0433459Y0179029D01*
X0433334Y0179093D01*
X0433212Y0179161D01*
X0433091Y0179232D01*
X0432973Y0179306D01*
X0432857Y0179384D01*
X0432743Y0179465D01*
X0432631Y0179550D01*
X0432522Y0179637D01*
X0432415Y0179727D01*
X0432311Y0179821D01*
X0432210Y0179917D01*
X0432111Y0180017D01*
X0432015Y0180119D01*
X0431923Y0180223D01*
X0431833Y0180331D01*
X0431746Y0180441D01*
X0431663Y0180553D01*
X0431582Y0180667D01*
X0431505Y0180784D01*
X0431432Y0180903D01*
X0431361Y0181024D01*
X0431295Y0181147D01*
X0431231Y0181272D01*
X0431172Y0181398D01*
X0431116Y0181527D01*
X0431063Y0181656D01*
X0431015Y0181787D01*
X0430970Y0181920D01*
X0430929Y0182054D01*
X0430891Y0182189D01*
X0430858Y0182324D01*
X0430828Y0182461D01*
X0430802Y0182599D01*
X0430781Y0182737D01*
X0430763Y0182876D01*
X0430749Y0183015D01*
X0430739Y0183154D01*
X0430733Y0183294D01*
X0430731Y0183434D01*
X0431794Y0102725D02*
X0431796Y0102918D01*
X0431803Y0103111D01*
X0431815Y0103304D01*
X0431832Y0103497D01*
X0431853Y0103689D01*
X0431879Y0103880D01*
X0431910Y0104071D01*
X0431945Y0104261D01*
X0431985Y0104450D01*
X0432030Y0104638D01*
X0432079Y0104825D01*
X0432133Y0105011D01*
X0432191Y0105195D01*
X0432254Y0105378D01*
X0432322Y0105559D01*
X0432393Y0105738D01*
X0432470Y0105916D01*
X0432550Y0106092D01*
X0432635Y0106265D01*
X0432724Y0106437D01*
X0432817Y0106606D01*
X0432914Y0106773D01*
X0433016Y0106938D01*
X0433121Y0107100D01*
X0433230Y0107259D01*
X0433344Y0107416D01*
X0433461Y0107569D01*
X0433581Y0107720D01*
X0433706Y0107868D01*
X0433834Y0108013D01*
X0433965Y0108154D01*
X0434100Y0108293D01*
X0434239Y0108428D01*
X0434380Y0108559D01*
X0434525Y0108687D01*
X0434673Y0108812D01*
X0434824Y0108932D01*
X0434977Y0109049D01*
X0435134Y0109163D01*
X0435293Y0109272D01*
X0435455Y0109377D01*
X0435620Y0109479D01*
X0435787Y0109576D01*
X0435956Y0109669D01*
X0436128Y0109758D01*
X0436301Y0109843D01*
X0436477Y0109923D01*
X0436655Y0110000D01*
X0436834Y0110071D01*
X0437015Y0110139D01*
X0437198Y0110202D01*
X0437382Y0110260D01*
X0437568Y0110314D01*
X0437755Y0110363D01*
X0437943Y0110408D01*
X0438132Y0110448D01*
X0438322Y0110483D01*
X0438513Y0110514D01*
X0438704Y0110540D01*
X0438896Y0110561D01*
X0439089Y0110578D01*
X0439282Y0110590D01*
X0439475Y0110597D01*
X0439668Y0110599D01*
X0439861Y0110597D01*
X0440054Y0110590D01*
X0440247Y0110578D01*
X0440440Y0110561D01*
X0440632Y0110540D01*
X0440823Y0110514D01*
X0441014Y0110483D01*
X0441204Y0110448D01*
X0441393Y0110408D01*
X0441581Y0110363D01*
X0441768Y0110314D01*
X0441954Y0110260D01*
X0442138Y0110202D01*
X0442321Y0110139D01*
X0442502Y0110071D01*
X0442681Y0110000D01*
X0442859Y0109923D01*
X0443035Y0109843D01*
X0443208Y0109758D01*
X0443380Y0109669D01*
X0443549Y0109576D01*
X0443716Y0109479D01*
X0443881Y0109377D01*
X0444043Y0109272D01*
X0444202Y0109163D01*
X0444359Y0109049D01*
X0444512Y0108932D01*
X0444663Y0108812D01*
X0444811Y0108687D01*
X0444956Y0108559D01*
X0445097Y0108428D01*
X0445236Y0108293D01*
X0445371Y0108154D01*
X0445502Y0108013D01*
X0445630Y0107868D01*
X0445755Y0107720D01*
X0445875Y0107569D01*
X0445992Y0107416D01*
X0446106Y0107259D01*
X0446215Y0107100D01*
X0446320Y0106938D01*
X0446422Y0106773D01*
X0446519Y0106606D01*
X0446612Y0106437D01*
X0446701Y0106265D01*
X0446786Y0106092D01*
X0446866Y0105916D01*
X0446943Y0105738D01*
X0447014Y0105559D01*
X0447082Y0105378D01*
X0447145Y0105195D01*
X0447203Y0105011D01*
X0447257Y0104825D01*
X0447306Y0104638D01*
X0447351Y0104450D01*
X0447391Y0104261D01*
X0447426Y0104071D01*
X0447457Y0103880D01*
X0447483Y0103689D01*
X0447504Y0103497D01*
X0447521Y0103304D01*
X0447533Y0103111D01*
X0447540Y0102918D01*
X0447542Y0102725D01*
X0447540Y0102532D01*
X0447533Y0102339D01*
X0447521Y0102146D01*
X0447504Y0101953D01*
X0447483Y0101761D01*
X0447457Y0101570D01*
X0447426Y0101379D01*
X0447391Y0101189D01*
X0447351Y0101000D01*
X0447306Y0100812D01*
X0447257Y0100625D01*
X0447203Y0100439D01*
X0447145Y0100255D01*
X0447082Y0100072D01*
X0447014Y0099891D01*
X0446943Y0099712D01*
X0446866Y0099534D01*
X0446786Y0099358D01*
X0446701Y0099185D01*
X0446612Y0099013D01*
X0446519Y0098844D01*
X0446422Y0098677D01*
X0446320Y0098512D01*
X0446215Y0098350D01*
X0446106Y0098191D01*
X0445992Y0098034D01*
X0445875Y0097881D01*
X0445755Y0097730D01*
X0445630Y0097582D01*
X0445502Y0097437D01*
X0445371Y0097296D01*
X0445236Y0097157D01*
X0445097Y0097022D01*
X0444956Y0096891D01*
X0444811Y0096763D01*
X0444663Y0096638D01*
X0444512Y0096518D01*
X0444359Y0096401D01*
X0444202Y0096287D01*
X0444043Y0096178D01*
X0443881Y0096073D01*
X0443716Y0095971D01*
X0443549Y0095874D01*
X0443380Y0095781D01*
X0443208Y0095692D01*
X0443035Y0095607D01*
X0442859Y0095527D01*
X0442681Y0095450D01*
X0442502Y0095379D01*
X0442321Y0095311D01*
X0442138Y0095248D01*
X0441954Y0095190D01*
X0441768Y0095136D01*
X0441581Y0095087D01*
X0441393Y0095042D01*
X0441204Y0095002D01*
X0441014Y0094967D01*
X0440823Y0094936D01*
X0440632Y0094910D01*
X0440440Y0094889D01*
X0440247Y0094872D01*
X0440054Y0094860D01*
X0439861Y0094853D01*
X0439668Y0094851D01*
X0439475Y0094853D01*
X0439282Y0094860D01*
X0439089Y0094872D01*
X0438896Y0094889D01*
X0438704Y0094910D01*
X0438513Y0094936D01*
X0438322Y0094967D01*
X0438132Y0095002D01*
X0437943Y0095042D01*
X0437755Y0095087D01*
X0437568Y0095136D01*
X0437382Y0095190D01*
X0437198Y0095248D01*
X0437015Y0095311D01*
X0436834Y0095379D01*
X0436655Y0095450D01*
X0436477Y0095527D01*
X0436301Y0095607D01*
X0436128Y0095692D01*
X0435956Y0095781D01*
X0435787Y0095874D01*
X0435620Y0095971D01*
X0435455Y0096073D01*
X0435293Y0096178D01*
X0435134Y0096287D01*
X0434977Y0096401D01*
X0434824Y0096518D01*
X0434673Y0096638D01*
X0434525Y0096763D01*
X0434380Y0096891D01*
X0434239Y0097022D01*
X0434100Y0097157D01*
X0433965Y0097296D01*
X0433834Y0097437D01*
X0433706Y0097582D01*
X0433581Y0097730D01*
X0433461Y0097881D01*
X0433344Y0098034D01*
X0433230Y0098191D01*
X0433121Y0098350D01*
X0433016Y0098512D01*
X0432914Y0098677D01*
X0432817Y0098844D01*
X0432724Y0099013D01*
X0432635Y0099185D01*
X0432550Y0099358D01*
X0432470Y0099534D01*
X0432393Y0099712D01*
X0432322Y0099891D01*
X0432254Y0100072D01*
X0432191Y0100255D01*
X0432133Y0100439D01*
X0432079Y0100625D01*
X0432030Y0100812D01*
X0431985Y0101000D01*
X0431945Y0101189D01*
X0431910Y0101379D01*
X0431879Y0101570D01*
X0431853Y0101761D01*
X0431832Y0101953D01*
X0431815Y0102146D01*
X0431803Y0102339D01*
X0431796Y0102532D01*
X0431794Y0102725D01*
X0430731Y0022017D02*
X0430733Y0022157D01*
X0430739Y0022297D01*
X0430749Y0022436D01*
X0430763Y0022575D01*
X0430781Y0022714D01*
X0430802Y0022852D01*
X0430828Y0022990D01*
X0430858Y0023127D01*
X0430891Y0023262D01*
X0430929Y0023397D01*
X0430970Y0023531D01*
X0431015Y0023664D01*
X0431063Y0023795D01*
X0431116Y0023924D01*
X0431172Y0024053D01*
X0431231Y0024179D01*
X0431295Y0024304D01*
X0431361Y0024427D01*
X0431432Y0024548D01*
X0431505Y0024667D01*
X0431582Y0024784D01*
X0431663Y0024898D01*
X0431746Y0025010D01*
X0431833Y0025120D01*
X0431923Y0025228D01*
X0432015Y0025332D01*
X0432111Y0025434D01*
X0432210Y0025534D01*
X0432311Y0025630D01*
X0432415Y0025724D01*
X0432522Y0025814D01*
X0432631Y0025901D01*
X0432743Y0025986D01*
X0432857Y0026067D01*
X0432973Y0026145D01*
X0433091Y0026219D01*
X0433212Y0026290D01*
X0433334Y0026358D01*
X0433459Y0026422D01*
X0433585Y0026483D01*
X0433712Y0026540D01*
X0433842Y0026593D01*
X0433973Y0026643D01*
X0434105Y0026688D01*
X0434238Y0026731D01*
X0434373Y0026769D01*
X0434508Y0026803D01*
X0434645Y0026834D01*
X0434782Y0026861D01*
X0434920Y0026883D01*
X0435059Y0026902D01*
X0435198Y0026917D01*
X0435337Y0026928D01*
X0435477Y0026935D01*
X0435617Y0026938D01*
X0435757Y0026937D01*
X0435897Y0026932D01*
X0436036Y0026923D01*
X0436176Y0026910D01*
X0436315Y0026893D01*
X0436453Y0026872D01*
X0436591Y0026848D01*
X0436728Y0026819D01*
X0436864Y0026787D01*
X0436999Y0026750D01*
X0437133Y0026710D01*
X0437266Y0026666D01*
X0437397Y0026618D01*
X0437527Y0026567D01*
X0437656Y0026512D01*
X0437783Y0026453D01*
X0437908Y0026390D01*
X0438031Y0026325D01*
X0438153Y0026255D01*
X0438272Y0026182D01*
X0438390Y0026106D01*
X0438505Y0026027D01*
X0438618Y0025944D01*
X0438728Y0025858D01*
X0438836Y0025769D01*
X0438941Y0025677D01*
X0439044Y0025582D01*
X0439144Y0025484D01*
X0439241Y0025384D01*
X0439335Y0025280D01*
X0439427Y0025174D01*
X0439515Y0025066D01*
X0439600Y0024955D01*
X0439682Y0024841D01*
X0439761Y0024725D01*
X0439836Y0024608D01*
X0439908Y0024488D01*
X0439976Y0024366D01*
X0440041Y0024242D01*
X0440103Y0024116D01*
X0440161Y0023989D01*
X0440215Y0023860D01*
X0440266Y0023729D01*
X0440312Y0023597D01*
X0440355Y0023464D01*
X0440395Y0023330D01*
X0440430Y0023195D01*
X0440462Y0023058D01*
X0440489Y0022921D01*
X0440513Y0022783D01*
X0440533Y0022645D01*
X0440549Y0022506D01*
X0440561Y0022366D01*
X0440569Y0022227D01*
X0440573Y0022087D01*
X0440573Y0021947D01*
X0440569Y0021807D01*
X0440561Y0021668D01*
X0440549Y0021528D01*
X0440533Y0021389D01*
X0440513Y0021251D01*
X0440489Y0021113D01*
X0440462Y0020976D01*
X0440430Y0020839D01*
X0440395Y0020704D01*
X0440355Y0020570D01*
X0440312Y0020437D01*
X0440266Y0020305D01*
X0440215Y0020174D01*
X0440161Y0020045D01*
X0440103Y0019918D01*
X0440041Y0019792D01*
X0439976Y0019668D01*
X0439908Y0019546D01*
X0439836Y0019426D01*
X0439761Y0019309D01*
X0439682Y0019193D01*
X0439600Y0019079D01*
X0439515Y0018968D01*
X0439427Y0018860D01*
X0439335Y0018754D01*
X0439241Y0018650D01*
X0439144Y0018550D01*
X0439044Y0018452D01*
X0438941Y0018357D01*
X0438836Y0018265D01*
X0438728Y0018176D01*
X0438618Y0018090D01*
X0438505Y0018007D01*
X0438390Y0017928D01*
X0438272Y0017852D01*
X0438153Y0017779D01*
X0438031Y0017709D01*
X0437908Y0017644D01*
X0437783Y0017581D01*
X0437656Y0017522D01*
X0437527Y0017467D01*
X0437397Y0017416D01*
X0437266Y0017368D01*
X0437133Y0017324D01*
X0436999Y0017284D01*
X0436864Y0017247D01*
X0436728Y0017215D01*
X0436591Y0017186D01*
X0436453Y0017162D01*
X0436315Y0017141D01*
X0436176Y0017124D01*
X0436036Y0017111D01*
X0435897Y0017102D01*
X0435757Y0017097D01*
X0435617Y0017096D01*
X0435477Y0017099D01*
X0435337Y0017106D01*
X0435198Y0017117D01*
X0435059Y0017132D01*
X0434920Y0017151D01*
X0434782Y0017173D01*
X0434645Y0017200D01*
X0434508Y0017231D01*
X0434373Y0017265D01*
X0434238Y0017303D01*
X0434105Y0017346D01*
X0433973Y0017391D01*
X0433842Y0017441D01*
X0433712Y0017494D01*
X0433585Y0017551D01*
X0433459Y0017612D01*
X0433334Y0017676D01*
X0433212Y0017744D01*
X0433091Y0017815D01*
X0432973Y0017889D01*
X0432857Y0017967D01*
X0432743Y0018048D01*
X0432631Y0018133D01*
X0432522Y0018220D01*
X0432415Y0018310D01*
X0432311Y0018404D01*
X0432210Y0018500D01*
X0432111Y0018600D01*
X0432015Y0018702D01*
X0431923Y0018806D01*
X0431833Y0018914D01*
X0431746Y0019024D01*
X0431663Y0019136D01*
X0431582Y0019250D01*
X0431505Y0019367D01*
X0431432Y0019486D01*
X0431361Y0019607D01*
X0431295Y0019730D01*
X0431231Y0019855D01*
X0431172Y0019981D01*
X0431116Y0020110D01*
X0431063Y0020239D01*
X0431015Y0020370D01*
X0430970Y0020503D01*
X0430929Y0020637D01*
X0430891Y0020772D01*
X0430858Y0020907D01*
X0430828Y0021044D01*
X0430802Y0021182D01*
X0430781Y0021320D01*
X0430763Y0021459D01*
X0430749Y0021598D01*
X0430739Y0021737D01*
X0430733Y0021877D01*
X0430731Y0022017D01*
D11*
X0410941Y0182000D02*
X0412109Y0183168D01*
X0412109Y0184335D01*
X0410941Y0185503D01*
X0407438Y0185503D01*
X0407438Y0183168D01*
X0408606Y0182000D01*
X0410941Y0182000D01*
X0407438Y0185503D02*
X0409773Y0187838D01*
X0412109Y0189006D01*
X0402775Y0189006D02*
X0402775Y0182000D01*
X0400440Y0182000D02*
X0405111Y0182000D01*
X0400440Y0186671D02*
X0402775Y0189006D01*
X0398113Y0187838D02*
X0393442Y0183168D01*
X0394610Y0182000D01*
X0396945Y0182000D01*
X0398113Y0183168D01*
X0398113Y0187838D01*
X0396945Y0189006D01*
X0394610Y0189006D01*
X0393442Y0187838D01*
X0393442Y0183168D01*
X0391115Y0182000D02*
X0386444Y0182000D01*
X0391115Y0186671D01*
X0391115Y0187838D01*
X0389947Y0189006D01*
X0387612Y0189006D01*
X0386444Y0187838D01*
X0377119Y0187838D02*
X0377119Y0185503D01*
X0375951Y0184335D01*
X0372448Y0184335D01*
X0372448Y0182000D02*
X0372448Y0189006D01*
X0375951Y0189006D01*
X0377119Y0187838D01*
X0374784Y0184335D02*
X0377119Y0182000D01*
X0370121Y0185503D02*
X0370121Y0187838D01*
X0368953Y0189006D01*
X0365450Y0189006D01*
X0365450Y0182000D01*
X0365450Y0184335D02*
X0368953Y0184335D01*
X0370121Y0185503D01*
X0363123Y0186671D02*
X0359620Y0186671D01*
X0358452Y0185503D01*
X0359620Y0184335D01*
X0361955Y0184335D01*
X0363123Y0183168D01*
X0361955Y0182000D01*
X0358452Y0182000D01*
X0356125Y0184335D02*
X0351454Y0184335D01*
X0351454Y0183168D02*
X0351454Y0185503D01*
X0352622Y0186671D01*
X0354957Y0186671D01*
X0356125Y0185503D01*
X0356125Y0184335D01*
X0354957Y0182000D02*
X0352622Y0182000D01*
X0351454Y0183168D01*
X0349127Y0182000D02*
X0345624Y0182000D01*
X0344456Y0183168D01*
X0344456Y0185503D01*
X0345624Y0186671D01*
X0349127Y0186671D01*
X0349127Y0189006D02*
X0349127Y0182000D01*
X0342126Y0182000D02*
X0339791Y0182000D01*
X0340959Y0182000D02*
X0340959Y0186671D01*
X0339791Y0186671D01*
X0337464Y0187838D02*
X0336296Y0189006D01*
X0333961Y0189006D01*
X0332793Y0187838D01*
X0332793Y0186671D01*
X0333961Y0185503D01*
X0336296Y0185503D01*
X0337464Y0184335D01*
X0337464Y0183168D01*
X0336296Y0182000D01*
X0333961Y0182000D01*
X0332793Y0183168D01*
X0330466Y0183168D02*
X0329298Y0182000D01*
X0325795Y0182000D01*
X0325795Y0189006D01*
X0329298Y0189006D01*
X0330466Y0187838D01*
X0330466Y0186671D01*
X0329298Y0185503D01*
X0325795Y0185503D01*
X0329298Y0185503D02*
X0330466Y0184335D01*
X0330466Y0183168D01*
X0340959Y0189006D02*
X0340959Y0190174D01*
D12*
X0342593Y0168178D02*
X0342593Y0165422D01*
X0339837Y0165422D01*
X0339837Y0168178D01*
X0342593Y0168178D01*
X0342593Y0166602D02*
X0339837Y0166602D01*
X0339837Y0167782D02*
X0342593Y0167782D01*
X0349498Y0168178D02*
X0349498Y0165422D01*
X0346742Y0165422D01*
X0346742Y0168178D01*
X0349498Y0168178D01*
X0349498Y0166602D02*
X0346742Y0166602D01*
X0346742Y0167782D02*
X0349498Y0167782D01*
X0362593Y0168178D02*
X0362593Y0165422D01*
X0359837Y0165422D01*
X0359837Y0168178D01*
X0362593Y0168178D01*
X0362593Y0166602D02*
X0359837Y0166602D01*
X0359837Y0167782D02*
X0362593Y0167782D01*
X0369498Y0168178D02*
X0369498Y0165422D01*
X0366742Y0165422D01*
X0366742Y0168178D01*
X0369498Y0168178D01*
X0369498Y0166602D02*
X0366742Y0166602D01*
X0366742Y0167782D02*
X0369498Y0167782D01*
X0382593Y0168178D02*
X0382593Y0165422D01*
X0379837Y0165422D01*
X0379837Y0168178D01*
X0382593Y0168178D01*
X0382593Y0166602D02*
X0379837Y0166602D01*
X0379837Y0167782D02*
X0382593Y0167782D01*
X0389498Y0168178D02*
X0389498Y0165422D01*
X0386742Y0165422D01*
X0386742Y0168178D01*
X0389498Y0168178D01*
X0389498Y0166602D02*
X0386742Y0166602D01*
X0386742Y0167782D02*
X0389498Y0167782D01*
X0402593Y0168178D02*
X0402593Y0165422D01*
X0399837Y0165422D01*
X0399837Y0168178D01*
X0402593Y0168178D01*
X0402593Y0166602D02*
X0399837Y0166602D01*
X0399837Y0167782D02*
X0402593Y0167782D01*
X0409498Y0168178D02*
X0409498Y0165422D01*
X0406742Y0165422D01*
X0406742Y0168178D01*
X0409498Y0168178D01*
X0409498Y0166602D02*
X0406742Y0166602D01*
X0406742Y0167782D02*
X0409498Y0167782D01*
X0422514Y0168178D02*
X0422514Y0165422D01*
X0419758Y0165422D01*
X0419758Y0168178D01*
X0422514Y0168178D01*
X0422514Y0166602D02*
X0419758Y0166602D01*
X0419758Y0167782D02*
X0422514Y0167782D01*
X0429420Y0168178D02*
X0429420Y0165422D01*
X0426664Y0165422D01*
X0426664Y0168178D01*
X0429420Y0168178D01*
X0429420Y0166602D02*
X0426664Y0166602D01*
X0426664Y0167782D02*
X0429420Y0167782D01*
X0429498Y0153178D02*
X0429498Y0150422D01*
X0426742Y0150422D01*
X0426742Y0153178D01*
X0429498Y0153178D01*
X0429498Y0151602D02*
X0426742Y0151602D01*
X0426742Y0152782D02*
X0429498Y0152782D01*
X0422593Y0153178D02*
X0422593Y0150422D01*
X0419837Y0150422D01*
X0419837Y0153178D01*
X0422593Y0153178D01*
X0422593Y0151602D02*
X0419837Y0151602D01*
X0419837Y0152782D02*
X0422593Y0152782D01*
X0409498Y0153178D02*
X0409498Y0150422D01*
X0406742Y0150422D01*
X0406742Y0153178D01*
X0409498Y0153178D01*
X0409498Y0151602D02*
X0406742Y0151602D01*
X0406742Y0152782D02*
X0409498Y0152782D01*
X0402593Y0153178D02*
X0402593Y0150422D01*
X0399837Y0150422D01*
X0399837Y0153178D01*
X0402593Y0153178D01*
X0402593Y0151602D02*
X0399837Y0151602D01*
X0399837Y0152782D02*
X0402593Y0152782D01*
X0389498Y0153178D02*
X0389498Y0150422D01*
X0386742Y0150422D01*
X0386742Y0153178D01*
X0389498Y0153178D01*
X0389498Y0151602D02*
X0386742Y0151602D01*
X0386742Y0152782D02*
X0389498Y0152782D01*
X0382593Y0153178D02*
X0382593Y0150422D01*
X0379837Y0150422D01*
X0379837Y0153178D01*
X0382593Y0153178D01*
X0382593Y0151602D02*
X0379837Y0151602D01*
X0379837Y0152782D02*
X0382593Y0152782D01*
X0369498Y0153178D02*
X0369498Y0150422D01*
X0366742Y0150422D01*
X0366742Y0153178D01*
X0369498Y0153178D01*
X0369498Y0151602D02*
X0366742Y0151602D01*
X0366742Y0152782D02*
X0369498Y0152782D01*
X0362593Y0153178D02*
X0362593Y0150422D01*
X0359837Y0150422D01*
X0359837Y0153178D01*
X0362593Y0153178D01*
X0362593Y0151602D02*
X0359837Y0151602D01*
X0359837Y0152782D02*
X0362593Y0152782D01*
X0349498Y0153178D02*
X0349498Y0150422D01*
X0346742Y0150422D01*
X0346742Y0153178D01*
X0349498Y0153178D01*
X0349498Y0151602D02*
X0346742Y0151602D01*
X0346742Y0152782D02*
X0349498Y0152782D01*
X0342593Y0153178D02*
X0342593Y0150422D01*
X0339837Y0150422D01*
X0339837Y0153178D01*
X0342593Y0153178D01*
X0342593Y0151602D02*
X0339837Y0151602D01*
X0339837Y0152782D02*
X0342593Y0152782D01*
X0329498Y0153178D02*
X0329498Y0150422D01*
X0326742Y0150422D01*
X0326742Y0153178D01*
X0329498Y0153178D01*
X0329498Y0151602D02*
X0326742Y0151602D01*
X0326742Y0152782D02*
X0329498Y0152782D01*
X0322593Y0153178D02*
X0322593Y0150422D01*
X0319837Y0150422D01*
X0319837Y0153178D01*
X0322593Y0153178D01*
X0322593Y0151602D02*
X0319837Y0151602D01*
X0319837Y0152782D02*
X0322593Y0152782D01*
X0309498Y0153178D02*
X0309498Y0150422D01*
X0306742Y0150422D01*
X0306742Y0153178D01*
X0309498Y0153178D01*
X0309498Y0151602D02*
X0306742Y0151602D01*
X0306742Y0152782D02*
X0309498Y0152782D01*
X0302593Y0153178D02*
X0302593Y0150422D01*
X0299837Y0150422D01*
X0299837Y0153178D01*
X0302593Y0153178D01*
X0302593Y0151602D02*
X0299837Y0151602D01*
X0299837Y0152782D02*
X0302593Y0152782D01*
X0289498Y0153178D02*
X0289498Y0150422D01*
X0286742Y0150422D01*
X0286742Y0153178D01*
X0289498Y0153178D01*
X0289498Y0151602D02*
X0286742Y0151602D01*
X0286742Y0152782D02*
X0289498Y0152782D01*
X0282593Y0153178D02*
X0282593Y0150422D01*
X0279837Y0150422D01*
X0279837Y0153178D01*
X0282593Y0153178D01*
X0282593Y0151602D02*
X0279837Y0151602D01*
X0279837Y0152782D02*
X0282593Y0152782D01*
X0282593Y0165422D02*
X0282593Y0168178D01*
X0282593Y0165422D02*
X0279837Y0165422D01*
X0279837Y0168178D01*
X0282593Y0168178D01*
X0282593Y0166602D02*
X0279837Y0166602D01*
X0279837Y0167782D02*
X0282593Y0167782D01*
X0289498Y0168178D02*
X0289498Y0165422D01*
X0286742Y0165422D01*
X0286742Y0168178D01*
X0289498Y0168178D01*
X0289498Y0166602D02*
X0286742Y0166602D01*
X0286742Y0167782D02*
X0289498Y0167782D01*
X0302593Y0168178D02*
X0302593Y0165422D01*
X0299837Y0165422D01*
X0299837Y0168178D01*
X0302593Y0168178D01*
X0302593Y0166602D02*
X0299837Y0166602D01*
X0299837Y0167782D02*
X0302593Y0167782D01*
X0309498Y0168178D02*
X0309498Y0165422D01*
X0306742Y0165422D01*
X0306742Y0168178D01*
X0309498Y0168178D01*
X0309498Y0166602D02*
X0306742Y0166602D01*
X0306742Y0167782D02*
X0309498Y0167782D01*
X0322593Y0168178D02*
X0322593Y0165422D01*
X0319837Y0165422D01*
X0319837Y0168178D01*
X0322593Y0168178D01*
X0322593Y0166602D02*
X0319837Y0166602D01*
X0319837Y0167782D02*
X0322593Y0167782D01*
X0329498Y0168178D02*
X0329498Y0165422D01*
X0326742Y0165422D01*
X0326742Y0168178D01*
X0329498Y0168178D01*
X0329498Y0166602D02*
X0326742Y0166602D01*
X0326742Y0167782D02*
X0329498Y0167782D01*
X0329498Y0138178D02*
X0329498Y0135422D01*
X0326742Y0135422D01*
X0326742Y0138178D01*
X0329498Y0138178D01*
X0329498Y0136602D02*
X0326742Y0136602D01*
X0326742Y0137782D02*
X0329498Y0137782D01*
X0322593Y0138178D02*
X0322593Y0135422D01*
X0319837Y0135422D01*
X0319837Y0138178D01*
X0322593Y0138178D01*
X0322593Y0136602D02*
X0319837Y0136602D01*
X0319837Y0137782D02*
X0322593Y0137782D01*
X0309498Y0138178D02*
X0309498Y0135422D01*
X0306742Y0135422D01*
X0306742Y0138178D01*
X0309498Y0138178D01*
X0309498Y0136602D02*
X0306742Y0136602D01*
X0306742Y0137782D02*
X0309498Y0137782D01*
X0302593Y0138178D02*
X0302593Y0135422D01*
X0299837Y0135422D01*
X0299837Y0138178D01*
X0302593Y0138178D01*
X0302593Y0136602D02*
X0299837Y0136602D01*
X0299837Y0137782D02*
X0302593Y0137782D01*
X0289498Y0138178D02*
X0289498Y0135422D01*
X0286742Y0135422D01*
X0286742Y0138178D01*
X0289498Y0138178D01*
X0289498Y0136602D02*
X0286742Y0136602D01*
X0286742Y0137782D02*
X0289498Y0137782D01*
X0282593Y0138178D02*
X0282593Y0135422D01*
X0279837Y0135422D01*
X0279837Y0138178D01*
X0282593Y0138178D01*
X0282593Y0136602D02*
X0279837Y0136602D01*
X0279837Y0137782D02*
X0282593Y0137782D01*
X0282593Y0123178D02*
X0282593Y0120422D01*
X0279837Y0120422D01*
X0279837Y0123178D01*
X0282593Y0123178D01*
X0282593Y0121602D02*
X0279837Y0121602D01*
X0279837Y0122782D02*
X0282593Y0122782D01*
X0289498Y0123178D02*
X0289498Y0120422D01*
X0286742Y0120422D01*
X0286742Y0123178D01*
X0289498Y0123178D01*
X0289498Y0121602D02*
X0286742Y0121602D01*
X0286742Y0122782D02*
X0289498Y0122782D01*
X0302593Y0123178D02*
X0302593Y0120422D01*
X0299837Y0120422D01*
X0299837Y0123178D01*
X0302593Y0123178D01*
X0302593Y0121602D02*
X0299837Y0121602D01*
X0299837Y0122782D02*
X0302593Y0122782D01*
X0309498Y0123178D02*
X0309498Y0120422D01*
X0306742Y0120422D01*
X0306742Y0123178D01*
X0309498Y0123178D01*
X0309498Y0121602D02*
X0306742Y0121602D01*
X0306742Y0122782D02*
X0309498Y0122782D01*
X0322593Y0123178D02*
X0322593Y0120422D01*
X0319837Y0120422D01*
X0319837Y0123178D01*
X0322593Y0123178D01*
X0322593Y0121602D02*
X0319837Y0121602D01*
X0319837Y0122782D02*
X0322593Y0122782D01*
X0329498Y0123178D02*
X0329498Y0120422D01*
X0326742Y0120422D01*
X0326742Y0123178D01*
X0329498Y0123178D01*
X0329498Y0121602D02*
X0326742Y0121602D01*
X0326742Y0122782D02*
X0329498Y0122782D01*
X0342593Y0123178D02*
X0342593Y0120422D01*
X0339837Y0120422D01*
X0339837Y0123178D01*
X0342593Y0123178D01*
X0342593Y0121602D02*
X0339837Y0121602D01*
X0339837Y0122782D02*
X0342593Y0122782D01*
X0349498Y0123178D02*
X0349498Y0120422D01*
X0346742Y0120422D01*
X0346742Y0123178D01*
X0349498Y0123178D01*
X0349498Y0121602D02*
X0346742Y0121602D01*
X0346742Y0122782D02*
X0349498Y0122782D01*
X0362593Y0123178D02*
X0362593Y0120422D01*
X0359837Y0120422D01*
X0359837Y0123178D01*
X0362593Y0123178D01*
X0362593Y0121602D02*
X0359837Y0121602D01*
X0359837Y0122782D02*
X0362593Y0122782D01*
X0369498Y0123178D02*
X0369498Y0120422D01*
X0366742Y0120422D01*
X0366742Y0123178D01*
X0369498Y0123178D01*
X0369498Y0121602D02*
X0366742Y0121602D01*
X0366742Y0122782D02*
X0369498Y0122782D01*
X0382593Y0123178D02*
X0382593Y0120422D01*
X0379837Y0120422D01*
X0379837Y0123178D01*
X0382593Y0123178D01*
X0382593Y0121602D02*
X0379837Y0121602D01*
X0379837Y0122782D02*
X0382593Y0122782D01*
X0389498Y0123178D02*
X0389498Y0120422D01*
X0386742Y0120422D01*
X0386742Y0123178D01*
X0389498Y0123178D01*
X0389498Y0121602D02*
X0386742Y0121602D01*
X0386742Y0122782D02*
X0389498Y0122782D01*
X0402593Y0123178D02*
X0402593Y0120422D01*
X0399837Y0120422D01*
X0399837Y0123178D01*
X0402593Y0123178D01*
X0402593Y0121602D02*
X0399837Y0121602D01*
X0399837Y0122782D02*
X0402593Y0122782D01*
X0409498Y0123178D02*
X0409498Y0120422D01*
X0406742Y0120422D01*
X0406742Y0123178D01*
X0409498Y0123178D01*
X0409498Y0121602D02*
X0406742Y0121602D01*
X0406742Y0122782D02*
X0409498Y0122782D01*
X0422593Y0123178D02*
X0422593Y0120422D01*
X0419837Y0120422D01*
X0419837Y0123178D01*
X0422593Y0123178D01*
X0422593Y0121602D02*
X0419837Y0121602D01*
X0419837Y0122782D02*
X0422593Y0122782D01*
X0429498Y0123178D02*
X0429498Y0120422D01*
X0426742Y0120422D01*
X0426742Y0123178D01*
X0429498Y0123178D01*
X0429498Y0121602D02*
X0426742Y0121602D01*
X0426742Y0122782D02*
X0429498Y0122782D01*
X0429498Y0135422D02*
X0429498Y0138178D01*
X0429498Y0135422D02*
X0426742Y0135422D01*
X0426742Y0138178D01*
X0429498Y0138178D01*
X0429498Y0136602D02*
X0426742Y0136602D01*
X0426742Y0137782D02*
X0429498Y0137782D01*
X0422593Y0138178D02*
X0422593Y0135422D01*
X0419837Y0135422D01*
X0419837Y0138178D01*
X0422593Y0138178D01*
X0422593Y0136602D02*
X0419837Y0136602D01*
X0419837Y0137782D02*
X0422593Y0137782D01*
X0409498Y0138178D02*
X0409498Y0135422D01*
X0406742Y0135422D01*
X0406742Y0138178D01*
X0409498Y0138178D01*
X0409498Y0136602D02*
X0406742Y0136602D01*
X0406742Y0137782D02*
X0409498Y0137782D01*
X0402593Y0138178D02*
X0402593Y0135422D01*
X0399837Y0135422D01*
X0399837Y0138178D01*
X0402593Y0138178D01*
X0402593Y0136602D02*
X0399837Y0136602D01*
X0399837Y0137782D02*
X0402593Y0137782D01*
X0389498Y0138178D02*
X0389498Y0135422D01*
X0386742Y0135422D01*
X0386742Y0138178D01*
X0389498Y0138178D01*
X0389498Y0136602D02*
X0386742Y0136602D01*
X0386742Y0137782D02*
X0389498Y0137782D01*
X0382593Y0138178D02*
X0382593Y0135422D01*
X0379837Y0135422D01*
X0379837Y0138178D01*
X0382593Y0138178D01*
X0382593Y0136602D02*
X0379837Y0136602D01*
X0379837Y0137782D02*
X0382593Y0137782D01*
X0369498Y0138178D02*
X0369498Y0135422D01*
X0366742Y0135422D01*
X0366742Y0138178D01*
X0369498Y0138178D01*
X0369498Y0136602D02*
X0366742Y0136602D01*
X0366742Y0137782D02*
X0369498Y0137782D01*
X0362593Y0138178D02*
X0362593Y0135422D01*
X0359837Y0135422D01*
X0359837Y0138178D01*
X0362593Y0138178D01*
X0362593Y0136602D02*
X0359837Y0136602D01*
X0359837Y0137782D02*
X0362593Y0137782D01*
X0349498Y0138178D02*
X0349498Y0135422D01*
X0346742Y0135422D01*
X0346742Y0138178D01*
X0349498Y0138178D01*
X0349498Y0136602D02*
X0346742Y0136602D01*
X0346742Y0137782D02*
X0349498Y0137782D01*
X0342593Y0138178D02*
X0342593Y0135422D01*
X0339837Y0135422D01*
X0339837Y0138178D01*
X0342593Y0138178D01*
X0342593Y0136602D02*
X0339837Y0136602D01*
X0339837Y0137782D02*
X0342593Y0137782D01*
X0342593Y0108178D02*
X0342593Y0105422D01*
X0339837Y0105422D01*
X0339837Y0108178D01*
X0342593Y0108178D01*
X0342593Y0106602D02*
X0339837Y0106602D01*
X0339837Y0107782D02*
X0342593Y0107782D01*
X0349498Y0108178D02*
X0349498Y0105422D01*
X0346742Y0105422D01*
X0346742Y0108178D01*
X0349498Y0108178D01*
X0349498Y0106602D02*
X0346742Y0106602D01*
X0346742Y0107782D02*
X0349498Y0107782D01*
X0362593Y0108178D02*
X0362593Y0105422D01*
X0359837Y0105422D01*
X0359837Y0108178D01*
X0362593Y0108178D01*
X0362593Y0106602D02*
X0359837Y0106602D01*
X0359837Y0107782D02*
X0362593Y0107782D01*
X0369498Y0108178D02*
X0369498Y0105422D01*
X0366742Y0105422D01*
X0366742Y0108178D01*
X0369498Y0108178D01*
X0369498Y0106602D02*
X0366742Y0106602D01*
X0366742Y0107782D02*
X0369498Y0107782D01*
X0382593Y0108178D02*
X0382593Y0105422D01*
X0379837Y0105422D01*
X0379837Y0108178D01*
X0382593Y0108178D01*
X0382593Y0106602D02*
X0379837Y0106602D01*
X0379837Y0107782D02*
X0382593Y0107782D01*
X0389498Y0108178D02*
X0389498Y0105422D01*
X0386742Y0105422D01*
X0386742Y0108178D01*
X0389498Y0108178D01*
X0389498Y0106602D02*
X0386742Y0106602D01*
X0386742Y0107782D02*
X0389498Y0107782D01*
X0402593Y0108178D02*
X0402593Y0105422D01*
X0399837Y0105422D01*
X0399837Y0108178D01*
X0402593Y0108178D01*
X0402593Y0106602D02*
X0399837Y0106602D01*
X0399837Y0107782D02*
X0402593Y0107782D01*
X0409498Y0108178D02*
X0409498Y0105422D01*
X0406742Y0105422D01*
X0406742Y0108178D01*
X0409498Y0108178D01*
X0409498Y0106602D02*
X0406742Y0106602D01*
X0406742Y0107782D02*
X0409498Y0107782D01*
X0422593Y0108178D02*
X0422593Y0105422D01*
X0419837Y0105422D01*
X0419837Y0108178D01*
X0422593Y0108178D01*
X0422593Y0106602D02*
X0419837Y0106602D01*
X0419837Y0107782D02*
X0422593Y0107782D01*
X0429498Y0108178D02*
X0429498Y0105422D01*
X0426742Y0105422D01*
X0426742Y0108178D01*
X0429498Y0108178D01*
X0429498Y0106602D02*
X0426742Y0106602D01*
X0426742Y0107782D02*
X0429498Y0107782D01*
X0429498Y0093178D02*
X0429498Y0090422D01*
X0426742Y0090422D01*
X0426742Y0093178D01*
X0429498Y0093178D01*
X0429498Y0091602D02*
X0426742Y0091602D01*
X0426742Y0092782D02*
X0429498Y0092782D01*
X0422593Y0093178D02*
X0422593Y0090422D01*
X0419837Y0090422D01*
X0419837Y0093178D01*
X0422593Y0093178D01*
X0422593Y0091602D02*
X0419837Y0091602D01*
X0419837Y0092782D02*
X0422593Y0092782D01*
X0409498Y0093178D02*
X0409498Y0090422D01*
X0406742Y0090422D01*
X0406742Y0093178D01*
X0409498Y0093178D01*
X0409498Y0091602D02*
X0406742Y0091602D01*
X0406742Y0092782D02*
X0409498Y0092782D01*
X0402593Y0093178D02*
X0402593Y0090422D01*
X0399837Y0090422D01*
X0399837Y0093178D01*
X0402593Y0093178D01*
X0402593Y0091602D02*
X0399837Y0091602D01*
X0399837Y0092782D02*
X0402593Y0092782D01*
X0389498Y0093178D02*
X0389498Y0090422D01*
X0386742Y0090422D01*
X0386742Y0093178D01*
X0389498Y0093178D01*
X0389498Y0091602D02*
X0386742Y0091602D01*
X0386742Y0092782D02*
X0389498Y0092782D01*
X0382593Y0093178D02*
X0382593Y0090422D01*
X0379837Y0090422D01*
X0379837Y0093178D01*
X0382593Y0093178D01*
X0382593Y0091602D02*
X0379837Y0091602D01*
X0379837Y0092782D02*
X0382593Y0092782D01*
X0369498Y0093178D02*
X0369498Y0090422D01*
X0366742Y0090422D01*
X0366742Y0093178D01*
X0369498Y0093178D01*
X0369498Y0091602D02*
X0366742Y0091602D01*
X0366742Y0092782D02*
X0369498Y0092782D01*
X0362593Y0093178D02*
X0362593Y0090422D01*
X0359837Y0090422D01*
X0359837Y0093178D01*
X0362593Y0093178D01*
X0362593Y0091602D02*
X0359837Y0091602D01*
X0359837Y0092782D02*
X0362593Y0092782D01*
X0349498Y0093178D02*
X0349498Y0090422D01*
X0346742Y0090422D01*
X0346742Y0093178D01*
X0349498Y0093178D01*
X0349498Y0091602D02*
X0346742Y0091602D01*
X0346742Y0092782D02*
X0349498Y0092782D01*
X0342593Y0093178D02*
X0342593Y0090422D01*
X0339837Y0090422D01*
X0339837Y0093178D01*
X0342593Y0093178D01*
X0342593Y0091602D02*
X0339837Y0091602D01*
X0339837Y0092782D02*
X0342593Y0092782D01*
X0329498Y0093178D02*
X0329498Y0090422D01*
X0326742Y0090422D01*
X0326742Y0093178D01*
X0329498Y0093178D01*
X0329498Y0091602D02*
X0326742Y0091602D01*
X0326742Y0092782D02*
X0329498Y0092782D01*
X0322593Y0093178D02*
X0322593Y0090422D01*
X0319837Y0090422D01*
X0319837Y0093178D01*
X0322593Y0093178D01*
X0322593Y0091602D02*
X0319837Y0091602D01*
X0319837Y0092782D02*
X0322593Y0092782D01*
X0309498Y0093178D02*
X0309498Y0090422D01*
X0306742Y0090422D01*
X0306742Y0093178D01*
X0309498Y0093178D01*
X0309498Y0091602D02*
X0306742Y0091602D01*
X0306742Y0092782D02*
X0309498Y0092782D01*
X0302593Y0093178D02*
X0302593Y0090422D01*
X0299837Y0090422D01*
X0299837Y0093178D01*
X0302593Y0093178D01*
X0302593Y0091602D02*
X0299837Y0091602D01*
X0299837Y0092782D02*
X0302593Y0092782D01*
X0289498Y0093178D02*
X0289498Y0090422D01*
X0286742Y0090422D01*
X0286742Y0093178D01*
X0289498Y0093178D01*
X0289498Y0091602D02*
X0286742Y0091602D01*
X0286742Y0092782D02*
X0289498Y0092782D01*
X0282593Y0093178D02*
X0282593Y0090422D01*
X0279837Y0090422D01*
X0279837Y0093178D01*
X0282593Y0093178D01*
X0282593Y0091602D02*
X0279837Y0091602D01*
X0279837Y0092782D02*
X0282593Y0092782D01*
X0282593Y0105422D02*
X0282593Y0108178D01*
X0282593Y0105422D02*
X0279837Y0105422D01*
X0279837Y0108178D01*
X0282593Y0108178D01*
X0282593Y0106602D02*
X0279837Y0106602D01*
X0279837Y0107782D02*
X0282593Y0107782D01*
X0289498Y0108178D02*
X0289498Y0105422D01*
X0286742Y0105422D01*
X0286742Y0108178D01*
X0289498Y0108178D01*
X0289498Y0106602D02*
X0286742Y0106602D01*
X0286742Y0107782D02*
X0289498Y0107782D01*
X0302593Y0108178D02*
X0302593Y0105422D01*
X0299837Y0105422D01*
X0299837Y0108178D01*
X0302593Y0108178D01*
X0302593Y0106602D02*
X0299837Y0106602D01*
X0299837Y0107782D02*
X0302593Y0107782D01*
X0309498Y0108178D02*
X0309498Y0105422D01*
X0306742Y0105422D01*
X0306742Y0108178D01*
X0309498Y0108178D01*
X0309498Y0106602D02*
X0306742Y0106602D01*
X0306742Y0107782D02*
X0309498Y0107782D01*
X0322593Y0108178D02*
X0322593Y0105422D01*
X0319837Y0105422D01*
X0319837Y0108178D01*
X0322593Y0108178D01*
X0322593Y0106602D02*
X0319837Y0106602D01*
X0319837Y0107782D02*
X0322593Y0107782D01*
X0329498Y0108178D02*
X0329498Y0105422D01*
X0326742Y0105422D01*
X0326742Y0108178D01*
X0329498Y0108178D01*
X0329498Y0106602D02*
X0326742Y0106602D01*
X0326742Y0107782D02*
X0329498Y0107782D01*
X0329498Y0078178D02*
X0329498Y0075422D01*
X0326742Y0075422D01*
X0326742Y0078178D01*
X0329498Y0078178D01*
X0329498Y0076602D02*
X0326742Y0076602D01*
X0326742Y0077782D02*
X0329498Y0077782D01*
X0322593Y0078178D02*
X0322593Y0075422D01*
X0319837Y0075422D01*
X0319837Y0078178D01*
X0322593Y0078178D01*
X0322593Y0076602D02*
X0319837Y0076602D01*
X0319837Y0077782D02*
X0322593Y0077782D01*
X0309498Y0078178D02*
X0309498Y0075422D01*
X0306742Y0075422D01*
X0306742Y0078178D01*
X0309498Y0078178D01*
X0309498Y0076602D02*
X0306742Y0076602D01*
X0306742Y0077782D02*
X0309498Y0077782D01*
X0302593Y0078178D02*
X0302593Y0075422D01*
X0299837Y0075422D01*
X0299837Y0078178D01*
X0302593Y0078178D01*
X0302593Y0076602D02*
X0299837Y0076602D01*
X0299837Y0077782D02*
X0302593Y0077782D01*
X0289498Y0078178D02*
X0289498Y0075422D01*
X0286742Y0075422D01*
X0286742Y0078178D01*
X0289498Y0078178D01*
X0289498Y0076602D02*
X0286742Y0076602D01*
X0286742Y0077782D02*
X0289498Y0077782D01*
X0282593Y0078178D02*
X0282593Y0075422D01*
X0279837Y0075422D01*
X0279837Y0078178D01*
X0282593Y0078178D01*
X0282593Y0076602D02*
X0279837Y0076602D01*
X0279837Y0077782D02*
X0282593Y0077782D01*
X0282593Y0063178D02*
X0282593Y0060422D01*
X0279837Y0060422D01*
X0279837Y0063178D01*
X0282593Y0063178D01*
X0282593Y0061602D02*
X0279837Y0061602D01*
X0279837Y0062782D02*
X0282593Y0062782D01*
X0289498Y0063178D02*
X0289498Y0060422D01*
X0286742Y0060422D01*
X0286742Y0063178D01*
X0289498Y0063178D01*
X0289498Y0061602D02*
X0286742Y0061602D01*
X0286742Y0062782D02*
X0289498Y0062782D01*
X0302593Y0063178D02*
X0302593Y0060422D01*
X0299837Y0060422D01*
X0299837Y0063178D01*
X0302593Y0063178D01*
X0302593Y0061602D02*
X0299837Y0061602D01*
X0299837Y0062782D02*
X0302593Y0062782D01*
X0309498Y0063178D02*
X0309498Y0060422D01*
X0306742Y0060422D01*
X0306742Y0063178D01*
X0309498Y0063178D01*
X0309498Y0061602D02*
X0306742Y0061602D01*
X0306742Y0062782D02*
X0309498Y0062782D01*
X0322593Y0063178D02*
X0322593Y0060422D01*
X0319837Y0060422D01*
X0319837Y0063178D01*
X0322593Y0063178D01*
X0322593Y0061602D02*
X0319837Y0061602D01*
X0319837Y0062782D02*
X0322593Y0062782D01*
X0329498Y0063178D02*
X0329498Y0060422D01*
X0326742Y0060422D01*
X0326742Y0063178D01*
X0329498Y0063178D01*
X0329498Y0061602D02*
X0326742Y0061602D01*
X0326742Y0062782D02*
X0329498Y0062782D01*
X0342593Y0063178D02*
X0342593Y0060422D01*
X0339837Y0060422D01*
X0339837Y0063178D01*
X0342593Y0063178D01*
X0342593Y0061602D02*
X0339837Y0061602D01*
X0339837Y0062782D02*
X0342593Y0062782D01*
X0349498Y0063178D02*
X0349498Y0060422D01*
X0346742Y0060422D01*
X0346742Y0063178D01*
X0349498Y0063178D01*
X0349498Y0061602D02*
X0346742Y0061602D01*
X0346742Y0062782D02*
X0349498Y0062782D01*
X0362593Y0063178D02*
X0362593Y0060422D01*
X0359837Y0060422D01*
X0359837Y0063178D01*
X0362593Y0063178D01*
X0362593Y0061602D02*
X0359837Y0061602D01*
X0359837Y0062782D02*
X0362593Y0062782D01*
X0369498Y0063178D02*
X0369498Y0060422D01*
X0366742Y0060422D01*
X0366742Y0063178D01*
X0369498Y0063178D01*
X0369498Y0061602D02*
X0366742Y0061602D01*
X0366742Y0062782D02*
X0369498Y0062782D01*
X0382593Y0063178D02*
X0382593Y0060422D01*
X0379837Y0060422D01*
X0379837Y0063178D01*
X0382593Y0063178D01*
X0382593Y0061602D02*
X0379837Y0061602D01*
X0379837Y0062782D02*
X0382593Y0062782D01*
X0389498Y0063178D02*
X0389498Y0060422D01*
X0386742Y0060422D01*
X0386742Y0063178D01*
X0389498Y0063178D01*
X0389498Y0061602D02*
X0386742Y0061602D01*
X0386742Y0062782D02*
X0389498Y0062782D01*
X0402593Y0063178D02*
X0402593Y0060422D01*
X0399837Y0060422D01*
X0399837Y0063178D01*
X0402593Y0063178D01*
X0402593Y0061602D02*
X0399837Y0061602D01*
X0399837Y0062782D02*
X0402593Y0062782D01*
X0409498Y0063178D02*
X0409498Y0060422D01*
X0406742Y0060422D01*
X0406742Y0063178D01*
X0409498Y0063178D01*
X0409498Y0061602D02*
X0406742Y0061602D01*
X0406742Y0062782D02*
X0409498Y0062782D01*
X0422593Y0063178D02*
X0422593Y0060422D01*
X0419837Y0060422D01*
X0419837Y0063178D01*
X0422593Y0063178D01*
X0422593Y0061602D02*
X0419837Y0061602D01*
X0419837Y0062782D02*
X0422593Y0062782D01*
X0429498Y0063178D02*
X0429498Y0060422D01*
X0426742Y0060422D01*
X0426742Y0063178D01*
X0429498Y0063178D01*
X0429498Y0061602D02*
X0426742Y0061602D01*
X0426742Y0062782D02*
X0429498Y0062782D01*
X0429498Y0075422D02*
X0429498Y0078178D01*
X0429498Y0075422D02*
X0426742Y0075422D01*
X0426742Y0078178D01*
X0429498Y0078178D01*
X0429498Y0076602D02*
X0426742Y0076602D01*
X0426742Y0077782D02*
X0429498Y0077782D01*
X0422593Y0078178D02*
X0422593Y0075422D01*
X0419837Y0075422D01*
X0419837Y0078178D01*
X0422593Y0078178D01*
X0422593Y0076602D02*
X0419837Y0076602D01*
X0419837Y0077782D02*
X0422593Y0077782D01*
X0409498Y0078178D02*
X0409498Y0075422D01*
X0406742Y0075422D01*
X0406742Y0078178D01*
X0409498Y0078178D01*
X0409498Y0076602D02*
X0406742Y0076602D01*
X0406742Y0077782D02*
X0409498Y0077782D01*
X0402593Y0078178D02*
X0402593Y0075422D01*
X0399837Y0075422D01*
X0399837Y0078178D01*
X0402593Y0078178D01*
X0402593Y0076602D02*
X0399837Y0076602D01*
X0399837Y0077782D02*
X0402593Y0077782D01*
X0389498Y0078178D02*
X0389498Y0075422D01*
X0386742Y0075422D01*
X0386742Y0078178D01*
X0389498Y0078178D01*
X0389498Y0076602D02*
X0386742Y0076602D01*
X0386742Y0077782D02*
X0389498Y0077782D01*
X0382593Y0078178D02*
X0382593Y0075422D01*
X0379837Y0075422D01*
X0379837Y0078178D01*
X0382593Y0078178D01*
X0382593Y0076602D02*
X0379837Y0076602D01*
X0379837Y0077782D02*
X0382593Y0077782D01*
X0369498Y0078178D02*
X0369498Y0075422D01*
X0366742Y0075422D01*
X0366742Y0078178D01*
X0369498Y0078178D01*
X0369498Y0076602D02*
X0366742Y0076602D01*
X0366742Y0077782D02*
X0369498Y0077782D01*
X0362593Y0078178D02*
X0362593Y0075422D01*
X0359837Y0075422D01*
X0359837Y0078178D01*
X0362593Y0078178D01*
X0362593Y0076602D02*
X0359837Y0076602D01*
X0359837Y0077782D02*
X0362593Y0077782D01*
X0349498Y0078178D02*
X0349498Y0075422D01*
X0346742Y0075422D01*
X0346742Y0078178D01*
X0349498Y0078178D01*
X0349498Y0076602D02*
X0346742Y0076602D01*
X0346742Y0077782D02*
X0349498Y0077782D01*
X0342593Y0078178D02*
X0342593Y0075422D01*
X0339837Y0075422D01*
X0339837Y0078178D01*
X0342593Y0078178D01*
X0342593Y0076602D02*
X0339837Y0076602D01*
X0339837Y0077782D02*
X0342593Y0077782D01*
D13*
X0339668Y0042646D03*
X0349668Y0042646D03*
X0359668Y0042646D03*
X0369668Y0042646D03*
X0379668Y0042646D03*
X0379668Y0035954D03*
X0369668Y0035954D03*
X0359668Y0035954D03*
X0349668Y0035954D03*
X0339668Y0035954D03*
X0329668Y0035954D03*
X0329668Y0042646D03*
X0319668Y0042646D03*
X0309668Y0042646D03*
X0309668Y0035954D03*
X0319668Y0035954D03*
X0169668Y0120954D03*
X0169668Y0127646D03*
X0129668Y0130146D03*
X0129668Y0123454D03*
X0129038Y0101623D03*
X0129038Y0094930D03*
X0082168Y0075146D03*
X0082168Y0068454D03*
X0067168Y0052646D03*
X0067168Y0045954D03*
X0067168Y0035146D03*
X0067168Y0028454D03*
X0154668Y0157922D03*
X0154668Y0164615D03*
X0104668Y0185954D03*
X0104668Y0192646D03*
X0082168Y0192646D03*
X0082168Y0185954D03*
D14*
X0112168Y0123800D03*
X0112168Y0104800D03*
X0084668Y0048800D03*
X0084668Y0029800D03*
D15*
X0102168Y0026300D03*
X0107168Y0026300D03*
X0112168Y0026300D03*
X0117168Y0026300D03*
X0122168Y0026300D03*
X0127168Y0026300D03*
X0132168Y0026300D03*
X0137168Y0026300D03*
X0137168Y0047300D03*
X0132168Y0047300D03*
X0127168Y0047300D03*
X0122168Y0047300D03*
X0117168Y0047300D03*
X0112168Y0047300D03*
X0107168Y0047300D03*
X0102168Y0047300D03*
D16*
X0080928Y0093020D03*
X0080928Y0102363D03*
X0080928Y0111237D03*
X0080928Y0120580D03*
D17*
X0071479Y0129635D03*
X0071479Y0083965D03*
D18*
X0075568Y0169200D03*
X0084568Y0169200D03*
X0093568Y0169200D03*
D19*
X0084668Y0144400D03*
D20*
X0092168Y0185757D03*
X0092168Y0192843D03*
X0114668Y0192843D03*
X0114668Y0185757D03*
D21*
X0138152Y0125787D03*
X0140711Y0125787D03*
X0143270Y0125787D03*
X0145829Y0125787D03*
X0148388Y0125787D03*
X0150947Y0125787D03*
X0153506Y0125787D03*
X0156065Y0125787D03*
X0158624Y0125787D03*
X0161183Y0125787D03*
X0161183Y0102813D03*
X0158624Y0102813D03*
X0156065Y0102813D03*
X0153506Y0102813D03*
X0150947Y0102813D03*
X0148388Y0102813D03*
X0145829Y0102813D03*
X0143270Y0102813D03*
X0140711Y0102813D03*
X0138152Y0102813D03*
D22*
X0217168Y0065324D03*
X0222168Y0065324D03*
X0227168Y0065324D03*
X0232168Y0065324D03*
X0237168Y0065324D03*
X0242168Y0065324D03*
X0247168Y0065324D03*
X0252168Y0065324D03*
X0252168Y0043276D03*
X0247168Y0043276D03*
X0242168Y0043276D03*
X0237168Y0043276D03*
X0232168Y0043276D03*
X0227168Y0043276D03*
X0222168Y0043276D03*
X0217168Y0043276D03*
X0217168Y0158276D03*
X0222168Y0158276D03*
X0227168Y0158276D03*
X0232168Y0158276D03*
X0237168Y0158276D03*
X0242168Y0158276D03*
X0247168Y0158276D03*
X0252168Y0158276D03*
X0252168Y0180324D03*
X0247168Y0180324D03*
X0242168Y0180324D03*
X0237168Y0180324D03*
X0232168Y0180324D03*
X0227168Y0180324D03*
X0222168Y0180324D03*
X0217168Y0180324D03*
D23*
X0204668Y0155300D03*
X0189668Y0155300D03*
X0189668Y0133300D03*
X0204668Y0133300D03*
X0197168Y0120300D03*
X0182168Y0120300D03*
X0217168Y0120300D03*
X0232168Y0120300D03*
X0232168Y0098300D03*
X0217168Y0098300D03*
X0197168Y0098300D03*
X0182168Y0098300D03*
X0187010Y0082800D03*
X0202010Y0082800D03*
X0202010Y0060800D03*
X0187010Y0060800D03*
D24*
X0189668Y0022300D02*
X0189668Y0016300D01*
X0179668Y0016300D02*
X0179668Y0022300D01*
X0169668Y0022300D02*
X0169668Y0016300D01*
X0159668Y0016300D02*
X0159668Y0022300D01*
X0149668Y0022300D02*
X0149668Y0016300D01*
X0436983Y0045717D02*
X0442983Y0045717D01*
X0442983Y0055717D02*
X0436983Y0055717D01*
X0436983Y0065717D02*
X0442983Y0065717D01*
X0442983Y0075717D02*
X0436983Y0075717D01*
X0436983Y0085717D02*
X0442983Y0085717D01*
X0442983Y0121308D02*
X0436983Y0121308D01*
X0436983Y0131308D02*
X0442983Y0131308D01*
X0442983Y0141308D02*
X0436983Y0141308D01*
X0436983Y0151308D02*
X0442983Y0151308D01*
X0442983Y0161308D02*
X0436983Y0161308D01*
X0314668Y0186300D02*
X0314668Y0192300D01*
X0304668Y0192300D02*
X0304668Y0186300D01*
X0294668Y0186300D02*
X0294668Y0192300D01*
X0284668Y0192300D02*
X0284668Y0186300D01*
D25*
X0100908Y0084419D03*
X0097168Y0084419D03*
X0093428Y0084419D03*
X0093428Y0074181D03*
X0097168Y0074181D03*
X0100908Y0074181D03*
D26*
X0138821Y0074300D03*
X0145514Y0074300D03*
D27*
X0175022Y0171229D03*
X0175022Y0176465D03*
X0175022Y0181741D03*
X0175022Y0186977D03*
X0194707Y0186977D03*
X0194707Y0181741D03*
X0194707Y0176465D03*
X0194707Y0171229D03*
D28*
X0194707Y0171229D01*
X0194707Y0167779D01*
X0191917Y0167779D01*
X0191720Y0167832D01*
X0192842Y0166149D01*
X0208578Y0166149D01*
X0209214Y0166785D01*
X0210530Y0167330D01*
X0211955Y0167330D01*
X0213271Y0166785D01*
X0214278Y0165777D01*
X0214824Y0164461D01*
X0214824Y0163036D01*
X0214278Y0161720D01*
X0213271Y0160713D01*
X0211955Y0160168D01*
X0210530Y0160168D01*
X0209214Y0160713D01*
X0208578Y0161349D01*
X0191793Y0161349D01*
X0191555Y0161302D01*
X0191320Y0161349D01*
X0191080Y0161349D01*
X0190856Y0161442D01*
X0190619Y0161489D01*
X0190419Y0161622D01*
X0190198Y0161714D01*
X0190027Y0161886D01*
X0189825Y0162020D01*
X0189692Y0162220D01*
X0189523Y0162389D01*
X0189430Y0162613D01*
X0185755Y0168125D01*
X0185586Y0168295D01*
X0185493Y0168519D01*
X0185359Y0168720D01*
X0185312Y0168955D01*
X0185220Y0169177D01*
X0185220Y0169419D01*
X0185193Y0169560D01*
X0170063Y0146865D01*
X0169970Y0146641D01*
X0169801Y0146472D01*
X0169795Y0146464D01*
X0176287Y0146464D01*
X0177169Y0146098D01*
X0183496Y0139771D01*
X0184396Y0139771D01*
X0185712Y0139226D01*
X0186719Y0138218D01*
X0186960Y0137638D01*
X0187268Y0137946D01*
X0187268Y0144307D01*
X0187050Y0143783D01*
X0185933Y0142665D01*
X0184473Y0142061D01*
X0182893Y0142061D01*
X0181434Y0142665D01*
X0180316Y0143783D01*
X0179712Y0145242D01*
X0179712Y0146822D01*
X0180316Y0148282D01*
X0181434Y0149399D01*
X0182893Y0150004D01*
X0184473Y0150004D01*
X0185933Y0149399D01*
X0187050Y0148282D01*
X0187268Y0147758D01*
X0187268Y0150654D01*
X0186368Y0151554D01*
X0186368Y0154911D01*
X0185933Y0154476D01*
X0184473Y0153872D01*
X0182893Y0153872D01*
X0181434Y0154476D01*
X0180316Y0155594D01*
X0179712Y0157053D01*
X0179712Y0158633D01*
X0180316Y0160093D01*
X0181434Y0161210D01*
X0182893Y0161815D01*
X0184473Y0161815D01*
X0185933Y0161210D01*
X0187050Y0160093D01*
X0187157Y0159835D01*
X0187422Y0160100D01*
X0191913Y0160100D01*
X0192968Y0159046D01*
X0192968Y0151554D01*
X0192068Y0150654D01*
X0192068Y0137946D01*
X0192968Y0137046D01*
X0192968Y0129554D01*
X0192948Y0129535D01*
X0201095Y0129535D01*
X0200968Y0130010D01*
X0200968Y0133300D01*
X0204668Y0133300D01*
X0208368Y0133300D01*
X0208368Y0136590D01*
X0208218Y0137149D01*
X0207928Y0137651D01*
X0207519Y0138060D01*
X0207017Y0138350D01*
X0206457Y0138500D01*
X0204668Y0138500D01*
X0204668Y0133300D01*
X0204668Y0133300D01*
X0208368Y0133300D01*
X0208368Y0130010D01*
X0208240Y0129535D01*
X0210810Y0129535D01*
X0211693Y0129169D01*
X0215762Y0125100D01*
X0219413Y0125100D01*
X0220468Y0124046D01*
X0220468Y0116554D01*
X0219568Y0115654D01*
X0219568Y0102946D01*
X0220468Y0102046D01*
X0220468Y0094554D01*
X0219413Y0093500D01*
X0214922Y0093500D01*
X0213868Y0094554D01*
X0213868Y0102046D01*
X0214768Y0102946D01*
X0214768Y0115654D01*
X0213868Y0116554D01*
X0213868Y0120206D01*
X0209339Y0124735D01*
X0200344Y0124735D01*
X0200428Y0124651D01*
X0200718Y0124149D01*
X0200868Y0123590D01*
X0200868Y0120300D01*
X0197168Y0120300D01*
X0197168Y0120300D01*
X0200868Y0120300D01*
X0200868Y0117010D01*
X0200718Y0116451D01*
X0200428Y0115949D01*
X0200019Y0115540D01*
X0199517Y0115250D01*
X0198957Y0115100D01*
X0197168Y0115100D01*
X0197168Y0120300D01*
X0197168Y0120300D01*
X0197168Y0115100D01*
X0195378Y0115100D01*
X0194819Y0115250D01*
X0194317Y0115540D01*
X0193907Y0115949D01*
X0193618Y0116451D01*
X0193468Y0117010D01*
X0193468Y0120300D01*
X0197168Y0120300D01*
X0197168Y0120300D01*
X0193468Y0120300D01*
X0193468Y0123590D01*
X0193618Y0124149D01*
X0193907Y0124651D01*
X0193991Y0124735D01*
X0184779Y0124735D01*
X0185468Y0124046D01*
X0185468Y0116554D01*
X0184568Y0115654D01*
X0184568Y0102946D01*
X0185468Y0102046D01*
X0185468Y0094554D01*
X0184413Y0093500D01*
X0179922Y0093500D01*
X0178868Y0094554D01*
X0178868Y0102046D01*
X0179768Y0102946D01*
X0179768Y0114506D01*
X0179732Y0114470D01*
X0178850Y0114105D01*
X0163024Y0114105D01*
X0157484Y0108565D01*
X0156602Y0108199D01*
X0149245Y0108199D01*
X0148229Y0107184D01*
X0148229Y0106963D01*
X0148388Y0106963D01*
X0148388Y0102813D01*
X0148388Y0102813D01*
X0148388Y0106963D01*
X0149278Y0106963D01*
X0149837Y0106813D01*
X0150270Y0106563D01*
X0162529Y0106563D01*
X0163583Y0105508D01*
X0163583Y0062838D01*
X0163218Y0061956D01*
X0159568Y0058306D01*
X0159568Y0051964D01*
X0160204Y0051329D01*
X0160749Y0050012D01*
X0160749Y0048588D01*
X0160204Y0047271D01*
X0159196Y0046264D01*
X0157880Y0045719D01*
X0156455Y0045719D01*
X0155139Y0046264D01*
X0154668Y0046736D01*
X0154196Y0046264D01*
X0152880Y0045719D01*
X0151455Y0045719D01*
X0150139Y0046264D01*
X0149132Y0047271D01*
X0148587Y0048588D01*
X0148587Y0050012D01*
X0149132Y0051329D01*
X0149768Y0051964D01*
X0149768Y0059777D01*
X0150133Y0060659D01*
X0156224Y0066751D01*
X0156224Y0067463D01*
X0151027Y0062265D01*
X0150145Y0061900D01*
X0147132Y0061900D01*
X0147704Y0061329D01*
X0148249Y0060012D01*
X0148249Y0058588D01*
X0147704Y0057271D01*
X0147068Y0056636D01*
X0147068Y0051964D01*
X0147704Y0051329D01*
X0148249Y0050012D01*
X0148249Y0048588D01*
X0147704Y0047271D01*
X0146696Y0046264D01*
X0145380Y0045719D01*
X0143955Y0045719D01*
X0142639Y0046264D01*
X0141632Y0047271D01*
X0141087Y0048588D01*
X0141087Y0050012D01*
X0141632Y0051329D01*
X0142268Y0051964D01*
X0142268Y0056636D01*
X0141632Y0057271D01*
X0141087Y0058588D01*
X0141087Y0060012D01*
X0141632Y0061329D01*
X0142203Y0061900D01*
X0138452Y0061900D01*
X0134568Y0056073D01*
X0134568Y0052061D01*
X0135069Y0052350D01*
X0135628Y0052500D01*
X0137168Y0052500D01*
X0137168Y0047300D01*
X0140618Y0047300D01*
X0140618Y0050590D01*
X0140468Y0051149D01*
X0140178Y0051651D01*
X0139769Y0052060D01*
X0139267Y0052350D01*
X0138707Y0052500D01*
X0137168Y0052500D01*
X0137168Y0047300D01*
X0137168Y0047300D01*
X0140618Y0047300D01*
X0140618Y0044010D01*
X0140468Y0043451D01*
X0140178Y0042949D01*
X0139769Y0042540D01*
X0139267Y0042250D01*
X0138707Y0042100D01*
X0137168Y0042100D01*
X0137168Y0047300D01*
X0137168Y0047300D01*
X0137168Y0047300D01*
X0137168Y0042100D01*
X0135628Y0042100D01*
X0135069Y0042250D01*
X0134567Y0042540D01*
X0134385Y0042722D01*
X0134163Y0042500D01*
X0130172Y0042500D01*
X0129668Y0043004D01*
X0129163Y0042500D01*
X0125568Y0042500D01*
X0125568Y0040708D01*
X0126076Y0040200D01*
X0134547Y0040200D01*
X0135101Y0040239D01*
X0135219Y0040200D01*
X0135344Y0040200D01*
X0135857Y0039987D01*
X0136384Y0039812D01*
X0136479Y0039730D01*
X0136594Y0039682D01*
X0136986Y0039290D01*
X0137406Y0038925D01*
X0137462Y0038814D01*
X0137550Y0038726D01*
X0137763Y0038213D01*
X0139269Y0035200D01*
X0185759Y0035200D01*
X0191268Y0040708D01*
X0191268Y0069257D01*
X0191252Y0069889D01*
X0191268Y0069931D01*
X0191268Y0069976D01*
X0191510Y0070561D01*
X0191737Y0071152D01*
X0191768Y0071184D01*
X0191785Y0071226D01*
X0192233Y0071673D01*
X0192669Y0072132D01*
X0192710Y0072151D01*
X0192742Y0072182D01*
X0193327Y0072425D01*
X0213535Y0081406D01*
X0213639Y0081658D01*
X0214810Y0082829D01*
X0216340Y0083462D01*
X0217996Y0083462D01*
X0219525Y0082829D01*
X0220696Y0081658D01*
X0221330Y0080128D01*
X0221330Y0078472D01*
X0220696Y0076942D01*
X0220168Y0076414D01*
X0220168Y0069412D01*
X0220241Y0069486D01*
X0224094Y0069486D01*
X0224568Y0069012D01*
X0224568Y0082317D01*
X0224964Y0083273D01*
X0242464Y0100773D01*
X0243195Y0101504D01*
X0244151Y0101900D01*
X0248591Y0101900D01*
X0257068Y0110377D01*
X0257068Y0154309D01*
X0256616Y0154761D01*
X0256068Y0156084D01*
X0256068Y0157516D01*
X0256616Y0158839D01*
X0257628Y0159852D01*
X0258952Y0160400D01*
X0260384Y0160400D01*
X0261551Y0159916D01*
X0261068Y0161084D01*
X0261068Y0162516D01*
X0261616Y0163839D01*
X0261977Y0164200D01*
X0232352Y0164200D01*
X0232023Y0164153D01*
X0231840Y0164200D01*
X0231651Y0164200D01*
X0231343Y0164327D01*
X0231021Y0164410D01*
X0230870Y0164523D01*
X0230695Y0164596D01*
X0230460Y0164831D01*
X0220870Y0172023D01*
X0220695Y0172096D01*
X0220460Y0172331D01*
X0220194Y0172530D01*
X0220097Y0172693D01*
X0219964Y0172827D01*
X0219836Y0173134D01*
X0219667Y0173420D01*
X0219640Y0173608D01*
X0219568Y0173783D01*
X0219568Y0174115D01*
X0219521Y0174444D01*
X0219568Y0174628D01*
X0219568Y0176635D01*
X0219094Y0176161D01*
X0215241Y0176161D01*
X0214187Y0177216D01*
X0214187Y0178465D01*
X0209729Y0178465D01*
X0207668Y0176404D01*
X0207668Y0174686D01*
X0208196Y0174158D01*
X0208830Y0172628D01*
X0208830Y0170972D01*
X0208196Y0169442D01*
X0207025Y0168271D01*
X0205496Y0167638D01*
X0203840Y0167638D01*
X0202310Y0168271D01*
X0201139Y0169442D01*
X0200506Y0170972D01*
X0200506Y0172628D01*
X0200549Y0172734D01*
X0200323Y0172960D01*
X0199356Y0172960D01*
X0199407Y0172769D01*
X0199407Y0171229D01*
X0194707Y0171229D01*
X0194707Y0167779D01*
X0197497Y0167779D01*
X0198056Y0167929D01*
X0198558Y0168219D01*
X0198968Y0168628D01*
X0199257Y0169130D01*
X0199407Y0169689D01*
X0199407Y0171229D01*
X0194707Y0171229D01*
X0194707Y0171229D01*
X0194707Y0169797D02*
X0194707Y0169797D01*
X0192009Y0167399D02*
X0227036Y0167399D01*
X0223838Y0169797D02*
X0208343Y0169797D01*
X0208830Y0172196D02*
X0220595Y0172196D01*
X0219559Y0174594D02*
X0207760Y0174594D01*
X0208257Y0176993D02*
X0214410Y0176993D01*
X0217168Y0180324D02*
X0216026Y0181465D01*
X0208487Y0181465D01*
X0205928Y0178906D01*
X0204668Y0177646D01*
X0204668Y0171800D01*
X0200506Y0172196D02*
X0199407Y0172196D01*
X0199407Y0169797D02*
X0200992Y0169797D01*
X0187839Y0165000D02*
X0182153Y0165000D01*
X0180554Y0162602D02*
X0189435Y0162602D01*
X0186940Y0160203D02*
X0202064Y0160203D01*
X0201817Y0160060D02*
X0201407Y0159651D01*
X0201118Y0159149D01*
X0200968Y0158590D01*
X0200968Y0155300D01*
X0200968Y0152010D01*
X0201118Y0151451D01*
X0201407Y0150949D01*
X0201817Y0150540D01*
X0202319Y0150250D01*
X0202878Y0150100D01*
X0204668Y0150100D01*
X0206457Y0150100D01*
X0207017Y0150250D01*
X0207519Y0150540D01*
X0207928Y0150949D01*
X0208218Y0151451D01*
X0208368Y0152010D01*
X0208368Y0155300D01*
X0208368Y0158590D01*
X0208218Y0159149D01*
X0207928Y0159651D01*
X0207519Y0160060D01*
X0207017Y0160350D01*
X0206457Y0160500D01*
X0204668Y0160500D01*
X0204668Y0155300D01*
X0208368Y0155300D01*
X0204668Y0155300D01*
X0204668Y0155300D01*
X0204668Y0155300D01*
X0204668Y0150100D01*
X0204668Y0155300D01*
X0204668Y0155300D01*
X0204668Y0160500D01*
X0202878Y0160500D01*
X0202319Y0160350D01*
X0201817Y0160060D01*
X0200968Y0157805D02*
X0192968Y0157805D01*
X0192968Y0155406D02*
X0200968Y0155406D01*
X0200968Y0155300D02*
X0204668Y0155300D01*
X0200968Y0155300D01*
X0200968Y0153008D02*
X0192968Y0153008D01*
X0192068Y0150609D02*
X0201747Y0150609D01*
X0204668Y0150609D02*
X0204668Y0150609D01*
X0207588Y0150609D02*
X0213813Y0150609D01*
X0213568Y0150016D02*
X0213568Y0148584D01*
X0214116Y0147261D01*
X0215128Y0146248D01*
X0216452Y0145700D01*
X0217884Y0145700D01*
X0219051Y0146184D01*
X0218568Y0145016D01*
X0218568Y0143584D01*
X0219116Y0142261D01*
X0220128Y0141248D01*
X0221452Y0140700D01*
X0222884Y0140700D01*
X0224051Y0141184D01*
X0223568Y0140016D01*
X0223568Y0138584D01*
X0224116Y0137261D01*
X0225128Y0136248D01*
X0226452Y0135700D01*
X0227884Y0135700D01*
X0229051Y0136184D01*
X0228568Y0135016D01*
X0228568Y0133584D01*
X0229116Y0132261D01*
X0230128Y0131248D01*
X0231452Y0130700D01*
X0232884Y0130700D01*
X0234051Y0131184D01*
X0233568Y0130016D01*
X0233568Y0128584D01*
X0234116Y0127261D01*
X0235128Y0126248D01*
X0236452Y0125700D01*
X0237884Y0125700D01*
X0239051Y0126184D01*
X0238568Y0125016D01*
X0238568Y0123584D01*
X0239116Y0122261D01*
X0240128Y0121248D01*
X0241452Y0120700D01*
X0242884Y0120700D01*
X0244051Y0121184D01*
X0243568Y0120016D01*
X0243568Y0118584D01*
X0244116Y0117261D01*
X0245128Y0116248D01*
X0246452Y0115700D01*
X0247884Y0115700D01*
X0249207Y0116248D01*
X0250220Y0117261D01*
X0250768Y0118584D01*
X0250768Y0120016D01*
X0250220Y0121339D01*
X0249768Y0121791D01*
X0249768Y0154078D01*
X0250137Y0153864D01*
X0250697Y0153714D01*
X0252168Y0153714D01*
X0253638Y0153714D01*
X0254198Y0153864D01*
X0254700Y0154154D01*
X0255109Y0154563D01*
X0255399Y0155065D01*
X0255549Y0155625D01*
X0255549Y0158276D01*
X0252168Y0158276D01*
X0252168Y0153714D01*
X0252168Y0158276D01*
X0252168Y0158276D01*
X0252168Y0158276D01*
X0255549Y0158276D01*
X0255549Y0160928D01*
X0255399Y0161488D01*
X0255109Y0161989D01*
X0254700Y0162399D01*
X0254198Y0162689D01*
X0253638Y0162839D01*
X0252168Y0162839D01*
X0252168Y0158277D01*
X0252168Y0158277D01*
X0252168Y0162839D01*
X0250697Y0162839D01*
X0250137Y0162689D01*
X0249636Y0162399D01*
X0249385Y0162148D01*
X0249094Y0162439D01*
X0245241Y0162439D01*
X0244668Y0161865D01*
X0244094Y0162439D01*
X0240241Y0162439D01*
X0239668Y0161865D01*
X0239094Y0162439D01*
X0235241Y0162439D01*
X0234668Y0161865D01*
X0234094Y0162439D01*
X0230241Y0162439D01*
X0229668Y0161865D01*
X0229094Y0162439D01*
X0225241Y0162439D01*
X0224668Y0161865D01*
X0224094Y0162439D01*
X0220241Y0162439D01*
X0219668Y0161865D01*
X0219094Y0162439D01*
X0215241Y0162439D01*
X0214187Y0161384D01*
X0214187Y0155169D01*
X0214568Y0154787D01*
X0214568Y0151791D01*
X0214116Y0151339D01*
X0213568Y0150016D01*
X0213722Y0148211D02*
X0192068Y0148211D01*
X0192068Y0145812D02*
X0216181Y0145812D01*
X0218155Y0145812D02*
X0218897Y0145812D01*
X0218638Y0143414D02*
X0192068Y0143414D01*
X0192068Y0141015D02*
X0220691Y0141015D01*
X0223645Y0141015D02*
X0223982Y0141015D01*
X0223568Y0138617D02*
X0192068Y0138617D01*
X0187268Y0138617D02*
X0186321Y0138617D01*
X0187268Y0141015D02*
X0182252Y0141015D01*
X0180685Y0143414D02*
X0179854Y0143414D01*
X0179712Y0145812D02*
X0177455Y0145812D01*
X0180287Y0148211D02*
X0170960Y0148211D01*
X0172559Y0150609D02*
X0187268Y0150609D01*
X0187268Y0148211D02*
X0187080Y0148211D01*
X0187268Y0143414D02*
X0186682Y0143414D01*
X0201118Y0137149D02*
X0200968Y0136590D01*
X0200968Y0133300D01*
X0204668Y0133300D01*
X0204668Y0133300D01*
X0204668Y0138500D01*
X0202878Y0138500D01*
X0202319Y0138350D01*
X0201817Y0138060D01*
X0201407Y0137651D01*
X0201118Y0137149D01*
X0200968Y0136218D02*
X0192968Y0136218D01*
X0192968Y0133820D02*
X0200968Y0133820D01*
X0200968Y0131421D02*
X0192968Y0131421D01*
X0204668Y0133300D02*
X0204668Y0133300D01*
X0204668Y0133820D02*
X0204668Y0133820D01*
X0204668Y0136218D02*
X0204668Y0136218D01*
X0208368Y0136218D02*
X0225201Y0136218D01*
X0228568Y0133820D02*
X0208368Y0133820D01*
X0208368Y0131421D02*
X0229955Y0131421D01*
X0233568Y0129023D02*
X0211839Y0129023D01*
X0214238Y0126624D02*
X0234752Y0126624D01*
X0234517Y0125350D02*
X0233957Y0125500D01*
X0232168Y0125500D01*
X0232168Y0120300D01*
X0235868Y0120300D01*
X0235868Y0123590D01*
X0235718Y0124149D01*
X0235428Y0124651D01*
X0235019Y0125060D01*
X0234517Y0125350D01*
X0235674Y0124226D02*
X0238568Y0124226D01*
X0239549Y0121827D02*
X0235868Y0121827D01*
X0235868Y0120300D02*
X0232168Y0120300D01*
X0232168Y0120300D01*
X0232168Y0120300D01*
X0232168Y0115100D01*
X0233957Y0115100D01*
X0234517Y0115250D01*
X0235019Y0115540D01*
X0235428Y0115949D01*
X0235718Y0116451D01*
X0235868Y0117010D01*
X0235868Y0120300D01*
X0235868Y0119429D02*
X0243568Y0119429D01*
X0244347Y0117030D02*
X0235868Y0117030D01*
X0232168Y0117030D02*
X0232168Y0117030D01*
X0232168Y0115100D02*
X0230378Y0115100D01*
X0229819Y0115250D01*
X0229317Y0115540D01*
X0228907Y0115949D01*
X0228618Y0116451D01*
X0228468Y0117010D01*
X0228468Y0120300D01*
X0232168Y0120300D01*
X0232168Y0120300D01*
X0232168Y0125500D01*
X0230378Y0125500D01*
X0229819Y0125350D01*
X0229317Y0125060D01*
X0228907Y0124651D01*
X0228618Y0124149D01*
X0228468Y0123590D01*
X0228468Y0120300D01*
X0232168Y0120300D01*
X0232168Y0115100D01*
X0228468Y0117030D02*
X0220468Y0117030D01*
X0220468Y0119429D02*
X0228468Y0119429D01*
X0228468Y0121827D02*
X0220468Y0121827D01*
X0220288Y0124226D02*
X0228662Y0124226D01*
X0232168Y0124226D02*
X0232168Y0124226D01*
X0232168Y0121827D02*
X0232168Y0121827D01*
X0232168Y0120300D02*
X0232168Y0120300D01*
X0232168Y0119429D02*
X0232168Y0119429D01*
X0219568Y0114632D02*
X0257068Y0114632D01*
X0257068Y0117030D02*
X0249989Y0117030D01*
X0250768Y0119429D02*
X0257068Y0119429D01*
X0257068Y0121827D02*
X0249768Y0121827D01*
X0249768Y0124226D02*
X0257068Y0124226D01*
X0257068Y0126624D02*
X0249768Y0126624D01*
X0249768Y0129023D02*
X0257068Y0129023D01*
X0257068Y0131421D02*
X0249768Y0131421D01*
X0249768Y0133820D02*
X0257068Y0133820D01*
X0257068Y0136218D02*
X0249768Y0136218D01*
X0249768Y0138617D02*
X0257068Y0138617D01*
X0257068Y0141015D02*
X0249768Y0141015D01*
X0249768Y0143414D02*
X0257068Y0143414D01*
X0257068Y0145812D02*
X0249768Y0145812D01*
X0249768Y0148211D02*
X0257068Y0148211D01*
X0257068Y0150609D02*
X0249768Y0150609D01*
X0249768Y0153008D02*
X0257068Y0153008D01*
X0256348Y0155406D02*
X0255490Y0155406D01*
X0255549Y0157805D02*
X0256187Y0157805D01*
X0255549Y0160203D02*
X0258477Y0160203D01*
X0260859Y0160203D02*
X0261433Y0160203D01*
X0261103Y0162602D02*
X0254348Y0162602D01*
X0252168Y0162602D02*
X0252168Y0162602D01*
X0249987Y0162602D02*
X0214644Y0162602D01*
X0214600Y0165000D02*
X0230234Y0165000D01*
X0233034Y0169400D02*
X0224768Y0175600D01*
X0224768Y0176635D01*
X0225241Y0176161D01*
X0229094Y0176161D01*
X0229385Y0176452D01*
X0229636Y0176201D01*
X0230137Y0175911D01*
X0230697Y0175761D01*
X0232168Y0175761D01*
X0233638Y0175761D01*
X0234198Y0175911D01*
X0234700Y0176201D01*
X0234951Y0176452D01*
X0235241Y0176161D01*
X0239094Y0176161D01*
X0239668Y0176735D01*
X0240241Y0176161D01*
X0243942Y0176161D01*
X0243061Y0174400D01*
X0239659Y0174400D01*
X0239207Y0174852D01*
X0237884Y0175400D01*
X0236452Y0175400D01*
X0235128Y0174852D01*
X0234116Y0173839D01*
X0233568Y0172516D01*
X0233568Y0171084D01*
X0234116Y0169761D01*
X0234477Y0169400D01*
X0233034Y0169400D01*
X0232505Y0169797D02*
X0234101Y0169797D01*
X0233568Y0172196D02*
X0229307Y0172196D01*
X0226109Y0174594D02*
X0234871Y0174594D01*
X0232168Y0175761D02*
X0232168Y0180323D01*
X0232168Y0180323D01*
X0232168Y0175761D01*
X0232168Y0176993D02*
X0232168Y0176993D01*
X0232168Y0179391D02*
X0232168Y0179391D01*
X0232168Y0180324D02*
X0232168Y0184886D01*
X0232168Y0180324D01*
X0232168Y0180324D01*
X0232168Y0181790D02*
X0232168Y0181790D01*
X0232168Y0184188D02*
X0232168Y0184188D01*
X0232168Y0184886D02*
X0233638Y0184886D01*
X0234198Y0184736D01*
X0234700Y0184446D01*
X0234768Y0184378D01*
X0234768Y0188823D01*
X0234768Y0189777D01*
X0235133Y0190659D01*
X0236374Y0191900D01*
X0227159Y0191900D01*
X0227720Y0191339D01*
X0228268Y0190016D01*
X0228268Y0189094D01*
X0229202Y0188159D01*
X0229568Y0187277D01*
X0229568Y0184378D01*
X0229636Y0184446D01*
X0230137Y0184736D01*
X0230697Y0184886D01*
X0232168Y0184886D01*
X0229568Y0186587D02*
X0234768Y0186587D01*
X0234768Y0188985D02*
X0228376Y0188985D01*
X0227675Y0191384D02*
X0235858Y0191384D01*
X0244768Y0185193D02*
X0247781Y0186700D01*
X0261554Y0186700D01*
X0263772Y0185591D01*
X0264116Y0184761D01*
X0265128Y0183748D01*
X0266452Y0183200D01*
X0267884Y0183200D01*
X0269207Y0183748D01*
X0270220Y0184761D01*
X0270768Y0186084D01*
X0270768Y0187516D01*
X0270220Y0188839D01*
X0269207Y0189852D01*
X0267884Y0190400D01*
X0266452Y0190400D01*
X0266085Y0190248D01*
X0263708Y0191437D01*
X0263640Y0191504D01*
X0263248Y0191667D01*
X0262868Y0191857D01*
X0262773Y0191864D01*
X0262685Y0191900D01*
X0262260Y0191900D01*
X0262260Y0191900D01*
X0268674Y0191900D01*
X0272268Y0188306D01*
X0272268Y0186991D01*
X0271616Y0186339D01*
X0271068Y0185016D01*
X0271068Y0183584D01*
X0271616Y0182261D01*
X0272628Y0181248D01*
X0273952Y0180700D01*
X0275384Y0180700D01*
X0276707Y0181248D01*
X0277720Y0182261D01*
X0278268Y0183584D01*
X0278268Y0185016D01*
X0277720Y0186339D01*
X0277068Y0186991D01*
X0277068Y0189777D01*
X0276702Y0190659D01*
X0276027Y0191335D01*
X0271027Y0196335D01*
X0270145Y0196700D01*
X0147219Y0196700D01*
X0146793Y0196718D01*
X0146743Y0196700D01*
X0146690Y0196700D01*
X0146297Y0196537D01*
X0137485Y0193320D01*
X0136502Y0193728D01*
X0135077Y0193728D01*
X0133761Y0193182D01*
X0132754Y0192175D01*
X0132209Y0190859D01*
X0132209Y0189434D01*
X0132754Y0188118D01*
X0133761Y0187111D01*
X0135077Y0186565D01*
X0136502Y0186565D01*
X0137818Y0187111D01*
X0138826Y0188118D01*
X0139110Y0188803D01*
X0147592Y0191900D01*
X0163463Y0191900D01*
X0162931Y0191368D01*
X0162386Y0190052D01*
X0162386Y0188627D01*
X0162931Y0187311D01*
X0163567Y0186675D01*
X0163567Y0180988D01*
X0163932Y0180106D01*
X0170513Y0173525D01*
X0170873Y0173376D01*
X0170722Y0173225D01*
X0170722Y0171111D01*
X0167869Y0168258D01*
X0167504Y0167376D01*
X0167504Y0158677D01*
X0163624Y0153767D01*
X0157590Y0153767D01*
X0157987Y0153996D01*
X0158397Y0154406D01*
X0158686Y0154908D01*
X0158836Y0155467D01*
X0158836Y0157922D01*
X0154668Y0157922D01*
X0154668Y0157922D01*
X0158836Y0157922D01*
X0158836Y0160377D01*
X0158686Y0160937D01*
X0158397Y0161438D01*
X0158284Y0161551D01*
X0158436Y0161704D01*
X0158436Y0167526D01*
X0157382Y0168580D01*
X0157068Y0168580D01*
X0157068Y0170730D01*
X0157704Y0171366D01*
X0158249Y0172682D01*
X0158249Y0174107D01*
X0157704Y0175423D01*
X0156696Y0176430D01*
X0155380Y0176976D01*
X0153955Y0176976D01*
X0152639Y0176430D01*
X0151632Y0175423D01*
X0151087Y0174107D01*
X0151087Y0172682D01*
X0151632Y0171366D01*
X0152268Y0170730D01*
X0152268Y0168580D01*
X0151954Y0168580D01*
X0150899Y0167526D01*
X0150899Y0161704D01*
X0151052Y0161551D01*
X0150939Y0161438D01*
X0150649Y0160937D01*
X0150499Y0160377D01*
X0150499Y0157922D01*
X0150499Y0155467D01*
X0150649Y0154908D01*
X0150939Y0154406D01*
X0151348Y0153996D01*
X0151746Y0153767D01*
X0146572Y0153767D01*
X0146562Y0153771D01*
X0146095Y0153767D01*
X0145627Y0153767D01*
X0145618Y0153763D01*
X0145607Y0153763D01*
X0145177Y0153580D01*
X0144745Y0153402D01*
X0144738Y0153394D01*
X0144728Y0153390D01*
X0144400Y0153056D01*
X0144070Y0152726D01*
X0144066Y0152717D01*
X0132323Y0140775D01*
X0131455Y0140775D01*
X0130139Y0140230D01*
X0129132Y0139222D01*
X0128587Y0137906D01*
X0128587Y0136481D01*
X0129132Y0135165D01*
X0130139Y0134158D01*
X0130250Y0134112D01*
X0126954Y0134112D01*
X0125899Y0133057D01*
X0125899Y0131700D01*
X0119851Y0131700D01*
X0119561Y0131745D01*
X0119378Y0131700D01*
X0119190Y0131700D01*
X0118919Y0131588D01*
X0118633Y0131518D01*
X0118482Y0131407D01*
X0118308Y0131335D01*
X0118100Y0131127D01*
X0113724Y0127918D01*
X0113043Y0128200D01*
X0111292Y0128200D01*
X0109675Y0127530D01*
X0108438Y0126292D01*
X0107768Y0124675D01*
X0107768Y0122925D01*
X0108438Y0121308D01*
X0109675Y0120070D01*
X0111292Y0119400D01*
X0113043Y0119400D01*
X0113135Y0119438D01*
X0117808Y0114765D01*
X0118466Y0114493D01*
X0113135Y0109162D01*
X0113043Y0109200D01*
X0111292Y0109200D01*
X0109675Y0108530D01*
X0108438Y0107292D01*
X0107768Y0105675D01*
X0107768Y0103925D01*
X0108438Y0102308D01*
X0109675Y0101070D01*
X0111292Y0100400D01*
X0113043Y0100400D01*
X0113520Y0100597D01*
X0121413Y0092704D01*
X0122088Y0092029D01*
X0122970Y0091664D01*
X0125624Y0091664D01*
X0126324Y0090965D01*
X0131461Y0090965D01*
X0131068Y0090016D01*
X0131068Y0088584D01*
X0131616Y0087261D01*
X0132628Y0086248D01*
X0133952Y0085700D01*
X0135384Y0085700D01*
X0136707Y0086248D01*
X0137720Y0087261D01*
X0138268Y0088584D01*
X0138268Y0089506D01*
X0140069Y0091307D01*
X0140128Y0091248D01*
X0141452Y0090700D01*
X0142884Y0090700D01*
X0144207Y0091248D01*
X0145220Y0092261D01*
X0145768Y0093584D01*
X0145768Y0095016D01*
X0145267Y0096225D01*
X0145531Y0097090D01*
X0145670Y0097425D01*
X0145670Y0097543D01*
X0145705Y0097657D01*
X0145670Y0098017D01*
X0145670Y0099063D01*
X0146506Y0099063D01*
X0146939Y0098813D01*
X0147499Y0098663D01*
X0148388Y0098663D01*
X0148388Y0102812D01*
X0148388Y0102812D01*
X0148388Y0098663D01*
X0148547Y0098663D01*
X0148547Y0084074D01*
X0146174Y0081700D01*
X0130654Y0081700D01*
X0129525Y0082829D01*
X0127996Y0083462D01*
X0126340Y0083462D01*
X0124810Y0082829D01*
X0123639Y0081658D01*
X0123006Y0080128D01*
X0123006Y0079186D01*
X0122407Y0078289D01*
X0106790Y0093906D01*
X0105834Y0094302D01*
X0099308Y0094302D01*
X0098352Y0093906D01*
X0097621Y0093174D01*
X0096161Y0091714D01*
X0095618Y0091939D01*
X0087497Y0091939D01*
X0086541Y0091544D01*
X0086076Y0091078D01*
X0086245Y0091487D01*
X0097849Y0096131D01*
X0098451Y0096358D01*
X0098476Y0096382D01*
X0098508Y0096395D01*
X0098968Y0096844D01*
X0099437Y0097284D01*
X0099451Y0097316D01*
X0099476Y0097340D01*
X0099729Y0097931D01*
X0099994Y0098517D01*
X0099995Y0098551D01*
X0100008Y0098583D01*
X0100016Y0099226D01*
X0100546Y0116072D01*
X0100568Y0116124D01*
X0100568Y0116746D01*
X0100587Y0117369D01*
X0100568Y0117421D01*
X0100568Y0148748D01*
X0100607Y0148866D01*
X0100568Y0149421D01*
X0100568Y0149976D01*
X0100520Y0150091D01*
X0100511Y0150216D01*
X0100263Y0150713D01*
X0100050Y0151226D01*
X0099962Y0151314D01*
X0097844Y0155550D01*
X0097738Y0155909D01*
X0097544Y0156149D01*
X0097406Y0156425D01*
X0097124Y0156671D01*
X0096889Y0156962D01*
X0096618Y0157109D01*
X0096384Y0157312D01*
X0096029Y0157430D01*
X0095701Y0157609D01*
X0095394Y0157642D01*
X0095101Y0157739D01*
X0094728Y0157713D01*
X0082257Y0159043D01*
X0080898Y0163450D01*
X0088263Y0163450D01*
X0088804Y0163991D01*
X0088857Y0163899D01*
X0089267Y0163490D01*
X0089769Y0163200D01*
X0090328Y0163050D01*
X0093293Y0163050D01*
X0093293Y0168925D01*
X0093843Y0168925D01*
X0093843Y0169475D01*
X0098718Y0169475D01*
X0098718Y0173440D01*
X0098568Y0173999D01*
X0098278Y0174501D01*
X0097869Y0174910D01*
X0097367Y0175200D01*
X0096807Y0175350D01*
X0093843Y0175350D01*
X0093843Y0169475D01*
X0093293Y0169475D01*
X0093293Y0175350D01*
X0090328Y0175350D01*
X0089769Y0175200D01*
X0089267Y0174910D01*
X0088857Y0174501D01*
X0088804Y0174409D01*
X0088263Y0174950D01*
X0087968Y0174950D01*
X0087968Y0175292D01*
X0088576Y0175900D01*
X0098690Y0175900D01*
X0099940Y0176418D01*
X0105511Y0181988D01*
X0107382Y0181988D01*
X0107947Y0182554D01*
X0111388Y0182554D01*
X0111560Y0182382D01*
X0113931Y0182382D01*
X0113991Y0182357D01*
X0120500Y0182357D01*
X0123006Y0179122D01*
X0123006Y0178472D01*
X0123639Y0176942D01*
X0124810Y0175771D01*
X0126340Y0175138D01*
X0127996Y0175138D01*
X0129525Y0175771D01*
X0130654Y0176900D01*
X0144110Y0176900D01*
X0144745Y0176264D01*
X0146062Y0175719D01*
X0147486Y0175719D01*
X0148803Y0176264D01*
X0149810Y0177271D01*
X0150355Y0178588D01*
X0150355Y0180012D01*
X0149810Y0181329D01*
X0148803Y0182336D01*
X0147486Y0182881D01*
X0146062Y0182881D01*
X0144745Y0182336D01*
X0144110Y0181700D01*
X0130654Y0181700D01*
X0129525Y0182829D01*
X0128362Y0183310D01*
X0125135Y0187478D01*
X0125050Y0187683D01*
X0124724Y0188009D01*
X0124442Y0188373D01*
X0124250Y0188483D01*
X0124094Y0188639D01*
X0123668Y0188816D01*
X0123267Y0189044D01*
X0123048Y0189072D01*
X0122844Y0189157D01*
X0122383Y0189157D01*
X0121926Y0189215D01*
X0121712Y0189157D01*
X0117649Y0189157D01*
X0117879Y0189218D01*
X0118381Y0189508D01*
X0118790Y0189918D01*
X0119080Y0190419D01*
X0119230Y0190979D01*
X0119230Y0192843D01*
X0114668Y0192843D01*
X0114668Y0192843D01*
X0119230Y0192843D01*
X0119230Y0194708D01*
X0119080Y0195267D01*
X0118790Y0195769D01*
X0118381Y0196179D01*
X0117879Y0196468D01*
X0117320Y0196618D01*
X0114668Y0196618D01*
X0114668Y0192843D01*
X0110106Y0192843D01*
X0110106Y0190979D01*
X0110255Y0190419D01*
X0110545Y0189918D01*
X0110955Y0189508D01*
X0111222Y0189354D01*
X0108526Y0189354D01*
X0108686Y0189632D01*
X0108836Y0190191D01*
X0108836Y0192646D01*
X0104668Y0192646D01*
X0104668Y0192647D01*
X0104668Y0192647D01*
X0104668Y0197012D01*
X0106926Y0197012D01*
X0107485Y0196862D01*
X0107987Y0196572D01*
X0108397Y0196163D01*
X0108686Y0195661D01*
X0108836Y0195101D01*
X0108836Y0192647D01*
X0104668Y0192647D01*
X0104668Y0197012D01*
X0102410Y0197012D01*
X0101850Y0196862D01*
X0101348Y0196572D01*
X0100939Y0196163D01*
X0100649Y0195661D01*
X0100499Y0195101D01*
X0100499Y0192647D01*
X0104668Y0192647D01*
X0104668Y0192646D01*
X0100499Y0192646D01*
X0100499Y0190191D01*
X0100649Y0189632D01*
X0100939Y0189130D01*
X0101052Y0189017D01*
X0100899Y0188864D01*
X0100899Y0186993D01*
X0096606Y0182700D01*
X0095594Y0182700D01*
X0096330Y0183436D01*
X0096330Y0188077D01*
X0095276Y0189131D01*
X0095055Y0189131D01*
X0095379Y0189218D01*
X0095881Y0189508D01*
X0096290Y0189918D01*
X0096580Y0190419D01*
X0096730Y0190979D01*
X0096730Y0192843D01*
X0092168Y0192843D01*
X0092168Y0192843D01*
X0096730Y0192843D01*
X0096730Y0194708D01*
X0096580Y0195267D01*
X0096290Y0195769D01*
X0095881Y0196179D01*
X0095379Y0196468D01*
X0094820Y0196618D01*
X0092168Y0196618D01*
X0092168Y0192843D01*
X0087606Y0192843D01*
X0087606Y0190979D01*
X0087755Y0190419D01*
X0088045Y0189918D01*
X0088455Y0189508D01*
X0088722Y0189354D01*
X0086026Y0189354D01*
X0086186Y0189632D01*
X0086336Y0190191D01*
X0086336Y0192646D01*
X0082168Y0192646D01*
X0082168Y0192647D01*
X0082168Y0192647D01*
X0082168Y0197012D01*
X0084426Y0197012D01*
X0084985Y0196862D01*
X0085487Y0196572D01*
X0085897Y0196163D01*
X0086186Y0195661D01*
X0086336Y0195101D01*
X0086336Y0192647D01*
X0082168Y0192647D01*
X0082168Y0197012D01*
X0079910Y0197012D01*
X0079350Y0196862D01*
X0078848Y0196572D01*
X0078439Y0196163D01*
X0078149Y0195661D01*
X0077999Y0195101D01*
X0077999Y0192647D01*
X0082168Y0192647D01*
X0082168Y0192646D01*
X0077999Y0192646D01*
X0077999Y0190191D01*
X0078149Y0189632D01*
X0078439Y0189130D01*
X0078552Y0189017D01*
X0078399Y0188864D01*
X0078399Y0186993D01*
X0072685Y0181279D01*
X0072168Y0180030D01*
X0072168Y0174950D01*
X0071872Y0174950D01*
X0070818Y0173896D01*
X0070818Y0164504D01*
X0071872Y0163450D01*
X0073782Y0163450D01*
X0076412Y0154919D01*
X0076597Y0154291D01*
X0076611Y0154273D01*
X0076618Y0154252D01*
X0077036Y0153748D01*
X0077447Y0153238D01*
X0077466Y0153228D01*
X0077481Y0153210D01*
X0078059Y0152904D01*
X0078635Y0152591D01*
X0078657Y0152589D01*
X0078676Y0152578D01*
X0079328Y0152517D01*
X0092458Y0151116D01*
X0092970Y0150094D01*
X0092913Y0150150D01*
X0076422Y0150150D01*
X0075368Y0149096D01*
X0075368Y0139704D01*
X0076422Y0138650D01*
X0092913Y0138650D01*
X0093768Y0139504D01*
X0093768Y0137700D01*
X0085817Y0137700D01*
X0085380Y0137881D01*
X0083955Y0137881D01*
X0082639Y0137336D01*
X0081632Y0136329D01*
X0081087Y0135012D01*
X0081087Y0133588D01*
X0081632Y0132271D01*
X0082639Y0131264D01*
X0083955Y0130719D01*
X0085380Y0130719D01*
X0085817Y0130900D01*
X0093768Y0130900D01*
X0093768Y0130013D01*
X0092880Y0130381D01*
X0091455Y0130381D01*
X0090139Y0129836D01*
X0089132Y0128829D01*
X0088587Y0127512D01*
X0088587Y0126088D01*
X0089132Y0124771D01*
X0089768Y0124136D01*
X0089768Y0107794D01*
X0088312Y0106338D01*
X0088304Y0106335D01*
X0086208Y0104239D01*
X0086104Y0104239D01*
X0085590Y0105478D01*
X0084269Y0106800D01*
X0085590Y0108122D01*
X0086428Y0110143D01*
X0086428Y0112331D01*
X0085590Y0114352D01*
X0084245Y0115697D01*
X0084771Y0116079D01*
X0085428Y0116736D01*
X0085974Y0117487D01*
X0086395Y0118315D01*
X0086682Y0119198D01*
X0086828Y0120115D01*
X0086828Y0120579D01*
X0080928Y0120579D01*
X0080928Y0120580D01*
X0080927Y0120580D01*
X0080927Y0120579D01*
X0075028Y0120579D01*
X0075028Y0120115D01*
X0075173Y0119198D01*
X0075460Y0118315D01*
X0075881Y0117487D01*
X0076427Y0116736D01*
X0077084Y0116079D01*
X0077610Y0115697D01*
X0076265Y0114352D01*
X0075428Y0112331D01*
X0075428Y0110143D01*
X0076265Y0108122D01*
X0077586Y0106800D01*
X0076265Y0105478D01*
X0075428Y0103457D01*
X0075428Y0101269D01*
X0076265Y0099247D01*
X0077812Y0097700D01*
X0077833Y0097692D01*
X0077812Y0097683D01*
X0076265Y0096136D01*
X0075428Y0094114D01*
X0075428Y0091926D01*
X0075826Y0090965D01*
X0073096Y0092096D01*
X0069861Y0092096D01*
X0066873Y0090858D01*
X0064586Y0088571D01*
X0063348Y0085583D01*
X0063348Y0082348D01*
X0064586Y0079360D01*
X0066873Y0077072D01*
X0069861Y0075835D01*
X0073096Y0075835D01*
X0076084Y0077072D01*
X0078372Y0079360D01*
X0079609Y0082348D01*
X0079609Y0085583D01*
X0078594Y0088034D01*
X0079834Y0087520D01*
X0082022Y0087520D01*
X0083278Y0088041D01*
X0083052Y0087494D01*
X0083052Y0085692D01*
X0081817Y0084457D01*
X0081086Y0083726D01*
X0080690Y0082770D01*
X0080690Y0079112D01*
X0079454Y0079112D01*
X0078399Y0078057D01*
X0078399Y0072236D01*
X0078552Y0072083D01*
X0078439Y0071970D01*
X0078149Y0071468D01*
X0077999Y0070909D01*
X0077999Y0068454D01*
X0082168Y0068454D01*
X0086336Y0068454D01*
X0086336Y0070909D01*
X0086186Y0071468D01*
X0085897Y0071970D01*
X0085784Y0072083D01*
X0085936Y0072236D01*
X0085936Y0078057D01*
X0085890Y0078104D01*
X0085890Y0081176D01*
X0087856Y0083142D01*
X0088252Y0084098D01*
X0088252Y0085900D01*
X0089091Y0086739D01*
X0090545Y0086739D01*
X0090545Y0081311D01*
X0091210Y0080645D01*
X0091393Y0080204D01*
X0092068Y0079529D01*
X0092068Y0079529D01*
X0093066Y0078531D01*
X0093254Y0078344D01*
X0091599Y0078344D01*
X0090545Y0077289D01*
X0090545Y0071074D01*
X0091028Y0070591D01*
X0091028Y0066913D01*
X0091393Y0066031D01*
X0095428Y0061996D01*
X0096103Y0061320D01*
X0096986Y0060955D01*
X0103735Y0060955D01*
X0104116Y0060036D01*
X0105128Y0059024D01*
X0106452Y0058476D01*
X0106997Y0058476D01*
X0109568Y0055764D01*
X0109568Y0051696D01*
X0109163Y0052100D01*
X0105172Y0052100D01*
X0104668Y0051596D01*
X0104163Y0052100D01*
X0100172Y0052100D01*
X0099118Y0051046D01*
X0099118Y0044927D01*
X0098591Y0044400D01*
X0092745Y0044400D01*
X0089068Y0048077D01*
X0089068Y0049675D01*
X0088398Y0051292D01*
X0087160Y0052530D01*
X0085543Y0053200D01*
X0083792Y0053200D01*
X0082175Y0052530D01*
X0080938Y0051292D01*
X0080268Y0049675D01*
X0080268Y0049549D01*
X0076668Y0047795D01*
X0070936Y0048258D01*
X0070936Y0048864D01*
X0070784Y0049017D01*
X0070897Y0049130D01*
X0071186Y0049632D01*
X0071336Y0050191D01*
X0071336Y0052646D01*
X0067168Y0052646D01*
X0067168Y0052647D01*
X0067168Y0052647D01*
X0067168Y0057012D01*
X0069426Y0057012D01*
X0069985Y0056862D01*
X0070487Y0056572D01*
X0070897Y0056163D01*
X0071186Y0055661D01*
X0071336Y0055101D01*
X0071336Y0052647D01*
X0067168Y0052647D01*
X0067168Y0057012D01*
X0064910Y0057012D01*
X0064350Y0056862D01*
X0063848Y0056572D01*
X0063439Y0056163D01*
X0063149Y0055661D01*
X0062999Y0055101D01*
X0062999Y0052647D01*
X0067168Y0052647D01*
X0067168Y0052646D01*
X0062999Y0052646D01*
X0062999Y0050191D01*
X0063149Y0049632D01*
X0063439Y0049130D01*
X0063552Y0049017D01*
X0063399Y0048864D01*
X0063399Y0043043D01*
X0064454Y0041988D01*
X0069882Y0041988D01*
X0070935Y0043041D01*
X0076631Y0042581D01*
X0076809Y0042520D01*
X0077142Y0042540D01*
X0077474Y0042513D01*
X0077653Y0042571D01*
X0077841Y0042583D01*
X0078141Y0042729D01*
X0078458Y0042831D01*
X0078602Y0042953D01*
X0082593Y0044897D01*
X0083792Y0044400D01*
X0085391Y0044400D01*
X0090195Y0039596D01*
X0090909Y0039300D01*
X0090195Y0039004D01*
X0085391Y0034200D01*
X0083792Y0034200D01*
X0082175Y0033530D01*
X0080938Y0032292D01*
X0080303Y0030762D01*
X0078413Y0029953D01*
X0070936Y0030693D01*
X0070936Y0031364D01*
X0070784Y0031517D01*
X0070897Y0031630D01*
X0071186Y0032132D01*
X0071336Y0032691D01*
X0071336Y0035146D01*
X0067168Y0035146D01*
X0067168Y0035147D01*
X0067168Y0035147D01*
X0067168Y0039512D01*
X0069426Y0039512D01*
X0069985Y0039362D01*
X0070487Y0039072D01*
X0070897Y0038663D01*
X0071186Y0038161D01*
X0071336Y0037601D01*
X0071336Y0035147D01*
X0067168Y0035147D01*
X0067168Y0039512D01*
X0064910Y0039512D01*
X0064350Y0039362D01*
X0063848Y0039072D01*
X0063439Y0038663D01*
X0063149Y0038161D01*
X0062999Y0037601D01*
X0062999Y0035147D01*
X0067168Y0035147D01*
X0067168Y0035146D01*
X0062999Y0035146D01*
X0062999Y0032691D01*
X0063149Y0032132D01*
X0063439Y0031630D01*
X0063552Y0031517D01*
X0063399Y0031364D01*
X0063399Y0025543D01*
X0064454Y0024488D01*
X0069882Y0024488D01*
X0070868Y0025475D01*
X0078197Y0024749D01*
X0078334Y0024694D01*
X0078708Y0024699D01*
X0079080Y0024662D01*
X0079221Y0024704D01*
X0079368Y0024706D01*
X0079712Y0024853D01*
X0080070Y0024961D01*
X0080184Y0025055D01*
X0082369Y0025989D01*
X0083792Y0025400D01*
X0085543Y0025400D01*
X0087160Y0026070D01*
X0088398Y0027308D01*
X0089068Y0028925D01*
X0089068Y0030523D01*
X0092745Y0034200D01*
X0105185Y0034200D01*
X0106140Y0034596D01*
X0106872Y0035327D01*
X0109372Y0037827D01*
X0109768Y0038783D01*
X0109768Y0042904D01*
X0110172Y0042500D01*
X0114163Y0042500D01*
X0114668Y0043004D01*
X0115172Y0042500D01*
X0118768Y0042500D01*
X0118768Y0038624D01*
X0119285Y0037374D01*
X0121785Y0034874D01*
X0122742Y0033918D01*
X0123991Y0033400D01*
X0132566Y0033400D01*
X0133716Y0031100D01*
X0130172Y0031100D01*
X0129668Y0030596D01*
X0129163Y0031100D01*
X0125172Y0031100D01*
X0124668Y0030596D01*
X0124163Y0031100D01*
X0120172Y0031100D01*
X0119668Y0030596D01*
X0119163Y0031100D01*
X0115172Y0031100D01*
X0114668Y0030596D01*
X0114163Y0031100D01*
X0110172Y0031100D01*
X0109668Y0030596D01*
X0109163Y0031100D01*
X0105172Y0031100D01*
X0104668Y0030596D01*
X0104163Y0031100D01*
X0100172Y0031100D01*
X0099118Y0030046D01*
X0099118Y0022554D01*
X0100172Y0021500D01*
X0104163Y0021500D01*
X0104668Y0022004D01*
X0105172Y0021500D01*
X0109163Y0021500D01*
X0109668Y0022004D01*
X0110172Y0021500D01*
X0114163Y0021500D01*
X0114668Y0022004D01*
X0115172Y0021500D01*
X0119163Y0021500D01*
X0119668Y0022004D01*
X0120172Y0021500D01*
X0124163Y0021500D01*
X0124668Y0022004D01*
X0125172Y0021500D01*
X0129163Y0021500D01*
X0129668Y0022004D01*
X0130172Y0021500D01*
X0134163Y0021500D01*
X0134668Y0022004D01*
X0135172Y0021500D01*
X0139163Y0021500D01*
X0140218Y0022554D01*
X0140218Y0024779D01*
X0140568Y0025624D01*
X0140568Y0028400D01*
X0187844Y0028400D01*
X0189094Y0028918D01*
X0191268Y0031092D01*
X0191268Y0026833D01*
X0190622Y0027100D01*
X0188713Y0027100D01*
X0186949Y0026369D01*
X0185598Y0025019D01*
X0184868Y0023255D01*
X0184868Y0015345D01*
X0185598Y0013581D01*
X0186949Y0012231D01*
X0188713Y0011500D01*
X0190622Y0011500D01*
X0192387Y0012231D01*
X0193737Y0013581D01*
X0194468Y0015345D01*
X0194468Y0019292D01*
X0196594Y0021418D01*
X0197550Y0022374D01*
X0198068Y0023624D01*
X0198068Y0067090D01*
X0214168Y0074246D01*
X0214168Y0064727D01*
X0214187Y0064681D01*
X0214187Y0062216D01*
X0215241Y0061161D01*
X0219094Y0061161D01*
X0219568Y0061635D01*
X0219568Y0060907D01*
X0211087Y0056667D01*
X0210695Y0056504D01*
X0210628Y0056437D01*
X0210542Y0056394D01*
X0210264Y0056073D01*
X0209964Y0055773D01*
X0209927Y0055685D01*
X0209865Y0055613D01*
X0209730Y0055210D01*
X0209568Y0054817D01*
X0209568Y0054722D01*
X0209538Y0054632D01*
X0209568Y0054208D01*
X0209568Y0036283D01*
X0209964Y0035327D01*
X0210695Y0034596D01*
X0235695Y0009596D01*
X0236651Y0009200D01*
X0359581Y0009200D01*
X0360011Y0009171D01*
X0360095Y0009200D01*
X0360185Y0009200D01*
X0360583Y0009365D01*
X0360991Y0009503D01*
X0361058Y0009562D01*
X0361140Y0009596D01*
X0361445Y0009900D01*
X0381058Y0027062D01*
X0381140Y0027096D01*
X0381445Y0027400D01*
X0381769Y0027684D01*
X0381809Y0027764D01*
X0381872Y0027827D01*
X0382037Y0028225D01*
X0382228Y0028611D01*
X0382233Y0028700D01*
X0382268Y0028783D01*
X0382268Y0029213D01*
X0382296Y0029643D01*
X0382268Y0029728D01*
X0382268Y0031988D01*
X0382382Y0031988D01*
X0383436Y0033043D01*
X0383436Y0038864D01*
X0383001Y0039300D01*
X0383436Y0039736D01*
X0383436Y0045557D01*
X0382382Y0046612D01*
X0382268Y0046612D01*
X0382268Y0046809D01*
X0382720Y0047261D01*
X0383268Y0048584D01*
X0383268Y0050016D01*
X0382720Y0051339D01*
X0382159Y0051900D01*
X0425231Y0051900D01*
X0425314Y0051872D01*
X0425706Y0051900D01*
X0426098Y0051900D01*
X0426179Y0051934D01*
X0426267Y0051940D01*
X0426618Y0052115D01*
X0426980Y0052265D01*
X0427042Y0052328D01*
X0427121Y0052367D01*
X0427378Y0052663D01*
X0427655Y0052941D01*
X0427689Y0053022D01*
X0427746Y0053088D01*
X0427870Y0053460D01*
X0428020Y0053823D01*
X0428020Y0053911D01*
X0429394Y0058031D01*
X0429974Y0058031D01*
X0430853Y0058395D01*
X0431525Y0059068D01*
X0431889Y0059947D01*
X0431889Y0063653D01*
X0431525Y0064532D01*
X0430853Y0065205D01*
X0429974Y0065568D01*
X0426267Y0065568D01*
X0425388Y0065205D01*
X0424716Y0064532D01*
X0424668Y0064416D01*
X0424620Y0064532D01*
X0423947Y0065205D01*
X0423615Y0065342D01*
X0423615Y0073258D01*
X0423947Y0073395D01*
X0424620Y0074068D01*
X0424668Y0074184D01*
X0424716Y0074068D01*
X0425388Y0073395D01*
X0426267Y0073031D01*
X0429974Y0073031D01*
X0430853Y0073395D01*
X0431525Y0074068D01*
X0431889Y0074947D01*
X0431889Y0078653D01*
X0431525Y0079532D01*
X0430853Y0080205D01*
X0429974Y0080568D01*
X0428919Y0080568D01*
X0427805Y0082797D01*
X0427655Y0083159D01*
X0427593Y0083222D01*
X0427554Y0083300D01*
X0427257Y0083557D01*
X0426980Y0083835D01*
X0426899Y0083868D01*
X0426832Y0083926D01*
X0426460Y0084050D01*
X0426098Y0084200D01*
X0426010Y0084200D01*
X0425927Y0084228D01*
X0425535Y0084200D01*
X0288168Y0084200D01*
X0287685Y0084400D01*
X0283245Y0084400D01*
X0281140Y0086504D01*
X0280185Y0086900D01*
X0279659Y0086900D01*
X0279207Y0087352D01*
X0277884Y0087900D01*
X0276452Y0087900D01*
X0275128Y0087352D01*
X0274768Y0086991D01*
X0274768Y0090523D01*
X0275695Y0089596D01*
X0276651Y0089200D01*
X0277756Y0089200D01*
X0277810Y0089068D01*
X0278483Y0088395D01*
X0279361Y0088031D01*
X0283068Y0088031D01*
X0283947Y0088395D01*
X0284620Y0089068D01*
X0284668Y0089184D01*
X0284716Y0089068D01*
X0285388Y0088395D01*
X0286267Y0088031D01*
X0288869Y0088031D01*
X0289983Y0085803D01*
X0290133Y0085441D01*
X0290195Y0085378D01*
X0290235Y0085300D01*
X0290531Y0085043D01*
X0290808Y0084765D01*
X0290889Y0084732D01*
X0290956Y0084674D01*
X0291328Y0084550D01*
X0291690Y0084400D01*
X0291778Y0084400D01*
X0291862Y0084372D01*
X0292253Y0084400D01*
X0425535Y0084400D01*
X0425927Y0084372D01*
X0426010Y0084400D01*
X0426098Y0084400D01*
X0426460Y0084550D01*
X0426832Y0084674D01*
X0426899Y0084732D01*
X0426980Y0084765D01*
X0427257Y0085043D01*
X0427554Y0085300D01*
X0427593Y0085378D01*
X0427655Y0085441D01*
X0427805Y0085803D01*
X0428919Y0088031D01*
X0429974Y0088031D01*
X0430853Y0088395D01*
X0431525Y0089068D01*
X0431889Y0089947D01*
X0431889Y0093653D01*
X0431525Y0094532D01*
X0430853Y0095205D01*
X0429974Y0095568D01*
X0426267Y0095568D01*
X0425388Y0095205D01*
X0424716Y0094532D01*
X0424668Y0094416D01*
X0424620Y0094532D01*
X0423947Y0095205D01*
X0423615Y0095342D01*
X0423615Y0103258D01*
X0423947Y0103395D01*
X0424620Y0104068D01*
X0424668Y0104184D01*
X0424716Y0104068D01*
X0425388Y0103395D01*
X0426267Y0103031D01*
X0429594Y0103031D01*
X0429594Y0101399D01*
X0430280Y0098837D01*
X0431606Y0096540D01*
X0433482Y0094664D01*
X0435779Y0093338D01*
X0438341Y0092651D01*
X0440994Y0092651D01*
X0443556Y0093338D01*
X0445853Y0094664D01*
X0447729Y0096540D01*
X0449055Y0098837D01*
X0449742Y0101399D01*
X0449742Y0104051D01*
X0449055Y0106614D01*
X0447729Y0108911D01*
X0445853Y0110786D01*
X0443556Y0112113D01*
X0440994Y0112799D01*
X0438341Y0112799D01*
X0435779Y0112113D01*
X0433482Y0110786D01*
X0431731Y0109035D01*
X0431525Y0109532D01*
X0430853Y0110205D01*
X0429974Y0110568D01*
X0429240Y0110568D01*
X0429202Y0110659D01*
X0428527Y0111335D01*
X0426027Y0113835D01*
X0425145Y0114200D01*
X0413168Y0114200D01*
X0413168Y0114200D01*
X0423638Y0114200D01*
X0424593Y0114596D01*
X0428029Y0118031D01*
X0429974Y0118031D01*
X0430853Y0118395D01*
X0431525Y0119068D01*
X0431889Y0119947D01*
X0431889Y0120368D01*
X0432183Y0121078D01*
X0432183Y0120353D01*
X0432913Y0118589D01*
X0434264Y0117239D01*
X0436028Y0116508D01*
X0443937Y0116508D01*
X0445702Y0117239D01*
X0447052Y0118589D01*
X0447783Y0120353D01*
X0447783Y0122263D01*
X0447052Y0124027D01*
X0445702Y0125377D01*
X0443937Y0126108D01*
X0436028Y0126108D01*
X0434264Y0125377D01*
X0432913Y0124027D01*
X0432236Y0122393D01*
X0431889Y0123232D01*
X0431889Y0123653D01*
X0431525Y0124532D01*
X0430853Y0125205D01*
X0429974Y0125568D01*
X0426267Y0125568D01*
X0425388Y0125205D01*
X0424716Y0124532D01*
X0424668Y0124416D01*
X0424620Y0124532D01*
X0423947Y0125205D01*
X0423615Y0125342D01*
X0423615Y0133258D01*
X0423947Y0133395D01*
X0424620Y0134068D01*
X0424668Y0134184D01*
X0424716Y0134068D01*
X0425388Y0133395D01*
X0426267Y0133031D01*
X0429974Y0133031D01*
X0430853Y0133395D01*
X0431525Y0134068D01*
X0431889Y0134947D01*
X0431889Y0138653D01*
X0431525Y0139532D01*
X0430853Y0140205D01*
X0429974Y0140568D01*
X0428919Y0140568D01*
X0427805Y0142797D01*
X0427655Y0143159D01*
X0427593Y0143222D01*
X0427554Y0143300D01*
X0427257Y0143557D01*
X0426980Y0143835D01*
X0426899Y0143868D01*
X0426832Y0143926D01*
X0426460Y0144050D01*
X0426098Y0144200D01*
X0426010Y0144200D01*
X0425927Y0144228D01*
X0425535Y0144200D01*
X0279659Y0144200D01*
X0279859Y0144400D01*
X0425535Y0144400D01*
X0425927Y0144372D01*
X0426010Y0144400D01*
X0426098Y0144400D01*
X0426460Y0144550D01*
X0426832Y0144674D01*
X0426899Y0144732D01*
X0426980Y0144765D01*
X0427257Y0145043D01*
X0427554Y0145300D01*
X0427593Y0145378D01*
X0427655Y0145441D01*
X0427805Y0145803D01*
X0428919Y0148031D01*
X0429974Y0148031D01*
X0430853Y0148395D01*
X0431525Y0149068D01*
X0431889Y0149947D01*
X0431889Y0153653D01*
X0431525Y0154532D01*
X0430853Y0155205D01*
X0429974Y0155568D01*
X0426267Y0155568D01*
X0425388Y0155205D01*
X0424716Y0154532D01*
X0424668Y0154416D01*
X0424620Y0154532D01*
X0423947Y0155205D01*
X0423815Y0155259D01*
X0423815Y0163373D01*
X0423868Y0163395D01*
X0424541Y0164068D01*
X0424589Y0164184D01*
X0424637Y0164068D01*
X0425310Y0163395D01*
X0426188Y0163031D01*
X0429895Y0163031D01*
X0430774Y0163395D01*
X0431446Y0164068D01*
X0431810Y0164947D01*
X0431810Y0168653D01*
X0431446Y0169532D01*
X0430774Y0170205D01*
X0430493Y0170321D01*
X0430345Y0170678D01*
X0430364Y0170667D01*
X0433848Y0169734D01*
X0437456Y0169734D01*
X0440940Y0170667D01*
X0444064Y0172471D01*
X0446615Y0175022D01*
X0448418Y0178146D01*
X0449352Y0181630D01*
X0449352Y0185237D01*
X0448418Y0188722D01*
X0446615Y0191846D01*
X0444064Y0194397D01*
X0440940Y0196200D01*
X0437456Y0197134D01*
X0433848Y0197134D01*
X0430364Y0196200D01*
X0427240Y0194397D01*
X0424689Y0191846D01*
X0422886Y0188722D01*
X0421952Y0185237D01*
X0421952Y0181630D01*
X0422886Y0178146D01*
X0424689Y0175022D01*
X0425511Y0174200D01*
X0410031Y0174200D01*
X0409921Y0174234D01*
X0409557Y0174200D01*
X0390031Y0174200D01*
X0389921Y0174234D01*
X0389556Y0174200D01*
X0370031Y0174200D01*
X0369921Y0174234D01*
X0369557Y0174200D01*
X0350031Y0174200D01*
X0349921Y0174234D01*
X0349557Y0174200D01*
X0330031Y0174200D01*
X0329921Y0174234D01*
X0329557Y0174200D01*
X0310031Y0174200D01*
X0309921Y0174234D01*
X0309556Y0174200D01*
X0294190Y0174200D01*
X0293308Y0173835D01*
X0292633Y0173159D01*
X0290022Y0170549D01*
X0289974Y0170568D01*
X0286267Y0170568D01*
X0285388Y0170205D01*
X0284716Y0169532D01*
X0284668Y0169416D01*
X0284620Y0169532D01*
X0283947Y0170205D01*
X0283815Y0170259D01*
X0283815Y0172817D01*
X0288797Y0175764D01*
X0288952Y0175700D01*
X0290384Y0175700D01*
X0291707Y0176248D01*
X0292720Y0177261D01*
X0293268Y0178584D01*
X0293268Y0180016D01*
X0292720Y0181339D01*
X0292481Y0181578D01*
X0292672Y0181481D01*
X0293450Y0181228D01*
X0294258Y0181100D01*
X0294668Y0181100D01*
X0295077Y0181100D01*
X0295885Y0181228D01*
X0296664Y0181481D01*
X0297393Y0181853D01*
X0298055Y0182334D01*
X0298634Y0182912D01*
X0299115Y0183575D01*
X0299487Y0184304D01*
X0299668Y0184861D01*
X0299849Y0184304D01*
X0300220Y0183575D01*
X0300701Y0182912D01*
X0301280Y0182334D01*
X0301942Y0181853D01*
X0302672Y0181481D01*
X0303450Y0181228D01*
X0304258Y0181100D01*
X0304668Y0181100D01*
X0305077Y0181100D01*
X0305885Y0181228D01*
X0306664Y0181481D01*
X0307393Y0181853D01*
X0308055Y0182334D01*
X0308634Y0182912D01*
X0309115Y0183575D01*
X0309487Y0184304D01*
X0309668Y0184861D01*
X0309849Y0184304D01*
X0310220Y0183575D01*
X0310701Y0182912D01*
X0311280Y0182334D01*
X0311942Y0181853D01*
X0312672Y0181481D01*
X0313450Y0181228D01*
X0314258Y0181100D01*
X0314668Y0181100D01*
X0315077Y0181100D01*
X0315885Y0181228D01*
X0316664Y0181481D01*
X0317393Y0181853D01*
X0318055Y0182334D01*
X0318634Y0182912D01*
X0319115Y0183575D01*
X0319487Y0184304D01*
X0319740Y0185082D01*
X0319868Y0185891D01*
X0319868Y0189300D01*
X0319868Y0192709D01*
X0319740Y0193518D01*
X0319487Y0194296D01*
X0319115Y0195025D01*
X0318634Y0195688D01*
X0318055Y0196266D01*
X0317393Y0196747D01*
X0316664Y0197119D01*
X0315885Y0197372D01*
X0315077Y0197500D01*
X0314668Y0197500D01*
X0314668Y0189300D01*
X0319868Y0189300D01*
X0314668Y0189300D01*
X0314668Y0189300D01*
X0314668Y0189300D01*
X0314668Y0181100D01*
X0314668Y0189300D01*
X0314668Y0189300D01*
X0314668Y0197500D01*
X0314258Y0197500D01*
X0313450Y0197372D01*
X0312672Y0197119D01*
X0311942Y0196747D01*
X0311280Y0196266D01*
X0310701Y0195688D01*
X0310220Y0195025D01*
X0309849Y0194296D01*
X0309668Y0193739D01*
X0309487Y0194296D01*
X0309115Y0195025D01*
X0308634Y0195688D01*
X0308055Y0196266D01*
X0307393Y0196747D01*
X0306664Y0197119D01*
X0305885Y0197372D01*
X0305077Y0197500D01*
X0304668Y0197500D01*
X0304668Y0189300D01*
X0309868Y0189300D01*
X0314668Y0189300D01*
X0304668Y0189300D01*
X0304668Y0189300D01*
X0304668Y0189300D01*
X0304668Y0181100D01*
X0304668Y0189300D01*
X0304668Y0189300D01*
X0304668Y0197500D01*
X0304258Y0197500D01*
X0303450Y0197372D01*
X0302672Y0197119D01*
X0301942Y0196747D01*
X0301280Y0196266D01*
X0300701Y0195688D01*
X0300220Y0195025D01*
X0299849Y0194296D01*
X0299668Y0193739D01*
X0299487Y0194296D01*
X0299115Y0195025D01*
X0298634Y0195688D01*
X0298055Y0196266D01*
X0297393Y0196747D01*
X0296664Y0197119D01*
X0295885Y0197372D01*
X0295077Y0197500D01*
X0294668Y0197500D01*
X0294668Y0189300D01*
X0299868Y0189300D01*
X0304668Y0189300D01*
X0294668Y0189300D01*
X0294668Y0189300D01*
X0294668Y0189300D01*
X0294668Y0181100D01*
X0294668Y0189300D01*
X0294668Y0189300D01*
X0294668Y0197500D01*
X0294258Y0197500D01*
X0293450Y0197372D01*
X0292672Y0197119D01*
X0291942Y0196747D01*
X0291280Y0196266D01*
X0290701Y0195688D01*
X0290220Y0195025D01*
X0289849Y0194296D01*
X0289668Y0193739D01*
X0289487Y0194296D01*
X0289115Y0195025D01*
X0288634Y0195688D01*
X0288055Y0196266D01*
X0287393Y0196747D01*
X0286664Y0197119D01*
X0285885Y0197372D01*
X0285077Y0197500D01*
X0284668Y0197500D01*
X0284668Y0189300D01*
X0289868Y0189300D01*
X0294668Y0189300D01*
X0284668Y0189300D01*
X0284668Y0189300D01*
X0284668Y0181100D01*
X0285077Y0181100D01*
X0285885Y0181228D01*
X0286664Y0181481D01*
X0286855Y0181578D01*
X0286616Y0181339D01*
X0286164Y0180248D01*
X0280050Y0176632D01*
X0279742Y0176504D01*
X0279609Y0176371D01*
X0279446Y0176274D01*
X0279246Y0176008D01*
X0279011Y0175773D01*
X0278939Y0175598D01*
X0278825Y0175447D01*
X0278742Y0175125D01*
X0278615Y0174817D01*
X0278615Y0174628D01*
X0278568Y0174445D01*
X0278615Y0174116D01*
X0278615Y0170259D01*
X0278483Y0170205D01*
X0277810Y0169532D01*
X0277446Y0168653D01*
X0277446Y0164947D01*
X0277810Y0164068D01*
X0278483Y0163395D01*
X0279361Y0163031D01*
X0283068Y0163031D01*
X0283947Y0163395D01*
X0284620Y0164068D01*
X0284668Y0164184D01*
X0284716Y0164068D01*
X0284915Y0163869D01*
X0284763Y0163073D01*
X0283591Y0161900D01*
X0278245Y0161900D01*
X0271140Y0169004D01*
X0270185Y0169400D01*
X0245690Y0169400D01*
X0245981Y0169497D01*
X0246053Y0169559D01*
X0246140Y0169596D01*
X0246441Y0169896D01*
X0246762Y0170175D01*
X0246805Y0170260D01*
X0246872Y0170327D01*
X0247034Y0170720D01*
X0249305Y0175260D01*
X0249372Y0175327D01*
X0249534Y0175720D01*
X0249724Y0176100D01*
X0249731Y0176195D01*
X0249768Y0176283D01*
X0249768Y0176635D01*
X0250241Y0176161D01*
X0254094Y0176161D01*
X0255149Y0177216D01*
X0255149Y0177865D01*
X0257068Y0177328D01*
X0257068Y0176791D01*
X0256616Y0176339D01*
X0256068Y0175016D01*
X0256068Y0173584D01*
X0256616Y0172261D01*
X0257628Y0171248D01*
X0258952Y0170700D01*
X0260384Y0170700D01*
X0261707Y0171248D01*
X0262720Y0172261D01*
X0263268Y0173584D01*
X0263268Y0175016D01*
X0262720Y0176339D01*
X0262268Y0176791D01*
X0262268Y0178943D01*
X0262311Y0179097D01*
X0262268Y0179456D01*
X0262268Y0179817D01*
X0262206Y0179965D01*
X0262187Y0180124D01*
X0262010Y0180439D01*
X0261872Y0180773D01*
X0261759Y0180886D01*
X0261680Y0181025D01*
X0261396Y0181249D01*
X0261140Y0181504D01*
X0260993Y0181565D01*
X0260867Y0181664D01*
X0260519Y0181762D01*
X0260185Y0181900D01*
X0260025Y0181900D01*
X0255149Y0183265D01*
X0255149Y0183431D01*
X0254094Y0184486D01*
X0250241Y0184486D01*
X0249668Y0183912D01*
X0249094Y0184486D01*
X0245241Y0184486D01*
X0244768Y0184012D01*
X0244768Y0185193D01*
X0244768Y0184188D02*
X0244944Y0184188D01*
X0247555Y0186587D02*
X0261780Y0186587D01*
X0264688Y0184188D02*
X0254392Y0184188D01*
X0249944Y0184188D02*
X0249392Y0184188D01*
X0260451Y0181790D02*
X0272087Y0181790D01*
X0271068Y0184188D02*
X0269647Y0184188D01*
X0270768Y0186587D02*
X0271863Y0186587D01*
X0271588Y0188985D02*
X0270073Y0188985D01*
X0269190Y0191384D02*
X0263814Y0191384D01*
X0273579Y0193782D02*
X0279682Y0193782D01*
X0279596Y0193518D02*
X0279468Y0192709D01*
X0279468Y0189300D01*
X0279468Y0185891D01*
X0279596Y0185082D01*
X0279849Y0184304D01*
X0280220Y0183575D01*
X0280701Y0182912D01*
X0281280Y0182334D01*
X0281942Y0181853D01*
X0282672Y0181481D01*
X0283450Y0181228D01*
X0284258Y0181100D01*
X0284668Y0181100D01*
X0284668Y0189300D01*
X0284668Y0189300D01*
X0284668Y0189300D01*
X0284668Y0197500D01*
X0284258Y0197500D01*
X0283450Y0197372D01*
X0282672Y0197119D01*
X0281942Y0196747D01*
X0281280Y0196266D01*
X0280701Y0195688D01*
X0280220Y0195025D01*
X0279849Y0194296D01*
X0279596Y0193518D01*
X0279468Y0191384D02*
X0275978Y0191384D01*
X0277068Y0188985D02*
X0279468Y0188985D01*
X0279468Y0189300D02*
X0284668Y0189300D01*
X0284668Y0189300D01*
X0279468Y0189300D01*
X0279468Y0186587D02*
X0277472Y0186587D01*
X0278268Y0184188D02*
X0279908Y0184188D01*
X0282065Y0181790D02*
X0277249Y0181790D01*
X0284668Y0181790D02*
X0284668Y0181790D01*
X0284668Y0184188D02*
X0284668Y0184188D01*
X0284668Y0186587D02*
X0284668Y0186587D01*
X0284668Y0188985D02*
X0284668Y0188985D01*
X0284668Y0191384D02*
X0284668Y0191384D01*
X0284668Y0193782D02*
X0284668Y0193782D01*
X0289654Y0193782D02*
X0289682Y0193782D01*
X0294668Y0193782D02*
X0294668Y0193782D01*
X0294668Y0191384D02*
X0294668Y0191384D01*
X0294668Y0189300D02*
X0294668Y0189300D01*
X0294668Y0188985D02*
X0294668Y0188985D01*
X0294668Y0186587D02*
X0294668Y0186587D01*
X0294668Y0184188D02*
X0294668Y0184188D01*
X0294668Y0181790D02*
X0294668Y0181790D01*
X0297270Y0181790D02*
X0302065Y0181790D01*
X0304668Y0181790D02*
X0304668Y0181790D01*
X0304668Y0184188D02*
X0304668Y0184188D01*
X0304668Y0186587D02*
X0304668Y0186587D01*
X0304668Y0188985D02*
X0304668Y0188985D01*
X0304668Y0189300D02*
X0304668Y0189300D01*
X0304668Y0191384D02*
X0304668Y0191384D01*
X0304668Y0193782D02*
X0304668Y0193782D01*
X0309654Y0193782D02*
X0309682Y0193782D01*
X0314668Y0193782D02*
X0314668Y0193782D01*
X0314668Y0191384D02*
X0314668Y0191384D01*
X0314668Y0189300D02*
X0314668Y0189300D01*
X0314668Y0188985D02*
X0314668Y0188985D01*
X0314668Y0186587D02*
X0314668Y0186587D01*
X0314668Y0184188D02*
X0314668Y0184188D01*
X0314668Y0181790D02*
X0314668Y0181790D01*
X0317270Y0181790D02*
X0323695Y0181790D01*
X0323695Y0181130D02*
X0324925Y0179900D01*
X0330168Y0179900D01*
X0330979Y0180711D01*
X0331336Y0181068D01*
X0331629Y0181361D01*
X0333091Y0179900D01*
X0337166Y0179900D01*
X0337977Y0180711D01*
X0338044Y0180778D01*
X0338921Y0179900D01*
X0342996Y0179900D01*
X0343875Y0180779D01*
X0344754Y0179900D01*
X0349997Y0179900D01*
X0350875Y0180778D01*
X0351752Y0179900D01*
X0355827Y0179900D01*
X0356705Y0180778D01*
X0357582Y0179900D01*
X0362825Y0179900D01*
X0363613Y0180688D01*
X0363703Y0180778D01*
X0364580Y0179900D01*
X0366320Y0179900D01*
X0367550Y0181130D01*
X0367550Y0182235D01*
X0369823Y0182235D01*
X0370348Y0182760D01*
X0370348Y0181130D01*
X0371578Y0179900D01*
X0373318Y0179900D01*
X0374548Y0181130D01*
X0374548Y0181601D01*
X0376249Y0179900D01*
X0377989Y0179900D01*
X0379219Y0181130D01*
X0379219Y0182870D01*
X0378337Y0183751D01*
X0379219Y0184633D01*
X0379219Y0188708D01*
X0377989Y0189938D01*
X0376821Y0191106D01*
X0371578Y0191106D01*
X0370701Y0190228D01*
X0369823Y0191106D01*
X0364580Y0191106D01*
X0363350Y0189876D01*
X0363350Y0188771D01*
X0358750Y0188771D01*
X0357962Y0187983D01*
X0357520Y0187541D01*
X0357520Y0187540D01*
X0357289Y0187309D01*
X0356995Y0187603D01*
X0355827Y0188771D01*
X0351752Y0188771D01*
X0351227Y0188246D01*
X0351227Y0189876D01*
X0349997Y0191106D01*
X0348257Y0191106D01*
X0347027Y0189876D01*
X0347027Y0188771D01*
X0344754Y0188771D01*
X0343967Y0187983D01*
X0343524Y0187541D01*
X0343524Y0187540D01*
X0343144Y0187160D01*
X0343059Y0187075D01*
X0343059Y0187541D01*
X0342761Y0187838D01*
X0343059Y0188136D01*
X0343059Y0191043D01*
X0341829Y0192274D01*
X0340089Y0192274D01*
X0338859Y0191043D01*
X0338859Y0189413D01*
X0338396Y0189876D01*
X0337166Y0191106D01*
X0333091Y0191106D01*
X0332280Y0190295D01*
X0331861Y0189876D01*
X0331861Y0189876D01*
X0331629Y0189644D01*
X0331336Y0189938D01*
X0330168Y0191106D01*
X0324925Y0191106D01*
X0323695Y0189876D01*
X0323695Y0181130D01*
X0323695Y0184188D02*
X0319428Y0184188D01*
X0319868Y0186587D02*
X0323695Y0186587D01*
X0323695Y0188985D02*
X0319868Y0188985D01*
X0319868Y0191384D02*
X0339199Y0191384D01*
X0342718Y0191384D02*
X0424423Y0191384D01*
X0423038Y0188985D02*
X0414315Y0188985D01*
X0414376Y0189167D02*
X0413598Y0190723D01*
X0411948Y0191273D01*
X0409278Y0189938D01*
X0408904Y0189938D01*
X0408529Y0189564D01*
X0408056Y0189328D01*
X0407938Y0188973D01*
X0406568Y0187603D01*
X0405338Y0186373D01*
X0405338Y0184100D01*
X0404875Y0184100D01*
X0404875Y0189876D01*
X0403645Y0191106D01*
X0401906Y0191106D01*
X0400675Y0189876D01*
X0399860Y0189061D01*
X0397815Y0191106D01*
X0393740Y0191106D01*
X0392952Y0190318D01*
X0392510Y0189876D01*
X0392510Y0189876D01*
X0392279Y0189644D01*
X0392047Y0189876D01*
X0390817Y0191106D01*
X0386742Y0191106D01*
X0385931Y0190295D01*
X0385512Y0189876D01*
X0385512Y0189876D01*
X0384344Y0188708D01*
X0384344Y0186968D01*
X0385574Y0185738D01*
X0387213Y0185738D01*
X0384344Y0182870D01*
X0384344Y0181130D01*
X0385574Y0179900D01*
X0391985Y0179900D01*
X0392862Y0180778D01*
X0393740Y0179900D01*
X0397815Y0179900D01*
X0398626Y0180711D01*
X0398693Y0180778D01*
X0399570Y0179900D01*
X0405981Y0179900D01*
X0406858Y0180778D01*
X0407736Y0179900D01*
X0411811Y0179900D01*
X0412599Y0180688D01*
X0412979Y0181068D01*
X0413421Y0181510D01*
X0414209Y0182298D01*
X0414209Y0185205D01*
X0413041Y0186373D01*
X0412540Y0186874D01*
X0413826Y0187517D01*
X0414376Y0189167D01*
X0412827Y0186587D02*
X0422314Y0186587D01*
X0421952Y0184188D02*
X0414209Y0184188D01*
X0413701Y0181790D02*
X0421952Y0181790D01*
X0422552Y0179391D02*
X0293268Y0179391D01*
X0292452Y0176993D02*
X0423551Y0176993D01*
X0425117Y0174594D02*
X0286819Y0174594D01*
X0283815Y0172196D02*
X0291669Y0172196D01*
X0284981Y0169797D02*
X0284354Y0169797D01*
X0278615Y0172196D02*
X0262655Y0172196D01*
X0263268Y0174594D02*
X0278606Y0174594D01*
X0280660Y0176993D02*
X0262268Y0176993D01*
X0262275Y0179391D02*
X0284715Y0179391D01*
X0299428Y0184188D02*
X0299908Y0184188D01*
X0307270Y0181790D02*
X0312065Y0181790D01*
X0309908Y0184188D02*
X0309428Y0184188D01*
X0299682Y0193782D02*
X0299654Y0193782D01*
X0298141Y0196181D02*
X0301195Y0196181D01*
X0304668Y0196181D02*
X0304668Y0196181D01*
X0308141Y0196181D02*
X0311195Y0196181D01*
X0314668Y0196181D02*
X0314668Y0196181D01*
X0318141Y0196181D02*
X0430331Y0196181D01*
X0437620Y0198950D02*
X0439389Y0198834D01*
X0442805Y0197919D01*
X0445868Y0196151D01*
X0448369Y0193650D01*
X0450137Y0190587D01*
X0451053Y0187171D01*
X0451169Y0185402D01*
X0451169Y0020048D01*
X0451053Y0018280D01*
X0451053Y0018280D01*
X0450137Y0014863D01*
X0448369Y0011801D01*
X0445868Y0009300D01*
X0442805Y0007531D01*
X0439389Y0006616D01*
X0437620Y0006500D01*
X0075416Y0006500D01*
X0073647Y0006616D01*
X0070231Y0007531D01*
X0067168Y0009300D01*
X0064667Y0011801D01*
X0062899Y0014863D01*
X0061984Y0018280D01*
X0061868Y0020048D01*
X0061868Y0185402D01*
X0061984Y0187171D01*
X0062899Y0190587D01*
X0064667Y0193650D01*
X0067168Y0196151D01*
X0070231Y0197919D01*
X0073647Y0198834D01*
X0075416Y0198950D01*
X0437620Y0198950D01*
X0440341Y0198579D02*
X0072695Y0198579D01*
X0067220Y0196181D02*
X0078457Y0196181D01*
X0082168Y0196181D02*
X0082168Y0196181D01*
X0085878Y0196181D02*
X0088459Y0196181D01*
X0088455Y0196179D02*
X0088045Y0195769D01*
X0087755Y0195267D01*
X0087606Y0194708D01*
X0087606Y0192843D01*
X0092168Y0192843D01*
X0092168Y0192843D01*
X0092168Y0192843D01*
X0092168Y0196618D01*
X0089516Y0196618D01*
X0088956Y0196468D01*
X0088455Y0196179D01*
X0092168Y0196181D02*
X0092168Y0196181D01*
X0095877Y0196181D02*
X0100957Y0196181D01*
X0104668Y0196181D02*
X0104668Y0196181D01*
X0108378Y0196181D02*
X0110959Y0196181D01*
X0110955Y0196179D02*
X0110545Y0195769D01*
X0110255Y0195267D01*
X0110106Y0194708D01*
X0110106Y0192843D01*
X0114668Y0192843D01*
X0114668Y0192843D01*
X0114668Y0192843D01*
X0114668Y0196618D01*
X0112016Y0196618D01*
X0111456Y0196468D01*
X0110955Y0196179D01*
X0114668Y0196181D02*
X0114668Y0196181D01*
X0118377Y0196181D02*
X0145321Y0196181D01*
X0138751Y0193782D02*
X0119230Y0193782D01*
X0119230Y0191384D02*
X0132426Y0191384D01*
X0132395Y0188985D02*
X0123370Y0188985D01*
X0125825Y0186587D02*
X0135025Y0186587D01*
X0136554Y0186587D02*
X0163567Y0186587D01*
X0163567Y0184188D02*
X0127682Y0184188D01*
X0130564Y0181790D02*
X0144199Y0181790D01*
X0149349Y0181790D02*
X0163567Y0181790D01*
X0164647Y0179391D02*
X0150355Y0179391D01*
X0149531Y0176993D02*
X0167045Y0176993D01*
X0169444Y0174594D02*
X0158047Y0174594D01*
X0158047Y0172196D02*
X0170722Y0172196D01*
X0169409Y0169797D02*
X0157068Y0169797D01*
X0158436Y0167399D02*
X0167513Y0167399D01*
X0167504Y0165000D02*
X0158436Y0165000D01*
X0158436Y0162602D02*
X0167504Y0162602D01*
X0167504Y0160203D02*
X0158836Y0160203D01*
X0158836Y0157805D02*
X0166814Y0157805D01*
X0164919Y0155406D02*
X0158820Y0155406D01*
X0154668Y0157922D02*
X0150499Y0157922D01*
X0154668Y0157922D01*
X0154668Y0157922D01*
X0150499Y0157805D02*
X0093867Y0157805D01*
X0097916Y0155406D02*
X0150516Y0155406D01*
X0144351Y0153008D02*
X0099115Y0153008D01*
X0100314Y0150609D02*
X0141994Y0150609D01*
X0139635Y0148211D02*
X0100568Y0148211D01*
X0100568Y0145812D02*
X0137277Y0145812D01*
X0134918Y0143414D02*
X0100568Y0143414D01*
X0100568Y0141015D02*
X0132560Y0141015D01*
X0128881Y0138617D02*
X0100568Y0138617D01*
X0093768Y0138617D02*
X0061868Y0138617D01*
X0061868Y0141015D02*
X0075368Y0141015D01*
X0075368Y0143414D02*
X0061868Y0143414D01*
X0061868Y0145812D02*
X0075368Y0145812D01*
X0075368Y0148211D02*
X0061868Y0148211D01*
X0061868Y0150609D02*
X0092712Y0150609D01*
X0077864Y0153008D02*
X0061868Y0153008D01*
X0061868Y0155406D02*
X0076262Y0155406D01*
X0075523Y0157805D02*
X0061868Y0157805D01*
X0061868Y0160203D02*
X0074783Y0160203D01*
X0074044Y0162602D02*
X0061868Y0162602D01*
X0061868Y0165000D02*
X0070818Y0165000D01*
X0070818Y0167399D02*
X0061868Y0167399D01*
X0061868Y0169797D02*
X0070818Y0169797D01*
X0070818Y0172196D02*
X0061868Y0172196D01*
X0061868Y0174594D02*
X0071516Y0174594D01*
X0072168Y0176993D02*
X0061868Y0176993D01*
X0061868Y0179391D02*
X0072168Y0179391D01*
X0073196Y0181790D02*
X0061868Y0181790D01*
X0061868Y0184188D02*
X0075594Y0184188D01*
X0077993Y0186587D02*
X0061945Y0186587D01*
X0062470Y0188985D02*
X0078520Y0188985D01*
X0077999Y0191384D02*
X0063359Y0191384D01*
X0064800Y0193782D02*
X0077999Y0193782D01*
X0082168Y0193782D02*
X0082168Y0193782D01*
X0086336Y0193782D02*
X0087606Y0193782D01*
X0087606Y0191384D02*
X0086336Y0191384D01*
X0092168Y0193782D02*
X0092168Y0193782D01*
X0096730Y0193782D02*
X0100499Y0193782D01*
X0100499Y0191384D02*
X0096730Y0191384D01*
X0095422Y0188985D02*
X0101020Y0188985D01*
X0100493Y0186587D02*
X0096330Y0186587D01*
X0096330Y0184188D02*
X0098094Y0184188D01*
X0105312Y0181790D02*
X0120939Y0181790D01*
X0122797Y0179391D02*
X0102914Y0179391D01*
X0100515Y0176993D02*
X0123618Y0176993D01*
X0098718Y0167399D02*
X0150899Y0167399D01*
X0152268Y0169797D02*
X0098718Y0169797D01*
X0098718Y0168925D02*
X0093843Y0168925D01*
X0093843Y0163050D01*
X0096807Y0163050D01*
X0097367Y0163200D01*
X0097869Y0163490D01*
X0098278Y0163899D01*
X0098568Y0164401D01*
X0098718Y0164960D01*
X0098718Y0168925D01*
X0093843Y0169797D02*
X0093293Y0169797D01*
X0093293Y0169475D02*
X0089318Y0169475D01*
X0089318Y0168925D01*
X0093293Y0168925D01*
X0093293Y0169475D01*
X0093293Y0167399D02*
X0093843Y0167399D01*
X0093843Y0165000D02*
X0093293Y0165000D01*
X0098718Y0165000D02*
X0150899Y0165000D01*
X0150899Y0162602D02*
X0081160Y0162602D01*
X0081899Y0160203D02*
X0150499Y0160203D01*
X0149759Y0148967D02*
X0138676Y0137884D01*
X0138311Y0137002D01*
X0138311Y0135203D01*
X0137880Y0135381D01*
X0136455Y0135381D01*
X0135139Y0134836D01*
X0134132Y0133829D01*
X0133587Y0132512D01*
X0133587Y0131088D01*
X0134132Y0129771D01*
X0134768Y0129136D01*
X0134768Y0126294D01*
X0135133Y0125412D01*
X0135752Y0124793D01*
X0135752Y0123092D01*
X0136806Y0122037D01*
X0153652Y0122037D01*
X0148994Y0119200D01*
X0132343Y0119200D01*
X0132485Y0119238D01*
X0132987Y0119528D01*
X0133397Y0119937D01*
X0133686Y0120439D01*
X0133836Y0120999D01*
X0133836Y0123453D01*
X0129668Y0123453D01*
X0129668Y0123454D01*
X0133836Y0123454D01*
X0133836Y0125909D01*
X0133686Y0126468D01*
X0133397Y0126970D01*
X0133284Y0127083D01*
X0133436Y0127236D01*
X0133436Y0133057D01*
X0132881Y0133613D01*
X0134196Y0134158D01*
X0135204Y0135165D01*
X0135749Y0136481D01*
X0135749Y0137412D01*
X0147111Y0148967D01*
X0149759Y0148967D01*
X0149003Y0148211D02*
X0146367Y0148211D01*
X0146605Y0145812D02*
X0144008Y0145812D01*
X0144206Y0143414D02*
X0141650Y0143414D01*
X0141808Y0141015D02*
X0139291Y0141015D01*
X0139409Y0138617D02*
X0136933Y0138617D01*
X0135640Y0136218D02*
X0138311Y0136218D01*
X0134128Y0133820D02*
X0133380Y0133820D01*
X0133436Y0131421D02*
X0133587Y0131421D01*
X0133436Y0129023D02*
X0134768Y0129023D01*
X0134768Y0126624D02*
X0133596Y0126624D01*
X0133836Y0124226D02*
X0135752Y0124226D01*
X0129668Y0123454D02*
X0129668Y0123453D01*
X0125499Y0123453D01*
X0125499Y0120999D01*
X0125649Y0120439D01*
X0125939Y0119937D01*
X0126348Y0119528D01*
X0126850Y0119238D01*
X0126992Y0119200D01*
X0120162Y0119200D01*
X0116529Y0122832D01*
X0116568Y0122925D01*
X0116568Y0124050D01*
X0120453Y0126900D01*
X0125899Y0126900D01*
X0125649Y0126468D01*
X0125499Y0125909D01*
X0125499Y0123454D01*
X0129668Y0123454D01*
X0125499Y0124226D02*
X0116806Y0124226D01*
X0120077Y0126624D02*
X0125739Y0126624D01*
X0118502Y0131421D02*
X0100568Y0131421D01*
X0100568Y0129023D02*
X0115231Y0129023D01*
X0108769Y0126624D02*
X0100568Y0126624D01*
X0100568Y0124226D02*
X0107768Y0124226D01*
X0108222Y0121827D02*
X0100568Y0121827D01*
X0100568Y0119429D02*
X0111224Y0119429D01*
X0113112Y0119429D02*
X0113145Y0119429D01*
X0115544Y0117030D02*
X0100577Y0117030D01*
X0100501Y0114632D02*
X0118131Y0114632D01*
X0116207Y0112233D02*
X0100426Y0112233D01*
X0100350Y0109834D02*
X0113808Y0109834D01*
X0118198Y0107436D02*
X0129064Y0107436D01*
X0129132Y0107271D02*
X0128587Y0108588D01*
X0128587Y0110012D01*
X0129132Y0111329D01*
X0129703Y0111900D01*
X0122662Y0111900D01*
X0116529Y0105768D01*
X0116568Y0105675D01*
X0116568Y0104337D01*
X0124441Y0096464D01*
X0125269Y0096464D01*
X0125269Y0097841D01*
X0125422Y0097994D01*
X0125309Y0098107D01*
X0125019Y0098608D01*
X0124869Y0099168D01*
X0124869Y0101623D01*
X0129038Y0101623D01*
X0133206Y0101623D01*
X0133206Y0104078D01*
X0133056Y0104637D01*
X0132767Y0105139D01*
X0132357Y0105549D01*
X0132062Y0105719D01*
X0132880Y0105719D01*
X0134196Y0106264D01*
X0134832Y0106900D01*
X0138311Y0106900D01*
X0138311Y0106563D01*
X0136806Y0106563D01*
X0135752Y0105508D01*
X0135752Y0093778D01*
X0134874Y0092900D01*
X0133952Y0092900D01*
X0132806Y0092426D01*
X0132806Y0097841D01*
X0132654Y0097994D01*
X0132767Y0098107D01*
X0133056Y0098608D01*
X0133206Y0099168D01*
X0133206Y0101623D01*
X0129038Y0101623D01*
X0129038Y0101623D01*
X0129038Y0101623D01*
X0129038Y0105988D01*
X0130805Y0105988D01*
X0130139Y0106264D01*
X0129132Y0107271D01*
X0129038Y0105988D02*
X0126780Y0105988D01*
X0126220Y0105838D01*
X0125718Y0105549D01*
X0125309Y0105139D01*
X0125019Y0104637D01*
X0124869Y0104078D01*
X0124869Y0101623D01*
X0129038Y0101623D01*
X0129038Y0105988D01*
X0129038Y0105037D02*
X0129038Y0105037D01*
X0129038Y0102639D02*
X0129038Y0102639D01*
X0129038Y0101623D02*
X0129038Y0101623D01*
X0133206Y0102639D02*
X0135752Y0102639D01*
X0135752Y0105037D02*
X0132825Y0105037D01*
X0133206Y0100240D02*
X0135752Y0100240D01*
X0135752Y0097842D02*
X0132805Y0097842D01*
X0132806Y0095443D02*
X0135752Y0095443D01*
X0135019Y0093045D02*
X0132806Y0093045D01*
X0131329Y0090646D02*
X0110049Y0090646D01*
X0112448Y0088248D02*
X0131207Y0088248D01*
X0133591Y0085849D02*
X0114846Y0085849D01*
X0117245Y0083451D02*
X0126312Y0083451D01*
X0128023Y0083451D02*
X0147924Y0083451D01*
X0148547Y0085849D02*
X0135744Y0085849D01*
X0138129Y0088248D02*
X0148547Y0088248D01*
X0148547Y0090646D02*
X0139408Y0090646D01*
X0145544Y0093045D02*
X0148547Y0093045D01*
X0148547Y0095443D02*
X0145591Y0095443D01*
X0145687Y0097842D02*
X0148547Y0097842D01*
X0148388Y0100240D02*
X0148388Y0100240D01*
X0148388Y0102639D02*
X0148388Y0102639D01*
X0148388Y0105037D02*
X0148388Y0105037D01*
X0148481Y0107436D02*
X0179768Y0107436D01*
X0179768Y0109834D02*
X0158754Y0109834D01*
X0161152Y0112233D02*
X0179768Y0112233D01*
X0184568Y0112233D02*
X0214768Y0112233D01*
X0214768Y0109834D02*
X0184568Y0109834D01*
X0184568Y0107436D02*
X0214768Y0107436D01*
X0219568Y0107436D02*
X0254127Y0107436D01*
X0256525Y0109834D02*
X0219568Y0109834D01*
X0219568Y0112233D02*
X0257068Y0112233D01*
X0262068Y0108300D02*
X0262068Y0105377D01*
X0251091Y0094400D01*
X0244151Y0094400D01*
X0243195Y0094004D01*
X0242464Y0093273D01*
X0235695Y0086504D01*
X0235695Y0086504D01*
X0234964Y0085773D01*
X0234568Y0084817D01*
X0234568Y0069522D01*
X0234198Y0069736D01*
X0233638Y0069886D01*
X0232168Y0069886D01*
X0232168Y0065324D01*
X0232168Y0065324D01*
X0232168Y0069886D01*
X0230697Y0069886D01*
X0230137Y0069736D01*
X0229768Y0069522D01*
X0229768Y0080723D01*
X0245745Y0096700D01*
X0250185Y0096700D01*
X0251140Y0097096D01*
X0261140Y0107096D01*
X0261872Y0107827D01*
X0262068Y0108300D01*
X0262068Y0107436D02*
X0261481Y0107436D01*
X0267268Y0107436D02*
X0269568Y0107436D01*
X0269568Y0109834D02*
X0267268Y0109834D01*
X0267268Y0112233D02*
X0269568Y0112233D01*
X0269568Y0112222D02*
X0269538Y0112132D01*
X0269568Y0111708D01*
X0269568Y0067222D01*
X0269538Y0067132D01*
X0269568Y0066708D01*
X0269568Y0066283D01*
X0269604Y0066195D01*
X0269611Y0066100D01*
X0269801Y0065720D01*
X0269964Y0065327D01*
X0270031Y0065260D01*
X0272301Y0060720D01*
X0272464Y0060327D01*
X0272531Y0060260D01*
X0272573Y0060175D01*
X0272895Y0059896D01*
X0273195Y0059596D01*
X0273283Y0059559D01*
X0273355Y0059497D01*
X0273758Y0059363D01*
X0274151Y0059200D01*
X0274246Y0059200D01*
X0274336Y0059170D01*
X0274760Y0059200D01*
X0277756Y0059200D01*
X0277810Y0059068D01*
X0278483Y0058395D01*
X0278615Y0058341D01*
X0278615Y0052201D01*
X0278580Y0052090D01*
X0278615Y0051687D01*
X0278615Y0051283D01*
X0278659Y0051175D01*
X0278670Y0051059D01*
X0278856Y0050701D01*
X0279011Y0050327D01*
X0279093Y0050245D01*
X0279147Y0050142D01*
X0279456Y0049882D01*
X0279742Y0049596D01*
X0279850Y0049551D01*
X0285105Y0045137D01*
X0285109Y0045131D01*
X0285502Y0044804D01*
X0285891Y0044476D01*
X0285898Y0044474D01*
X0290414Y0040723D01*
X0290695Y0040442D01*
X0290809Y0040395D01*
X0290904Y0040316D01*
X0291284Y0040198D01*
X0291651Y0040046D01*
X0291774Y0040046D01*
X0291892Y0040010D01*
X0292288Y0040046D01*
X0305899Y0040046D01*
X0305899Y0039736D01*
X0306335Y0039300D01*
X0305899Y0038864D01*
X0305899Y0033043D01*
X0306046Y0032896D01*
X0304054Y0031900D01*
X0255745Y0031900D01*
X0249768Y0037877D01*
X0249768Y0039078D01*
X0250137Y0038864D01*
X0250697Y0038714D01*
X0252168Y0038714D01*
X0253638Y0038714D01*
X0254198Y0038864D01*
X0254700Y0039154D01*
X0255109Y0039563D01*
X0255399Y0040065D01*
X0255549Y0040625D01*
X0255549Y0043276D01*
X0252168Y0043276D01*
X0252168Y0038714D01*
X0252168Y0043276D01*
X0252168Y0043276D01*
X0252168Y0043276D01*
X0255549Y0043276D01*
X0255549Y0045928D01*
X0255399Y0046488D01*
X0255109Y0046989D01*
X0254700Y0047399D01*
X0254198Y0047689D01*
X0253638Y0047839D01*
X0252168Y0047839D01*
X0252168Y0043277D01*
X0252168Y0043277D01*
X0252168Y0047839D01*
X0250697Y0047839D01*
X0250137Y0047689D01*
X0249636Y0047399D01*
X0249385Y0047148D01*
X0249094Y0047439D01*
X0245241Y0047439D01*
X0244668Y0046865D01*
X0244094Y0047439D01*
X0240241Y0047439D01*
X0239668Y0046865D01*
X0239094Y0047439D01*
X0235241Y0047439D01*
X0234668Y0046865D01*
X0234094Y0047439D01*
X0230241Y0047439D01*
X0229668Y0046865D01*
X0229094Y0047439D01*
X0225241Y0047439D01*
X0224668Y0046865D01*
X0224094Y0047439D01*
X0220241Y0047439D01*
X0219668Y0046865D01*
X0219094Y0047439D01*
X0215241Y0047439D01*
X0214768Y0046965D01*
X0214768Y0052693D01*
X0223248Y0056933D01*
X0223640Y0057096D01*
X0223708Y0057163D01*
X0223793Y0057206D01*
X0224071Y0057527D01*
X0224372Y0057827D01*
X0224408Y0057915D01*
X0224471Y0057987D01*
X0224605Y0058390D01*
X0224768Y0058783D01*
X0224768Y0058878D01*
X0224798Y0058968D01*
X0224768Y0059392D01*
X0224768Y0061635D01*
X0225241Y0061161D01*
X0229094Y0061161D01*
X0229385Y0061452D01*
X0229636Y0061201D01*
X0230137Y0060911D01*
X0230697Y0060761D01*
X0232168Y0060761D01*
X0233638Y0060761D01*
X0234198Y0060911D01*
X0234700Y0061201D01*
X0234951Y0061452D01*
X0235241Y0061161D01*
X0239094Y0061161D01*
X0239668Y0061735D01*
X0239768Y0061635D01*
X0239768Y0057794D01*
X0237374Y0055400D01*
X0236452Y0055400D01*
X0235128Y0054852D01*
X0234116Y0053839D01*
X0233568Y0052516D01*
X0233568Y0051084D01*
X0234116Y0049761D01*
X0235128Y0048748D01*
X0236452Y0048200D01*
X0237884Y0048200D01*
X0239207Y0048748D01*
X0240220Y0049761D01*
X0240768Y0051084D01*
X0240768Y0052006D01*
X0243527Y0054765D01*
X0243942Y0055180D01*
X0244116Y0054761D01*
X0245128Y0053748D01*
X0246452Y0053200D01*
X0247884Y0053200D01*
X0249207Y0053748D01*
X0250220Y0054761D01*
X0250768Y0056084D01*
X0250768Y0057516D01*
X0250220Y0058839D01*
X0249768Y0059291D01*
X0249768Y0061635D01*
X0250241Y0061161D01*
X0254094Y0061161D01*
X0255149Y0062216D01*
X0255149Y0068431D01*
X0254094Y0069486D01*
X0250241Y0069486D01*
X0249668Y0068913D01*
X0249094Y0069486D01*
X0245241Y0069486D01*
X0244768Y0069012D01*
X0244768Y0076809D01*
X0245220Y0077261D01*
X0245768Y0078584D01*
X0245768Y0080016D01*
X0245220Y0081339D01*
X0244207Y0082352D01*
X0242884Y0082900D01*
X0241452Y0082900D01*
X0240128Y0082352D01*
X0239768Y0081991D01*
X0239768Y0083223D01*
X0245745Y0089200D01*
X0252685Y0089200D01*
X0253640Y0089596D01*
X0266140Y0102096D01*
X0266140Y0102096D01*
X0266872Y0102827D01*
X0267268Y0103783D01*
X0267268Y0139109D01*
X0267628Y0138748D01*
X0268952Y0138200D01*
X0270384Y0138200D01*
X0271707Y0138748D01*
X0272359Y0139400D01*
X0277756Y0139400D01*
X0277756Y0139400D01*
X0276651Y0139400D01*
X0275695Y0139004D01*
X0270695Y0134004D01*
X0270695Y0134004D01*
X0269964Y0133273D01*
X0269568Y0132317D01*
X0269568Y0124291D01*
X0269116Y0123839D01*
X0268568Y0122516D01*
X0268568Y0121084D01*
X0269116Y0119761D01*
X0269568Y0119309D01*
X0269568Y0112222D01*
X0269568Y0114632D02*
X0267268Y0114632D01*
X0267268Y0117030D02*
X0269568Y0117030D01*
X0269448Y0119429D02*
X0267268Y0119429D01*
X0267268Y0121827D02*
X0268568Y0121827D01*
X0269502Y0124226D02*
X0267268Y0124226D01*
X0267268Y0126624D02*
X0269568Y0126624D01*
X0269568Y0129023D02*
X0267268Y0129023D01*
X0267268Y0131421D02*
X0269568Y0131421D01*
X0270510Y0133820D02*
X0267268Y0133820D01*
X0267268Y0136218D02*
X0272909Y0136218D01*
X0271390Y0138617D02*
X0275307Y0138617D01*
X0267946Y0138617D02*
X0267268Y0138617D01*
X0252168Y0155406D02*
X0252168Y0155406D01*
X0252168Y0157805D02*
X0252168Y0157805D01*
X0252168Y0158276D02*
X0250149Y0158276D01*
X0250149Y0158276D01*
X0252168Y0158276D01*
X0252168Y0158276D01*
X0252168Y0160203D02*
X0252168Y0160203D01*
X0272746Y0167399D02*
X0277446Y0167399D01*
X0278076Y0169797D02*
X0246342Y0169797D01*
X0247772Y0172196D02*
X0256681Y0172196D01*
X0256068Y0174594D02*
X0248972Y0174594D01*
X0243158Y0174594D02*
X0239465Y0174594D01*
X0254926Y0176993D02*
X0257068Y0176993D01*
X0275144Y0165000D02*
X0277446Y0165000D01*
X0277543Y0162602D02*
X0284293Y0162602D01*
X0331336Y0181068D02*
X0331336Y0181068D01*
X0343059Y0188985D02*
X0347027Y0188985D01*
X0351227Y0188985D02*
X0363350Y0188985D01*
X0367550Y0181790D02*
X0370348Y0181790D01*
X0378774Y0184188D02*
X0385663Y0184188D01*
X0384726Y0186587D02*
X0379219Y0186587D01*
X0378942Y0188985D02*
X0384621Y0188985D01*
X0384344Y0181790D02*
X0379219Y0181790D01*
X0404875Y0184188D02*
X0405338Y0184188D01*
X0405552Y0186587D02*
X0404875Y0186587D01*
X0406568Y0187603D02*
X0406568Y0187603D01*
X0407942Y0188985D02*
X0404875Y0188985D01*
X0412979Y0181068D02*
X0412979Y0181068D01*
X0431181Y0169797D02*
X0433612Y0169797D01*
X0431810Y0167399D02*
X0451169Y0167399D01*
X0451169Y0169797D02*
X0437692Y0169797D01*
X0443587Y0172196D02*
X0451169Y0172196D01*
X0451169Y0174594D02*
X0446187Y0174594D01*
X0447753Y0176993D02*
X0451169Y0176993D01*
X0451169Y0179391D02*
X0448752Y0179391D01*
X0449352Y0181790D02*
X0451169Y0181790D01*
X0451169Y0184188D02*
X0449352Y0184188D01*
X0448990Y0186587D02*
X0451091Y0186587D01*
X0450566Y0188985D02*
X0448266Y0188985D01*
X0446881Y0191384D02*
X0449677Y0191384D01*
X0448236Y0193782D02*
X0444678Y0193782D01*
X0445816Y0196181D02*
X0440973Y0196181D01*
X0426626Y0193782D02*
X0319654Y0193782D01*
X0294668Y0196181D02*
X0294668Y0196181D01*
X0291195Y0196181D02*
X0288141Y0196181D01*
X0284668Y0196181D02*
X0284668Y0196181D01*
X0281195Y0196181D02*
X0271181Y0196181D01*
X0214187Y0160203D02*
X0212041Y0160203D01*
X0210444Y0160203D02*
X0207271Y0160203D01*
X0204668Y0160203D02*
X0204668Y0160203D01*
X0204668Y0157805D02*
X0204668Y0157805D01*
X0204668Y0155406D02*
X0204668Y0155406D01*
X0204668Y0155300D02*
X0204668Y0155300D01*
X0204668Y0153008D02*
X0204668Y0153008D01*
X0208368Y0153008D02*
X0214568Y0153008D01*
X0214187Y0155406D02*
X0208368Y0155406D01*
X0208368Y0157805D02*
X0214187Y0157805D01*
X0186368Y0153008D02*
X0174158Y0153008D01*
X0175757Y0155406D02*
X0180504Y0155406D01*
X0179712Y0157805D02*
X0177356Y0157805D01*
X0178955Y0160203D02*
X0180427Y0160203D01*
X0183752Y0167399D02*
X0186240Y0167399D01*
X0151288Y0172196D02*
X0098718Y0172196D01*
X0098185Y0174594D02*
X0151289Y0174594D01*
X0162386Y0188985D02*
X0139608Y0188985D01*
X0146178Y0191384D02*
X0162947Y0191384D01*
X0114668Y0193782D02*
X0114668Y0193782D01*
X0110106Y0193782D02*
X0108836Y0193782D01*
X0108836Y0191384D02*
X0110106Y0191384D01*
X0104668Y0193782D02*
X0104668Y0193782D01*
X0093843Y0174594D02*
X0093293Y0174594D01*
X0093293Y0172196D02*
X0093843Y0172196D01*
X0088951Y0174594D02*
X0088619Y0174594D01*
X0073096Y0137765D02*
X0069861Y0137765D01*
X0066873Y0136528D01*
X0064586Y0134240D01*
X0063348Y0131252D01*
X0063348Y0128017D01*
X0064586Y0125029D01*
X0066873Y0122742D01*
X0069861Y0121504D01*
X0073096Y0121504D01*
X0075324Y0122427D01*
X0075173Y0121961D01*
X0075028Y0121044D01*
X0075028Y0120580D01*
X0080927Y0120580D01*
X0080927Y0126480D01*
X0080463Y0126480D01*
X0079546Y0126334D01*
X0078814Y0126096D01*
X0079609Y0128017D01*
X0079609Y0131252D01*
X0078372Y0134240D01*
X0076084Y0136528D01*
X0073096Y0137765D01*
X0076394Y0136218D02*
X0081586Y0136218D01*
X0081087Y0133820D02*
X0078546Y0133820D01*
X0079539Y0131421D02*
X0082482Y0131421D01*
X0079609Y0129023D02*
X0089326Y0129023D01*
X0088587Y0126624D02*
X0079032Y0126624D01*
X0080928Y0126480D02*
X0080928Y0120580D01*
X0086828Y0120580D01*
X0086828Y0121044D01*
X0086682Y0121961D01*
X0086395Y0122844D01*
X0085974Y0123672D01*
X0085428Y0124423D01*
X0084771Y0125080D01*
X0084020Y0125626D01*
X0083192Y0126047D01*
X0082309Y0126334D01*
X0081392Y0126480D01*
X0080928Y0126480D01*
X0080927Y0124226D02*
X0080928Y0124226D01*
X0085571Y0124226D02*
X0089678Y0124226D01*
X0089768Y0121827D02*
X0086704Y0121827D01*
X0086719Y0119429D02*
X0089768Y0119429D01*
X0089768Y0117030D02*
X0085641Y0117030D01*
X0085311Y0114632D02*
X0089768Y0114632D01*
X0089768Y0112233D02*
X0086428Y0112233D01*
X0086300Y0109834D02*
X0089768Y0109834D01*
X0089410Y0107436D02*
X0084905Y0107436D01*
X0085773Y0105037D02*
X0087006Y0105037D01*
X0100199Y0105037D02*
X0107768Y0105037D01*
X0108300Y0102639D02*
X0100123Y0102639D01*
X0100048Y0100240D02*
X0113876Y0100240D01*
X0116275Y0097842D02*
X0099691Y0097842D01*
X0096131Y0095443D02*
X0118673Y0095443D01*
X0121072Y0093045D02*
X0107651Y0093045D01*
X0097492Y0093045D02*
X0090138Y0093045D01*
X0077670Y0097842D02*
X0075450Y0097842D01*
X0075450Y0097073D02*
X0074786Y0095469D01*
X0073558Y0094241D01*
X0071953Y0093576D01*
X0070217Y0093576D01*
X0068612Y0094241D01*
X0067384Y0095469D01*
X0066720Y0097073D01*
X0066720Y0098810D01*
X0067384Y0100415D01*
X0068612Y0101642D01*
X0070217Y0102307D01*
X0071953Y0102307D01*
X0073558Y0101642D01*
X0074786Y0100415D01*
X0075450Y0098810D01*
X0075450Y0097073D01*
X0075978Y0095443D02*
X0074760Y0095443D01*
X0075428Y0093045D02*
X0061868Y0093045D01*
X0061868Y0095443D02*
X0067410Y0095443D01*
X0066720Y0097842D02*
X0061868Y0097842D01*
X0061868Y0100240D02*
X0067312Y0100240D01*
X0061868Y0102639D02*
X0075428Y0102639D01*
X0075854Y0100240D02*
X0074858Y0100240D01*
X0076082Y0105037D02*
X0061868Y0105037D01*
X0061868Y0107436D02*
X0076950Y0107436D01*
X0075555Y0109834D02*
X0061868Y0109834D01*
X0061868Y0112233D02*
X0068337Y0112233D01*
X0068612Y0111957D02*
X0070217Y0111293D01*
X0071953Y0111293D01*
X0073558Y0111957D01*
X0074786Y0113185D01*
X0075450Y0114790D01*
X0075450Y0116527D01*
X0074786Y0118131D01*
X0073558Y0119359D01*
X0071953Y0120024D01*
X0070217Y0120024D01*
X0068612Y0119359D01*
X0067384Y0118131D01*
X0066720Y0116527D01*
X0066720Y0114790D01*
X0067384Y0113185D01*
X0068612Y0111957D01*
X0066785Y0114632D02*
X0061868Y0114632D01*
X0061868Y0117030D02*
X0066928Y0117030D01*
X0068780Y0119429D02*
X0061868Y0119429D01*
X0061868Y0121827D02*
X0069081Y0121827D01*
X0073876Y0121827D02*
X0075152Y0121827D01*
X0075136Y0119429D02*
X0073390Y0119429D01*
X0075242Y0117030D02*
X0076214Y0117030D01*
X0076544Y0114632D02*
X0075385Y0114632D01*
X0075428Y0112233D02*
X0073833Y0112233D01*
X0080927Y0121827D02*
X0080928Y0121827D01*
X0065389Y0124226D02*
X0061868Y0124226D01*
X0061868Y0126624D02*
X0063925Y0126624D01*
X0063348Y0129023D02*
X0061868Y0129023D01*
X0061868Y0131421D02*
X0063418Y0131421D01*
X0064412Y0133820D02*
X0061868Y0133820D01*
X0061868Y0136218D02*
X0066564Y0136218D01*
X0100568Y0136218D02*
X0128696Y0136218D01*
X0126661Y0133820D02*
X0100568Y0133820D01*
X0117535Y0121827D02*
X0125499Y0121827D01*
X0126520Y0119429D02*
X0119933Y0119429D01*
X0132815Y0119429D02*
X0149369Y0119429D01*
X0153306Y0121827D02*
X0133836Y0121827D01*
X0128587Y0109834D02*
X0120596Y0109834D01*
X0116568Y0105037D02*
X0125250Y0105037D01*
X0124869Y0102639D02*
X0118266Y0102639D01*
X0120665Y0100240D02*
X0124869Y0100240D01*
X0125270Y0097842D02*
X0123063Y0097842D01*
X0108581Y0107436D02*
X0100274Y0107436D01*
X0066661Y0090646D02*
X0061868Y0090646D01*
X0061868Y0088248D02*
X0064452Y0088248D01*
X0063459Y0085849D02*
X0061868Y0085849D01*
X0061868Y0083451D02*
X0063348Y0083451D01*
X0063885Y0081052D02*
X0061868Y0081052D01*
X0061868Y0078654D02*
X0065292Y0078654D01*
X0061868Y0076255D02*
X0068846Y0076255D01*
X0074112Y0076255D02*
X0078399Y0076255D01*
X0078399Y0073857D02*
X0061868Y0073857D01*
X0061868Y0071458D02*
X0078147Y0071458D01*
X0077999Y0069060D02*
X0061868Y0069060D01*
X0061868Y0066661D02*
X0077999Y0066661D01*
X0077999Y0065999D02*
X0078149Y0065439D01*
X0078439Y0064937D01*
X0078848Y0064528D01*
X0079350Y0064238D01*
X0079910Y0064088D01*
X0082168Y0064088D01*
X0084426Y0064088D01*
X0084985Y0064238D01*
X0085487Y0064528D01*
X0085897Y0064937D01*
X0086186Y0065439D01*
X0086336Y0065999D01*
X0086336Y0068453D01*
X0082168Y0068453D01*
X0082168Y0064088D01*
X0082168Y0068453D01*
X0082168Y0068453D01*
X0082168Y0068454D01*
X0082168Y0068453D01*
X0077999Y0068453D01*
X0077999Y0065999D01*
X0079307Y0064263D02*
X0061868Y0064263D01*
X0061868Y0061864D02*
X0095560Y0061864D01*
X0093161Y0064263D02*
X0085028Y0064263D01*
X0086336Y0066661D02*
X0091132Y0066661D01*
X0091028Y0069060D02*
X0086336Y0069060D01*
X0086189Y0071458D02*
X0090545Y0071458D01*
X0090545Y0073857D02*
X0085936Y0073857D01*
X0085936Y0076255D02*
X0090545Y0076255D01*
X0092943Y0078654D02*
X0085890Y0078654D01*
X0085890Y0081052D02*
X0090803Y0081052D01*
X0090545Y0083451D02*
X0087984Y0083451D01*
X0088252Y0085849D02*
X0090545Y0085849D01*
X0083052Y0085849D02*
X0079499Y0085849D01*
X0079609Y0083451D02*
X0080972Y0083451D01*
X0080690Y0081052D02*
X0079073Y0081052D01*
X0078996Y0078654D02*
X0077666Y0078654D01*
X0093066Y0078531D02*
X0093066Y0078531D01*
X0097168Y0074181D02*
X0097168Y0074181D01*
X0097168Y0069619D01*
X0098540Y0069619D01*
X0099100Y0069769D01*
X0099533Y0070019D01*
X0102736Y0070019D01*
X0103791Y0071074D01*
X0103791Y0071781D01*
X0108792Y0071781D01*
X0111068Y0069506D01*
X0111068Y0068584D01*
X0111616Y0067261D01*
X0112068Y0066809D01*
X0112068Y0061892D01*
X0112038Y0061468D01*
X0112068Y0061378D01*
X0112068Y0061283D01*
X0112230Y0060890D01*
X0112424Y0060309D01*
X0110768Y0062057D01*
X0110768Y0062792D01*
X0110220Y0064115D01*
X0109207Y0065128D01*
X0107884Y0065676D01*
X0106558Y0065676D01*
X0106366Y0065755D01*
X0098457Y0065755D01*
X0095828Y0068385D01*
X0095828Y0069619D01*
X0097168Y0069619D01*
X0097168Y0074181D01*
X0097168Y0073857D02*
X0097168Y0073857D01*
X0097168Y0071458D02*
X0097168Y0071458D01*
X0095828Y0069060D02*
X0111068Y0069060D01*
X0112068Y0066661D02*
X0097551Y0066661D01*
X0103791Y0071458D02*
X0109115Y0071458D01*
X0110072Y0064263D02*
X0112068Y0064263D01*
X0112066Y0061864D02*
X0110950Y0061864D01*
X0108332Y0057067D02*
X0061868Y0057067D01*
X0061868Y0054669D02*
X0062999Y0054669D01*
X0062999Y0052270D02*
X0061868Y0052270D01*
X0061868Y0049872D02*
X0063085Y0049872D01*
X0063399Y0047473D02*
X0061868Y0047473D01*
X0061868Y0045075D02*
X0063399Y0045075D01*
X0063766Y0042676D02*
X0061868Y0042676D01*
X0061868Y0040278D02*
X0089513Y0040278D01*
X0089070Y0037879D02*
X0071262Y0037879D01*
X0071336Y0035481D02*
X0086671Y0035481D01*
X0081727Y0033082D02*
X0071336Y0033082D01*
X0067168Y0035481D02*
X0067168Y0035481D01*
X0067168Y0037879D02*
X0067168Y0037879D01*
X0063074Y0037879D02*
X0061868Y0037879D01*
X0061868Y0035481D02*
X0062999Y0035481D01*
X0062999Y0033082D02*
X0061868Y0033082D01*
X0061868Y0030684D02*
X0063399Y0030684D01*
X0063399Y0028285D02*
X0061868Y0028285D01*
X0061868Y0025887D02*
X0063399Y0025887D01*
X0061868Y0023488D02*
X0099118Y0023488D01*
X0099118Y0025887D02*
X0086718Y0025887D01*
X0088803Y0028285D02*
X0099118Y0028285D01*
X0099756Y0030684D02*
X0089228Y0030684D01*
X0091627Y0033082D02*
X0132725Y0033082D01*
X0139129Y0035481D02*
X0186040Y0035481D01*
X0188439Y0037879D02*
X0137929Y0037879D01*
X0137168Y0042676D02*
X0137168Y0042676D01*
X0137168Y0045075D02*
X0137168Y0045075D01*
X0137168Y0047473D02*
X0137168Y0047473D01*
X0140618Y0047473D02*
X0141548Y0047473D01*
X0140618Y0045075D02*
X0191268Y0045075D01*
X0191268Y0047473D02*
X0160287Y0047473D01*
X0160749Y0049872D02*
X0191268Y0049872D01*
X0191268Y0052270D02*
X0159568Y0052270D01*
X0159568Y0054669D02*
X0191268Y0054669D01*
X0191268Y0057067D02*
X0190310Y0057067D01*
X0190310Y0057054D02*
X0190310Y0064546D01*
X0189410Y0065446D01*
X0189410Y0078154D01*
X0190310Y0079054D01*
X0190310Y0086546D01*
X0189256Y0087600D01*
X0187002Y0087600D01*
X0187265Y0088233D01*
X0187265Y0089658D01*
X0186719Y0090974D01*
X0185712Y0091982D01*
X0184396Y0092527D01*
X0182971Y0092527D01*
X0181655Y0091982D01*
X0180648Y0090974D01*
X0180102Y0089658D01*
X0180102Y0088233D01*
X0180648Y0086917D01*
X0181283Y0086281D01*
X0181283Y0085649D01*
X0181649Y0084767D01*
X0183710Y0082706D01*
X0183710Y0079054D01*
X0184610Y0078154D01*
X0184610Y0065446D01*
X0183710Y0064546D01*
X0183710Y0057054D01*
X0184765Y0056000D01*
X0189256Y0056000D01*
X0190310Y0057054D01*
X0190310Y0059466D02*
X0191268Y0059466D01*
X0191268Y0061864D02*
X0190310Y0061864D01*
X0183710Y0061864D02*
X0163126Y0061864D01*
X0160728Y0059466D02*
X0183710Y0059466D01*
X0183710Y0057067D02*
X0159568Y0057067D01*
X0151338Y0061864D02*
X0147168Y0061864D01*
X0148249Y0059466D02*
X0149768Y0059466D01*
X0149768Y0057067D02*
X0147499Y0057067D01*
X0147068Y0054669D02*
X0149768Y0054669D01*
X0149768Y0052270D02*
X0147068Y0052270D01*
X0148249Y0049872D02*
X0148587Y0049872D01*
X0142268Y0052270D02*
X0139405Y0052270D01*
X0137168Y0052270D02*
X0137168Y0052270D01*
X0134930Y0052270D02*
X0134568Y0052270D01*
X0134568Y0054669D02*
X0142268Y0054669D01*
X0141836Y0057067D02*
X0135230Y0057067D01*
X0136829Y0059466D02*
X0141087Y0059466D01*
X0142168Y0061864D02*
X0138428Y0061864D01*
X0129765Y0064263D02*
X0125568Y0064263D01*
X0125568Y0066661D02*
X0131564Y0066661D01*
X0132566Y0067998D02*
X0125568Y0058667D01*
X0125568Y0070771D01*
X0126592Y0072307D01*
X0126592Y0072307D01*
X0128262Y0074812D01*
X0130808Y0072265D01*
X0131690Y0071900D01*
X0134856Y0071900D01*
X0134856Y0071586D01*
X0135910Y0070531D01*
X0141732Y0070531D01*
X0141885Y0070684D01*
X0141998Y0070571D01*
X0142500Y0070281D01*
X0143059Y0070131D01*
X0145514Y0070131D01*
X0145514Y0074300D01*
X0145514Y0074300D01*
X0145514Y0070131D01*
X0147105Y0070131D01*
X0146174Y0069200D01*
X0134970Y0069200D01*
X0134801Y0069243D01*
X0134497Y0069200D01*
X0134190Y0069200D01*
X0134029Y0069133D01*
X0133856Y0069108D01*
X0133592Y0068952D01*
X0133308Y0068835D01*
X0133185Y0068711D01*
X0133034Y0068622D01*
X0132850Y0068376D01*
X0132633Y0068159D01*
X0132566Y0067998D01*
X0133774Y0069060D02*
X0125568Y0069060D01*
X0126026Y0071458D02*
X0134983Y0071458D01*
X0129217Y0073857D02*
X0127625Y0073857D01*
X0122651Y0078654D02*
X0122042Y0078654D01*
X0123388Y0081052D02*
X0119643Y0081052D01*
X0145514Y0074300D02*
X0149880Y0074300D01*
X0149880Y0072906D01*
X0151106Y0074133D01*
X0151106Y0079844D01*
X0149202Y0077941D01*
X0149161Y0077899D01*
X0149440Y0077619D01*
X0149730Y0077118D01*
X0149880Y0076558D01*
X0149880Y0074300D01*
X0145514Y0074300D01*
X0145514Y0074300D01*
X0145514Y0073857D02*
X0145514Y0073857D01*
X0145514Y0071458D02*
X0145514Y0071458D01*
X0149880Y0073857D02*
X0150830Y0073857D01*
X0151106Y0076255D02*
X0149880Y0076255D01*
X0149916Y0078654D02*
X0151106Y0078654D01*
X0163583Y0078654D02*
X0184111Y0078654D01*
X0183710Y0081052D02*
X0163583Y0081052D01*
X0163583Y0083451D02*
X0182965Y0083451D01*
X0181283Y0085849D02*
X0163583Y0085849D01*
X0163583Y0088248D02*
X0180102Y0088248D01*
X0180512Y0090646D02*
X0163583Y0090646D01*
X0163583Y0093045D02*
X0234736Y0093045D01*
X0234517Y0093250D02*
X0235019Y0093540D01*
X0235428Y0093949D01*
X0235718Y0094451D01*
X0235868Y0095010D01*
X0235868Y0098300D01*
X0235868Y0101590D01*
X0235718Y0102149D01*
X0235428Y0102651D01*
X0235019Y0103060D01*
X0234517Y0103350D01*
X0233957Y0103500D01*
X0232168Y0103500D01*
X0232168Y0098300D01*
X0235868Y0098300D01*
X0232168Y0098300D01*
X0232168Y0098300D01*
X0232168Y0098300D01*
X0232168Y0093100D01*
X0233957Y0093100D01*
X0234517Y0093250D01*
X0232168Y0093100D02*
X0230378Y0093100D01*
X0229819Y0093250D01*
X0229317Y0093540D01*
X0228907Y0093949D01*
X0228618Y0094451D01*
X0228468Y0095010D01*
X0228468Y0098300D01*
X0232168Y0098300D01*
X0232168Y0098300D01*
X0232168Y0103500D01*
X0230378Y0103500D01*
X0229819Y0103350D01*
X0229317Y0103060D01*
X0228907Y0102651D01*
X0228618Y0102149D01*
X0228468Y0101590D01*
X0228468Y0098300D01*
X0232168Y0098300D01*
X0232168Y0093100D01*
X0232168Y0095443D02*
X0232168Y0095443D01*
X0232168Y0097842D02*
X0232168Y0097842D01*
X0232168Y0098300D02*
X0232168Y0098300D01*
X0232168Y0100240D02*
X0232168Y0100240D01*
X0232168Y0102639D02*
X0232168Y0102639D01*
X0235435Y0102639D02*
X0249330Y0102639D01*
X0251728Y0105037D02*
X0219568Y0105037D01*
X0219874Y0102639D02*
X0228900Y0102639D01*
X0228468Y0100240D02*
X0220468Y0100240D01*
X0220468Y0097842D02*
X0228468Y0097842D01*
X0228468Y0095443D02*
X0220468Y0095443D01*
X0213868Y0095443D02*
X0200868Y0095443D01*
X0200868Y0095010D02*
X0200868Y0098300D01*
X0200868Y0101590D01*
X0200718Y0102149D01*
X0200428Y0102651D01*
X0200019Y0103060D01*
X0199517Y0103350D01*
X0198957Y0103500D01*
X0197168Y0103500D01*
X0197168Y0098300D01*
X0200868Y0098300D01*
X0197168Y0098300D01*
X0197168Y0098300D01*
X0197168Y0098300D01*
X0197168Y0093100D01*
X0198957Y0093100D01*
X0199517Y0093250D01*
X0200019Y0093540D01*
X0200428Y0093949D01*
X0200718Y0094451D01*
X0200868Y0095010D01*
X0200868Y0097842D02*
X0213868Y0097842D01*
X0213868Y0100240D02*
X0200868Y0100240D01*
X0200435Y0102639D02*
X0214461Y0102639D01*
X0214768Y0105037D02*
X0184568Y0105037D01*
X0184874Y0102639D02*
X0193900Y0102639D01*
X0193907Y0102651D02*
X0193618Y0102149D01*
X0193468Y0101590D01*
X0193468Y0098300D01*
X0193468Y0095010D01*
X0193618Y0094451D01*
X0193907Y0093949D01*
X0194317Y0093540D01*
X0194819Y0093250D01*
X0195378Y0093100D01*
X0197168Y0093100D01*
X0197168Y0098300D01*
X0197168Y0098300D01*
X0197168Y0103500D01*
X0195378Y0103500D01*
X0194819Y0103350D01*
X0194317Y0103060D01*
X0193907Y0102651D01*
X0193468Y0100240D02*
X0185468Y0100240D01*
X0185468Y0097842D02*
X0193468Y0097842D01*
X0193468Y0098300D02*
X0197168Y0098300D01*
X0197168Y0098300D01*
X0193468Y0098300D01*
X0193468Y0095443D02*
X0185468Y0095443D01*
X0178868Y0095443D02*
X0163583Y0095443D01*
X0163583Y0097842D02*
X0178868Y0097842D01*
X0178868Y0100240D02*
X0163583Y0100240D01*
X0163583Y0102639D02*
X0179461Y0102639D01*
X0179768Y0105037D02*
X0163583Y0105037D01*
X0184568Y0114632D02*
X0214768Y0114632D01*
X0213868Y0117030D02*
X0200868Y0117030D01*
X0200868Y0119429D02*
X0213868Y0119429D01*
X0212247Y0121827D02*
X0200868Y0121827D01*
X0197168Y0119429D02*
X0197168Y0119429D01*
X0197168Y0117030D02*
X0197168Y0117030D01*
X0193468Y0117030D02*
X0185468Y0117030D01*
X0185468Y0119429D02*
X0193468Y0119429D01*
X0193468Y0121827D02*
X0185468Y0121827D01*
X0178868Y0121827D02*
X0173836Y0121827D01*
X0173836Y0120954D02*
X0173836Y0123409D01*
X0173686Y0123968D01*
X0173397Y0124470D01*
X0173284Y0124583D01*
X0173436Y0124736D01*
X0173436Y0130557D01*
X0172382Y0131612D01*
X0172068Y0131612D01*
X0172068Y0134175D01*
X0180468Y0125775D01*
X0181143Y0125100D01*
X0179922Y0125100D01*
X0178868Y0124046D01*
X0178868Y0120394D01*
X0177378Y0118905D01*
X0173836Y0118905D01*
X0173836Y0120953D01*
X0169668Y0120953D01*
X0169668Y0120954D01*
X0173836Y0120954D01*
X0173836Y0119429D02*
X0177902Y0119429D01*
X0169668Y0120953D02*
X0165499Y0120953D01*
X0165499Y0118905D01*
X0161553Y0118905D01*
X0161024Y0118686D01*
X0161024Y0118734D01*
X0161024Y0122037D01*
X0162529Y0122037D01*
X0163583Y0123092D01*
X0163583Y0127983D01*
X0163752Y0128580D01*
X0164196Y0128764D01*
X0165204Y0129771D01*
X0165749Y0131088D01*
X0165749Y0132512D01*
X0165204Y0133829D01*
X0164849Y0134183D01*
X0167268Y0134183D01*
X0167268Y0131612D01*
X0166954Y0131612D01*
X0165899Y0130557D01*
X0165899Y0124736D01*
X0166052Y0124583D01*
X0165939Y0124470D01*
X0165649Y0123968D01*
X0165499Y0123409D01*
X0165499Y0120954D01*
X0169668Y0120954D01*
X0169668Y0120953D01*
X0165499Y0121827D02*
X0161024Y0121827D01*
X0161024Y0119429D02*
X0165499Y0119429D01*
X0165798Y0124226D02*
X0163583Y0124226D01*
X0163583Y0126624D02*
X0165899Y0126624D01*
X0165899Y0129023D02*
X0164455Y0129023D01*
X0165749Y0131421D02*
X0166763Y0131421D01*
X0167268Y0133820D02*
X0165207Y0133820D01*
X0172068Y0133820D02*
X0172423Y0133820D01*
X0172573Y0131421D02*
X0174822Y0131421D01*
X0173436Y0129023D02*
X0177220Y0129023D01*
X0179619Y0126624D02*
X0173436Y0126624D01*
X0173538Y0124226D02*
X0179048Y0124226D01*
X0181143Y0125100D02*
X0181143Y0125100D01*
X0185288Y0124226D02*
X0193662Y0124226D01*
X0200674Y0124226D02*
X0209848Y0124226D01*
X0197168Y0102639D02*
X0197168Y0102639D01*
X0197168Y0100240D02*
X0197168Y0100240D01*
X0197168Y0097842D02*
X0197168Y0097842D01*
X0197168Y0095443D02*
X0197168Y0095443D01*
X0186855Y0090646D02*
X0232337Y0090646D01*
X0229939Y0088248D02*
X0187265Y0088248D01*
X0190310Y0085849D02*
X0198310Y0085849D01*
X0198310Y0086090D02*
X0198310Y0082800D01*
X0202010Y0082800D01*
X0202010Y0082800D01*
X0198310Y0082800D01*
X0198310Y0079510D01*
X0198460Y0078951D01*
X0198750Y0078449D01*
X0199159Y0078040D01*
X0199661Y0077750D01*
X0200221Y0077600D01*
X0202010Y0077600D01*
X0202010Y0082800D01*
X0202010Y0088000D01*
X0200221Y0088000D01*
X0199661Y0087850D01*
X0199159Y0087560D01*
X0198750Y0087151D01*
X0198460Y0086649D01*
X0198310Y0086090D01*
X0198310Y0083451D02*
X0190310Y0083451D01*
X0190310Y0081052D02*
X0198310Y0081052D01*
X0198632Y0078654D02*
X0189910Y0078654D01*
X0189410Y0076255D02*
X0201946Y0076255D01*
X0202010Y0077600D02*
X0203800Y0077600D01*
X0204359Y0077750D01*
X0204861Y0078040D01*
X0205271Y0078449D01*
X0205560Y0078951D01*
X0205710Y0079510D01*
X0205710Y0082800D01*
X0205710Y0086090D01*
X0205560Y0086649D01*
X0205271Y0087151D01*
X0204861Y0087560D01*
X0204359Y0087850D01*
X0203800Y0088000D01*
X0202010Y0088000D01*
X0202010Y0082800D01*
X0202010Y0082800D01*
X0202010Y0082800D01*
X0202010Y0077600D01*
X0202010Y0078654D02*
X0202010Y0078654D01*
X0202010Y0081052D02*
X0202010Y0081052D01*
X0202010Y0082800D02*
X0202010Y0082800D01*
X0205710Y0082800D01*
X0202010Y0082800D01*
X0202010Y0083451D02*
X0202010Y0083451D01*
X0202010Y0085849D02*
X0202010Y0085849D01*
X0205710Y0085849D02*
X0227540Y0085849D01*
X0225142Y0083451D02*
X0218023Y0083451D01*
X0216312Y0083451D02*
X0205710Y0083451D01*
X0205710Y0081052D02*
X0212739Y0081052D01*
X0217168Y0079300D02*
X0217168Y0065324D01*
X0214187Y0064263D02*
X0205664Y0064263D01*
X0205710Y0064090D02*
X0205560Y0064649D01*
X0205271Y0065151D01*
X0204861Y0065560D01*
X0204359Y0065850D01*
X0203800Y0066000D01*
X0202010Y0066000D01*
X0200221Y0066000D01*
X0199661Y0065850D01*
X0199159Y0065560D01*
X0198750Y0065151D01*
X0198460Y0064649D01*
X0198310Y0064090D01*
X0198310Y0060800D01*
X0202010Y0060800D01*
X0202010Y0060800D01*
X0198310Y0060800D01*
X0198310Y0057510D01*
X0198460Y0056951D01*
X0198750Y0056449D01*
X0199159Y0056040D01*
X0199661Y0055750D01*
X0200221Y0055600D01*
X0202010Y0055600D01*
X0202010Y0060800D01*
X0202010Y0066000D01*
X0202010Y0060800D01*
X0202010Y0060800D01*
X0202010Y0060800D01*
X0202010Y0055600D01*
X0203800Y0055600D01*
X0204359Y0055750D01*
X0204861Y0056040D01*
X0205271Y0056449D01*
X0205560Y0056951D01*
X0205710Y0057510D01*
X0205710Y0060800D01*
X0205710Y0064090D01*
X0202010Y0064263D02*
X0202010Y0064263D01*
X0198357Y0064263D02*
X0198068Y0064263D01*
X0198068Y0066661D02*
X0214168Y0066661D01*
X0214168Y0069060D02*
X0202499Y0069060D01*
X0207895Y0071458D02*
X0214168Y0071458D01*
X0214168Y0073857D02*
X0213292Y0073857D01*
X0220168Y0073857D02*
X0224568Y0073857D01*
X0224568Y0076255D02*
X0220168Y0076255D01*
X0221330Y0078654D02*
X0224568Y0078654D01*
X0224568Y0081052D02*
X0220947Y0081052D01*
X0229768Y0078654D02*
X0234568Y0078654D01*
X0234568Y0081052D02*
X0230097Y0081052D01*
X0232496Y0083451D02*
X0234568Y0083451D01*
X0234894Y0085849D02*
X0235040Y0085849D01*
X0237293Y0088248D02*
X0237439Y0088248D01*
X0239691Y0090646D02*
X0239837Y0090646D01*
X0244793Y0088248D02*
X0269568Y0088248D01*
X0269568Y0090646D02*
X0254691Y0090646D01*
X0257090Y0093045D02*
X0269568Y0093045D01*
X0269568Y0095443D02*
X0259488Y0095443D01*
X0261887Y0097842D02*
X0269568Y0097842D01*
X0269568Y0100240D02*
X0264285Y0100240D01*
X0266684Y0102639D02*
X0269568Y0102639D01*
X0269568Y0105037D02*
X0267268Y0105037D01*
X0261728Y0105037D02*
X0259082Y0105037D01*
X0259330Y0102639D02*
X0256684Y0102639D01*
X0256931Y0100240D02*
X0254285Y0100240D01*
X0254533Y0097842D02*
X0251887Y0097842D01*
X0252134Y0095443D02*
X0244488Y0095443D01*
X0242464Y0093273D02*
X0242464Y0093273D01*
X0242236Y0093045D02*
X0242090Y0093045D01*
X0237134Y0095443D02*
X0235868Y0095443D01*
X0235868Y0097842D02*
X0239533Y0097842D01*
X0241931Y0100240D02*
X0235868Y0100240D01*
X0242394Y0085849D02*
X0269568Y0085849D01*
X0269568Y0083451D02*
X0239996Y0083451D01*
X0245338Y0081052D02*
X0269568Y0081052D01*
X0269568Y0078654D02*
X0245768Y0078654D01*
X0244768Y0076255D02*
X0269568Y0076255D01*
X0269568Y0073857D02*
X0244768Y0073857D01*
X0244768Y0071458D02*
X0269568Y0071458D01*
X0269568Y0069060D02*
X0254520Y0069060D01*
X0255149Y0066661D02*
X0269568Y0066661D01*
X0270529Y0064263D02*
X0255149Y0064263D01*
X0254797Y0061864D02*
X0271729Y0061864D01*
X0273448Y0059466D02*
X0249768Y0059466D01*
X0250768Y0057067D02*
X0278615Y0057067D01*
X0278615Y0054669D02*
X0250128Y0054669D01*
X0244208Y0054669D02*
X0243431Y0054669D01*
X0241032Y0052270D02*
X0278615Y0052270D01*
X0279466Y0049872D02*
X0240266Y0049872D01*
X0234070Y0049872D02*
X0214768Y0049872D01*
X0214768Y0052270D02*
X0233568Y0052270D01*
X0234945Y0054669D02*
X0218719Y0054669D01*
X0223571Y0057067D02*
X0239041Y0057067D01*
X0239768Y0059466D02*
X0224768Y0059466D01*
X0232168Y0060761D02*
X0232168Y0065323D01*
X0232168Y0060761D01*
X0232168Y0061864D02*
X0232168Y0061864D01*
X0232168Y0064263D02*
X0232168Y0064263D01*
X0232168Y0065323D02*
X0232168Y0065323D01*
X0232168Y0066661D02*
X0232168Y0066661D01*
X0232168Y0069060D02*
X0232168Y0069060D01*
X0229768Y0071458D02*
X0234568Y0071458D01*
X0234568Y0073857D02*
X0229768Y0073857D01*
X0229768Y0076255D02*
X0234568Y0076255D01*
X0224568Y0071458D02*
X0220168Y0071458D01*
X0224520Y0069060D02*
X0224568Y0069060D01*
X0214538Y0061864D02*
X0205710Y0061864D01*
X0205710Y0060800D02*
X0202010Y0060800D01*
X0202010Y0060800D01*
X0205710Y0060800D01*
X0205710Y0059466D02*
X0216685Y0059466D01*
X0211888Y0057067D02*
X0205591Y0057067D01*
X0202010Y0057067D02*
X0202010Y0057067D01*
X0202010Y0059466D02*
X0202010Y0059466D01*
X0202010Y0061864D02*
X0202010Y0061864D01*
X0198310Y0061864D02*
X0198068Y0061864D01*
X0198068Y0059466D02*
X0198310Y0059466D01*
X0198429Y0057067D02*
X0198068Y0057067D01*
X0198068Y0054669D02*
X0209550Y0054669D01*
X0209568Y0052270D02*
X0198068Y0052270D01*
X0198068Y0049872D02*
X0209568Y0049872D01*
X0209568Y0047473D02*
X0198068Y0047473D01*
X0198068Y0045075D02*
X0209568Y0045075D01*
X0209568Y0042676D02*
X0198068Y0042676D01*
X0198068Y0040278D02*
X0209568Y0040278D01*
X0209568Y0037879D02*
X0198068Y0037879D01*
X0198068Y0035481D02*
X0209900Y0035481D01*
X0212209Y0033082D02*
X0198068Y0033082D01*
X0198068Y0030684D02*
X0214607Y0030684D01*
X0217006Y0028285D02*
X0198068Y0028285D01*
X0198068Y0025887D02*
X0219404Y0025887D01*
X0221803Y0023488D02*
X0198012Y0023488D01*
X0196266Y0021090D02*
X0224201Y0021090D01*
X0226600Y0018691D02*
X0194468Y0018691D01*
X0194468Y0016293D02*
X0228998Y0016293D01*
X0231397Y0013894D02*
X0193867Y0013894D01*
X0185469Y0013894D02*
X0183867Y0013894D01*
X0183737Y0013581D02*
X0184468Y0015345D01*
X0184468Y0023255D01*
X0183737Y0025019D01*
X0182387Y0026369D01*
X0180622Y0027100D01*
X0178713Y0027100D01*
X0176949Y0026369D01*
X0175598Y0025019D01*
X0174868Y0023255D01*
X0174868Y0015345D01*
X0175598Y0013581D01*
X0176949Y0012231D01*
X0178713Y0011500D01*
X0180622Y0011500D01*
X0182387Y0012231D01*
X0183737Y0013581D01*
X0184468Y0016293D02*
X0184868Y0016293D01*
X0184868Y0018691D02*
X0184468Y0018691D01*
X0184468Y0021090D02*
X0184868Y0021090D01*
X0184964Y0023488D02*
X0184371Y0023488D01*
X0182869Y0025887D02*
X0186466Y0025887D01*
X0191268Y0028285D02*
X0140568Y0028285D01*
X0140568Y0025887D02*
X0146466Y0025887D01*
X0146949Y0026369D02*
X0145598Y0025019D01*
X0144868Y0023255D01*
X0144868Y0015345D01*
X0145598Y0013581D01*
X0146949Y0012231D01*
X0148713Y0011500D01*
X0150622Y0011500D01*
X0152387Y0012231D01*
X0153737Y0013581D01*
X0154468Y0015345D01*
X0154468Y0023255D01*
X0153737Y0025019D01*
X0152387Y0026369D01*
X0150622Y0027100D01*
X0148713Y0027100D01*
X0146949Y0026369D01*
X0144964Y0023488D02*
X0140218Y0023488D01*
X0144868Y0021090D02*
X0061868Y0021090D01*
X0061957Y0018691D02*
X0144868Y0018691D01*
X0144868Y0016293D02*
X0062516Y0016293D01*
X0063459Y0013894D02*
X0145469Y0013894D01*
X0153867Y0013894D02*
X0155469Y0013894D01*
X0155598Y0013581D02*
X0156949Y0012231D01*
X0158713Y0011500D01*
X0160622Y0011500D01*
X0162387Y0012231D01*
X0163737Y0013581D01*
X0164468Y0015345D01*
X0164468Y0023255D01*
X0163737Y0025019D01*
X0162387Y0026369D01*
X0160622Y0027100D01*
X0158713Y0027100D01*
X0156949Y0026369D01*
X0155598Y0025019D01*
X0154868Y0023255D01*
X0154868Y0015345D01*
X0155598Y0013581D01*
X0154868Y0016293D02*
X0154468Y0016293D01*
X0154468Y0018691D02*
X0154868Y0018691D01*
X0154868Y0021090D02*
X0154468Y0021090D01*
X0154371Y0023488D02*
X0154964Y0023488D01*
X0156466Y0025887D02*
X0152869Y0025887D01*
X0162869Y0025887D02*
X0165900Y0025887D01*
X0165701Y0025688D02*
X0165220Y0025025D01*
X0164849Y0024296D01*
X0164596Y0023518D01*
X0164468Y0022709D01*
X0164468Y0019300D01*
X0164468Y0015891D01*
X0164596Y0015082D01*
X0164849Y0014304D01*
X0165220Y0013575D01*
X0165701Y0012912D01*
X0166280Y0012334D01*
X0166942Y0011853D01*
X0167672Y0011481D01*
X0168450Y0011228D01*
X0169258Y0011100D01*
X0169668Y0011100D01*
X0170077Y0011100D01*
X0170885Y0011228D01*
X0171664Y0011481D01*
X0172393Y0011853D01*
X0173055Y0012334D01*
X0173634Y0012912D01*
X0174115Y0013575D01*
X0174487Y0014304D01*
X0174740Y0015082D01*
X0174868Y0015891D01*
X0174868Y0019300D01*
X0174868Y0022709D01*
X0174740Y0023518D01*
X0174487Y0024296D01*
X0174115Y0025025D01*
X0173634Y0025688D01*
X0173055Y0026266D01*
X0172393Y0026747D01*
X0171664Y0027119D01*
X0170885Y0027372D01*
X0170077Y0027500D01*
X0169668Y0027500D01*
X0169668Y0019300D01*
X0174868Y0019300D01*
X0169668Y0019300D01*
X0169668Y0019300D01*
X0169668Y0019300D01*
X0169668Y0011100D01*
X0169668Y0019300D01*
X0169668Y0019300D01*
X0169668Y0027500D01*
X0169258Y0027500D01*
X0168450Y0027372D01*
X0167672Y0027119D01*
X0166942Y0026747D01*
X0166280Y0026266D01*
X0165701Y0025688D01*
X0164591Y0023488D02*
X0164371Y0023488D01*
X0164468Y0021090D02*
X0164468Y0021090D01*
X0164468Y0019300D02*
X0169668Y0019300D01*
X0164468Y0019300D01*
X0164468Y0018691D02*
X0164468Y0018691D01*
X0164468Y0016293D02*
X0164468Y0016293D01*
X0165058Y0013894D02*
X0163867Y0013894D01*
X0167643Y0011496D02*
X0064972Y0011496D01*
X0067519Y0009097D02*
X0430936Y0009097D01*
X0430364Y0009250D02*
X0433848Y0008317D01*
X0437456Y0008317D01*
X0440940Y0009250D01*
X0444064Y0011054D01*
X0446615Y0013605D01*
X0448418Y0016729D01*
X0449352Y0020213D01*
X0449352Y0023820D01*
X0448418Y0027305D01*
X0446615Y0030429D01*
X0444064Y0032979D01*
X0440940Y0034783D01*
X0437456Y0035717D01*
X0433848Y0035717D01*
X0430364Y0034783D01*
X0427240Y0032979D01*
X0424689Y0030429D01*
X0422886Y0027305D01*
X0421952Y0023820D01*
X0421952Y0020213D01*
X0422886Y0016729D01*
X0424689Y0013605D01*
X0427240Y0011054D01*
X0430364Y0009250D01*
X0426798Y0011496D02*
X0363268Y0011496D01*
X0366009Y0013894D02*
X0424522Y0013894D01*
X0423137Y0016293D02*
X0368750Y0016293D01*
X0371492Y0018691D02*
X0422360Y0018691D01*
X0421952Y0021090D02*
X0374233Y0021090D01*
X0376974Y0023488D02*
X0421952Y0023488D01*
X0422506Y0025887D02*
X0379715Y0025887D01*
X0382066Y0028285D02*
X0423452Y0028285D01*
X0424944Y0030684D02*
X0382268Y0030684D01*
X0383436Y0033082D02*
X0427418Y0033082D01*
X0432968Y0035481D02*
X0383436Y0035481D01*
X0383436Y0037879D02*
X0451169Y0037879D01*
X0451169Y0035481D02*
X0438336Y0035481D01*
X0443886Y0033082D02*
X0451169Y0033082D01*
X0451169Y0030684D02*
X0446360Y0030684D01*
X0447852Y0028285D02*
X0451169Y0028285D01*
X0451169Y0025887D02*
X0448798Y0025887D01*
X0449352Y0023488D02*
X0451169Y0023488D01*
X0451169Y0021090D02*
X0449352Y0021090D01*
X0448944Y0018691D02*
X0451080Y0018691D01*
X0450520Y0016293D02*
X0448167Y0016293D01*
X0446782Y0013894D02*
X0449578Y0013894D01*
X0448064Y0011496D02*
X0444506Y0011496D01*
X0445517Y0009097D02*
X0440368Y0009097D01*
X0439697Y0006699D02*
X0073339Y0006699D01*
X0082129Y0025887D02*
X0082618Y0025887D01*
X0080121Y0030684D02*
X0071033Y0030684D01*
X0070570Y0042676D02*
X0075456Y0042676D01*
X0078034Y0042676D02*
X0087115Y0042676D01*
X0092070Y0045075D02*
X0099118Y0045075D01*
X0099118Y0047473D02*
X0089671Y0047473D01*
X0088986Y0049872D02*
X0099118Y0049872D01*
X0109568Y0052270D02*
X0087420Y0052270D01*
X0081915Y0052270D02*
X0071336Y0052270D01*
X0071336Y0054669D02*
X0109568Y0054669D01*
X0104686Y0059466D02*
X0061868Y0059466D01*
X0067168Y0054669D02*
X0067168Y0054669D01*
X0071251Y0049872D02*
X0080349Y0049872D01*
X0109768Y0042676D02*
X0109996Y0042676D01*
X0109768Y0040278D02*
X0118768Y0040278D01*
X0119076Y0037879D02*
X0109393Y0037879D01*
X0107025Y0035481D02*
X0121179Y0035481D01*
X0125998Y0040278D02*
X0190837Y0040278D01*
X0191268Y0042676D02*
X0139905Y0042676D01*
X0134430Y0042676D02*
X0134339Y0042676D01*
X0129996Y0042676D02*
X0129339Y0042676D01*
X0114996Y0042676D02*
X0114339Y0042676D01*
X0137168Y0049872D02*
X0137168Y0049872D01*
X0140618Y0049872D02*
X0141087Y0049872D01*
X0147787Y0047473D02*
X0149048Y0047473D01*
X0126167Y0059466D02*
X0125568Y0059466D01*
X0125568Y0061864D02*
X0127966Y0061864D01*
X0153025Y0064263D02*
X0153736Y0064263D01*
X0155423Y0066661D02*
X0156135Y0066661D01*
X0163583Y0066661D02*
X0184610Y0066661D01*
X0184610Y0069060D02*
X0163583Y0069060D01*
X0163583Y0071458D02*
X0184610Y0071458D01*
X0184610Y0073857D02*
X0163583Y0073857D01*
X0163583Y0076255D02*
X0184610Y0076255D01*
X0189410Y0073857D02*
X0196549Y0073857D01*
X0192018Y0071458D02*
X0189410Y0071458D01*
X0189410Y0069060D02*
X0191268Y0069060D01*
X0191268Y0066661D02*
X0189410Y0066661D01*
X0190310Y0064263D02*
X0191268Y0064263D01*
X0183710Y0064263D02*
X0163583Y0064263D01*
X0205389Y0078654D02*
X0207342Y0078654D01*
X0244768Y0069060D02*
X0244815Y0069060D01*
X0249520Y0069060D02*
X0249815Y0069060D01*
X0281795Y0085849D02*
X0289960Y0085849D01*
X0285745Y0088248D02*
X0283591Y0088248D01*
X0278839Y0088248D02*
X0274768Y0088248D01*
X0282324Y0047473D02*
X0254571Y0047473D01*
X0252168Y0047473D02*
X0252168Y0047473D01*
X0252168Y0045075D02*
X0252168Y0045075D01*
X0252168Y0042676D02*
X0252168Y0042676D01*
X0252168Y0040278D02*
X0252168Y0040278D01*
X0255456Y0040278D02*
X0291028Y0040278D01*
X0288063Y0042676D02*
X0255549Y0042676D01*
X0255549Y0045075D02*
X0285176Y0045075D01*
X0305899Y0037879D02*
X0249768Y0037879D01*
X0252164Y0035481D02*
X0305899Y0035481D01*
X0305899Y0033082D02*
X0254563Y0033082D01*
X0249764Y0047473D02*
X0214768Y0047473D01*
X0191268Y0030684D02*
X0190860Y0030684D01*
X0176466Y0025887D02*
X0173435Y0025887D01*
X0174744Y0023488D02*
X0174964Y0023488D01*
X0174868Y0021090D02*
X0174868Y0021090D01*
X0174868Y0018691D02*
X0174868Y0018691D01*
X0169668Y0018691D02*
X0169668Y0018691D01*
X0169668Y0019300D02*
X0169668Y0019300D01*
X0169668Y0021090D02*
X0169668Y0021090D01*
X0169668Y0023488D02*
X0169668Y0023488D01*
X0169668Y0025887D02*
X0169668Y0025887D01*
X0169668Y0016293D02*
X0169668Y0016293D01*
X0169668Y0013894D02*
X0169668Y0013894D01*
X0169668Y0011496D02*
X0169668Y0011496D01*
X0171692Y0011496D02*
X0233795Y0011496D01*
X0175469Y0013894D02*
X0174278Y0013894D01*
X0174868Y0016293D02*
X0174868Y0016293D01*
X0129756Y0030684D02*
X0129580Y0030684D01*
X0124756Y0030684D02*
X0124580Y0030684D01*
X0119756Y0030684D02*
X0119580Y0030684D01*
X0114756Y0030684D02*
X0114580Y0030684D01*
X0109756Y0030684D02*
X0109580Y0030684D01*
X0104756Y0030684D02*
X0104580Y0030684D01*
X0082168Y0064263D02*
X0082168Y0064263D01*
X0082168Y0066661D02*
X0082168Y0066661D01*
X0382808Y0047473D02*
X0432515Y0047473D01*
X0432183Y0046672D02*
X0432183Y0044763D01*
X0432913Y0042998D01*
X0434264Y0041648D01*
X0436028Y0040917D01*
X0443937Y0040917D01*
X0445702Y0041648D01*
X0447052Y0042998D01*
X0447783Y0044763D01*
X0447783Y0046672D01*
X0447052Y0048436D01*
X0445702Y0049787D01*
X0443937Y0050517D01*
X0436028Y0050517D01*
X0434264Y0049787D01*
X0432913Y0048436D01*
X0432183Y0046672D01*
X0432183Y0045075D02*
X0383436Y0045075D01*
X0383436Y0042676D02*
X0433236Y0042676D01*
X0446730Y0042676D02*
X0451169Y0042676D01*
X0451169Y0040278D02*
X0383436Y0040278D01*
X0383268Y0049872D02*
X0434469Y0049872D01*
X0434264Y0051648D02*
X0436028Y0050917D01*
X0443937Y0050917D01*
X0445702Y0051648D01*
X0447052Y0052998D01*
X0447783Y0054763D01*
X0447783Y0056672D01*
X0447052Y0058436D01*
X0445702Y0059787D01*
X0443937Y0060517D01*
X0436028Y0060517D01*
X0434264Y0059787D01*
X0432913Y0058436D01*
X0432183Y0056672D01*
X0432183Y0054763D01*
X0432913Y0052998D01*
X0434264Y0051648D01*
X0433642Y0052270D02*
X0426985Y0052270D01*
X0428273Y0054669D02*
X0432222Y0054669D01*
X0432346Y0057067D02*
X0429073Y0057067D01*
X0431690Y0059466D02*
X0433943Y0059466D01*
X0434264Y0061648D02*
X0436028Y0060917D01*
X0443937Y0060917D01*
X0445702Y0061648D01*
X0447052Y0062998D01*
X0447783Y0064763D01*
X0447783Y0066672D01*
X0447052Y0068436D01*
X0445702Y0069787D01*
X0443937Y0070517D01*
X0436028Y0070517D01*
X0434264Y0069787D01*
X0432913Y0068436D01*
X0432183Y0066672D01*
X0432183Y0064763D01*
X0432913Y0062998D01*
X0434264Y0061648D01*
X0434048Y0061864D02*
X0431889Y0061864D01*
X0431637Y0064263D02*
X0432390Y0064263D01*
X0432183Y0066661D02*
X0423615Y0066661D01*
X0423615Y0069060D02*
X0433537Y0069060D01*
X0434722Y0071458D02*
X0423615Y0071458D01*
X0424408Y0073857D02*
X0424927Y0073857D01*
X0431314Y0073857D02*
X0432558Y0073857D01*
X0432913Y0072998D02*
X0434264Y0071648D01*
X0436028Y0070917D01*
X0443937Y0070917D01*
X0445702Y0071648D01*
X0447052Y0072998D01*
X0447783Y0074763D01*
X0447783Y0076672D01*
X0447052Y0078436D01*
X0445702Y0079787D01*
X0443937Y0080517D01*
X0436028Y0080517D01*
X0434264Y0079787D01*
X0432913Y0078436D01*
X0432183Y0076672D01*
X0432183Y0074763D01*
X0432913Y0072998D01*
X0432183Y0076255D02*
X0431889Y0076255D01*
X0431889Y0078654D02*
X0433131Y0078654D01*
X0434264Y0081648D02*
X0436028Y0080917D01*
X0443937Y0080917D01*
X0445702Y0081648D01*
X0447052Y0082998D01*
X0447783Y0084763D01*
X0447783Y0086672D01*
X0447052Y0088436D01*
X0445702Y0089787D01*
X0443937Y0090517D01*
X0436028Y0090517D01*
X0434264Y0089787D01*
X0432913Y0088436D01*
X0432183Y0086672D01*
X0432183Y0084763D01*
X0432913Y0082998D01*
X0434264Y0081648D01*
X0435702Y0081052D02*
X0428678Y0081052D01*
X0427380Y0083451D02*
X0432726Y0083451D01*
X0432183Y0085849D02*
X0427828Y0085849D01*
X0430496Y0088248D02*
X0432835Y0088248D01*
X0431889Y0090646D02*
X0451169Y0090646D01*
X0451169Y0088248D02*
X0447130Y0088248D01*
X0447783Y0085849D02*
X0451169Y0085849D01*
X0451169Y0083451D02*
X0447239Y0083451D01*
X0444263Y0081052D02*
X0451169Y0081052D01*
X0451169Y0078654D02*
X0446834Y0078654D01*
X0447783Y0076255D02*
X0451169Y0076255D01*
X0451169Y0073857D02*
X0447408Y0073857D01*
X0445244Y0071458D02*
X0451169Y0071458D01*
X0451169Y0069060D02*
X0446428Y0069060D01*
X0447783Y0066661D02*
X0451169Y0066661D01*
X0451169Y0064263D02*
X0447576Y0064263D01*
X0445918Y0061864D02*
X0451169Y0061864D01*
X0451169Y0059466D02*
X0446022Y0059466D01*
X0447619Y0057067D02*
X0451169Y0057067D01*
X0451169Y0054669D02*
X0447744Y0054669D01*
X0446324Y0052270D02*
X0451169Y0052270D01*
X0451169Y0049872D02*
X0445496Y0049872D01*
X0447451Y0047473D02*
X0451169Y0047473D01*
X0451169Y0045075D02*
X0447783Y0045075D01*
X0451169Y0093045D02*
X0442463Y0093045D01*
X0446633Y0095443D02*
X0451169Y0095443D01*
X0451169Y0097842D02*
X0448481Y0097842D01*
X0449431Y0100240D02*
X0451169Y0100240D01*
X0451169Y0102639D02*
X0449742Y0102639D01*
X0449478Y0105037D02*
X0451169Y0105037D01*
X0451169Y0107436D02*
X0448580Y0107436D01*
X0446805Y0109834D02*
X0451169Y0109834D01*
X0451169Y0112233D02*
X0443107Y0112233D01*
X0436228Y0112233D02*
X0427629Y0112233D01*
X0428527Y0111335D02*
X0428527Y0111335D01*
X0431223Y0109834D02*
X0432530Y0109834D01*
X0424629Y0114632D02*
X0451169Y0114632D01*
X0451169Y0117030D02*
X0445198Y0117030D01*
X0447400Y0119429D02*
X0451169Y0119429D01*
X0451169Y0121827D02*
X0447783Y0121827D01*
X0446853Y0124226D02*
X0451169Y0124226D01*
X0451169Y0126624D02*
X0444218Y0126624D01*
X0443937Y0126508D02*
X0445702Y0127239D01*
X0447052Y0128589D01*
X0447783Y0130353D01*
X0447783Y0132263D01*
X0447052Y0134027D01*
X0445702Y0135377D01*
X0443937Y0136108D01*
X0436028Y0136108D01*
X0434264Y0135377D01*
X0432913Y0134027D01*
X0432183Y0132263D01*
X0432183Y0130353D01*
X0432913Y0128589D01*
X0434264Y0127239D01*
X0436028Y0126508D01*
X0443937Y0126508D01*
X0447232Y0129023D02*
X0451169Y0129023D01*
X0451169Y0131421D02*
X0447783Y0131421D01*
X0447138Y0133820D02*
X0451169Y0133820D01*
X0451169Y0136218D02*
X0431889Y0136218D01*
X0431277Y0133820D02*
X0432828Y0133820D01*
X0432183Y0131421D02*
X0423615Y0131421D01*
X0423615Y0129023D02*
X0432734Y0129023D01*
X0435747Y0126624D02*
X0423615Y0126624D01*
X0431652Y0124226D02*
X0433112Y0124226D01*
X0432566Y0119429D02*
X0431674Y0119429D01*
X0434767Y0117030D02*
X0427027Y0117030D01*
X0429594Y0102639D02*
X0423615Y0102639D01*
X0423615Y0100240D02*
X0429904Y0100240D01*
X0430855Y0097842D02*
X0423615Y0097842D01*
X0423615Y0095443D02*
X0425965Y0095443D01*
X0430276Y0095443D02*
X0432703Y0095443D01*
X0431889Y0093045D02*
X0436872Y0093045D01*
X0424964Y0133820D02*
X0424371Y0133820D01*
X0432913Y0138589D02*
X0434264Y0137239D01*
X0436028Y0136508D01*
X0443937Y0136508D01*
X0445702Y0137239D01*
X0447052Y0138589D01*
X0447783Y0140353D01*
X0447783Y0142263D01*
X0447052Y0144027D01*
X0445702Y0145377D01*
X0443937Y0146108D01*
X0436028Y0146108D01*
X0434264Y0145377D01*
X0432913Y0144027D01*
X0432183Y0142263D01*
X0432183Y0140353D01*
X0432913Y0138589D01*
X0432902Y0138617D02*
X0431889Y0138617D01*
X0432183Y0141015D02*
X0428696Y0141015D01*
X0427423Y0143414D02*
X0432659Y0143414D01*
X0435314Y0145812D02*
X0427810Y0145812D01*
X0430407Y0148211D02*
X0433292Y0148211D01*
X0432913Y0148589D02*
X0434264Y0147239D01*
X0436028Y0146508D01*
X0443937Y0146508D01*
X0445702Y0147239D01*
X0447052Y0148589D01*
X0447783Y0150353D01*
X0447783Y0152263D01*
X0447052Y0154027D01*
X0445702Y0155377D01*
X0443937Y0156108D01*
X0436028Y0156108D01*
X0434264Y0155377D01*
X0432913Y0154027D01*
X0432183Y0152263D01*
X0432183Y0150353D01*
X0432913Y0148589D01*
X0432183Y0150609D02*
X0431889Y0150609D01*
X0431889Y0153008D02*
X0432491Y0153008D01*
X0434334Y0155406D02*
X0430366Y0155406D01*
X0432913Y0158589D02*
X0434264Y0157239D01*
X0436028Y0156508D01*
X0443937Y0156508D01*
X0445702Y0157239D01*
X0447052Y0158589D01*
X0447783Y0160353D01*
X0447783Y0162263D01*
X0447052Y0164027D01*
X0445702Y0165377D01*
X0443937Y0166108D01*
X0436028Y0166108D01*
X0434264Y0165377D01*
X0432913Y0164027D01*
X0432183Y0162263D01*
X0432183Y0160353D01*
X0432913Y0158589D01*
X0433698Y0157805D02*
X0423815Y0157805D01*
X0423815Y0160203D02*
X0432245Y0160203D01*
X0432323Y0162602D02*
X0423815Y0162602D01*
X0431810Y0165000D02*
X0433887Y0165000D01*
X0446078Y0165000D02*
X0451169Y0165000D01*
X0451169Y0162602D02*
X0447642Y0162602D01*
X0447721Y0160203D02*
X0451169Y0160203D01*
X0451169Y0157805D02*
X0446268Y0157805D01*
X0445631Y0155406D02*
X0451169Y0155406D01*
X0451169Y0153008D02*
X0447474Y0153008D01*
X0447783Y0150609D02*
X0451169Y0150609D01*
X0451169Y0148211D02*
X0446674Y0148211D01*
X0444651Y0145812D02*
X0451169Y0145812D01*
X0451169Y0143414D02*
X0447306Y0143414D01*
X0447783Y0141015D02*
X0451169Y0141015D01*
X0451169Y0138617D02*
X0447063Y0138617D01*
X0425875Y0155406D02*
X0423815Y0155406D01*
D29*
X0399648Y0178060D03*
X0249668Y0109300D03*
X0183683Y0088946D03*
X0142345Y0084615D03*
X0121085Y0089339D03*
X0107168Y0084300D03*
X0099825Y0068080D03*
X0128172Y0068080D03*
X0144668Y0059300D03*
X0144668Y0049300D03*
X0152168Y0049300D03*
X0157168Y0049300D03*
X0232168Y0076800D03*
X0135258Y0105875D03*
X0132168Y0109300D03*
X0109274Y0115324D03*
X0092168Y0126800D03*
X0084668Y0134300D03*
X0132168Y0137194D03*
X0137168Y0131800D03*
X0154668Y0131800D03*
X0162168Y0131800D03*
X0177778Y0124379D03*
X0183683Y0136190D03*
X0135258Y0120048D03*
X0211243Y0163749D03*
X0195494Y0167686D03*
X0154668Y0173394D03*
X0146774Y0179300D03*
X0165967Y0189339D03*
X0135790Y0190146D03*
X0232109Y0188552D03*
X0406597Y0037765D03*
D30*
X0217168Y0079300D03*
X0127168Y0079300D03*
X0204668Y0171800D03*
X0127168Y0179300D03*
D31*
X0217168Y0149300D03*
X0222168Y0144300D03*
X0227168Y0139300D03*
X0232168Y0134300D03*
X0237168Y0129300D03*
X0242168Y0124300D03*
X0247168Y0119300D03*
X0272168Y0121800D03*
X0277168Y0114300D03*
X0277168Y0099300D03*
X0294668Y0099300D03*
X0314668Y0099300D03*
X0334668Y0099300D03*
X0354668Y0099300D03*
X0374668Y0099300D03*
X0394668Y0099300D03*
X0414668Y0099300D03*
X0414668Y0129300D03*
X0394668Y0129300D03*
X0374668Y0129300D03*
X0354668Y0129300D03*
X0334668Y0129300D03*
X0314668Y0129300D03*
X0294668Y0129300D03*
X0277168Y0129300D03*
X0269668Y0141800D03*
X0277168Y0146800D03*
X0272168Y0154300D03*
X0259668Y0156800D03*
X0264668Y0161800D03*
X0259668Y0174300D03*
X0274668Y0184300D03*
X0267168Y0186800D03*
X0289668Y0179300D03*
X0294668Y0159300D03*
X0314668Y0159300D03*
X0334668Y0159300D03*
X0354668Y0159300D03*
X0374668Y0159300D03*
X0394668Y0159300D03*
X0414668Y0159300D03*
X0277168Y0084300D03*
X0277168Y0069300D03*
X0294668Y0069300D03*
X0314668Y0069300D03*
X0334668Y0069300D03*
X0354668Y0069300D03*
X0374668Y0069300D03*
X0394668Y0069300D03*
X0414668Y0069300D03*
X0379668Y0049300D03*
X0369668Y0049300D03*
X0359668Y0049300D03*
X0349668Y0049300D03*
X0339668Y0049300D03*
X0329668Y0049300D03*
X0302168Y0049300D03*
X0247168Y0056800D03*
X0237168Y0051800D03*
X0242168Y0079300D03*
X0142168Y0094300D03*
X0134668Y0089300D03*
X0114668Y0069300D03*
X0107168Y0062076D03*
X0237168Y0171800D03*
X0224668Y0189300D03*
D32*
X0127168Y0179300D02*
X0122168Y0185757D01*
X0114668Y0185757D01*
X0114471Y0185954D01*
X0104668Y0185954D01*
X0098014Y0179300D01*
X0087168Y0179300D01*
X0084568Y0176700D01*
X0084568Y0169200D01*
X0075568Y0169200D02*
X0075568Y0179354D01*
X0082168Y0185954D01*
X0091971Y0185954D01*
X0092168Y0185757D01*
X0075568Y0169200D02*
X0079668Y0155900D01*
X0094668Y0154300D01*
X0097168Y0149300D01*
X0097168Y0134300D01*
X0084668Y0134300D01*
X0097168Y0134300D02*
X0097168Y0116800D01*
X0096617Y0099300D01*
X0080928Y0093020D01*
X0122168Y0071800D02*
X0123388Y0073631D01*
X0127168Y0079300D01*
X0122168Y0071800D02*
X0122168Y0047300D01*
X0122168Y0039300D01*
X0124668Y0036800D01*
X0134668Y0036800D01*
X0137168Y0031800D01*
X0187168Y0031800D01*
X0194668Y0039300D01*
X0194668Y0024300D01*
X0189668Y0019300D01*
X0194668Y0039300D02*
X0194668Y0069300D01*
X0217168Y0079300D01*
X0137168Y0031800D02*
X0137168Y0026300D01*
D33*
X0107168Y0039300D02*
X0104668Y0036800D01*
X0091668Y0036800D01*
X0084668Y0029800D01*
X0078821Y0027300D01*
X0067168Y0028454D01*
X0084668Y0048800D02*
X0091668Y0041800D01*
X0099668Y0041800D01*
X0102168Y0044300D01*
X0102168Y0047300D01*
X0107168Y0047300D02*
X0107168Y0039300D01*
X0112168Y0047300D02*
X0112168Y0056800D01*
X0107168Y0062076D01*
X0114668Y0061800D02*
X0117168Y0054300D01*
X0117168Y0047300D01*
X0114668Y0061800D02*
X0114668Y0069300D01*
X0123388Y0073631D02*
X0105317Y0091702D01*
X0099825Y0091702D01*
X0097463Y0089339D01*
X0097463Y0086977D01*
X0097463Y0084714D01*
X0097168Y0084419D01*
X0100908Y0084419D02*
X0101026Y0084300D01*
X0107168Y0084300D01*
X0097463Y0086977D02*
X0095101Y0089339D01*
X0088014Y0089339D01*
X0085652Y0086977D01*
X0085652Y0084615D01*
X0083290Y0082253D01*
X0083290Y0076269D01*
X0082168Y0075146D01*
X0084668Y0048800D02*
X0077168Y0045146D01*
X0067168Y0045954D01*
X0212168Y0054300D02*
X0212168Y0036800D01*
X0237168Y0011800D01*
X0359668Y0011800D01*
X0379668Y0029300D01*
X0379668Y0035954D01*
X0369668Y0035954D02*
X0369668Y0029300D01*
X0352168Y0014300D01*
X0239668Y0014300D01*
X0217168Y0036800D01*
X0217168Y0043276D01*
X0222168Y0043276D02*
X0222168Y0036800D01*
X0242168Y0016800D01*
X0347168Y0016800D01*
X0359668Y0029300D01*
X0359668Y0035954D01*
X0349668Y0035954D02*
X0349668Y0029300D01*
X0339668Y0019300D01*
X0244668Y0019300D01*
X0227168Y0036800D01*
X0227168Y0043276D01*
X0232168Y0043276D02*
X0232168Y0036800D01*
X0247168Y0021800D01*
X0332168Y0021800D01*
X0339668Y0029300D01*
X0339668Y0035954D01*
X0329668Y0035954D02*
X0329668Y0029300D01*
X0324668Y0024300D01*
X0249668Y0024300D01*
X0237168Y0036800D01*
X0237168Y0043276D01*
X0242168Y0043276D02*
X0242168Y0036800D01*
X0252168Y0026800D01*
X0314668Y0026800D01*
X0319668Y0031800D01*
X0319668Y0035954D01*
X0309668Y0035954D02*
X0309668Y0031800D01*
X0304668Y0029300D01*
X0254668Y0029300D01*
X0247168Y0036800D01*
X0247168Y0043276D01*
X0247168Y0056800D02*
X0247168Y0065324D01*
X0242168Y0065324D02*
X0242168Y0066800D01*
X0242168Y0079300D01*
X0237168Y0084300D02*
X0244668Y0091800D01*
X0252168Y0091800D01*
X0264668Y0104300D01*
X0264668Y0161800D01*
X0269668Y0166800D02*
X0277168Y0159300D01*
X0284668Y0159300D01*
X0287168Y0161800D01*
X0288120Y0166800D01*
X0281215Y0166800D02*
X0281215Y0174300D01*
X0289668Y0179300D01*
X0267168Y0186800D02*
X0262168Y0189300D01*
X0247168Y0189300D01*
X0242168Y0186800D01*
X0242168Y0180324D01*
X0247168Y0180324D02*
X0247168Y0176800D01*
X0244668Y0171800D01*
X0237168Y0171800D01*
X0232168Y0166800D02*
X0269668Y0166800D01*
X0259668Y0174300D02*
X0259668Y0179300D01*
X0252168Y0181400D01*
X0252168Y0180324D01*
X0232168Y0166800D02*
X0222168Y0174300D01*
X0222168Y0180324D01*
X0205928Y0178906D02*
X0197857Y0186977D01*
X0194707Y0186977D01*
X0194707Y0176465D02*
X0195613Y0175560D01*
X0201400Y0175560D01*
X0204668Y0172292D01*
X0204668Y0171800D01*
X0217168Y0158276D02*
X0217168Y0149300D01*
X0222168Y0144300D02*
X0222168Y0158276D01*
X0227168Y0158276D02*
X0227168Y0139300D01*
X0232168Y0134300D02*
X0232168Y0158276D01*
X0237168Y0158276D02*
X0237168Y0129300D01*
X0242168Y0124300D02*
X0242168Y0158276D01*
X0247168Y0158276D02*
X0247168Y0119300D01*
X0259668Y0109300D02*
X0259668Y0156800D01*
X0272168Y0154300D02*
X0274668Y0151800D01*
X0281215Y0151800D01*
X0281215Y0136800D02*
X0277168Y0136800D01*
X0272168Y0131800D01*
X0272168Y0121800D01*
X0272168Y0111800D01*
X0272168Y0096800D01*
X0272168Y0081800D01*
X0272168Y0066800D01*
X0274668Y0061800D01*
X0281215Y0061800D01*
X0281215Y0051800D01*
X0287168Y0046800D01*
X0292168Y0042646D01*
X0309668Y0042646D01*
X0319668Y0042646D02*
X0317168Y0049300D01*
X0302168Y0049300D01*
X0288120Y0061800D02*
X0287168Y0061800D01*
X0281215Y0076800D02*
X0277168Y0076800D01*
X0272168Y0081800D01*
X0277168Y0084300D02*
X0279668Y0084300D01*
X0282168Y0081800D01*
X0287168Y0081800D01*
X0281215Y0091800D02*
X0277168Y0091800D01*
X0272168Y0096800D01*
X0274668Y0106800D02*
X0272168Y0111800D01*
X0274668Y0106800D02*
X0281215Y0106800D01*
X0288120Y0106800D02*
X0292168Y0106800D01*
X0294668Y0111800D01*
X0312168Y0111800D01*
X0332168Y0111800D01*
X0352168Y0111800D01*
X0372168Y0111800D01*
X0392168Y0111800D01*
X0412168Y0111800D01*
X0412168Y0116800D02*
X0423120Y0116800D01*
X0428120Y0121800D01*
X0429668Y0121800D01*
X0412168Y0116800D02*
X0392168Y0116800D01*
X0372168Y0116800D01*
X0352168Y0116800D01*
X0332168Y0116800D01*
X0312168Y0116800D01*
X0294668Y0116800D01*
X0288120Y0121800D01*
X0287168Y0126800D01*
X0282168Y0129300D01*
X0277168Y0129300D01*
X0281215Y0121800D02*
X0272168Y0121800D01*
X0259668Y0109300D02*
X0249668Y0099300D01*
X0244668Y0099300D01*
X0227168Y0081800D01*
X0227168Y0065324D01*
X0222168Y0065324D02*
X0222168Y0059300D01*
X0212168Y0054300D01*
X0237168Y0065324D02*
X0237168Y0084300D01*
X0329668Y0049300D02*
X0329668Y0042646D01*
X0339668Y0042646D02*
X0339668Y0049300D01*
X0349668Y0049300D02*
X0349668Y0042646D01*
X0359668Y0042646D02*
X0359668Y0049300D01*
X0369668Y0049300D02*
X0369668Y0042646D01*
X0379668Y0042646D02*
X0379668Y0049300D01*
X0428120Y0106800D02*
X0429668Y0106800D01*
X0421215Y0151800D02*
X0421215Y0166721D01*
X0421136Y0166800D01*
X0421136Y0165769D01*
X0414668Y0159300D01*
D34*
X0408120Y0166800D02*
X0409668Y0171800D01*
X0426026Y0171800D01*
X0428172Y0169654D01*
X0428172Y0166930D01*
X0428042Y0166800D01*
X0409668Y0171800D02*
X0389668Y0171800D01*
X0388120Y0166800D01*
X0381215Y0166800D02*
X0374668Y0160253D01*
X0374668Y0159300D01*
X0381215Y0166800D02*
X0381215Y0151800D01*
X0388120Y0151800D02*
X0389668Y0151800D01*
X0394668Y0146800D01*
X0414668Y0146800D01*
X0409668Y0151800D01*
X0408120Y0151800D01*
X0401215Y0151800D02*
X0401215Y0166800D01*
X0394668Y0160253D01*
X0394668Y0159300D01*
X0394668Y0146800D02*
X0374668Y0146800D01*
X0369668Y0151800D01*
X0368120Y0151800D01*
X0361215Y0151800D02*
X0361215Y0166800D01*
X0354668Y0160253D01*
X0354668Y0159300D01*
X0348120Y0166800D02*
X0349668Y0171800D01*
X0369668Y0171800D01*
X0368120Y0166800D01*
X0369668Y0171800D02*
X0389668Y0171800D01*
X0349668Y0171800D02*
X0329668Y0171800D01*
X0328120Y0166800D01*
X0321215Y0166800D02*
X0314668Y0160253D01*
X0314668Y0159300D01*
X0321215Y0166800D02*
X0321215Y0151800D01*
X0328120Y0151800D02*
X0329668Y0151800D01*
X0334668Y0146800D01*
X0354668Y0146800D01*
X0349668Y0151800D01*
X0348120Y0151800D01*
X0341215Y0151800D02*
X0341215Y0166800D01*
X0334668Y0160253D01*
X0334668Y0159300D01*
X0334668Y0146800D02*
X0314668Y0146800D01*
X0309668Y0151800D01*
X0308120Y0151800D01*
X0301215Y0151800D02*
X0301215Y0166800D01*
X0294668Y0160253D01*
X0294668Y0159300D01*
X0289668Y0166800D02*
X0288120Y0166800D01*
X0289668Y0166800D02*
X0294668Y0171800D01*
X0309668Y0171800D01*
X0308120Y0166800D01*
X0309668Y0171800D02*
X0329668Y0171800D01*
X0294668Y0146800D02*
X0289668Y0151800D01*
X0288120Y0151800D01*
X0289668Y0146800D02*
X0277168Y0146800D01*
X0269668Y0141800D02*
X0289668Y0141800D01*
X0292168Y0141800D01*
X0288120Y0137753D01*
X0288120Y0136800D01*
X0292168Y0141800D02*
X0312168Y0141800D01*
X0308120Y0137753D01*
X0308120Y0136800D01*
X0312168Y0141800D02*
X0332168Y0141800D01*
X0328120Y0137753D01*
X0328120Y0136800D01*
X0321215Y0136800D02*
X0321215Y0121800D01*
X0319668Y0121800D01*
X0314668Y0126800D01*
X0314668Y0129300D01*
X0309668Y0121800D02*
X0309668Y0119300D01*
X0312168Y0116800D01*
X0312168Y0111800D02*
X0308120Y0107753D01*
X0308120Y0106800D01*
X0301215Y0106800D02*
X0294668Y0100253D01*
X0294668Y0099300D01*
X0287168Y0096800D02*
X0287168Y0092753D01*
X0288120Y0091800D01*
X0289668Y0091800D01*
X0292168Y0086800D01*
X0312168Y0086800D01*
X0308120Y0090847D01*
X0308120Y0091800D01*
X0312168Y0086800D02*
X0332168Y0086800D01*
X0328120Y0090847D01*
X0328120Y0091800D01*
X0321215Y0091800D02*
X0321215Y0106800D01*
X0314668Y0100253D01*
X0314668Y0099300D01*
X0328120Y0106800D02*
X0328120Y0107753D01*
X0332168Y0111800D01*
X0332168Y0116800D02*
X0328120Y0120847D01*
X0328120Y0121800D01*
X0329668Y0121800D01*
X0334668Y0128347D02*
X0341215Y0121800D01*
X0341215Y0136800D01*
X0348120Y0136800D02*
X0348120Y0137753D01*
X0352168Y0141800D01*
X0372168Y0141800D01*
X0368120Y0137753D01*
X0368120Y0136800D01*
X0372168Y0141800D02*
X0392168Y0141800D01*
X0388120Y0137753D01*
X0388120Y0136800D01*
X0381215Y0136800D02*
X0381215Y0121800D01*
X0374668Y0128347D01*
X0374668Y0129300D01*
X0368120Y0121800D02*
X0368120Y0120847D01*
X0372168Y0116800D01*
X0372168Y0111800D02*
X0368120Y0107753D01*
X0368120Y0106800D01*
X0361215Y0106800D02*
X0354668Y0100253D01*
X0354668Y0099300D01*
X0361215Y0091800D02*
X0361215Y0106800D01*
X0352168Y0111800D02*
X0348120Y0107753D01*
X0348120Y0106800D01*
X0341215Y0106800D02*
X0334668Y0100253D01*
X0334668Y0099300D01*
X0341215Y0106800D02*
X0341215Y0091800D01*
X0348120Y0091800D02*
X0348120Y0090847D01*
X0352168Y0086800D01*
X0372168Y0086800D01*
X0368120Y0090847D01*
X0368120Y0091800D01*
X0372168Y0086800D02*
X0392168Y0086800D01*
X0388120Y0090847D01*
X0388120Y0091800D01*
X0381215Y0091800D02*
X0381215Y0106800D01*
X0374668Y0100253D01*
X0374668Y0099300D01*
X0388120Y0106800D02*
X0388120Y0107753D01*
X0392168Y0111800D01*
X0392168Y0116800D02*
X0388120Y0120847D01*
X0388120Y0121800D01*
X0394668Y0128347D02*
X0401215Y0121800D01*
X0401215Y0136800D01*
X0408120Y0136800D02*
X0408120Y0137753D01*
X0412168Y0141800D01*
X0425620Y0141800D01*
X0428120Y0136800D01*
X0421215Y0136800D02*
X0421215Y0121800D01*
X0414668Y0128347D01*
X0414668Y0129300D01*
X0408120Y0121800D02*
X0408120Y0120847D01*
X0412168Y0116800D01*
X0412168Y0111800D02*
X0424668Y0111800D01*
X0427168Y0109300D01*
X0427168Y0107753D01*
X0428120Y0106800D01*
X0421215Y0106800D02*
X0414668Y0100253D01*
X0414668Y0099300D01*
X0421215Y0091800D02*
X0421215Y0106800D01*
X0412168Y0111800D02*
X0408120Y0107753D01*
X0408120Y0106800D01*
X0401215Y0106800D02*
X0394668Y0100253D01*
X0394668Y0099300D01*
X0401215Y0106800D02*
X0401215Y0091800D01*
X0408120Y0091800D02*
X0408120Y0090847D01*
X0412168Y0086800D01*
X0425620Y0086800D01*
X0428120Y0091800D01*
X0412168Y0086800D02*
X0392168Y0086800D01*
X0392168Y0081800D02*
X0388120Y0077753D01*
X0388120Y0076800D01*
X0381215Y0076800D02*
X0381215Y0061800D01*
X0374668Y0068347D01*
X0374668Y0069300D01*
X0368120Y0061800D02*
X0368120Y0060847D01*
X0374668Y0054300D01*
X0394668Y0054300D01*
X0388120Y0060847D01*
X0388120Y0061800D01*
X0394668Y0068347D02*
X0401215Y0061800D01*
X0401215Y0076800D01*
X0408120Y0076800D02*
X0408120Y0077753D01*
X0412168Y0081800D01*
X0425620Y0081800D01*
X0428120Y0076800D01*
X0421215Y0076800D02*
X0421215Y0061800D01*
X0414668Y0068347D01*
X0414668Y0069300D01*
X0408120Y0061800D02*
X0408120Y0060847D01*
X0414668Y0054300D01*
X0425620Y0054300D01*
X0428120Y0061800D01*
X0414668Y0054300D02*
X0394668Y0054300D01*
X0374668Y0054300D02*
X0354668Y0054300D01*
X0348120Y0060847D01*
X0348120Y0061800D01*
X0341215Y0061800D02*
X0334668Y0068347D01*
X0334668Y0069300D01*
X0341215Y0076800D02*
X0341215Y0061800D01*
X0334668Y0054300D02*
X0328120Y0060847D01*
X0328120Y0061800D01*
X0321215Y0061800D02*
X0314668Y0068347D01*
X0314668Y0069300D01*
X0321215Y0076800D02*
X0321215Y0061800D01*
X0314668Y0054300D02*
X0294668Y0054300D01*
X0287168Y0061800D01*
X0287168Y0066800D01*
X0284668Y0069300D01*
X0277168Y0069300D01*
X0288120Y0076800D02*
X0287168Y0081800D01*
X0312168Y0081800D01*
X0308120Y0077753D01*
X0308120Y0076800D01*
X0312168Y0081800D02*
X0332168Y0081800D01*
X0328120Y0077753D01*
X0328120Y0076800D01*
X0332168Y0081800D02*
X0352168Y0081800D01*
X0348120Y0077753D01*
X0348120Y0076800D01*
X0352168Y0081800D02*
X0372168Y0081800D01*
X0368120Y0077753D01*
X0368120Y0076800D01*
X0372168Y0081800D02*
X0392168Y0081800D01*
X0412168Y0081800D01*
X0394668Y0069300D02*
X0394668Y0068347D01*
X0361215Y0061800D02*
X0354668Y0068347D01*
X0354668Y0069300D01*
X0361215Y0061800D02*
X0361215Y0076800D01*
X0352168Y0086800D02*
X0332168Y0086800D01*
X0301215Y0091800D02*
X0301215Y0106800D01*
X0288120Y0106800D02*
X0287168Y0107753D01*
X0287168Y0111800D01*
X0284668Y0114300D01*
X0277168Y0114300D01*
X0294668Y0128347D02*
X0301215Y0121800D01*
X0301215Y0136800D01*
X0294668Y0129300D02*
X0294668Y0128347D01*
X0308120Y0121800D02*
X0309668Y0121800D01*
X0334668Y0128347D02*
X0334668Y0129300D01*
X0348120Y0121800D02*
X0348120Y0120847D01*
X0352168Y0116800D01*
X0361215Y0121800D02*
X0354668Y0128347D01*
X0354668Y0129300D01*
X0361215Y0136800D02*
X0361215Y0121800D01*
X0394668Y0128347D02*
X0394668Y0129300D01*
X0392168Y0141800D02*
X0412168Y0141800D01*
X0414668Y0146800D02*
X0425620Y0146800D01*
X0428120Y0151800D01*
X0374668Y0146800D02*
X0354668Y0146800D01*
X0352168Y0141800D02*
X0332168Y0141800D01*
X0314668Y0146800D02*
X0294668Y0146800D01*
X0289668Y0146800D01*
X0237168Y0180324D02*
X0237168Y0189300D01*
X0242168Y0194300D01*
X0269668Y0194300D01*
X0274668Y0189300D01*
X0274668Y0184300D01*
X0242168Y0194300D02*
X0147168Y0194300D01*
X0135790Y0190146D01*
X0127168Y0179300D02*
X0146774Y0179300D01*
X0154668Y0173394D02*
X0154668Y0164615D01*
X0169904Y0166898D02*
X0169904Y0157843D01*
X0164786Y0151367D01*
X0146105Y0151367D01*
X0132168Y0137194D01*
X0140711Y0136524D02*
X0152187Y0148001D01*
X0167935Y0148001D01*
X0183683Y0171623D01*
X0183683Y0179497D01*
X0180534Y0185402D01*
X0175022Y0186977D01*
X0171872Y0191308D02*
X0169904Y0189339D01*
X0169904Y0183434D01*
X0171597Y0181741D01*
X0175022Y0181741D01*
X0171872Y0175560D02*
X0165967Y0181465D01*
X0165967Y0189339D01*
X0171872Y0191308D02*
X0181715Y0191308D01*
X0187620Y0185402D01*
X0187620Y0169654D01*
X0191557Y0163749D01*
X0211243Y0163749D01*
X0189668Y0155300D02*
X0189668Y0133300D01*
X0188227Y0131859D01*
X0182502Y0131859D01*
X0173054Y0141308D01*
X0154156Y0141308D01*
X0145829Y0132981D01*
X0145829Y0125787D01*
X0143270Y0125787D02*
X0143270Y0135146D01*
X0152187Y0144064D01*
X0175809Y0144064D01*
X0183683Y0136190D01*
X0182502Y0127135D02*
X0170691Y0138946D01*
X0156518Y0138946D01*
X0148388Y0130816D01*
X0148388Y0125787D01*
X0153506Y0125787D02*
X0153506Y0128139D01*
X0154668Y0131800D01*
X0159451Y0136583D01*
X0168329Y0136583D01*
X0169668Y0135245D01*
X0169668Y0127646D01*
X0161183Y0128316D02*
X0162168Y0131800D01*
X0161183Y0128316D02*
X0161183Y0125787D01*
X0158624Y0125787D02*
X0158624Y0118257D01*
X0154668Y0114300D01*
X0121668Y0114300D01*
X0112168Y0104800D01*
X0112711Y0104800D01*
X0123447Y0094064D01*
X0128172Y0094064D01*
X0129038Y0094930D01*
X0134668Y0089300D02*
X0138152Y0092784D01*
X0138152Y0102813D01*
X0140711Y0102813D02*
X0140711Y0108257D01*
X0139668Y0109300D01*
X0132168Y0109300D01*
X0143270Y0102813D02*
X0143270Y0097902D01*
X0142168Y0094300D01*
X0145829Y0102813D02*
X0145829Y0108178D01*
X0148250Y0110599D01*
X0156124Y0110599D01*
X0162030Y0116505D01*
X0178372Y0116505D01*
X0182168Y0120300D01*
X0182168Y0098300D01*
X0183683Y0088946D02*
X0183683Y0086127D01*
X0187010Y0082800D01*
X0187010Y0060800D01*
X0161183Y0063316D02*
X0157168Y0059300D01*
X0157168Y0049300D01*
X0152168Y0049300D02*
X0152168Y0059300D01*
X0158624Y0065757D01*
X0158624Y0102813D01*
X0156065Y0102813D02*
X0156065Y0070698D01*
X0149668Y0064300D01*
X0137168Y0064300D01*
X0132168Y0056800D01*
X0132168Y0047300D01*
X0127168Y0047300D02*
X0127168Y0056800D01*
X0134668Y0066800D01*
X0147168Y0066800D01*
X0153506Y0073139D01*
X0153506Y0102813D01*
X0150947Y0102813D02*
X0150947Y0083080D01*
X0147168Y0079300D01*
X0127168Y0079300D01*
X0132168Y0074300D01*
X0138821Y0074300D01*
X0114668Y0069300D02*
X0109786Y0074181D01*
X0100908Y0074181D01*
X0102187Y0075461D01*
X0102187Y0077528D01*
X0099825Y0079891D01*
X0095101Y0079891D01*
X0093428Y0081564D01*
X0093428Y0084419D01*
X0083014Y0075146D02*
X0082168Y0075146D01*
X0093428Y0074181D02*
X0093428Y0067391D01*
X0097463Y0063355D01*
X0105888Y0063355D01*
X0107168Y0062076D01*
X0144668Y0059300D02*
X0144668Y0049300D01*
X0161183Y0063316D02*
X0161183Y0102813D01*
X0149668Y0116800D02*
X0119168Y0116800D01*
X0112168Y0123800D01*
X0119668Y0129300D01*
X0128821Y0129300D01*
X0129668Y0130146D01*
X0137168Y0131800D02*
X0137168Y0126772D01*
X0138152Y0125787D01*
X0140711Y0125787D02*
X0140711Y0136524D01*
X0156065Y0125787D02*
X0156065Y0120698D01*
X0149668Y0116800D01*
X0182502Y0127135D02*
X0210333Y0127135D01*
X0217168Y0120300D01*
X0217168Y0098300D01*
X0277168Y0099300D02*
X0284668Y0099300D01*
X0287168Y0096800D01*
X0301215Y0076800D02*
X0301215Y0061800D01*
X0294668Y0068347D01*
X0294668Y0069300D01*
X0308120Y0061800D02*
X0308120Y0060847D01*
X0314668Y0054300D01*
X0334668Y0054300D01*
X0354668Y0054300D01*
X0242168Y0056800D02*
X0242168Y0066800D01*
X0242168Y0056800D02*
X0237168Y0051800D01*
X0092168Y0106800D02*
X0089668Y0104300D01*
X0089663Y0104300D01*
X0087202Y0101839D01*
X0082141Y0101839D01*
X0080928Y0102363D01*
X0092168Y0106800D02*
X0092168Y0126800D01*
X0169904Y0166898D02*
X0174628Y0171623D01*
X0175022Y0171229D01*
X0174117Y0175560D02*
X0171872Y0175560D01*
X0174117Y0175560D02*
X0175022Y0176465D01*
X0224668Y0189300D02*
X0227168Y0186800D01*
X0227168Y0180324D01*
M02*
