G75*
%MOIN*%
%OFA0B0*%
%FSLAX24Y24*%
%IPPOS*%
%LPD*%
%AMOC8*
5,1,8,0,0,1.08239X$1,22.5*
%
%ADD10C,0.0000*%
%ADD11C,0.0118*%
%ADD12R,0.0394X0.0433*%
%ADD13R,0.0250X0.0600*%
%ADD14R,0.0590X0.0790*%
%ADD15R,0.1500X0.0790*%
%ADD16R,0.0472X0.0315*%
%ADD17R,0.0120X0.0390*%
%ADD18R,0.0236X0.0472*%
%ADD19R,0.0300X0.0600*%
%ADD20R,0.0217X0.0472*%
%ADD21R,0.0433X0.0394*%
D10*
X005967Y003153D02*
X005967Y018587D01*
X005969Y018683D01*
X005975Y018779D01*
X005984Y018875D01*
X005997Y018970D01*
X006014Y019065D01*
X006035Y019158D01*
X006059Y019251D01*
X006087Y019343D01*
X006118Y019434D01*
X006153Y019524D01*
X006192Y019612D01*
X006234Y019698D01*
X006279Y019783D01*
X006328Y019866D01*
X006380Y019947D01*
X006435Y020026D01*
X006493Y020103D01*
X006554Y020177D01*
X006617Y020249D01*
X006684Y020318D01*
X006753Y020385D01*
X006825Y020448D01*
X006899Y020509D01*
X006976Y020567D01*
X007055Y020622D01*
X007136Y020674D01*
X007219Y020723D01*
X007304Y020768D01*
X007390Y020810D01*
X007478Y020849D01*
X007568Y020884D01*
X007659Y020915D01*
X007751Y020943D01*
X007844Y020967D01*
X007937Y020988D01*
X008032Y021005D01*
X008127Y021018D01*
X008223Y021027D01*
X008319Y021033D01*
X008415Y021035D01*
X043867Y021035D01*
X043941Y021033D01*
X044016Y021027D01*
X044090Y021018D01*
X044163Y021005D01*
X044235Y020988D01*
X044307Y020968D01*
X044378Y020943D01*
X044447Y020916D01*
X044514Y020885D01*
X044580Y020850D01*
X044645Y020813D01*
X044707Y020772D01*
X044767Y020727D01*
X044825Y020680D01*
X044880Y020630D01*
X044932Y020578D01*
X044982Y020523D01*
X045029Y020465D01*
X045074Y020405D01*
X045115Y020343D01*
X045152Y020278D01*
X045187Y020212D01*
X045218Y020145D01*
X045245Y020076D01*
X045270Y020005D01*
X045290Y019933D01*
X045307Y019861D01*
X045320Y019788D01*
X045329Y019714D01*
X045335Y019639D01*
X045337Y019565D01*
X045337Y003911D01*
X042975Y003600D02*
X042977Y003644D01*
X042983Y003688D01*
X042993Y003731D01*
X043006Y003773D01*
X043024Y003813D01*
X043045Y003852D01*
X043069Y003889D01*
X043096Y003924D01*
X043127Y003956D01*
X043160Y003985D01*
X043196Y004011D01*
X043234Y004033D01*
X043274Y004052D01*
X043315Y004068D01*
X043358Y004080D01*
X043401Y004088D01*
X043445Y004092D01*
X043489Y004092D01*
X043533Y004088D01*
X043576Y004080D01*
X043619Y004068D01*
X043660Y004052D01*
X043700Y004033D01*
X043738Y004011D01*
X043774Y003985D01*
X043807Y003956D01*
X043838Y003924D01*
X043865Y003889D01*
X043889Y003852D01*
X043910Y003813D01*
X043928Y003773D01*
X043941Y003731D01*
X043951Y003688D01*
X043957Y003644D01*
X043959Y003600D01*
X043957Y003556D01*
X043951Y003512D01*
X043941Y003469D01*
X043928Y003427D01*
X043910Y003387D01*
X043889Y003348D01*
X043865Y003311D01*
X043838Y003276D01*
X043807Y003244D01*
X043774Y003215D01*
X043738Y003189D01*
X043700Y003167D01*
X043660Y003148D01*
X043619Y003132D01*
X043576Y003120D01*
X043533Y003112D01*
X043489Y003108D01*
X043445Y003108D01*
X043401Y003112D01*
X043358Y003120D01*
X043315Y003132D01*
X043274Y003148D01*
X043234Y003167D01*
X043196Y003189D01*
X043160Y003215D01*
X043127Y003244D01*
X043096Y003276D01*
X043069Y003311D01*
X043045Y003348D01*
X043024Y003387D01*
X043006Y003427D01*
X042993Y003469D01*
X042983Y003512D01*
X042977Y003556D01*
X042975Y003600D01*
X042776Y001350D02*
X042877Y001352D01*
X042977Y001358D01*
X043077Y001368D01*
X043177Y001382D01*
X043276Y001399D01*
X043374Y001421D01*
X043471Y001446D01*
X043567Y001475D01*
X043662Y001508D01*
X043756Y001545D01*
X043848Y001585D01*
X043939Y001629D01*
X044027Y001677D01*
X044114Y001727D01*
X044199Y001782D01*
X044281Y001839D01*
X044361Y001900D01*
X044439Y001964D01*
X044514Y002030D01*
X044587Y002100D01*
X044657Y002173D01*
X044723Y002248D01*
X044787Y002326D01*
X044848Y002406D01*
X044905Y002488D01*
X044960Y002573D01*
X045010Y002660D01*
X045058Y002748D01*
X045102Y002839D01*
X045142Y002931D01*
X045179Y003025D01*
X045212Y003120D01*
X045241Y003216D01*
X045266Y003313D01*
X045288Y003411D01*
X045305Y003510D01*
X045319Y003610D01*
X045329Y003710D01*
X045335Y003810D01*
X045337Y003911D01*
X042776Y001350D02*
X007770Y001350D01*
X007687Y001352D01*
X007604Y001358D01*
X007521Y001367D01*
X007439Y001381D01*
X007357Y001398D01*
X007277Y001419D01*
X007197Y001443D01*
X007119Y001472D01*
X007042Y001504D01*
X006966Y001539D01*
X006893Y001578D01*
X006821Y001620D01*
X006751Y001666D01*
X006683Y001714D01*
X006618Y001766D01*
X006555Y001821D01*
X006495Y001878D01*
X006438Y001938D01*
X006383Y002001D01*
X006331Y002066D01*
X006283Y002134D01*
X006237Y002204D01*
X006195Y002276D01*
X006156Y002349D01*
X006121Y002425D01*
X006089Y002502D01*
X006060Y002580D01*
X006036Y002660D01*
X006015Y002740D01*
X005998Y002822D01*
X005984Y002904D01*
X005975Y002987D01*
X005969Y003070D01*
X005967Y003153D01*
X006892Y010714D02*
X006894Y010743D01*
X006900Y010771D01*
X006909Y010799D01*
X006922Y010825D01*
X006939Y010848D01*
X006958Y010870D01*
X006980Y010889D01*
X007005Y010904D01*
X007031Y010917D01*
X007059Y010925D01*
X007087Y010930D01*
X007116Y010931D01*
X007145Y010928D01*
X007173Y010921D01*
X007200Y010911D01*
X007226Y010897D01*
X007249Y010880D01*
X007270Y010860D01*
X007288Y010837D01*
X007303Y010812D01*
X007314Y010785D01*
X007322Y010757D01*
X007326Y010728D01*
X007326Y010700D01*
X007322Y010671D01*
X007314Y010643D01*
X007303Y010616D01*
X007288Y010591D01*
X007270Y010568D01*
X007249Y010548D01*
X007226Y010531D01*
X007200Y010517D01*
X007173Y010507D01*
X007145Y010500D01*
X007116Y010497D01*
X007087Y010498D01*
X007059Y010503D01*
X007031Y010511D01*
X007005Y010524D01*
X006980Y010539D01*
X006958Y010558D01*
X006939Y010580D01*
X006922Y010603D01*
X006909Y010629D01*
X006900Y010657D01*
X006894Y010685D01*
X006892Y010714D01*
X006892Y012486D02*
X006894Y012515D01*
X006900Y012543D01*
X006909Y012571D01*
X006922Y012597D01*
X006939Y012620D01*
X006958Y012642D01*
X006980Y012661D01*
X007005Y012676D01*
X007031Y012689D01*
X007059Y012697D01*
X007087Y012702D01*
X007116Y012703D01*
X007145Y012700D01*
X007173Y012693D01*
X007200Y012683D01*
X007226Y012669D01*
X007249Y012652D01*
X007270Y012632D01*
X007288Y012609D01*
X007303Y012584D01*
X007314Y012557D01*
X007322Y012529D01*
X007326Y012500D01*
X007326Y012472D01*
X007322Y012443D01*
X007314Y012415D01*
X007303Y012388D01*
X007288Y012363D01*
X007270Y012340D01*
X007249Y012320D01*
X007226Y012303D01*
X007200Y012289D01*
X007173Y012279D01*
X007145Y012272D01*
X007116Y012269D01*
X007087Y012270D01*
X007059Y012275D01*
X007031Y012283D01*
X007005Y012296D01*
X006980Y012311D01*
X006958Y012330D01*
X006939Y012352D01*
X006922Y012375D01*
X006909Y012401D01*
X006900Y012429D01*
X006894Y012457D01*
X006892Y012486D01*
X042975Y019350D02*
X042977Y019394D01*
X042983Y019438D01*
X042993Y019481D01*
X043006Y019523D01*
X043024Y019563D01*
X043045Y019602D01*
X043069Y019639D01*
X043096Y019674D01*
X043127Y019706D01*
X043160Y019735D01*
X043196Y019761D01*
X043234Y019783D01*
X043274Y019802D01*
X043315Y019818D01*
X043358Y019830D01*
X043401Y019838D01*
X043445Y019842D01*
X043489Y019842D01*
X043533Y019838D01*
X043576Y019830D01*
X043619Y019818D01*
X043660Y019802D01*
X043700Y019783D01*
X043738Y019761D01*
X043774Y019735D01*
X043807Y019706D01*
X043838Y019674D01*
X043865Y019639D01*
X043889Y019602D01*
X043910Y019563D01*
X043928Y019523D01*
X043941Y019481D01*
X043951Y019438D01*
X043957Y019394D01*
X043959Y019350D01*
X043957Y019306D01*
X043951Y019262D01*
X043941Y019219D01*
X043928Y019177D01*
X043910Y019137D01*
X043889Y019098D01*
X043865Y019061D01*
X043838Y019026D01*
X043807Y018994D01*
X043774Y018965D01*
X043738Y018939D01*
X043700Y018917D01*
X043660Y018898D01*
X043619Y018882D01*
X043576Y018870D01*
X043533Y018862D01*
X043489Y018858D01*
X043445Y018858D01*
X043401Y018862D01*
X043358Y018870D01*
X043315Y018882D01*
X043274Y018898D01*
X043234Y018917D01*
X043196Y018939D01*
X043160Y018965D01*
X043127Y018994D01*
X043096Y019026D01*
X043069Y019061D01*
X043045Y019098D01*
X043024Y019137D01*
X043006Y019177D01*
X042993Y019219D01*
X042983Y019262D01*
X042977Y019306D01*
X042975Y019350D01*
X043180Y011193D02*
X043182Y011249D01*
X043188Y011304D01*
X043198Y011358D01*
X043211Y011412D01*
X043229Y011465D01*
X043250Y011516D01*
X043274Y011566D01*
X043302Y011614D01*
X043334Y011660D01*
X043368Y011704D01*
X043406Y011745D01*
X043446Y011783D01*
X043489Y011818D01*
X043534Y011850D01*
X043582Y011879D01*
X043631Y011905D01*
X043682Y011927D01*
X043734Y011945D01*
X043788Y011959D01*
X043843Y011970D01*
X043898Y011977D01*
X043953Y011980D01*
X044009Y011979D01*
X044064Y011974D01*
X044119Y011965D01*
X044173Y011953D01*
X044226Y011936D01*
X044278Y011916D01*
X044328Y011892D01*
X044376Y011865D01*
X044423Y011835D01*
X044467Y011801D01*
X044509Y011764D01*
X044547Y011724D01*
X044584Y011682D01*
X044617Y011637D01*
X044646Y011591D01*
X044673Y011542D01*
X044695Y011491D01*
X044715Y011439D01*
X044730Y011385D01*
X044742Y011331D01*
X044750Y011276D01*
X044754Y011221D01*
X044754Y011165D01*
X044750Y011110D01*
X044742Y011055D01*
X044730Y011001D01*
X044715Y010947D01*
X044695Y010895D01*
X044673Y010844D01*
X044646Y010795D01*
X044617Y010749D01*
X044584Y010704D01*
X044547Y010662D01*
X044509Y010622D01*
X044467Y010585D01*
X044423Y010551D01*
X044376Y010521D01*
X044328Y010494D01*
X044278Y010470D01*
X044226Y010450D01*
X044173Y010433D01*
X044119Y010421D01*
X044064Y010412D01*
X044009Y010407D01*
X043953Y010406D01*
X043898Y010409D01*
X043843Y010416D01*
X043788Y010427D01*
X043734Y010441D01*
X043682Y010459D01*
X043631Y010481D01*
X043582Y010507D01*
X043534Y010536D01*
X043489Y010568D01*
X043446Y010603D01*
X043406Y010641D01*
X043368Y010682D01*
X043334Y010726D01*
X043302Y010772D01*
X043274Y010820D01*
X043250Y010870D01*
X043229Y010921D01*
X043211Y010974D01*
X043198Y011028D01*
X043188Y011082D01*
X043182Y011137D01*
X043180Y011193D01*
D11*
X042950Y011462D02*
X042950Y011738D01*
X042950Y011462D02*
X042674Y011462D01*
X042674Y011738D01*
X042950Y011738D01*
X042950Y011579D02*
X042674Y011579D01*
X042674Y011696D02*
X042950Y011696D01*
X042259Y011738D02*
X042259Y011462D01*
X041983Y011462D01*
X041983Y011738D01*
X042259Y011738D01*
X042259Y011579D02*
X041983Y011579D01*
X041983Y011696D02*
X042259Y011696D01*
X040950Y011738D02*
X040950Y011462D01*
X040674Y011462D01*
X040674Y011738D01*
X040950Y011738D01*
X040950Y011579D02*
X040674Y011579D01*
X040674Y011696D02*
X040950Y011696D01*
X040259Y011738D02*
X040259Y011462D01*
X039983Y011462D01*
X039983Y011738D01*
X040259Y011738D01*
X040259Y011579D02*
X039983Y011579D01*
X039983Y011696D02*
X040259Y011696D01*
X038950Y011738D02*
X038950Y011462D01*
X038674Y011462D01*
X038674Y011738D01*
X038950Y011738D01*
X038950Y011579D02*
X038674Y011579D01*
X038674Y011696D02*
X038950Y011696D01*
X038259Y011738D02*
X038259Y011462D01*
X037983Y011462D01*
X037983Y011738D01*
X038259Y011738D01*
X038259Y011579D02*
X037983Y011579D01*
X037983Y011696D02*
X038259Y011696D01*
X036950Y011738D02*
X036950Y011462D01*
X036674Y011462D01*
X036674Y011738D01*
X036950Y011738D01*
X036950Y011579D02*
X036674Y011579D01*
X036674Y011696D02*
X036950Y011696D01*
X036259Y011738D02*
X036259Y011462D01*
X035983Y011462D01*
X035983Y011738D01*
X036259Y011738D01*
X036259Y011579D02*
X035983Y011579D01*
X035983Y011696D02*
X036259Y011696D01*
X034950Y011738D02*
X034950Y011462D01*
X034674Y011462D01*
X034674Y011738D01*
X034950Y011738D01*
X034950Y011579D02*
X034674Y011579D01*
X034674Y011696D02*
X034950Y011696D01*
X034259Y011738D02*
X034259Y011462D01*
X033983Y011462D01*
X033983Y011738D01*
X034259Y011738D01*
X034259Y011579D02*
X033983Y011579D01*
X033983Y011696D02*
X034259Y011696D01*
X032950Y011738D02*
X032950Y011462D01*
X032674Y011462D01*
X032674Y011738D01*
X032950Y011738D01*
X032950Y011579D02*
X032674Y011579D01*
X032674Y011696D02*
X032950Y011696D01*
X032259Y011738D02*
X032259Y011462D01*
X031983Y011462D01*
X031983Y011738D01*
X032259Y011738D01*
X032259Y011579D02*
X031983Y011579D01*
X031983Y011696D02*
X032259Y011696D01*
X030950Y011738D02*
X030950Y011462D01*
X030674Y011462D01*
X030674Y011738D01*
X030950Y011738D01*
X030950Y011579D02*
X030674Y011579D01*
X030674Y011696D02*
X030950Y011696D01*
X030259Y011738D02*
X030259Y011462D01*
X029983Y011462D01*
X029983Y011738D01*
X030259Y011738D01*
X030259Y011579D02*
X029983Y011579D01*
X029983Y011696D02*
X030259Y011696D01*
X028950Y011738D02*
X028950Y011462D01*
X028674Y011462D01*
X028674Y011738D01*
X028950Y011738D01*
X028950Y011579D02*
X028674Y011579D01*
X028674Y011696D02*
X028950Y011696D01*
X028259Y011738D02*
X028259Y011462D01*
X027983Y011462D01*
X027983Y011738D01*
X028259Y011738D01*
X028259Y011579D02*
X027983Y011579D01*
X027983Y011696D02*
X028259Y011696D01*
X028259Y012962D02*
X028259Y013238D01*
X028259Y012962D02*
X027983Y012962D01*
X027983Y013238D01*
X028259Y013238D01*
X028259Y013079D02*
X027983Y013079D01*
X027983Y013196D02*
X028259Y013196D01*
X028950Y013238D02*
X028950Y012962D01*
X028674Y012962D01*
X028674Y013238D01*
X028950Y013238D01*
X028950Y013079D02*
X028674Y013079D01*
X028674Y013196D02*
X028950Y013196D01*
X030259Y013238D02*
X030259Y012962D01*
X029983Y012962D01*
X029983Y013238D01*
X030259Y013238D01*
X030259Y013079D02*
X029983Y013079D01*
X029983Y013196D02*
X030259Y013196D01*
X030950Y013238D02*
X030950Y012962D01*
X030674Y012962D01*
X030674Y013238D01*
X030950Y013238D01*
X030950Y013079D02*
X030674Y013079D01*
X030674Y013196D02*
X030950Y013196D01*
X032259Y013238D02*
X032259Y012962D01*
X031983Y012962D01*
X031983Y013238D01*
X032259Y013238D01*
X032259Y013079D02*
X031983Y013079D01*
X031983Y013196D02*
X032259Y013196D01*
X032950Y013238D02*
X032950Y012962D01*
X032674Y012962D01*
X032674Y013238D01*
X032950Y013238D01*
X032950Y013079D02*
X032674Y013079D01*
X032674Y013196D02*
X032950Y013196D01*
X034259Y013238D02*
X034259Y012962D01*
X033983Y012962D01*
X033983Y013238D01*
X034259Y013238D01*
X034259Y013079D02*
X033983Y013079D01*
X033983Y013196D02*
X034259Y013196D01*
X034950Y013238D02*
X034950Y012962D01*
X034674Y012962D01*
X034674Y013238D01*
X034950Y013238D01*
X034950Y013079D02*
X034674Y013079D01*
X034674Y013196D02*
X034950Y013196D01*
X036259Y013238D02*
X036259Y012962D01*
X035983Y012962D01*
X035983Y013238D01*
X036259Y013238D01*
X036259Y013079D02*
X035983Y013079D01*
X035983Y013196D02*
X036259Y013196D01*
X036950Y013238D02*
X036950Y012962D01*
X036674Y012962D01*
X036674Y013238D01*
X036950Y013238D01*
X036950Y013079D02*
X036674Y013079D01*
X036674Y013196D02*
X036950Y013196D01*
X038259Y013238D02*
X038259Y012962D01*
X037983Y012962D01*
X037983Y013238D01*
X038259Y013238D01*
X038259Y013079D02*
X037983Y013079D01*
X037983Y013196D02*
X038259Y013196D01*
X038950Y013238D02*
X038950Y012962D01*
X038674Y012962D01*
X038674Y013238D01*
X038950Y013238D01*
X038950Y013079D02*
X038674Y013079D01*
X038674Y013196D02*
X038950Y013196D01*
X040259Y013238D02*
X040259Y012962D01*
X039983Y012962D01*
X039983Y013238D01*
X040259Y013238D01*
X040259Y013079D02*
X039983Y013079D01*
X039983Y013196D02*
X040259Y013196D01*
X040950Y013238D02*
X040950Y012962D01*
X040674Y012962D01*
X040674Y013238D01*
X040950Y013238D01*
X040950Y013079D02*
X040674Y013079D01*
X040674Y013196D02*
X040950Y013196D01*
X042259Y013238D02*
X042259Y012962D01*
X041983Y012962D01*
X041983Y013238D01*
X042259Y013238D01*
X042259Y013079D02*
X041983Y013079D01*
X041983Y013196D02*
X042259Y013196D01*
X042950Y013238D02*
X042950Y012962D01*
X042674Y012962D01*
X042674Y013238D01*
X042950Y013238D01*
X042950Y013079D02*
X042674Y013079D01*
X042674Y013196D02*
X042950Y013196D01*
X042950Y014462D02*
X042950Y014738D01*
X042950Y014462D02*
X042674Y014462D01*
X042674Y014738D01*
X042950Y014738D01*
X042950Y014579D02*
X042674Y014579D01*
X042674Y014696D02*
X042950Y014696D01*
X042259Y014738D02*
X042259Y014462D01*
X041983Y014462D01*
X041983Y014738D01*
X042259Y014738D01*
X042259Y014579D02*
X041983Y014579D01*
X041983Y014696D02*
X042259Y014696D01*
X040950Y014738D02*
X040950Y014462D01*
X040674Y014462D01*
X040674Y014738D01*
X040950Y014738D01*
X040950Y014579D02*
X040674Y014579D01*
X040674Y014696D02*
X040950Y014696D01*
X040259Y014738D02*
X040259Y014462D01*
X039983Y014462D01*
X039983Y014738D01*
X040259Y014738D01*
X040259Y014579D02*
X039983Y014579D01*
X039983Y014696D02*
X040259Y014696D01*
X038950Y014738D02*
X038950Y014462D01*
X038674Y014462D01*
X038674Y014738D01*
X038950Y014738D01*
X038950Y014579D02*
X038674Y014579D01*
X038674Y014696D02*
X038950Y014696D01*
X038259Y014738D02*
X038259Y014462D01*
X037983Y014462D01*
X037983Y014738D01*
X038259Y014738D01*
X038259Y014579D02*
X037983Y014579D01*
X037983Y014696D02*
X038259Y014696D01*
X036950Y014738D02*
X036950Y014462D01*
X036674Y014462D01*
X036674Y014738D01*
X036950Y014738D01*
X036950Y014579D02*
X036674Y014579D01*
X036674Y014696D02*
X036950Y014696D01*
X036259Y014738D02*
X036259Y014462D01*
X035983Y014462D01*
X035983Y014738D01*
X036259Y014738D01*
X036259Y014579D02*
X035983Y014579D01*
X035983Y014696D02*
X036259Y014696D01*
X034950Y014738D02*
X034950Y014462D01*
X034674Y014462D01*
X034674Y014738D01*
X034950Y014738D01*
X034950Y014579D02*
X034674Y014579D01*
X034674Y014696D02*
X034950Y014696D01*
X034259Y014738D02*
X034259Y014462D01*
X033983Y014462D01*
X033983Y014738D01*
X034259Y014738D01*
X034259Y014579D02*
X033983Y014579D01*
X033983Y014696D02*
X034259Y014696D01*
X032950Y014738D02*
X032950Y014462D01*
X032674Y014462D01*
X032674Y014738D01*
X032950Y014738D01*
X032950Y014579D02*
X032674Y014579D01*
X032674Y014696D02*
X032950Y014696D01*
X032259Y014738D02*
X032259Y014462D01*
X031983Y014462D01*
X031983Y014738D01*
X032259Y014738D01*
X032259Y014579D02*
X031983Y014579D01*
X031983Y014696D02*
X032259Y014696D01*
X030950Y014738D02*
X030950Y014462D01*
X030674Y014462D01*
X030674Y014738D01*
X030950Y014738D01*
X030950Y014579D02*
X030674Y014579D01*
X030674Y014696D02*
X030950Y014696D01*
X030259Y014738D02*
X030259Y014462D01*
X029983Y014462D01*
X029983Y014738D01*
X030259Y014738D01*
X030259Y014579D02*
X029983Y014579D01*
X029983Y014696D02*
X030259Y014696D01*
X028950Y014738D02*
X028950Y014462D01*
X028674Y014462D01*
X028674Y014738D01*
X028950Y014738D01*
X028950Y014579D02*
X028674Y014579D01*
X028674Y014696D02*
X028950Y014696D01*
X028259Y014738D02*
X028259Y014462D01*
X027983Y014462D01*
X027983Y014738D01*
X028259Y014738D01*
X028259Y014579D02*
X027983Y014579D01*
X027983Y014696D02*
X028259Y014696D01*
X028259Y015962D02*
X028259Y016238D01*
X028259Y015962D02*
X027983Y015962D01*
X027983Y016238D01*
X028259Y016238D01*
X028259Y016079D02*
X027983Y016079D01*
X027983Y016196D02*
X028259Y016196D01*
X028950Y016238D02*
X028950Y015962D01*
X028674Y015962D01*
X028674Y016238D01*
X028950Y016238D01*
X028950Y016079D02*
X028674Y016079D01*
X028674Y016196D02*
X028950Y016196D01*
X030259Y016238D02*
X030259Y015962D01*
X029983Y015962D01*
X029983Y016238D01*
X030259Y016238D01*
X030259Y016079D02*
X029983Y016079D01*
X029983Y016196D02*
X030259Y016196D01*
X030950Y016238D02*
X030950Y015962D01*
X030674Y015962D01*
X030674Y016238D01*
X030950Y016238D01*
X030950Y016079D02*
X030674Y016079D01*
X030674Y016196D02*
X030950Y016196D01*
X032259Y016238D02*
X032259Y015962D01*
X031983Y015962D01*
X031983Y016238D01*
X032259Y016238D01*
X032259Y016079D02*
X031983Y016079D01*
X031983Y016196D02*
X032259Y016196D01*
X032950Y016238D02*
X032950Y015962D01*
X032674Y015962D01*
X032674Y016238D01*
X032950Y016238D01*
X032950Y016079D02*
X032674Y016079D01*
X032674Y016196D02*
X032950Y016196D01*
X034259Y016238D02*
X034259Y015962D01*
X033983Y015962D01*
X033983Y016238D01*
X034259Y016238D01*
X034259Y016079D02*
X033983Y016079D01*
X033983Y016196D02*
X034259Y016196D01*
X034950Y016238D02*
X034950Y015962D01*
X034674Y015962D01*
X034674Y016238D01*
X034950Y016238D01*
X034950Y016079D02*
X034674Y016079D01*
X034674Y016196D02*
X034950Y016196D01*
X036259Y016238D02*
X036259Y015962D01*
X035983Y015962D01*
X035983Y016238D01*
X036259Y016238D01*
X036259Y016079D02*
X035983Y016079D01*
X035983Y016196D02*
X036259Y016196D01*
X036950Y016238D02*
X036950Y015962D01*
X036674Y015962D01*
X036674Y016238D01*
X036950Y016238D01*
X036950Y016079D02*
X036674Y016079D01*
X036674Y016196D02*
X036950Y016196D01*
X038259Y016238D02*
X038259Y015962D01*
X037983Y015962D01*
X037983Y016238D01*
X038259Y016238D01*
X038259Y016079D02*
X037983Y016079D01*
X037983Y016196D02*
X038259Y016196D01*
X038950Y016238D02*
X038950Y015962D01*
X038674Y015962D01*
X038674Y016238D01*
X038950Y016238D01*
X038950Y016079D02*
X038674Y016079D01*
X038674Y016196D02*
X038950Y016196D01*
X040259Y016238D02*
X040259Y015962D01*
X039983Y015962D01*
X039983Y016238D01*
X040259Y016238D01*
X040259Y016079D02*
X039983Y016079D01*
X039983Y016196D02*
X040259Y016196D01*
X040950Y016238D02*
X040950Y015962D01*
X040674Y015962D01*
X040674Y016238D01*
X040950Y016238D01*
X040950Y016079D02*
X040674Y016079D01*
X040674Y016196D02*
X040950Y016196D01*
X042259Y016238D02*
X042259Y015962D01*
X041983Y015962D01*
X041983Y016238D01*
X042259Y016238D01*
X042259Y016079D02*
X041983Y016079D01*
X041983Y016196D02*
X042259Y016196D01*
X042950Y016238D02*
X042950Y015962D01*
X042674Y015962D01*
X042674Y016238D01*
X042950Y016238D01*
X042950Y016079D02*
X042674Y016079D01*
X042674Y016196D02*
X042950Y016196D01*
X042674Y017462D02*
X042674Y017738D01*
X042950Y017738D01*
X042950Y017462D01*
X042674Y017462D01*
X042674Y017579D02*
X042950Y017579D01*
X042950Y017696D02*
X042674Y017696D01*
X041983Y017738D02*
X041983Y017462D01*
X041983Y017738D02*
X042259Y017738D01*
X042259Y017462D01*
X041983Y017462D01*
X041983Y017579D02*
X042259Y017579D01*
X042259Y017696D02*
X041983Y017696D01*
X040950Y017738D02*
X040950Y017462D01*
X040674Y017462D01*
X040674Y017738D01*
X040950Y017738D01*
X040950Y017579D02*
X040674Y017579D01*
X040674Y017696D02*
X040950Y017696D01*
X040259Y017738D02*
X040259Y017462D01*
X039983Y017462D01*
X039983Y017738D01*
X040259Y017738D01*
X040259Y017579D02*
X039983Y017579D01*
X039983Y017696D02*
X040259Y017696D01*
X038950Y017738D02*
X038950Y017462D01*
X038674Y017462D01*
X038674Y017738D01*
X038950Y017738D01*
X038950Y017579D02*
X038674Y017579D01*
X038674Y017696D02*
X038950Y017696D01*
X038259Y017738D02*
X038259Y017462D01*
X037983Y017462D01*
X037983Y017738D01*
X038259Y017738D01*
X038259Y017579D02*
X037983Y017579D01*
X037983Y017696D02*
X038259Y017696D01*
X036950Y017738D02*
X036950Y017462D01*
X036674Y017462D01*
X036674Y017738D01*
X036950Y017738D01*
X036950Y017579D02*
X036674Y017579D01*
X036674Y017696D02*
X036950Y017696D01*
X036259Y017738D02*
X036259Y017462D01*
X035983Y017462D01*
X035983Y017738D01*
X036259Y017738D01*
X036259Y017579D02*
X035983Y017579D01*
X035983Y017696D02*
X036259Y017696D01*
X034950Y017738D02*
X034950Y017462D01*
X034674Y017462D01*
X034674Y017738D01*
X034950Y017738D01*
X034950Y017579D02*
X034674Y017579D01*
X034674Y017696D02*
X034950Y017696D01*
X034259Y017738D02*
X034259Y017462D01*
X033983Y017462D01*
X033983Y017738D01*
X034259Y017738D01*
X034259Y017579D02*
X033983Y017579D01*
X033983Y017696D02*
X034259Y017696D01*
X032950Y017738D02*
X032950Y017462D01*
X032674Y017462D01*
X032674Y017738D01*
X032950Y017738D01*
X032950Y017579D02*
X032674Y017579D01*
X032674Y017696D02*
X032950Y017696D01*
X032259Y017738D02*
X032259Y017462D01*
X031983Y017462D01*
X031983Y017738D01*
X032259Y017738D01*
X032259Y017579D02*
X031983Y017579D01*
X031983Y017696D02*
X032259Y017696D01*
X030950Y017738D02*
X030950Y017462D01*
X030674Y017462D01*
X030674Y017738D01*
X030950Y017738D01*
X030950Y017579D02*
X030674Y017579D01*
X030674Y017696D02*
X030950Y017696D01*
X030259Y017738D02*
X030259Y017462D01*
X029983Y017462D01*
X029983Y017738D01*
X030259Y017738D01*
X030259Y017579D02*
X029983Y017579D01*
X029983Y017696D02*
X030259Y017696D01*
X028950Y017738D02*
X028950Y017462D01*
X028674Y017462D01*
X028674Y017738D01*
X028950Y017738D01*
X028950Y017579D02*
X028674Y017579D01*
X028674Y017696D02*
X028950Y017696D01*
X028259Y017738D02*
X028259Y017462D01*
X027983Y017462D01*
X027983Y017738D01*
X028259Y017738D01*
X028259Y017579D02*
X027983Y017579D01*
X027983Y017696D02*
X028259Y017696D01*
X028259Y010238D02*
X028259Y009962D01*
X027983Y009962D01*
X027983Y010238D01*
X028259Y010238D01*
X028259Y010079D02*
X027983Y010079D01*
X027983Y010196D02*
X028259Y010196D01*
X028950Y010238D02*
X028950Y009962D01*
X028674Y009962D01*
X028674Y010238D01*
X028950Y010238D01*
X028950Y010079D02*
X028674Y010079D01*
X028674Y010196D02*
X028950Y010196D01*
X030259Y010238D02*
X030259Y009962D01*
X029983Y009962D01*
X029983Y010238D01*
X030259Y010238D01*
X030259Y010079D02*
X029983Y010079D01*
X029983Y010196D02*
X030259Y010196D01*
X030950Y010238D02*
X030950Y009962D01*
X030674Y009962D01*
X030674Y010238D01*
X030950Y010238D01*
X030950Y010079D02*
X030674Y010079D01*
X030674Y010196D02*
X030950Y010196D01*
X032259Y010238D02*
X032259Y009962D01*
X031983Y009962D01*
X031983Y010238D01*
X032259Y010238D01*
X032259Y010079D02*
X031983Y010079D01*
X031983Y010196D02*
X032259Y010196D01*
X032950Y010238D02*
X032950Y009962D01*
X032674Y009962D01*
X032674Y010238D01*
X032950Y010238D01*
X032950Y010079D02*
X032674Y010079D01*
X032674Y010196D02*
X032950Y010196D01*
X034259Y010238D02*
X034259Y009962D01*
X033983Y009962D01*
X033983Y010238D01*
X034259Y010238D01*
X034259Y010079D02*
X033983Y010079D01*
X033983Y010196D02*
X034259Y010196D01*
X034950Y010238D02*
X034950Y009962D01*
X034674Y009962D01*
X034674Y010238D01*
X034950Y010238D01*
X034950Y010079D02*
X034674Y010079D01*
X034674Y010196D02*
X034950Y010196D01*
X036259Y010238D02*
X036259Y009962D01*
X035983Y009962D01*
X035983Y010238D01*
X036259Y010238D01*
X036259Y010079D02*
X035983Y010079D01*
X035983Y010196D02*
X036259Y010196D01*
X036950Y010238D02*
X036950Y009962D01*
X036674Y009962D01*
X036674Y010238D01*
X036950Y010238D01*
X036950Y010079D02*
X036674Y010079D01*
X036674Y010196D02*
X036950Y010196D01*
X038259Y010238D02*
X038259Y009962D01*
X037983Y009962D01*
X037983Y010238D01*
X038259Y010238D01*
X038259Y010079D02*
X037983Y010079D01*
X037983Y010196D02*
X038259Y010196D01*
X038950Y010238D02*
X038950Y009962D01*
X038674Y009962D01*
X038674Y010238D01*
X038950Y010238D01*
X038950Y010079D02*
X038674Y010079D01*
X038674Y010196D02*
X038950Y010196D01*
X040259Y010238D02*
X040259Y009962D01*
X039983Y009962D01*
X039983Y010238D01*
X040259Y010238D01*
X040259Y010079D02*
X039983Y010079D01*
X039983Y010196D02*
X040259Y010196D01*
X040950Y010238D02*
X040950Y009962D01*
X040674Y009962D01*
X040674Y010238D01*
X040950Y010238D01*
X040950Y010079D02*
X040674Y010079D01*
X040674Y010196D02*
X040950Y010196D01*
X042259Y010238D02*
X042259Y009962D01*
X041983Y009962D01*
X041983Y010238D01*
X042259Y010238D01*
X042259Y010079D02*
X041983Y010079D01*
X041983Y010196D02*
X042259Y010196D01*
X042950Y010238D02*
X042950Y009962D01*
X042674Y009962D01*
X042674Y010238D01*
X042950Y010238D01*
X042950Y010079D02*
X042674Y010079D01*
X042674Y010196D02*
X042950Y010196D01*
X042950Y008738D02*
X042950Y008462D01*
X042674Y008462D01*
X042674Y008738D01*
X042950Y008738D01*
X042950Y008579D02*
X042674Y008579D01*
X042674Y008696D02*
X042950Y008696D01*
X042259Y008738D02*
X042259Y008462D01*
X041983Y008462D01*
X041983Y008738D01*
X042259Y008738D01*
X042259Y008579D02*
X041983Y008579D01*
X041983Y008696D02*
X042259Y008696D01*
X040950Y008738D02*
X040950Y008462D01*
X040674Y008462D01*
X040674Y008738D01*
X040950Y008738D01*
X040950Y008579D02*
X040674Y008579D01*
X040674Y008696D02*
X040950Y008696D01*
X040259Y008738D02*
X040259Y008462D01*
X039983Y008462D01*
X039983Y008738D01*
X040259Y008738D01*
X040259Y008579D02*
X039983Y008579D01*
X039983Y008696D02*
X040259Y008696D01*
X038950Y008738D02*
X038950Y008462D01*
X038674Y008462D01*
X038674Y008738D01*
X038950Y008738D01*
X038950Y008579D02*
X038674Y008579D01*
X038674Y008696D02*
X038950Y008696D01*
X038259Y008738D02*
X038259Y008462D01*
X037983Y008462D01*
X037983Y008738D01*
X038259Y008738D01*
X038259Y008579D02*
X037983Y008579D01*
X037983Y008696D02*
X038259Y008696D01*
X036950Y008738D02*
X036950Y008462D01*
X036674Y008462D01*
X036674Y008738D01*
X036950Y008738D01*
X036950Y008579D02*
X036674Y008579D01*
X036674Y008696D02*
X036950Y008696D01*
X036259Y008738D02*
X036259Y008462D01*
X035983Y008462D01*
X035983Y008738D01*
X036259Y008738D01*
X036259Y008579D02*
X035983Y008579D01*
X035983Y008696D02*
X036259Y008696D01*
X034950Y008738D02*
X034950Y008462D01*
X034674Y008462D01*
X034674Y008738D01*
X034950Y008738D01*
X034950Y008579D02*
X034674Y008579D01*
X034674Y008696D02*
X034950Y008696D01*
X034259Y008738D02*
X034259Y008462D01*
X033983Y008462D01*
X033983Y008738D01*
X034259Y008738D01*
X034259Y008579D02*
X033983Y008579D01*
X033983Y008696D02*
X034259Y008696D01*
X032950Y008738D02*
X032950Y008462D01*
X032674Y008462D01*
X032674Y008738D01*
X032950Y008738D01*
X032950Y008579D02*
X032674Y008579D01*
X032674Y008696D02*
X032950Y008696D01*
X032259Y008738D02*
X032259Y008462D01*
X031983Y008462D01*
X031983Y008738D01*
X032259Y008738D01*
X032259Y008579D02*
X031983Y008579D01*
X031983Y008696D02*
X032259Y008696D01*
X030950Y008738D02*
X030950Y008462D01*
X030674Y008462D01*
X030674Y008738D01*
X030950Y008738D01*
X030950Y008579D02*
X030674Y008579D01*
X030674Y008696D02*
X030950Y008696D01*
X030259Y008738D02*
X030259Y008462D01*
X029983Y008462D01*
X029983Y008738D01*
X030259Y008738D01*
X030259Y008579D02*
X029983Y008579D01*
X029983Y008696D02*
X030259Y008696D01*
X028950Y008738D02*
X028950Y008462D01*
X028674Y008462D01*
X028674Y008738D01*
X028950Y008738D01*
X028950Y008579D02*
X028674Y008579D01*
X028674Y008696D02*
X028950Y008696D01*
X028259Y008738D02*
X028259Y008462D01*
X027983Y008462D01*
X027983Y008738D01*
X028259Y008738D01*
X028259Y008579D02*
X027983Y008579D01*
X027983Y008696D02*
X028259Y008696D01*
X028259Y007238D02*
X028259Y006962D01*
X027983Y006962D01*
X027983Y007238D01*
X028259Y007238D01*
X028259Y007079D02*
X027983Y007079D01*
X027983Y007196D02*
X028259Y007196D01*
X028950Y007238D02*
X028950Y006962D01*
X028674Y006962D01*
X028674Y007238D01*
X028950Y007238D01*
X028950Y007079D02*
X028674Y007079D01*
X028674Y007196D02*
X028950Y007196D01*
X030259Y007238D02*
X030259Y006962D01*
X029983Y006962D01*
X029983Y007238D01*
X030259Y007238D01*
X030259Y007079D02*
X029983Y007079D01*
X029983Y007196D02*
X030259Y007196D01*
X030950Y007238D02*
X030950Y006962D01*
X030674Y006962D01*
X030674Y007238D01*
X030950Y007238D01*
X030950Y007079D02*
X030674Y007079D01*
X030674Y007196D02*
X030950Y007196D01*
X032259Y007238D02*
X032259Y006962D01*
X031983Y006962D01*
X031983Y007238D01*
X032259Y007238D01*
X032259Y007079D02*
X031983Y007079D01*
X031983Y007196D02*
X032259Y007196D01*
X032950Y007238D02*
X032950Y006962D01*
X032674Y006962D01*
X032674Y007238D01*
X032950Y007238D01*
X032950Y007079D02*
X032674Y007079D01*
X032674Y007196D02*
X032950Y007196D01*
X034259Y007238D02*
X034259Y006962D01*
X033983Y006962D01*
X033983Y007238D01*
X034259Y007238D01*
X034259Y007079D02*
X033983Y007079D01*
X033983Y007196D02*
X034259Y007196D01*
X034950Y007238D02*
X034950Y006962D01*
X034674Y006962D01*
X034674Y007238D01*
X034950Y007238D01*
X034950Y007079D02*
X034674Y007079D01*
X034674Y007196D02*
X034950Y007196D01*
X036259Y007238D02*
X036259Y006962D01*
X035983Y006962D01*
X035983Y007238D01*
X036259Y007238D01*
X036259Y007079D02*
X035983Y007079D01*
X035983Y007196D02*
X036259Y007196D01*
X036950Y007238D02*
X036950Y006962D01*
X036674Y006962D01*
X036674Y007238D01*
X036950Y007238D01*
X036950Y007079D02*
X036674Y007079D01*
X036674Y007196D02*
X036950Y007196D01*
X038259Y007238D02*
X038259Y006962D01*
X037983Y006962D01*
X037983Y007238D01*
X038259Y007238D01*
X038259Y007079D02*
X037983Y007079D01*
X037983Y007196D02*
X038259Y007196D01*
X038950Y007238D02*
X038950Y006962D01*
X038674Y006962D01*
X038674Y007238D01*
X038950Y007238D01*
X038950Y007079D02*
X038674Y007079D01*
X038674Y007196D02*
X038950Y007196D01*
X040259Y007238D02*
X040259Y006962D01*
X039983Y006962D01*
X039983Y007238D01*
X040259Y007238D01*
X040259Y007079D02*
X039983Y007079D01*
X039983Y007196D02*
X040259Y007196D01*
X040950Y007238D02*
X040950Y006962D01*
X040674Y006962D01*
X040674Y007238D01*
X040950Y007238D01*
X040950Y007079D02*
X040674Y007079D01*
X040674Y007196D02*
X040950Y007196D01*
X042259Y007238D02*
X042259Y006962D01*
X041983Y006962D01*
X041983Y007238D01*
X042259Y007238D01*
X042259Y007079D02*
X041983Y007079D01*
X041983Y007196D02*
X042259Y007196D01*
X042950Y007238D02*
X042950Y006962D01*
X042674Y006962D01*
X042674Y007238D01*
X042950Y007238D01*
X042950Y007079D02*
X042674Y007079D01*
X042674Y007196D02*
X042950Y007196D01*
D12*
X037967Y005185D03*
X036967Y005185D03*
X035967Y005185D03*
X034967Y005185D03*
X034967Y004515D03*
X035967Y004515D03*
X036967Y004515D03*
X037967Y004515D03*
X033967Y004515D03*
X032967Y004515D03*
X031967Y004515D03*
X030967Y004515D03*
X030967Y005185D03*
X031967Y005185D03*
X032967Y005185D03*
X033967Y005185D03*
X016967Y013015D03*
X016967Y013685D03*
X012967Y013935D03*
X012967Y013265D03*
X012904Y011082D03*
X012904Y010413D03*
X008217Y008435D03*
X008217Y007765D03*
X006717Y006185D03*
X006717Y005515D03*
X006717Y004435D03*
X006717Y003765D03*
X015467Y016515D03*
X015467Y017185D03*
X010467Y019515D03*
X010467Y020185D03*
X008217Y020185D03*
X008217Y019515D03*
D13*
X010217Y005650D03*
X010717Y005650D03*
X011217Y005650D03*
X011717Y005650D03*
X012217Y005650D03*
X012717Y005650D03*
X013217Y005650D03*
X013717Y005650D03*
X013717Y003550D03*
X013217Y003550D03*
X012717Y003550D03*
X012217Y003550D03*
X011717Y003550D03*
X011217Y003550D03*
X010717Y003550D03*
X010217Y003550D03*
D14*
X009357Y017840D03*
X008457Y017840D03*
X007557Y017840D03*
D15*
X008467Y015360D03*
D16*
X009217Y019496D03*
X009217Y020204D03*
X011467Y020204D03*
X011467Y019496D03*
D17*
X013815Y013499D03*
X014071Y013499D03*
X014327Y013499D03*
X014583Y013499D03*
X014839Y013499D03*
X015095Y013499D03*
X015351Y013499D03*
X015607Y013499D03*
X015862Y013499D03*
X016118Y013499D03*
X016118Y011201D03*
X015862Y011201D03*
X015607Y011201D03*
X015351Y011201D03*
X015095Y011201D03*
X014839Y011201D03*
X014583Y011201D03*
X014327Y011201D03*
X014071Y011201D03*
X013815Y011201D03*
D18*
X021717Y007452D03*
X022217Y007452D03*
X022717Y007452D03*
X023217Y007452D03*
X023717Y007452D03*
X024217Y007452D03*
X024717Y007452D03*
X025217Y007452D03*
X025217Y005248D03*
X024717Y005248D03*
X024217Y005248D03*
X023717Y005248D03*
X023217Y005248D03*
X022717Y005248D03*
X022217Y005248D03*
X021717Y005248D03*
X021717Y016748D03*
X022217Y016748D03*
X022717Y016748D03*
X023217Y016748D03*
X023717Y016748D03*
X024217Y016748D03*
X024717Y016748D03*
X025217Y016748D03*
X025217Y018952D03*
X024717Y018952D03*
X024217Y018952D03*
X023717Y018952D03*
X023217Y018952D03*
X022717Y018952D03*
X022217Y018952D03*
X021717Y018952D03*
D19*
X020467Y016450D03*
X018967Y016450D03*
X018967Y014250D03*
X020467Y014250D03*
X019717Y012950D03*
X018217Y012950D03*
X021717Y012950D03*
X023217Y012950D03*
X023217Y010750D03*
X021717Y010750D03*
X019717Y010750D03*
X018217Y010750D03*
X018701Y009200D03*
X020201Y009200D03*
X020201Y007000D03*
X018701Y007000D03*
D20*
X010091Y008338D03*
X009717Y008338D03*
X009343Y008338D03*
X009343Y009362D03*
X009717Y009362D03*
X010091Y009362D03*
D21*
X013882Y008350D03*
X014551Y008350D03*
M02*
