%
M48
M72
T01C0.02362
T02C0.02400
T03C0.03150
T04C0.03200
T05C0.03543
T06C0.03600
T07C0.04000
T08C0.04331
T09C0.08661
T10C0.09843
T11C0.15748
%
T01
X135790Y190146
X146774Y179300
X154668Y173394
X195494Y167686
X211243Y163749
X183683Y136190
X177778Y124379
X162168Y131800
X154668Y131800
X137168Y131800
X132168Y137194
X135258Y120048
X132168Y109300
X135258Y105875
X109274Y115324
X92168Y126800
X84668Y134300
X107168Y84300
X121085Y89339
X142345Y84615
X128172Y68080
X144668Y59300
X144668Y49300
X152168Y49300
X157168Y49300
X99825Y68080
X183683Y88946
X232168Y76800
X249668Y109300
X399648Y178060
X406597Y37765
X232109Y188552
X165967Y189339
T02
X217168Y149300
X222168Y144300
X227168Y139300
X232168Y134300
X237168Y129300
X242168Y124300
X247168Y119300
X272168Y121800
X277168Y114300
X277168Y99300
X294668Y99300
X314668Y99300
X334668Y99300
X354668Y99300
X374668Y99300
X394668Y99300
X414668Y99300
X414668Y129300
X394668Y129300
X374668Y129300
X354668Y129300
X334668Y129300
X314668Y129300
X294668Y129300
X277168Y129300
X269668Y141800
X277168Y146800
X272168Y154300
X259668Y156800
X264668Y161800
X259668Y174300
X274668Y184300
X267168Y186800
X289668Y179300
X294668Y159300
X314668Y159300
X334668Y159300
X354668Y159300
X374668Y159300
X394668Y159300
X414668Y159300
X237168Y171800
X224668Y189300
X114668Y69300
X107168Y62076
X134668Y89300
X142168Y94300
X237168Y51800
X247168Y56800
X277168Y69300
X294668Y69300
X314668Y69300
X334668Y69300
X354668Y69300
X374668Y69300
X394668Y69300
X414668Y69300
X379668Y49300
X369668Y49300
X359668Y49300
X349668Y49300
X339668Y49300
X329668Y49300
X302168Y49300
X242168Y79300
X277168Y84300
T03
X127168Y79300
X204668Y171800
X127168Y179300
X217168Y79300
T04
X112168Y123800
X112168Y104800
X84668Y48800
X84668Y29800
T05
X183683Y157843
X183683Y146032
T06
X80928Y120580
X80928Y111237
X80928Y102363
X80928Y93020
T07
X284668Y189300
X294668Y189300
X304668Y189300
X314668Y189300
X439983Y161308
X439983Y151308
X439983Y141308
X439983Y131308
X439983Y121308
X439983Y85717
X439983Y75717
X439983Y65717
X439983Y55717
X439983Y45717
X189668Y19300
X179668Y19300
X169668Y19300
X159668Y19300
X149668Y19300
T08
X71085Y115658
X71085Y97942
T09
X71479Y129635
X71479Y83965
T10
X435652Y183434
X435652Y22017
T11
X439668Y102725
M30
