G75*
%MOIN*%
%OFA0B0*%
%FSLAX24Y24*%
%IPPOS*%
%LPD*%
%AMOC8*
5,1,8,0,0,1.08239X$1,22.5*
%
%ADD10C,0.0000*%
%ADD11C,0.0080*%
%ADD12C,0.0010*%
%ADD13C,0.0551*%
%ADD14C,0.0709*%
%ADD15C,0.0039*%
%ADD16C,0.0050*%
%ADD17C,0.0040*%
%ADD18R,0.0020X0.0040*%
%ADD19R,0.0020X0.0180*%
%ADD20R,0.0020X0.0220*%
%ADD21R,0.0020X0.0280*%
%ADD22R,0.0020X0.0300*%
%ADD23R,0.0020X0.0320*%
%ADD24R,0.0020X0.0360*%
%ADD25R,0.0020X0.0420*%
%ADD26R,0.0020X0.0440*%
%ADD27R,0.0020X0.0460*%
%ADD28R,0.0020X0.0480*%
%ADD29R,0.0020X0.0500*%
%ADD30R,0.0020X0.0520*%
%ADD31R,0.0020X0.0540*%
%ADD32R,0.0020X0.0560*%
%ADD33R,0.0020X0.0580*%
%ADD34R,0.0020X0.0600*%
%ADD35R,0.0020X0.0620*%
%ADD36R,0.0020X0.0640*%
%ADD37R,0.0020X0.0660*%
%ADD38R,0.0020X0.0120*%
%ADD39R,0.0020X0.0140*%
%ADD40R,0.0020X0.0240*%
%ADD41R,0.0020X0.0680*%
%ADD42R,0.0020X0.0340*%
%ADD43R,0.0020X0.0400*%
%ADD44R,0.0020X0.0200*%
%ADD45R,0.0020X0.0700*%
%ADD46R,0.0020X0.0720*%
%ADD47R,0.0020X0.0740*%
%ADD48R,0.0020X0.0760*%
%ADD49R,0.0020X0.0780*%
%ADD50R,0.0020X0.0800*%
%ADD51R,0.0020X0.0820*%
%ADD52R,0.0020X0.0860*%
%ADD53R,0.0020X0.0840*%
%ADD54R,0.0020X0.0880*%
%ADD55R,0.0020X0.0900*%
%ADD56R,0.0020X0.0920*%
%ADD57R,0.0020X0.0940*%
%ADD58R,0.0020X0.0960*%
%ADD59R,0.0020X0.1000*%
%ADD60R,0.0020X0.0980*%
%ADD61R,0.0020X0.1020*%
%ADD62R,0.0020X0.1040*%
%ADD63R,0.0020X0.1060*%
%ADD64R,0.0020X0.1080*%
%ADD65R,0.0020X0.1100*%
%ADD66R,0.0020X0.1140*%
%ADD67R,0.0020X0.2220*%
%ADD68R,0.0020X0.2180*%
%ADD69R,0.0020X0.0060*%
%ADD70R,0.0020X0.2160*%
%ADD71R,0.0020X0.2140*%
%ADD72R,0.0020X0.2580*%
%ADD73R,0.0020X0.2620*%
%ADD74R,0.0020X0.2640*%
%ADD75R,0.0020X0.2680*%
%ADD76R,0.0020X0.2720*%
%ADD77R,0.0020X0.2740*%
%ADD78R,0.0020X0.2760*%
%ADD79R,0.0020X0.2800*%
%ADD80R,0.0020X0.2820*%
%ADD81R,0.0020X0.2860*%
%ADD82R,0.0020X0.2920*%
%ADD83R,0.0020X0.2980*%
%ADD84R,0.0020X0.1860*%
%ADD85R,0.0020X0.1160*%
%ADD86R,0.0020X0.3200*%
%ADD87R,0.0020X0.4420*%
%ADD88R,0.0020X0.3040*%
%ADD89R,0.0020X0.1340*%
%ADD90R,0.0020X0.4440*%
%ADD91R,0.0020X0.4540*%
%ADD92R,0.0020X0.4560*%
%ADD93R,0.0020X0.4600*%
%ADD94R,0.0020X0.4620*%
%ADD95R,0.0020X0.4640*%
%ADD96R,0.0020X0.4660*%
%ADD97R,0.0020X0.4680*%
%ADD98R,0.0020X0.4700*%
%ADD99R,0.0020X0.4720*%
%ADD100R,0.0020X0.4740*%
%ADD101R,0.0020X0.4760*%
%ADD102R,0.0020X0.3640*%
%ADD103R,0.0020X0.3600*%
%ADD104R,0.0020X0.3580*%
%ADD105R,0.0020X0.3560*%
%ADD106R,0.0020X0.3520*%
%ADD107R,0.0020X0.1920*%
%ADD108R,0.0020X0.1780*%
%ADD109R,0.0020X0.1760*%
%ADD110R,0.0020X0.1660*%
%ADD111R,0.0020X0.1620*%
%ADD112R,0.0020X0.1600*%
%ADD113R,0.0020X0.1540*%
%ADD114R,0.0020X0.1500*%
%ADD115R,0.0020X0.1460*%
%ADD116R,0.0020X0.1440*%
%ADD117R,0.0020X0.1420*%
%ADD118R,0.0020X0.1180*%
%ADD119R,0.0020X0.1400*%
%ADD120R,0.0020X0.1280*%
%ADD121R,0.0020X0.1360*%
%ADD122R,0.0020X0.1480*%
%ADD123R,0.0020X0.0020*%
%ADD124R,0.0020X0.1320*%
%ADD125R,0.0020X0.1640*%
%ADD126R,0.0020X0.1720*%
%ADD127R,0.0020X0.1260*%
%ADD128R,0.0020X0.1940*%
%ADD129R,0.0020X0.1220*%
%ADD130R,0.0020X0.2020*%
%ADD131R,0.0020X0.2040*%
%ADD132R,0.0020X0.1200*%
%ADD133R,0.0020X0.2100*%
%ADD134R,0.0020X0.2260*%
%ADD135R,0.0020X0.1120*%
%ADD136R,0.0020X0.2300*%
%ADD137R,0.0020X0.0080*%
%ADD138R,0.0020X0.2400*%
%ADD139R,0.0020X0.0380*%
%ADD140R,0.0020X0.2500*%
%ADD141R,0.0020X0.2600*%
%ADD142R,0.0020X0.2780*%
%ADD143R,0.0020X0.2900*%
%ADD144R,0.0020X0.0160*%
%ADD145R,0.0020X0.2960*%
%ADD146R,0.0020X0.3120*%
%ADD147R,0.0020X0.3240*%
%ADD148R,0.0020X0.3280*%
%ADD149R,0.0020X0.3340*%
%ADD150R,0.0020X0.3380*%
%ADD151R,0.0020X0.3420*%
%ADD152R,0.0020X0.3460*%
%ADD153R,0.0020X0.3480*%
%ADD154R,0.0020X0.3500*%
%ADD155R,0.0020X0.3540*%
%ADD156R,0.0020X0.0100*%
%ADD157R,0.0020X0.3360*%
%ADD158R,0.0020X0.3320*%
%ADD159R,0.0020X0.1240*%
%ADD160R,0.0020X0.3300*%
%ADD161R,0.0020X0.3220*%
%ADD162R,0.0020X0.3080*%
%ADD163R,0.0020X0.2940*%
%ADD164R,0.0020X0.2880*%
%ADD165R,0.0020X0.1300*%
%ADD166R,0.0020X0.2660*%
%ADD167R,0.0020X0.2560*%
%ADD168R,0.0020X0.2520*%
%ADD169R,0.0020X0.2480*%
%ADD170R,0.0020X0.2420*%
%ADD171R,0.0020X0.2360*%
%ADD172R,0.0020X0.1380*%
%ADD173R,0.0020X0.2240*%
%ADD174R,0.0020X0.2120*%
%ADD175R,0.0020X0.1520*%
%ADD176R,0.0020X0.0260*%
%ADD177R,0.0020X0.1560*%
%ADD178R,0.0020X0.1680*%
%ADD179R,0.0020X0.1700*%
%ADD180R,0.0020X0.1740*%
%ADD181R,0.0020X0.1800*%
%ADD182R,0.0020X0.1580*%
%ADD183R,0.0020X0.3060*%
%ADD184R,0.0020X0.3800*%
%ADD185R,0.0020X0.3780*%
%ADD186R,0.0020X0.3760*%
%ADD187R,0.0020X0.3740*%
%ADD188R,0.0020X0.3720*%
%ADD189R,0.0020X0.3700*%
%ADD190R,0.0020X0.2280*%
%ADD191R,0.0020X0.2080*%
%ADD192R,0.0020X0.1980*%
%ADD193R,0.0020X0.1880*%
%ADD194R,0.0020X0.2200*%
%ADD195R,0.0020X0.3440*%
%ADD196R,0.0020X0.4220*%
%ADD197R,0.0020X0.4180*%
%ADD198R,0.0020X0.4140*%
%ADD199R,0.0020X0.4120*%
%ADD200R,0.0020X0.4040*%
%ADD201R,0.0020X0.4000*%
%ADD202R,0.0020X0.3960*%
%ADD203R,0.0020X0.4020*%
%ADD204R,0.0020X0.4240*%
%ADD205R,0.0020X0.4380*%
%ADD206R,0.0020X0.4460*%
%ADD207R,0.0020X0.4520*%
%ADD208R,0.0020X0.4840*%
%ADD209R,0.0020X0.4880*%
%ADD210R,0.0020X0.4920*%
%ADD211R,0.0020X0.4980*%
%ADD212R,0.0020X0.5000*%
%ADD213R,0.0020X0.5080*%
%ADD214R,0.0020X0.5100*%
%ADD215R,0.0020X0.5120*%
%ADD216R,0.0020X0.5180*%
%ADD217R,0.0020X0.5240*%
%ADD218R,0.0020X0.5260*%
%ADD219R,0.0020X0.5300*%
%ADD220R,0.0020X0.5360*%
%ADD221R,0.0020X0.5380*%
%ADD222R,0.0020X0.5460*%
%ADD223R,0.0020X0.5500*%
%ADD224R,0.0020X0.5560*%
%ADD225R,0.0020X0.5640*%
%ADD226R,0.0020X0.5660*%
%ADD227R,0.0020X0.5680*%
%ADD228R,0.0020X0.5720*%
%ADD229R,0.0020X0.5740*%
%ADD230R,0.0020X0.5780*%
%ADD231R,0.0020X0.5800*%
%ADD232R,0.0020X0.5860*%
%ADD233R,0.0020X0.4160*%
%ADD234R,0.0020X0.4100*%
%ADD235R,0.0020X0.4080*%
%ADD236R,0.0020X0.4060*%
%ADD237R,0.0020X0.2700*%
%ADD238R,0.0020X0.2540*%
%ADD239R,0.0020X0.2460*%
%ADD240R,0.0020X0.2440*%
%ADD241R,0.0020X0.1820*%
%ADD242R,0.0020X0.1840*%
%ADD243R,0.0020X0.2000*%
%ADD244R,0.0020X0.2060*%
%ADD245R,0.0020X0.2320*%
%ADD246R,0.0020X0.2340*%
%ADD247R,0.0020X0.6760*%
%ADD248R,0.0020X0.6700*%
%ADD249R,0.0020X0.6660*%
%ADD250R,0.0020X0.6580*%
%ADD251R,0.0020X0.6560*%
%ADD252R,0.0020X0.6480*%
%ADD253R,0.0020X0.6420*%
%ADD254R,0.0020X0.6360*%
%ADD255R,0.0020X0.6320*%
%ADD256R,0.0020X0.6260*%
%ADD257R,0.0020X0.6200*%
%ADD258R,0.0020X0.6140*%
%ADD259R,0.0020X0.6120*%
%ADD260R,0.0020X0.6020*%
%ADD261R,0.0020X0.6000*%
%ADD262R,0.0020X0.5960*%
%ADD263R,0.0020X0.5820*%
%ADD264R,0.0020X0.5760*%
%ADD265R,0.0020X0.5600*%
%ADD266R,0.0020X0.5480*%
%ADD267R,0.0020X0.5400*%
%ADD268R,0.0020X0.5140*%
%ADD269R,0.0020X0.5040*%
%ADD270R,0.0020X0.4960*%
%ADD271R,0.0020X0.4860*%
%ADD272R,0.0020X0.4820*%
%ADD273R,0.0020X0.4780*%
%ADD274R,0.0020X0.4500*%
%ADD275R,0.0020X0.4320*%
%ADD276R,0.0020X0.4280*%
%ADD277R,0.0020X0.3880*%
%ADD278R,0.0020X0.3820*%
%ADD279R,0.0020X0.3680*%
%ADD280R,0.0020X0.2840*%
D10*
X005967Y003153D02*
X005967Y018587D01*
X005969Y018683D01*
X005975Y018779D01*
X005984Y018875D01*
X005997Y018970D01*
X006014Y019065D01*
X006035Y019158D01*
X006059Y019251D01*
X006087Y019343D01*
X006118Y019434D01*
X006153Y019524D01*
X006192Y019612D01*
X006234Y019698D01*
X006279Y019783D01*
X006328Y019866D01*
X006380Y019947D01*
X006435Y020026D01*
X006493Y020103D01*
X006554Y020177D01*
X006617Y020249D01*
X006684Y020318D01*
X006753Y020385D01*
X006825Y020448D01*
X006899Y020509D01*
X006976Y020567D01*
X007055Y020622D01*
X007136Y020674D01*
X007219Y020723D01*
X007304Y020768D01*
X007390Y020810D01*
X007478Y020849D01*
X007568Y020884D01*
X007659Y020915D01*
X007751Y020943D01*
X007844Y020967D01*
X007937Y020988D01*
X008032Y021005D01*
X008127Y021018D01*
X008223Y021027D01*
X008319Y021033D01*
X008415Y021035D01*
X043867Y021035D01*
X043941Y021033D01*
X044016Y021027D01*
X044090Y021018D01*
X044163Y021005D01*
X044235Y020988D01*
X044307Y020968D01*
X044378Y020943D01*
X044447Y020916D01*
X044514Y020885D01*
X044580Y020850D01*
X044645Y020813D01*
X044707Y020772D01*
X044767Y020727D01*
X044825Y020680D01*
X044880Y020630D01*
X044932Y020578D01*
X044982Y020523D01*
X045029Y020465D01*
X045074Y020405D01*
X045115Y020343D01*
X045152Y020278D01*
X045187Y020212D01*
X045218Y020145D01*
X045245Y020076D01*
X045270Y020005D01*
X045290Y019933D01*
X045307Y019861D01*
X045320Y019788D01*
X045329Y019714D01*
X045335Y019639D01*
X045337Y019565D01*
X045337Y003911D01*
X042975Y003600D02*
X042977Y003644D01*
X042983Y003688D01*
X042993Y003731D01*
X043006Y003773D01*
X043024Y003813D01*
X043045Y003852D01*
X043069Y003889D01*
X043096Y003924D01*
X043127Y003956D01*
X043160Y003985D01*
X043196Y004011D01*
X043234Y004033D01*
X043274Y004052D01*
X043315Y004068D01*
X043358Y004080D01*
X043401Y004088D01*
X043445Y004092D01*
X043489Y004092D01*
X043533Y004088D01*
X043576Y004080D01*
X043619Y004068D01*
X043660Y004052D01*
X043700Y004033D01*
X043738Y004011D01*
X043774Y003985D01*
X043807Y003956D01*
X043838Y003924D01*
X043865Y003889D01*
X043889Y003852D01*
X043910Y003813D01*
X043928Y003773D01*
X043941Y003731D01*
X043951Y003688D01*
X043957Y003644D01*
X043959Y003600D01*
X043957Y003556D01*
X043951Y003512D01*
X043941Y003469D01*
X043928Y003427D01*
X043910Y003387D01*
X043889Y003348D01*
X043865Y003311D01*
X043838Y003276D01*
X043807Y003244D01*
X043774Y003215D01*
X043738Y003189D01*
X043700Y003167D01*
X043660Y003148D01*
X043619Y003132D01*
X043576Y003120D01*
X043533Y003112D01*
X043489Y003108D01*
X043445Y003108D01*
X043401Y003112D01*
X043358Y003120D01*
X043315Y003132D01*
X043274Y003148D01*
X043234Y003167D01*
X043196Y003189D01*
X043160Y003215D01*
X043127Y003244D01*
X043096Y003276D01*
X043069Y003311D01*
X043045Y003348D01*
X043024Y003387D01*
X043006Y003427D01*
X042993Y003469D01*
X042983Y003512D01*
X042977Y003556D01*
X042975Y003600D01*
X042776Y001350D02*
X042877Y001352D01*
X042977Y001358D01*
X043077Y001368D01*
X043177Y001382D01*
X043276Y001399D01*
X043374Y001421D01*
X043471Y001446D01*
X043567Y001475D01*
X043662Y001508D01*
X043756Y001545D01*
X043848Y001585D01*
X043939Y001629D01*
X044027Y001677D01*
X044114Y001727D01*
X044199Y001782D01*
X044281Y001839D01*
X044361Y001900D01*
X044439Y001964D01*
X044514Y002030D01*
X044587Y002100D01*
X044657Y002173D01*
X044723Y002248D01*
X044787Y002326D01*
X044848Y002406D01*
X044905Y002488D01*
X044960Y002573D01*
X045010Y002660D01*
X045058Y002748D01*
X045102Y002839D01*
X045142Y002931D01*
X045179Y003025D01*
X045212Y003120D01*
X045241Y003216D01*
X045266Y003313D01*
X045288Y003411D01*
X045305Y003510D01*
X045319Y003610D01*
X045329Y003710D01*
X045335Y003810D01*
X045337Y003911D01*
X042776Y001350D02*
X007770Y001350D01*
X007687Y001352D01*
X007604Y001358D01*
X007521Y001367D01*
X007439Y001381D01*
X007357Y001398D01*
X007277Y001419D01*
X007197Y001443D01*
X007119Y001472D01*
X007042Y001504D01*
X006966Y001539D01*
X006893Y001578D01*
X006821Y001620D01*
X006751Y001666D01*
X006683Y001714D01*
X006618Y001766D01*
X006555Y001821D01*
X006495Y001878D01*
X006438Y001938D01*
X006383Y002001D01*
X006331Y002066D01*
X006283Y002134D01*
X006237Y002204D01*
X006195Y002276D01*
X006156Y002349D01*
X006121Y002425D01*
X006089Y002502D01*
X006060Y002580D01*
X006036Y002660D01*
X006015Y002740D01*
X005998Y002822D01*
X005984Y002904D01*
X005975Y002987D01*
X005969Y003070D01*
X005967Y003153D01*
X006892Y010714D02*
X006894Y010743D01*
X006900Y010771D01*
X006909Y010799D01*
X006922Y010825D01*
X006939Y010848D01*
X006958Y010870D01*
X006980Y010889D01*
X007005Y010904D01*
X007031Y010917D01*
X007059Y010925D01*
X007087Y010930D01*
X007116Y010931D01*
X007145Y010928D01*
X007173Y010921D01*
X007200Y010911D01*
X007226Y010897D01*
X007249Y010880D01*
X007270Y010860D01*
X007288Y010837D01*
X007303Y010812D01*
X007314Y010785D01*
X007322Y010757D01*
X007326Y010728D01*
X007326Y010700D01*
X007322Y010671D01*
X007314Y010643D01*
X007303Y010616D01*
X007288Y010591D01*
X007270Y010568D01*
X007249Y010548D01*
X007226Y010531D01*
X007200Y010517D01*
X007173Y010507D01*
X007145Y010500D01*
X007116Y010497D01*
X007087Y010498D01*
X007059Y010503D01*
X007031Y010511D01*
X007005Y010524D01*
X006980Y010539D01*
X006958Y010558D01*
X006939Y010580D01*
X006922Y010603D01*
X006909Y010629D01*
X006900Y010657D01*
X006894Y010685D01*
X006892Y010714D01*
X006892Y012486D02*
X006894Y012515D01*
X006900Y012543D01*
X006909Y012571D01*
X006922Y012597D01*
X006939Y012620D01*
X006958Y012642D01*
X006980Y012661D01*
X007005Y012676D01*
X007031Y012689D01*
X007059Y012697D01*
X007087Y012702D01*
X007116Y012703D01*
X007145Y012700D01*
X007173Y012693D01*
X007200Y012683D01*
X007226Y012669D01*
X007249Y012652D01*
X007270Y012632D01*
X007288Y012609D01*
X007303Y012584D01*
X007314Y012557D01*
X007322Y012529D01*
X007326Y012500D01*
X007326Y012472D01*
X007322Y012443D01*
X007314Y012415D01*
X007303Y012388D01*
X007288Y012363D01*
X007270Y012340D01*
X007249Y012320D01*
X007226Y012303D01*
X007200Y012289D01*
X007173Y012279D01*
X007145Y012272D01*
X007116Y012269D01*
X007087Y012270D01*
X007059Y012275D01*
X007031Y012283D01*
X007005Y012296D01*
X006980Y012311D01*
X006958Y012330D01*
X006939Y012352D01*
X006922Y012375D01*
X006909Y012401D01*
X006900Y012429D01*
X006894Y012457D01*
X006892Y012486D01*
X042975Y019350D02*
X042977Y019394D01*
X042983Y019438D01*
X042993Y019481D01*
X043006Y019523D01*
X043024Y019563D01*
X043045Y019602D01*
X043069Y019639D01*
X043096Y019674D01*
X043127Y019706D01*
X043160Y019735D01*
X043196Y019761D01*
X043234Y019783D01*
X043274Y019802D01*
X043315Y019818D01*
X043358Y019830D01*
X043401Y019838D01*
X043445Y019842D01*
X043489Y019842D01*
X043533Y019838D01*
X043576Y019830D01*
X043619Y019818D01*
X043660Y019802D01*
X043700Y019783D01*
X043738Y019761D01*
X043774Y019735D01*
X043807Y019706D01*
X043838Y019674D01*
X043865Y019639D01*
X043889Y019602D01*
X043910Y019563D01*
X043928Y019523D01*
X043941Y019481D01*
X043951Y019438D01*
X043957Y019394D01*
X043959Y019350D01*
X043957Y019306D01*
X043951Y019262D01*
X043941Y019219D01*
X043928Y019177D01*
X043910Y019137D01*
X043889Y019098D01*
X043865Y019061D01*
X043838Y019026D01*
X043807Y018994D01*
X043774Y018965D01*
X043738Y018939D01*
X043700Y018917D01*
X043660Y018898D01*
X043619Y018882D01*
X043576Y018870D01*
X043533Y018862D01*
X043489Y018858D01*
X043445Y018858D01*
X043401Y018862D01*
X043358Y018870D01*
X043315Y018882D01*
X043274Y018898D01*
X043234Y018917D01*
X043196Y018939D01*
X043160Y018965D01*
X043127Y018994D01*
X043096Y019026D01*
X043069Y019061D01*
X043045Y019098D01*
X043024Y019137D01*
X043006Y019177D01*
X042993Y019219D01*
X042983Y019262D01*
X042977Y019306D01*
X042975Y019350D01*
X043180Y011193D02*
X043182Y011249D01*
X043188Y011304D01*
X043198Y011358D01*
X043211Y011412D01*
X043229Y011465D01*
X043250Y011516D01*
X043274Y011566D01*
X043302Y011614D01*
X043334Y011660D01*
X043368Y011704D01*
X043406Y011745D01*
X043446Y011783D01*
X043489Y011818D01*
X043534Y011850D01*
X043582Y011879D01*
X043631Y011905D01*
X043682Y011927D01*
X043734Y011945D01*
X043788Y011959D01*
X043843Y011970D01*
X043898Y011977D01*
X043953Y011980D01*
X044009Y011979D01*
X044064Y011974D01*
X044119Y011965D01*
X044173Y011953D01*
X044226Y011936D01*
X044278Y011916D01*
X044328Y011892D01*
X044376Y011865D01*
X044423Y011835D01*
X044467Y011801D01*
X044509Y011764D01*
X044547Y011724D01*
X044584Y011682D01*
X044617Y011637D01*
X044646Y011591D01*
X044673Y011542D01*
X044695Y011491D01*
X044715Y011439D01*
X044730Y011385D01*
X044742Y011331D01*
X044750Y011276D01*
X044754Y011221D01*
X044754Y011165D01*
X044750Y011110D01*
X044742Y011055D01*
X044730Y011001D01*
X044715Y010947D01*
X044695Y010895D01*
X044673Y010844D01*
X044646Y010795D01*
X044617Y010749D01*
X044584Y010704D01*
X044547Y010662D01*
X044509Y010622D01*
X044467Y010585D01*
X044423Y010551D01*
X044376Y010521D01*
X044328Y010494D01*
X044278Y010470D01*
X044226Y010450D01*
X044173Y010433D01*
X044119Y010421D01*
X044064Y010412D01*
X044009Y010407D01*
X043953Y010406D01*
X043898Y010409D01*
X043843Y010416D01*
X043788Y010427D01*
X043734Y010441D01*
X043682Y010459D01*
X043631Y010481D01*
X043582Y010507D01*
X043534Y010536D01*
X043489Y010568D01*
X043446Y010603D01*
X043406Y010641D01*
X043368Y010682D01*
X043334Y010726D01*
X043302Y010772D01*
X043274Y010820D01*
X043250Y010870D01*
X043229Y010921D01*
X043211Y010974D01*
X043198Y011028D01*
X043188Y011082D01*
X043182Y011137D01*
X043180Y011193D01*
D11*
X016467Y011494D02*
X016467Y012706D01*
X015955Y013100D02*
X014979Y013100D01*
X014467Y012706D02*
X014467Y011494D01*
X014979Y011100D02*
X015967Y011100D01*
X014967Y012100D02*
X014969Y012144D01*
X014975Y012188D01*
X014985Y012231D01*
X014998Y012273D01*
X015015Y012314D01*
X015036Y012353D01*
X015060Y012390D01*
X015087Y012425D01*
X015117Y012457D01*
X015150Y012487D01*
X015186Y012513D01*
X015223Y012537D01*
X015263Y012556D01*
X015304Y012573D01*
X015347Y012585D01*
X015390Y012594D01*
X015434Y012599D01*
X015478Y012600D01*
X015522Y012597D01*
X015566Y012590D01*
X015609Y012579D01*
X015651Y012565D01*
X015691Y012547D01*
X015730Y012525D01*
X015766Y012501D01*
X015800Y012473D01*
X015832Y012442D01*
X015861Y012408D01*
X015887Y012372D01*
X015909Y012334D01*
X015928Y012294D01*
X015943Y012252D01*
X015955Y012210D01*
X015963Y012166D01*
X015967Y012122D01*
X015967Y012078D01*
X015963Y012034D01*
X015955Y011990D01*
X015943Y011948D01*
X015928Y011906D01*
X015909Y011866D01*
X015887Y011828D01*
X015861Y011792D01*
X015832Y011758D01*
X015800Y011727D01*
X015766Y011699D01*
X015730Y011675D01*
X015691Y011653D01*
X015651Y011635D01*
X015609Y011621D01*
X015566Y011610D01*
X015522Y011603D01*
X015478Y011600D01*
X015434Y011601D01*
X015390Y011606D01*
X015347Y011615D01*
X015304Y011627D01*
X015263Y011644D01*
X015223Y011663D01*
X015186Y011687D01*
X015150Y011713D01*
X015117Y011743D01*
X015087Y011775D01*
X015060Y011810D01*
X015036Y011847D01*
X015015Y011886D01*
X014998Y011927D01*
X014985Y011969D01*
X014975Y012012D01*
X014969Y012056D01*
X014967Y012100D01*
X014979Y015850D02*
X015955Y015850D01*
X016467Y016244D02*
X016467Y017456D01*
X015955Y017850D02*
X014967Y017850D01*
X014467Y017456D02*
X014467Y016244D01*
X014967Y016850D02*
X014969Y016894D01*
X014975Y016938D01*
X014985Y016981D01*
X014998Y017023D01*
X015015Y017064D01*
X015036Y017103D01*
X015060Y017140D01*
X015087Y017175D01*
X015117Y017207D01*
X015150Y017237D01*
X015186Y017263D01*
X015223Y017287D01*
X015263Y017306D01*
X015304Y017323D01*
X015347Y017335D01*
X015390Y017344D01*
X015434Y017349D01*
X015478Y017350D01*
X015522Y017347D01*
X015566Y017340D01*
X015609Y017329D01*
X015651Y017315D01*
X015691Y017297D01*
X015730Y017275D01*
X015766Y017251D01*
X015800Y017223D01*
X015832Y017192D01*
X015861Y017158D01*
X015887Y017122D01*
X015909Y017084D01*
X015928Y017044D01*
X015943Y017002D01*
X015955Y016960D01*
X015963Y016916D01*
X015967Y016872D01*
X015967Y016828D01*
X015963Y016784D01*
X015955Y016740D01*
X015943Y016698D01*
X015928Y016656D01*
X015909Y016616D01*
X015887Y016578D01*
X015861Y016542D01*
X015832Y016508D01*
X015800Y016477D01*
X015766Y016449D01*
X015730Y016425D01*
X015691Y016403D01*
X015651Y016385D01*
X015609Y016371D01*
X015566Y016360D01*
X015522Y016353D01*
X015478Y016350D01*
X015434Y016351D01*
X015390Y016356D01*
X015347Y016365D01*
X015304Y016377D01*
X015263Y016394D01*
X015223Y016413D01*
X015186Y016437D01*
X015150Y016463D01*
X015117Y016493D01*
X015087Y016525D01*
X015060Y016560D01*
X015036Y016597D01*
X015015Y016636D01*
X014998Y016677D01*
X014985Y016719D01*
X014975Y016762D01*
X014969Y016806D01*
X014967Y016850D01*
D12*
X014762Y016838D02*
X014762Y016763D01*
X014612Y016763D01*
X014662Y016763D02*
X014662Y016838D01*
X014687Y016863D01*
X014737Y016863D01*
X014762Y016838D01*
X014762Y016910D02*
X014762Y016985D01*
X014737Y017010D01*
X014687Y017010D01*
X014662Y016985D01*
X014662Y016910D01*
X014612Y016910D02*
X014762Y016910D01*
X014662Y016960D02*
X014612Y017010D01*
X014637Y017058D02*
X014612Y017083D01*
X014612Y017133D01*
X014637Y017158D01*
X014687Y017158D01*
X014687Y017108D01*
X014737Y017158D02*
X014762Y017133D01*
X014762Y017083D01*
X014737Y017058D01*
X014637Y017058D01*
X016172Y012394D02*
X016322Y012394D01*
X016322Y012344D02*
X016322Y012444D01*
X016322Y012297D02*
X016322Y012197D01*
X016172Y012197D01*
X016172Y012297D01*
X016247Y012247D02*
X016247Y012197D01*
X016222Y012150D02*
X016197Y012150D01*
X016172Y012125D01*
X016172Y012075D01*
X016197Y012050D01*
X016172Y012002D02*
X016172Y011902D01*
X016322Y011902D01*
X016322Y012002D01*
X016297Y012050D02*
X016322Y012075D01*
X016322Y012125D01*
X016297Y012150D01*
X016247Y012125D02*
X016222Y012150D01*
X016247Y012125D02*
X016247Y012075D01*
X016272Y012050D01*
X016297Y012050D01*
X016247Y011952D02*
X016247Y011902D01*
X016247Y011855D02*
X016222Y011830D01*
X016222Y011755D01*
X016222Y011805D02*
X016172Y011855D01*
X016247Y011855D02*
X016297Y011855D01*
X016322Y011830D01*
X016322Y011755D01*
X016172Y011755D01*
D13*
X019492Y015368D02*
X019492Y007887D01*
X019493Y007887D02*
X019495Y007853D01*
X019500Y007820D01*
X019509Y007788D01*
X019522Y007757D01*
X019537Y007727D01*
X019556Y007699D01*
X019578Y007674D01*
X019602Y007651D01*
X019629Y007630D01*
X019658Y007613D01*
X019689Y007599D01*
X019720Y007588D01*
X019753Y007581D01*
X019787Y007577D01*
X019820Y007577D01*
X019854Y007581D01*
X019886Y007588D01*
X019918Y007599D01*
X019949Y007613D01*
X019977Y007631D01*
X020004Y007651D01*
X026461Y011352D01*
X026489Y011370D01*
X026515Y011391D01*
X026539Y011415D01*
X026560Y011441D01*
X026578Y011469D01*
X026593Y011498D01*
X026605Y011529D01*
X026614Y011562D01*
X026619Y011595D01*
X026621Y011628D01*
X026619Y011661D01*
X026614Y011694D01*
X026605Y011727D01*
X026593Y011758D01*
X026578Y011787D01*
X026560Y011815D01*
X026539Y011841D01*
X026515Y011865D01*
X026489Y011886D01*
X026461Y011904D01*
X026461Y011903D02*
X020004Y015604D01*
X019977Y015624D01*
X019949Y015642D01*
X019918Y015656D01*
X019886Y015667D01*
X019854Y015674D01*
X019820Y015678D01*
X019787Y015678D01*
X019753Y015674D01*
X019720Y015667D01*
X019689Y015656D01*
X019658Y015642D01*
X019629Y015625D01*
X019602Y015604D01*
X019578Y015581D01*
X019556Y015556D01*
X019537Y015528D01*
X019522Y015498D01*
X019509Y015467D01*
X019500Y015435D01*
X019495Y015402D01*
X019493Y015368D01*
D14*
X021894Y011628D03*
D15*
X022389Y011310D02*
X022485Y011310D01*
X022423Y011348D02*
X022413Y011348D01*
X022416Y011352D02*
X022367Y011274D01*
X022307Y011205D01*
X022237Y011147D01*
X022159Y011099D01*
X022074Y011065D01*
X021985Y011044D01*
X021894Y011037D01*
X021894Y009974D01*
X022110Y009988D01*
X022323Y010030D01*
X022529Y010099D01*
X022723Y010195D01*
X022904Y010315D01*
X023067Y010458D01*
X023210Y010621D01*
X023331Y010801D01*
X022416Y011352D01*
X022365Y011272D02*
X022548Y011272D01*
X022611Y011234D02*
X022332Y011234D01*
X022296Y011196D02*
X022674Y011196D01*
X022737Y011158D02*
X022251Y011158D01*
X022194Y011121D02*
X022800Y011121D01*
X022863Y011083D02*
X022118Y011083D01*
X021989Y011045D02*
X022926Y011045D01*
X022989Y011007D02*
X021894Y011007D01*
X021894Y010969D02*
X023051Y010969D01*
X023114Y010931D02*
X021894Y010931D01*
X021894Y010893D02*
X023177Y010893D01*
X023240Y010855D02*
X021894Y010855D01*
X021894Y010818D02*
X023303Y010818D01*
X023317Y010780D02*
X021894Y010780D01*
X021894Y010742D02*
X023291Y010742D01*
X023266Y010704D02*
X021894Y010704D01*
X021894Y010666D02*
X023241Y010666D01*
X023215Y010628D02*
X021894Y010628D01*
X021894Y010590D02*
X023184Y010590D01*
X023151Y010552D02*
X021894Y010552D01*
X021894Y010515D02*
X023117Y010515D01*
X023084Y010477D02*
X021894Y010477D01*
X021894Y010439D02*
X023046Y010439D01*
X023002Y010401D02*
X021894Y010401D01*
X021894Y010363D02*
X022959Y010363D01*
X022916Y010325D02*
X021894Y010325D01*
X021894Y010287D02*
X022863Y010287D01*
X022806Y010250D02*
X021894Y010250D01*
X021894Y010212D02*
X022749Y010212D01*
X022681Y010174D02*
X021894Y010174D01*
X021894Y010136D02*
X022604Y010136D01*
X022526Y010098D02*
X021894Y010098D01*
X021894Y010060D02*
X022414Y010060D01*
X022286Y010022D02*
X021894Y010022D01*
X021894Y009984D02*
X022059Y009984D01*
X021394Y011314D02*
X020459Y010796D01*
X020364Y010991D01*
X020294Y011197D01*
X020252Y011409D01*
X020238Y011626D01*
X020253Y011842D01*
X020295Y012055D01*
X020366Y012260D01*
X020462Y012454D01*
X021382Y011923D01*
X021343Y011840D01*
X020253Y011840D01*
X020250Y011802D02*
X021331Y011802D01*
X021320Y011764D02*
X020247Y011764D01*
X020245Y011726D02*
X021313Y011726D01*
X021316Y011753D02*
X021343Y011840D01*
X021361Y011878D02*
X020260Y011878D01*
X020267Y011916D02*
X021379Y011916D01*
X021329Y011954D02*
X020275Y011954D01*
X020283Y011992D02*
X021263Y011992D01*
X021198Y012029D02*
X020290Y012029D01*
X020300Y012067D02*
X021132Y012067D01*
X021067Y012105D02*
X020313Y012105D01*
X020326Y012143D02*
X021001Y012143D01*
X020935Y012181D02*
X020338Y012181D01*
X020351Y012219D02*
X020870Y012219D01*
X020804Y012257D02*
X020364Y012257D01*
X020383Y012295D02*
X020739Y012295D01*
X020673Y012332D02*
X020401Y012332D01*
X020420Y012370D02*
X020607Y012370D01*
X020542Y012408D02*
X020439Y012408D01*
X020458Y012446D02*
X020476Y012446D01*
X020242Y011689D02*
X021308Y011689D01*
X021304Y011662D02*
X021316Y011753D01*
X021304Y011662D02*
X021306Y011571D01*
X021322Y011481D01*
X021352Y011394D01*
X021394Y011314D01*
X021388Y011310D02*
X020272Y011310D01*
X020264Y011348D02*
X021376Y011348D01*
X021356Y011386D02*
X020257Y011386D01*
X020251Y011424D02*
X021342Y011424D01*
X021328Y011461D02*
X020249Y011461D01*
X020246Y011499D02*
X021319Y011499D01*
X021312Y011537D02*
X020244Y011537D01*
X020241Y011575D02*
X021306Y011575D01*
X021305Y011613D02*
X020239Y011613D01*
X020240Y011651D02*
X021304Y011651D01*
X021319Y011272D02*
X020279Y011272D01*
X020287Y011234D02*
X021251Y011234D01*
X021182Y011196D02*
X020294Y011196D01*
X020307Y011158D02*
X021114Y011158D01*
X021045Y011121D02*
X020320Y011121D01*
X020333Y011083D02*
X020977Y011083D01*
X020908Y011045D02*
X020345Y011045D01*
X020358Y011007D02*
X020840Y011007D01*
X020771Y010969D02*
X020374Y010969D01*
X020393Y010931D02*
X020703Y010931D01*
X020635Y010893D02*
X020412Y010893D01*
X020430Y010855D02*
X020566Y010855D01*
X020498Y010818D02*
X020449Y010818D01*
X022139Y012165D02*
X022219Y012121D01*
X022291Y012065D01*
X022354Y011998D01*
X022405Y011923D01*
X023326Y012454D01*
X023206Y012635D01*
X023063Y012798D01*
X022900Y012942D01*
X022720Y013062D01*
X022526Y013159D01*
X022321Y013229D01*
X022108Y013271D01*
X021891Y013285D01*
X021872Y012217D01*
X021963Y012214D01*
X022053Y012196D01*
X022139Y012165D01*
X022179Y012143D02*
X022787Y012143D01*
X022852Y012181D02*
X022096Y012181D01*
X022239Y012105D02*
X022721Y012105D01*
X022656Y012067D02*
X022288Y012067D01*
X022325Y012029D02*
X022590Y012029D01*
X022524Y011992D02*
X022358Y011992D01*
X022384Y011954D02*
X022459Y011954D01*
X022918Y012219D02*
X021872Y012219D01*
X021873Y012257D02*
X022984Y012257D01*
X023049Y012295D02*
X021873Y012295D01*
X021874Y012332D02*
X023115Y012332D01*
X023180Y012370D02*
X021875Y012370D01*
X021875Y012408D02*
X023246Y012408D01*
X023312Y012446D02*
X021876Y012446D01*
X021877Y012484D02*
X023306Y012484D01*
X023281Y012522D02*
X021877Y012522D01*
X021878Y012560D02*
X023256Y012560D01*
X023231Y012597D02*
X021879Y012597D01*
X021879Y012635D02*
X023205Y012635D01*
X023172Y012673D02*
X021880Y012673D01*
X021881Y012711D02*
X023139Y012711D01*
X023106Y012749D02*
X021882Y012749D01*
X021882Y012787D02*
X023073Y012787D01*
X023033Y012825D02*
X021883Y012825D01*
X021884Y012863D02*
X022990Y012863D01*
X022947Y012900D02*
X021884Y012900D01*
X021885Y012938D02*
X022904Y012938D01*
X022849Y012976D02*
X021886Y012976D01*
X021886Y013014D02*
X022792Y013014D01*
X022736Y013052D02*
X021887Y013052D01*
X021888Y013090D02*
X022665Y013090D01*
X022588Y013128D02*
X021889Y013128D01*
X021889Y013166D02*
X022505Y013166D01*
X022394Y013203D02*
X021890Y013203D01*
X021891Y013241D02*
X022257Y013241D01*
X021986Y013279D02*
X021891Y013279D01*
D16*
X007967Y015600D02*
X007967Y018100D01*
X007965Y018130D01*
X007960Y018160D01*
X007951Y018189D01*
X007938Y018216D01*
X007923Y018242D01*
X007904Y018266D01*
X007883Y018287D01*
X007859Y018306D01*
X007833Y018321D01*
X007806Y018334D01*
X007777Y018343D01*
X007747Y018348D01*
X007717Y018350D01*
X005967Y018350D01*
X005717Y018600D01*
X005717Y015100D01*
X005967Y015350D01*
X007717Y015350D01*
X007747Y015352D01*
X007777Y015357D01*
X007806Y015366D01*
X007833Y015379D01*
X007859Y015394D01*
X007883Y015413D01*
X007904Y015434D01*
X007923Y015458D01*
X007938Y015484D01*
X007951Y015511D01*
X007960Y015540D01*
X007965Y015570D01*
X007967Y015600D01*
X005967Y015600D02*
X005967Y018100D01*
D17*
X008487Y016971D02*
X008487Y016765D01*
X008694Y016971D01*
X008745Y016971D01*
X008797Y016920D01*
X008797Y016816D01*
X008745Y016765D01*
X008797Y016649D02*
X008487Y016649D01*
X008797Y016442D01*
X008487Y016442D01*
X008538Y016327D02*
X008487Y016275D01*
X008487Y016172D01*
X008538Y016120D01*
X008745Y016120D01*
X008797Y016172D01*
X008797Y016275D01*
X008745Y016327D01*
D18*
X026282Y016092D03*
X032942Y014372D03*
X033722Y007792D03*
X036922Y007492D03*
X036662Y004412D03*
D19*
X033022Y004642D03*
X031302Y006862D03*
X032882Y007682D03*
X032922Y007662D03*
X032942Y007662D03*
X033502Y007782D03*
X033522Y007782D03*
X033862Y008842D03*
X037002Y007462D03*
X034262Y011222D03*
X031742Y012182D03*
X033042Y014522D03*
X033062Y014562D03*
X033082Y014582D03*
X033142Y014682D03*
X033182Y014762D03*
X033202Y014762D03*
X033322Y014942D03*
X031042Y015382D03*
X031002Y015422D03*
X030982Y015442D03*
X030962Y015442D03*
X030922Y015462D03*
X030902Y015482D03*
X030882Y015482D03*
X033142Y016622D03*
X026302Y016082D03*
D20*
X026322Y016082D03*
X027282Y017902D03*
X031062Y015362D03*
X033342Y014962D03*
X033362Y015002D03*
X033422Y015062D03*
X033442Y015082D03*
X033502Y015162D03*
X033522Y015182D03*
X033602Y015282D03*
X033622Y015282D03*
X033642Y015322D03*
X034342Y012822D03*
X034322Y012782D03*
X031802Y012242D03*
X031762Y012202D03*
X034302Y011162D03*
X034282Y009102D03*
X032402Y007862D03*
X032442Y007842D03*
X032462Y007842D03*
X032542Y007802D03*
X032562Y007802D03*
X032582Y007802D03*
X032602Y007782D03*
X032642Y007762D03*
X032662Y007762D03*
X032682Y007762D03*
X032722Y007742D03*
X032742Y007722D03*
X032762Y007722D03*
X032802Y007702D03*
X032362Y007882D03*
X032342Y007882D03*
X032302Y007902D03*
X032222Y007942D03*
X032202Y007942D03*
X032162Y007962D03*
X032122Y007982D03*
X032102Y007982D03*
X032022Y008022D03*
X032002Y008022D03*
X031982Y008022D03*
X031962Y008022D03*
X031942Y008042D03*
X031902Y008062D03*
X031882Y008082D03*
X031562Y008262D03*
X030362Y008882D03*
X027122Y012962D03*
X028782Y013522D03*
X036642Y004382D03*
D21*
X031362Y006852D03*
X033902Y008812D03*
X034302Y009092D03*
X037082Y007412D03*
X034362Y011052D03*
X034342Y011092D03*
X031842Y012312D03*
X034362Y012852D03*
X031102Y015292D03*
X033982Y015632D03*
X034022Y015672D03*
X034062Y015712D03*
X034162Y015792D03*
X026342Y016072D03*
D22*
X026362Y016082D03*
X029722Y014782D03*
X029902Y013602D03*
X031862Y012342D03*
X030202Y011882D03*
X027162Y012982D03*
X034402Y012922D03*
X034422Y012942D03*
X034382Y011022D03*
X035902Y010762D03*
X034042Y015702D03*
X034082Y015722D03*
X034102Y015742D03*
X034122Y015762D03*
X034142Y015782D03*
X034182Y015822D03*
X034202Y015822D03*
X034222Y015842D03*
X034262Y015862D03*
X034282Y015882D03*
X034342Y015922D03*
X027302Y017902D03*
D23*
X026382Y016072D03*
X031982Y012652D03*
X034442Y012972D03*
X034402Y010972D03*
X037102Y007392D03*
X038202Y005712D03*
X036622Y004392D03*
X033042Y004652D03*
X031402Y006852D03*
X031382Y006852D03*
X034242Y015852D03*
X034302Y015892D03*
X034322Y015912D03*
X034362Y015952D03*
X034382Y015952D03*
X034442Y015992D03*
X034462Y016012D03*
D24*
X034562Y016072D03*
X034642Y016112D03*
X034682Y016152D03*
X034722Y016172D03*
X034742Y016172D03*
X034802Y016212D03*
X034862Y016252D03*
X028802Y013532D03*
X027222Y012992D03*
X027202Y012992D03*
X026422Y016072D03*
X026402Y016072D03*
X034482Y013052D03*
X034422Y010952D03*
X037122Y007372D03*
X038182Y005732D03*
D25*
X031562Y006862D03*
X031542Y006862D03*
X031522Y006862D03*
X034342Y009062D03*
X034482Y010842D03*
X034542Y013182D03*
X031142Y015202D03*
X029862Y013662D03*
X026462Y016062D03*
X026442Y016062D03*
X027362Y017902D03*
X035002Y016322D03*
X035042Y016342D03*
X035082Y016362D03*
X035102Y016362D03*
X035162Y016402D03*
X035222Y016422D03*
X035242Y016422D03*
X035262Y016442D03*
X035302Y016462D03*
X035322Y016462D03*
X035422Y016502D03*
X030262Y009222D03*
D26*
X033202Y007112D03*
X033062Y004652D03*
X034522Y010772D03*
X035882Y010692D03*
X034562Y013212D03*
X034582Y013232D03*
X031162Y015172D03*
X035342Y016472D03*
X035362Y016472D03*
X035382Y016492D03*
X035402Y016492D03*
X035442Y016512D03*
X035502Y016532D03*
X035522Y016532D03*
X035542Y016552D03*
X035562Y016552D03*
X035602Y016572D03*
X035622Y016572D03*
X027262Y012992D03*
X026482Y016072D03*
D27*
X026502Y016062D03*
X027382Y017882D03*
X031182Y015162D03*
X027282Y013002D03*
X031722Y012302D03*
X035462Y016522D03*
X035482Y016522D03*
X035582Y016562D03*
X035642Y016582D03*
X035662Y016582D03*
X035702Y016602D03*
X035722Y016602D03*
X035742Y016602D03*
X035762Y016622D03*
X035782Y016622D03*
X037182Y007322D03*
X037202Y007322D03*
X038142Y005742D03*
X031622Y006862D03*
X031602Y006862D03*
X031582Y006862D03*
D28*
X031642Y006852D03*
X031662Y006852D03*
X031682Y006852D03*
X036602Y004432D03*
X034562Y010672D03*
X034542Y010712D03*
X030182Y011872D03*
X027302Y013012D03*
X029842Y013692D03*
X026522Y016052D03*
X027402Y017872D03*
X035682Y016592D03*
X035802Y016632D03*
X035862Y016652D03*
X035882Y016652D03*
X035902Y016652D03*
X035942Y016672D03*
X035962Y016672D03*
D29*
X035982Y016682D03*
X036002Y016682D03*
X036022Y016682D03*
X036082Y016702D03*
X036162Y016722D03*
X036182Y016722D03*
X036202Y016722D03*
X035922Y016662D03*
X035842Y016642D03*
X035822Y016642D03*
X034622Y013322D03*
X034602Y013282D03*
X034582Y010662D03*
X034362Y009062D03*
X033822Y008382D03*
X032042Y006762D03*
X032122Y006722D03*
X032142Y006722D03*
X032222Y006662D03*
X032282Y006622D03*
X032342Y006582D03*
X032362Y006582D03*
X031922Y006802D03*
X031902Y006802D03*
X031762Y006842D03*
X031742Y006842D03*
X031722Y006842D03*
X031702Y006842D03*
X037222Y007302D03*
X037242Y007302D03*
X038122Y005762D03*
X027322Y013022D03*
X026562Y016042D03*
X026542Y016042D03*
X027422Y017862D03*
D30*
X026602Y016032D03*
X026582Y016032D03*
X029742Y014772D03*
X031702Y013452D03*
X031822Y013052D03*
X030162Y011872D03*
X027342Y013032D03*
X033082Y016612D03*
X036042Y016692D03*
X036062Y016692D03*
X036102Y016712D03*
X036122Y016712D03*
X036142Y016712D03*
X036222Y016732D03*
X036242Y016732D03*
X036262Y016732D03*
X034642Y013372D03*
X032082Y006752D03*
X032062Y006752D03*
X032102Y006732D03*
X032162Y006712D03*
X032182Y006692D03*
X032202Y006672D03*
X032242Y006652D03*
X032302Y006612D03*
X032322Y006592D03*
X032382Y006572D03*
X032402Y006572D03*
X032022Y006772D03*
X032002Y006772D03*
X031962Y006792D03*
X031942Y006792D03*
X031882Y006812D03*
X031862Y006812D03*
X031822Y006832D03*
X031802Y006832D03*
X031782Y006832D03*
D31*
X031842Y006822D03*
X031982Y006782D03*
X032262Y006642D03*
X032422Y006562D03*
X032442Y006562D03*
X032462Y006562D03*
X033222Y007122D03*
X037262Y007282D03*
X037282Y007282D03*
X038102Y005762D03*
X036582Y004442D03*
X033082Y004662D03*
X034602Y010582D03*
X031842Y013002D03*
X031802Y013142D03*
X031782Y013182D03*
X031762Y013282D03*
X031722Y013402D03*
X034662Y013402D03*
X031202Y015082D03*
X033062Y016622D03*
X036282Y016742D03*
X036302Y016742D03*
X036322Y016742D03*
X036342Y016742D03*
X027442Y017862D03*
X026642Y016022D03*
X026622Y016022D03*
X027362Y013042D03*
D32*
X027382Y013052D03*
X029762Y014772D03*
X031742Y013312D03*
X031862Y012972D03*
X031702Y012352D03*
X034622Y010552D03*
X034642Y010512D03*
X034662Y010492D03*
X034382Y009052D03*
X037302Y007272D03*
X032862Y006472D03*
X032582Y006552D03*
X032562Y006552D03*
X032542Y006552D03*
X032522Y006552D03*
X032502Y006552D03*
X032482Y006552D03*
X026682Y016012D03*
X026662Y016012D03*
X027462Y017852D03*
X036362Y016752D03*
X036382Y016752D03*
X036402Y016752D03*
X036422Y016752D03*
X036442Y016752D03*
X036502Y016772D03*
X036522Y016772D03*
D33*
X036542Y016782D03*
X036562Y016782D03*
X036582Y016782D03*
X036602Y016782D03*
X036622Y016782D03*
X036642Y016782D03*
X036662Y016782D03*
X036482Y016762D03*
X036462Y016762D03*
X031222Y015042D03*
X034682Y013462D03*
X035862Y010642D03*
X037322Y007262D03*
X037342Y007262D03*
X038082Y005762D03*
X032922Y006442D03*
X032902Y006462D03*
X032882Y006462D03*
X032842Y006482D03*
X032822Y006482D03*
X032782Y006502D03*
X032642Y006542D03*
X032622Y006542D03*
X032602Y006542D03*
X026742Y016002D03*
X026722Y016002D03*
X026702Y016002D03*
X027482Y017842D03*
D34*
X027502Y017832D03*
X026782Y015992D03*
X026762Y015992D03*
X031242Y014992D03*
X027442Y013072D03*
X027422Y013052D03*
X027402Y013052D03*
X036682Y016792D03*
X036702Y016792D03*
X036722Y016792D03*
X036742Y016792D03*
X032722Y006532D03*
X032702Y006532D03*
X032682Y006532D03*
X032662Y006532D03*
X032762Y006512D03*
X032802Y006492D03*
X032942Y006452D03*
X032962Y006452D03*
X032982Y006452D03*
D35*
X032742Y006522D03*
X030362Y009342D03*
X031942Y012662D03*
X034702Y013502D03*
X031262Y014982D03*
X029782Y014762D03*
X027442Y015842D03*
X027382Y015862D03*
X027362Y015882D03*
X027342Y015882D03*
X026882Y015982D03*
X026862Y015982D03*
X026842Y015982D03*
X026822Y015982D03*
X026802Y015982D03*
X027522Y017822D03*
X027542Y017822D03*
X033042Y016602D03*
X036762Y016802D03*
X036782Y016802D03*
X036802Y016802D03*
X036822Y016802D03*
X036842Y016802D03*
X036862Y016802D03*
X036882Y016802D03*
X036902Y016802D03*
X036922Y016802D03*
X036942Y016802D03*
X036962Y016802D03*
X036982Y016802D03*
X037002Y016802D03*
X037022Y016802D03*
X037042Y016802D03*
X037062Y016802D03*
X037082Y016802D03*
X037102Y016802D03*
X027462Y013082D03*
D36*
X027482Y013092D03*
X029802Y013752D03*
X029822Y013752D03*
X031922Y012672D03*
X030142Y011872D03*
X034682Y010412D03*
X030382Y009352D03*
X033002Y006452D03*
X033022Y006452D03*
X033042Y006452D03*
X033102Y006412D03*
X033122Y006412D03*
X037362Y007252D03*
X038042Y005792D03*
X038062Y005792D03*
X034722Y013552D03*
X035202Y014732D03*
X037122Y016792D03*
X027582Y017792D03*
X027562Y017812D03*
X026962Y015952D03*
X026942Y015952D03*
X026922Y015952D03*
X026902Y015972D03*
X027082Y015932D03*
X027102Y015932D03*
X027262Y015892D03*
X027282Y015892D03*
X027302Y015892D03*
X027322Y015892D03*
X027402Y015852D03*
X027422Y015852D03*
X027462Y015832D03*
D37*
X027482Y015822D03*
X027502Y015822D03*
X027522Y015822D03*
X027602Y015802D03*
X027242Y015902D03*
X027222Y015902D03*
X027202Y015902D03*
X027142Y015922D03*
X027122Y015922D03*
X027062Y015942D03*
X027042Y015942D03*
X027022Y015942D03*
X027002Y015942D03*
X026982Y015942D03*
X027602Y017782D03*
X034742Y013582D03*
X034702Y010382D03*
X034402Y009042D03*
X033802Y008382D03*
X030402Y009362D03*
X030282Y009202D03*
X033062Y006442D03*
X033082Y006442D03*
X033142Y006402D03*
X033102Y004682D03*
X037382Y007242D03*
X037402Y007242D03*
X037422Y007242D03*
X027502Y013102D03*
X037142Y016802D03*
X037162Y016802D03*
X037182Y016802D03*
X037202Y016802D03*
X037222Y016802D03*
X037242Y016802D03*
X037262Y016802D03*
X037282Y016802D03*
X037302Y016802D03*
X037322Y016802D03*
X037342Y016802D03*
X037362Y016802D03*
X037382Y016802D03*
X037402Y016802D03*
X037422Y016802D03*
D38*
X032962Y014412D03*
X029942Y013512D03*
X028762Y013512D03*
X027082Y012972D03*
X033842Y008852D03*
X033402Y007712D03*
X033382Y007712D03*
X033362Y007712D03*
X033342Y007692D03*
X033322Y007672D03*
X031422Y008272D03*
X031402Y008292D03*
X031362Y008312D03*
X031342Y008312D03*
X031322Y008332D03*
X031302Y008332D03*
X031242Y008352D03*
X031222Y008372D03*
X031202Y008372D03*
X031182Y008392D03*
X031162Y008392D03*
X031142Y008392D03*
X031122Y008392D03*
X031102Y008412D03*
X031082Y008432D03*
X031062Y008432D03*
X031002Y008452D03*
X030962Y008472D03*
X030902Y008492D03*
X030862Y008512D03*
X030842Y008512D03*
X030802Y008532D03*
X030782Y008532D03*
X030742Y008552D03*
X030722Y008572D03*
X030702Y008572D03*
X030662Y008592D03*
X030642Y008612D03*
X030622Y008612D03*
X030582Y008632D03*
X030562Y008652D03*
X030522Y008672D03*
X030502Y008692D03*
X030442Y008752D03*
X036962Y007472D03*
D39*
X033482Y007762D03*
X033462Y007762D03*
X033442Y007742D03*
X033422Y007742D03*
X033302Y007662D03*
X033282Y007662D03*
X033222Y007642D03*
X033202Y007642D03*
X033182Y007642D03*
X033162Y007642D03*
X033142Y007642D03*
X033122Y007642D03*
X033102Y007642D03*
X033082Y007642D03*
X033062Y007642D03*
X033162Y007082D03*
X031282Y006862D03*
X031442Y008262D03*
X031462Y008262D03*
X031482Y008262D03*
X031502Y008262D03*
X031522Y008262D03*
X031382Y008302D03*
X031282Y008342D03*
X031262Y008342D03*
X031042Y008442D03*
X031022Y008442D03*
X030942Y008482D03*
X030922Y008482D03*
X030882Y008502D03*
X030822Y008522D03*
X030602Y008622D03*
X030542Y008662D03*
X030482Y008702D03*
X030462Y008722D03*
X030402Y008802D03*
X034242Y011242D03*
X034282Y012742D03*
X032982Y014422D03*
X033022Y014502D03*
X030862Y015502D03*
X030842Y015502D03*
X030802Y015522D03*
X030762Y015542D03*
X030742Y015542D03*
X027102Y012962D03*
X030222Y011882D03*
D40*
X031822Y012292D03*
X027142Y012972D03*
X031082Y015332D03*
X033302Y014912D03*
X033482Y015132D03*
X033542Y015212D03*
X033562Y015232D03*
X033662Y015332D03*
X033682Y015352D03*
X033702Y015372D03*
X033722Y015392D03*
X033742Y015412D03*
X033782Y015452D03*
X033802Y015472D03*
X033822Y015492D03*
X033842Y015512D03*
X033882Y008832D03*
X032322Y007892D03*
X032782Y007712D03*
X037042Y007432D03*
D41*
X034422Y009032D03*
X033182Y006392D03*
X033162Y006392D03*
X036562Y004492D03*
X038022Y005812D03*
X030122Y011872D03*
X027522Y013112D03*
X027622Y015792D03*
X027642Y015792D03*
X027582Y015812D03*
X027562Y015812D03*
X027542Y015812D03*
X027182Y015912D03*
X027162Y015912D03*
X027622Y017772D03*
X027642Y017772D03*
X033022Y016592D03*
X037442Y016792D03*
X037462Y016792D03*
X037482Y016792D03*
X034762Y013612D03*
D42*
X034462Y013022D03*
X031122Y015262D03*
X029882Y013622D03*
X027182Y012982D03*
X034442Y010942D03*
X031442Y006862D03*
X031422Y006862D03*
X034402Y015962D03*
X034422Y015982D03*
X034482Y016022D03*
X034502Y016042D03*
X034522Y016042D03*
X034542Y016062D03*
X034582Y016082D03*
X034602Y016102D03*
X034622Y016102D03*
X034662Y016122D03*
X033122Y016622D03*
X027322Y017902D03*
D43*
X027342Y017892D03*
X034902Y016272D03*
X034922Y016272D03*
X034982Y016312D03*
X035022Y016332D03*
X035062Y016352D03*
X035122Y016372D03*
X035142Y016392D03*
X035182Y016412D03*
X035202Y016412D03*
X035282Y016452D03*
X031422Y013792D03*
X031962Y012652D03*
X034502Y013092D03*
X034522Y013112D03*
X034462Y010872D03*
X034502Y010792D03*
X037162Y007352D03*
X038162Y005732D03*
X031502Y006852D03*
X027242Y012992D03*
D44*
X029922Y013552D03*
X031782Y012232D03*
X034282Y011172D03*
X035922Y010772D03*
X032382Y007872D03*
X032422Y007852D03*
X032482Y007832D03*
X032502Y007812D03*
X032522Y007812D03*
X032622Y007772D03*
X032702Y007752D03*
X032822Y007692D03*
X032842Y007692D03*
X032862Y007692D03*
X032902Y007672D03*
X032282Y007912D03*
X032262Y007932D03*
X032242Y007932D03*
X032182Y007952D03*
X032142Y007972D03*
X032082Y007992D03*
X032062Y007992D03*
X032042Y008012D03*
X031922Y008052D03*
X031322Y006852D03*
X037022Y007452D03*
X038222Y005712D03*
X033102Y014632D03*
X033122Y014652D03*
X033162Y014712D03*
X033222Y014792D03*
X033242Y014832D03*
X033262Y014852D03*
X033282Y014892D03*
X033382Y015012D03*
X033402Y015032D03*
X033462Y015112D03*
X031022Y015392D03*
X027262Y017912D03*
D45*
X027662Y017762D03*
X027682Y017742D03*
X027702Y017742D03*
X027722Y017722D03*
X027742Y017722D03*
X027722Y015782D03*
X027702Y015782D03*
X027682Y015782D03*
X027662Y015782D03*
X029782Y013782D03*
X031602Y013902D03*
X031682Y013662D03*
X034782Y013682D03*
X037502Y016782D03*
X037522Y016782D03*
X037542Y016782D03*
X037562Y016782D03*
X037582Y016782D03*
X037602Y016782D03*
X037622Y016782D03*
X037642Y016782D03*
X027582Y013142D03*
X027542Y013122D03*
X034722Y010322D03*
X033782Y008382D03*
X037442Y007242D03*
X037462Y007242D03*
X037482Y007242D03*
X037502Y007242D03*
X037522Y007242D03*
X037542Y007242D03*
X037562Y007242D03*
X037582Y007242D03*
X038002Y005822D03*
X033202Y006402D03*
X033122Y004682D03*
D46*
X036542Y004512D03*
X037982Y005832D03*
X037662Y007252D03*
X037642Y007252D03*
X037622Y007252D03*
X037602Y007252D03*
X037682Y007272D03*
X037702Y007272D03*
X037722Y007272D03*
X037742Y007272D03*
X034442Y009032D03*
X030422Y009372D03*
X030102Y011892D03*
X027622Y013172D03*
X027602Y013152D03*
X027562Y013132D03*
X031282Y014892D03*
X031622Y013852D03*
X031642Y013752D03*
X031662Y013712D03*
X034802Y013712D03*
X033002Y016592D03*
X037662Y016772D03*
X037682Y016772D03*
X037702Y016772D03*
X037722Y016772D03*
X037762Y016752D03*
X037782Y016752D03*
X037802Y016752D03*
X037822Y016752D03*
X037842Y016752D03*
X027862Y017652D03*
X027842Y017652D03*
X027822Y017672D03*
X027782Y015792D03*
X027762Y015792D03*
X027742Y015792D03*
D47*
X027802Y015782D03*
X027822Y015782D03*
X027982Y017582D03*
X027942Y017602D03*
X027922Y017622D03*
X027882Y017642D03*
X027802Y017682D03*
X027782Y017702D03*
X027762Y017702D03*
X031302Y014862D03*
X027642Y013182D03*
X031682Y012402D03*
X031902Y012662D03*
X034742Y010282D03*
X030442Y009382D03*
X030302Y009222D03*
X034542Y008022D03*
X034562Y008022D03*
X033222Y006422D03*
X037762Y007282D03*
X037782Y007282D03*
X037802Y007282D03*
X037822Y007282D03*
X037842Y007282D03*
X037922Y005882D03*
X037942Y005862D03*
X037962Y005842D03*
X037882Y016742D03*
X037862Y016742D03*
X037742Y016762D03*
D48*
X037902Y016732D03*
X037922Y016732D03*
X037942Y016732D03*
X037962Y016732D03*
X037982Y016732D03*
X038002Y016732D03*
X035182Y014732D03*
X032982Y016592D03*
X032962Y016592D03*
X031322Y014832D03*
X031342Y014732D03*
X031362Y014692D03*
X031562Y014012D03*
X031582Y013992D03*
X029802Y014772D03*
X028082Y015732D03*
X028062Y015732D03*
X028002Y015752D03*
X027982Y015752D03*
X027942Y015772D03*
X027922Y015772D03*
X027902Y015772D03*
X027882Y015772D03*
X027862Y015772D03*
X027842Y015772D03*
X028882Y016952D03*
X028962Y016912D03*
X027962Y017592D03*
X027902Y017632D03*
X027682Y013212D03*
X027662Y013192D03*
X034762Y010252D03*
X034522Y008032D03*
X037862Y007292D03*
X037882Y007292D03*
X037902Y005892D03*
D49*
X037882Y005902D03*
X037902Y007302D03*
X037922Y007302D03*
X037942Y007302D03*
X037962Y007302D03*
X037982Y007302D03*
X038002Y007302D03*
X038042Y007322D03*
X038122Y007342D03*
X038142Y007342D03*
X038202Y007362D03*
X034502Y008042D03*
X033762Y008382D03*
X034462Y009022D03*
X031662Y012422D03*
X027722Y013242D03*
X027702Y013242D03*
X031422Y014482D03*
X028102Y015722D03*
X028042Y015742D03*
X028022Y015742D03*
X027962Y015762D03*
X028922Y016922D03*
X028942Y016922D03*
X028902Y016942D03*
X028822Y017002D03*
X028002Y017562D03*
X038022Y016722D03*
X038042Y016722D03*
X038062Y016722D03*
D50*
X038082Y016712D03*
X038102Y016712D03*
X038122Y016692D03*
X038142Y016692D03*
X038162Y016692D03*
X038222Y016672D03*
X034842Y013832D03*
X034822Y013792D03*
X030082Y011912D03*
X030062Y011912D03*
X027762Y013272D03*
X027742Y013252D03*
X029762Y013832D03*
X028502Y015572D03*
X028482Y015572D03*
X028462Y015572D03*
X028422Y015592D03*
X028402Y015612D03*
X028382Y015612D03*
X028322Y015632D03*
X028222Y015672D03*
X028202Y015672D03*
X028182Y015692D03*
X028162Y015692D03*
X028142Y015712D03*
X028122Y015712D03*
X028982Y016892D03*
X029022Y016872D03*
X029042Y016852D03*
X028862Y016972D03*
X028842Y016992D03*
X028802Y017012D03*
X028782Y017032D03*
X028762Y017032D03*
X028742Y017052D03*
X028022Y017532D03*
X034782Y010192D03*
X034802Y010152D03*
X030462Y009372D03*
X030322Y009212D03*
X034482Y008052D03*
X038022Y007312D03*
X038062Y007332D03*
X038082Y007332D03*
X038102Y007332D03*
X038162Y007352D03*
X038182Y007352D03*
X038222Y007372D03*
X038242Y007372D03*
X038262Y007372D03*
X037822Y005952D03*
X037842Y005932D03*
X037862Y005912D03*
X036522Y004532D03*
X033142Y004692D03*
D51*
X033162Y004702D03*
X037722Y006022D03*
X037782Y005982D03*
X037802Y005962D03*
X038282Y007382D03*
X038302Y007382D03*
X034462Y008062D03*
X030482Y009362D03*
X030042Y011942D03*
X027802Y013302D03*
X027782Y013282D03*
X031382Y014622D03*
X028562Y015542D03*
X028542Y015562D03*
X028522Y015562D03*
X028442Y015582D03*
X028362Y015622D03*
X028342Y015622D03*
X028302Y015642D03*
X028282Y015662D03*
X028262Y015662D03*
X028242Y015662D03*
X029002Y016882D03*
X028722Y017062D03*
X028702Y017062D03*
X028682Y017082D03*
X028642Y017102D03*
X028622Y017122D03*
X028102Y017482D03*
X028082Y017482D03*
X028062Y017502D03*
X028042Y017522D03*
X032942Y016582D03*
X038182Y016682D03*
X038202Y016682D03*
X038242Y016662D03*
X038262Y016662D03*
X038282Y016662D03*
X038302Y016662D03*
D52*
X038422Y016622D03*
X038442Y016602D03*
X038462Y016602D03*
X038542Y016582D03*
X034882Y013922D03*
X029822Y014762D03*
X029742Y013862D03*
X027862Y013362D03*
X027822Y013322D03*
X029802Y012202D03*
X030022Y011962D03*
X035842Y010502D03*
X034482Y009022D03*
X034442Y008082D03*
X034422Y008082D03*
X034402Y008082D03*
X037202Y006482D03*
X037222Y006482D03*
X037262Y006442D03*
X037282Y006442D03*
X037302Y006402D03*
X037322Y006402D03*
X037422Y006302D03*
X037482Y006222D03*
X037502Y006222D03*
X037562Y006162D03*
X037582Y006142D03*
X037602Y006122D03*
X037622Y006102D03*
X037642Y006082D03*
X037662Y006082D03*
X037702Y006042D03*
X038382Y007402D03*
X038442Y007422D03*
X038462Y007442D03*
X038482Y007442D03*
X038502Y007442D03*
X038522Y007442D03*
X038542Y007442D03*
X028642Y015502D03*
X028622Y015502D03*
X029082Y016822D03*
X028582Y017142D03*
X028522Y017182D03*
X028502Y017182D03*
X028482Y017202D03*
X028462Y017222D03*
X028442Y017222D03*
X028422Y017242D03*
X028402Y017242D03*
X028382Y017262D03*
X028362Y017262D03*
X028342Y017282D03*
X028302Y017322D03*
X028282Y017322D03*
X028262Y017342D03*
X028242Y017362D03*
X028182Y017402D03*
X028142Y017442D03*
X032662Y016462D03*
X032702Y016482D03*
X032722Y016482D03*
X032742Y016502D03*
X032762Y016502D03*
X032802Y016522D03*
X032822Y016542D03*
X032842Y016542D03*
X032862Y016542D03*
D53*
X032882Y016552D03*
X032902Y016572D03*
X032922Y016572D03*
X029062Y016832D03*
X028662Y017092D03*
X028602Y017132D03*
X028562Y017152D03*
X028542Y017172D03*
X028322Y017312D03*
X028222Y017372D03*
X028202Y017392D03*
X028162Y017412D03*
X028122Y017452D03*
X028582Y015532D03*
X028602Y015532D03*
X031402Y014572D03*
X031542Y014072D03*
X031642Y012432D03*
X029822Y012172D03*
X027842Y013352D03*
X034862Y013892D03*
X038322Y016652D03*
X038342Y016652D03*
X038362Y016632D03*
X038382Y016632D03*
X038402Y016632D03*
X042522Y012032D03*
X038422Y007412D03*
X038402Y007412D03*
X038362Y007392D03*
X038342Y007392D03*
X038322Y007392D03*
X037682Y006052D03*
X037742Y006012D03*
X037762Y005992D03*
X036502Y004552D03*
X030502Y009372D03*
X030342Y009212D03*
D54*
X033742Y008392D03*
X034502Y009012D03*
X038562Y007452D03*
X038582Y007472D03*
X038602Y007472D03*
X038642Y007492D03*
X037382Y006352D03*
X037362Y006352D03*
X037342Y006392D03*
X037402Y006312D03*
X037442Y006272D03*
X037462Y006252D03*
X037522Y006212D03*
X037542Y006172D03*
X037242Y006472D03*
X037182Y006492D03*
X030002Y011972D03*
X029942Y012032D03*
X029842Y012132D03*
X031882Y012692D03*
X031522Y014092D03*
X027922Y013412D03*
X027882Y013392D03*
X032502Y016392D03*
X032522Y016392D03*
X032542Y016392D03*
X032562Y016412D03*
X032582Y016412D03*
X032602Y016432D03*
X032642Y016452D03*
X032682Y016472D03*
X032782Y016512D03*
X029102Y016812D03*
X038482Y016592D03*
X038502Y016592D03*
X038522Y016592D03*
X038562Y016572D03*
X038622Y016552D03*
X038642Y016552D03*
D55*
X038662Y016542D03*
X038702Y016522D03*
X038722Y016522D03*
X038602Y016562D03*
X038582Y016562D03*
X034902Y014022D03*
X032482Y016382D03*
X032462Y016382D03*
X032442Y016362D03*
X032422Y016362D03*
X032402Y016342D03*
X032382Y016342D03*
X032362Y016342D03*
X032342Y016322D03*
X032322Y016322D03*
X032302Y016302D03*
X032282Y016302D03*
X032262Y016302D03*
X032622Y016442D03*
X028682Y015482D03*
X028662Y015482D03*
X027982Y013482D03*
X027962Y013462D03*
X027942Y013442D03*
X027902Y013402D03*
X029862Y012122D03*
X029882Y012082D03*
X029902Y012082D03*
X029922Y012042D03*
X029962Y012022D03*
X030522Y009362D03*
X037122Y006542D03*
X037162Y006522D03*
X038622Y007482D03*
X038662Y007502D03*
X038682Y007502D03*
X038702Y007502D03*
X038722Y007502D03*
D56*
X038742Y007512D03*
X038762Y007532D03*
X038802Y007552D03*
X038822Y007552D03*
X037142Y006532D03*
X037102Y006572D03*
X034382Y008092D03*
X033722Y008392D03*
X034522Y009012D03*
X030542Y009372D03*
X029982Y011992D03*
X028002Y013492D03*
X032142Y016252D03*
X032162Y016252D03*
X032182Y016252D03*
X032202Y016272D03*
X032222Y016272D03*
X032242Y016292D03*
X038682Y016532D03*
X038742Y016512D03*
X038762Y016512D03*
X038802Y016492D03*
X036482Y004592D03*
X033182Y004712D03*
D57*
X033202Y004722D03*
X036462Y004602D03*
X037082Y006582D03*
X038782Y007542D03*
X038842Y007562D03*
X038862Y007562D03*
X038902Y007582D03*
X034362Y008102D03*
X028022Y013542D03*
X029722Y013902D03*
X032122Y016242D03*
X029122Y016782D03*
X034922Y014042D03*
X034942Y014082D03*
X038782Y016502D03*
X038822Y016482D03*
X038842Y016462D03*
X038862Y016462D03*
D58*
X038882Y016452D03*
X038902Y016452D03*
X038922Y016452D03*
X038942Y016432D03*
X038982Y016412D03*
X032102Y016232D03*
X028702Y015452D03*
X028302Y013872D03*
X028262Y013832D03*
X028222Y013792D03*
X028182Y013732D03*
X028082Y013612D03*
X028062Y013592D03*
X028042Y013552D03*
X029622Y012592D03*
X033682Y008392D03*
X033702Y008392D03*
X037042Y006632D03*
X037062Y006612D03*
X038882Y007572D03*
X038922Y007592D03*
X038962Y007612D03*
X039002Y007632D03*
D59*
X039102Y007672D03*
X039122Y007692D03*
X039142Y007692D03*
X034562Y009012D03*
X034342Y008132D03*
X030602Y009372D03*
X030582Y009372D03*
X029782Y012332D03*
X029722Y012452D03*
X029662Y012532D03*
X031622Y012492D03*
X028382Y013932D03*
X028362Y013912D03*
X028322Y013892D03*
X028162Y013712D03*
X028102Y013632D03*
X032082Y016192D03*
X035162Y014712D03*
X034982Y014212D03*
X034962Y014172D03*
X039082Y016372D03*
X039102Y016372D03*
X039122Y016352D03*
X039142Y016332D03*
X039062Y016392D03*
X039042Y016392D03*
X039022Y016392D03*
X036422Y004652D03*
D60*
X036442Y004622D03*
X033222Y004742D03*
X038942Y007602D03*
X038982Y007622D03*
X039022Y007642D03*
X039042Y007642D03*
X039062Y007642D03*
X039082Y007662D03*
X034542Y009002D03*
X035822Y010462D03*
X030562Y009362D03*
X029642Y012582D03*
X029602Y012622D03*
X028142Y013682D03*
X028122Y013662D03*
X028202Y013762D03*
X028242Y013802D03*
X028282Y013842D03*
X028342Y013902D03*
X029702Y013922D03*
X038962Y016422D03*
X039002Y016402D03*
D61*
X039162Y016322D03*
X031602Y012502D03*
X029762Y012362D03*
X029742Y012402D03*
X029682Y012522D03*
X029682Y013962D03*
X028422Y013942D03*
X028402Y013942D03*
X030622Y009382D03*
X034322Y008142D03*
X034582Y009022D03*
X037002Y006682D03*
X037022Y006662D03*
X033242Y004742D03*
X036402Y004662D03*
D62*
X036962Y006712D03*
X036982Y006712D03*
X036942Y006732D03*
X036522Y007192D03*
X036502Y007212D03*
X036462Y007252D03*
X039162Y007712D03*
X039182Y007712D03*
X039202Y007712D03*
X039222Y007732D03*
X039262Y007752D03*
X033662Y008392D03*
X030642Y009372D03*
X029702Y012472D03*
X028542Y014032D03*
X028502Y014012D03*
X028482Y013992D03*
X028462Y013972D03*
X028442Y013972D03*
X032062Y016172D03*
X039182Y016312D03*
X039202Y016312D03*
X039222Y016312D03*
X039242Y016292D03*
X039262Y016272D03*
X039282Y016272D03*
D63*
X039302Y016262D03*
X039322Y016242D03*
X039342Y016242D03*
X039362Y016222D03*
X039382Y016222D03*
X031502Y014182D03*
X029842Y014702D03*
X029662Y013982D03*
X028602Y014082D03*
X028562Y014062D03*
X028522Y014022D03*
X030422Y016242D03*
X030442Y016242D03*
X030462Y016242D03*
X030482Y016242D03*
X030502Y016242D03*
X030522Y016242D03*
X030542Y016242D03*
X030562Y016242D03*
X030582Y016242D03*
X030602Y016242D03*
X030622Y016242D03*
X030642Y016242D03*
X030662Y016242D03*
X030682Y016242D03*
X030702Y016242D03*
X030722Y016242D03*
X039242Y007742D03*
X039282Y007762D03*
X039342Y007802D03*
X036922Y006762D03*
X036582Y007122D03*
X036542Y007162D03*
X036482Y007242D03*
X036442Y007282D03*
X033262Y004742D03*
X036382Y004682D03*
D64*
X036362Y004712D03*
X036902Y006772D03*
X036882Y006812D03*
X036862Y006832D03*
X036842Y006852D03*
X036822Y006872D03*
X036642Y007052D03*
X036622Y007072D03*
X036562Y007152D03*
X036422Y007332D03*
X034302Y008172D03*
X034602Y009012D03*
X030662Y009372D03*
X031582Y012512D03*
X029542Y012792D03*
X029522Y012812D03*
X028582Y014072D03*
X028622Y014112D03*
X028642Y014132D03*
X028662Y014172D03*
X031482Y014192D03*
X035142Y014672D03*
X039402Y016212D03*
X030822Y016232D03*
X030802Y016232D03*
X030782Y016232D03*
X030762Y016232D03*
X030742Y016232D03*
X030402Y016232D03*
X030382Y016232D03*
X030362Y016232D03*
X039302Y007772D03*
X039322Y007792D03*
X039362Y007812D03*
X039422Y007832D03*
D65*
X039402Y007822D03*
X039382Y007822D03*
X039442Y007862D03*
X039462Y007862D03*
X039482Y007882D03*
X036762Y006922D03*
X036742Y006962D03*
X036722Y006962D03*
X036702Y007002D03*
X036682Y007022D03*
X036662Y007042D03*
X036602Y007102D03*
X034282Y008182D03*
X033642Y008402D03*
X034622Y009002D03*
X030702Y009362D03*
X030682Y009362D03*
X029582Y012742D03*
X029562Y012762D03*
X028682Y014202D03*
X029862Y014702D03*
X032042Y016122D03*
X030342Y016222D03*
X030322Y016222D03*
X030302Y016222D03*
X030282Y016222D03*
X030262Y016222D03*
X030242Y016222D03*
X035002Y014302D03*
X039422Y016202D03*
X039442Y016182D03*
X039462Y016162D03*
X036342Y004742D03*
X033302Y004782D03*
D66*
X033322Y004802D03*
X033382Y004862D03*
X036322Y004762D03*
X036382Y007402D03*
X034262Y008222D03*
X030742Y009362D03*
X039562Y007922D03*
X039582Y007942D03*
X039602Y007942D03*
X028702Y014242D03*
X032022Y016102D03*
X030902Y016222D03*
X030882Y016222D03*
X030202Y016202D03*
X035122Y014662D03*
X039502Y016142D03*
X039542Y016122D03*
X039602Y016082D03*
D67*
X041042Y014522D03*
X041042Y009502D03*
X041022Y009482D03*
X034622Y007242D03*
X034122Y006502D03*
X028722Y014822D03*
D68*
X028742Y014842D03*
X030162Y014442D03*
X030182Y014442D03*
X034662Y007242D03*
D69*
X038242Y005722D03*
X028742Y013522D03*
X031702Y013902D03*
D70*
X031282Y012952D03*
X028782Y014832D03*
X028762Y014832D03*
X041002Y009432D03*
X034142Y006512D03*
D71*
X034162Y006522D03*
X034682Y007262D03*
X036142Y008042D03*
X030142Y014442D03*
X028802Y014842D03*
X041002Y014602D03*
D72*
X041162Y009802D03*
X030282Y014302D03*
X028822Y014622D03*
D73*
X028842Y014602D03*
X041182Y009842D03*
D74*
X035882Y008232D03*
X035862Y008232D03*
X028862Y014572D03*
D75*
X028882Y014552D03*
X028902Y014552D03*
X030322Y014272D03*
X031102Y013232D03*
D76*
X028922Y014532D03*
X035822Y008272D03*
D77*
X028942Y014522D03*
D78*
X028962Y014512D03*
X041202Y014092D03*
X042362Y012012D03*
X041202Y009932D03*
D79*
X041222Y009972D03*
X028982Y014492D03*
D80*
X029002Y014482D03*
X030362Y014202D03*
X031062Y013302D03*
X041222Y014042D03*
D81*
X029022Y014462D03*
D82*
X029042Y014452D03*
X033782Y006432D03*
D83*
X041242Y013942D03*
X029082Y014442D03*
X029062Y014442D03*
D84*
X029102Y015022D03*
X029682Y016002D03*
X034382Y006662D03*
D85*
X034242Y008232D03*
X034182Y008232D03*
X033522Y008492D03*
X034642Y009012D03*
X030762Y009372D03*
X029102Y013492D03*
X031462Y014212D03*
X032002Y016092D03*
X030942Y016212D03*
X030922Y016212D03*
X039622Y016072D03*
X039722Y008032D03*
X039702Y008012D03*
X039662Y007992D03*
X039642Y007972D03*
X039622Y007952D03*
X033422Y004912D03*
X033402Y004872D03*
X033362Y004852D03*
D86*
X030462Y014032D03*
X029122Y014452D03*
D87*
X029142Y015042D03*
D88*
X029162Y015712D03*
X030422Y014092D03*
X031002Y013432D03*
X041242Y010112D03*
D89*
X040082Y008322D03*
X040042Y008282D03*
X040022Y008262D03*
X036302Y007562D03*
X033542Y008382D03*
X033322Y008502D03*
X033302Y008502D03*
X032142Y008922D03*
X031882Y008962D03*
X031562Y009122D03*
X031542Y009142D03*
X031442Y009182D03*
X031422Y009182D03*
X031402Y009202D03*
X031382Y009202D03*
X031322Y009242D03*
X031302Y009242D03*
X031282Y009242D03*
X031242Y009262D03*
X031222Y009262D03*
X029162Y013462D03*
X029942Y016142D03*
X029962Y016142D03*
X031202Y016142D03*
X031902Y015962D03*
X040042Y015762D03*
X040062Y015742D03*
X040082Y015722D03*
X036242Y004942D03*
D90*
X029182Y014992D03*
D91*
X029202Y014942D03*
D92*
X029222Y014932D03*
D93*
X029242Y014892D03*
X035142Y008372D03*
D94*
X042002Y012002D03*
X029282Y014862D03*
X029262Y014882D03*
D95*
X029302Y014832D03*
D96*
X029322Y014822D03*
X041982Y012022D03*
X035162Y008382D03*
D97*
X029362Y014792D03*
X029342Y014792D03*
D98*
X029382Y014762D03*
D99*
X029402Y014752D03*
X029422Y014732D03*
X029462Y014712D03*
D100*
X029442Y014722D03*
X029502Y014682D03*
X035182Y008382D03*
D101*
X035202Y008392D03*
X029482Y014692D03*
D102*
X029522Y015212D03*
D103*
X029542Y015212D03*
X042222Y012012D03*
D104*
X029562Y015222D03*
D105*
X029582Y015212D03*
X030722Y013832D03*
D106*
X030662Y013872D03*
X029642Y015212D03*
X029622Y015212D03*
X029602Y015212D03*
D107*
X030022Y014472D03*
X029662Y015992D03*
X040842Y009172D03*
X034342Y006632D03*
D108*
X034422Y006702D03*
X040722Y008982D03*
X040722Y015042D03*
X031542Y015842D03*
X029702Y016002D03*
D109*
X029722Y016012D03*
X031562Y015832D03*
X031582Y015832D03*
X040702Y015072D03*
X040702Y008972D03*
X034442Y006712D03*
D110*
X040562Y008782D03*
X040602Y008822D03*
X031422Y012742D03*
X031642Y015822D03*
X031662Y015822D03*
X031682Y015822D03*
X029742Y016062D03*
X040562Y015242D03*
X040582Y015222D03*
X040602Y015202D03*
D111*
X029762Y016062D03*
X031582Y008962D03*
X033542Y006822D03*
X033642Y006902D03*
X034522Y006802D03*
X040522Y008742D03*
X040542Y008762D03*
D112*
X036222Y007732D03*
X034542Y006832D03*
X033722Y006912D03*
X033702Y006912D03*
X033682Y006912D03*
X033662Y006912D03*
X033602Y006852D03*
X033562Y006832D03*
X033522Y006812D03*
X033502Y006812D03*
X033482Y006792D03*
X033462Y006792D03*
X033442Y006792D03*
X036002Y005352D03*
X036042Y005292D03*
X033122Y012032D03*
X033102Y012032D03*
X033082Y012032D03*
X040522Y015292D03*
X040542Y015272D03*
X031722Y015832D03*
X031702Y015832D03*
X029782Y016072D03*
D113*
X029802Y016062D03*
X031382Y016022D03*
X031742Y015842D03*
X029962Y014602D03*
X031462Y012682D03*
X033002Y012042D03*
X033182Y012042D03*
X033202Y012042D03*
X040442Y015382D03*
X035782Y005822D03*
X035822Y005702D03*
X035862Y005602D03*
X036142Y005142D03*
X036162Y005122D03*
D114*
X036182Y005082D03*
X036202Y005062D03*
X033322Y006762D03*
X040362Y008562D03*
X040422Y008622D03*
X042482Y012022D03*
X040422Y015422D03*
X040382Y015442D03*
X029822Y016082D03*
D115*
X029842Y016102D03*
X031302Y016082D03*
X031322Y016082D03*
X040302Y015522D03*
X040342Y015482D03*
X040302Y008502D03*
X036262Y007642D03*
X033302Y006742D03*
X033282Y006742D03*
X033262Y006742D03*
D116*
X033242Y006752D03*
X033142Y008572D03*
X033122Y008592D03*
X033102Y008592D03*
X040262Y008472D03*
X029922Y014632D03*
X031802Y015892D03*
X031282Y016092D03*
X029862Y016112D03*
X040282Y015552D03*
D117*
X040262Y015562D03*
X040242Y015582D03*
X040222Y015602D03*
X040202Y015622D03*
X040182Y015642D03*
X031822Y015902D03*
X029882Y016122D03*
X031502Y012642D03*
X032662Y008742D03*
X032842Y008662D03*
X032862Y008662D03*
X033062Y008582D03*
X033082Y008582D03*
X033162Y008562D03*
X040242Y008442D03*
X040282Y008482D03*
D118*
X039742Y008042D03*
X039682Y008002D03*
X036362Y007422D03*
X034222Y008242D03*
X034202Y008242D03*
X034162Y008242D03*
X033502Y008502D03*
X034662Y009002D03*
X030822Y009362D03*
X030802Y009362D03*
X030782Y009362D03*
X031562Y012542D03*
X029882Y014702D03*
X030142Y016202D03*
X030162Y016202D03*
X030182Y016202D03*
X030962Y016202D03*
X030982Y016202D03*
X031002Y016202D03*
X035102Y014622D03*
X039642Y016062D03*
X039662Y016042D03*
X039682Y016022D03*
X033442Y004942D03*
X036302Y004802D03*
D119*
X036222Y004992D03*
X034102Y008352D03*
X034082Y008352D03*
X033202Y008532D03*
X033042Y008592D03*
X033022Y008592D03*
X032982Y008612D03*
X032922Y008632D03*
X032902Y008652D03*
X032882Y008652D03*
X032822Y008672D03*
X032802Y008692D03*
X032782Y008692D03*
X032762Y008712D03*
X032742Y008712D03*
X032722Y008712D03*
X032702Y008712D03*
X032682Y008732D03*
X032642Y008752D03*
X032622Y008752D03*
X032602Y008752D03*
X032582Y008772D03*
X032562Y008772D03*
X032542Y008792D03*
X032522Y008792D03*
X032502Y008792D03*
X032482Y008792D03*
X032422Y008832D03*
X032402Y008852D03*
X032382Y008852D03*
X032362Y008852D03*
X032342Y008872D03*
X032322Y008872D03*
X032302Y008892D03*
X032282Y008892D03*
X032982Y012052D03*
X040162Y015652D03*
X031842Y015912D03*
X031262Y016112D03*
X029902Y016132D03*
X040182Y008392D03*
X040202Y008412D03*
X040222Y008432D03*
D120*
X039982Y008232D03*
X039942Y008192D03*
X039922Y008172D03*
X036322Y007512D03*
X033562Y008392D03*
X033362Y008492D03*
X034722Y008992D03*
X031042Y009332D03*
X031022Y009332D03*
X031002Y009332D03*
X030982Y009332D03*
X035062Y014552D03*
X031942Y016012D03*
X031922Y015992D03*
X031122Y016172D03*
X031102Y016172D03*
X030002Y016152D03*
X029902Y014672D03*
X039962Y015832D03*
X039982Y015812D03*
D121*
X040102Y015712D03*
X040122Y015692D03*
X040142Y015672D03*
X031222Y016132D03*
X029922Y016132D03*
X032162Y008912D03*
X032182Y008912D03*
X032202Y008912D03*
X032222Y008912D03*
X033242Y008512D03*
X033262Y008512D03*
X033282Y008512D03*
X040102Y008332D03*
X040122Y008352D03*
D122*
X040322Y008512D03*
X040342Y008552D03*
X033222Y012032D03*
X031482Y012672D03*
X029942Y014612D03*
X031782Y015872D03*
X040322Y015512D03*
X040362Y015472D03*
D123*
X034262Y012702D03*
X029962Y013462D03*
D124*
X031522Y012592D03*
X031102Y009312D03*
X031122Y009292D03*
X031142Y009292D03*
X031162Y009292D03*
X031182Y009292D03*
X031202Y009272D03*
X031262Y009252D03*
X031342Y009212D03*
X031362Y009212D03*
X031462Y009172D03*
X031482Y009172D03*
X031502Y009152D03*
X031522Y009152D03*
X031902Y008972D03*
X032022Y008952D03*
X032062Y008932D03*
X032082Y008932D03*
X032102Y008932D03*
X032122Y008932D03*
X033582Y005252D03*
X033502Y005132D03*
X040062Y008292D03*
X040022Y015772D03*
X031182Y016152D03*
X031162Y016152D03*
X029982Y016152D03*
D125*
X029982Y014572D03*
X031442Y012732D03*
X031602Y008952D03*
X034502Y006792D03*
X040582Y008812D03*
D126*
X040642Y008872D03*
X040662Y008912D03*
X034462Y006732D03*
X030002Y014552D03*
X031482Y015892D03*
X040662Y015112D03*
D127*
X039942Y015842D03*
X039922Y015862D03*
X039902Y015882D03*
X039882Y015902D03*
X031542Y012582D03*
X030962Y009342D03*
X030942Y009342D03*
X033382Y008502D03*
X033402Y008502D03*
X034702Y009002D03*
X039882Y008142D03*
X039902Y008162D03*
X033662Y005382D03*
X033642Y005362D03*
X033622Y005322D03*
X033602Y005302D03*
X033482Y005062D03*
X030042Y016162D03*
X030022Y016162D03*
X031082Y016182D03*
D128*
X030042Y014462D03*
X040842Y014862D03*
X040862Y014842D03*
X040862Y009202D03*
X034322Y006622D03*
D129*
X033682Y005402D03*
X033602Y008382D03*
X033462Y008482D03*
X033442Y008482D03*
X030862Y009362D03*
X030842Y009362D03*
X039802Y008082D03*
X039842Y008122D03*
X031442Y014242D03*
X031962Y016042D03*
X031982Y016042D03*
X031042Y016182D03*
X030082Y016182D03*
X030062Y016182D03*
X035042Y014502D03*
X035082Y014602D03*
X039782Y015962D03*
D130*
X040922Y014762D03*
X031362Y012922D03*
X030062Y014462D03*
X036162Y007982D03*
D131*
X034262Y006572D03*
X034242Y006572D03*
X031402Y012932D03*
X031382Y012932D03*
X031342Y012932D03*
X030082Y014452D03*
D132*
X030102Y016192D03*
X030122Y016192D03*
X031022Y016192D03*
X039702Y016012D03*
X039722Y016012D03*
X039742Y015992D03*
X039762Y015972D03*
X033482Y008492D03*
X033622Y008372D03*
X039762Y008052D03*
X039782Y008072D03*
X036282Y004832D03*
D133*
X034202Y006542D03*
X031322Y012922D03*
X030122Y014442D03*
X030102Y014442D03*
D134*
X030202Y014422D03*
X031242Y013002D03*
X034602Y007242D03*
X034102Y006502D03*
D135*
X036402Y007352D03*
X036782Y006912D03*
X036802Y006892D03*
X039502Y007892D03*
X039522Y007892D03*
X039542Y007912D03*
X033342Y004812D03*
X033282Y004772D03*
X030722Y009372D03*
X035022Y014352D03*
X030862Y016232D03*
X030842Y016232D03*
X030222Y016212D03*
X039482Y016152D03*
X039522Y016132D03*
X039562Y016112D03*
X039582Y016092D03*
D136*
X041062Y014462D03*
X041062Y009562D03*
X036082Y008122D03*
X034582Y007222D03*
X030222Y014402D03*
D137*
X035222Y014712D03*
X030222Y009212D03*
X031262Y006872D03*
X036942Y007492D03*
D138*
X036042Y008172D03*
X042402Y012012D03*
X030242Y014372D03*
D139*
X033102Y016622D03*
X034702Y016162D03*
X034762Y016182D03*
X034782Y016202D03*
X034822Y016222D03*
X034842Y016242D03*
X034882Y016262D03*
X034942Y016282D03*
X034962Y016302D03*
X030242Y009222D03*
X033842Y008402D03*
X033922Y008782D03*
X034322Y009082D03*
X037142Y007362D03*
X033182Y007102D03*
X031482Y006862D03*
X031462Y006862D03*
D140*
X030262Y014322D03*
D141*
X030302Y014292D03*
X041182Y014192D03*
D142*
X031082Y013282D03*
X030342Y014222D03*
D143*
X030382Y014162D03*
X033862Y006562D03*
X033882Y006562D03*
X033842Y006502D03*
D144*
X033262Y007652D03*
X033242Y007652D03*
X033042Y007652D03*
X033022Y007652D03*
X033002Y007652D03*
X032982Y007652D03*
X032962Y007652D03*
X031542Y008252D03*
X030422Y008772D03*
X030382Y008812D03*
X036982Y007472D03*
X034302Y012752D03*
X033002Y014472D03*
X030942Y015452D03*
X030822Y015512D03*
X030782Y015532D03*
D145*
X030402Y014132D03*
X033902Y006612D03*
X033762Y006392D03*
X033742Y006372D03*
D146*
X042302Y012012D03*
X030962Y013472D03*
X030442Y014052D03*
D147*
X030482Y014012D03*
D148*
X030502Y013992D03*
X030922Y013572D03*
X041262Y013772D03*
D149*
X030522Y013962D03*
D150*
X030542Y013962D03*
X030742Y013722D03*
X030762Y013702D03*
X030782Y013682D03*
X030822Y013642D03*
X042262Y012022D03*
D151*
X030582Y013922D03*
X030562Y013922D03*
D152*
X030602Y013902D03*
X034802Y007982D03*
D153*
X030622Y013892D03*
D154*
X030642Y013882D03*
D155*
X030682Y013862D03*
X030702Y013842D03*
D156*
X034222Y011262D03*
X030762Y008542D03*
X030682Y008582D03*
X030982Y008462D03*
D157*
X030862Y013612D03*
X030842Y013612D03*
X030802Y013672D03*
D158*
X030882Y013592D03*
X041262Y010272D03*
D159*
X039862Y008132D03*
X039822Y008092D03*
X036342Y007492D03*
X034142Y008272D03*
X033582Y008392D03*
X033422Y008492D03*
X034682Y009012D03*
X030922Y009352D03*
X030902Y009352D03*
X030882Y009352D03*
X033722Y005452D03*
X033702Y005432D03*
X033462Y005012D03*
X036262Y004872D03*
X039842Y015912D03*
X039862Y015912D03*
X039822Y015932D03*
X039802Y015952D03*
X031062Y016192D03*
D160*
X030902Y013582D03*
X042282Y012022D03*
D161*
X030942Y013522D03*
D162*
X030982Y013452D03*
D163*
X031022Y013382D03*
X033822Y006482D03*
X033802Y006442D03*
D164*
X031042Y013352D03*
D165*
X031142Y016162D03*
X040002Y015802D03*
X031082Y009322D03*
X031062Y009322D03*
X031922Y008982D03*
X031942Y008982D03*
X031962Y008982D03*
X031982Y008982D03*
X032002Y008962D03*
X032042Y008942D03*
X033342Y008502D03*
X034742Y009002D03*
X039962Y008202D03*
X040002Y008242D03*
X033562Y005222D03*
X033542Y005202D03*
X033522Y005162D03*
D166*
X031122Y013202D03*
D167*
X031142Y013152D03*
D168*
X031162Y013132D03*
X041162Y014252D03*
X042382Y012012D03*
D169*
X041142Y009732D03*
X035962Y008212D03*
X035942Y008212D03*
X031182Y013112D03*
D170*
X031202Y013082D03*
X036022Y008182D03*
D171*
X036062Y008152D03*
X031222Y013052D03*
D172*
X031862Y015922D03*
X031882Y015942D03*
X031242Y016122D03*
X042502Y012022D03*
X040162Y008382D03*
X040142Y008362D03*
X036282Y007602D03*
X034122Y008342D03*
X033222Y008522D03*
X033182Y008542D03*
X033002Y008602D03*
X032962Y008622D03*
X032942Y008622D03*
X032462Y008802D03*
X032442Y008822D03*
X032262Y008902D03*
X032242Y008902D03*
D173*
X036122Y008092D03*
X031262Y012992D03*
D174*
X031302Y012932D03*
X040982Y014632D03*
X040982Y009392D03*
X034702Y007252D03*
X034182Y006532D03*
D175*
X033342Y006772D03*
X035802Y005772D03*
X035842Y005672D03*
X036242Y007692D03*
X040382Y008592D03*
X040402Y008612D03*
X040402Y015432D03*
X031762Y015852D03*
X031362Y016052D03*
X031342Y016052D03*
D176*
X033582Y015242D03*
X033762Y015422D03*
X033862Y015542D03*
X033882Y015542D03*
X033902Y015562D03*
X033922Y015582D03*
X033942Y015602D03*
X033962Y015622D03*
X034002Y015662D03*
X034382Y012862D03*
X034322Y011122D03*
X037062Y007422D03*
X031342Y006862D03*
D177*
X033362Y006772D03*
X033382Y006772D03*
X033402Y006772D03*
X035762Y005852D03*
X035882Y005572D03*
X035902Y005512D03*
X035942Y005432D03*
X035962Y005412D03*
X036122Y005192D03*
X040442Y008652D03*
X040462Y008672D03*
X033162Y012032D03*
X033042Y012032D03*
X033022Y012032D03*
X040462Y015352D03*
X040482Y015332D03*
X031402Y016012D03*
D178*
X031422Y015952D03*
X031622Y008932D03*
X031702Y008892D03*
X031782Y008852D03*
X031802Y008852D03*
X034482Y006752D03*
X040622Y008852D03*
D179*
X031862Y008822D03*
X031842Y008842D03*
X031822Y008842D03*
X031762Y008862D03*
X031742Y008862D03*
X031722Y008882D03*
X031682Y008902D03*
X031662Y008902D03*
X031642Y008902D03*
X040622Y015182D03*
X040642Y015162D03*
X031622Y015822D03*
X031442Y015942D03*
D180*
X031462Y015902D03*
X031602Y015822D03*
X040682Y015102D03*
X040682Y008922D03*
X036202Y007842D03*
D181*
X034402Y006692D03*
X040762Y015012D03*
X040742Y015032D03*
X031522Y015852D03*
X031502Y015852D03*
D182*
X033062Y012022D03*
X033142Y012022D03*
X040482Y008702D03*
X040502Y008702D03*
X035742Y005902D03*
X035922Y005482D03*
X035982Y005402D03*
X036022Y005322D03*
X036062Y005262D03*
X036082Y005222D03*
X036102Y005222D03*
X034562Y006842D03*
X033622Y006862D03*
X033582Y006842D03*
X033422Y006782D03*
X040502Y015322D03*
D183*
X042322Y012022D03*
X033922Y006702D03*
D184*
X033942Y007092D03*
D185*
X033962Y007122D03*
D186*
X033982Y007132D03*
D187*
X034002Y007142D03*
D188*
X034022Y007152D03*
X034062Y007192D03*
D189*
X034042Y007182D03*
D190*
X034082Y006492D03*
X036102Y008112D03*
D191*
X034742Y007272D03*
X034722Y007272D03*
X034222Y006552D03*
X040962Y009352D03*
D192*
X034302Y006602D03*
X034282Y006602D03*
X040882Y014802D03*
D193*
X040822Y014912D03*
X040802Y014932D03*
X042462Y012032D03*
X040822Y009132D03*
X040802Y009112D03*
X034362Y006652D03*
D194*
X034642Y007252D03*
X042422Y012032D03*
X041022Y014552D03*
D195*
X042242Y012012D03*
X034782Y007972D03*
X034762Y007952D03*
D196*
X034822Y008382D03*
D197*
X034842Y008362D03*
X035042Y008282D03*
D198*
X034862Y008342D03*
X042102Y012022D03*
D199*
X034882Y008332D03*
D200*
X034902Y008292D03*
D201*
X034922Y008272D03*
X034942Y008252D03*
X042142Y012012D03*
D202*
X035002Y008212D03*
X034982Y008212D03*
X034962Y008232D03*
D203*
X035022Y008222D03*
D204*
X035062Y008292D03*
D205*
X035082Y008342D03*
D206*
X035102Y008362D03*
X042042Y012022D03*
D207*
X035122Y008372D03*
D208*
X035222Y008392D03*
D209*
X035242Y008372D03*
D210*
X035262Y008372D03*
D211*
X035282Y008362D03*
D212*
X035302Y008352D03*
D213*
X035322Y008352D03*
D214*
X035342Y008342D03*
D215*
X035362Y008352D03*
X041862Y012012D03*
D216*
X035382Y008342D03*
D217*
X035402Y008332D03*
D218*
X035422Y008322D03*
D219*
X035442Y008302D03*
X041802Y012022D03*
X041822Y012022D03*
D220*
X035462Y008292D03*
D221*
X035482Y008282D03*
D222*
X035502Y008262D03*
X041762Y012022D03*
D223*
X035522Y008242D03*
D224*
X035542Y008212D03*
X035562Y008212D03*
X041722Y012012D03*
D225*
X035582Y008172D03*
D226*
X035602Y008162D03*
D227*
X035622Y008152D03*
D228*
X035642Y008132D03*
X041682Y012012D03*
D229*
X035662Y008122D03*
D230*
X035682Y008102D03*
D231*
X035702Y008092D03*
D232*
X035722Y008062D03*
X041622Y012022D03*
D233*
X035742Y008912D03*
D234*
X035762Y008922D03*
D235*
X035782Y008912D03*
D236*
X035802Y008922D03*
X042122Y012022D03*
D237*
X035842Y008262D03*
D238*
X035902Y008222D03*
X035922Y008222D03*
D239*
X035982Y008202D03*
X041142Y014302D03*
D240*
X041122Y014352D03*
X041122Y009692D03*
X036002Y008192D03*
D241*
X036182Y007882D03*
X040742Y009002D03*
X040762Y009042D03*
X040782Y014982D03*
D242*
X040782Y009052D03*
D243*
X040882Y009232D03*
X040902Y009252D03*
X040922Y009272D03*
X040902Y014792D03*
D244*
X040942Y014702D03*
X040962Y014682D03*
X042442Y012022D03*
X040942Y009322D03*
D245*
X041082Y014432D03*
D246*
X041102Y014402D03*
X041102Y009622D03*
X041082Y009602D03*
D247*
X041282Y012012D03*
D248*
X041302Y012022D03*
D249*
X041322Y012022D03*
D250*
X041342Y012022D03*
D251*
X041362Y012012D03*
D252*
X041382Y012012D03*
X041402Y012012D03*
D253*
X041422Y012022D03*
D254*
X041442Y012012D03*
D255*
X041462Y012012D03*
D256*
X041482Y012022D03*
D257*
X041502Y012012D03*
D258*
X041522Y012022D03*
D259*
X041542Y012012D03*
D260*
X041562Y012022D03*
D261*
X041582Y012012D03*
D262*
X041602Y012012D03*
D263*
X041642Y012022D03*
D264*
X041662Y012012D03*
D265*
X041702Y012012D03*
D266*
X041742Y012012D03*
D267*
X041782Y012012D03*
D268*
X041842Y012022D03*
D269*
X041882Y012012D03*
D270*
X041902Y012012D03*
D271*
X041922Y012022D03*
D272*
X041942Y012022D03*
D273*
X041962Y012022D03*
D274*
X042022Y012022D03*
D275*
X042062Y012012D03*
D276*
X042082Y012012D03*
D277*
X042162Y012012D03*
D278*
X042182Y012002D03*
D279*
X042202Y012012D03*
D280*
X042342Y012012D03*
M02*
