%
M48
M72
T01C0.0236
T02C0.0240
T03C0.0315
T04C0.0320
T05C0.0360
T06C0.0400
T07C0.0433
T08C0.0866
T09C0.0984
T10C0.1575
%
T01
X40660Y4696
X14467Y5850
X15217Y5850
X15717Y5850
X14467Y6850
X12817Y7728
X9983Y7728
X10717Y9350
X12109Y9854
X14234Y9381
X13526Y11507
X13217Y11850
X13526Y12925
X13717Y14100
X13217Y14600
X15467Y14100
X16217Y14100
X10927Y12452
X9217Y13600
X8467Y14350
X10217Y14850
X23217Y8600
X24967Y11850
X15467Y18850
X14717Y18850
X13815Y19698
X39965Y18726
T02
X11467Y7850
X10717Y7128
X13467Y9850
X14217Y10350
X23217Y14350
X23717Y13850
X24217Y13350
X24717Y12850
X27217Y13100
X27717Y12350
X27717Y13850
X29467Y13850
X31467Y13850
X33467Y13850
X35467Y13850
X37467Y13850
X39467Y13850
X41467Y13850
X41467Y16600
X39467Y16850
X37467Y16850
X35467Y16850
X33467Y16850
X31467Y16850
X29467Y16850
X27217Y16350
X27717Y15600
X26967Y15100
X25967Y16600
X26467Y17100
X25967Y18350
X27467Y19350
X26717Y19600
X28967Y18850
X23717Y18100
X22467Y19850
X21717Y15850
X22217Y15350
X22717Y14850
X27717Y10850
X29467Y10850
X31467Y10850
X33467Y10850
X35467Y10850
X37467Y10850
X39467Y10850
X41467Y10850
X41467Y7850
X39467Y7850
X37467Y7850
X35467Y7850
X33467Y7850
X31467Y7850
X29467Y7850
X27717Y7850
X24717Y6600
X23717Y6100
X24217Y8850
X27717Y9350
X30217Y5850
X32967Y5850
X33967Y5850
X34967Y5850
X35967Y5850
X36967Y5850
X37967Y5850
T03
X12717Y18850
X12717Y8850
X21717Y8850
X20467Y18100
T04
X11217Y13300
X11217Y11400
X8467Y5800
X8467Y3900
T05
X8093Y12978
X8093Y12044
X8093Y11156
X8093Y10222
T06
X10717Y18350
X11717Y18350
X11717Y17350
X10717Y17350
X10717Y16350
X11717Y16350
X11717Y15350
X10717Y15350
X17467Y17850
X18467Y17850
X18467Y18850
X17467Y18850
X28467Y19850
X29467Y19850
X30467Y19850
X31467Y19850
X43998Y17051
X43998Y16051
X43998Y15051
X43998Y14051
X43998Y13051
X43998Y9492
X43998Y8492
X43998Y7492
X43998Y6492
X43998Y5492
X18967Y2850
X17967Y2850
X16967Y2850
X15967Y2850
X14967Y2850
T07
X7109Y10714
X7109Y12486
T08
X7148Y13883
X7148Y9317
T09
X43467Y3600
X43467Y19350
T10
X43967Y11193
M30
